<svg width="114" height="24" viewBox="0 0 114 24" fill="none" xmlns="http://www.w3.org/2000/svg">
<path d="M43.8815 6.39223V18.1731H40.8879V16.7342C40.1338 17.8134 38.7855 18.4429 37.0945 18.4429C33.621 18.4429 31.5872 15.7 31.5872 12.2827C31.5872 8.86532 33.621 6.12244 37.0945 6.12244C38.7855 6.12244 40.1338 6.75195 40.8879 7.83112V6.39223H43.8815ZM37.7801 8.93277C35.9747 8.93277 34.8321 10.3717 34.8321 12.2827C34.8321 14.1937 35.9747 15.6326 37.7801 15.6326C39.5854 15.6326 40.728 14.1937 40.728 12.2827C40.728 10.3717 39.5854 8.93277 37.7801 8.93277Z" fill="#001A3A"/>
<path d="M48.4459 22.5283H45.2009V6.39223H48.1945V7.83112C48.9487 6.75195 50.2969 6.12244 51.988 6.12244C55.4615 6.12244 57.4953 8.86532 57.4953 12.2827C57.4953 15.7 55.4615 18.4429 51.988 18.4429C50.2969 18.4429 49.0629 17.7235 48.4459 16.9141V22.5283ZM51.3024 15.6326C53.1077 15.6326 54.2503 14.1937 54.2503 12.2827C54.2503 10.3717 53.1077 8.93277 51.3024 8.93277C49.4971 8.93277 48.3545 10.3717 48.3545 12.2827C48.3545 14.1937 49.4971 15.6326 51.3024 15.6326Z" fill="#001A3A"/>
<path d="M61.7587 22.5283H58.5137V6.39223H61.5073V7.83112C62.2614 6.75195 63.6097 6.12244 65.3008 6.12244C68.7743 6.12244 70.8081 8.86532 70.8081 12.2827C70.8081 15.7 68.7743 18.4429 65.3008 18.4429C63.6097 18.4429 62.3757 17.7235 61.7587 16.9141V22.5283ZM64.6152 15.6326C66.4205 15.6326 67.5631 14.1937 67.5631 12.2827C67.5631 10.3717 66.4205 8.93277 64.6152 8.93277C62.8099 8.93277 61.6673 10.3717 61.6673 12.2827C61.6673 14.1937 62.8099 15.6326 64.6152 15.6326Z" fill="#001A3A"/>
<path d="M81.3624 1.47168H78.1174V18.1731H81.3624V1.47168Z" fill="#001A3A"/>
<path d="M75.0194 5.54104C75.0194 4.5518 75.6038 4.23704 76.3807 4.23704C76.7464 4.23704 77.1283 4.25953 77.1283 4.25953V1.51664C77.1283 1.51664 76.4134 1.47168 75.8421 1.47168C73.4198 1.47168 71.7744 2.77567 71.7744 5.60849V18.1731H75.0194V8.91022H77.1969V6.39217H75.0194V5.54104Z" fill="#001A3A"/>
<path d="M82.3052 12.2827C82.3052 8.93277 84.7504 6.12244 88.5895 6.12244C92.4287 6.12244 94.8738 8.93277 94.8738 12.2827C94.8738 15.6326 92.4287 18.4429 88.5895 18.4429C84.7504 18.4429 82.3052 15.6326 82.3052 12.2827ZM88.5895 15.6326C90.3034 15.6326 91.6288 14.396 91.6288 12.2827C91.6288 10.1693 90.3034 8.93277 88.5895 8.93277C86.8756 8.93277 85.5502 10.1693 85.5502 12.2827C85.5502 14.396 86.8756 15.6326 88.5895 15.6326Z" fill="#001A3A"/>
<path d="M103.816 10.8887H103.771L101.325 18.1731H98.2862L94.1042 6.39221H97.4635L99.863 14.1487L102.331 6.39221H105.256L107.747 14.1937L110.169 6.39221H113.46L109.278 18.1731H106.239L103.816 10.8887Z" fill="#001A3A"/>
<ellipse cx="13.7639" cy="16.7547" rx="2.98973" ry="2.9434" fill="#4F68FF"/>
<path d="M26.9876 24L16.8231 0H10.7244L20.8889 24H26.9876Z" fill="#4F68FF"/>
<path opacity="0.2" d="M14.8537 9.75L16.8231 0H10.7244L13.2655 6L14.5361 9L14.6949 9.375L14.8537 9.75Z" fill="black"/>
<path d="M0.539951 24L10.7045 0H16.8032L6.63868 24H0.539951Z" fill="#639CFF"/>
</svg>
