<svg width="12" height="16" viewBox="0 0 12 16" fill="none" xmlns="http://www.w3.org/2000/svg">
<path d="M9.80391 5.1875H6.5625V10.018L7.85273 8.72773C8.0707 8.50977 8.4293 8.50977 8.64727 8.72773C8.86523 8.9457 8.86523 9.3043 8.64727 9.52227L6.39727 11.7723C6.28828 11.8812 6.14414 11.9375 6 11.9375C5.85586 11.9375 5.71172 11.8812 5.60273 11.7723L3.35273 9.52227C3.13477 9.3043 3.13477 8.9457 3.35273 8.72773C3.5707 8.50977 3.9293 8.50977 4.14727 8.72773L5.4375 10.018V5.1875H2.19609C1.19414 5.1875 0.375 6.00313 0.375 7.00859V13.4914C0.375 14.4934 1.19063 15.3125 2.19609 15.3125H9.80391C10.8059 15.3125 11.625 14.4969 11.625 13.4914V7.00859C11.625 6.00313 10.8094 5.1875 9.80391 5.1875Z" fill="#92A1B3"/>
<path d="M6.5625 1.25C6.5625 0.940625 6.30937 0.6875 6 0.6875C5.69062 0.6875 5.4375 0.940625 5.4375 1.25V5.1875H6.5625V1.25Z" fill="#92A1B3"/>
</svg>