<svg width="64" height="64" viewBox="0 0 64 64" fill="none" xmlns="http://www.w3.org/2000/svg">
<path d="M64 32C64 46 61.6 54.2 55.8 58.8C50.8 62.8 43 64 32 64C19.4 64 11.2 62.4 6.2 56.8C1.8 52 0 44.2 0 32C0 19 2 11 7 6.4C12 1.6 20 0 32 0C43.8 0 51.8 1.4 56.8 6.2C62 10.8 64 18.8 64 32Z" fill="#00CEAB"/>
<path d="M40.8006 13.3998C40.6006 13.3998 40.2006 13.3998 40.0006 13.1998C39.2006 12.9998 38.4006 12.3998 38.0006 11.7998C37.2006 10.1998 37.6006 8.39985 39.2006 7.39985C40.0006 6.99985 40.8006 6.79985 41.6006 6.99985C42.4006 7.19985 43.2006 7.79985 43.6006 8.39985C44.0006 8.99985 44.2006 9.99985 44.0006 10.7998C43.8006 11.5998 43.2006 12.3998 42.6006 12.7998C42.0006 13.1998 41.4006 13.3998 40.8006 13.3998ZM40.8006 8.79985C40.6006 8.79985 40.4006 8.79985 40.0006 8.99985C39.4006 9.39985 39.0006 10.1998 39.4006 10.9998C39.8006 11.5998 40.6006 11.9998 41.4006 11.5998C42.0006 11.1998 42.4006 10.3998 42.0006 9.59985C41.8006 8.99985 41.4006 8.79985 40.8006 8.79985Z" fill="#05DDB3"/>
<path d="M23.2003 56.9999C23.0003 56.9999 22.6003 56.9999 22.4003 56.7999C21.6003 56.5999 20.8003 55.9999 20.4003 55.3999C20.0003 54.5999 19.8003 53.7999 20.0003 52.9999C20.2003 52.1999 20.8003 51.3999 21.4003 50.9999C22.2003 50.5999 23.0003 50.3999 23.8003 50.5999C24.6003 50.7999 25.4003 51.3999 25.8003 51.9999C26.2003 52.5999 26.4003 53.5999 26.2003 54.3999C26.0003 55.1999 25.4003 55.9999 24.8003 56.3999C24.2003 56.7999 23.6003 56.9999 23.2003 56.9999ZM23.2003 52.3999C23.0003 52.3999 22.8003 52.3999 22.4003 52.5999C21.8003 52.9999 21.4003 53.7999 21.8003 54.5999C22.2003 55.1999 23.0003 55.5999 23.8003 55.1999C24.4003 54.7999 24.8003 53.9999 24.4003 53.1999C24.2003 52.5999 23.6003 52.3999 23.2003 52.3999Z" fill="#05DDB3"/>
<path d="M39.1751 12.233L23.3579 51.1418L25.0254 51.8197L40.8426 12.9109L39.1751 12.233Z" fill="#05DDB3"/>
<path d="M53.8004 43.9999C53.6004 43.9999 53.2004 43.9999 53.0004 43.7999C52.2004 43.5999 51.4004 42.9999 51.0004 42.3999C50.6004 41.7999 50.4004 40.7999 50.6004 39.9999C50.8004 39.1999 51.4004 38.3999 52.0004 37.9999C52.8004 37.5999 53.6004 37.3999 54.4004 37.5999C55.2004 37.7999 56.0004 38.3999 56.4004 38.9999C56.8004 39.5999 57.0004 40.5999 56.8004 41.3999C56.6004 42.1999 56.0004 42.9999 55.4004 43.3999C55.0004 43.7999 54.4004 43.9999 53.8004 43.9999ZM53.8004 39.3999C53.6004 39.3999 53.4004 39.3999 53.0004 39.5999C52.6004 39.7999 52.4004 40.1999 52.4004 40.3999C52.4004 40.7999 52.4004 41.1999 52.6004 41.3999C53.0004 41.9999 53.8004 42.3999 54.6004 41.9999C55.2004 41.5999 55.6004 40.7999 55.2004 39.9999C54.8004 39.5999 54.2004 39.3999 53.8004 39.3999Z" fill="#05DDB3"/>
<path d="M10.2003 26.4C10.0003 26.4 9.60033 26.4 9.40033 26.2C8.60033 26 7.80033 25.4 7.40033 24.8C7.00033 24 6.80034 23.2 7.00034 22.4C7.20034 21.6 7.80033 20.8 8.40033 20.4C10.0003 19.6 11.8003 20 12.8003 21.6C13.6003 23.2 13.2003 25 11.6003 26C11.4003 26.2 10.8003 26.4 10.2003 26.4ZM10.2003 21.6C10.0003 21.6 9.80033 21.6 9.40033 21.8C8.80033 22.2 8.40033 23 8.80033 23.8C9.20033 24.4 10.0003 24.8 10.8003 24.4C11.4003 24 11.8003 23.2 11.4003 22.4C11.2003 22 10.6003 21.6 10.2003 21.6Z" fill="#05DDB3"/>
<path d="M12.9475 23.1129L12.269 24.7803L51.1736 40.6101L51.8521 38.9427L12.9475 23.1129Z" fill="#05DDB3"/>
<path d="M53.6002 26C53.4002 26 53.0002 26 52.8002 25.8C51.0002 25.4 50.0002 23.6 50.6002 21.8C51.0002 20 52.8002 19 54.6002 19.6C56.4002 20 57.4002 21.8 56.8002 23.6C56.4002 25 55.0002 26 53.6002 26ZM52.2002 22.4C52.0002 23.2 52.4002 24 53.2002 24.2C54.0002 24.4 54.8002 24 55.0002 23.2C55.2002 22.4 54.8002 21.6 54.0002 21.4C53.6002 21.2 53.2002 21.4 53.0002 21.6C52.8002 21.8 52.4002 22 52.2002 22.4Z" fill="#05DDB3"/>
<path d="M10.4 44.3999C10.2 44.3999 9.79996 44.3999 9.59996 44.1999C7.79996 43.7999 6.79996 41.9999 7.39996 40.1999C7.59996 39.3999 8.19996 38.5999 8.79996 38.1999C9.39996 37.7999 10.4 37.5999 11.2 37.7999C12 37.9999 12.8 38.5999 13.2 39.1999C13.6 39.9999 13.8 40.7999 13.6 41.5999C13 43.3999 11.8 44.3999 10.4 44.3999ZM10.4 39.5999C10.2 39.5999 9.99996 39.5999 9.59996 39.7999C9.19996 39.9999 8.99996 40.3999 8.99996 40.5999C8.79996 41.3999 9.19996 42.1999 9.99996 42.3999C10.4 42.3999 10.8 42.3999 11 42.1999C11.4 41.9999 11.6 41.5999 11.6 41.3999C11.8 40.5999 11.4 39.7999 10.6 39.5999H10.4Z" fill="#05DDB3"/>
<path d="M51.0425 23.0865L12.3437 39.4077L13.0432 41.0662L51.742 24.745L51.0425 23.0865Z" fill="#05DDB3"/>
<path d="M41.2003 56.8C41.0003 56.8 40.6003 56.8 40.4003 56.6C38.6003 56.2 37.6003 54.4 38.2003 52.6C38.4003 51.8 39.0003 51 39.6003 50.6C40.4003 50.2 41.2003 50 42.0003 50.2C42.8003 50.4 43.6003 51 44.0003 51.6C44.4003 52.4 44.6003 53.2 44.4003 54C43.8003 56 42.6003 56.8 41.2003 56.8ZM41.2003 52.2C41.0003 52.2 40.8003 52.2 40.4003 52.4C40.0003 52.6 39.8003 53 39.8003 53.2C39.6003 54 40.0003 54.8 40.8003 55C41.6003 55.2 42.4003 54.8 42.6003 54C42.8003 53.2 42.4003 52.4 41.6003 52.2C41.4003 52.2 41.2003 52.2 41.2003 52.2Z" fill="#05DDB3"/>
<path d="M22.8004 13.4001C22.6004 13.4001 22.2004 13.4001 22.0004 13.2001C21.2004 13.0001 20.4004 12.4001 20.0004 11.8001C19.6004 11.0001 19.4004 10.2001 19.6004 9.40007C20.0004 7.60007 21.8004 6.60007 23.6004 7.20007C25.4004 7.60007 26.4004 9.40007 25.8004 11.2001C25.6004 12.6001 24.2004 13.4001 22.8004 13.4001ZM22.8004 8.80007C22.6004 8.80007 22.4004 8.80007 22.0004 9.00007C21.6004 9.20007 21.4004 9.60007 21.4004 9.80007C21.2004 10.6001 21.6004 11.4001 22.4004 11.6001C23.2004 11.8001 24.0004 11.4001 24.2004 10.6001C24.4004 9.80007 24.0004 9.00007 23.2004 8.80007C23.2004 8.80007 23.0004 8.80007 22.8004 8.80007Z" fill="#05DDB3"/>
<path d="M24.7867 12.2489L23.128 12.9482L39.445 51.6512L41.1037 50.9519L24.7867 12.2489Z" fill="#05DDB3"/>
<path d="M40.8006 13.3998C40.6006 13.3998 40.2006 13.3998 40.0006 13.1998C39.2006 12.9998 38.4006 12.3998 38.0006 11.7998C37.2006 10.1998 37.6006 8.39985 39.2006 7.39985C40.0006 6.99985 40.8006 6.79985 41.6006 6.99985C42.4006 7.19985 43.2006 7.79985 43.6006 8.39985C44.0006 8.99985 44.2006 9.99985 44.0006 10.7998C43.8006 11.5998 43.2006 12.3998 42.6006 12.7998C42.0006 13.1998 41.4006 13.3998 40.8006 13.3998ZM40.8006 8.79985C40.6006 8.79985 40.4006 8.79985 40.0006 8.99985C39.4006 9.39985 39.0006 10.1998 39.4006 10.9998C39.8006 11.5998 40.6006 11.9998 41.4006 11.5998C42.0006 11.1998 42.4006 10.3998 42.0006 9.59985C41.8006 8.99985 41.4006 8.79985 40.8006 8.79985Z" fill="#05DDB3"/>
<path d="M23.2003 56.9999C23.0003 56.9999 22.6003 56.9999 22.4003 56.7999C21.6003 56.5999 20.8003 55.9999 20.4003 55.3999C20.0003 54.5999 19.8003 53.7999 20.0003 52.9999C20.2003 52.1999 20.8003 51.3999 21.4003 50.9999C22.2003 50.5999 23.0003 50.3999 23.8003 50.5999C24.6003 50.7999 25.4003 51.3999 25.8003 51.9999C26.2003 52.5999 26.4003 53.5999 26.2003 54.3999C26.0003 55.1999 25.4003 55.9999 24.8003 56.3999C24.2003 56.7999 23.6003 56.9999 23.2003 56.9999ZM23.2003 52.3999C23.0003 52.3999 22.8003 52.3999 22.4003 52.5999C21.8003 52.9999 21.4003 53.7999 21.8003 54.5999C22.2003 55.1999 23.0003 55.5999 23.8003 55.1999C24.4003 54.7999 24.8003 53.9999 24.4003 53.1999C24.2003 52.5999 23.6003 52.3999 23.2003 52.3999Z" fill="#05DDB3"/>
<path d="M25.0002 51.7999L23.2002 51L39.0002 12.2L40.8002 12.8L25.0002 51.7999Z" fill="url(#paint40_linear)"/>
<path d="M53.8004 43.9999C53.6004 43.9999 53.2004 43.9999 53.0004 43.7999C52.2004 43.5999 51.4004 42.9999 51.0004 42.3999C50.6004 41.7999 50.4004 40.7999 50.6004 39.9999C50.8004 39.1999 51.4004 38.3999 52.0004 37.9999C52.8004 37.5999 53.6004 37.3999 54.4004 37.5999C55.2004 37.7999 56.0004 38.3999 56.4004 38.9999C56.8004 39.5999 57.0004 40.5999 56.8004 41.3999C56.6004 42.1999 56.0004 42.9999 55.4004 43.3999C55.0004 43.7999 54.4004 43.9999 53.8004 43.9999ZM53.8004 39.3999C53.6004 39.3999 53.4004 39.3999 53.0004 39.5999C52.6004 39.7999 52.4004 40.1999 52.4004 40.3999C52.4004 40.7999 52.4004 41.1999 52.6004 41.3999C53.0004 41.9999 53.8004 42.3999 54.6004 41.9999C55.2004 41.5999 55.6004 40.7999 55.2004 39.9999C54.8004 39.5999 54.2004 39.3999 53.8004 39.3999Z" fill="#05DDB3"/>
<path d="M10.2003 26.4C10.0003 26.4 9.60033 26.4 9.40033 26.2C8.60033 26 7.80033 25.4 7.40033 24.8C7.00033 24 6.80034 23.2 7.00034 22.4C7.20034 21.6 7.80033 20.8 8.40033 20.4C10.0003 19.6 11.8003 20 12.8003 21.6C13.6003 23.2 13.2003 25 11.6003 26C11.4003 26.2 10.8003 26.4 10.2003 26.4ZM10.2003 21.6C10.0003 21.6 9.80033 21.6 9.40033 21.8C8.80033 22.2 8.40033 23 8.80033 23.8C9.20033 24.4 10.0003 24.8 10.8003 24.4C11.4003 24 11.8003 23.2 11.4003 22.4C11.2003 22 10.6003 21.6 10.2003 21.6Z" fill="#05DDB3"/>
<path d="M51.0001 40.6L12.2001 24.8L12.8001 23.2L51.8001 39L51.0001 40.6Z" fill="url(#paint41_linear)"/>
<path d="M53.6002 26C53.4002 26 53.0002 26 52.8002 25.8C51.0002 25.4 50.0002 23.6 50.6002 21.8C51.0002 20 52.8002 19 54.6002 19.6C56.4002 20 57.4002 21.8 56.8002 23.6C56.4002 25 55.0002 26 53.6002 26ZM52.2002 22.4C52.0002 23.2 52.4002 24 53.2002 24.2C54.0002 24.4 54.8002 24 55.0002 23.2C55.2002 22.4 54.8002 21.6 54.0002 21.4C53.6002 21.2 53.2002 21.4 53.0002 21.6C52.8002 21.8 52.4002 22 52.2002 22.4Z" fill="#05DDB3"/>
<path d="M10.4 44.3999C10.2 44.3999 9.79996 44.3999 9.59996 44.1999C7.79996 43.7999 6.79996 41.9999 7.39996 40.1999C7.59996 39.3999 8.19996 38.5999 8.79996 38.1999C9.39996 37.7999 10.4 37.5999 11.2 37.7999C12 37.9999 12.8 38.5999 13.2 39.1999C13.6 39.9999 13.8 40.7999 13.6 41.5999C13 43.3999 11.8 44.3999 10.4 44.3999ZM10.4 39.5999C10.2 39.5999 9.99996 39.5999 9.59996 39.7999C9.19996 39.9999 8.99996 40.3999 8.99996 40.5999C8.79996 41.3999 9.19996 42.1999 9.99996 42.3999C10.4 42.3999 10.8 42.3999 11 42.1999C11.4 41.9999 11.6 41.5999 11.6 41.3999C11.8 40.5999 11.4 39.7999 10.6 39.5999H10.4Z" fill="#05DDB3"/>
<path d="M12.9998 41L12.3998 39.4L50.9998 23L51.5998 24.6L12.9998 41Z" fill="url(#paint42_linear)"/>
<path d="M41.2003 56.8C41.0003 56.8 40.6003 56.8 40.4003 56.6C38.6003 56.2 37.6003 54.4 38.2003 52.6C38.4003 51.8 39.0003 51 39.6003 50.6C40.4003 50.2 41.2003 50 42.0003 50.2C42.8003 50.4 43.6003 51 44.0003 51.6C44.4003 52.4 44.6003 53.2 44.4003 54C43.8003 56 42.6003 56.8 41.2003 56.8ZM41.2003 52.2C41.0003 52.2 40.8003 52.2 40.4003 52.4C40.0003 52.6 39.8003 53 39.8003 53.2C39.6003 54 40.0003 54.8 40.8003 55C41.6003 55.2 42.4003 54.8 42.6003 54C42.8003 53.2 42.4003 52.4 41.6003 52.2C41.4003 52.2 41.2003 52.2 41.2003 52.2Z" fill="#05DDB3"/>
<path d="M22.8004 13.4001C22.6004 13.4001 22.2004 13.4001 22.0004 13.2001C21.2004 13.0001 20.4004 12.4001 20.0004 11.8001C19.6004 11.0001 19.4004 10.2001 19.6004 9.40007C20.0004 7.60007 21.8004 6.60007 23.6004 7.20007C25.4004 7.60007 26.4004 9.40007 25.8004 11.2001C25.6004 12.6001 24.2004 13.4001 22.8004 13.4001ZM22.8004 8.80007C22.6004 8.80007 22.4004 8.80007 22.0004 9.00007C21.6004 9.20007 21.4004 9.60007 21.4004 9.80007C21.2004 10.6001 21.6004 11.4001 22.4004 11.6001C23.2004 11.8001 24.0004 11.4001 24.2004 10.6001C24.4004 9.80007 24.0004 9.00007 23.2004 8.80007C23.2004 8.80007 23.0004 8.80007 22.8004 8.80007Z" fill="#05DDB3"/>
<path d="M39.4005 51.6L23.0005 13L24.6005 12.2L41.0005 51L39.4005 51.6Z" fill="url(#paint43_linear)"/>
<path d="M32.0005 16.2C28.6005 16.2 25.4005 18.6 25.4005 23.6C25.4005 28.6 28.6005 31 32.0005 31C35.4005 31 38.6005 28.6 38.6005 23.6C38.6005 18.6 35.4005 16.2 32.0005 16.2Z" fill="white"/>
<path d="M32.0003 33.3999C25.4003 33.3999 18.2003 36.3999 18.2003 41.9999C18.2003 43.9999 24.4003 45.9999 32.0003 45.9999C39.6003 45.9999 45.8003 44.1999 45.8003 41.9999C45.8003 36.3999 38.6003 33.3999 32.0003 33.3999Z" fill="url(#paint44_linear)"/>
<defs>
<linearGradient id="paint40_linear" x1="23.2734" y1="31.9928" x2="40.711" y2="31.9928" gradientUnits="userSpaceOnUse">
<stop stop-color="#05DDB3"/>
<stop offset="0.3262" stop-color="#00CEAB"/>
<stop offset="0.6361" stop-color="#00CEAB"/>
<stop offset="1" stop-color="#05DDB3"/>
</linearGradient>
<linearGradient id="paint41_linear" x1="12.2227" y1="31.9646" x2="51.7383" y2="31.9646" gradientUnits="userSpaceOnUse">
<stop stop-color="#05DDB3"/>
<stop offset="0.3262" stop-color="#00CEAB"/>
<stop offset="0.6361" stop-color="#00CEAB"/>
<stop offset="1" stop-color="#05DDB3"/>
</linearGradient>
<linearGradient id="paint42_linear" x1="12.3122" y1="31.9812" x2="51.648" y2="31.9812" gradientUnits="userSpaceOnUse">
<stop stop-color="#05DDB3"/>
<stop offset="0.3262" stop-color="#00CEAB"/>
<stop offset="0.6361" stop-color="#00CEAB"/>
<stop offset="1" stop-color="#05DDB3"/>
</linearGradient>
<linearGradient id="paint43_linear" x1="23.0345" y1="31.9528" x2="40.9505" y2="31.9528" gradientUnits="userSpaceOnUse">
<stop stop-color="#05DDB3"/>
<stop offset="0.3262" stop-color="#00CEAB"/>
<stop offset="0.6361" stop-color="#00CEAB"/>
<stop offset="1" stop-color="#05DDB3"/>
</linearGradient>
<linearGradient id="paint44_linear" x1="32.0005" y1="34.3927" x2="32.0005" y2="45.6365" gradientUnits="userSpaceOnUse">
<stop stop-color="#BAFFF1"/>
<stop offset="0.0159064" stop-color="#BEFFF2"/>
<stop offset="0.1268" stop-color="#D6FFF7"/>
<stop offset="0.2533" stop-color="#E8FFFA"/>
<stop offset="0.4026" stop-color="#F5FFFD"/>
<stop offset="0.5967" stop-color="#FDFFFF"/>
<stop offset="1" stop-color="white"/>
</linearGradient>
</defs>
</svg>
