<svg width="16" height="16" viewBox="0 0 16 16" fill="none" xmlns="http://www.w3.org/2000/svg">
<circle cx="8" cy="8" r="7.5" stroke="#B2BECD"/>
<path d="M7.71077 13C8.2228 13 8.64174 12.5741 8.64174 12.0535C8.64174 11.533 8.2228 11.1071 7.71077 11.1071C7.19874 11.1071 6.7798 11.533 6.7798 12.0535C6.7798 12.5741 7.19874 13 7.71077 13Z" fill="#B2BECD"/>
<path d="M9.55182 8.37374C8.86077 8.81284 8.49164 8.94617 8.35393 9.45232C8.26394 9.78306 8.01197 10.0682 7.6692 10.0682C7.32642 10.0682 7.03918 9.78804 7.08887 9.44888C7.24156 8.40667 7.81974 8.11782 8.68292 7.58503C9.28805 7.21171 9.75871 6.61229 9.75871 5.77626C9.75871 4.74568 8.97255 4.09368 8.00021 4.09368C7.30862 4.09368 6.6136 4.42924 6.33845 5.22576C6.22356 5.55833 5.95109 5.83936 5.60437 5.83936C5.23011 5.83936 4.92329 5.51783 5.01703 5.14947C5.36443 3.78421 6.55311 3 8.00021 3C9.82077 3 11 4.19884 11 5.83936C11 7.00139 10.4621 7.81113 9.55182 8.37374Z" fill="#B2BECD"/>
</svg>
