<svg width="64" height="64" viewBox="0 0 64 64" fill="none" xmlns="http://www.w3.org/2000/svg">
<path d="M64 32C64 46 61.6 54.2 55.8 58.8C50.8 62.8 43 64 32 64C19.4 64 11.2 62.4 6.2 56.8C1.8 52 0 44.2 0 32C0 19 2 11 7 6.4C12 1.4 20 0 32 0C43.8 0 51.8 1.4 56.8 6.2C62 10.8 64 18.8 64 32Z" fill="#7580F4"/>
<path opacity="0.9" d="M49.4 28.3999H14.6C14 28.3999 13.6 27.9999 13.6 27.3999C13.6 26.7999 14 26.3999 14.6 26.3999H49.2C49.8 26.3999 50.2 26.7999 50.2 27.3999C50.2 27.9999 49.8 28.3999 49.4 28.3999Z" fill="#DFD6F8"/>
<path opacity="0.7" d="M47.4 22.6001H16.4C15.8 22.6001 15.4 22.2001 15.4 21.6001C15.4 21.0001 15.8 20.6001 16.4 20.6001H47.2C47.8 20.6001 48.2 21.0001 48.2 21.6001C48.2 22.2001 47.8 22.6001 47.4 22.6001Z" fill="#DFD6F8"/>
<path opacity="0.4" d="M45.4 16.7998H18.2C17.6 16.7998 17.2 16.3998 17.2 15.7998C17.2 15.1998 17.6 14.7998 18.2 14.7998H45.4C46 14.7998 46.4 15.1998 46.4 15.7998C46.4 16.3998 46 16.7998 45.4 16.7998Z" fill="#DFD6F8"/>
<path opacity="0.2" d="M43.4 10.7998H20C19.4 10.7998 19 10.3998 19 9.7998C19 9.1998 19.4 8.7998 20 8.7998H43.4C44 8.7998 44.4 9.1998 44.4 9.7998C44.4 10.3998 44 10.7998 43.4 10.7998Z" fill="#DFD6F8"/>
<path d="M10.6 38.2001L13.2 49.8001C13.6 52.0001 16 53.8001 18.6 53.8001H45.4C47.8 53.8001 50.2 52.0001 50.8 49.8001L53.4 38.2001C54 35.2001 52.2 32.6001 49 32.6001H15.2C12 32.6001 10 35.2001 10.6 38.2001Z" fill="#FDFDFF"/>
<path d="M18.9999 51.6002H45.1999C46.7999 51.6002 48.1999 50.2002 48.5999 48.4002L49.9999 39.6002C50.1999 38.4002 49.3999 37.2002 48.1999 37.2002H15.9999C14.7999 37.2002 13.9999 38.4002 14.1999 39.6002L15.3999 48.4002C15.7999 50.4002 17.1999 51.6002 18.9999 51.6002Z" fill="url(#paint0_linear)"/>
<defs>
<linearGradient id="paint0_linear" x1="31.9999" y1="37.1836" x2="31.9999" y2="51.6616" gradientUnits="userSpaceOnUse">
<stop stop-color="#CCBEF4"/>
<stop offset="0.2822" stop-color="#D2CFF8"/>
<stop offset="0.7122" stop-color="#E4E4FC"/>
<stop offset="0.9996" stop-color="#EBEEFE"/>
</linearGradient>
</defs>
</svg>
