<svg width="48" height="48" viewBox="0 0 48 48" fill="none" xmlns="http://www.w3.org/2000/svg">
  <path d="M48 24C48 34.5 46.2 40.65 41.85 44.1C38.1 47.1 32.25 48 24 48C14.55 48 8.4 46.8 4.65 42.6C1.35 39 0 33.15 0 24C0 14.25 1.5 8.25 5.25 4.8C9 1.05 15 0 24 0C32.85 0 38.85 1.05 42.6 4.65C46.5 8.1 48 14.1 48 24Z" fill="#104784"/>
  <path d="M23.9996 40.05C15.2996 40.05 8.09961 33 8.09961 24.15C8.09961 15.3 15.2996 8.40002 23.9996 8.40002C32.6996 8.40002 39.8996 15.45 39.8996 24.3C39.8996 33.15 32.6996 40.05 23.9996 40.05ZM23.9996 10.2C16.1996 10.2 9.89961 16.5 9.89961 24.3C9.89961 32.1 16.1996 38.4 23.9996 38.4C31.7996 38.4 38.0996 32.1 38.0996 24.3C38.0996 16.5 31.7996 10.2 23.9996 10.2Z" fill="#1D5E99"/>
  <path d="M22.3496 22.65V7.35001C22.3496 6.45001 23.0996 5.70001 23.9996 5.70001C24.8996 5.70001 25.6496 6.45001 25.6496 7.35001V22.65C25.6496 23.55 24.8996 24.3 23.9996 24.3C23.0996 24.3 22.3496 23.55 22.3496 22.65Z" fill="url(#paint20_linear)"/>
  <path d="M39.3005 31.35L24.7505 22.95C24.0005 22.5 22.9505 22.8 22.5005 23.55C22.0505 24.3 22.3505 25.2 23.1005 25.65L37.6505 34.05C38.4005 34.5 39.4505 34.2 39.9005 33.45C40.3505 32.85 40.0505 31.8 39.3005 31.35Z" fill="url(#paint21_linear)"/>
  <path d="M8.7001 31.35L23.2501 22.95C24.0001 22.5 25.0501 22.8 25.5001 23.55C25.9501 24.3 25.6501 25.2 24.9001 25.65L10.3501 34.05C9.6001 34.5 8.5501 34.2 8.1001 33.45C7.6501 32.85 7.9501 31.8 8.7001 31.35Z" fill="url(#paint22_linear)"/>
  <path d="M24.0004 16.95C19.9504 16.95 16.6504 20.25 16.6504 24.3C16.6504 28.35 19.9504 31.65 24.0004 31.65C28.0504 31.65 31.3504 28.35 31.3504 24.3C31.3504 20.25 28.0504 16.95 24.0004 16.95Z" fill="white"/>
  <defs>
    <linearGradient id="paint20_linear" x1="23.9996" y1="17.6132" x2="23.9996" y2="6.08311" gradientUnits="userSpaceOnUse">
      <stop stop-color="#8AA9BE"/>
      <stop offset="0.9996" stop-color="#DFF1FB"/>
    </linearGradient>
    <linearGradient id="paint21_linear" x1="29.9034" y1="27.7649" x2="39.8867" y2="33.5447" gradientUnits="userSpaceOnUse">
      <stop stop-color="#8AA9BE"/>
      <stop offset="0.9996" stop-color="#DFF1FB"/>
    </linearGradient>
    <linearGradient id="paint22_linear" x1="18.0337" y1="27.8241" x2="8.0506" y2="33.4289" gradientUnits="userSpaceOnUse">
      <stop stop-color="#8AA9BE"/>
      <stop offset="0.9996" stop-color="#DFF1FB"/>
    </linearGradient>
  </defs>
</svg>
