<svg width="64" height="64" viewBox="0 0 64 64" fill="none" xmlns="http://www.w3.org/2000/svg">
<path d="M64 32C64 46 61.6 54.2 55.8 58.8C50.8 62.8 43 64 32 64C19.4 64 11.2 62.4 6.2 56.8C1.8 52 0 44.2 0 32C0 19 2 11 7 6.4C12 1.4 20 0 32 0C43.8 0 51.8 1.4 56.8 6.2C62 10.8 64 18.8 64 32Z" fill="#104784"/>
<path d="M31.9998 53.4001C20.3998 53.4001 10.7998 44.0001 10.7998 32.2001C10.7998 20.4001 20.3998 11.2001 31.9998 11.2001C43.5998 11.2001 53.1998 20.6001 53.1998 32.4001C53.1998 44.2001 43.5998 53.4001 31.9998 53.4001ZM31.9998 13.6001C21.5998 13.6001 13.1998 22.0001 13.1998 32.4001C13.1998 42.8001 21.5998 51.2001 31.9998 51.2001C42.3998 51.2001 50.7998 42.8001 50.7998 32.4001C50.7998 22.0001 42.3998 13.6001 31.9998 13.6001Z" fill="#1D5E99"/>
<path d="M29.7997 30.2001V9.8001C29.7997 8.6001 30.7997 7.6001 31.9997 7.6001C33.1997 7.6001 34.1997 8.6001 34.1997 9.8001V30.2001C34.1997 31.4001 33.1997 32.4001 31.9997 32.4001C30.7997 32.4001 29.7997 31.4001 29.7997 30.2001Z" fill="url(#paint0_linear)"/>
<path d="M52.4001 41.8001L33.0001 30.6001C32.0001 30.0001 30.6001 30.4001 30.0001 31.4001C29.4001 32.4001 29.8001 33.6001 30.8001 34.2001L50.2001 45.4001C51.2001 46.0001 52.6001 45.6001 53.2001 44.6001C53.8001 43.8001 53.4001 42.4001 52.4001 41.8001Z" fill="url(#paint1_linear)"/>
<path d="M11.5999 41.8001L30.9999 30.6001C31.9999 30.0001 33.3999 30.4001 33.9999 31.4001C34.5999 32.4001 34.1999 33.6001 33.1999 34.2001L13.7999 45.4001C12.7999 46.0001 11.3999 45.6001 10.7999 44.6001C10.1999 43.8001 10.5999 42.4001 11.5999 41.8001Z" fill="url(#paint2_linear)"/>
<path d="M32.0001 22.6001C26.6001 22.6001 22.2001 27.0001 22.2001 32.4001C22.2001 37.8001 26.6001 42.2001 32.0001 42.2001C37.4001 42.2001 41.8001 37.8001 41.8001 32.4001C41.8001 27.0001 37.4001 22.6001 32.0001 22.6001Z" fill="white"/>
<defs>
<linearGradient id="paint0_linear" x1="31.9997" y1="23.4843" x2="31.9997" y2="8.1109" gradientUnits="userSpaceOnUse">
<stop stop-color="#8AA9BE"/>
<stop offset="0.9996" stop-color="#DFF1FB"/>
</linearGradient>
<linearGradient id="paint1_linear" x1="39.8707" y1="37.0199" x2="53.1817" y2="44.7263" gradientUnits="userSpaceOnUse">
<stop stop-color="#8AA9BE"/>
<stop offset="0.9996" stop-color="#DFF1FB"/>
</linearGradient>
<linearGradient id="paint2_linear" x1="24.0447" y1="37.0989" x2="10.7339" y2="44.5719" gradientUnits="userSpaceOnUse">
<stop stop-color="#8AA9BE"/>
<stop offset="0.9996" stop-color="#DFF1FB"/>
</linearGradient>
</defs>
</svg>
