<svg width="197" height="28" viewBox="0 0 197 28" fill="none" xmlns="http://www.w3.org/2000/svg">
<path d="M78.0999 16.5549C77.7168 17.5851 76.7608 18.1568 75.5796 18.1568C73.8264 18.1568 72.4052 16.7361 72.4052 14.9837C72.4052 13.2312 73.8264 11.8105 75.5796 11.8105C76.7609 11.8105 77.6874 12.3143 78.1 13.4126H81.3373C80.8012 10.5966 78.459 8.78906 75.5796 8.78906C72.1571 8.78906 69.3826 11.5625 69.3826 14.9837C69.3826 18.4048 72.1571 21.1783 75.5796 21.1783C78.459 21.1783 80.948 19.1561 81.3373 16.5549H78.0999Z" fill="#001A3A"/>
<path d="M64.7677 9.10028H68.1385V20.9592H64.7677V9.10028Z" fill="#001A3A"/>
<path d="M68.4776 6.23434C68.4776 7.35776 67.5665 8.26848 66.4427 8.26848C65.3188 8.26848 64.4077 7.35776 64.4077 6.23434C64.4077 5.11091 65.3188 4.2002 66.4427 4.2002C67.5665 4.2002 68.4776 5.11091 68.4776 6.23434Z" fill="#001A3A"/>
<path d="M55.1124 10.5515C55.6776 9.53139 56.9621 8.83496 58.8119 8.83496C61.8024 8.83496 63.385 10.7379 63.385 13.5628V20.9587H60.0143V13.916C60.0143 12.5329 59.3977 11.5814 57.9076 11.5814C56.2736 11.5814 55.3693 12.582 55.3693 14.1612V20.9489H51.9985V9.0998H55.1124V10.5515Z" fill="#001A3A"/>
<path fill-rule="evenodd" clip-rule="evenodd" d="M44.7112 18.1568C46.4642 18.1568 47.8853 16.7362 47.8853 14.9839C47.8853 13.2316 46.4642 11.811 44.7112 11.811C42.9582 11.811 41.5371 13.2316 41.5371 14.9839C41.5371 16.7362 42.9582 18.1568 44.7112 18.1568ZM44.7112 21.1783C48.1336 21.1783 50.9079 18.405 50.9079 14.9839C50.9079 11.5629 48.1336 8.78955 44.7112 8.78955C41.2888 8.78955 38.5144 11.5629 38.5144 14.9839C38.5144 18.405 41.2888 21.1783 44.7112 21.1783Z" fill="#001A3A"/>
<path d="M33.9601 9.10028H37.3308V20.9592H33.9601V9.10028Z" fill="#001A3A"/>
<path d="M37.67 6.23434C37.67 7.35776 36.7589 8.26848 35.635 8.26848C34.5112 8.26848 33.6001 7.35776 33.6001 6.23434C33.6001 5.11091 34.5112 4.2002 35.635 4.2002C36.7589 4.2002 37.67 5.11091 37.67 6.23434Z" fill="#001A3A"/>
<path d="M3.36 14C3.36 8.12369 8.1237 3.36 14 3.36C16.3655 3.36 18.5496 4.13067 20.3168 5.43687C20.7802 4.34591 21.7143 3.50313 22.8642 3.16324C20.451 1.18749 17.3633 0 14 0C6.26802 0 0 6.26801 0 14C0 21.732 6.26802 28 14 28C21.732 28 28 21.732 28 14C28 12.3818 27.7248 10.8251 27.2179 9.37599C26.5282 10.3084 25.4429 10.9305 24.21 10.9943C24.4897 11.9462 24.64 12.9546 24.64 14C24.64 19.8763 19.8763 24.64 14 24.64C8.1237 24.64 3.36 19.8763 3.36 14Z" fill="#3880FF"/>
<path d="M27.7121 11.1635C27.5863 10.5524 27.4206 9.95559 27.2179 9.37598C26.5282 10.3084 25.4429 10.9305 24.21 10.9943C24.4078 11.6676 24.5409 12.3692 24.6019 13.0921C25.9003 12.9325 27.0227 12.2039 27.7121 11.1635Z" fill="#3880FF"/>
<path d="M14 20.125C17.3748 20.125 20.125 17.38 20.125 14C20.125 10.6252 17.38 7.875 14 7.875C10.62 7.875 7.875 10.6252 7.875 14C7.875 17.3748 10.6252 20.125 14 20.125Z" fill="#3880FF"/>
<path d="M23.1875 9.95C25.5416 9.95 27.45 8.04161 27.45 5.6875C27.45 3.33339 25.5416 1.425 23.1875 1.425C20.8334 1.425 18.925 3.33339 18.925 5.6875C18.925 8.04161 20.8334 9.95 23.1875 9.95Z" fill="#3880FF" stroke="white" stroke-width="2.4"/>
<path d="M87 20.9588H90.0284V11.7606H92.8308V9.20679H90.0284V8.21239C90.0284 7.08239 90.6838 6.60779 91.8138 6.60779H92.9438V4.00879H91.4974C88.9436 4.00879 87 5.56819 87 8.21239V9.20679L87 11.7606L87 20.9588Z" fill="#556170"/>
<path d="M100.992 9.02599C100.992 9.02599 100.721 9.00339 100.608 9.00339C98.5963 9.00339 97.6923 9.95259 97.2629 10.6532V9.11639H94.3023V20.9588H97.5115V15.0602C97.5115 12.8906 98.4833 11.964 100.359 11.964C100.653 11.964 100.992 12.0318 100.992 12.0318V9.02599Z" fill="#556170"/>
<path d="M109.774 9.11639V10.5628C109.028 9.47799 107.695 8.84519 106.022 8.84519C102.587 8.84519 100.576 11.6024 100.576 15.0376C100.576 18.4728 102.587 21.23 106.022 21.23C107.695 21.23 109.028 20.5972 109.774 19.5124V20.9588H112.735V9.11639H109.774ZM109.616 15.0376C109.616 16.9586 108.486 18.405 106.7 18.405C104.915 18.405 103.785 16.9586 103.785 15.0376C103.785 13.1166 104.915 11.6702 106.7 11.6702C108.486 11.6702 109.616 13.1166 109.616 15.0376Z" fill="#556170"/>
<path d="M125.385 14.224C125.385 12.5742 126.176 11.6024 127.69 11.6024C129.114 11.6024 129.589 12.6194 129.589 13.9302V20.9588H132.798V13.5686C132.798 10.8114 131.352 8.84519 128.504 8.84519C126.809 8.84519 125.611 9.36499 124.572 10.5176C123.894 9.47799 122.741 8.84519 121.136 8.84519C119.441 8.84519 118.266 9.54579 117.724 10.5628V9.11639H114.763V20.9588H117.972V14.1562C117.972 12.5742 118.786 11.6024 120.278 11.6024C121.701 11.6024 122.176 12.6194 122.176 13.9302V20.9588H125.385V14.224Z" fill="#556170"/>
<path d="M145.744 15.9642C145.744 15.9642 145.79 15.5348 145.79 15.015C145.79 11.512 143.417 8.84519 139.914 8.84519C136.411 8.84519 133.97 11.512 133.97 15.015C133.97 18.6536 136.433 21.23 139.936 21.23C142.671 21.23 144.84 19.5802 145.541 17.1846H142.309C141.925 18.0434 140.998 18.4728 140.027 18.4728C138.422 18.4728 137.382 17.5914 137.156 15.9642H145.744ZM139.891 11.4216C141.383 11.4216 142.354 12.3256 142.58 13.659H137.202C137.473 12.303 138.422 11.4216 139.891 11.4216Z" fill="#556170"/>
<path d="M157.213 20.9588H160.219L164.355 9.11639H161.101L158.705 16.9586L156.242 9.11639H153.349L150.908 16.9134L148.535 9.11639H145.213L149.349 20.9588H152.354L154.773 13.6364H154.818L157.213 20.9588Z" fill="#556170"/>
<path d="M170.18 21.23C173.977 21.23 176.395 18.405 176.395 15.0376C176.395 11.6702 173.977 8.84519 170.18 8.84519C166.383 8.84519 163.965 11.6702 163.965 15.0376C163.965 18.405 166.383 21.23 170.18 21.23ZM167.174 15.0376C167.174 12.9132 168.485 11.6702 170.18 11.6702C171.875 11.6702 173.186 12.9132 173.186 15.0376C173.186 17.162 171.875 18.405 170.18 18.405C168.485 18.405 167.174 17.162 167.174 15.0376Z" fill="#556170"/>
<path d="M184.379 9.02599C184.379 9.02599 184.108 9.00339 183.995 9.00339C181.983 9.00339 181.079 9.95259 180.65 10.6532V9.11639H177.689V20.9588H180.898V15.0602C180.898 12.8906 181.87 11.964 183.746 11.964C184.04 11.964 184.379 12.0318 184.379 12.0318V9.02599Z" fill="#556170"/>
<path d="M188.651 4.00879H185.261V20.9588H188.651V14.789L188.696 14.7438L192.109 20.9588H196.064L191.906 14.45L195.815 9.47799H192.041L188.696 14.2466L188.651 14.2014V4.00879Z" fill="#556170"/>
</svg>
