<svg width="28" height="28" viewBox="0 0 28 28" fill="none" xmlns="http://www.w3.org/2000/svg">
<path d="M3.36 14C3.36 8.12369 8.12369 3.36 14 3.36C16.3655 3.36 18.5495 4.13067 20.3167 5.43687C20.7802 4.34591 21.7143 3.50313 22.8642 3.16324C20.451 1.18749 17.3633 0 14 0C6.26801 0 0 6.26801 0 14C0 21.732 6.26801 28 14 28C21.732 28 28 21.732 28 14C28 12.3818 27.7248 10.8251 27.2179 9.37599C26.5282 10.3084 25.4429 10.9305 24.21 10.9943C24.4897 11.9462 24.64 12.9546 24.64 14C24.64 19.8763 19.8763 24.64 14 24.64C8.12369 24.64 3.36 19.8763 3.36 14Z" fill="#001A3A"/>
<path d="M27.7122 11.1635C27.5864 10.5524 27.4207 9.95559 27.2179 9.37598C26.5282 10.3084 25.443 10.9305 24.21 10.9943C24.4079 11.6676 24.541 12.3692 24.6019 13.0921C25.9004 12.9325 27.0228 12.2039 27.7122 11.1635Z" fill="#001A3A"/>
<path d="M14 20.125C17.3748 20.125 20.125 17.38 20.125 14C20.125 10.6252 17.38 7.875 14 7.875C10.62 7.875 7.875 10.6252 7.875 14C7.875 17.3748 10.6252 20.125 14 20.125Z" fill="#001A3A"/>
<path d="M23.1875 8.75C24.8789 8.75 26.25 7.37887 26.25 5.6875C26.25 3.99613 24.8789 2.625 23.1875 2.625C21.4961 2.625 20.125 3.99613 20.125 5.6875C20.125 7.37887 21.4961 8.75 23.1875 8.75Z" fill="#001A3A"/>
</svg>
