<svg width="1412" height="776" fill="none" xmlns="http://www.w3.org/2000/svg"><mask id="a" maskUnits="userSpaceOnUse" x="0" y="0" width="1412" height="776"><path fill="#fff" d="M0 0h1412v776H0z"/></mask><g mask="url(#a)"><path d="M886.88 539.59L820.34 501l-.12-.14" stroke="url(#enterprise_hero_paint0_radial)" stroke-width="2" stroke-linecap="round" stroke-dasharray="0.5 10"/><path d="M592 544.73l66.54-38.6.12-.13" stroke="url(#enterprise_hero_paint1_radial)" stroke-width="2" stroke-linecap="round" stroke-dasharray="0.5 10"/><path d="M504 749.73l66.54-38.6.12-.13" stroke="url(#enterprise_hero_paint2_radial)" stroke-width="2" stroke-linecap="round" stroke-dasharray="0.5 10"/><path d="M938 746.73l66.54-38.6.12-.13" stroke="url(#enterprise_hero_paint3_radial)" stroke-width="2" stroke-linecap="round" stroke-dasharray="0.5 10"/><path d="M1034 547.73l66.54-38.6.12-.13" stroke="url(#enterprise_hero_paint4_radial)" stroke-width="2" stroke-linecap="round" stroke-dasharray="0.5 10"/><path d="M501 330.73l66.54-38.6.12-.13" stroke="url(#enterprise_hero_paint5_radial)" stroke-width="2" stroke-linecap="round" stroke-dasharray="0.5 10"/><path d="M944 332.73l66.54-38.6.12-.13" stroke="url(#enterprise_hero_paint6_radial)" stroke-width="2" stroke-linecap="round" stroke-dasharray="0.5 10"/><path d="M595 131.73l66.54-38.6.12-.13" stroke="url(#enterprise_hero_paint7_radial)" stroke-width="2" stroke-linecap="round" stroke-dasharray="0.5 10"/><path d="M1031 131.73l66.54-38.6.12-.13" stroke="url(#enterprise_hero_paint8_radial)" stroke-width="2" stroke-linecap="round" stroke-dasharray="0.5 10"/><path d="M498 745.73l66.54-38.6.12-.13" stroke="url(#enterprise_hero_paint9_radial)" stroke-width="2" stroke-linecap="round" stroke-dasharray="0.5 10"/><path d="M1230.66 339.73l-66.54-38.6-.12-.13" stroke="url(#enterprise_hero_paint10_radial)" stroke-width="2" stroke-linecap="round" stroke-dasharray="0.5 10"/><path d="M1326.66 537.73l-66.54-38.6-.12-.13" stroke="url(#enterprise_hero_paint11_radial)" stroke-width="2" stroke-linecap="round" stroke-dasharray="0.5 10"/><path d="M890.66 122.73l-66.54-38.6L824 84" stroke="url(#enterprise_hero_paint12_radial)" stroke-width="2" stroke-linecap="round" stroke-dasharray="0.5 10"/><path d="M795.66 339.73l-66.54-38.6-.12-.13" stroke="url(#enterprise_hero_paint13_radial)" stroke-width="2" stroke-linecap="round" stroke-dasharray="0.5 10"/><path d="M450.58 539.73l-66.55-38.59-.11-.14" stroke="url(#enterprise_hero_paint14_radial)" stroke-width="2" stroke-linecap="round" stroke-dasharray="0.5 10"/><path d="M791.66 755.73l-66.54-38.6-.12-.13" stroke="url(#enterprise_hero_paint15_radial)" stroke-width="2" stroke-linecap="round" stroke-dasharray="0.5 10"/><path d="M1227.1 759.47l-72.96-42.22-.13-.16" stroke="url(#enterprise_hero_paint16_radial)" stroke-width="2"/><path d="M595.51 883.93h0a7.09 7.09 0 01-3.42-5.93c0-2.4 1.26-4.68 3.43-5.94m-.01 11.87l.01.01 131.25 75.32h0a16.42 16.42 0 0016.38 0h0l268.11-156.89h.01a7.1 7.1 0 003.42-5.94c0-2.4-1.26-4.68-3.43-5.94h0L881.6 715.6h0a16.32 16.32 0 00-16.28 0h0l-269.8 156.46M1031.93 883.93h0a6.85 6.85 0 01.01-11.88m-.01 11.88l.02.01 131.24 75.32h0a16.43 16.43 0 0016.38 0h.01l268.11-156.89h0a7.08 7.08 0 003.42-5.94c0-2.4-1.26-4.68-3.43-5.94h0l-129.65-74.89h-.01a16.3 16.3 0 00-16.27 0h-.01l-269.8 156.46M159.09 885h0a7.09 7.09 0 01-3.42-5.94c0-2.4 1.26-4.69 3.43-5.94m-.01 11.87v.01l131.25 75.32h0a16.42 16.42 0 0016.39 0h0l268.1-156.89h.02a7.1 7.1 0 003.41-5.94c0-2.4-1.25-4.68-3.42-5.94h0l-129.66-74.89h0a16.33 16.33 0 00-8.09-2.18c-2.84 0-5.68.76-8.19 2.18h0L159.1 873.12M1229.48 675.26h0a7.08 7.08 0 003.42-5.94c0-2.4-1.26-4.68-3.43-5.94m.01 11.88h-.01l-131.25 75.32h0a16.43 16.43 0 01-16.38 0h-.01L813.73 593.7h0a7.09 7.09 0 01-3.43-5.94c0-2.4 1.26-4.69 3.43-5.94h0l129.66-74.9h0a16.33 16.33 0 018.09-2.18c2.84 0 5.68.76 8.19 2.18h0l269.8 156.46M1665.91 675.26h0a7.1 7.1 0 003.41-5.94c0-2.4-1.25-4.68-3.42-5.94m.01 11.88h-.02l-131.24 75.32h0a16.44 16.44 0 01-16.39 0h0L1250.15 593.7h0a7.08 7.08 0 01-3.42-5.94c0-2.4 1.26-4.69 3.43-5.94h0l129.65-74.9h.01a16.29 16.29 0 0116.27 0h.01l269.79 156.46M793.06 676.32h0a7.09 7.09 0 003.42-5.94c0-2.4-1.26-4.68-3.43-5.94m0 11.88h0L661.8 751.64h0a16.41 16.41 0 01-16.38 0h-.01l-268.1-156.88-.01-.01a7.09 7.09 0 01-3.42-5.93c0-2.4 1.26-4.69 3.43-5.95h0l129.65-74.89h0a16.32 16.32 0 018.1-2.18c2.84 0 5.68.76 8.18 2.18h0l269.8 156.46M1035.11 468.7h0a7.1 7.1 0 01-3.42-5.94c0-2.4 1.26-4.68 3.43-5.94m-.01 11.88h.01l131.25 75.32h0a16.42 16.42 0 0016.38 0h.01l268.1-156.88h.01a7.08 7.08 0 003.42-5.94c0-2.4-1.26-4.69-3.43-5.94h0l-129.66-74.9h0a16.33 16.33 0 00-8.08-2.18c-2.85 0-5.69.76-8.2 2.18h0l-269.8 156.46M162.26 469.75h0a7.09 7.09 0 01-3.41-5.93c0-2.4 1.25-4.68 3.42-5.94m0 11.88h0l131.25 75.32h0a16.42 16.42 0 0016.38 0h.01l268.1-156.89h.01a7.09 7.09 0 003.42-5.93c0-2.4-1.26-4.69-3.43-5.94h0l-129.65-74.9h0a16.33 16.33 0 00-8.1-2.18c-2.83 0-5.67.76-8.18 2.18h0l-269.8 156.46M1232.66 260.02h0a7.1 7.1 0 003.42-5.94c0-2.4-1.26-4.68-3.43-5.94m.01 11.88h-.01l-131.25 75.32h0a16.43 16.43 0 01-16.38 0h-.01l-268.1-156.88h-.01a7.09 7.09 0 01-3.42-5.94c0-2.4 1.26-4.69 3.43-5.94h0l129.66-74.9h0a16.33 16.33 0 018.08-2.18c2.85 0 5.69.77 8.2 2.18h0l269.8 156.46M1669.08 260.02h0a7.08 7.08 0 003.42-5.94c0-2.4-1.26-4.68-3.43-5.94l.01 11.88zm0 0h-.01l-131.24 75.32h-.01a16.4 16.4 0 01-16.38 0h0l-268.11-156.88h-.01a6.85 6.85 0 01.01-11.88h0l129.66-74.9h0a16.35 16.35 0 018.09-2.18c2.84 0 5.68.77 8.19 2.18h0l269.8 156.46M796.24 261.08h0a7.09 7.09 0 003.41-5.94c0-2.4-1.25-4.68-3.42-5.94m0 11.88h0L664.97 336.4h0a16.42 16.42 0 01-16.38 0h-.01l-268.1-156.88h-.01a7.09 7.09 0 01-3.42-5.94c0-2.4 1.26-4.69 3.43-5.94h0l129.65-74.9h0a16.32 16.32 0 018.1-2.18c2.83 0 5.67.76 8.18 2.18h0l269.8 156.46M595.51 54.7h0a7.09 7.09 0 01-3.42-5.94c0-2.4 1.26-4.68 3.43-5.94m-.01 11.88h.01l131.25 75.32h0a16.41 16.41 0 0016.38 0h0l268.11-156.88h.01a7.1 7.1 0 003.42-5.94c0-2.4-1.26-4.69-3.43-5.94h0l-129.66-74.9h0a16.32 16.32 0 00-8.09-2.18c-2.84 0-5.68.76-8.19 2.18h0L595.52 42.82M1031.93 54.7h0a6.85 6.85 0 01.01-11.88m-.01 11.88h.02l131.24 75.32h0a16.42 16.42 0 0016.38 0h.01l268.11-156.88h0a7.08 7.08 0 003.42-5.94c0-2.4-1.26-4.69-3.43-5.94h0l-129.65-74.9h-.01a16.3 16.3 0 00-8.08-2.18c-2.85 0-5.68.76-8.19 2.18h-.01l-269.8 156.46M159.09 55.76h0a7.09 7.09 0 01-3.42-5.94c0-2.4 1.26-4.68 3.43-5.94m-.01 11.88h0l131.25 75.32h0a16.42 16.42 0 0016.39 0h0L574.83-25.8h.02a7.09 7.09 0 003.41-5.94c0-2.4-1.25-4.69-3.42-5.95h0l-129.66-74.89h0a16.33 16.33 0 00-8.09-2.18c-2.84 0-5.68.76-8.19 2.18h0L159.1 43.88" stroke="#fff"/><path d="M598.91 469h.01l131.06 75.32h0a16.39 16.39 0 0016.37 0h0l267.73-156.87h.01a6.85 6.85 0 00-.01-11.87v-.01L884.6 300.69h0a16.3 16.3 0 00-8.07-2.19c-2.84 0-5.68.76-8.18 2.18h0L598.91 457.14a6.86 6.86 0 00-3.42 5.94 7.1 7.1 0 003.41 5.93z" fill="#020610" stroke="#fff"/><g filter="url(#enterprise_hero_filter0_bi)"><path d="M596 440.98a6.6 6.6 0 003.18 5.52l131.35 75.38a15.94 15.94 0 0015.9 0l70.39-41.35a6.6 6.6 0 003.18-5.51 6.36 6.36 0 00-3.18-5.52L685.9 394.12a15.84 15.84 0 00-7.85-2.12c-2.75 0-5.51.74-7.95 2.12l-70.92 41.35a6.36 6.36 0 00-3.18 5.51z" fill="#EFF9FF" fill-opacity=".24"/></g><g filter="url(#enterprise_hero_filter1_bi)"><path d="M696 381.98a6.6 6.6 0 003.18 5.52l131.35 75.38a15.94 15.94 0 0015.9 0l70.39-41.35a6.6 6.6 0 003.18-5.51 6.36 6.36 0 00-3.18-5.52L785.9 335.12a15.84 15.84 0 00-7.85-2.12c-2.75 0-5.51.74-7.95 2.12l-70.92 41.35a6.36 6.36 0 00-3.18 5.51z" fill="#EFF9FF" fill-opacity=".24"/></g><g filter="url(#enterprise_hero_filter2_bi)"><path d="M793 324.98a6.6 6.6 0 003.18 5.52l131.35 75.38a15.94 15.94 0 0015.9 0l70.39-41.35a6.6 6.6 0 003.18-5.51 6.37 6.37 0 00-3.18-5.52L882.9 278.12a15.84 15.84 0 00-7.85-2.12c-2.75 0-5.51.74-7.95 2.12l-70.92 41.35a6.36 6.36 0 00-3.18 5.51z" fill="#EFF9FF" fill-opacity=".24"/></g><g filter="url(#enterprise_hero_filter3_bii)"><path d="M596 417.07a6.59 6.59 0 003.17 5.5l131.06 75.31a15.88 15.88 0 0015.87 0l267.73-156.86a6.6 6.6 0 003.17-5.51 6.35 6.35 0 00-3.17-5.5l-129.48-74.9a15.79 15.79 0 00-7.82-2.11c-2.75 0-5.5.74-7.94 2.12L599.17 411.56a6.36 6.36 0 00-3.17 5.5z" fill="#DDEAFF" fill-opacity=".4"/></g><path fill="url(#enterprise_hero_paint17_radial)" d="M149 0h1263v776H149z"/></g><defs><radialGradient id="enterprise_hero_paint0_radial" cx="0" cy="0" r="1" gradientUnits="userSpaceOnUse" gradientTransform="matrix(34.42664 20.12633 -25.21115 43.12436 851.59 519)"><stop stop-color="#5F6674"/><stop offset="1" stop-color="#555B69" stop-opacity=".5"/></radialGradient><radialGradient id="enterprise_hero_paint1_radial" cx="0" cy="0" r="1" gradientUnits="userSpaceOnUse" gradientTransform="matrix(-34.42671 20.12621 -25.211 -43.12444 627.3 524.15)"><stop stop-color="#5F6674"/><stop offset="1" stop-color="#555B69" stop-opacity=".5"/></radialGradient><radialGradient id="enterprise_hero_paint2_radial" cx="0" cy="0" r="1" gradientUnits="userSpaceOnUse" gradientTransform="matrix(-34.42671 20.12621 -25.211 -43.12444 539.3 729.15)"><stop stop-color="#5F6674"/><stop offset="1" stop-color="#555B69" stop-opacity=".5"/></radialGradient><radialGradient id="enterprise_hero_paint3_radial" cx="0" cy="0" r="1" gradientUnits="userSpaceOnUse" gradientTransform="matrix(-34.42671 20.12621 -25.211 -43.12444 973.3 726.15)"><stop stop-color="#5F6674"/><stop offset="1" stop-color="#555B69" stop-opacity=".5"/></radialGradient><radialGradient id="enterprise_hero_paint4_radial" cx="0" cy="0" r="1" gradientUnits="userSpaceOnUse" gradientTransform="matrix(-34.42671 20.12621 -25.211 -43.12444 1069.29 527.15)"><stop stop-color="#5F6674"/><stop offset="1" stop-color="#555B69" stop-opacity=".5"/></radialGradient><radialGradient id="enterprise_hero_paint5_radial" cx="0" cy="0" r="1" gradientUnits="userSpaceOnUse" gradientTransform="matrix(-34.42671 20.12621 -25.211 -43.12444 536.3 310.15)"><stop stop-color="#5F6674"/><stop offset="1" stop-color="#555B69" stop-opacity=".5"/></radialGradient><radialGradient id="enterprise_hero_paint6_radial" cx="0" cy="0" r="1" gradientUnits="userSpaceOnUse" gradientTransform="matrix(-34.42671 20.12621 -25.211 -43.12444 979.3 312.15)"><stop stop-color="#5F6674"/><stop offset="1" stop-color="#555B69" stop-opacity=".5"/></radialGradient><radialGradient id="enterprise_hero_paint7_radial" cx="0" cy="0" r="1" gradientUnits="userSpaceOnUse" gradientTransform="matrix(-34.42671 20.12621 -25.211 -43.12444 630.3 111.15)"><stop stop-color="#5F6674"/><stop offset="1" stop-color="#555B69" stop-opacity=".5"/></radialGradient><radialGradient id="enterprise_hero_paint8_radial" cx="0" cy="0" r="1" gradientUnits="userSpaceOnUse" gradientTransform="matrix(-34.42671 20.12621 -25.211 -43.12444 1066.29 111.15)"><stop stop-color="#5F6674"/><stop offset="1" stop-color="#555B69" stop-opacity=".5"/></radialGradient><radialGradient id="enterprise_hero_paint9_radial" cx="0" cy="0" r="1" gradientUnits="userSpaceOnUse" gradientTransform="matrix(-34.42671 20.12621 -25.211 -43.12444 533.3 725.15)"><stop stop-color="#5F6674"/><stop offset="1" stop-color="#555B69" stop-opacity=".5"/></radialGradient><radialGradient id="enterprise_hero_paint10_radial" cx="0" cy="0" r="1" gradientUnits="userSpaceOnUse" gradientTransform="matrix(34.42664 20.12633 -25.21115 43.12436 1195.37 319.15)"><stop stop-color="#5F6674"/><stop offset="1" stop-color="#555B69" stop-opacity=".5"/></radialGradient><radialGradient id="enterprise_hero_paint11_radial" cx="0" cy="0" r="1" gradientUnits="userSpaceOnUse" gradientTransform="matrix(34.42664 20.12633 -25.21115 43.12436 1291.37 517.15)"><stop stop-color="#5F6674"/><stop offset="1" stop-color="#555B69" stop-opacity=".5"/></radialGradient><radialGradient id="enterprise_hero_paint12_radial" cx="0" cy="0" r="1" gradientUnits="userSpaceOnUse" gradientTransform="matrix(34.42664 20.12633 -25.21115 43.12436 855.37 102.15)"><stop stop-color="#5F6674"/><stop offset="1" stop-color="#555B69" stop-opacity=".5"/></radialGradient><radialGradient id="enterprise_hero_paint13_radial" cx="0" cy="0" r="1" gradientUnits="userSpaceOnUse" gradientTransform="matrix(34.42664 20.12633 -25.21115 43.12436 760.37 319.15)"><stop stop-color="#5F6674"/><stop offset="1" stop-color="#555B69" stop-opacity=".5"/></radialGradient><radialGradient id="enterprise_hero_paint14_radial" cx="0" cy="0" r="1" gradientUnits="userSpaceOnUse" gradientTransform="matrix(34.42664 20.12633 -25.21115 43.12436 415.28 519.15)"><stop stop-color="#5F6674"/><stop offset="1" stop-color="#555B69" stop-opacity=".5"/></radialGradient><radialGradient id="enterprise_hero_paint15_radial" cx="0" cy="0" r="1" gradientUnits="userSpaceOnUse" gradientTransform="matrix(34.42664 20.12633 -25.21115 43.12436 756.37 735.15)"><stop stop-color="#757C8B"/><stop offset="1" stop-color="#707887" stop-opacity=".5"/></radialGradient><radialGradient id="enterprise_hero_paint16_radial" cx="0" cy="0" r="1" gradientUnits="userSpaceOnUse" gradientTransform="rotate(30.26 -768.68 2566.25) scale(43.6999 54.6832)"><stop stop-color="#717989"/><stop offset="1" stop-color="#464D59" stop-opacity=".57"/></radialGradient><radialGradient id="enterprise_hero_paint17_radial" cx="0" cy="0" r="1" gradientUnits="userSpaceOnUse" gradientTransform="matrix(0 402.011 -654.304 0 812.3 373.99)"><stop stop-color="#010610" stop-opacity="0"/><stop offset="1" stop-color="#010610"/></radialGradient><filter id="enterprise_hero_filter0_bi" x="576" y="372" width="264" height="172" filterUnits="userSpaceOnUse" color-interpolation-filters="sRGB"><feFlood flood-opacity="0" result="BackgroundImageFix"/><feGaussianBlur in="BackgroundImage" stdDeviation="10"/><feComposite in2="SourceAlpha" operator="in" result="effect1_backgroundBlur"/><feBlend in="SourceGraphic" in2="effect1_backgroundBlur" result="shape"/><feColorMatrix in="SourceAlpha" values="0 0 0 0 0 0 0 0 0 0 0 0 0 0 0 0 0 0 127 0" result="hardAlpha"/><feOffset dy="-4"/><feComposite in2="hardAlpha" operator="arithmetic" k2="-1" k3="1"/><feColorMatrix values="0 0 0 0 1 0 0 0 0 1 0 0 0 0 1 0 0 0 0.2 0"/><feBlend in2="shape" result="effect2_innerShadow"/></filter><filter id="enterprise_hero_filter1_bi" x="676" y="313" width="264" height="172" filterUnits="userSpaceOnUse" color-interpolation-filters="sRGB"><feFlood flood-opacity="0" result="BackgroundImageFix"/><feGaussianBlur in="BackgroundImage" stdDeviation="10"/><feComposite in2="SourceAlpha" operator="in" result="effect1_backgroundBlur"/><feBlend in="SourceGraphic" in2="effect1_backgroundBlur" result="shape"/><feColorMatrix in="SourceAlpha" values="0 0 0 0 0 0 0 0 0 0 0 0 0 0 0 0 0 0 127 0" result="hardAlpha"/><feOffset dy="-4"/><feComposite in2="hardAlpha" operator="arithmetic" k2="-1" k3="1"/><feColorMatrix values="0 0 0 0 1 0 0 0 0 1 0 0 0 0 1 0 0 0 0.2 0"/><feBlend in2="shape" result="effect2_innerShadow"/></filter><filter id="enterprise_hero_filter2_bi" x="773" y="256" width="264" height="172" filterUnits="userSpaceOnUse" color-interpolation-filters="sRGB"><feFlood flood-opacity="0" result="BackgroundImageFix"/><feGaussianBlur in="BackgroundImage" stdDeviation="10"/><feComposite in2="SourceAlpha" operator="in" result="effect1_backgroundBlur"/><feBlend in="SourceGraphic" in2="effect1_backgroundBlur" result="shape"/><feColorMatrix in="SourceAlpha" values="0 0 0 0 0 0 0 0 0 0 0 0 0 0 0 0 0 0 127 0" result="hardAlpha"/><feOffset dy="-4"/><feComposite in2="hardAlpha" operator="arithmetic" k2="-1" k3="1"/><feColorMatrix values="0 0 0 0 1 0 0 0 0 1 0 0 0 0 1 0 0 0 0.2 0"/><feBlend in2="shape" result="effect2_innerShadow"/></filter><filter id="enterprise_hero_filter3_bii" x="556" y="213" width="501" height="327" filterUnits="userSpaceOnUse" color-interpolation-filters="sRGB"><feFlood flood-opacity="0" result="BackgroundImageFix"/><feGaussianBlur in="BackgroundImage" stdDeviation="20"/><feComposite in2="SourceAlpha" operator="in" result="effect1_backgroundBlur"/><feBlend in="SourceGraphic" in2="effect1_backgroundBlur" result="shape"/><feColorMatrix in="SourceAlpha" values="0 0 0 0 0 0 0 0 0 0 0 0 0 0 0 0 0 0 127 0" result="hardAlpha"/><feOffset dy="-4"/><feComposite in2="hardAlpha" operator="arithmetic" k2="-1" k3="1"/><feColorMatrix values="0 0 0 0 1 0 0 0 0 1 0 0 0 0 1 0 0 0 0.2 0"/><feBlend in2="shape" result="effect2_innerShadow"/><feColorMatrix in="SourceAlpha" values="0 0 0 0 0 0 0 0 0 0 0 0 0 0 0 0 0 0 127 0" result="hardAlpha"/><feOffset dy="-1"/><feGaussianBlur stdDeviation="1"/><feComposite in2="hardAlpha" operator="arithmetic" k2="-1" k3="1"/><feColorMatrix values="0 0 0 0 1 0 0 0 0 1 0 0 0 0 1 0 0 0 0.4 0"/><feBlend in2="effect2_innerShadow" result="effect3_innerShadow"/></filter></defs></svg>