<svg xmlns="http://www.w3.org/2000/svg" fill="none" viewBox="0 0 476 218">
    <rect width="448" height="186" x="14" y="6" fill="#fff" rx="12"/>
    <rect width="342" height="43" x="91.5" y="120.5" fill="#fff" stroke="#DEE3EA" rx="7.5"/>
    <path fill="#272A2F" d="M108.23 136.82h1.47l3.47 8.45h.11l3.46-8.45h1.48V147h-1.16v-7.74h-.1l-3.18 7.74h-1.11l-3.18-7.74h-.1V147h-1.16v-10.18zm13.05 13.02a2.57 2.57 0 01-.85-.13l.3-1.04c.42.11.78.1 1.07 0 .28-.12.53-.46.74-1.03l.22-.6-2.83-7.68h1.27l2.11 6.09h.08l2.11-6.09 1.28.02-3.25 8.73c-.43 1.16-1.18 1.73-2.25 1.73zm11.57-2.84h-1.3l3.75-10.18h1.27L140.3 147H139l-1.02-2.88h-4.12l-1.02 2.88zm1.41-3.98h3.34l-1.63-4.6h-.08l-1.63 4.6zm7.47 6.84v-10.5h1.14v1.22h.14c.08-.14.2-.3.36-.51.15-.2.37-.4.66-.56.3-.16.69-.25 1.18-.25a3.03 3.03 0 012.85 1.85c.28.6.41 1.29.41 2.1 0 .8-.13 1.5-.4 2.1a3 3 0 01-2.83 1.85 2.18 2.18 0 01-1.86-.8 7.52 7.52 0 01-.37-.53h-.1v4.03h-1.18zm1.16-6.68c0 .87.19 1.57.56 2.11.38.55.92.81 1.63.81.48 0 .9-.12 1.22-.38.33-.26.58-.62.75-1.06.17-.44.25-.94.25-1.48 0-.53-.08-1.02-.25-1.45a2.25 2.25 0 00-.74-1.03 1.96 1.96 0 00-1.24-.38c-.71 0-1.25.26-1.63.79a3.53 3.53 0 00-.55 2.07zm7.38 6.68v-10.5h1.13v1.22h.14c.08-.14.2-.3.36-.51.15-.2.37-.4.66-.56.3-.16.69-.25 1.19-.25a3.04 3.04 0 012.84 1.85c.28.6.42 1.29.42 2.1 0 .8-.14 1.5-.42 2.1a3 3 0 01-2.83 1.85 2.18 2.18 0 01-1.86-.8 7.52 7.52 0 01-.36-.53h-.1v4.03h-1.18zm1.15-6.68c0 .87.19 1.57.56 2.11.38.55.92.81 1.63.81.49 0 .9-.12 1.22-.38.34-.26.58-.62.75-1.06.17-.44.25-.94.25-1.48 0-.53-.08-1.02-.25-1.45-.16-.43-.4-.78-.74-1.03a1.96 1.96 0 00-1.23-.38c-.72 0-1.26.26-1.64.79a3.53 3.53 0 00-.55 2.07zm17.04-3.82c-.06-.5-.3-.9-.72-1.17a2.79 2.79 0 00-1.57-.42c-.67 0-1.21.16-1.63.48-.4.32-.61.73-.61 1.21 0 .37.1.66.33.89.23.22.5.4.8.52.3.12.58.22.84.28l1.03.28c.26.07.56.17.88.29.33.12.65.29.94.5a2.32 2.32 0 011.04 2.01c0 .56-.14 1.05-.43 1.5-.28.44-.7.8-1.25 1.06s-1.21.39-2 .39c-1.09 0-1.96-.26-2.6-.78-.64-.51-1-1.19-1.05-2.03h1.27c.03.39.16.7.39.96.22.25.51.43.86.56.35.12.73.18 1.14.18.47 0 .89-.08 1.26-.23.38-.16.67-.38.9-.65.21-.28.32-.6.32-.97 0-.34-.1-.62-.28-.83a2.07 2.07 0 00-.75-.52c-.3-.13-.64-.25-1-.34l-1.25-.36a4.68 4.68 0 01-1.89-.98c-.46-.43-.7-.98-.7-1.67 0-.57.16-1.06.47-1.49.3-.43.73-.76 1.25-1a4.23 4.23 0 011.76-.35c.66 0 1.24.12 1.75.35.51.23.92.55 1.22.96.3.4.46.86.47 1.37h-1.19zm6.52 0v1h-1.63v4.45c0 .33.05.58.15.75.1.16.22.27.37.33.16.05.32.08.5.08l.31-.02.2-.04.24 1.05a2.41 2.41 0 01-.87.14c-.33 0-.66-.07-.98-.21a1.94 1.94 0 01-.78-.66c-.2-.29-.31-.66-.31-1.1v-4.77h-1.16v-1h1.16v-1.83h1.17v1.83h1.63zm4.79 7.8c-.7 0-1.3-.16-1.82-.5a3.34 3.34 0 01-1.21-1.37 4.66 4.66 0 01-.43-2.07c0-.8.14-1.49.43-2.08.3-.6.7-1.05 1.21-1.38.52-.33 1.13-.5 1.82-.5.69 0 1.3.17 1.8.5.53.33.93.78 1.22 1.38.3.6.44 1.29.44 2.08s-.15 1.48-.44 2.07a3.3 3.3 0 01-1.21 1.38 3.3 3.3 0 01-1.81.49zm0-1.06c.52 0 .95-.13 1.3-.4.33-.27.58-.62.74-1.06a4.08 4.08 0 000-2.85 2.4 2.4 0 00-.75-1.06 2 2 0 00-1.3-.41 2 2 0 00-1.28.4 2.4 2.4 0 00-.75 1.07c-.17.45-.25.92-.25 1.43 0 .51.08.99.25 1.42.16.44.4.8.75 1.06.33.27.76.4 1.29.4zm5.25.9v-7.64h1.13v1.16h.08c.14-.38.4-.69.76-.92.36-.24.77-.36 1.23-.36a14.75 14.75 0 01.62.02v1.2a3.6 3.6 0 00-.72-.08c-.56 0-1.02.17-1.38.5-.37.34-.55.77-.55 1.29V147h-1.17zm8.18.16a3.6 3.6 0 01-1.9-.49 3.28 3.28 0 01-1.24-1.37 4.68 4.68 0 01-.42-2.06c0-.78.14-1.47.43-2.07a3.24 3.24 0 013.01-1.9c.4 0 .79.06 1.18.2a2.93 2.93 0 011.82 1.81 5 5 0 01.28 1.8v.5h-5.54c.02.81.25 1.44.69 1.87.44.44 1 .66 1.69.66.46 0 .85-.1 1.19-.3.33-.2.57-.5.72-.9l1.13.32a2.55 2.55 0 01-1.07 1.4 3.5 3.5 0 01-1.97.53zm-2.38-4.6h4.35c0-.64-.2-1.18-.57-1.6a1.93 1.93 0 00-1.52-.64 2.13 2.13 0 00-1.94 1.14c-.19.34-.3.71-.32 1.1z"/>
    <path fill="#8E9BB2" d="M414.5 143.45l3.4-3.4a.64.64 0 01.91 0c.25.25.25.66 0 .9l-3.85 3.87a.64.64 0 01-.89.02l-3.88-3.88a.65.65 0 010-.91.64.64 0 01.9 0l3.41 3.4z"/>
    <path fill="#0E131D" d="M95.22 113c3.19 0 4.96-1.9 4.96-4.61 0-2.72-1.77-4.62-4.96-4.62H92.1V113h3.13zm3.3-4.61c0 1.9-1.07 3.15-3.35 3.15h-1.5v-6.31h1.5c2.28 0 3.34 1.24 3.34 3.16zm9.4 1.69s.02-.24.02-.49c0-1.97-1.31-3.5-3.32-3.5-2 0-3.35 1.57-3.35 3.53 0 2.02 1.33 3.54 3.37 3.54 1.57 0 2.77-.95 3.17-2.3h-1.56c-.25.6-.86.97-1.58.97-1.07 0-1.76-.69-1.88-1.75h5.13zm-3.3-2.72c1 0 1.65.64 1.78 1.57h-3.58c.15-.92.8-1.57 1.8-1.57zm7.05 5.8c1.88 0 2.82-.97 2.82-2.11 0-2.73-3.88-1.57-3.88-2.89 0-.49.4-.8 1.16-.8.8 0 1.16.5 1.21.97h1.48c-.06-.9-.71-2.23-2.65-2.23-1.66 0-2.68.98-2.68 2.12 0 2.74 3.88 1.47 3.88 2.9 0 .46-.45.76-1.25.76-.95 0-1.42-.45-1.46-1.04h-1.5c.09 1.24.9 2.32 2.87 2.32zm7.24-1.54s-.22.07-.48.07c-.54 0-.76-.26-.76-.8v-3.4h1.26v-1.24h-1.26v-1.75h-1.54v1.75h-1.03v1.24h1.03v3.56c0 1.27.6 1.99 1.97 1.99.52 0 .8-.08.8-.08v-1.34zm2.04-6.5c.56 0 .96-.39.96-.95 0-.57-.4-.97-.96-.97-.57 0-.98.4-.98.97 0 .56.4.95.98.95zm-.78 7.88h1.55v-6.75h-1.55V113zm4.84-6.75h-1.43V113h1.55v-3.91c0-1.06.61-1.67 1.59-1.67.92 0 1.34.61 1.34 1.54V113h1.54v-4.24c0-1.57-.87-2.66-2.5-2.66-1.11 0-1.8.52-2.08 1.05v-.9zm10.57 3.58v.43c0 .9-.61 1.69-1.86 1.69-.74 0-1.2-.25-1.2-.89 0-.47.31-.82 1.26-.96l1.8-.27zm-2.17 3.33c1.08 0 1.86-.35 2.31-1.04 0 .54.08.88.1.88h1.46c-.12-.27-.2-.83-.2-1.27v-3.11c0-1.55-.93-2.52-2.9-2.52-2.05 0-2.85 1.09-2.98 2.27h1.5c.1-.62.59-1 1.44-1 .92 0 1.44.42 1.44 1.24v.1l-1.95.27c-1.78.25-2.59 1-2.59 2.13 0 1.16.69 2.05 2.37 2.05zm8.4-1.54s-.22.07-.48.07c-.53 0-.75-.26-.75-.8v-3.4h1.26v-1.24h-1.26v-1.75h-1.55v1.75H138v1.24h1.03v3.56c0 1.27.6 1.99 1.97 1.99.53 0 .81-.08.81-.08v-1.34zm2.04-6.5c.56 0 .97-.39.97-.95 0-.57-.4-.97-.97-.97s-.97.4-.97.97c0 .56.4.95.97.95zm-.78 7.88h1.55v-6.75h-1.55V113zm6.47.16a3.41 3.41 0 003.51-3.53c0-1.9-1.35-3.53-3.5-3.53a3.42 3.42 0 00-3.5 3.53 3.4 3.4 0 003.5 3.53zm-1.95-3.53c0-1.31.84-2.17 1.95-2.17 1.13 0 1.97.86 1.97 2.17 0 1.3-.84 2.16-1.97 2.16-1.11 0-1.95-.86-1.95-2.16zm8.33-3.38h-1.43V113h1.54v-3.91c0-1.06.61-1.67 1.59-1.67.92 0 1.34.61 1.34 1.54V113h1.54v-4.24c0-1.57-.87-2.66-2.5-2.66-1.1 0-1.8.52-2.08 1.05v-.9zM92.92 46l.77-2.05h4.77l.76 2.05h1.98l-4.14-10.65h-1.94L91 46h1.92zm3.16-8.4l1.78 4.7h-3.58l1.78-4.7h.02zm7.98 7.38c.44.68 1.29 1.2 2.49 1.2 2.31 0 3.62-1.84 3.62-4.06 0-2.24-1.31-4.09-3.62-4.09-1.2 0-2.11.5-2.63 1.3v-1.11h-1.64v10.9h1.78v-4.14zm-.06-2.86c0-1.45.83-2.54 2.19-2.54 1.35 0 2.19 1.1 2.19 2.54 0 1.39-.84 2.48-2.19 2.48-1.36 0-2.19-1.09-2.19-2.48zm9.44 2.86c.43.68 1.28 1.2 2.48 1.2 2.31 0 3.62-1.84 3.62-4.06 0-2.24-1.3-4.09-3.62-4.09-1.2 0-2.11.5-2.62 1.3v-1.11h-1.65v10.9h1.78v-4.14zm-.06-2.86c0-1.45.82-2.54 2.19-2.54 1.35 0 2.19 1.1 2.19 2.54 0 1.39-.84 2.48-2.2 2.48-1.36 0-2.19-1.09-2.19-2.48zm15.3 2.46c-1.44 0-2.2-.77-2.28-1.91h-1.8c.06 1.74 1.16 3.54 4 3.54 2.54 0 4.22-1.26 4.22-3.2 0-4.25-6-2.44-6-4.78 0-.95.77-1.47 2.01-1.47 1.37 0 2.07.84 2.09 1.89h1.78c-.04-2-1.36-3.52-3.87-3.52-2.37 0-3.8 1.45-3.8 3.14 0 4.26 5.95 2.22 5.95 4.82 0 .96-.84 1.48-2.3 1.48zm9.43-.17s-.25.08-.55.08c-.62 0-.87-.3-.87-.92v-3.93h1.45v-1.42h-1.45v-2.03h-1.79v2.03h-1.18v1.42h1.18v4.11c0 1.47.7 2.3 2.28 2.3.6 0 .93-.1.93-.1v-1.54zm4.82 1.77a3.94 3.94 0 004.05-4.06 3.95 3.95 0 00-4.05-4.09 3.94 3.94 0 00-4.03 4.09 3.93 3.93 0 004.03 4.06zm-2.25-4.06c0-1.52.96-2.51 2.25-2.51 1.3 0 2.27.99 2.27 2.5 0 1.5-.96 2.5-2.27 2.5-1.29 0-2.25-1-2.25-2.5zm12.16-3.96l-.26-.02c-1.35 0-2 .66-2.3 1.16v-1.08h-1.64V46h1.78v-4.05c0-1.5.75-2.16 2.01-2.16.2 0 .4.03.4.03v-1.66zm8.12 4.47l.02-.56c0-2.28-1.52-4.04-3.83-4.04-2.3 0-3.87 1.8-3.87 4.07 0 2.32 1.53 4.08 3.89 4.08a3.7 3.7 0 003.66-2.64h-1.8c-.29.69-1 1.11-1.82 1.11-1.24 0-2.04-.8-2.17-2.02h5.92zm-3.8-3.14c1.15 0 1.9.73 2.05 1.81h-4.14c.18-1.06.93-1.81 2.08-1.81z"/>
    <path fill="#676F80" d="M95.06 65h-2.92v-9.45h3.05c.92 0 1.7.18 2.36.56.65.38 1.15.92 1.5 1.62.34.7.52 1.55.52 2.52a5.7 5.7 0 01-.53 2.55c-.35.7-.86 1.25-1.53 1.63-.67.38-1.49.57-2.45.57zm-1.77-1.02h1.7c1.17 0 2.04-.33 2.61-1 .57-.66.86-1.57.86-2.73 0-1.14-.28-2.04-.84-2.7-.56-.66-1.4-.99-2.5-.99h-1.83v7.42zm8.05 1.02v-7.1h1.09V65h-1.09zm.55-8.27a.77.77 0 01-.54-.22.7.7 0 01-.23-.52c0-.2.07-.38.23-.52a.77.77 0 01.55-.22c.2 0 .39.07.54.22.15.14.23.32.23.52s-.08.38-.23.52a.76.76 0 01-.55.22zm7.56 2.77l-.98.27c-.1-.24-.26-.47-.48-.69-.22-.21-.58-.32-1.05-.32-.44 0-.8.1-1.09.3-.28.2-.43.45-.43.75 0 .27.1.49.3.64.2.16.5.29.92.4l1.05.25c1.26.31 1.89.95 1.89 1.92 0 .41-.12.77-.35 1.1-.23.31-.56.57-.97.75-.42.19-.9.28-1.45.28-.73 0-1.32-.16-1.8-.47a2.09 2.09 0 01-.9-1.38l1.04-.26c.19.77.74 1.15 1.64 1.15.5 0 .91-.11 1.2-.33.31-.21.46-.48.46-.78 0-.5-.35-.83-1.05-1l-1.18-.27a2.82 2.82 0 01-1.43-.72c-.3-.33-.46-.73-.46-1.22 0-.4.12-.76.34-1.07.23-.3.54-.54.93-.72.4-.18.84-.26 1.34-.26.7 0 1.25.15 1.65.46.4.3.69.71.86 1.22zm4.85-1.6v.93h-1.51v4.14c0 .3.04.54.13.7.1.14.21.24.35.3a1.94 1.94 0 00.75.06l.19-.05.22.98a2.23 2.23 0 01-.81.13c-.3 0-.61-.06-.9-.2a1.8 1.8 0 01-.74-.6c-.19-.27-.28-.61-.28-1.03v-4.43h-1.07v-.92h1.07v-1.7h1.09v1.7h1.51zm1.64 7.1v-7.1H117v1.08h.08c.13-.35.36-.64.7-.85.34-.22.72-.33 1.14-.33a11.95 11.95 0 01.58.02v1.1a3.27 3.27 0 00-.67-.07c-.52 0-.94.16-1.28.47-.34.32-.51.71-.51 1.2V65h-1.09zm4.84 0v-7.1h1.09V65h-1.1zm.55-8.27a.77.77 0 01-.55-.22.7.7 0 01-.22-.52c0-.2.07-.38.22-.52a.77.77 0 01.55-.22c.21 0 .4.07.55.22.15.14.23.32.23.52s-.08.38-.23.52a.76.76 0 01-.55.22zm2.68 8.27v-9.45h1.09v3.49h.1c.07-.13.18-.28.32-.48.15-.19.36-.36.62-.51.27-.16.64-.23 1.1-.23a2.81 2.81 0 012.65 1.71c.25.55.38 1.2.38 1.94 0 .75-.13 1.4-.38 1.96a2.77 2.77 0 01-2.63 1.72c-.46 0-.82-.08-1.1-.23a2.02 2.02 0 01-.63-.52l-.34-.49h-.13V65h-1.05zm1.07-3.55c0 .8.17 1.46.52 1.97.35.5.86.75 1.51.75.46 0 .84-.12 1.14-.36.31-.24.54-.57.7-.98.15-.41.23-.87.23-1.38 0-.5-.08-.94-.23-1.34-.15-.4-.38-.73-.69-.96-.3-.24-.69-.35-1.15-.35-.66 0-1.17.24-1.51.73a3.27 3.27 0 00-.52 1.92zm11.33.65v-4.2h1.09V65h-1.1v-1.2h-.07c-.17.36-.42.67-.77.92-.35.25-.8.37-1.33.37a2.2 2.2 0 01-1.65-.66c-.43-.44-.64-1.11-.64-2.02v-4.5h1.09v4.43c0 .52.14.93.43 1.24.3.3.66.46 1.12.46a1.86 1.86 0 001.82-1.94zm6.16-4.2v.93h-1.51v4.14c0 .3.04.54.13.7.1.14.21.24.35.3a1.93 1.93 0 00.75.06l.2-.05.21.98a2.2 2.2 0 01-.8.13c-.32 0-.62-.06-.91-.2a1.8 1.8 0 01-.73-.6c-.2-.27-.29-.61-.29-1.03v-4.43h-1.07v-.92h1.07v-1.7h1.09v1.7h1.51zm4.54 7.25c-.68 0-1.27-.15-1.77-.45-.5-.3-.87-.73-1.14-1.28a4.36 4.36 0 01-.4-1.91c0-.73.14-1.37.4-1.92a3 3 0 012.8-1.77c.37 0 .73.06 1.1.18a2.7 2.7 0 011.68 1.7c.18.44.27 1 .27 1.66v.46h-5.15c.02.76.24 1.34.64 1.74.4.4.93.6 1.57.6.43 0 .8-.08 1.1-.27.31-.18.53-.46.67-.83l1.06.3c-.17.53-.5.96-1 1.3-.5.32-1.11.49-1.83.49zm-2.21-4.27h4.04c0-.6-.18-1.1-.53-1.49a1.8 1.8 0 00-1.41-.6 1.97 1.97 0 00-1.8 1.07c-.18.31-.28.66-.3 1.02zm11.16 6.76a2.4 2.4 0 01-.8-.13l.28-.96c.4.1.73.1 1 0 .26-.11.5-.43.69-.96l.2-.55-2.63-7.13H156l1.95 5.65h.08l1.96-5.65 1.19.02-3.02 8.1c-.4 1.08-1.1 1.61-2.09 1.61zm9.18-2.5a3.1 3.1 0 01-1.69-.45 3.1 3.1 0 01-1.13-1.28 4.32 4.32 0 01-.4-1.92c0-.74.14-1.38.4-1.93a3.1 3.1 0 011.13-1.29 3.1 3.1 0 011.69-.45c.63 0 1.2.15 1.68.45.48.3.85.74 1.12 1.29.27.55.4 1.2.4 1.93s-.13 1.37-.4 1.92c-.27.55-.64.98-1.12 1.28-.48.3-1.04.46-1.68.46zm0-.97c.48 0 .88-.13 1.2-.37.3-.25.54-.58.7-.99.14-.4.22-.84.22-1.32 0-.47-.08-.91-.23-1.32-.15-.41-.38-.74-.7-1a1.86 1.86 0 00-1.2-.37c-.48 0-.88.12-1.2.37-.3.26-.54.59-.7 1-.14.4-.22.85-.22 1.32 0 .48.08.92.23 1.32.15.4.38.74.7.99.3.24.7.37 1.2.37zm9.34-2.07v-4.2h1.09V65h-1.09v-1.2h-.07a2.24 2.24 0 01-2.1 1.3 2.2 2.2 0 01-1.65-.67c-.43-.44-.65-1.11-.65-2.02v-4.5h1.1v4.43c0 .52.14.93.42 1.24.3.3.67.46 1.12.46a1.85 1.85 0 001.83-1.94zm3.08 2.9v-7.1h1.06v1.08h.07c.13-.35.37-.64.7-.85.34-.22.72-.33 1.15-.33a11.95 11.95 0 01.57.02v1.1a3.27 3.27 0 00-.66-.07c-.52 0-.95.16-1.29.47-.34.32-.5.71-.5 1.2V65h-1.1zm8.65 0v-9.45h1.09v3.49h.09l.33-.48c.15-.19.35-.36.62-.51.27-.16.64-.23 1.1-.23a2.81 2.81 0 012.64 1.71c.26.55.39 1.2.39 1.94 0 .75-.13 1.4-.39 1.96a2.77 2.77 0 01-2.63 1.72c-.45 0-.81-.08-1.09-.23a2.03 2.03 0 01-.63-.52 7.2 7.2 0 01-.34-.49h-.13V65h-1.05zm1.07-3.55c0 .8.17 1.46.52 1.97.35.5.85.75 1.5.75.46 0 .84-.12 1.15-.36.3-.24.54-.57.7-.98.15-.41.23-.87.23-1.38 0-.5-.08-.94-.23-1.34-.16-.4-.38-.73-.7-.96-.3-.24-.68-.35-1.14-.35-.67 0-1.17.24-1.52.73a3.27 3.27 0 00-.51 1.92zm11.32.65v-4.2h1.1V65h-1.1v-1.2h-.07a2.24 2.24 0 01-2.1 1.3 2.2 2.2 0 01-1.65-.67c-.43-.44-.65-1.11-.65-2.02v-4.5h1.1v4.43c0 .52.14.93.43 1.24.29.3.66.46 1.11.46a1.85 1.85 0 001.83-1.94zm3.09 2.9v-7.1h1.09V65h-1.1zm.55-8.27a.77.77 0 01-.55-.22.7.7 0 01-.22-.52c0-.2.07-.38.22-.52a.77.77 0 01.55-.22c.21 0 .4.07.54.22a.69.69 0 010 1.04.76.76 0 01-.54.22zm3.62-1.18V65h-1.09v-9.45h1.1zm4.67 9.6a2.77 2.77 0 01-2.62-1.72 4.6 4.6 0 01-.39-1.96c0-.74.13-1.39.39-1.94.25-.54.6-.97 1.06-1.27.46-.3.99-.44 1.58-.44.46 0 .83.07 1.1.23.27.15.47.32.62.51l.33.48h.1v-3.5h1.08V65h-1.05v-1.09h-.13l-.34.49c-.15.2-.36.37-.63.52-.28.15-.64.23-1.1.23zm.15-.98c.66 0 1.16-.25 1.5-.75.36-.5.53-1.16.53-1.97 0-.79-.17-1.43-.51-1.92a1.74 1.74 0 00-1.52-.73c-.46 0-.84.11-1.15.35-.3.23-.54.55-.7.96-.14.4-.22.85-.22 1.34 0 .5.08.97.23 1.38.16.41.4.74.7.98.3.24.69.36 1.14.36zm10.27-4.67l-.98.27c-.1-.24-.25-.47-.48-.69-.22-.21-.57-.32-1.05-.32-.43 0-.8.1-1.08.3-.29.2-.43.45-.43.75 0 .27.1.49.3.64.19.16.5.29.92.4l1.05.25c1.25.31 1.88.95 1.88 1.92 0 .41-.12.77-.35 1.1-.23.31-.55.57-.97.75-.41.19-.9.28-1.45.28-.72 0-1.32-.16-1.8-.47a2.1 2.1 0 01-.9-1.38l1.04-.26c.2.77.74 1.15 1.64 1.15.51 0 .92-.11 1.21-.33.3-.21.46-.48.46-.78 0-.5-.35-.83-1.06-1l-1.18-.27a2.82 2.82 0 01-1.43-.72c-.3-.33-.45-.73-.45-1.22 0-.4.11-.76.34-1.07.22-.3.53-.54.92-.72.4-.18.84-.26 1.34-.26.7 0 1.25.15 1.65.46.4.3.7.71.86 1.22zm8.51-1.6v.93h-1.51v4.14c0 .3.04.54.13.7.1.14.21.24.35.3a1.93 1.93 0 00.75.06l.19-.05.22.98a2.21 2.21 0 01-.81.13c-.3 0-.61-.06-.9-.2a1.8 1.8 0 01-.73-.6c-.2-.27-.3-.61-.3-1.03v-4.43h-1.06v-.92h1.07v-1.7h1.09v1.7h1.51zm4.45 7.25a3.1 3.1 0 01-1.69-.46 3.1 3.1 0 01-1.13-1.28 4.34 4.34 0 01-.4-1.92c0-.74.14-1.38.4-1.93a3.1 3.1 0 011.13-1.29 3.1 3.1 0 011.69-.45c.64 0 1.2.15 1.68.45.48.3.85.74 1.12 1.29.27.55.4 1.2.4 1.93a4.3 4.3 0 01-.4 1.92c-.27.55-.64.98-1.12 1.28-.48.3-1.04.46-1.68.46zm0-.98c.48 0 .88-.13 1.2-.37.31-.25.54-.58.7-.99.14-.4.22-.84.22-1.32 0-.47-.08-.91-.23-1.32-.15-.41-.38-.74-.7-1a1.85 1.85 0 00-1.2-.37c-.48 0-.88.12-1.2.37-.3.26-.54.59-.7 1a3.82 3.82 0 000 2.64c.16.4.4.74.7.99.32.24.72.37 1.2.37zm11.61-6.26v.92h-1.51v4.14c0 .3.04.54.13.7.1.14.21.24.35.3a1.93 1.93 0 00.75.06l.19-.05.22.98a2.23 2.23 0 01-.81.13c-.3 0-.61-.06-.9-.2a1.8 1.8 0 01-.73-.6c-.2-.27-.3-.61-.3-1.03v-4.43h-1.06v-.92h1.07v-1.7h1.09v1.7h1.51zm2.88 2.82V65h-1.09v-9.45h1.1v3.47h.09a2 2 0 01.74-.88c.34-.21.78-.32 1.34-.32.73 0 1.31.22 1.76.65.44.44.66 1.11.66 2.02V65h-1.09v-4.43c0-.56-.14-1-.44-1.3-.29-.32-.69-.47-1.2-.47-.54 0-.99.16-1.34.5-.35.34-.53.82-.53 1.43zm9.57 4.42c-.69 0-1.28-.15-1.77-.45-.5-.3-.87-.73-1.14-1.28a4.36 4.36 0 01-.4-1.91c0-.73.13-1.37.4-1.92a3 3 0 012.8-1.77c.37 0 .73.06 1.09.18a2.7 2.7 0 011.69 1.7c.18.44.26 1 .26 1.66v.46h-5.14c.02.76.23 1.34.64 1.74.4.4.93.6 1.57.6.43 0 .8-.08 1.1-.27.3-.18.53-.46.67-.83l1.05.3c-.16.53-.5.96-1 1.3-.5.32-1.1.49-1.82.49zm-2.21-4.27h4.03c0-.6-.17-1.1-.52-1.49a1.8 1.8 0 00-1.41-.6 1.97 1.97 0 00-1.8 1.07c-.18.31-.28.66-.3 1.02zM266.32 65v-7.1h1.09V65h-1.1zm.55-8.27a.77.77 0 01-.55-.22.7.7 0 01-.22-.52c0-.2.07-.38.22-.52a.77.77 0 01.55-.22c.21 0 .4.07.55.22.15.14.23.32.23.52s-.08.38-.23.52a.76.76 0 01-.55.22zm10.66 3.54c0 1-.18 1.86-.54 2.59a3.96 3.96 0 01-3.63 2.27 3.96 3.96 0 01-3.64-2.27 5.76 5.76 0 01-.54-2.59c0-1 .18-1.86.54-2.58a3.96 3.96 0 013.63-2.27 3.96 3.96 0 013.64 2.27c.36.72.54 1.59.54 2.58zm-1.11 0c0-.82-.14-1.5-.41-2.07a2.86 2.86 0 00-2.65-1.71c-.58 0-1.1.14-1.56.43-.46.3-.83.72-1.1 1.28-.28.56-.41 1.25-.41 2.07 0 .82.13 1.51.4 2.08.28.56.65.98 1.1 1.27.47.3 1 .44 1.56.44a2.86 2.86 0 002.66-1.71c.27-.57.4-1.26.4-2.08zm8.2-2.36a1.45 1.45 0 00-.67-1.09c-.4-.26-.88-.39-1.45-.39a2.4 2.4 0 00-1.52.45c-.38.3-.57.67-.57 1.12 0 .34.1.61.31.82.21.2.46.37.74.49.29.11.55.2.78.26l.96.26c.25.06.52.15.82.27.3.11.6.27.87.46.28.2.51.45.7.75.18.3.27.68.27 1.12 0 .51-.13.98-.4 1.39-.27.41-.65.74-1.17.98-.5.24-1.12.37-1.85.37a3.75 3.75 0 01-2.42-.72c-.6-.48-.92-1.11-.97-1.89h1.18c.03.36.15.66.36.89.21.23.48.4.8.52a3.26 3.26 0 002.23-.05c.35-.14.62-.34.83-.6.2-.26.3-.56.3-.9 0-.32-.09-.57-.26-.77-.18-.2-.4-.36-.7-.48-.28-.12-.59-.23-.92-.32l-1.17-.34a4.34 4.34 0 01-1.75-.9 2 2 0 01-.65-1.55c0-.53.15-1 .43-1.39.3-.4.68-.7 1.17-.92a3.93 3.93 0 011.64-.33c.6 0 1.15.1 1.62.32.47.22.85.51 1.13.89.28.38.42.8.44 1.28h-1.1zM291.8 65h-1.2l3.47-9.45h1.18L298.7 65h-1.2l-.95-2.68h-3.82l-.95 2.68zm1.3-3.7h3.1l-1.5-4.26h-.08l-1.51 4.27zm6.95 6.36V57.9h1.05v1.13h.13l.33-.48c.14-.19.35-.36.62-.51.27-.16.63-.23 1.1-.23a2.82 2.82 0 012.64 1.71c.26.55.38 1.2.38 1.94 0 .75-.12 1.4-.38 1.96a2.77 2.77 0 01-2.63 1.72c-.45 0-.82-.08-1.09-.23a2.02 2.02 0 01-.63-.52l-.34-.49h-.1v3.75h-1.08zm1.07-6.2c0 .8.17 1.45.52 1.96.35.5.85.75 1.5.75.46 0 .84-.12 1.15-.36.3-.24.54-.57.69-.98.16-.41.24-.87.24-1.38 0-.5-.08-.94-.23-1.34-.16-.4-.38-.73-.7-.96-.3-.24-.68-.35-1.14-.35-.67 0-1.17.24-1.52.73a3.28 3.28 0 00-.51 1.92zm6.85 6.2V57.9H309v1.13h.13l.33-.48c.15-.19.35-.36.62-.51.27-.16.64-.23 1.1-.23a2.81 2.81 0 012.64 1.71c.26.55.39 1.2.39 1.94 0 .75-.13 1.4-.39 1.96a2.77 2.77 0 01-2.63 1.72c-.45 0-.81-.08-1.09-.23a2.02 2.02 0 01-.63-.52l-.34-.49h-.1v3.75h-1.08zm1.07-6.2c0 .8.17 1.45.52 1.96.35.5.85.75 1.5.75.46 0 .84-.12 1.15-.36.3-.24.54-.57.7-.98.15-.41.23-.87.23-1.38 0-.5-.08-.94-.23-1.34-.15-.4-.38-.73-.7-.96-.3-.24-.68-.35-1.14-.35-.67 0-1.17.24-1.51.73a3.27 3.27 0 00-.52 1.92zm15.82-3.55a1.45 1.45 0 00-.67-1.09c-.4-.26-.88-.39-1.45-.39-.63 0-1.13.15-1.51.45-.39.3-.58.67-.58 1.12 0 .34.1.61.31.82.21.2.46.37.74.49.29.11.55.2.78.26l.96.26c.25.06.52.15.82.27.3.11.6.27.88.46a2.15 2.15 0 01.97 1.87c0 .51-.14.98-.41 1.39-.27.41-.65.74-1.16.98-.51.24-1.13.37-1.86.37a3.75 3.75 0 01-2.42-.72c-.6-.48-.92-1.11-.97-1.89h1.18c.03.36.15.66.36.89.21.23.48.4.8.52.33.1.68.16 1.05.16.44 0 .83-.07 1.18-.21.35-.14.63-.34.83-.6.2-.26.3-.56.3-.9 0-.32-.09-.57-.26-.77-.18-.2-.4-.36-.7-.48-.28-.12-.59-.23-.92-.32l-1.16-.34a4.32 4.32 0 01-1.76-.9 2 2 0 01-.64-1.55c0-.53.14-1 .42-1.39.3-.4.68-.7 1.17-.92a3.93 3.93 0 011.64-.33c.6 0 1.15.1 1.62.32.48.22.85.51 1.13.89.28.38.43.8.44 1.28h-1.1zm6.06 0v.92h-1.52v4.14c0 .3.05.54.14.7.1.14.2.24.35.3a1.93 1.93 0 00.75.06l.19-.05.22.98a2.23 2.23 0 01-.81.13c-.31 0-.61-.06-.9-.2a1.8 1.8 0 01-.74-.6c-.19-.27-.28-.61-.28-1.03v-4.43h-1.08v-.92h1.07v-1.7h1.1v1.7h1.5zm4.44 7.24a3.1 3.1 0 01-1.68-.46 3.1 3.1 0 01-1.13-1.28 4.32 4.32 0 01-.4-1.92c0-.74.13-1.38.4-1.93a3.1 3.1 0 011.13-1.29 3.1 3.1 0 011.68-.45c.64 0 1.2.15 1.68.45.49.3.86.74 1.13 1.29.27.55.4 1.2.4 1.93s-.13 1.37-.4 1.92c-.27.55-.64.98-1.13 1.28-.48.3-1.04.46-1.68.46zm0-.98c.49 0 .89-.13 1.2-.37.32-.25.55-.58.7-.99a3.8 3.8 0 000-2.65c-.15-.4-.38-.73-.7-.99a1.86 1.86 0 00-1.2-.37c-.48 0-.88.12-1.2.37-.31.26-.54.59-.7 1-.15.4-.22.85-.22 1.32 0 .48.07.92.22 1.32.16.4.39.74.7.99.32.24.72.37 1.2.37zm4.88.83v-7.1h1.05v1.08h.08c.12-.35.36-.64.7-.85.33-.22.72-.33 1.14-.33a11.95 11.95 0 01.57.02v1.1a3.27 3.27 0 00-.66-.07c-.52 0-.95.16-1.28.47-.34.32-.51.71-.51 1.2V65h-1.1zm7.6.15c-.7 0-1.28-.15-1.77-.45-.5-.3-.88-.73-1.15-1.28a4.36 4.36 0 01-.4-1.91c0-.73.14-1.37.4-1.92a3 3 0 012.8-1.77c.37 0 .74.06 1.1.18a2.7 2.7 0 011.69 1.7c.17.44.26 1 .26 1.66v.46h-5.15c.03.76.24 1.34.64 1.74.4.4.93.6 1.57.6.43 0 .8-.08 1.1-.27.31-.18.54-.46.68-.83l1.05.3c-.17.53-.5.96-1 1.3-.5.32-1.1.49-1.83.49zm-2.22-4.27h4.04c0-.6-.17-1.1-.52-1.49a1.8 1.8 0 00-1.42-.6 1.97 1.97 0 00-1.8 1.07c-.17.31-.27.66-.3 1.02z"/>
    <path fill="url(#apple_paint0_linear)" d="M58 34a16 16 0 100 32 16 16 0 000-32zm-6.07 23a1.1 1.1 0 01-1.52.38 1.1 1.1 0 01-.4-1.51l1.09-1.82a.62.62 0 01.54-.3h.16c.79 0 1.34.47 1.5.93L51.94 57zm9.24-3.58h-11.9a1.1 1.1 0 01-1.1-1.15c.01-.6.54-1.05 1.13-1.05h3.45l4.09-6.95L55.5 42a1.12 1.12 0 01.76-1.67 1.11 1.11 0 011.15.53l.7 1.2h.01l.71-1.2a1.11 1.11 0 011.56-.37c.5.32.64 1 .34 1.52l-1.32 2.25-1.29 2.2-2.8 4.75v.01h4.12c.52 0 1.16.28 1.43.72l.02.05c.23.4.36.66.36 1.05 0 .13-.03.26-.08.37zm5.56 0h-1.94v.02l1.42 2.4a1.13 1.13 0 01-.37 1.54A1.11 1.11 0 0164.3 57l-2.1-3.56-1.3-2.22-1.67-2.86a2.74 2.74 0 01.54-3.46l3.73 6.31h3.2c.6 0 1.12.47 1.15 1.06a1.12 1.12 0 01-1.12 1.16z"/>
    <rect width="32" height="12" x="402" y="46" fill="#D3F3DB" rx="6"/>
    <path fill="#43C465" fill-rule="evenodd" d="M425 61a9 9 0 100-18 9 9 0 000 18z" clip-rule="evenodd"/>
    <defs>
        <linearGradient id="apple_paint0_linear" x1="58" x2="58" y1="34" y2="66" gradientUnits="userSpaceOnUse">
            <stop stop-color="#13C8FA"/>
            <stop offset="1" stop-color="#1C71F0"/>
        </linearGradient>
    </defs>
</svg>
