<svg xmlns="http://www.w3.org/2000/svg" fill="none" viewBox="0 0 48 48"><rect width="48" height="48" fill="#E7F4FF" rx="24"/><ellipse cx="24" cy="31.71" fill="url(#customer_paint0_radial)" rx="9.43" ry="5.14"/><circle cx="24" cy="21.43" r="5.14" fill="url(#customer_paint1_radial)"/><path fill="url(#customer_paint2_linear)" d="M24 10.29A13.73 13.73 0 0010.29 24c0 7.56 6.15 13.71 13.71 13.71 7.56 0 13.71-6.15 13.71-13.71 0-7.56-6.15-13.71-13.71-13.71zm-3.31 7.7A4.49 4.49 0 0124 16.62c1.3 0 2.47.49 3.3 1.38.85.9 1.27 2.11 1.17 3.41-.2 2.59-2.2 4.7-4.47 4.7-2.27 0-4.28-2.11-4.47-4.7A4.44 4.44 0 0120.69 18zM24 35.6a11.57 11.57 0 01-8.3-3.5 8.1 8.1 0 012.3-2.21 11.2 11.2 0 016-1.67c2.18 0 4.31.6 5.99 1.67a8.1 8.1 0 012.32 2.2A11.57 11.57 0 0124 35.6z"/><defs><radialGradient id="customer_paint0_radial" cx="0" cy="0" r="1" gradientTransform="matrix(0 5.14286 -11.3002 0 24 28.29)" gradientUnits="userSpaceOnUse"><stop stop-color="#98C5FF"/><stop offset=".85" stop-color="#C4DEFF"/></radialGradient><radialGradient id="customer_paint1_radial" cx="0" cy="0" r="1" gradientTransform="matrix(0 6.42857 -6.77923 0 24 15.43)" gradientUnits="userSpaceOnUse"><stop stop-color="#fff"/><stop offset="1" stop-color="#E6F4FF"/></radialGradient><linearGradient id="customer_paint2_linear" x1="24" x2="24" y1="10.29" y2="37.71" gradientUnits="userSpaceOnUse"><stop stop-color="#92BCFF"/><stop offset="1" stop-color="#5090FF"/></linearGradient></defs></svg>