<svg xmlns="http://www.w3.org/2000/svg" fill="none" viewBox="0 0 48 48"><path fill="#B7D8FC" d="M48 1a1 1 0 00-1-1H28.98a.5.5 0 00-.36.85l18.52 18.86c.32.32.86.1.86-.35V1z"/><path fill="#B7D8FC" fill-rule="evenodd" d="M23.44 20.11c-3.18 6.57-4.8 14-4.9 22.63-.01.55.43 1 .99 1h6.42c.55 0 1-.45 1-1 .12-7.53 1.52-13.63 4.04-18.84 2.5-5.18 6.23-9.69 11.29-13.9.41-.35.49-.97.15-1.4l-4-5.15a.99.99 0 00-1.41-.15C31.2 8.14 26.59 13.58 23.44 20.1z" clip-rule="evenodd"/><path fill="#3880FF" fill-rule="evenodd" d="M24.78 20.93c3.17 6.53 4.77 13.93 4.89 22.51 0 .56-.44 1-1 1h-6.4c-.55 0-1-.44-1-1-.11-7.49-1.51-13.56-4.02-18.74-2.5-5.15-6.21-9.64-11.25-13.83-.42-.35-.5-.97-.16-1.4l3.99-5.11a.99.99 0 011.4-.16C17.05 9 21.64 14.44 24.79 20.93z" clip-rule="evenodd"/><path fill="#3880FF" d="M0 1a1 1 0 011-1h18.02a.5.5 0 01.36.85L.86 19.71a.5.5 0 01-.86-.35V1z"/><ellipse cx="24.44" cy="39.11" fill="#3880FF" rx="8.73" ry="8.89"/></svg>