<svg xmlns="http://www.w3.org/2000/svg" viewBox="0 0 400 400"><path fill="#54a4fc" fill-rule="evenodd" d="M186.2.4a189.5 189.5 0 00-50 9.2c-.5 0-1 .2-1.2.4-.1.2-.7.4-1.2.4s-1 .2-1.2.4c-.1.2-.6.4-1 .4a56.2 56.2 0 01-5.8 2c-3.9 1.4-12.5 4.8-15.4 6A443.5 443.5 0 0086.8 31a241.1 241.1 0 00-20 13.6 194.1 194.1 0 00-51.2 64 177.4 177.4 0 01-3.6 8c-.5 1.3-1 2.6-1.2 2.8l-.8 2.2-.8 2.2-1.2 3.4a83.8 83.8 0 01-1.8 5.6l-.7 2.4A139.3 139.3 0 00.7 183a147 147 0 009.2 38.2l4 8.8A148.7 148.7 0 0032 258a387.8 387.8 0 0013.6 15.8 225.3 225.3 0 0110 12 224.2 224.2 0 0120.1 25.5l1.3 1.6a149.8 149.8 0 0115 24.7c.2 0 .4.3.4.6s.2 1 .4 1.3c1.1 2.4 2.1 5.4 2.9 9.1.2 1.1.5 6 .7 11 .1 5 .4 9.4.6 10l.7 2.8a39.2 39.2 0 0014.2 21.2 33.6 33.6 0 0013.7 5.7c2.5.5 112.8.7 115.2.2 17.8-3.8 25.8-12.7 30.2-33.5a268.9 268.9 0 012.9-12.9c0-.8.3-1.6.5-1.7.2-.1.4-.6.4-1 0-1 3.7-4.8 5.8-5.9 1.5-.7 5.3-1.3 13.4-1.9a106.2 106.2 0 0023.4-4.6 89 89 0 0020.8-10.1 40.3 40.3 0 0020.5-33.1 222.5 222.5 0 00-3.9-53.5c-3-17.7-3.1-18.9-1-18.9.9 0 2.1-.2 6.2-1.2l6-1.4c18.1-4.3 28-10.7 32.2-21 1.4-3.4 2.3-10.5 1.4-11.3a38 38 0 00-5.1-14 265.9 265.9 0 00-16.9-28.9c-1.1-1.6-2-3.2-2-3.4 0-.2-.2-.4-.3-.4-.2 0-.6-.5-1-1.1-.2-.6-.6-1.2-.8-1.3a389 389 0 00-13.5-20.2c0-.3-.1-.6-.3-.7a805.2 805.2 0 00-47.4-61.9 269.8 269.8 0 00-14.7-15 189.4 189.4 0 00-28.2-20.4 153.1 153.1 0 00-19.4-9.4c0-.2-.4-.4-.8-.4l-1.6-.4-1.6-.8c-.4-.2-1.1-.4-1.6-.4-.4 0-.9-.2-1-.4-.1-.2-.7-.4-1.2-.4s-1-.2-1.2-.4c-.1-.2-.6-.4-1-.4-.5 0-1.1-.2-1.5-.4L236 6a93.6 93.6 0 01-5-1.2 2 2 0 01-1.2-.4 79.5 79.5 0 01-5.6-1.2c-11.8-2.3-35.3-4-38-2.8M208.6 24a167 167 0 0119.2 3.6c.1.2.7.4 1.2.4.6 0 1.3.2 1.7.4l5.8 2a78 78 0 017.7 2.8 148.7 148.7 0 0127.6 16c13.5 10 21.3 18.3 43.5 46.4a702.5 702.5 0 0121.5 29.4 88.3 88.3 0 004.8 6.8 853 853 0 0127.4 42.6 144.5 144.5 0 015 9.1c2.5 4.4 3.3 8.1 1.8 8.1a41.5 41.5 0 01-13.4 5.6c-8 1.9-11 2.5-15.8 3.4-10.5 2-12.6 2.8-15 5.8-3 3.5-4 10.2-2.8 16.7l.8 5.3.8 5.2 1.4 8c6 37.4 6 57.7-.3 62.5l-2.9 2.4c-.9.8-1.7 1.5-2 1.5l-1 .8c-.6.4-1.2.8-1.5.8-.3 0-.5.2-.5.4 0 2-17.4 8-26.2 9.2l-6.3.8c-1.5.2-4 .4-5.7.4a36.5 36.5 0 00-17.4 4.9c-6 3.4-14.8 13.7-14.8 17.5l-.4 1.1c-.3.6-1.2 4-2.4 9.7a386.4 386.4 0 01-3.6 15c-1 3.7-3.5 6.4-7.2 7.7-1.7.6-110 .7-111.1.1l-2.2-1c-5.1-2.2-7.1-6.8-7.1-16.5a71 71 0 00-11-40.1 196.9 196.9 0 00-17.8-26.2 462.6 462.6 0 00-18.6-23.2 552.5 552.5 0 00-13.4-15.8A194.6 194.6 0 0140.8 231a107.7 107.7 0 01-15.4-80.6 42.6 42.6 0 011.4-6 70.7 70.7 0 012.8-9.4 60 60 0 012.6-7.2 157.6 157.6 0 0187.6-87.6l3.6-1.6a196.4 196.4 0 0127.3-9.4c.5-.2 1.4-.4 1.9-.4s1-.2 1.2-.4c0-.2.9-.4 1.7-.5a143.2 143.2 0 0123.7-3.8l4.8-.7c.3-.4 21 .1 24.6.6m-31.4 59.3a116.7 116.7 0 00-27.2 6.5 91.5 91.5 0 00-44.5 36.2 77.5 77.5 0 00-10.3 28.2 170 170 0 00.2 22.4 144.6 144.6 0 005 20.4l2 5.2a96.4 96.4 0 0025.6 37c.2 0 .9.5 1.6 1.2l3 2.3c2.2 1.4 2.2 1.1 2.2 17.1 0 12 0 13.3.8 14.9a13 13 0 008.4 6.9c2 .6 87.1.6 88.7 0 3.1-1.3 4-1.8 5.6-3.3 1.7-1.6 2.4-2.7 3.3-5.5.2-.8.4-6.2.4-15.2v-13.8l1.2-.7a96.6 96.6 0 0018-17.5 105.4 105.4 0 0013.3-24.3l1.5-3.8c.2-.4.4-1 .4-1.5 0-.4.2-.9.4-1 .1 0 .4-.7.5-1.3l.6-2.5a152.4 152.4 0 003.7-18.2c.5-3.5.3-15-.4-19.4a53.4 53.4 0 00-3.2-12.9c0-.4-.2-1-.4-1.4l-.7-1.7a84.9 84.9 0 00-35.8-40.7 101.7 101.7 0 00-43-13.7c-5.6-.5-15.6-.4-20.9 0m23.7 23.2a87.2 87.2 0 0116.5 4.4 62.6 62.6 0 0125.8 16.8c5.2 5.3 8.2 9.7 11.8 17.3a54.4 54.4 0 012.3 35.2c0 .8-.3 1.6-.5 1.7-.2.1-.4.6-.4 1 0 1-.7 3.3-1.2 4.5l-.4 1.3a42.4 42.4 0 00-1.6 4.4 89.3 89.3 0 01-11.7 20.6 53.6 53.6 0 01-15.7 13.2l-3.6 2.2-3.4 2.2v27.6l-.9.2c-.5.1-14.2.2-30.5.1l-29.6-.1-.1-14-.1-14-1.5-.9a62.7 62.7 0 01-26.2-23.7 85.2 85.2 0 01-11-27.8 53.7 53.7 0 010-25.6c4.2-18.5 20.8-35.6 41.1-42.6a53.5 53.5 0 004-1.4l2.4-.7c8.6-2.4 26-3.4 34.5-1.9m-54 195.3c.1 8 .5 9.1 3.8 12.2 3.7 3.5 2 3.3 37.5 3.3 35.7 0 34 .1 37.5-3.3 3.7-3.7 3.9-4.4 3.9-12.6v-6.5h-82.9l.2 6.9"/></svg>