<svg width="32" height="32" viewBox="0 0 32 32" fill="none" xmlns="http://www.w3.org/2000/svg"><path d="M5.72286 20.2194C5.72286 20.2196 5.72286 20.2197 5.72286 20.2199C5.72236 20.6867 5.58354 21.1429 5.32391 21.5308C5.06419 21.9189 4.69525 22.2212 4.26372 22.3996C3.83219 22.5781 3.35745 22.6245 2.89951 22.5332C2.44157 22.4419 2.02099 22.2168 1.69094 21.8865C1.36089 21.5561 1.13618 21.1354 1.04523 20.6773C0.954275 20.2193 1.00116 19.7446 1.17995 19.3132C1.35874 18.8819 1.66141 18.5132 2.0497 18.2538C2.43799 17.9944 2.89447 17.856 3.36143 17.856H5.72286L5.72286 20.2194Z" stroke="#51A7FF" stroke-width="2"/><path d="M9.41711 20.2203C9.41711 19.594 9.66591 18.9934 10.1088 18.5505C10.5516 18.1077 11.1523 17.8589 11.7785 17.8589C12.4048 17.8589 13.0055 18.1077 13.4483 18.5505C13.8912 18.9934 14.14 19.594 14.14 20.2203V28.6375C14.14 29.2637 13.8912 29.8644 13.4483 30.3072C13.0055 30.7501 12.4048 30.9989 11.7785 30.9989C11.1523 30.9989 10.5516 30.7501 10.1088 30.3072C9.66591 29.8644 9.41711 29.2637 9.41711 28.6375V20.2203Z" stroke="#51A7FF" stroke-width="2"/><path d="M11.7794 5.72188C11.7792 5.72188 11.7791 5.72188 11.7789 5.72188C11.3121 5.72139 10.8559 5.58256 10.468 5.32293C10.0799 5.06321 9.77759 4.69427 9.59916 4.26274C9.42074 3.83121 9.37426 3.35647 9.4656 2.89853C9.55695 2.44059 9.78201 2.02001 10.1123 1.68996C10.4427 1.35991 10.8634 1.13521 11.3215 1.04425C11.7795 0.953299 12.2542 1.00018 12.6856 1.17897C13.1169 1.35776 13.4856 1.66043 13.745 2.04872C14.0044 2.43701 14.1428 2.89349 14.1428 3.36045V5.72188L11.7794 5.72188Z" stroke="#51A7FF" stroke-width="2"/><path d="M11.7786 9.41602C12.4049 9.41602 13.0055 9.66481 13.4484 10.1077C13.8912 10.5505 14.14 11.1512 14.14 11.7774C14.14 12.4037 13.8912 13.0044 13.4484 13.4472C13.0055 13.8901 12.4049 14.1389 11.7786 14.1389H3.36143C2.73514 14.1389 2.1345 13.8901 1.69165 13.4472C1.24879 13.0044 1 12.4037 1 11.7774C1 11.1512 1.24879 10.5505 1.69165 10.1077C2.1345 9.66481 2.73514 9.41602 3.36143 9.41602H11.7786Z" stroke="#51A7FF" stroke-width="2"/><path d="M26.2772 14.1418V11.778C26.2776 11.3112 26.4165 10.8549 26.6761 10.467C26.9358 10.0789 27.3048 9.77655 27.7363 9.59812C28.1678 9.4197 28.6426 9.37322 29.1005 9.46457C29.5584 9.55591 29.979 9.78097 30.3091 10.1113C30.6391 10.4416 30.8638 10.8624 30.9548 11.3204C31.0457 11.7784 30.9989 12.2531 30.8201 12.6845C30.6413 13.1159 30.3386 13.4846 29.9503 13.744C29.562 14.0034 29.1055 14.1418 28.6386 14.1418H26.2772Z" stroke="#51A7FF" stroke-width="2"/><path d="M22.5828 11.7776C22.5828 12.4039 22.334 13.0045 21.8912 13.4474C21.4483 13.8902 20.8477 14.139 20.2214 14.139C19.5951 14.139 18.9945 13.8902 18.5516 13.4474C18.1088 13.0045 17.86 12.4039 17.86 11.7776V3.36045C17.86 2.73416 18.1088 2.13352 18.5516 1.69067C18.9945 1.24782 19.5951 0.999023 20.2214 0.999023C20.8477 0.999023 21.4483 1.24782 21.8912 1.69067L22.5983 0.983563L21.8912 1.69067C22.334 2.13352 22.5828 2.73416 22.5828 3.36045V11.7776Z" stroke="#51A7FF" stroke-width="2"/><path d="M17.8571 26.2764H20.2209C20.6878 26.2768 21.144 26.4157 21.5319 26.6753C21.92 26.935 22.2224 27.304 22.4008 27.7355C22.5792 28.167 22.6257 28.6418 22.5344 29.0997C22.443 29.5577 22.2179 29.9782 21.8876 30.3083C21.5573 30.6383 21.1365 30.863 20.6785 30.954C20.2205 31.0449 19.7458 30.9981 19.3144 30.8193C18.883 30.6405 18.5143 30.3378 18.255 29.9495C17.9956 29.5612 17.8571 29.1048 17.8571 28.6378V26.2764Z" stroke="#51A7FF" stroke-width="2"/><path d="M20.2214 22.5817C19.5951 22.5817 18.9945 22.3329 18.5516 21.8901L17.8445 22.5972L18.5516 21.8901C18.1088 21.4472 17.86 20.8466 17.86 20.2203C17.86 19.594 18.1088 18.9934 18.5516 18.5505C18.9945 18.1077 19.5951 17.8589 20.2214 17.8589H28.6386C29.2648 17.8589 29.8655 18.1077 30.3083 18.5505C30.7512 18.9934 31 19.594 31 20.2203C31 20.8466 30.7512 21.4472 30.3083 21.8901C29.8655 22.333 29.2648 22.5817 28.6386 22.5817H20.2214Z" stroke="#51A7FF" stroke-width="2"/></svg>