<svg xmlns="http://www.w3.org/2000/svg" fill="none" viewBox="0 0 48 48"><path fill="#3880FF" d="M25.85 24.84v22.7c0 .36.38.57.69.4l18.7-10.98A5.4 5.4 0 0048 32.28V12.64c0-.35-.39-.57-.7-.4L26.07 24.46a.45.45 0 00-.22.4z"/><path fill="#85B4FF" d="M.7 12.24c-.31-.17-.7.05-.7.4v19.64a5.4 5.4 0 002.75 4.67l18.71 10.99c.3.17.7-.04.7-.4V24.77c0-.16-.1-.31-.23-.4L.69 12.25z"/><path fill="#A1C6FF" d="M9.56 5.5a.12.12 0 00-.11-.08.12.12 0 00-.12.12v5.48c0 4.12 6.57 7.46 14.67 7.46s14.67-3.34 14.67-7.46V5.54a.12.12 0 00-.12-.12c-.05 0-.1.04-.11.08C37.2 9.17 31.2 11.95 24 11.95c-7.21 0-13.21-2.78-14.44-6.45z"/></svg>