<svg xmlns="http://www.w3.org/2000/svg" fill="none" viewBox="0 0 48 48"><rect width="48" height="48" fill="#E7F4FF" rx="24"/><path fill="url(#sla_paint0_linear)" d="M34.77 10.29h-13.7a2.94 2.94 0 00-2.95 2.94V25.7c0 .14.11.25.25.25h8.49a3.97 3.97 0 014.04 3.87c.07 2.5.3 4.15.75 5.33.52 1.38 1.66 2.23 2.91 2.23 2.17 0 3.15-1.63 3.15-3.6V13.24a2.94 2.94 0 00-2.94-2.94z"/><path fill="#E6F4FF" d="M32.31 15.18H23.4c-.62 0-1.11.44-1.11.98s.5.98 1.11.98h8.91c.62 0 1.12-.44 1.12-.98s-.5-.98-1.12-.98z"/><path fill="#E6F4FF" d="M32.44 20.08h-8.92c-.61 0-1.11.44-1.11.98s.5.98 1.11.98h8.92c.61 0 1.11-.44 1.11-.98s-.5-.98-1.11-.98z" opacity=".8"/><path fill="#E6F4FF" d="M32.44 24.86h-8.92c-.61 0-1.11.44-1.11.98s.5.98 1.11.98h8.92c.61 0 1.11-.44 1.11-.98s-.5-.98-1.11-.98z" opacity=".6"/><path fill="#E6F4FF" d="M32.44 30h-8.92c-.61 0-1.11.44-1.11.98s.5.98 1.11.98h8.92c.61 0 1.11-.44 1.11-.98s-.5-.98-1.11-.98z" opacity=".4"/><path fill="url(#sla_paint1_linear)" d="M30.38 36.95c-.22-.33-.41-.7-.56-1.1-.54-1.4-.8-3.2-.88-5.97a2.01 2.01 0 00-2.02-1.96H12.24c-1.07 0-1.95.88-1.95 1.96 0 3.1.35 4.38.88 5.36.9 1.67 2.54 2.47 5 2.47h13.8c.4 0 .63-.43.41-.76z"/><defs><linearGradient id="sla_paint0_linear" x1="27.92" x2="27.92" y1="10.29" y2="37.39" gradientUnits="userSpaceOnUse"><stop offset=".59" stop-color="#92BCFF"/><stop offset="1" stop-color="#699FFF"/></linearGradient><linearGradient id="sla_paint1_linear" x1="20.38" x2="20.38" y1="27.92" y2="37.71" gradientUnits="userSpaceOnUse"><stop offset=".63" stop-color="#659DFF"/><stop offset="1" stop-color="#4D8DFF"/></linearGradient></defs></svg>