<svg xmlns="http://www.w3.org/2000/svg" fill="none" viewBox="0 0 48 48"><path fill="#92BCFF" d="M25.03.64a2.11 2.11 0 00-2.1-.05C19.67 2.37 9.5 7.6 2 8.49.9 8.6 0 9.5.04 10.61.97 36.05 19.47 45.91 23.3 47.7c.45.2.94.2 1.39 0C28.54 46 47.04 36.4 47.96 10.63 48 9.52 47.1 8.6 46 8.52 37.53 7.74 28.1 2.47 25.03.63z"/><path fill="#3880FF" d="M24 .45c-.49-.02-.98.1-1.42.33C19.08 2.66 9.82 7.35 2.66 8.4 1.2 8.61-.01 9.8.06 11.27c1.2 24.47 18.76 34.29 23.01 36.32.3.14.62.21.93.21V.45z" opacity=".8"/><path stroke="#E9F6FF" stroke-linecap="round" stroke-linejoin="round" stroke-width="3" d="M14.67 23.62l5.4 5.71 13.26-16"/></svg>