<svg xmlns="http://www.w3.org/2000/svg" fill="none" viewBox="0 0 48 48"><rect width="48" height="48" fill="#E7F4FF" rx="24"/><path fill="url(#paint0_linear)" d="M11.28 15.02a1.99 1.99 0 00-1 1.76v18.67a2.06 2.06 0 00.95 1.73 1.92 1.92 0 002.01 0l5.15-3.46a.5.5 0 00.22-.42V10.82a.51.51 0 00-.26-.45.48.48 0 00-.5.03l-6.57 4.62z"/><path fill="#9FC4FF" d="M21.33 10.37a.48.48 0 00-.69.16.51.51 0 00-.07.26v22.5a.51.51 0 00.22.42l5.88 3.92a.48.48 0 00.69-.16.52.52 0 00.07-.26V14.73a.52.52 0 00-.22-.42l-5.88-3.94z"/><path fill="#5090FF" d="M36.77 10.82a1.9 1.9 0 00-2-.01l-5.16 3.46a.5.5 0 00-.22.42v22.49a.51.51 0 00.26.45.48.48 0 00.5-.03l6.56-4.62c.3-.18.56-.43.74-.74.17-.31.26-.67.26-1.03V12.6a2.1 2.1 0 00-.94-1.77z"/><path fill="url(#paint1_linear)" d="M36.77 10.82a1.9 1.9 0 00-2-.01l-5.16 3.46a.5.5 0 00-.22.42v22.49a.51.51 0 00.26.45.48.48 0 00.5-.03l6.56-4.62c.3-.18.56-.43.74-.74.17-.31.26-.67.26-1.03V12.6a2.1 2.1 0 00-.94-1.77z"/><defs><linearGradient id="paint0_linear" x1="18.86" x2="10.29" y1="28.72" y2="28.72" gradientUnits="userSpaceOnUse"><stop stop-color="#7DAFFF"/><stop offset="1" stop-color="#5090FF"/></linearGradient><linearGradient id="paint1_linear" x1="37.96" x2="29.39" y1="28.93" y2="28.93" gradientUnits="userSpaceOnUse"><stop stop-color="#5090FF"/><stop offset="1" stop-color="#7DAFFF"/></linearGradient></defs></svg>