<svg xmlns="http://www.w3.org/2000/svg" fill="none" viewBox="0 0 216 42"><g clip-path="url(#bc_bs_clip0)"><path fill="#2774D2" d="M20.3 32.5998c6.5722 0 11.9-5.3278 11.9-11.9 0-6.5722-5.3278-11.9-11.9-11.9-6.5722 0-11.90001 5.3278-11.90001 11.9 0 6.5722 5.32781 11.9 11.90001 11.9zM63.1 5.49961c-5.1 0-12.9-2.4-12.9-2.4s-1.7 4.4-1.7 10.39999c0 6 5 21.8 15.1 25.8 0 0 14.4-9.1 14.4-25 0-9.49999-1.4-11.19999-1.4-11.19999s-8.4 2.4-13.5 2.4z"/><path fill="#fff" d="M92.8 17.8V.6h6.5c3.1-.2 6.2 1.1 6.2 4.5 0 1.9-1.3 3.2-3 3.8 2.2.5 3.8 2 3.8 4.5 0 3.4-4.3 4.7-6.9 4.5h-6.6v-.1zm6.6-10.3c1.6 0 2.4-.6 2.4-2s-.9-2-2.4-2h-2.9v4.1l2.9-.1c0 .1 0 0 0 0zm0 7.4c1.7 0 2.9-.3 2.9-2.3 0-2-1.2-2.3-2.9-2.3h-2.9v4.6h2.9zM112.2.6v17.2h-3.6V.6h3.6zm10.9 15.7c-.8 1.1-1.9 1.8-3.7 1.8-1.2 0-3.5-.9-3.9-2.6-.2-.7-.2-1.5-.2-1.9V5.8h3.6V13c0 1.3.4 2.8 2.1 2.8 1.1 0 2.1-1 2.1-2.8V5.8h3.6v9.8c0 .7.1 1.4.1 2.1h-3.6l-.1-1.4zm9.9-3.5c0 1.6.2 3 2.1 3 1.2 0 1.9-.5 2.2-1.6h3.2c-.3 3-2.6 3.9-5.4 3.9-4.1 0-5.8-2.3-5.8-6.3 0-3.6 2.1-6.4 5.8-6.4 2.2 0 4.1.8 5.1 2.9.3.7.5 1.4.6 2.1.1.7.1 1.5.1 2.3H133v.1zm4.2-2.4c0-1.3-.4-2.5-2.1-2.5-1.6 0-2 1.2-2.1 2.5h4.2zM153 6.1c0-1.8-1.1-3.3-3.3-3.3-2.6 0-3.3 3.9-3.3 6.3s.7 6.3 3.3 6.3c2.2 0 3.3-1.5 3.3-3.3h3.9c-.2 4.3-3.3 5.9-7.2 5.9-5 0-7.2-3.9-7.2-9 0-5 2.2-9 7.2-9 4 0 7.1 1.6 7.2 5.9H153v.2zm9.1-.3l.1 2.2c.8-1.9 2.3-2.4 4.1-2.3v3.2h-1.6c-.6 0-1.4.4-1.7.9-.4.7-.5 1.3-.5 2.1v5.9h-3.6V8.2c0-.5-.1-1.5-.1-2.4h3.3zm12 12.4c-3.9 0-6.3-2.6-6.3-6.4 0-3.8 2.3-6.4 6.3-6.4 3.9 0 6.3 2.6 6.3 6.4 0 3.8-2.4 6.4-6.3 6.4zm0-2.4c2.2 0 2.6-2.1 2.6-4s-.4-4-2.6-4-2.6 2.1-2.6 4c.1 1.9.4 4 2.6 4zM189 9c0-.8-.8-1.2-1.6-1.2-1 0-1.4.3-1.4 1.1 0 1.9 6.9.8 6.9 5.3 0 2.6-3.2 3.9-5.4 3.9-2.8 0-5.2-1.1-5.3-3.8h3.3c.1.9.9 1.5 2 1.5 1 0 1.7-.4 1.7-1.3 0-1-1.7-1.4-2.4-1.5-2.3-.5-4.4-1.1-4.4-3.8 0-2.5 3-3.6 5.1-3.6 2.5 0 4.7.9 4.8 3.6H189V9zm11.9 0c0-.8-.8-1.2-1.6-1.2-1 0-1.4.3-1.4 1.1 0 1.9 6.9.8 6.9 5.3 0 2.6-3.2 3.9-5.4 3.9-2.8 0-5.2-1.1-5.3-3.8h3.3c.1.9.9 1.5 2 1.5 1 0 1.7-.4 1.7-1.3 0-1-1.7-1.4-2.4-1.5-2.3-.5-4.4-1.1-4.4-3.8 0-2.5 3-3.6 5.1-3.6 2.5 0 4.7.9 4.8 3.6h-3.3V9zM92.8 41.2V24h6.5c3.1-.2 6.2 1.1 6.2 4.5 0 1.9-1.3 3.2-3 3.8 2.2.5 3.8 2 3.8 4.5 0 3.4-4.3 4.7-6.9 4.5h-6.6v-.1zm6.6-10.3c1.6 0 2.4-.6 2.4-2s-.9-2-2.4-2h-2.9V31l2.9-.1zm0 7.4c1.7 0 2.9-.3 2.9-2.3 0-2-1.2-2.3-2.9-2.3h-2.9v4.6h2.9zM112.2 24v17.2h-3.6V24h3.6zm10.9 15.7c-.8 1.1-1.9 1.8-3.7 1.8-1.2 0-3.5-.9-3.9-2.7-.2-.7-.2-1.5-.2-1.9v-7.8h3.6v7.3c0 1.3.4 2.8 2.1 2.8 1.1 0 2.1-1 2.1-2.8v-7.2h3.6V39c0 .7.1 1.4.1 2.1h-3.6l-.1-1.4zm9.9-3.5c0 1.6.2 3 2.1 3 1.2 0 1.9-.5 2.2-1.6h3.2c-.3 3-2.6 3.9-5.4 3.9-4.1 0-5.8-2.3-5.8-6.3 0-3.6 2.1-6.4 5.8-6.4 2.2 0 4.1.8 5.1 2.9.3.7.5 1.4.6 2.1.1.7.1 1.5.1 2.3l-7.9.1zm4.2-2.4c0-1.3-.4-2.5-2.1-2.5-1.6 0-2 1.2-2.1 2.5h4.2zm15.3-4.9c-.1-1.7-1.1-2.6-2.9-2.6-1.4 0-2.7.7-2.7 2.2 0 1.9 1.7 2.1 3.2 2.4 2.6.7 6.5 1.4 6.5 4.9 0 4.3-3.7 5.8-7.4 5.8-3.9 0-6.7-1.5-6.6-5.9h3.8c-.1 1.9 1 3.2 2.9 3.2 1.5 0 3.4-.5 3.4-2.3 0-2-2.5-2.2-3.9-2.6-2.4-.6-5.7-1.7-5.7-4.8 0-3.9 3.6-5.7 7.2-5.7 3.3 0 5.9 1.8 5.9 5.3l-3.7.1zm6.6 12.3V24h3.6v6.7c.7-1.1 1.9-1.8 3.7-1.8 1.2 0 3.5.9 3.9 2.6.2.7.2 1.5.2 1.9v7.8H167V34c0-1.3-.4-2.7-2.1-2.7-1.1 0-2.1 1-2.1 2.7v7.2h-3.7zM177.4 24v3.1h-3.8V24h3.8zm-.2 5.2v12h-3.6v-12h3.6zm6.3 7c0 1.6.2 3 2.1 3 1.2 0 1.9-.5 2.2-1.6h3.2c-.3 3-2.6 3.9-5.4 3.9-4.1 0-5.8-2.3-5.8-6.3 0-3.6 2.1-6.4 5.8-6.4 2.2 0 4.1.8 5.1 2.9.3.7.5 1.4.6 2.1.1.7.1 1.5.1 2.3l-7.9.1zm4.1-2.4c0-1.3-.4-2.5-2.1-2.5-1.6 0-2 1.2-2.1 2.5h4.2zm9.5-9.8v17.2h-3.6V24h3.6zm11.4 0h3.6v14.9c0 .8.1 1.6.1 2.4h-3.6c0-.6-.1-1.1-.1-1.7-.8 1.4-2.1 2.1-3.7 2.1-3.5 0-5.2-3.3-5.2-6.4 0-3.2 1.9-6.4 5.6-6.4 1.2 0 2.5.7 3.2 1.7l.1-6.6zm-2.6 15.2c1.9 0 2.6-2.3 2.6-4 0-1.6-.6-4-2.6-4-2.3 0-2.6 2.1-2.6 4 0 1.8.3 4 2.6 4zm.6-21.4c-.6 0-1.1-.5-1.1-1.1 0-.6.5-1.1 1.1-1.1.6 0 1.1.5 1.1 1.1 0 .6-.4 1.1-1.1 1.1zm0-2.5c-.7 0-1.3.6-1.3 1.3 0 .7.6 1.3 1.3 1.3.7 0 1.3-.6 1.3-1.3 0-.7-.6-1.3-1.3-1.3z"/><path fill="#fff" d="M206.5 16.6004h-.3v-.5h.4c.2 0 .4 0 .4.2 0 .3-.3.3-.5.3zm.7-.3c0-.3-.1-.4-.5-.4h-.7v1.5h.2v-.7h.3l.5.7h.2l-.4-.7c.2 0 .4-.1.4-.4zm7 24.8c-.6 0-1.1-.5-1.1-1.1 0-.6.5-1.1 1.1-1.1.6 0 1.1.5 1.1 1.1 0 .6-.5 1.1-1.1 1.1zm0-2.5c-.7 0-1.3.6-1.3 1.3 0 .7.6 1.3 1.3 1.3.7 0 1.3-.6 1.3-1.3 0-.7-.6-1.3-1.3-1.3z"/><path fill="#fff" d="M214.1 39.9002h-.3v-.5h.4c.2 0 .4 0 .4.2 0 .3-.2.3-.5.3zm.8-.3c0-.3-.1-.4-.5-.4h-.7v1.5h.2v-.7h.3l.4.7h.2l-.4-.7c.3 0 .5-.1.5-.4zM20.4 23.8c-.1 0-.1 0-.2.1l-3.8 5.8c1.2.5 2.5.8 3.9.8s2.7-.3 3.9-.8l-3.8-5.8c.1-.1 0-.1 0-.1zM16.7 19l-5.7-.5c-.2.7-.3 1.5-.3 2.3 0 2.4.9 4.6 2.3 6.3l4-7.6c.2-.2.1-.4-.3-.5z"/><path fill="#fff" d="M29.4 11.7004V.400391H11.3V11.7004H0v18.1h11.3v11.3h18.1v-11.3h11.3v-18.1H29.4zm-9-2.10001c4.5 0 8.4 2.60001 10.1 6.50001h-8c-1.1 0-1.6-.7-1.7-1.2 0-.6.1-.8.6-1.5.6-.8.2-2.2-1.1-2.3-1.3 0-1.7 1.5-1.1 2.3.5.7.6.9.6 1.5 0 .5-.5 1.2-1.7 1.2h-8c1.9-3.8 5.8-6.50001 10.3-6.50001zM9.2 20.8004c0-1.4.3-2.7.7-3.9l7.5.7c1.4.2 1.6 1.6 1.2 2.4l-5.1 9.7c-2.6-2.1-4.3-5.3-4.3-8.9zm17.3 9.4c-1.8 1.2-3.9 1.8-6.2 1.8-2.3 0-4.4-.7-6.2-1.8l5.5-8.1c.4-.6 1-.5 1.4 0l5.5 8.1zm.8-.6l-5.1-9.6c-.4-.8-.2-2.2 1.2-2.4l7.5-.7c.5 1.2.7 2.6.7 3.9 0 3.6-1.7 6.8-4.3 8.8z"/><path fill="#fff" d="M27.7 14.5c-1.2-1.4-2.8-2.5-4.6-3 .6.9.1 2.2-.4 2.8-.1.1 0 .2 0 .2h5zM24.1 19c-.4 0-.4.2-.3.4l4 7.6c1.4-1.7 2.3-3.9 2.3-6.3 0-.8-.1-1.6-.3-2.3l-5.7.6zm-6.4-7.4c-1.8.5-3.4 1.6-4.6 3h5c.1 0 .1-.1 0-.2-.5-.7-1-1.9-.4-2.8zM77.1.400391C72.7 2.60039 68.3 3.80039 63.2 3.80039s-9.5-1.2-13.9-3.399999C46.4 6.10039 46 15.3004 48.5 23.0004c2.4 7.4 7.1 14.2 14.7 18.4 7.7-4.2 12.3-11 14.7-18.4 2.6-7.7 2.1-16.90001-.8-22.600009zm-2 21.700009c-2.2 6.3-5.5 11.9-11.8 15.8-6.3-3.9-9.7-9.5-11.8-15.8-1.9-5.6-2.4-12.20001-.3-17.30001 3.2 1.1 5 1.4 6.7 1.7 1.6.3 3 .4 5.4.4 2.3 0 3.8-.2 5.4-.4 1.7-.3 3.6-.6 6.7-1.7 2 5.1 1.6 11.70001-.3 17.30001z"/><path fill="#fff" d="M68.7 7.9002c-1.8.2-3.7.4-5.5.4-1.8 0-3.6-.2-5.5-.4-1.8-.3-3.6-.7-5.5-1.2-1.3 3.8-1.1 8.6 0 12.8 1.9 8 6.8 14.1 11 16.8 4.3-2.7 9.1-8.8 11-16.8 1-4.3 1.3-9 0-12.8-1.9.5-3.6 1-5.5 1.2zm-6.5 24.7c-.1.4.1.6.1.8-.1.3-.3.2-.4 0-.2-.3-.3-.5-.3-1-.1-.8.3-1.1.5-1.3.2-.2.4-.3.4-.3l.1 1.3c-.2 0-.4.1-.4.5zm1.7 1.3c0 .2-.1.4-.5.4-.3 0-.5-.1-.5-.5-.1-1.6-.1-4.5-.1-4.5s.4.1.7.3c.1 0 .3.2.5.4 0 .1.1.1.1.2-.1 1.1-.2 3.2-.2 3.7zm1.3-3c-.4.3-.8.4-.8.4v-1.2s.1-.1.1-.3c-.1-.2-.9-.8-1.3-1-.5-.2-1.1-.4-1.5-.5-1-.4-1.4-1.3-1-2.3.1-.4.6-.6.8-.7.2-.1.6-.2.6-.2l.1 1.4s-.1 0-.2.2.1.4.2.4c.7.3 1.6.7 2.3 1.1.9.5 1.2.9 1.2 1.6.1.5-.2.9-.5 1.1zm-2.5-6.5c.7.1.9.1 1.5.2l-.1 2.8-.6-.3-.6-.3-.2-2.4zm4 .6c-.1.5-.4.9-.9 1.2-.5.3-1.1.3-1.1.3v-1.7s.1 0 .2-.1.1-.2.1-.3c0-.1-.1-.2-.2-.3-.2-.1-.4-.1-.5-.1l-2.4-.3c-1.4-.2-2.5-1.1-2.4-2.5.1-.9 1-1.2 1.7-1.5l.5 1c.1.4.2.6.2.6s-.3.1-.3.3c0 .2.3.3.4.3 1 .1 2.4.3 3.1.6.5.2.9.4 1.2.8.4.7.5 1.2.4 1.7zm-4.6-6.5s.3 0 1.2.1c.6 0 1.1.2 1.1.2l-.1 3c-.7-.1-1.1-.2-1.7-.3-.2-1.1-.5-1.5-.9-2.3-.1-.2 0-.3 0-.3.1-.1.5-.2.5-.2l-.1-.2zm2.7 3s.1-1.4.1-2.1c.4-.1.5-.5.3-.8-.1-.2-.4-.3-.5-.3-.8-.2-1.5-.2-2.3-.3-.7-.1-1.3-.2-1.9-.3-1.3-.3-2.5-1-3.1-2.2-.7-1.5-.1-3.4 1.4-4.1 1.1-.6 2.3-.5 3.4 0 .4.1.6.5.8.8.1.1.3.2.4.4.1.1-.1.1-.1.1-.2.1-1.1.1-1.3 0h-1.2c.3.2.7.4 1.1.6.2.1.4.1.6.2.1 0 .3.1.3.2s-.2.1-.4.2c-.3.1-.7.1-1.1 0-.6-.1-.9-.5-1.3-.3-.3.2-.3.5-.2.9.1.6.7.8 1.2 1 1.7.6 3.6.2 5.2 1.1.6.3 1.4 1 1.5 1.7.5 2.8-2.9 3.2-2.9 3.2zm3-9.3c-.1.3-.2.3-.4.5-.4.4-1 .8-1.6 1.3-.4.3-.7.5-1 1-.1.1-.2.3-.2.3-1-.2-1.9-.2-2.7-.4v-.8s.9 0 1-.6c0 0 0-.2-.1-.3-.1-.1-.4-.2-.5-.2.7.1 1.4.4 2.1.7 0-.1-.1-.4-.1-.4-.1-.1-.2-.2-.5-.3-.4-.1-1.5-.2-1.5-.2h.9c.2 0 .5-.1.5-.2.1-.1 0-.3-.2-.5l-.3-.3c-.1-.2-.3-.4-.4-.6-.2-.3-1-.6-1-.6s-.1-.5.1-.7c.1-.2.5-.2.6-.1.5.3 1.2.6 1.9.8.2.1.2.1.2.4.1.5-.1 1.2 0 1.5 0 .1.2.1.2.1.7-.4 1.1-1 1.8-1.3.5-.2 1.4.2 1.2.9z"/><path fill="#fff" d="M61.1 11.5008c.2.2.2.4.5.4.2 0 .3-.1.4-.2h.2c-.3-.3-1-.3-1.5-.4.2.2.3.1.4.2z"/></g><defs><clipPath id="bc_bs_clip0"><path fill="#fff" d="M0 0h215.5v41.7H0z"/></clipPath></defs></svg>