<svg xmlns="http://www.w3.org/2000/svg" fill="none" viewBox="0 0 48 48"><path fill="#E9F6FF" d="M3 13h42v32H3z"/><path fill="#92BCFF" d="M28.278 24a2.567 2.567 0 100-5.133 2.567 2.567 0 000 5.133zM36.833 24a2.567 2.567 0 100-5.133 2.567 2.567 0 000 5.133zM28.278 32.555a2.567 2.567 0 100-5.133 2.567 2.567 0 000 5.133zM36.833 32.555a2.567 2.567 0 100-5.133 2.567 2.567 0 000 5.133zM11.167 32.555a2.567 2.567 0 100-5.133 2.567 2.567 0 000 5.133zM19.722 32.555a2.567 2.567 0 100-5.133 2.567 2.567 0 000 5.133zM11.167 41.11a2.567 2.567 0 100-5.132 2.567 2.567 0 000 5.133zM19.722 41.11a2.567 2.567 0 100-5.132 2.567 2.567 0 000 5.133zM28.278 41.11a2.567 2.567 0 100-5.132 2.567 2.567 0 000 5.133z"/><path fill="#4A8CFF" fill-rule="evenodd" d="M6.89 6.934a3.377 3.377 0 00-3.378 3.378V41.11a3.377 3.377 0 003.377 3.377h34.222a3.377 3.377 0 003.377-3.377v-30.8a3.377 3.377 0 00-3.377-3.377H6.889zM0 10.312a6.89 6.89 0 016.89-6.89h34.22a6.89 6.89 0 016.89 6.89V41.11A6.89 6.89 0 0141.11 48H6.89A6.89 6.89 0 010 41.11V10.313z" clip-rule="evenodd"/><path fill="#4A8CFF" d="M39.166 5.178H8.834c-3.903 0-7.078 3.225-7.078 7.187v6.502h1.711c0-1.711 1.711-3.422 3.422-3.422h34.222c1.71 0 3.422 1.71 3.422 3.422h1.71v-6.502c0-3.962-3.174-7.187-7.077-7.187z"/><path fill="#4A8CFF" fill-rule="evenodd" d="M10.311 0c.97 0 1.757.786 1.757 1.756v3.422a1.756 1.756 0 11-3.513 0V1.756C8.555.786 9.342 0 10.311 0zM37.689 0c.97 0 1.756.786 1.756 1.756v3.422a1.756 1.756 0 11-3.513 0V1.756C35.932.786 36.72 0 37.69 0z" clip-rule="evenodd"/></svg>