<svg xmlns="http://www.w3.org/2000/svg" fill="none" viewBox="0 0 54 28"><path fill="#fff" d="M13.77 21.99a8.1 8.1 0 008.08-8.13 8.1 8.1 0 00-8.08-8.12 8.1 8.1 0 00-8.07 8.12A8.1 8.1 0 0013.77 22zM42.81 3.48c-3.46 0-8.75-1.64-8.75-1.64s-1.15 3-1.15 7.1 3.39 14.9 10.24 17.63c0 0 9.77-6.22 9.77-17.08 0-6.49-.95-7.65-.95-7.65s-5.7 1.64-9.16 1.64z"/><path fill="#92A0B3" d="M13.84 15.98c-.07 0-.07 0-.13.07L11.13 20a6.79 6.79 0 005.29 0l-2.58-3.96c.07-.07 0-.07 0-.07zm-2.51-3.28l-3.87-.34a6.8 6.8 0 001.36 5.87l2.71-5.19c.14-.13.07-.27-.2-.34z"/><path fill="#92A0B3" d="M19.95 7.72V0H7.67v7.72H0v12.36h7.67v7.72h12.28v-7.72h7.66V7.72h-7.66zm-6.1-1.44c3.04 0 5.69 1.78 6.84 4.44h-5.42c-.75 0-1.09-.48-1.16-.82 0-.4.07-.54.4-1.02a1 1 0 00-.74-1.57c-.88 0-1.15 1.02-.74 1.57.34.48.4.61.4 1.02 0 .34-.34.82-1.15.82H6.85a7.87 7.87 0 017-4.44zm-7.6 7.65c0-.95.2-1.84.47-2.66l5.09.48c.95.13 1.08 1.09.8 1.64L9.17 20a7.83 7.83 0 01-2.92-6.08zm11.73 6.42a7.42 7.42 0 01-4.2 1.23 8 8 0 01-4.21-1.23l3.73-5.53c.27-.41.68-.34.95 0l3.73 5.53zm.54-.4l-3.46-6.56c-.27-.55-.13-1.5.82-1.64l5.08-.48a7.6 7.6 0 01-2.44 8.67z"/><path fill="#92A0B3" d="M18.8 9.63a6.44 6.44 0 00-3.13-2.05c.41.61.07 1.5-.27 1.91-.07.07 0 .14 0 .14h3.4zm-2.45 3.07c-.27 0-.27.14-.2.28l2.71 5.19a6.8 6.8 0 001.56-4.3c0-.55-.07-1.1-.2-1.58l-3.87.41zm-4.34-5.05A6.44 6.44 0 008.89 9.7h3.39c.07 0 .07-.07 0-.14-.34-.48-.68-1.3-.27-1.91zM52.31 0a20.29 20.29 0 01-18.86 0c-1.97 3.9-2.24 10.18-.54 15.43 1.62 5.06 4.81 9.7 9.97 12.57 5.22-2.87 8.34-7.51 9.97-12.57C54.62 10.18 54.28 3.9 52.31 0zm-1.36 14.82c-1.49 4.3-3.73 8.13-8 10.79-4.28-2.66-6.58-6.49-8-10.79C33.64 11 33.3 6.49 34.73 3c2.17.76 3.39.96 4.54 1.17 1.09.2 2.04.27 3.67.27 1.56 0 2.57-.14 3.66-.27 1.15-.2 2.44-.41 4.55-1.17 1.35 3.49 1.08 8-.2 11.82z"/><path fill="#92A0B3" d="M46.61 5.12c-1.22.14-2.51.28-3.73.28-1.22 0-2.44-.14-3.73-.28-1.22-.2-2.44-.48-3.73-.82-.89 2.6-.75 5.88 0 8.74 1.29 5.47 4.61 9.63 7.46 11.48 2.92-1.85 6.17-6.01 7.46-11.48.68-2.93.88-6.14 0-8.74-1.29.34-2.44.69-3.73.82zM42.21 22c-.08.27.06.41.06.55-.07.2-.2.13-.27 0-.14-.2-.2-.34-.2-.69-.07-.54.2-.75.33-.88.14-.14.27-.2.27-.2l.07.88c-.13 0-.27.07-.27.34zm1.14.89c0 .13-.06.27-.34.27-.2 0-.33-.07-.33-.34-.07-1.1-.07-3.07-.07-3.07s.27.07.47.2c.07 0 .2.14.34.27 0 .07.07.07.07.14-.07.75-.14 2.19-.14 2.53zm.89-2.05c-.28.2-.55.27-.55.27v-.82s.07-.07.07-.2a3.31 3.31 0 00-.88-.68 8.85 8.85 0 00-1.02-.35c-.68-.27-.95-.88-.68-1.57.07-.27.41-.4.55-.47.13-.07.4-.14.4-.14l.07.95s-.07 0-.14.14c-.06.14.07.27.14.27.48.2 1.09.48 1.56.76.61.34.82.61.82 1.09.06.34-.14.61-.34.75zm-1.7-4.44c.47.07.61.07 1.02.14l-.07 1.9-.4-.2-.41-.2-.14-1.64zm2.71.41c-.06.34-.27.61-.6.82-.35.2-.75.2-.75.2v-1.16s.06 0 .13-.06c.07-.07.07-.14.07-.21 0-.07-.07-.14-.14-.2-.13-.07-.27-.07-.33-.07l-1.63-.2c-.95-.14-1.7-.76-1.63-1.71.07-.62.68-.82 1.15-1.03l.34.68c.07.28.14.41.14.41s-.2.07-.2.2c0 .14.2.21.27.21.67.07 1.62.2 2.1.41.34.14.6.28.81.55.27.48.34.82.27 1.16zm-3.12-4.44a8.93 8.93 0 001.56.2l-.06 2.05c-.48-.06-.75-.13-1.16-.2-.13-.75-.34-1.02-.6-1.57-.08-.14 0-.2 0-.2.06-.07.33-.14.33-.14l-.07-.14zm1.83 2.05s.07-.96.07-1.43c.27-.07.34-.35.2-.55-.06-.14-.27-.2-.33-.2-.55-.14-1.02-.14-1.56-.21l-1.3-.2c-.87-.21-1.69-.69-2.1-1.5-.47-1.03-.06-2.33.95-2.8a2.5 2.5 0 012.31 0c.27.06.4.33.54.54.07.07.2.14.27.27.07.07-.06.07-.06.07-.14.07-.75.07-.89 0h-.8c.2.14.47.27.74.41.13.07.27.07.4.14.07 0 .2.06.2.13s-.13.07-.26.14c-.2.07-.48.07-.75 0-.4-.07-.61-.34-.88-.2-.2.13-.2.34-.14.61.07.4.48.55.82.68 1.15.41 2.44.14 3.52.75.41.2.95.69 1.02 1.16.34 1.92-1.97 2.19-1.97 2.19zM46 8.06c-.07.2-.14.2-.27.34-.27.27-.68.55-1.09.89-.27.2-.47.34-.68.68-.06.07-.13.2-.13.2-.68-.13-1.29-.13-1.83-.27v-.54s.6 0 .68-.41c0 0 0-.14-.07-.2a.71.71 0 00-.34-.14c.47.06.95.27 1.42.47 0-.07-.06-.27-.06-.27-.07-.07-.14-.14-.34-.2-.28-.07-1.02-.14-1.02-.14h.6c.14 0 .35-.07.35-.14.07-.07 0-.2-.14-.34l-.2-.2c-.07-.14-.2-.28-.27-.41-.14-.2-.68-.41-.68-.41s-.07-.35.07-.48c.06-.14.34-.14.4-.07.34.2.82.41 1.3.55.13.06.13.06.13.27.07.34-.07.82 0 1.02 0 .07.13.07.13.07.48-.27.75-.68 1.23-.89.34-.13.95.14.81.62z"/><path fill="#92A0B3" d="M41.45 7.58c.14.14.14.27.34.27.14 0 .2-.07.27-.13h.14c-.2-.2-.68-.2-1.02-.28.14.14.2.07.27.14z"/></svg>