<svg xmlns="http://www.w3.org/2000/svg" fill="none" viewBox="0 0 32 32"><path fill="#73849A" d="M24.85 4.5c.07-.18-.08-.36-.08-.36s-1.25-2.01-5.62-2.47c-2.35-.24-5.54.22-7.78 1.38C7.3 5.15 6.7 8.6 6.7 8.6c-.02.09-.05.35.04.46.09.1.22.1.4.05 1.43-.46 5.69-1.82 8.38-2.5 3.83-.98 6.98-1.58 9-1.9.15-.03.28-.08.34-.2z"/><path fill="#73849A" d="M29.22 20.8c-2.3 4.94-6.7 8.38-12.47 8.46-4.2.05-7.9-1.33-10.58-3.74l-1.61.67v-2.41a13.64 13.64 0 01-2.8-8.45C1.76 6.93 8.46.3 17.83.3c1.52 0 2.9.23 3.94.46A16.7 16.7 0 0016.8 0C6.76 0 0 7.81 0 15.87 0 24.65 7.18 32 16.6 32c9 0 13.84-6.09 15.4-9.75l-2.78-1.46z"/><path fill="#73849A" d="M26.9 19.06a4.67 4.67 0 002.73-1.13 2 2 0 00.56-1.46c.02-.65 0-2.7 0-2.7l-3.5.73v.78c.02.52.28.8.85.7.18-.02.45-.1.45-.1v.64c0-.02.05.36-.83.52-1.15.18-1.67-.5-1.68-1.71.02-1.3.78-2.03 1.7-2.24 1.05-.22 1.63.01 1.97.06 1.15.16 1.48-1.5.43-1.89a5.15 5.15 0 00-2.75-.17c-1.28.25-3.8 1.28-3.82 4.63 0 2.67 2.04 3.53 3.88 3.34zM15.53 21.91l1.17-.38c.85-.28 1.17-.78 1.17-1.63l-.01-2.72 2.5 2.76c.4.4.91.43 1.38.3.47-.13.88-.55.89-1.15v-6.84s-.64.13-1.18.27c-.6.16-1.08.54-1.08 1.54v2.37s-1.43-1.7-2.34-2.58c-.49-.46-1.3-.18-1.3-.18l-1.2.34v7.9zM14.77 14.19s-.74.2-1.35.42c-.8.27-1.26.72-1.26 1.87v6.56s.7-.23 1.35-.47c.91-.33 1.26-.79 1.26-1.71v-6.67zM11.06 15.75c-.7-.3-1.28.03-1.53.4l-2.11 3.46v-2.79l-2.51 1-.02 7.87 1.77-.7s.35-.1.55-.42c.2-.3.18-.77.18-.77v-2.5l1.97 2.01c.43.44 1.22.65 1.92.11.63-.49.53-1.32.18-1.7l-1.78-1.73 1.83-2.78c.34-.54.17-1.19-.45-1.46zM10.07 25.01c-.09.21.13.42.13.42.9 1.1 4.94 2.48 9.32 1.46 6.7-1.55 8.1-6.1 8.26-6.74.04-.13.06-.33-.06-.46-.1-.11-.26-.11-.47-.07a128.91 128.91 0 00-16.84 5.16c-.2.07-.27.1-.34.23zM6.1 14.69c0-.44-.36-.68-.96-.38v1.4l.34-.15c.36-.17.64-.45.62-.87zm-.97-1.27l.28-.12c.33-.15.57-.45.57-.81 0-.43-.36-.54-.85-.3v1.23zm2.58 1.06c.02 1.1-.8 1.7-1.89 2.12l-2.2.9v-5.74s1.39-.54 1.84-.7c1.29-.46 2.05.1 2.05.92 0 .55-.25 1.02-.78 1.43.52.08.97.5.98 1.07zM11.9 9.64c0-.48-.36-.6-.78-.5-.34.1-.73.24-.73.24v3.57c0 .36-.06.8-.52.91-.35.09-.52-.14-.52-.5v-2.91c0-.5-.35-.63-.77-.5-.48.15-.75.26-.75.26v3.53c0 1.19.85 1.78 2.14 1.41 1.14-.32 1.91-.94 1.92-2.51v-3zM24.17 11.12c.32-.07.53-.3.53-.68v-.62l-1.79.38V9.19l1.12-.23c.3-.07.46-.23.46-.56V7.8l-1.58.33v-.8l1.27-.26c.35-.06.46-.29.46-.6v-.61c-.79.13-2.3.42-3.23.63l-.01 5.23 2.77-.61zM13.81 10.9s.88-.44.88-1.14c0-.6-.57-.46-.87-.36v1.5zm.01.82v1.4c0 .39-.27.66-.6.79 0 0 0-.01 0 0l-.9.29V8.8s1.26-.41 1.99-.58c1.13-.26 1.94.24 1.93 1.13 0 .85-.5 1.36-.93 1.71l.97.9c.3.28.31.77-.01 1.08-.2.18-.74.37-1.15-.04l-1.3-1.28zM26.5 8s.87-.3.85-.98c0-.57-.58-.47-.87-.4L26.5 8zm-1.47 2.96V5.79s1.57-.27 1.97-.31c1.13-.14 1.9.46 1.87 1.31-.01.75-.5 1.2-.92 1.48l.98 1.05c.27.3.26.8-.15 1.05a.8.8 0 01-1.03-.13L26.5 8.81v1.26c0 .38-.24.66-.65.73l-.82.16z"/><path fill="#73849A" d="M21.05 8.79l-2.23.48v.6c0 .28.2.46.5.4l.33-.06v.6c0 .23-.37.38-.75.37-.54-.02-.84-.42-.85-1.18.01-1 .51-1.58 1.18-1.75.33-.08.63-.04.87 0 .57.08.9-.18.91-.64.01-.48-.44-.79-1.4-.75-2.1.06-3.17 1.51-3.17 3.24 0 1.77 1.2 2.55 2.67 2.3a3.14 3.14 0 001.53-.66c.28-.24.4-.6.4-.91V8.79zM12.26 3C9.8 4.05 8.14 6.53 8.05 7.57c-.04.41.54.48.6.03A8.34 8.34 0 0112.26 3zM20.41 4.78c1.33-.31 2.06-.35 2.07-.93.03-.95-2.8-2.06-5.4-1.85 2.64.17 4.23 1.15 4.23 1.82 0 .43-.39.81-.9.96zM21.23 25.83a9.01 9.01 0 004.96-4.34c.3-.62-.58-.94-.82-.2a9.11 9.11 0 01-4.14 4.54z"/></svg>