<svg xmlns="http://www.w3.org/2000/svg" fill="none" viewBox="0 0 32 34"><path fill="#92A1B3" d="M.12 24.8v5.56c0 3.1 2.07 3.62 3.8 3.62 2.56 0 3.73-1.54 3.73-3.66V24.8h-1.7v5.72c0 .72-.25 2.06-2.06 2.05-1.62-.02-1.93-1.4-1.93-2.3V24.8H.12zM14.74 25.18s-1.08-.5-2.31-.5c-1.53 0-3.47.71-3.47 2.68 0 1.37 1.1 2.01 1.84 2.35.4.18.88.38 1.28.58.2.1 1.01.36 1.01 1.16 0 .86-1.03 1.17-1.48 1.17-1.65 0-2.78-.68-2.78-.68L9 33.68s.67.32 2.7.32c1.92 0 3.31-1.15 3.31-2.7 0-1.21-.9-1.93-1.66-2.27l-1.47-.64c-.53-.24-1.06-.61-1.06-1.22 0-.65.65-1.11 1.6-1.11 1.42 0 1.98.57 2.32.77v-1.65zM26.34 31l1.35-3.5 1.22 3.5h-2.57zm-8.12 0l1.35-3.5 1.2 3.5h-2.55zm10.32-6.2H26.5l.33.75-3.15 7.73-3.25-8.48h-2.05l.33.75-3.37 8.23h1.84l.6-1.56h3.48l.58 1.56h3.47l.58-1.56h3.49l.58 1.56H32l-3.46-8.98zM.02 14.7l.08 2.82s.74-.5 1.58-.5c.84 0 1.8.55 1.8.55l7.54 4.04.64-2.55-8.18-4.4s-.94-.55-1.8-.55c-.82 0-1.66.6-1.66.6z"/><path fill="#92A1B3" d="M.02 11.03l.08 2.81s.74-.5 1.58-.5c.84 0 1.8.56 1.8.56l8.34 4.46.63-2.54-8.97-4.83s-.94-.55-1.8-.55c-.82.01-1.66.59-1.66.59z"/><path fill="#92A1B3" d="M.02 7.35l.08 2.82s.74-.5 1.58-.5c.84 0 1.8.55 1.8.55l9.16 4.91.63-2.54-9.79-5.26s-.94-.55-1.8-.55a3.5 3.5 0 00-1.66.57z"/><path fill="#92A1B3" d="M15.72 2.89l.84 3.31 11.47 6.16s.9.55 1.78.55 1.68-.57 1.68-.57l-.08-2.84s-.72.5-1.6.5c-.88 0-1.78-.55-1.78-.55L19.16 4.7l-.6-2.14c0-.09.07-.12.11-.14l1.5-.43c.2 0 .32.16.32.29l.08.14c.06.02.27-.07.3-.09v-.8c0-.56-.5-1.06-1.14-1.06h-1.5S18 0 17.35 0H14.5c-.74 0-.94.65-.94.65L11.6 8l-8.1-4.34s-.89-.56-1.8-.56C.75 3.1 0 3.68 0 3.68l.08 2.81S.76 6 1.66 6c.92 0 1.8.56 1.8.56l9.97 5.34 2.29-9z"/><path fill="#92A1B3" d="M16.8 7.1l.83 3.34L28.05 16s.94.56 1.78.56c.86 0 1.68-.57 1.68-.57l-.08-2.82s-.66.5-1.58.5c-.94 0-1.78-.55-1.78-.55L16.79 7.1z"/><path fill="#92A1B3" d="M17.85 11.35l.84 3.34 9.34 5s.94.56 1.78.56c.86 0 1.68-.58 1.68-.58l-.08-2.81s-.66.5-1.58.5c-.94 0-1.78-.56-1.78-.56l-10.2-5.45z"/><path fill="#92A1B3" d="M18.93 15.6l.84 3.32 8.28 4.43s.94.55 1.78.55c.86 0 1.68-.57 1.68-.57l-.08-2.81s-.66.5-1.58.5c-.94 0-1.78-.56-1.78-.56l-9.14-4.86z"/></svg>