<svg xmlns="http://www.w3.org/2000/svg" fill="none" viewBox="0 0 64 26"><path fill="#73849A" fill-rule="evenodd" d="M29.31 3.86l-.64-2.49-1.52 2.5h-1.8l-1.52-2.5-.64 2.5h-1.92L22.51 0h2.12l1.64 2.64L27.87 0H30l1.24 3.86h-1.92zM15.32 0l-2.8 3.82h1.88l.44-.66h2.92l.44.66h2.08L17.48 0h-2.16zm0 2.45l1-1.52 1 1.52h-2zM50.93 0l-2.8 3.82H50l.44-.66h2.92l.44.66h2.08L53.09 0h-2.16zm0 2.45l1-1.52 1 1.52h-2zM61.48 3.86L59.2 2.04v1.82h-1.92V0h1.92v1.7L61.48 0h2.32l-2.6 1.86 2.8 2h-2.52zM44.86 3.86h2.2l-1.44-1.48c.8-.19 1.12-.63 1.12-1.12 0-.6-.44-.89-1.08-1.07C44.98.04 44.1 0 43.26 0H40.3v3.82h1.92V2.67h1.64l1 1.2zM42.22.78h1.2c1 0 1.4.19 1.4.56 0 .3-.28.52-.6.55-.24.04-.48.08-.84.08h-1.16V.78zM36.3.9v2.96h-1.96V.9h-2.48l.2-.89h6.76l-.2.9H36.3zM26.6 22c3.97 1.53 8.04 2.97 11.57 4C42.35 17.99 49.97 11.62 64 5.76v-.31c-18 4.73-29.25 8.12-37.4 16.54zM33.97 6.37C30 6.14 9.22 5.55 0 9.88c2.46 1.64 5.14 3.28 8.36 5.15 9.21-4.68 21-6.32 31.93-7.02v-.35c-2.14-.24-4.5-.7-6.32-1.29z" clip-rule="evenodd"/><path fill="#73849A" fill-rule="evenodd" d="M44.07 7.86c-8.25.84-22.72 3.15-30.97 8.18 3 1.46 6.1 2.93 9.32 4.3C31 13.1 42.57 9.84 54.25 7.64v-.31c-2.9.31-7.4.52-10.18.52z" clip-rule="evenodd"/></svg>