<svg xmlns="http://www.w3.org/2000/svg" fill="none" viewBox="0 0 32 44"><path fill="#73849A" d="M24.06 36.18H32V10.02h-7.28v16.3l-2.11-2.05v-13C22.58 3.62 23.49 0 23.49 0c-2.45 0-3.75 2.32-4.02 3-1.4.18-2.53.96-3.29 2.5a8.07 8.07 0 00-.7 2.13c-2.92.68-3.2 5.86-3 6.8l-4.51-4.4H.02v26.15h7.29V20.36s3.53 3.33 3.5 3.33c.32.95.64 1.34.64 1.34l-1.37-1.17c-.25 2.56.46 3.88 1.15 4.86L9.56 27.3a5.94 5.94 0 001.87 4.8L9.2 31.02c-.15 1.52 1.37 3.76 2.28 4.18l-1.87-.27c.42 2.1 1.87 2.86 1.87 2.86s-3.2-.07-4.69-.07c-4.1-.03-6.79.34-6.79.34s1.81 1.78 4.12 1.88l-2.06 1.27c1.5.5 2.92.32 2.92.32l-1.2 1.42s3.75-1.44 5.32-1.32c1.25.1 7.13 2.37 11.08 2.37 2.65 0 4.56-1 6.1-1.83.94-.5 1.75-.9 2.56-1.03 1.42-.22 2.08.3 2.08.3.15-.62.59-2.13-1.74-2.5-.1-.42-.49-.95-1.1-1.05-1.25-.2-6.5-.59-6.65-.61-.44-.03-1.96-.32-.56-2.3.1-.15.8-1.03.8-1.03l2.39 2.23zm-.2 1.95c1.72.13 2.94.25 4.17.4.46.04.64.58.7.85-.58-.15-1.51-.2-1.51-.2l-.05.57s.78-.22 1.67-.25c0 0 1.79 0 1.69 1.2-.5-.34-1.5-.2-1.77-.15-.9.15-1.74.57-2.74 1.08-.91.46-1.9.98-3.02 1.34.5-.49 1.82-1.93 1.82-1.93l-1.75-.6 1.43-1.26-2.21-1.2c.56.08 1.08.13 1.57.15zm-2.55-4.69c-.81.93-1.86 2.27-1.64 3.23.17.8 1.3 1.3 1.3 1.3l2.45 1.31-1.6 1.4 1.92.58S22 43.05 21.8 43.22c-.5.07-1.03.12-1.6.12-4.04 0-9.66-2.37-11.05-2.4-1.67-.02-3.78.96-3.78.96l1.1-1.2s-1.44.3-2.84.17l1.96-1.34a7.79 7.79 0 01-3.95-1.08s3.2-.24 7.5-.2c1.75.03 4.71.2 4.71.2-1.47-.61-2.82-1.44-3.4-2.86l2.8.42c-1.19-.71-2.88-2.52-3.2-3.89l3.12 1.08c-.57-.6-2.48-2.4-2.82-4.48l2.45 1.54c-.64-.66-2.4-4.08-2.1-5.08l2.3 1.54c-1.1-1.35-2.38-4.94-1.52-6.33.7 2.73 2.25 3.71 2.25 3.71-1.03-1.46-3.21-6.7-1.13-9 .57 5.21 2.78 6.97 2.78 6.97-1.84-2.9-3.93-11.88-.03-13.69-.76 5.77 1.08 8.9 1.08 8.9-1.15-5.3-1.1-12.8 2.84-13.52-1.93 5.68-.56 10.03-.56 10.03-.3-13.23 4-13 4-13S22 4.54 22 11.23V30.6c0 1.35-.13 2.16-.7 2.84z"/></svg>