<svg xmlns="http://www.w3.org/2000/svg" fill="none" viewBox="0 0 48 28"><path fill="#92A1B3" d="M22.44 28H5.14A5.24 5.24 0 010 22.67c0-2.95 2.3-5.34 5.14-5.34.8 0 1.52-.1 3.6 1.14L22.44 28zM20.99 26.23l-14.1-9.88a5.37 5.37 0 01-1.37-7.29 4.95 4.95 0 017.03-1.41c.66.46 1.3.79 2.34 2.98l6.1 15.6zM20.69 23.92L14.23 7.47c-1.06-2.7.1-5.82 2.6-6.96 2.5-1.15 5.38.12 6.44 2.82.3.77.65 1.4.38 3.86L20.7 23.92zM25.56 28h17.3A5.24 5.24 0 0048 22.67c0-2.95-2.3-5.34-5.14-5.34-.8 0-1.52-.1-3.6 1.14L25.56 28zM27.01 26.24l14.1-9.89a5.37 5.37 0 001.37-7.29 4.95 4.95 0 00-7.03-1.41c-.66.46-1.3.79-2.34 2.98l-6.1 15.6zM33.77 7.47L27.3 23.92 24.7 9.12c-.23-1.43-.02-1.7.38-2.12.33-.34.8-.69 1.26-.9.1-.05.11-.18.02-.23-.26-.14-.6-.24-.9-.27-.39-.04-.84-.03-1.2 0a4.94 4.94 0 01.48-2.27C25.8.63 28.67-.64 31.17.51c2.5 1.14 3.66 4.26 2.6 6.96z"/></svg>