<svg xmlns="http://www.w3.org/2000/svg" fill="none" viewBox="0 0 56 22"><path fill="#92A1B3" d="M0 0v22h56V0H0zm12.59 19.83L8.76 7.58h-.04L6.18 19.83h-4.6l3.89-17.7h6.09l3.73 12.27h.06l2.57-12.27h4.6l-3.87 17.71h-6.06v-.01zm18.57 0l1.63-7.58h-5.76l-1.61 7.58h-4.88L24.3 2.1h4.9L27.77 8.9h5.78l1.43-6.78h4.9l-3.8 17.72h-4.92zm21.58-13.7a9.35 9.35 0 00-4-.8c-1.94 0-3.51.27-3.51 1.7 0 2.5 7.08 1.56 7.08 6.95 0 4.9-4.68 6.16-8.91 6.16a21.16 21.16 0 01-5.67-.91l1.13-3.61c.97.62 2.9 1.01 4.5 1.01 1.58 0 3.9-.28 3.9-2.11 0-2.85-7.1-1.77-7.1-6.78 0-4.56 4.13-5.94 8.13-5.94 2.27 0 4.37.24 5.6.8l-1.15 3.53z"/></svg>