<svg xmlns="http://www.w3.org/2000/svg" fill="none" viewBox="0 0 28 36"><path fill="#92A1B3" d="M27.32.66c-.45-.44-1-.66-1.63-.66H2.3C1.68 0 1.13.22.68.66.23 1.1 0 1.62 0 2.23V23.5c0 .61.23 1.14.68 1.58.45.43 1 .65 1.63.65H25.7c.63 0 1.18-.22 1.63-.65.45-.44.68-.97.68-1.58V2.23c0-.6-.23-1.13-.68-1.57zm-.07 22.83c0 .41-.16.79-.47 1.07-.3.3-.68.44-1.11.44H2.3c-.45 0-.81-.15-1.1-.44-.33-.3-.46-.66-.46-1.07V2.23A1.51 1.51 0 012.3.72H25.7c.43 0 .81.16 1.1.44.33.3.49.66.49 1.07V23.5h-.03z"/><path fill="#92A1B3" d="M25.69 1.45H2.3a.84.84 0 00-.59.24.78.78 0 00-.25.57V23.5a.84.84 0 00.84.81H25.7c.23 0 .43-.09.59-.24a.78.78 0 00.25-.57V2.26c0-.22-.1-.42-.25-.57a.75.75 0 00-.6-.24zm-4.85 20.83l-6.57-4.58-6.43 4.47 2.47-7.31-6.62-4.52h8.09l2.54-7.32 2.49 7.32h8l-6.4 4.43 2.43 7.51z"/><path fill="#92A1B3" d="M15.7 11.72L14.3 7.6l-1.43 4.12H8.29l3.72 2.54-1.39 4.15 3.65-2.52 3.7 2.58-1.36-4.25 3.6-2.5H15.7zM25.69 26.4H2.3c-.63 0-1.18.22-1.63.66-.45.44-.68.96-.68 1.58v5.13c0 .6.23 1.13.68 1.57.45.44 1 .66 1.63.66H25.7c.63 0 1.18-.22 1.63-.66.45-.44.68-.96.68-1.57v-5.13c0-.62-.23-1.14-.68-1.58-.45-.42-1-.66-1.63-.66zm1.56 7.39c0 .41-.16.76-.47 1.07-.3.3-.68.44-1.11.44H2.3c-.45 0-.81-.15-1.1-.44-.33-.3-.46-.66-.46-1.07v-5.13a1.51 1.51 0 011.56-1.51H25.7c.43 0 .81.15 1.1.44.33.3.49.65.49 1.07v5.13h-.03z"/><path fill="#92A1B3" d="M25.69 27.85H2.3a.84.84 0 00-.59.24.78.78 0 00-.25.57v5.13c0 .22.1.41.25.57.16.17.36.24.6.24h23.37c.23 0 .43-.09.59-.24a.78.78 0 00.25-.57v-5.13a.84.84 0 00-.84-.81zM5.75 32.87l-.68.65H3.9l-.7-.65v-3.8h1.06v3.6h.45v-3.6h1.07v3.8h-.03zm1.43.65H6.12v-.87h1.06v.87zm3-3.02H9.1v-.6h-.43v.9l.77.07.72.64v1.36l-.7.65H8.3l-.68-.65v-.77h1.05v.6h.43v-.93l-.75-.07-.73-.63v-1.34l.68-.63h1.11l.75.63v.77zm1.4 3.02h-1.05v-.87h1.05v.87zm2.28 0l-.09-.83h-.6l-.1.83h-1.02l.64-4.44h1.54l.68 4.44h-1.05zm4-2.65l-.55.44.54.44v1.77h-1.02v-1.77h-.45v1.77h-1.04v-4.44h1.8l.71.63v1.16zm3.8 2.65h-.95V30.7h-.05l-.45 2.82h-.39l-.45-2.82h-.05v2.82h-.95v-4.44h1.23l.38 2.14h.1l.33-2.14h1.25v4.44zm2.4-1.88v1.86h-1.07v-1.86l-.9-2.56h1.04l.38 1.6h.03l.38-1.6h1.04l-.9 2.56z"/><path fill="#92A1B3" d="M13.39 30.02l-.16 1.84h.45l-.2-1.84h-.1zM16.8 29.9h-.44v1.02h.45V29.9z"/></svg>