<svg xmlns="http://www.w3.org/2000/svg" fill="none" viewBox="0 0 32 32"><path fill="#92A1B3" d="M16 32a16 16 0 110-32 16 16 0 010 32zM16 .76a15.24 15.24 0 100 30.48A15.24 15.24 0 0016 .76zm13.56 19.8c-.01.02-.04.03-.08.02-.03-.02-.05-.04-.05-.06 0-.03.53-1.6.53-3.42 0-1.95-.8-3.15-1.81-3.15-.62 0-1.07.45-1.07 1.11 0 1.2 1.46 1.3 1.46 3.9 0 1.07-.22 2.09-.57 3.2-1.65 5.54-6.88 8.11-11.97 8.11-2.35 0-4.02-.48-4.52-.7-.01-.01-.03-.06-.01-.09 0-.03.04-.05.07-.04.2.07 1.63.53 3.4.53 1.95 0 3.1-.8 3.1-1.77a1.1 1.1 0 00-1.1-1.11c-1.2 0-1.3 1.5-3.86 1.5-1.1 0-2.08-.22-3.23-.57-5.5-1.7-8.13-6.88-8.12-12.02 0-2.5.7-4.5.71-4.52.01-.01.05-.02.08-.01.04.01.05.05.04.06-.07.2-.53 1.63-.53 3.4 0 1.96.8 3.1 1.82 3.1.57 0 1.06-.43 1.06-1.06 0-1.2-1.46-1.33-1.46-3.9 0-1.11.22-2.09.58-3.24C5.72 4.34 10.9 1.76 16 1.73c2.37-.02 4.44.69 4.52.76.01 0 .02.04.01.07-.01.05-.04.05-.06.05-.02 0-1.37-.57-3.41-.57-1.91 0-3.1.8-3.1 1.81 0 .58.43 1.06 1.1 1.06 1.2 0 1.28-1.46 3.86-1.46 1.1 0 2.08.22 3.23.58 5.54 1.68 8.06 6.91 8.11 11.96.04 2.6-.7 4.56-.7 4.57zm-7.62-3.8c-1.51 0-2.66 1.1-2.66 2.43 0 1.11.66 2 1.55 2 .3 0 .62-.18.62-.58 0-.58-.77-.71-.71-1.58.03-.57.58-.95 1.1-.95 1.07 0 1.56 1.03 1.56 2.1-.05 1.64-1.25 2.77-2.67 2.77-1.86 0-3.06-1.77-3.06-3.68 0-2.84 1.86-3.95 2.84-4.22 0 0 2.54.46 2.47-.67-.04-.49-.77-.68-1.3-.7-.6-.03-1.18.19-1.18.19a1.43 1.43 0 01-.65-.82c1.81-1.38 3.1-2.7 3.1-4.2 0-.8-.53-1.51-1.55-1.51-1.81 0-3.19 2.3-3.19 4.38 0 .36 0 .71.09 1.03a41.96 41.96 0 01-3.56 2.3c0-.2.04-.7.17-1.35.53-.57 1.26-1.44 1.26-2.1 0-.31-.18-.58-.53-.58-.89 0-1.55 1.33-1.73 2.26-.4.5-1.2 1.11-1.86 1.11-.53 0-.7-.49-.76-.66 1.7-.58 3.77-2.88 3.77-4.96 0-.44-.18-1.42-1.5-1.42-2 0-3.68 2.96-3.68 5.27-.72 0-.98-.76-.98-1.33 0-.57.23-1.15.23-1.33 0-.18-.09-.4-.36-.4-.66 0-1.06.9-1.06 1.9.04 1.43.97 2.31 2.22 2.4.18.84.93 1.64 1.85 1.64.58 0 1.29-.18 1.78-.62l-.14.84c-1.94 1.04-3.36 1.74-4.65 2.9a4.6 4.6 0 00-1.59 3.14c0 1.34.85 2.58 2.57 2.58 2.04 0 3.6-1.65 4.35-3.9.35-1.07.5-2.62.58-4.04a42.4 42.4 0 004.07-2.57c.13.23.27.4.45.54a5.53 5.53 0 00-3.15 5.1c0 2.3 1.55 4.87 4.61 4.87a4.22 4.22 0 004.26-4.07c0-1.83-1.03-3.51-2.98-3.51zm-12.19 6.2c-.66.03-1.1-.4-1.1-1.1 0-1.91 2.64-3.73 4.63-4.7-.35 2.66-1.25 5.7-3.53 5.8zm1.47-10.46c0-1.46 1.44-4.24 2.32-3.95 1.04.34-.86 3.15-2.32 3.95zm8.37-.66c0-1.82 1.23-3.6 1.9-3.26.76.38-.57 2.1-1.9 3.26z"/></svg>