<svg xmlns="http://www.w3.org/2000/svg" fill="none" viewBox="0 0 80 26"><path fill="#92A1B3" d="M22 21h3.04c1.2 0 1.98.33 1.98 1.28 0 .63-.32.86-.6 1.04.36.15.78.56.78 1.23 0 .94-.76 1.45-2 1.45H22v-5zm3.12 1.96c.65 0 .93-.15.93-.58 0-.44-.28-.59-.93-.59h-2.13v1.15h2.13v.02zm.03 2.2c.62 0 1.09-.13 1.09-.72 0-.5-.44-.68-1.1-.68H23v1.4h2.16zM29.88 21h3.04c1.2 0 2.05.28 2.05 1.48a1.4 1.4 0 01-1.4 1.45l1.56 2.02H33.9l-1.46-1.97h-1.56v1.97h-.99L29.88 21zm2.88 2.22c.8 0 1.22-.13 1.22-.71 0-.6-.41-.7-1.22-.7h-1.9v1.4h1.9zM37.73 21h4.54v.84h-3.56V23h3.07v.84h-3.07v1.3h3.64v.84h-4.62V21zM46.77 21h1.12l2.47 4.97h-1.04l-.52-1.14h-2.91l-.55 1.14H44.3L46.77 21zm1.61 2.98l-1.06-2.21-1.07 2.21h2.13zM52.67 21h2.44c1.62 0 2.89.66 2.89 2.45 0 1.68-1.17 2.5-2.83 2.5H52.7V21h-.03zm2 4.13c1.7 0 2.34-.5 2.34-1.66 0-1.22-.67-1.63-2.34-1.63h-1.01v3.3h1.01zM75.97 8.68c-2.33.13-4.33 1.45-5.88 3.04a13.1 13.1 0 00-2.1 2.67c-.25.39-.89 1.68.07 1.58.62-.05 1.2-.36 1.74-.7a32.6 32.6 0 001.57-1.04c1.02-.7 2.03-1.45 2.89-2.36.4-.44.75-.9 1.07-1.4.21-.36.45-.7.72-.99.26-.28.61-.62 1.04-.64.21 0 .4.1.59.18.24.1.45.2.66.36 1 .73.56 2.2.4 3.22-.1.65-.13 1.3-.05 1.94.05.5.16 1.45.78 2.05.16.16.32.26.48.39.21.18-.27.31-.38.34-1.1.18-1.63-.08-2.03-.37-1.2-.88-1.52-2.36-2.16-3.55a39 39 0 01-3.23 2.2c-.56.34-1.15.68-1.74.97-.53.25-1.07.51-1.65.67-1.02.26-2.11.03-2.7-.86-.56-.85-.32-2.02-.08-2.93.24-.9.56-1.79 1.1-2.56a9.02 9.02 0 012.37-2.31 8.56 8.56 0 015.24-1.56c.48.03 1.09.08 1.46.39.51.31.14.9-.18 1.27zM66.8 6.35c.46.1.97.46 1.05.96.05.38-.16.7-.59.67-.4-.03-.77-.23-1.17-.29-.51-.1-1.05.16-1.47.37a7.28 7.28 0 00-2.46 2.1 5.55 5.55 0 00-1.15 2.93c-.08.67-.13 1.32-.3 2-.15.72-.31 1.47-.71 2.12-.38.6-1 .91-1.71.68a1.88 1.88 0 01-1.31-1.66c-.1-.86.1-1.74.32-2.54.24-.8.53-1.61.77-2.42.32-1.09.49-2.28.57-3.42.02-.34.02-.67.02-1.01 0-.2-.05-.44.03-.65.05-.2.27-.1.4-.03.37.26.67.68.93 1.07.22.33.51.75.54 1.16 1.6-1.5 4.03-2.51 6.25-2.04zM38.66 8.52c-.21.08-1.17.78-1.47 1.12-.53.65-1.15 1.2-1.57 1.94-.38.65-.73 1.43-1.05 2.1-.37.8-.66 2.03-1.14 2.78-.43.7-1.13.9-1.95.75-.48-.1-.67-.44-.83-.88a4.5 4.5 0 01-.16-1.79c.13-1.24.64-2.38 1.1-3.55.23-.65.45-1.3.53-1.97.05-.42.05-.75-.32-1.01-.27-.21-.56-.34-.86-.5-.26-.15-.67-.3-.83-.57-.13-.2.3-.33.43-.36.35-.03.72.05 1.07.13.7.18 1.42.47 2.03.83.37.2.72.52.9.93.2.4.22.83.27 1.27.03.31-.1.94 0 1.22C36 9.17 37.9 7.33 40.13 7.02c.56-.08 1.15.03 1.36.57.24.55.16 1.17 0 1.79-.16.65-.43 1.6-.56 2.13-.56 2.4-.3 3.89.3 5 .1.24.29.68.13.94-.1.18-.38.07-.51.02-.56-.2-2.48-.78-3-2.72-.52-2.08.89-5.6 1.05-6 .13-.28-.03-.3-.24-.23zM25.33 7.62c.27.83-.5 1.16-1.17 1.42a13.35 13.35 0 00-2.96 1.69c-1.02.73-2.14 1.43-2.97 2.36-.43.47-.8.96-1.15 1.45-.3.44-.61.88-.72 1.4.99.1 1.92-.28 2.75-.78.94-.54 1.8-1.24 2.62-1.97l1.17-1c.32-.3.73-.53 1-.86.26-.34.4-.73.58-1.12a2 2 0 01.96-.96c.9-.41 1.95.08 2.38.9.24.48.21.94.1 1.46-.13.57-.34 1.14-.42 1.74-.08.5-.08 1.06.08 1.53.13.34.32.62.48.93.16.29.88 1.48.32 1.69-1.04.15-2.16-.68-2.89-1.32-.72-.65-1.68-1.72-1.54-2.78-1.05.8-2.11 1.58-3.24 2.26-.56.33-1.14.65-1.76.9-.56.24-1.15.47-1.73.55-.86.1-1.74-.16-2.22-.88a3.08 3.08 0 01-.32-2.52c.27-1.06.85-2.1 1.55-2.95.7-.91 1.55-1.72 2.53-2.34a12.67 12.67 0 014.54-1.56c.65-.05 1.77-.07 2.03.76zM19.83 3.18a2 2 0 00-.93-1.27C15.7.23 8.35-.35 4.1.2c-.88.1-1.79.23-2.64.52C.5 1.02-.12 1.73.02 2.43a3.2 3.2 0 002.03 2.33c.45.19.9.26 1.3 0 .43-.28.83-.6 1.34-.77a7.48 7.48 0 011.98-.42c.1.05-.4 2.5-.51 3.09l-.37 2c-.27 1.24-.64 6.22-.11 7.26a3.5 3.5 0 002.03 1.89c.48.18 1.01.23 1.55.16.43-.06.9-.19 1.17-.55.48-.62.22-1.56 0-2.23-.13-.39-.3-.78-.42-1.14-.2-.47-.32-.93-.46-1.4-.19-.68-.35-1.38-.43-2.08-.02-.15-.02-.15.11-.2l.21-.08c.17-.05.3-.1.43-.16 2.91-.93 5.93-2.3 7.56-3.4 2.35-1.58 2.54-3 2.4-3.55zm-3.68 2.6c-1.15.98-3.8 2.59-7.16 3.6a42.72 42.72 0 01-.45-3.66c-.06-.52-.11-1.03-.14-1.55-.02-.18-.05-.8.14-.83 3.1-.47 7.98-.6 8.86.26.32.3-.37 1.42-1.25 2.18zM55.8 11.84c-.34 0-.69.16-1.01.26-1.17.44-2.3.94-3.44 1.35-1.1.42-2.36.83-3.56.75a1.75 1.75 0 01-1.17-.46c-.35-.4-.43-.88-.43-1.38 2.16.1 4.3-.1 6.33-.85.8-.31 1.55-.65 2.11-1.33.32-.36.56-.8.59-1.27.02-.51-.22-.98-.56-1.34-.75-.91-2.11-.86-3.18-.68-1.28.2-2.51.7-3.63 1.32-1 .55-1.87 1.25-2.65 2.05a7.02 7.02 0 00-1.81 2.88c-.24.86-.22 1.8.18 2.6a3.1 3.1 0 002.17 1.6 7.42 7.42 0 003.68-.41c.96-.34 1.9-.75 2.78-1.22.77-.39 1.52-.83 2.22-1.32.64-.44 1.33-1.02 1.6-1.77.08-.26.19-.78-.22-.78zm-8.22-1.73a7.82 7.82 0 011.9-1.01c.9-.34 2-.4 2.93-.21.24.05 1.47.39.96.83-1.3 1.14-4.86 1.94-6.7 1.55-.19-.44.62-.96.91-1.16z"/></svg>