<svg xmlns="http://www.w3.org/2000/svg" fill="none" viewBox="0 0 56 22"><path fill="#73849A" d="M56 1.57h-9.32l.6-1.57H56v1.57zM31.14 0h8.66l.54 1.57h-9.2V0zM24.27 0c1.43.12 2.68.64 3.7 1.57H12.25V0h12.02zM10.88 0H0v1.57h10.88V0zM56 4.47H45.6l.54-1.57h9.8v1.57H56zM41.48 4.47H31.14V2.96h9.74l.6 1.51zM29.23 2.96c.17.52.47.93.47 1.57H12.31V2.96h16.92zM10.88 2.96H0v1.57h10.88V2.96zM44.59 7.43l.53-1.57h7.83v1.57H44.6zM41.96 5.86l.6 1.57h-8.31V5.86h7.7zM29.82 5.86c0 .53-.06 1.1-.24 1.57H24.8V5.86h5.02zM7.71 5.86H3.05v1.57H7.7V5.86zM20.14 5.86h-4.66v1.57h4.66V5.86zM38.85 9.11v1.16h-4.6V8.71h8.78l.54 1.45.54-1.45h8.84v1.56h-4.6V9.11l-.42 1.16h-8.66l-.42-1.16zM15.48 8.77h13.45c-.3.52-.84 1.16-1.32 1.56H15.54c-.06-.06-.06-1.56-.06-1.56zM7.71 8.77H3.05v1.56H7.7V8.77zM52.95 11.67h-4.6v1.56h4.6v-1.56zM38.85 11.67h-4.6v1.56h4.6v-1.56zM47.45 11.67l-.53 1.56H40.4l-.6-1.56h7.65zM15.48 11.67h12.07c.54.46 1.08.98 1.44 1.56H15.48v-1.56zM7.71 13.23v-1.56H3.05v1.56H7.7zM52.95 14.63h-4.6v1.57h4.6v-1.57zM38.85 14.63h-4.6v1.57h4.6v-1.57zM45.78 16.2s.54-1.57.6-1.57h-5.56l.6 1.57h4.36zM15.48 16.14v-1.57h4.72v1.57h-4.72zM29.64 14.63c.24.46.24 1.04.3 1.57h-5.02v-1.57h4.72zM7.71 14.63H3.05v1.57H7.7v-1.57zM56 17.47h-7.65v1.57H56v-1.57zM38.79 17.47h-7.65v1.57h7.65v-1.57zM44.76 19.04h-2.33l-.6-1.57h3.47l-.54 1.57zM0 17.47v1.57h10.88v-1.57H0zM29.76 17.47c-.12.52-.24 1.16-.6 1.57H12.32v-1.57h17.45zM43.69 21.94h-.18l-.6-1.5h1.38l-.6 1.5zM56 20.43h-7.65V22H56v-1.57zM12.31 21.94v-1.57H28.1a6.28 6.28 0 01-4.06 1.57H12.3zM38.79 20.43h-7.65V22h7.65v-1.57zM10.88 20.43V22H0v-1.57h10.88z"/></svg>