<svg xmlns="http://www.w3.org/2000/svg" fill="none" viewBox="0 0 96 21"><path fill="#73849A" d="M93.8.04C94.52 0 95.26 0 96 0c-2.2 4.55-4.33 9.13-6.5 13.71h-1.78c-1-2.29-2.13-4.54-3.17-6.83.73 0 1.43-.04 2.16 0 .62 1.4 1.36 2.75 1.94 4.2 1.7-3.67 3.48-7.34 5.14-11.04zM38.3 1.99h4.26c-.03 1.26 0 2.52 0 3.74-1.43-.04-2.86 0-4.3 0 .05-1.26 0-2.48.05-3.74zM16.83 7.37c2.9-1.64 7.12-1.07 9.1 1.72 1.2 1.64 1.54 3.78 1.54 5.77-3.32.04-6.65 0-10.02 0 .16 1.03.58 2.1 1.55 2.63 1.35.77 3.48.58 4.18-.99 1.35-.04 2.75-.04 4.1 0a5.84 5.84 0 01-3.02 3.6c-1.55.83-3.4.98-5.14.72a6.92 6.92 0 01-4.57-2.83 7.85 7.85 0 01-1.16-5.58 6.75 6.75 0 013.44-5.04zm2.25 2.37c-.97.46-1.44 1.45-1.63 2.44h5.69a3.44 3.44 0 00-.97-2.06c-.81-.8-2.09-.8-3.1-.38zM61.52 6.65a7.83 7.83 0 016.58 1.64c3.02 2.63 3.14 7.75.35 10.58-2.2 2.25-5.92 2.71-8.74 1.41a6.94 6.94 0 01-3.95-5.54 7.93 7.93 0 01.54-4 6.88 6.88 0 015.22-4.1zm.5 3.09c-1.2.42-1.73 1.72-1.93 2.86-.15 1.46-.11 3.1.85 4.32 1.05 1.34 3.3 1.3 4.34 0 .85-1.07.96-2.48.89-3.78-.08-1.15-.47-2.37-1.43-3.06a3 3 0 00-2.71-.34zM76.77 7.41a5.23 5.23 0 015.07-.57 4.41 4.41 0 012.44 2.67c.46 1.22.3 2.52.34 3.78v7.22c-1.43.04-2.82 0-4.25 0v-8.29c0-.72-.27-1.49-.9-1.9a2.48 2.48 0 00-3.01.26 3.26 3.26 0 00-.89 2.33v7.56c-1.4-.04-2.82 0-4.22 0V6.8h4.1l-.03 1.87c.46-.34.85-.88 1.35-1.26zM0 6.88h4.41c.9 2.94 1.86 5.84 2.67 8.82 1-2.9 1.82-5.88 2.75-8.79 1.43-.03 2.86 0 4.25 0-1.62 4.55-3.2 9.1-4.83 13.68-1.47 0-2.94-.04-4.41 0C3.2 16 1.7 11.42 0 6.88zM28.4 6.88h4.06c0 .76 0 1.52-.03 2.29.34-.38.62-.84.96-1.23.93-.99 2.4-1.4 3.72-1.06v3.59c-1.05-.12-2.2-.08-3.1.53-.96.65-1.4 1.83-1.35 2.98v6.53H28.4c.04-4.5.04-9.09 0-13.63zM38.27 6.88c1.43-.04 2.86 0 4.3 0-.04 4.54 0 9.12 0 13.67h-4.3c.04-4.55.04-9.1 0-13.67zM43.72 6.88H55.3c-.03 1.03 0 2.1 0 3.13-.11.26-.34.46-.54.68-1.97 2.18-3.9 4.4-5.92 6.54 2.29.03 4.53 0 6.81.03v3.29H43.76v-3.17c2.05-2.3 4.14-4.58 6.23-6.84.08-.11.31-.23.2-.38-2.13.08-4.26 0-6.39.04-.08-1.1-.08-2.22-.08-3.32z"/></svg>