<svg width="56" height="52" viewBox="0 0 56 52" fill="none" xmlns="http://www.w3.org/2000/svg">
<rect x="1" y="1" width="54" height="50" rx="5" fill="white" stroke="#61DAFB" stroke-width="2"/>
<path d="M0 9C0 4.02944 4.02944 0 9 0H47C51.9706 0 56 4.02944 56 9H0Z" fill="#61DAFB"/>
<rect x="17" y="6" width="3" height="3" rx="1.5" transform="rotate(-180 17 6)" fill="white"/>
<rect x="12" y="6" width="3" height="3" rx="1.5" transform="rotate(-180 12 6)" fill="white"/>
<rect x="7" y="6" width="3" height="3" rx="1.5" transform="rotate(-180 7 6)" fill="white"/>
<rect x="13" y="15" width="30" height="36" rx="4" fill="white" stroke="#49B9FF" stroke-width="2"/>
<rect x="21" y="25" width="14" height="26" rx="3" fill="white" stroke="#4991FF" stroke-width="2"/>
<path d="M29.5 27C30.0523 27 30.5 26.5523 30.5 26C30.5 25.4477 30.0523 25 29.5 25V27ZM26 25C25.4477 25 25 25.4477 25 26C25 26.5523 25.4477 27 26 27V25ZM29.5 25H26V27H29.5V25Z" fill="#4991FF"/>
</svg>
