<svg width="30" height="26" viewBox="0 0 30 26" fill="none" xmlns="http://www.w3.org/2000/svg">
<path d="M21.3633 4.951L19.5715 1.7965C19.1939 1.306 18.6763 1 18.0962 1H11.9038C11.3237 1 10.8061 1.306 10.4285 1.7965L8.63673 4.951C8.25913 5.44225 7.7725 5.8 7.19231 5.8H3.15385C2.58261 5.8 2.03477 6.05286 1.63085 6.50294C1.22692 6.95303 1 7.56348 1 8.2V22.6C1 23.2365 1.22692 23.847 1.63085 24.2971C2.03477 24.7471 2.58261 25 3.15385 25H26.8462C27.4174 25 27.9652 24.7471 28.3692 24.2971C28.7731 23.847 29 23.2365 29 22.6V8.2C29 7.56348 28.7731 6.95303 28.3692 6.50294C27.9652 6.05286 27.4174 5.8 26.8462 5.8H22.875C22.2928 5.8 21.7409 5.44225 21.3633 4.951Z" stroke="black" stroke-width="2" stroke-linecap="round" stroke-linejoin="round"/>
<path d="M15 20C17.7614 20 20 17.7614 20 15C20 12.2386 17.7614 10 15 10C12.2386 10 10 12.2386 10 15C10 17.7614 12.2386 20 15 20Z" stroke="black" stroke-width="2" stroke-miterlimit="10"/>
<path d="M6.11467 5.2625V3.75H4.49928V5.2625" stroke="black" stroke-width="2" stroke-linecap="round" stroke-linejoin="round"/>
</svg>
