<svg width="53" height="56" viewBox="0 0 53 56" fill="none" xmlns="http://www.w3.org/2000/svg">
<path d="M31.7857 20.2856H47.2857C48.3087 20.2856 49.2898 20.692 50.0131 21.4154C50.7365 22.1387 51.1429 23.1198 51.1429 24.1428V54.9999H31.7857" stroke="#49B9FF" stroke-width="2" stroke-linecap="round" stroke-linejoin="round"/>
<path d="M44.4286 45.3571C44.0472 45.3571 43.6743 45.4702 43.3571 45.6821C43.04 45.894 42.7928 46.1952 42.6468 46.5476C42.5009 46.9 42.4627 47.2878 42.5371 47.6619C42.6115 48.036 42.7952 48.3796 43.0649 48.6493C43.3346 48.919 43.6782 49.1027 44.0524 49.1771C44.4265 49.2516 44.8142 49.2134 45.1666 49.0674C45.519 48.9214 45.8202 48.6742 46.0322 48.3571C46.2441 48.0399 46.3572 47.6671 46.3572 47.2856C46.3572 46.7741 46.154 46.2836 45.7923 45.9219C45.4306 45.5602 44.9401 45.3571 44.4286 45.3571Z" fill="#49B9FF"/>
<path d="M44.4286 35.7144C44.0472 35.7144 43.6743 35.8275 43.3571 36.0394C43.04 36.2513 42.7928 36.5525 42.6468 36.9049C42.5009 37.2573 42.4627 37.6451 42.5371 38.0192C42.6115 38.3933 42.7952 38.7369 43.0649 39.0066C43.3346 39.2763 43.6782 39.46 44.0524 39.5344C44.4265 39.6089 44.8142 39.5707 45.1666 39.4247C45.519 39.2787 45.8202 39.0315 46.0322 38.7144C46.2441 38.3972 46.3572 38.0244 46.3572 37.6429C46.3572 37.1314 46.154 36.6409 45.7923 36.2792C45.4306 35.9175 44.9401 35.7144 44.4286 35.7144Z" fill="#49B9FF"/>
<path d="M44.4286 26.0714C44.0472 26.0714 43.6743 26.1845 43.3571 26.3964C43.04 26.6083 42.7928 26.9095 42.6468 27.2619C42.5009 27.6143 42.4627 28.0021 42.5371 28.3762C42.6115 28.7503 42.7952 29.094 43.0649 29.3637C43.3346 29.6334 43.6782 29.8171 44.0524 29.8915C44.4265 29.9659 44.8142 29.9277 45.1666 29.7818C45.519 29.6358 45.8202 29.3886 46.0322 29.0714C46.2441 28.7543 46.3572 28.3814 46.3572 28C46.3572 27.4885 46.154 26.998 45.7923 26.6363C45.4306 26.2746 44.9401 26.0714 44.4286 26.0714Z" fill="#49B9FF"/>
<path d="M36.7143 45.3571C36.3329 45.3571 35.96 45.4702 35.6429 45.6821C35.3257 45.894 35.0785 46.1952 34.9325 46.5476C34.7866 46.9 34.7484 47.2878 34.8228 47.6619C34.8972 48.036 35.0809 48.3796 35.3506 48.6493C35.6203 48.919 35.964 49.1027 36.3381 49.1771C36.7122 49.2516 37.0999 49.2134 37.4523 49.0674C37.8047 48.9214 38.1059 48.6742 38.3179 48.3571C38.5298 48.0399 38.6429 47.6671 38.6429 47.2856C38.6429 46.7741 38.4397 46.2836 38.078 45.9219C37.7163 45.5602 37.2258 45.3571 36.7143 45.3571Z" fill="#49B9FF"/>
<path d="M36.7143 35.7144C36.3329 35.7144 35.96 35.8275 35.6429 36.0394C35.3257 36.2513 35.0785 36.5525 34.9325 36.9049C34.7866 37.2573 34.7484 37.6451 34.8228 38.0192C34.8972 38.3933 35.0809 38.7369 35.3506 39.0066C35.6203 39.2763 35.964 39.46 36.3381 39.5344C36.7122 39.6089 37.0999 39.5707 37.4523 39.4247C37.8047 39.2787 38.1059 39.0315 38.3179 38.7144C38.5298 38.3972 38.6429 38.0244 38.6429 37.6429C38.6429 37.1314 38.4397 36.6409 38.078 36.2792C37.7163 35.9175 37.2258 35.7144 36.7143 35.7144Z" fill="#49B9FF"/>
<path d="M36.7143 26.0714C36.3329 26.0714 35.96 26.1845 35.6429 26.3964C35.3257 26.6083 35.0785 26.9095 34.9325 27.2619C34.7866 27.6143 34.7484 28.0021 34.8228 28.3762C34.8972 28.7503 35.0809 29.094 35.3506 29.3637C35.6203 29.6334 35.964 29.8171 36.3381 29.8915C36.7122 29.9659 37.0999 29.9277 37.4523 29.7818C37.8047 29.6358 38.1059 29.3886 38.3179 29.0714C38.5298 28.7543 38.6429 28.3814 38.6429 28C38.6429 27.4885 38.4397 26.998 38.078 26.6363C37.7163 26.2746 37.2258 26.0714 36.7143 26.0714Z" fill="#49B9FF"/>
<path d="M13.5 55V46H19.5V55" stroke="#4991FF" stroke-width="2" stroke-linecap="round" stroke-linejoin="round"/>
<path d="M19.5 55H31.375C31.5029 55 31.6255 54.9492 31.7159 54.8588C31.8063 54.7684 31.8571 54.6457 31.8571 54.5179V4.85714C31.8571 3.83416 31.4508 2.85309 30.7274 2.12973C30.0041 1.40638 29.023 1 28 1H4.85714C3.83416 1 2.85309 1.40638 2.12973 2.12973C1.40638 2.85309 1 3.83416 1 4.85714V55H13.5" stroke="#4991FF" stroke-width="2" stroke-linecap="round" stroke-linejoin="round"/>
<path d="M7.03643 49.1986C6.63701 49.2509 6.23126 49.1767 5.87612 48.9866C5.52099 48.7965 5.23429 48.5 5.05628 48.1386C4.87828 47.7773 4.81788 47.3692 4.88359 46.9718C4.94929 46.5744 5.13779 46.2075 5.42263 45.9227C5.70746 45.6378 6.07434 45.4493 6.47177 45.3836C6.8692 45.3179 7.27722 45.3783 7.63858 45.5563C7.99993 45.7343 8.29648 46.021 8.4866 46.3762C8.67671 46.7313 8.75086 47.137 8.69862 47.5365C8.64349 47.958 8.45063 48.3495 8.15004 48.6501C7.84944 48.9507 7.45795 49.1435 7.03643 49.1986Z" fill="#4991FF"/>
<path d="M7.03643 39.5557C6.63701 39.6079 6.23126 39.5338 5.87612 39.3437C5.52099 39.1536 5.23429 38.857 5.05628 38.4957C4.87828 38.1343 4.81788 37.7263 4.88359 37.3289C4.94929 36.9314 5.13779 36.5646 5.42263 36.2797C5.70746 35.9949 6.07434 35.8064 6.47177 35.7407C6.8692 35.675 7.27722 35.7354 7.63858 35.9134C7.99993 36.0914 8.29648 36.3781 8.4866 36.7332C8.67671 37.0883 8.75086 37.4941 8.69862 37.8935C8.64349 38.315 8.45063 38.7065 8.15004 39.0071C7.84944 39.3077 7.45795 39.5006 7.03643 39.5557Z" fill="#4991FF"/>
<path d="M7.03643 29.9129C6.63701 29.9651 6.23126 29.891 5.87612 29.7009C5.52099 29.5107 5.23429 29.2142 5.05628 28.8528C4.87828 28.4915 4.81788 28.0835 4.88359 27.686C4.94929 27.2886 5.13779 26.9217 5.42263 26.6369C5.70746 26.3521 6.07434 26.1636 6.47177 26.0978C6.8692 26.0321 7.27722 26.0925 7.63858 26.2705C7.99993 26.4486 8.29648 26.7352 8.4866 27.0904C8.67671 27.4455 8.75086 27.8513 8.69862 28.2507C8.64349 28.6722 8.45063 29.0637 8.15004 29.3643C7.84944 29.6649 7.45795 29.8578 7.03643 29.9129Z" fill="#4991FF"/>
<path d="M7.03643 20.2701C6.63701 20.3223 6.23126 20.2482 5.87612 20.058C5.52099 19.8679 5.23429 19.5714 5.05628 19.21C4.87828 18.8487 4.81788 18.4406 4.88359 18.0432C4.94929 17.6458 5.13779 17.2789 5.42263 16.9941C5.70746 16.7092 6.07434 16.5207 6.47177 16.455C6.8692 16.3893 7.27722 16.4497 7.63858 16.6277C7.99993 16.8057 8.29648 17.0924 8.4866 17.4476C8.67671 17.8027 8.75086 18.2085 8.69862 18.6079C8.64349 19.0294 8.45063 19.4209 8.15004 19.7215C7.84944 20.0221 7.45795 20.2149 7.03643 20.2701Z" fill="#4991FF"/>
<path d="M7.03643 10.6271C6.63701 10.6794 6.23126 10.6052 5.87612 10.4151C5.52099 10.225 5.23429 9.92843 5.05628 9.56708C4.87828 9.20572 4.81788 8.79769 4.88359 8.40027C4.94929 8.00284 5.13779 7.63596 5.42263 7.35112C5.70746 7.06628 6.07434 6.87779 6.47177 6.81208C6.8692 6.74638 7.27722 6.80677 7.63858 6.98478C7.99993 7.16279 8.29648 7.44948 8.4866 7.80462C8.67671 8.15975 8.75086 8.56551 8.69862 8.96493C8.64349 9.38645 8.45063 9.77794 8.15004 10.0785C7.84944 10.3791 7.45795 10.572 7.03643 10.6271Z" fill="#4991FF"/>
<path d="M16.6793 39.5557C16.2799 39.6079 15.8741 39.5338 15.519 39.3437C15.1638 39.1536 14.8771 38.857 14.6991 38.4957C14.5211 38.1343 14.4607 37.7263 14.5264 37.3289C14.5921 36.9314 14.7806 36.5646 15.0655 36.2797C15.3503 35.9949 15.7172 35.8064 16.1146 35.7407C16.512 35.675 16.9201 35.7354 17.2814 35.9134C17.6428 36.0914 17.9393 36.3781 18.1294 36.7332C18.3196 37.0883 18.3937 37.4941 18.3415 37.8935C18.2863 38.315 18.0935 38.7065 17.7929 39.0071C17.4923 39.3077 17.1008 39.5006 16.6793 39.5557Z" fill="#4991FF"/>
<path d="M16.6793 29.9129C16.2799 29.9651 15.8741 29.891 15.519 29.7009C15.1638 29.5107 14.8771 29.2142 14.6991 28.8528C14.5211 28.4915 14.4607 28.0835 14.5264 27.686C14.5921 27.2886 14.7806 26.9217 15.0655 26.6369C15.3503 26.3521 15.7172 26.1636 16.1146 26.0978C16.512 26.0321 16.9201 26.0925 17.2814 26.2705C17.6428 26.4486 17.9393 26.7352 18.1294 27.0904C18.3196 27.4455 18.3937 27.8513 18.3415 28.2507C18.2863 28.6722 18.0935 29.0637 17.7929 29.3643C17.4923 29.6649 17.1008 29.8578 16.6793 29.9129Z" fill="#4991FF"/>
<path d="M16.6793 20.2701C16.2799 20.3223 15.8741 20.2482 15.519 20.058C15.1638 19.8679 14.8771 19.5714 14.6991 19.21C14.5211 18.8487 14.4607 18.4406 14.5264 18.0432C14.5921 17.6458 14.7806 17.2789 15.0655 16.9941C15.3503 16.7092 15.7172 16.5207 16.1146 16.455C16.512 16.3893 16.9201 16.4497 17.2814 16.6277C17.6428 16.8057 17.9393 17.0924 18.1294 17.4476C18.3196 17.8027 18.3937 18.2085 18.3415 18.6079C18.2863 19.0294 18.0935 19.4209 17.7929 19.7215C17.4923 20.0221 17.1008 20.2149 16.6793 20.2701Z" fill="#4991FF"/>
<path d="M16.6793 10.6271C16.2799 10.6794 15.8741 10.6052 15.519 10.4151C15.1638 10.225 14.8771 9.92843 14.6991 9.56708C14.5211 9.20572 14.4607 8.79769 14.5264 8.40027C14.5921 8.00284 14.7806 7.63596 15.0655 7.35112C15.3503 7.06628 15.7172 6.87779 16.1146 6.81208C16.512 6.74638 16.9201 6.80677 17.2814 6.98478C17.6428 7.16279 17.9393 7.44948 18.1294 7.80462C18.3196 8.15975 18.3937 8.56551 18.3415 8.96493C18.2863 9.38645 18.0935 9.77794 17.7929 10.0785C17.4923 10.3791 17.1008 10.572 16.6793 10.6271Z" fill="#4991FF"/>
<path d="M26.3222 49.1986C25.9227 49.2509 25.517 49.1767 25.1619 48.9866C24.8067 48.7965 24.52 48.5 24.342 48.1386C24.164 47.7773 24.1036 47.3692 24.1693 46.9718C24.235 46.5744 24.4235 46.2075 24.7084 45.9227C24.9932 45.6378 25.3601 45.4493 25.7575 45.3836C26.1549 45.3179 26.563 45.3783 26.9243 45.5563C27.2857 45.7343 27.5822 46.021 27.7723 46.3762C27.9624 46.7313 28.0366 47.137 27.9844 47.5365C27.9292 47.958 27.7364 48.3495 27.4358 48.6501C27.1352 48.9507 26.7437 49.1435 26.3222 49.1986Z" fill="#4991FF"/>
<path d="M26.3222 39.5557C25.9227 39.6079 25.517 39.5338 25.1619 39.3437C24.8067 39.1536 24.52 38.857 24.342 38.4957C24.164 38.1343 24.1036 37.7263 24.1693 37.3289C24.235 36.9314 24.4235 36.5646 24.7084 36.2797C24.9932 35.9949 25.3601 35.8064 25.7575 35.7407C26.1549 35.675 26.563 35.7354 26.9243 35.9134C27.2857 36.0914 27.5822 36.3781 27.7723 36.7332C27.9624 37.0883 28.0366 37.4941 27.9844 37.8935C27.9292 38.315 27.7364 38.7065 27.4358 39.0071C27.1352 39.3077 26.7437 39.5006 26.3222 39.5557Z" fill="#4991FF"/>
<path d="M26.3222 29.9129C25.9227 29.9651 25.517 29.891 25.1619 29.7009C24.8067 29.5107 24.52 29.2142 24.342 28.8528C24.164 28.4915 24.1036 28.0835 24.1693 27.686C24.235 27.2886 24.4235 26.9217 24.7084 26.6369C24.9932 26.3521 25.3601 26.1636 25.7575 26.0978C26.1549 26.0321 26.563 26.0925 26.9243 26.2705C27.2857 26.4486 27.5822 26.7352 27.7723 27.0904C27.9624 27.4455 28.0366 27.8513 27.9844 28.2507C27.9292 28.6722 27.7364 29.0637 27.4358 29.3643C27.1352 29.6649 26.7437 29.8578 26.3222 29.9129Z" fill="#4991FF"/>
<path d="M27.4377 19.7224C28.1885 18.9716 28.1855 17.7513 27.4309 16.9967C26.6764 16.2422 25.456 16.2391 24.7052 16.9899C23.9544 17.7407 23.9575 18.9611 24.712 19.7156C25.4666 20.4702 26.6869 20.4732 27.4377 19.7224Z" fill="#4991FF"/>
<path d="M26.3222 10.6271C25.9227 10.6794 25.517 10.6052 25.1619 10.4151C24.8067 10.225 24.52 9.92843 24.342 9.56708C24.164 9.20572 24.1036 8.79769 24.1693 8.40027C24.235 8.00284 24.4235 7.63596 24.7084 7.35112C24.9932 7.06628 25.3601 6.87779 25.7575 6.81208C26.1549 6.74638 26.563 6.80677 26.9243 6.98478C27.2857 7.16279 27.5822 7.44948 27.7723 7.80462C27.9624 8.15975 28.0366 8.56551 27.9844 8.96493C27.9292 9.38645 27.7364 9.77794 27.4358 10.0785C27.1352 10.3791 26.7437 10.572 26.3222 10.6271Z" fill="#4991FF"/>
</svg>
