<svg width="26" height="34" viewBox="0 0 26 34" fill="none" xmlns="http://www.w3.org/2000/svg">
<path d="M13 1C6.375 1 1 5.72254 1 11.539C1 21 9 28.8375 11.9375 32.5008C12.0594 32.6554 12.2192 32.7813 12.4039 32.868C12.5886 32.9548 12.7928 33 13 33C13.2072 33 13.4115 32.9548 13.5961 32.868C13.7808 32.7813 13.9406 32.6554 14.0625 32.5008C17 28.8391 25 20.5556 25 11.539C25 5.72254 19.625 1 13 1Z" stroke="black" stroke-width="2" stroke-linecap="round" stroke-linejoin="round"/>
<path d="M13 16.4074C15.2091 16.4074 17 14.6166 17 12.4074C17 10.1983 15.2091 8.40742 13 8.40742C10.7909 8.40742 9 10.1983 9 12.4074C9 14.6166 10.7909 16.4074 13 16.4074Z" stroke="black" stroke-width="2" stroke-linecap="round" stroke-linejoin="round"/>
</svg>
