<svg width="56" height="40" viewBox="0 0 56 40" fill="none" xmlns="http://www.w3.org/2000/svg">
<rect width="56" height="2" transform="matrix(1 0 0 -1 0 40)" fill="#49B9FF"/>
<path d="M37.274 31.9501L43.7024 8H40.1198H37.2486L34.4283 21.7353L33.9201 24.1899H33.7931L29.7024 8H24.6969L20.5808 24.1899H20.4537L19.3103 18.537L16.4646 29.5947L17.0998 31.9501H22.9945L27.1361 16.9999H27.2631L31.4047 31.9501H31.8621H34.4283H37.274Z" fill="#49B9FF"/>
<path d="M47.7423 8H45.5318L45.4047 8.44627L44.0327 13.6032L46.5989 22.3056H41.6951L40.5263 26.6939H47.8185L49.3684 31.9501H56L47.7423 8Z" fill="#4991FF"/>
<path d="M18.5989 12.5375C17.2523 9.73585 14.3557 8.04993 10.6207 8.04993H0V32H6.25045V24.9836H10.265C12.4247 24.9836 14.3303 24.4629 15.8294 23.496L18.5989 12.5375ZM8.94374 20.4216H6.25045V12.7358H8.99456C11.6116 12.7358 13.1869 14.0746 13.1869 16.5787C13.1615 19.058 11.6116 20.4216 8.94374 20.4216Z" fill="#61DAFB"/>
<rect width="56" height="2" transform="matrix(1 0 0 -1 0 2)" fill="#49B9FF"/>
</svg>
