<svg width="56" height="56" viewBox="0 0 56 56" fill="none" xmlns="http://www.w3.org/2000/svg">
<circle cx="28" cy="28" r="27" stroke="#49B9FF" stroke-width="2"/>
<path d="M31.5652 28C31.5652 29.9868 29.969 31.5975 28 31.5975C26.031 31.5975 24.4348 29.9868 24.4348 28C24.4348 26.0131 26.031 24.4024 28 24.4024C29.969 24.4024 31.5652 26.0131 31.5652 28Z" fill="#61DAFB"/>
<path fill-rule="evenodd" clip-rule="evenodd" d="M28 14.4621C27.4155 13.8887 26.8332 13.3639 26.2578 12.892C24.7717 11.6733 23.2951 10.7769 21.9164 10.3268C20.5378 9.87676 19.1607 9.84625 18 10.5225C16.8393 11.1987 16.1769 12.4173 15.8739 13.8471C15.5708 15.277 15.6018 17.0155 15.9048 18.9235C16.0221 19.6623 16.1813 20.4336 16.3812 21.2311C15.5968 21.4551 14.8552 21.7016 14.1626 21.9685C12.3736 22.6578 10.8659 23.4999 9.79025 24.4797C8.7147 25.4594 8 26.6476 8 28C8 29.3524 8.7147 30.5406 9.79025 31.5203C10.8659 32.5001 12.3736 33.3422 14.1626 34.0315C14.8552 34.2984 15.5968 34.5449 16.3812 34.7689C16.1813 35.5664 16.0221 36.3377 15.9048 37.0765C15.6018 38.9845 15.5708 40.723 15.8739 42.1529C16.1769 43.5827 16.8393 44.8013 18 45.4775C19.1607 46.1537 20.5378 46.1232 21.9164 45.6732C23.2951 45.2231 24.7717 44.3267 26.2578 43.108C26.8332 42.6361 27.4155 42.1113 28 41.5379C28.5845 42.1113 29.1668 42.6361 29.7422 43.108C31.2283 44.3267 32.7049 45.2231 34.0836 45.6732C35.4622 46.1232 36.8393 46.1538 38 45.4775C39.1607 44.8013 39.8231 43.5827 40.1261 42.1529C40.4292 40.723 40.3982 38.9845 40.0952 37.0765C39.9779 36.3377 39.8187 35.5664 39.6188 34.7689C40.4032 34.5449 41.1448 34.2984 41.8374 34.0315C43.6264 33.3422 45.1341 32.5001 46.2097 31.5203C47.2853 30.5406 48 29.3524 48 28C48 26.6476 47.2853 25.4594 46.2097 24.4797C45.1341 23.4999 43.6264 22.6578 41.8374 21.9685C41.1448 21.7016 40.4032 21.4551 39.6188 21.2311C39.8187 20.4336 39.9779 19.6623 40.0952 18.9235C40.3982 17.0155 40.4292 15.277 40.1261 13.8471C39.8231 12.4173 39.1607 11.1987 38 10.5225C36.8393 9.84625 35.4622 9.87675 34.0836 10.3268C32.7049 10.7769 31.2283 11.6733 29.7422 12.892C29.1668 13.3639 28.5845 13.8887 28 14.4621ZM37.1304 12.0423C37.7165 12.3837 38.183 13.0702 38.4255 14.2141C38.6679 15.358 38.6613 16.8617 38.378 18.6459C38.2692 19.3314 38.1206 20.0513 37.9331 20.7994C36.2878 20.4236 34.4945 20.1394 32.5987 19.9625C31.4991 18.3943 30.3585 16.9693 29.2133 15.7194C29.7616 15.1815 30.3052 14.6917 30.8391 14.2539C32.2287 13.1142 33.516 12.3565 34.6189 11.9965C35.722 11.6364 36.5444 11.7008 37.1304 12.0423ZM26.7867 15.7194C26.2384 15.1815 25.6948 14.6917 25.1609 14.2539C23.7713 13.1142 22.484 12.3565 21.3811 11.9965C20.278 11.6364 19.4556 11.7008 18.8696 12.0423C18.2835 12.3837 17.817 13.0702 17.5745 14.2141C17.3321 15.358 17.3387 16.8617 17.622 18.6459C17.7308 19.3314 17.8794 20.0513 18.0669 20.7994C19.7122 20.4236 21.5055 20.1394 23.4013 19.9625C24.5009 18.3943 25.6415 16.9693 26.7867 15.7194ZM37.4575 22.4902C36.3343 22.237 35.1326 22.0269 33.8684 21.8669C34.2809 22.5175 34.6851 23.1878 35.0788 23.876C35.4726 24.5642 35.8458 25.2525 36.1979 25.9383C36.6926 24.7536 37.1132 23.5984 37.4575 22.4902ZM37.1975 28C37.9936 26.2549 38.6463 24.5457 39.1465 22.92C39.8822 23.1302 40.5743 23.3603 41.2171 23.608C42.89 24.2525 44.1839 24.9986 45.0444 25.7824C45.9049 26.5662 46.2609 27.3171 46.2609 28C46.2609 28.6829 45.9049 29.4338 45.0444 30.2176C44.1839 31.0014 42.89 31.7475 41.2171 32.392C40.5743 32.6397 39.8822 32.8698 39.1465 33.08C38.6463 31.4543 37.9936 29.7451 37.1975 28ZM35.2752 28C34.764 26.9291 34.196 25.8429 33.5727 24.7534C32.9493 23.664 32.3011 22.6245 31.6376 21.6424C30.4629 21.5536 29.2467 21.5069 28 21.5069C26.7533 21.5069 25.5371 21.5536 24.3624 21.6424C23.6989 22.6245 23.0507 23.664 22.4273 24.7534C21.804 25.8429 21.236 26.9291 20.7248 28C21.236 29.0709 21.804 30.1571 22.4273 31.2466C23.0507 32.336 23.6989 33.3755 24.3624 34.3576C25.5371 34.4464 26.7533 34.4931 28 34.4931C29.2467 34.4931 30.4629 34.4464 31.6376 34.3576C32.3011 33.3755 32.9493 32.336 33.5727 31.2466C34.196 30.1571 34.764 29.0709 35.2752 28ZM33.8684 34.1331C34.2809 33.4825 34.6851 32.8122 35.0788 32.124C35.4726 31.4358 35.8458 30.7475 36.1979 30.0617C36.6926 31.2464 37.1132 32.4016 37.4575 33.5098C36.3343 33.763 35.1326 33.9731 33.8684 34.1331ZM30.3295 36.1948C29.5649 36.23 28.7875 36.248 28 36.248C27.2125 36.248 26.4351 36.23 25.6705 36.1948C26.4399 37.2195 27.221 38.1646 28 39.0196C28.779 38.1646 29.5601 37.2195 30.3295 36.1948ZM29.2133 40.2806C30.3585 39.0307 31.4991 37.6057 32.5987 36.0375C34.4945 35.8606 36.2878 35.5764 37.9331 35.2006C38.1206 35.9487 38.2692 36.6686 38.378 37.3541C38.6613 39.1383 38.6679 40.642 38.4255 41.7859C38.183 42.9298 37.7165 43.6163 37.1304 43.9577C36.5444 44.2992 35.722 44.3636 34.6189 44.0035C33.516 43.6435 32.2287 42.8858 30.8391 41.7461C30.3052 41.3083 29.7616 40.8185 29.2133 40.2806ZM26.7867 40.2806C25.6415 39.0307 24.5009 37.6057 23.4013 36.0375C21.5055 35.8606 19.7122 35.5764 18.0669 35.2006C17.8794 35.9487 17.7308 36.6686 17.622 37.3541C17.3387 39.1383 17.3321 40.642 17.5745 41.7859C17.817 42.9298 18.2835 43.6163 18.8696 43.9577C19.4556 44.2992 20.278 44.3636 21.3811 44.0035C22.484 43.6435 23.7713 42.8858 25.1609 41.7461C25.6948 41.3083 26.2384 40.8185 26.7867 40.2806ZM18.5425 33.5098C19.6657 33.763 20.8674 33.9731 22.1316 34.1331C21.7191 33.4825 21.3149 32.8122 20.9212 32.124C20.5274 31.4358 20.1542 30.7475 19.8021 30.0617C19.3074 31.2464 18.8868 32.4016 18.5425 33.5098ZM19.8021 25.9383C20.1542 25.2525 20.5274 24.5642 20.9212 23.876C21.3149 23.1878 21.7191 22.5175 22.1316 21.8669C20.8674 22.0269 19.6657 22.237 18.5425 22.4902C18.8868 23.5984 19.3074 24.7536 19.8021 25.9383ZM18.8025 28C18.0064 29.7451 17.3537 31.4543 16.8535 33.08C16.1178 32.8698 15.4257 32.6397 14.7829 32.392C13.11 31.7475 11.8161 31.0014 10.9556 30.2176C10.0951 29.4338 9.73913 28.6829 9.73913 28C9.73913 27.3171 10.0951 26.5662 10.9556 25.7824C11.8161 24.9986 13.11 24.2525 14.7829 23.608C15.4257 23.3603 16.1178 23.1302 16.8535 22.92C17.3537 24.5457 18.0064 26.2549 18.8025 28ZM25.6705 19.8052C26.4351 19.77 27.2125 19.752 28 19.752C28.7875 19.752 29.5649 19.77 30.3295 19.8052C29.5601 18.7805 28.779 17.8354 28 16.9804C27.221 17.8354 26.4399 18.7805 25.6705 19.8052Z" fill="#61DAFB"/>
</svg>
