<svg width="30" height="26" viewBox="0 0 30 26" fill="none" xmlns="http://www.w3.org/2000/svg">
<path d="M1 1V19C1 22.3137 3.68629 25 7 25H23C26.3137 25 29 22.3137 29 19V1" stroke="black" stroke-width="2" stroke-linecap="round" stroke-linejoin="round"/>
<path d="M2 15H29" stroke="black" stroke-width="2" stroke-linecap="round" stroke-linejoin="round"/>
<path d="M15 19C15.5523 19 16 19.4477 16 20C16 20.5523 15.5523 21 15 21C14.4477 21 14 20.5523 14 20C14 19.4477 14.4477 19 15 19Z" stroke="black" stroke-width="2" stroke-linecap="round" stroke-linejoin="round"/>
<path opacity="0.23" d="M8 19C8.55228 19 9 19.4477 9 20C9 20.5523 8.55228 21 8 21C7.44772 21 7 20.5523 7 20C7 19.4477 7.44772 19 8 19Z" stroke="black" stroke-width="2" stroke-linecap="round" stroke-linejoin="round"/>
<path opacity="0.23" d="M22 19C22.5523 19 23 19.4477 23 20C23 20.5523 22.5523 21 22 21C21.4477 21 21 20.5523 21 20C21 19.4477 21.4477 19 22 19Z" stroke="black" stroke-width="2" stroke-linecap="round" stroke-linejoin="round"/>
</svg>
