<svg xmlns="http://www.w3.org/2000/svg" fill="none" viewBox="0 0 56 56"><defs/><rect width="56" height="56" fill="#fff" rx="28"/><path fill="#E4B035" d="M29.23 28.56V43.7c0 .23.26.38.46.26l12.48-7.32A3.6 3.6 0 0044 33.52v-13.1c0-.23-.26-.37-.46-.26L29.38 28.3a.3.3 0 00-.15.26z"/><path fill="#FED352" d="M12.46 20.16c-.2-.11-.46.03-.46.26v13.1c0 1.28.7 2.47 1.83 3.12l12.48 7.32c.2.11.46-.03.46-.26V28.5a.3.3 0 00-.15-.25l-14.16-8.09z"/><path fill="#FFE081" d="M19.14 16.05a.07.07 0 00-.07-.05.07.07 0 00-.07.07v3.36c0 2.52 4.03 4.57 9 4.57s9-2.05 9-4.57v-3.36a.07.07 0 00-.07-.07.07.07 0 00-.07.05C36.1 18.3 32.43 20 28 20s-8.1-1.7-8.86-3.95z"/><ellipse cx="28" cy="16.5" fill="#fff" rx="9" ry="4.5"/></svg>