<svg xmlns="http://www.w3.org/2000/svg" fill="none" viewBox="0 0 56 56"><defs/><rect width="56" height="56" fill="#fff" rx="28"/><path fill="url(#paint0_linear)" d="M40.57 12h-16a3.43 3.43 0 00-3.43 3.43V30c0 .16.13.29.29.29h9.9a4.63 4.63 0 014.71 4.51c.09 2.92.36 4.84.89 6.22.6 1.6 1.93 2.6 3.39 2.6 2.54 0 3.68-1.9 3.68-4.2V15.44c0-1.9-1.54-3.43-3.43-3.43z"/><path fill="#fff" d="M37.7 17.71H27.3c-.72 0-1.3.52-1.3 1.15 0 .63.58 1.14 1.3 1.14h10.4c.72 0 1.3-.51 1.3-1.14 0-.63-.58-1.15-1.3-1.15z"/><path fill="#fff" d="M37.84 23.43h-10.4c-.72 0-1.3.51-1.3 1.14 0 .63.58 1.14 1.3 1.14h10.4c.72 0 1.3-.5 1.3-1.14 0-.63-.58-1.14-1.3-1.14z" opacity=".8"/><path fill="#fff" d="M37.84 29h-10.4c-.72 0-1.3.51-1.3 1.14 0 .63.58 1.15 1.3 1.15h10.4c.72 0 1.3-.52 1.3-1.15 0-.63-.58-1.14-1.3-1.14z" opacity=".6"/><path fill="#fff" d="M37.84 35h-10.4c-.72 0-1.3.51-1.3 1.14 0 .63.58 1.15 1.3 1.15h10.4c.72 0 1.3-.52 1.3-1.15 0-.63-.58-1.14-1.3-1.14z" opacity=".4"/><path fill="url(#paint1_linear)" d="M35.45 43.11c-.27-.39-.49-.81-.66-1.27-.63-1.65-.94-3.74-1.03-6.98a2.35 2.35 0 00-2.36-2.29H14.3a2.3 2.3 0 00-2.29 2.3c0 3.6.41 5.1 1.03 6.25C14.1 43.06 16 44 18.86 44h16.11c.46 0 .73-.5.48-.89z"/><defs><linearGradient id="paint0_linear" x1="32.57" x2="32.57" y1="12" y2="43.62" gradientUnits="userSpaceOnUse"><stop offset=".21" stop-color="#FFDC72"/><stop offset=".77" stop-color="#FFC928"/><stop offset="1" stop-color="#F7C03C"/></linearGradient><linearGradient id="paint1_linear" x1="23.77" x2="23.77" y1="32.57" y2="44" gradientUnits="userSpaceOnUse"><stop offset=".15" stop-color="#FED352"/><stop offset="1" stop-color="#E4B035"/></linearGradient></defs></svg>