<svg xmlns="http://www.w3.org/2000/svg" fill="none" viewBox="0 0 56 56"><defs/><rect width="56" height="56" fill="#fff" rx="28"/><path fill="#FFE081" d="M15 22h26v18H15z" opacity=".3"/><path fill="url(#paint0_linear)" fill-rule="evenodd" d="M18.02 18.05c-1.09 0-1.97.88-1.97 1.96v17.97c0 1.09.88 1.97 1.97 1.97h19.96c1.09 0 1.97-.88 1.97-1.97V20.02c0-1.1-.88-1.97-1.97-1.97H18.02zM14 20C14 17.8 15.8 16 18.02 16h19.96C40.2 16 42 17.8 42 20.02v17.96C42 40.2 40.2 42 37.98 42H18.02A4.02 4.02 0 0114 37.98V20.02z" clip-rule="evenodd"/><path fill="url(#paint1_linear)" d="M36.85 17.02h-17.7a4.17 4.17 0 00-4.13 4.2V25h1c0-1 1-2 2-2h19.96c1 0 2 1 2 2h1v-3.8c0-2.3-1.86-4.19-4.13-4.19z"/><path fill="url(#paint2_linear)" fill-rule="evenodd" d="M20.02 14c.56 0 1.02.46 1.02 1.02v2a1.02 1.02 0 01-2.05 0v-2c0-.56.46-1.02 1.03-1.02z" clip-rule="evenodd"/><path fill="url(#paint3_linear)" fill-rule="evenodd" d="M35.98 14c.57 0 1.03.46 1.03 1.02v2a1.02 1.02 0 11-2.05 0v-2c0-.56.46-1.02 1.02-1.02z" clip-rule="evenodd"/><path fill="#FED352" d="M30.5 28a1.5 1.5 0 100-3 1.5 1.5 0 000 3z"/><path fill="#E4B035" d="M35.5 28a1.5 1.5 0 100-3 1.5 1.5 0 000 3z"/><path fill="#FED352" d="M30.5 33a1.5 1.5 0 100-3 1.5 1.5 0 000 3zM35.5 33a1.5 1.5 0 100-3 1.5 1.5 0 000 3zM20.5 33a1.5 1.5 0 100-3 1.5 1.5 0 000 3z"/><path fill="#E4B035" d="M25.5 33a1.5 1.5 0 100-3 1.5 1.5 0 000 3zM20.5 38a1.5 1.5 0 100-3 1.5 1.5 0 000 3z"/><path fill="#FED352" d="M25.5 38a1.5 1.5 0 100-3 1.5 1.5 0 000 3z"/><path fill="#E4B035" d="M30.5 38a1.5 1.5 0 100-3 1.5 1.5 0 000 3z"/><defs><linearGradient id="paint0_linear" x1="28" x2="28" y1="14" y2="42" gradientUnits="userSpaceOnUse"><stop stop-color="#FFD861"/><stop offset="1" stop-color="#FFC438"/></linearGradient><linearGradient id="paint1_linear" x1="28" x2="28" y1="14" y2="42" gradientUnits="userSpaceOnUse"><stop stop-color="#FFD861"/><stop offset="1" stop-color="#FFC438"/></linearGradient><linearGradient id="paint2_linear" x1="28" x2="28" y1="14" y2="42" gradientUnits="userSpaceOnUse"><stop stop-color="#FFD861"/><stop offset="1" stop-color="#FFC438"/></linearGradient><linearGradient id="paint3_linear" x1="28" x2="28" y1="14" y2="42" gradientUnits="userSpaceOnUse"><stop stop-color="#FFD861"/><stop offset="1" stop-color="#FFC438"/></linearGradient></defs></svg>