<svg xmlns="http://www.w3.org/2000/svg" fill="none" viewBox="0 0 56 56"><defs/><circle cx="28" cy="28" r="28" fill="#fff"/><path fill="#FED352" d="M29.04 14.63a2.15 2.15 0 00-2.1-.05c-2.38 1.27-8.29 4.24-12.95 4.98-1.1.18-2 1.08-1.94 2.18.9 16 12.3 22.52 15.25 23.95.45.21.95.21 1.4 0 2.97-1.38 14.37-7.73 15.25-23.95.06-1.1-.85-2-1.94-2.14-5.18-.67-10.72-3.65-12.97-4.97z"/><path fill="#E4B035" d="M28 14.3c-.33-.01-.65.06-.95.22-2.33 1.25-8.5 4.38-13.28 5.08-.97.14-1.77.93-1.73 1.91.8 16.32 12.5 22.86 15.34 24.21.2.1.41.15.62.15V14.3z" opacity=".8"/><path stroke="#fff" stroke-linecap="round" stroke-linejoin="round" stroke-width="2" d="M22 30.07L25.48 34 34 23"/></svg>