<svg xmlns="http://www.w3.org/2000/svg" fill="none" viewBox="0 0 56 56"><defs/><circle cx="28" cy="28" r="28" fill="#fff"/><path fill="#E9B73B" d="M14.76 32.72c4.52 5.27 5.36 6.97 5.24 8.94-.07 1.23.77 2.34 2.01 2.34h8.64c.86 0 1.63-.54 1.85-1.37.16-.6.27-1.15.44-1.9a2 2 0 011.88-1.53c1.59-.08 3.16-.38 4.58-1.73 1.57-1.5-.43-8.22 0-8.32 1.6-.37 4.34-.63 3.95-2.26a1.32 1.32 0 00-.23-.45c-1.56-2.2-6.31-9.45-7.6-10.95-4.88-4.75-11-4.15-16.49-1.18-5.16 2.78-10.38 11.28-4.27 18.4z"/><path fill="#FED352" d="M22.56 35.96c0 .55.49 1.04 1.13 1.04h4.94c.64 0 1.13-.49 1.13-1.04v-.94h-7.2v.94zM26.16 17c-4.48 0-8.1 3.12-8.1 6.98a6.79 6.79 0 003.46 5.76V32c0 .55.52 1 1.16 1h6.96c.64 0 1.16-.45 1.16-1v-2.26a6.78 6.78 0 003.45-5.76c0-3.86-3.61-6.98-8.09-6.98z"/><path stroke="#fff" d="M24.47 31.44v-9.83c-1.84-.63-3.6.86-2.68 2.7.84 1.67 6.7 1.67 7.53 0 1.06-2.1-.84-3.33-2.34-2.7v9.83"/></svg>