<svg xmlns="http://www.w3.org/2000/svg" fill="none" viewBox="0 0 96 96">
    <defs/>
    <path stroke="#EAFAFF" stroke-linecap="round" stroke-linejoin="round" stroke-width="2" d="M31.04 9.63L18.96 2.65a2.58 2.58 0 00-2.62.02l-12.6 7.36a4.05 4.05 0 00-2 3.48l-.08 14.58a2.64 2.64 0 001.3 2.28l12.08 6.98a2.58 2.58 0 002.62-.02l12.6-7.36a4.06 4.06 0 002-3.48l.08-14.58a2.64 2.64 0 00-1.3-2.28z"/>
    <path stroke="#EAFAFF" stroke-linecap="round" stroke-linejoin="round" stroke-width="2" d="M2.57 29l15.3-8.5-.3-17.49"/>
    <path stroke="#EAFAFF" stroke-linecap="round" stroke-linejoin="round" stroke-width="2" d="M31.72 28.5l-13.85-8"/>
    <path fill="#EAFAFF" d="M17.88 20.56L2.38 29.6l12.27 7.9 1.04.25 14.56-7.58L31 29l-13.12-8.44z" opacity=".5"/>
    <path stroke="#EAFAFF" stroke-linecap="round" stroke-linejoin="round" stroke-width="2" d="M12.3 13.2a5.3 5.3 0 01-2.22 3.82c-1.11.63-2.11.05-2.2-1.3-.09-1.4.9-3.05 2.23-3.8 1.34-.77 2.3-.2 2.2 1.29z"/>
    <path stroke="#EAFAFF" stroke-linecap="round" stroke-miterlimit="10" stroke-width="2" d="M5.59 25.93a9.43 9.43 0 014.47-6.36c2.01-1.14 4.05-.98 4.41 1.31"/>
    <path fill="#EAFAFF" d="M42 72l23-12v21.5l-.5 1.5L44 95h-2V72z" opacity=".3"/>
    <path stroke="#EAFAFF" stroke-linecap="round" stroke-linejoin="round" stroke-width="2" d="M65 80.85v-19.7c0-.65-.18-1.28-.51-1.84a3.77 3.77 0 00-1.4-1.35l-18.2-10.2a5.91 5.91 0 00-5.78 0l-18.2 10.2c-.59.32-1.07.79-1.4 1.35-.33.56-.5 1.2-.51 1.84v19.7c0 .65.18 1.28.51 1.84s.81 1.03 1.4 1.35l18.2 10.21a5.92 5.92 0 005.78 0l18.2-10.2c.59-.33 1.07-.8 1.4-1.36.33-.56.51-1.2.51-1.84z"/>
    <path stroke="#EAFAFF" stroke-linecap="round" stroke-linejoin="round" stroke-width="2" d="M20 60l22 12 22-12"/>
    <path stroke="#EAFAFF" stroke-linecap="round" stroke-linejoin="round" stroke-width="2" d="M42 95V72"/>
    <path stroke="#EAFAFF" stroke-linecap="round" stroke-linejoin="round" stroke-width="2" d="M47.4 60.07c-2 1.06-5.09 1.14-6.82.2-1.73-.93-1.8-2.71-.1-3.93 1.77-1.27 4.73-1.33 6.81-.2 2.09 1.12 2.15 2.85.1 3.93z"/>
    <path stroke="#EAFAFF" stroke-linecap="round" stroke-miterlimit="10" stroke-width="2" d="M25.25 61.7c3.89-1.71 8.83-1.06 11.98.64 3.15 1.7 4.6 4.5 1.9 6.85"/>
    <path stroke="#EAFAFF" stroke-linecap="round" stroke-linejoin="round" stroke-width="2" d="M64.37 45.45a4.6 4.6 0 01-1.66-1.64l-8.3-14.12a2.96 2.96 0 01-.03-2.94l7.8-13.5a2.87 2.87 0 012.55-1.45l16.38.13a4.58 4.58 0 013.92 2.26l8.3 14.12a2.96 2.96 0 01.03 2.93l-7.8 13.52A2.87 2.87 0 0183 46.2l-16.38-.13c-.8 0-1.57-.22-2.26-.62zm0 0l9.1-15.76M63.31 12.85l10.16 16.84m0 0l19.67.38"/>
    <path stroke="#EAFAFF" stroke-linecap="round" stroke-linejoin="round" stroke-width="2" d="M80 19c.75 1.55 0 2.82-1.62 2.82-1.63 0-3.85-1.27-4.9-2.83-1.08-1.62-.33-2.82 1.63-2.82s4.12 1.23 4.89 2.82z"/>
    <path stroke="#EAFAFF" stroke-linecap="round" stroke-miterlimit="10" stroke-width="2" d="M75.93 28.9c-1.05-2.78 1.11-4.25 4.08-4.25 2.96 0 6.82 1.47 8.98 4.24"/>
    <path fill="#EAFAFF" d="M73.75 30.55L63.2 13.4l-8.54 14.23-.26 1.2 8.9 16.14 1.33.8 9.13-15.23z" opacity=".2"/>
    <circle cx="32" cy="42" r="2" fill="#EAFAFF" opacity=".3"/>
    <circle cx="84" cy="55" r="3" fill="#EAFAFF" opacity=".2"/>
    <circle cx="75" cy="69" r="1" fill="#EAFAFF" opacity=".5"/>
    <circle cx="54" cy="21" r="1" fill="#EAFAFF" opacity=".5"/>
    <circle cx="61" cy="90" r="1" fill="#EAFAFF" opacity=".5"/>
    <circle cx="55.5" cy="52.5" r="1.5" fill="#EAFAFF" opacity=".4"/>
    <circle cx="86" cy="94" r="2" fill="#EAFAFF" opacity=".4"/>
    <circle cx="27" cy="4" r="1" fill="#EAFAFF" opacity=".4"/>
    <circle cx="95" cy="47" r="1" fill="#EAFAFF" opacity=".4"/>
    <circle cx="14" cy="54" r="1" fill="#EAFAFF" opacity=".5"/>
    <circle cx="3.5" cy="39.5" r="1.5" fill="#EAFAFF" opacity=".2"/>
    <circle cx="17.5" cy="94.5" r="1.5" fill="#EAFAFF" opacity=".2"/>
    <circle cx="67" cy="1" r="1" fill="#EAFAFF" opacity=".6"/>
    <circle cx="2" cy="80" r="2" fill="#EAFAFF" opacity=".2"/>
    <path stroke="#EAFAFF" stroke-linecap="round" stroke-width="2" d="M87.99 65.06l-.98 3.88"/>
    <path stroke="#EAFAFF" stroke-linecap="round" stroke-width="2" d="M44 30l1.36 3.76"/>
    <path stroke="#EAFAFF" stroke-linecap="round" stroke-width="2" d="M4.78 68.26l3.8 1.24"/>
    <path fill="url(#icon_authentication_paint0_linear)" d="M11.7 40a.93.93 0 00-1.2-.65l-8.43 2.86c-.52.18-.82.76-.67 1.3.15.53.7.83 1.2.65l7.5-2.54 2.15 7.8c.15.53.7.83 1.21.65.52-.17.82-.75.67-1.3l-2.43-8.76zM30 79.35c.54 0 .98-.48.98-1.04a.96.96 0 00-.96-1L30 79.33zM12.8 62.9C8.71 54.5 8.93 46 11.62 40.79l-1.7-.93c-3.08 5.95-3.16 15.18 1.14 24.03l1.74-.99zm17.21 14.4c-2.8.06-5.99-1.23-9.06-3.74A31.66 31.66 0 0112.8 62.9l-1.74.99a33.58 33.58 0 008.66 11.31c3.29 2.68 6.89 4.22 10.27 4.14L30 77.3z"/>
    <path fill="url(#icon_authentication_paint1_linear)" d="M68.3 71.42a.93.93 0 00.8 1.1l8.98 1.21c.55.08 1.08-.3 1.19-.84a.93.93 0 00-.81-1.1l-7.98-1.08 1.54-7.8a.93.93 0 00-.8-1.11c-.56-.07-1.09.3-1.2.84l-1.73 8.78zm11.86-33.96c-.28-.45-.9-.58-1.38-.28-.49.3-.65.9-.37 1.36l1.75-1.08zm-2.82 18.57a42.35 42.35 0 01-4.13 9.43c-1.54 2.54-3.12 4.34-4.49 5.3l1.14 1.57c1.7-1.2 3.47-3.27 5.1-5.95a44.4 44.4 0 004.32-9.88l-1.94-.47zm1.07-17.5c.74 1.21 1.13 3.51.98 6.66-.16 3.1-.83 6.87-2.05 10.84l1.94.47a47.63 47.63 0 002.14-11.32c.16-3.23-.2-6.02-1.26-7.72l-1.75 1.08z"/>
    <path fill="url(#icon_authentication_paint2_linear)" d="M55.76 17.56c.55.03 1-.4 1-.95l-.11-8.97c0-.55-.46-1.02-1.02-1.05a.93.93 0 00-.99.95l.1 7.98-8.01-.4a.93.93 0 00-1 .94c.01.55.47 1.02 1.02 1.05l9.01.45zm-29.85-1.5c-.3.45-.15 1.07.32 1.39.47.32 1.08.22 1.38-.23l-1.7-1.16zm15.57-3.2c6.38.05 11.37 2.1 13.57 4.37l1.4-1.34c-2.76-2.85-8.4-4.97-15.08-5.03l.1 2zM27.6 17.22c.75-1.16 2.43-2.28 4.91-3.1a28.24 28.24 0 018.96-1.26l-.1-2c-3.6-.03-6.92.47-9.6 1.35-2.64.88-4.79 2.18-5.87 3.85l1.7 1.16z"/>
    <defs>
        <linearGradient id="icon_authentication_paint0_linear" x1="10.02" x2="39.54" y1="39.92" y2="81.04" gradientUnits="userSpaceOnUse">
            <stop stop-color="#EAFAFF"/>
            <stop offset="1" stop-color="#EAFAFF" stop-opacity="0"/>
        </linearGradient>
        <linearGradient id="icon_authentication_paint1_linear" x1="69.34" x2="71.18" y1="72.17" y2="31.35" gradientUnits="userSpaceOnUse">
            <stop stop-color="#EAFAFF"/>
            <stop offset="1" stop-color="#EAFAFF" stop-opacity="0"/>
        </linearGradient>
        <linearGradient id="icon_authentication_paint2_linear" x1="56.23" x2="22.67" y1="16.32" y2="23.02" gradientUnits="userSpaceOnUse">
            <stop stop-color="#EAFAFF"/>
            <stop offset="1" stop-color="#EAFAFF" stop-opacity="0"/>
        </linearGradient>
    </defs>
</svg>
