<svg xmlns="http://www.w3.org/2000/svg" fill="none" viewBox="0 0 98 98">
    <defs/>
    <path fill="#fff" d="M49.707 1.293a1 1 0 00-1.414 0l-6.364 6.364a1 1 0 001.414 1.414L49 3.414l5.657 5.657a1 1 0 101.414-1.414l-6.364-6.364zM48 25a1 1 0 102 0h-2zm0-23v23h2V2h-2z"/>
    <path fill="#fff" d="M89.177 74.966a1 1 0 00.708-1.225l-2.33-8.693a1 1 0 00-1.932.517l2.071 7.728-7.728 2.07a1 1 0 00.518 1.932l8.694-2.33zM69.5 61.634a1 1 0 10-1 1.732l1-1.732zm19.919 11.5L69.5 61.634l-1 1.732 19.919 11.5 1-1.732z"/>
    <path fill="#fff" d="M8.741 74.966a1 1 0 01-.707-1.225l2.33-8.693a1 1 0 011.931.517l-2.07 7.728 7.727 2.07a1 1 0 01-.518 1.932l-8.693-2.33zM28.42 61.634a1 1 0 111 1.732l-1-1.732zM8.5 73.134l19.919-11.5 1 1.732L9.5 74.866l-1-1.732z"/>
    <path stroke="#fff" stroke-dasharray=".5 8" stroke-linecap="round" stroke-miterlimit="10" stroke-width="2" d="M95.354 61.42c6.858-25.59-8.342-51.917-33.933-58.774C35.829-4.212 9.503 10.988 2.646 36.579c-6.858 25.592 8.342 51.918 33.933 58.775 25.592 6.858 51.918-8.342 58.775-33.933z" opacity=".7"/>
    <path stroke="#fff" stroke-linecap="round" stroke-miterlimit="10" stroke-width="6" d="M87.629 59.35c5.714-21.326-6.952-43.264-28.279-48.979-21.326-5.714-43.264 6.952-48.979 28.279-5.714 21.326 6.952 43.264 28.279 48.979 21.326 5.714 43.264-6.952 48.979-28.279z" opacity=".3"/>
    <path stroke="#fff" stroke-dasharray=".5 8" stroke-linecap="round" stroke-miterlimit="10" stroke-width="2" d="M81 49c0-17.667-14.333-32-32-32S17 31.333 17 49s14.333 32 32 32 32-14.333 32-32z" opacity=".7"/>
    <path fill="#fff" d="M73 49c0-13.25-10.75-24-24-24S25 35.75 25 49s10.75 24 24 24 24-10.75 24-24z" opacity=".3"/>
    <path stroke="#fff" stroke-miterlimit="10" stroke-width="2" d="M73 49c0-13.25-10.75-24-24-24S25 35.75 25 49s10.75 24 24 24 24-10.75 24-24z"/>
    <path fill="#fff" d="M45.04 58.812l14.306-8.646a1.361 1.361 0 000-2.325L45.04 39.194A1.346 1.346 0 0043 40.36v17.289a1.349 1.349 0 002.04 1.164z"/>
</svg>
