<svg width="448" height="104" viewBox="0 0 448 104" fill="none" xmlns="http://www.w3.org/2000/svg">
<path d="M5.6055 21.3084C8.76758 21.3084 11.211 19.0335 11.211 15.9056C11.211 12.6354 8.76758 10.3606 5.6055 10.3606C2.29969 10.3606 0 12.6354 0 15.9056C0 19.0335 2.29969 21.3084 5.6055 21.3084ZM2.15595 102.294H8.9113V30.6353H2.15595V102.294Z" fill="white"/>
<path d="M52.4701 104C75.1796 104 88.9778 85.9432 88.9778 66.4646C88.9778 46.986 75.1796 28.9292 52.4701 28.9292C29.7606 28.9292 15.9625 46.986 15.9625 66.4646C15.9625 85.9432 29.7606 104 52.4701 104ZM22.8615 66.4646C22.8615 49.1187 34.36 35.0429 52.4701 35.0429C70.5802 35.0429 82.0787 49.1187 82.0787 66.4646C82.0787 83.8105 70.5802 97.8863 52.4701 97.8863C34.36 97.8863 22.8615 83.8105 22.8615 66.4646Z" fill="white"/>
<path d="M104.381 30.6353H97.6252V102.294H104.381V59.0712C104.381 43.005 115.448 34.9007 128.527 34.9007C143.044 34.9007 149.943 43.5737 149.943 58.076V102.294H156.699V56.0855C156.699 40.5879 147.212 28.9292 129.102 28.9292C113.723 28.9292 106.537 38.1708 104.381 42.2941V30.6353Z" fill="white"/>
<path d="M170.246 21.3084C173.408 21.3084 175.852 19.0335 175.852 15.9056C175.852 12.6354 173.408 10.3606 170.246 10.3606C166.94 10.3606 164.641 12.6354 164.641 15.9056C164.641 19.0335 166.94 21.3084 170.246 21.3084ZM166.797 102.294H173.552V30.6353H166.797V102.294Z" fill="white"/>
<path d="M181.034 65.4693C181.034 86.7963 196.27 104 218.261 104C240.395 104 251.606 88.7868 253.618 75.5641H236.083C234.071 83.5261 227.316 89.0711 218.117 89.0711C205.9 89.0711 198.138 79.2607 198.138 65.4693C198.138 51.5357 205.9 41.7253 218.117 41.7253C227.316 41.7253 234.071 47.2703 236.083 55.2324H253.618C251.606 42.0097 240.395 26.7965 218.261 26.7965C196.27 26.7965 181.034 44.0002 181.034 65.4693Z" fill="white"/>
<path d="M295.678 104C319.538 104 334.486 86.2275 334.486 65.4693C334.486 44.7111 319.538 26.7965 295.678 26.7965C271.963 26.7965 257.015 44.7111 257.015 65.4693C257.015 86.2275 271.963 104 295.678 104ZM274.119 65.4693C274.119 51.1092 283.318 41.7253 295.678 41.7253C308.183 41.7253 317.382 51.1092 317.382 65.4693C317.382 79.6873 308.183 89.0711 295.678 89.0711C283.318 89.0711 274.119 79.6873 274.119 65.4693Z" fill="white"/>
<path d="M358.075 28.5026H342.265V102.294H359.369V59.4978C359.369 47.9812 366.124 41.2988 376.904 41.2988C387.109 41.2988 391.708 47.9812 391.708 58.076V102.294H408.812V55.9433C408.812 38.7396 399.182 26.7965 381.072 26.7965C368.855 26.7965 361.237 32.4837 358.075 38.313V28.5026Z" fill="white"/>
<path d="M416.794 42.0097V102.294H433.898V42.0097H448V28.5026H433.898V26.0189C433.898 17.9146 436.629 15.071 443.528 15.071C445.828 15.071 448 15.071 448 15.071V0.582364C448 0.582364 443.368 0 440.063 0C425.833 0 416.794 7.6777 416.794 25.0236V42.0097Z" fill="white"/>
</svg>
