<svg xmlns="http://www.w3.org/2000/svg" fill="none" width="18" height="18" viewBox="0 0 18 18">
    <defs/>
    <path stroke="#fff" stroke-linecap="round" stroke-linejoin="round" d="M12.37 5.88c1.27 0 2.49.54 3.39 1.48a5.2 5.2 0 011.4 3.58v5.89h-3.2v-5.9c0-.44-.16-.87-.46-1.19-.3-.31-.71-.49-1.13-.49-.43 0-.84.18-1.14.5-.3.31-.46.74-.46 1.19v5.89h-3.2v-5.9c0-1.33.5-2.62 1.4-3.57a4.68 4.68 0 013.4-1.48v0z"/>
    <path stroke="#fff" stroke-linecap="round" stroke-linejoin="round" d="M4.37 6.73h-3.2v10.1h3.2V6.73z"/>
    <path stroke="#fff" stroke-linecap="round" stroke-linejoin="round" d="M2.77 4.2c.88 0 1.6-.76 1.6-1.69 0-.93-.72-1.68-1.6-1.68-.89 0-1.6.75-1.6 1.68 0 .93.71 1.69 1.6 1.69z"/>
</svg>
