<svg viewbox="0 0 228 514" fill="none" xmlns="http://www.w3.org/2000/svg">
    <path opacity=".7" d="M444.8 383.6L224 257.6M224 257.6L3.2 383.6" stroke="#567BFF" stroke-width="4" stroke-linecap="round" stroke-linejoin="round" stroke-dasharray="0.5 16"/>
    <path opacity=".7" d="M224 2.6v255.7" stroke="url(#logo_ioniconf_paint0_linear)" stroke-width="4" stroke-linecap="round" stroke-linejoin="round" stroke-dasharray="0.5 16"/>
    <path opacity=".8" d="M363.6 257c0 77-62.5 139.4-139.6 139.4A139.5 139.5 0 0184.4 257c0-77 62.5-139.3 139.6-139.3S363.6 180 363.6 257z" stroke="url(#logo_ioniconf_paint1_linear)" stroke-width="4"/>
    <g filter="url(#logo_ioniconf_filter0_d)">
        <circle cx="321.8" cy="158.1" fill="url(#logo_ioniconf_paint2_linear)" fill-opacity=".8" r="20.6"/>
    </g>
    <ellipse cx="224" cy="257" rx="56.6" ry="56.5" fill="url(#logo_ioniconf_paint3_linear)"/>
    <path d="M222.2 2.5h0c.6-.4 1.2-.5 1.8-.5.6 0 1.2.1 1.8.5h0l218.4 125.7h0c1 .6 1.8 1.8 1.8 3v251.5c0 1.3-.7 2.5-1.8 3v.1h0L225.8 511.5h0c-.6.4-1.2.5-1.8.5-.6 0-1.2-.1-1.8-.5h0L3.8 385.8h0c-1-.6-1.8-1.8-1.8-3V131.2c0-1.2.6-2.3 1.9-3.1L222.2 2.5z" stroke="url(#logo_ioniconf_paint4_linear)" stroke-width="4"/>
    <path d="M224 510.1V257" stroke="url(#logo_ioniconf_paint5_linear)" stroke-width="4" stroke-miterlimit="10" stroke-linejoin="round"/>
    <path d="M2.8 130.8l218.4 125.6c1 .6 1.9.8 2.8.8 1 0 1.9-.2 2.8-.8l218.4-125.6" stroke="url(#logo_ioniconf_paint6_linear)" stroke-width="4"/>
    <defs>
        <linearGradient id="logo_ioniconf_paint0_linear" x1="224" y1="3.9" x2="224" y2="258.3" gradientUnits="userSpaceOnUse">
            <stop stop-color="#59BAFF"/>
            <stop offset="1" stop-color="#5697FF"/>
        </linearGradient>
        <linearGradient id="logo_ioniconf_paint1_linear" x1="224" y1="115.7" x2="224" y2="398.4" gradientUnits="userSpaceOnUse">
            <stop stop-color="#FF56C7"/>
            <stop offset="1" stop-color="#5CFFE2" stop-opacity=".8"/>
        </linearGradient>
        <linearGradient id="logo_ioniconf_paint2_linear" x1="321.8" y1="137.5" x2="321.8" y2="178.6" gradientUnits="userSpaceOnUse">
            <stop stop-color="#37CFFF"/>
            <stop offset="1" stop-color="#556AFF"/>
        </linearGradient>
        <linearGradient id="logo_ioniconf_paint3_linear" x1="224" y1="200.5" x2="224" y2="313.5" gradientUnits="userSpaceOnUse">
            <stop stop-color="#A04EFF"/>
            <stop offset="1" stop-color="#0BF" stop-opacity=".8"/>
        </linearGradient>
        <linearGradient id="logo_ioniconf_paint4_linear" x1="224" y1="0" x2="224" y2="514" gradientUnits="userSpaceOnUse">
            <stop stop-color="#58CFFF"/>
            <stop offset=".3" stop-color="#56A5FF"/>
            <stop offset="1" stop-color="#5E5EFF"/>
        </linearGradient>
        <linearGradient id="logo_ioniconf_paint5_linear" x1="224.5" y1="257" x2="224.5" y2="510.1" gradientUnits="userSpaceOnUse">
            <stop stop-color="#2CEDA8"/>
            <stop offset=".5" stop-color="#4DC8FF"/>
            <stop offset="1" stop-color="#5E5FFF"/>
        </linearGradient>
        <linearGradient id="logo_ioniconf_paint6_linear" x1="5.8" y1="133.6" x2="445.4" y2="133.6" gradientUnits="userSpaceOnUse">
            <stop stop-color="#56A4FF"/>
            <stop offset=".5" stop-color="#2BEDA7"/>
            <stop offset="1" stop-color="#56A4FF"/>
        </linearGradient>
        <filter id="logo_ioniconf_filter0_d" x="285.2" y="121.5" width="73.2" height="73.1" filterUnits="userSpaceOnUse" color-interpolation-filters="sRGB">
            <feFlood flood-opacity="0" result="BackgroundImageFix"/>
            <feColorMatrix in="SourceAlpha" values="0 0 0 0 0 0 0 0 0 0 0 0 0 0 0 0 0 0 127 0"/>
            <feOffset/>
            <feGaussianBlur stdDeviation="8"/>
            <feColorMatrix values="0 0 0 0 0.00392157 0 0 0 0 0.0235294 0 0 0 0 0.0627451 0 0 0 1 0"/>
            <feBlend in2="BackgroundImageFix" result="effect1_dropShadow"/>
            <feBlend in="SourceGraphic" in2="effect1_dropShadow" result="shape"/>
        </filter>
    </defs>
</svg>
