<svg xmlns="http://www.w3.org/2000/svg" fill="none" viewBox="0 0 408 520">
    <defs/>
    <path stroke="#567BFF" stroke-dasharray=".5 16" stroke-linecap="round" stroke-linejoin="round" stroke-width="4" d="M375.5 298.5l-171.5-98M204 200.5l-171.5 98" opacity=".7"/>
    <path stroke="url(#ioniconf_logo_paint0_linear)" stroke-dasharray=".5 16" stroke-linecap="round" stroke-linejoin="round" stroke-width="4" d="M204 2v199" opacity=".7"/>
    <circle cx="204" cy="200" r="108" stroke="url(#ioniconf_logo_paint1_linear)" stroke-width="4" opacity=".8"/>
    <g filter="url(#ioniconf_logo_filter0_d)">
        <circle cx="280" cy="123" r="16" fill="url(#ioniconf_logo_paint2_linear)" fill-opacity=".8"/>
    </g>
    <circle cx="204" cy="200" r="44" fill="url(#ioniconf_logo_paint3_linear)"/>
    <path stroke="url(#ioniconf_logo_paint4_linear)" stroke-width="4" d="M202.83 2.31h.01l.02-.02c.35-.21.7-.29 1.14-.29.43 0 .79.08 1.14.3h.02l.01.01 169.66 97.83.02.01h.01a2.31 2.31 0 011.14 2.02v195.66c0 .88-.48 1.65-1.14 2.01h-.01l-.02.02-169.66 97.83h-.01l-.02.02c-.35.21-.7.29-1.14.29-.43 0-.79-.08-1.14-.3h-.02l-.01-.01-169.66-97.83-.02-.01h-.01a2.31 2.31 0 01-1.14-2.02V102.17c0-.77.39-1.48 1.23-2.06l169.6-97.8z"/>
    <path stroke="url(#ioniconf_logo_paint5_linear)" stroke-linejoin="round" stroke-miterlimit="10" stroke-width="4" d="M204 397V200"/>
    <path stroke="url(#ioniconf_logo_paint6_linear)" stroke-width="4" d="M32.17 101.76l169.66 97.8a4.1 4.1 0 002.17.57 4.1 4.1 0 002.17-.58l169.66-97.8"/>
    <path fill="#fff" d="M5.1 419.67c2.88 0 5.11-2.1 5.11-4.99a4.96 4.96 0 00-5.1-5.12c-3.02 0-5.11 2.1-5.11 5.12 0 2.89 2.1 4.99 5.1 4.99zm-3.14 74.75h6.16v-66.14H1.96v66.15zM47.79 496c20.68 0 33.24-16.67 33.24-34.65 0-17.98-12.56-34.65-33.24-34.65-20.69 0-33.25 16.67-33.25 34.65 0 17.98 12.56 34.65 33.25 34.65zm-26.97-34.65c0-16.01 10.47-29 26.97-29 16.49 0 26.96 12.99 26.96 29 0 16.01-10.47 29-26.96 29-16.5 0-26.97-12.99-26.97-29zM95.06 428.28h-6.15v66.15h6.15v-39.9c0-14.83 10.08-22.31 22-22.31 13.21 0 19.5 8 19.5 21.39v40.81h6.15v-42.65c0-14.3-8.64-25.07-25.14-25.07-14 0-20.55 8.54-22.5 12.34v-10.76zM155.05 419.67c2.88 0 5.1-2.1 5.1-4.99a4.96 4.96 0 00-5.1-5.12c-3.02 0-5.1 2.1-5.1 5.12 0 2.89 2.09 4.99 5.1 4.99zm-3.15 74.75h6.16v-66.14h-6.16v66.15zM164.87 460.43c0 19.69 13.88 35.57 33.9 35.57 20.16 0 30.37-14.04 32.2-26.25H215c-1.83 7.35-7.98 12.47-16.36 12.47-11.12 0-18.2-9.06-18.2-21.79 0-12.86 7.08-21.91 18.2-21.91 8.38 0 14.53 5.11 16.36 12.46h15.97c-1.83-12.2-12.04-26.25-32.2-26.25-20.02 0-33.9 15.89-33.9 35.7zM269.28 496c21.73 0 35.34-16.4 35.34-35.57 0-19.16-13.61-35.7-35.34-35.7-21.6 0-35.21 16.54-35.21 35.7 0 19.17 13.61 35.57 35.2 35.57zm-19.64-35.57c0-13.25 8.38-21.91 19.64-21.91 11.39 0 19.76 8.66 19.76 21.91 0 13.13-8.37 21.79-19.76 21.79-11.26 0-19.64-8.66-19.64-21.79zM326.1 426.31h-14.4v68.12h15.58v-39.5c0-10.64 6.16-16.8 15.97-16.8 9.3 0 13.48 6.16 13.48 15.48v40.81h15.58v-42.78c0-15.88-8.77-26.9-25.26-26.9-11.13 0-18.07 5.25-20.95 10.63v-9.06zM379.58 438.78v55.65h15.58v-55.65H408V426.3h-12.84v-2.3c0-7.47 2.48-10.1 8.77-10.1H408v-13.37s-4.22-.54-7.23-.54c-12.96 0-21.19 7.09-21.19 23.1v15.68zM341.54 516.5l3.03-3.02c1.5-1.52 2.5-2.55 3-3.1a9.3 9.3 0 001.37-1.75c.25-.45.38-.98.38-1.6a2.2 2.2 0 00-.72-1.64 2.68 2.68 0 00-1.95-.7 2.6 2.6 0 00-1.84.68c-.47.43-.77.93-.92 1.51l-2.4-.98a4.99 4.99 0 012.67-3.12 5.42 5.42 0 012.54-.58c1.04 0 1.96.22 2.76.65.82.41 1.44.99 1.88 1.73.44.72.67 1.52.67 2.4a5.5 5.5 0 01-.75 2.73c-.48.87-1.1 1.67-1.84 2.43-.32.3-1.13 1.1-2.43 2.4l-1.97 1.96.05.1h7.15v2.4h-10.68v-2.5zM361.37 519.38a5.84 5.84 0 01-3.56-1.12 7.49 7.49 0 01-2.37-3.1 11.3 11.3 0 01-.82-4.37c0-1.61.27-3.07.82-4.37a7.29 7.29 0 012.37-3.1 5.84 5.84 0 013.56-1.12c1.34 0 2.52.38 3.52 1.13a7.12 7.12 0 012.36 3.1c.56 1.29.84 2.75.84 4.36 0 1.6-.28 3.06-.84 4.37a7.3 7.3 0 01-2.36 3.1 5.8 5.8 0 01-3.52 1.12zm0-2.5c.81 0 1.52-.26 2.13-.78a5.04 5.04 0 001.42-2.19c.33-.93.5-1.97.5-3.12 0-1.15-.17-2.19-.5-3.12a4.86 4.86 0 00-1.42-2.18c-.6-.53-1.32-.8-2.13-.8-.84 0-1.56.27-2.16.8a5.13 5.13 0 00-1.42 2.18 9.53 9.53 0 00-.48 3.12c0 1.15.16 2.2.48 3.12.34.91.8 1.64 1.42 2.19.6.52 1.32.79 2.16.79zM370.23 516.5l3.02-3.02c1.5-1.52 2.5-2.55 3-3.1a9.3 9.3 0 001.37-1.75c.26-.45.39-.98.39-1.6a2.2 2.2 0 00-.72-1.64 2.68 2.68 0 00-1.95-.7 2.6 2.6 0 00-1.85.68c-.46.43-.76.93-.9 1.51l-2.4-.98a4.99 4.99 0 012.66-3.12 5.42 5.42 0 012.54-.58c1.04 0 1.96.22 2.76.65.82.41 1.44.99 1.87 1.73.45.72.67 1.52.67 2.4a5.5 5.5 0 01-.74 2.73c-.48.87-1.1 1.67-1.85 2.43-.32.3-1.13 1.1-2.42 2.4l-1.97 1.96.05.1h7.15v2.4h-10.68v-2.5zM390.05 519.38a5.84 5.84 0 01-3.55-1.12 7.49 7.49 0 01-2.38-3.1 11.3 11.3 0 01-.81-4.37c0-1.61.27-3.07.81-4.37a7.29 7.29 0 012.38-3.1 5.84 5.84 0 013.55-1.12c1.35 0 2.52.38 3.53 1.13a7.12 7.12 0 012.35 3.1c.56 1.29.84 2.75.84 4.36 0 1.6-.28 3.06-.84 4.37a7.3 7.3 0 01-2.35 3.1 5.8 5.8 0 01-3.53 1.12zm0-2.5c.82 0 1.53-.26 2.14-.78a5.04 5.04 0 001.42-2.19c.33-.93.5-1.97.5-3.12 0-1.15-.17-2.19-.5-3.12a4.86 4.86 0 00-1.42-2.18c-.6-.53-1.32-.8-2.14-.8-.83 0-1.55.27-2.16.8a5.13 5.13 0 00-1.41 2.18 9.53 9.53 0 00-.48 3.12c0 1.15.16 2.2.48 3.12.33.91.8 1.64 1.41 2.19.61.52 1.33.79 2.16.79z"/>
    <defs>
        <linearGradient id="ioniconf_logo_paint0_linear" x1="204" x2="204" y1="3" y2="201" gradientUnits="userSpaceOnUse">
            <stop stop-color="#59BAFF"/>
            <stop offset="1" stop-color="#5697FF"/>
        </linearGradient>
        <linearGradient id="ioniconf_logo_paint1_linear" x1="204" x2="204" y1="90" y2="310" gradientUnits="userSpaceOnUse">
            <stop stop-color="#FF56C7"/>
            <stop offset="1" stop-color="#5CFFE2" stop-opacity=".8"/>
        </linearGradient>
        <linearGradient id="ioniconf_logo_paint2_linear" x1="280" x2="280" y1="107" y2="139" gradientUnits="userSpaceOnUse">
            <stop stop-color="#37CFFF"/>
            <stop offset="1" stop-color="#556AFF"/>
        </linearGradient>
        <linearGradient id="ioniconf_logo_paint3_linear" x1="204" x2="204" y1="156" y2="244" gradientUnits="userSpaceOnUse">
            <stop stop-color="#A04EFF"/>
            <stop offset="1" stop-color="#0BF" stop-opacity=".7"/>
        </linearGradient>
        <linearGradient id="ioniconf_logo_paint4_linear" x1="204" x2="204" y1="0" y2="400" gradientUnits="userSpaceOnUse">
            <stop stop-color="#58CFFF"/>
            <stop offset=".27" stop-color="#56A5FF"/>
            <stop offset="1" stop-color="#5E5EFF"/>
        </linearGradient>
        <linearGradient id="ioniconf_logo_paint5_linear" x1="204.5" x2="204.5" y1="200" y2="397" gradientUnits="userSpaceOnUse">
            <stop stop-color="#2CEDA8"/>
            <stop offset=".52" stop-color="#4DC8FF"/>
            <stop offset="1" stop-color="#5E5FFF"/>
        </linearGradient>
        <linearGradient id="ioniconf_logo_paint6_linear" x1="34.5" x2="376" y1="104" y2="104" gradientUnits="userSpaceOnUse">
            <stop stop-color="#56A4FF"/>
            <stop offset=".49" stop-color="#2BEDA7"/>
            <stop offset="1" stop-color="#56A4FF"/>
        </linearGradient>
        <filter id="ioniconf_logo_filter0_d" width="64" height="64" x="248" y="91" color-interpolation-filters="sRGB" filterUnits="userSpaceOnUse">
            <feFlood flood-opacity="0" result="BackgroundImageFix"/>
            <feColorMatrix in="SourceAlpha" type="matrix" values="0 0 0 0 0 0 0 0 0 0 0 0 0 0 0 0 0 0 127 0"/>
            <feOffset/>
            <feGaussianBlur stdDeviation="8"/>
            <feColorMatrix type="matrix" values="0 0 0 0 0.00392157 0 0 0 0 0.0235294 0 0 0 0 0.0627451 0 0 0 1 0"/>
            <feBlend in2="BackgroundImageFix" mode="normal" result="effect1_dropShadow"/>
            <feBlend in="SourceGraphic" in2="effect1_dropShadow" mode="normal" result="shape"/>
        </filter>
    </defs>
</svg>
