<svg width="96" height="176" fill="none" viewBox="17 0 96 176" xmlns="http://www.w3.org/2000/svg">
    <circle cx="32" cy="88" r="64" fill="#6C9DFF" opacity=".3"/>
    <circle cx="32" cy="88" r="52" fill="#6C9DFF" opacity=".3"/>
    <circle cx="32" cy="88" r="38" fill="#6C9DFF"/>
    <path d="M49.5 82.75h5.25a1.75 1.75 0 000-3.5H49.5a1.75 1.75 0 000 3.5zM46.42 75.33a1.74 1.74 0 001.23-.5l3.72-3.72a1.75 1.75 0 00-2.48-2.48l-3.71 3.72a1.75 1.75 0 001.24 2.98zM39 72.25a1.75 1.75 0 001.75-1.75v-5.25a1.75 1.75 0 00-3.5 0v5.25A1.75 1.75 0 0039 72.25zM31.56 75.33a1.75 1.75 0 001.24-2.98l-3.71-3.72a1.75 1.75 0 10-2.48 2.48l3.72 3.71a1.74 1.74 0 001.23.51zM50.13 93.9a1.75 1.75 0 001.24-3l-3.72-3.7a1.75 1.75 0 00-2.47 2.47l3.71 3.71c.33.33.77.51 1.24.51zM36.05 76.6a2.84 2.84 0 014.02 0l3.33 3.33a2.84 2.84 0 010 4.03l-6.23 6.23a.44.44 0 01-.62 0l-6.74-6.74a.44.44 0 010-.62l6.24-6.22zM8.34 104.3l18.38-18.38a.44.44 0 01.62 0l6.74 6.74a.44.44 0 010 .62l-18.39 18.38a2.84 2.84 0 01-4.02 0l-3.33-3.33a2.85 2.85 0 010-4.02z" fill="#D9F1FF"/>
</svg>
