<svg width="312" height="224" fill="none" xmlns="http://www.w3.org/2000/svg"><rect width="100%" height="100%" rx="6" fill="#A4AEFD"/><path opacity=".5" d="M147 78.75C152.86 57.2 174.98 44.2 223.14 44a6.21 6.21 0 014.15 1.6 5.12 5.12 0 011.7 3.87v96.24c.01 1.45-.6 2.83-1.7 3.86a6.08 6.08 0 01-4.15 1.6c-46.85 0-64.96 11.8-76.14 24.83V78.75z" fill="#fff"/><path d="M156 86c5.29-21.05 25.25-31.8 68.71-32a5.22 5.22 0 014.9 3.29c.26.65.4 1.34.39 2.04v96c0 1.42-.56 2.77-1.55 3.77s-2.33 1.57-3.74 1.57c-42.28 0-58.62 8.6-68.71 21.33-10.03-12.67-26.43-21.33-68.71-21.33-3.27 0-5.29-2.69-5.29-5.98V59.33a5.35 5.35 0 013.26-4.93c.64-.27 1.33-.4 2.03-.4 43.46.2 63.42 10.95 68.71 32zM156 86v96" stroke="#001665" stroke-width="8" stroke-linecap="round" stroke-linejoin="round"/></svg>