<svg width="312" height="224" fill="none" xmlns="http://www.w3.org/2000/svg"><rect width="100%" height="100%" rx="6" fill="#D1EBFF"/><path opacity=".6" d="M192.5 67h-99A13.5 13.5 0 0080 80.5v90A13.5 13.5 0 0093.5 184h99a13.5 13.5 0 0013.5-13.5v-90A13.5 13.5 0 00192.5 67z" fill="#fff"/><path d="M206.29 53H105.7A13.71 13.71 0 0092 66.71v91.43c0 7.58 6.14 13.72 13.71 13.72H206.3c7.57 0 13.71-6.14 13.71-13.72V66.71c0-7.57-6.14-13.71-13.71-13.71z" stroke="#00135B" stroke-width="8" stroke-linejoin="round"/><path d="M110.29 71.29l22.85 18.28-22.85 18.29M137.71 107.86H156" stroke="#486FFF" stroke-width="8" stroke-linecap="round" stroke-linejoin="round"/></svg>