<svg width="11" height="16" viewBox="0 0 11 16" fill="none" xmlns="http://www.w3.org/2000/svg">
<path d="M11 4.57143C11 3.31071 10.0134 2.28571 8.8 2.28571C7.58656 2.28571 6.6 3.31071 6.6 4.57143C6.6 5.41786 7.04344 6.15357 7.7 6.55V6.85714C7.7 7.56786 7.43188 8.06071 6.83031 8.46071C6.30094 8.81071 5.52063 9.07143 4.51 9.22857C4.02875 9.30357 3.62656 9.44286 3.3 9.61071V4.26429C3.95656 3.86786 4.4 3.13214 4.4 2.28571C4.4 1.025 3.41344 0 2.2 0C0.986563 0 0 1.025 0 2.28571C0 3.13214 0.443437 3.86786 1.1 4.26429V11.7357C0.443437 12.1321 0 12.8679 0 13.7143C0 14.975 0.986563 16 2.2 16C3.41344 16 4.4 14.975 4.4 13.7143C4.4 13.1214 4.18344 12.5821 3.82594 12.175C3.89125 12 4.15938 11.5929 4.83656 11.4857C6.17031 11.2786 7.205 10.9179 8.00938 10.3857C9.24687 9.57143 9.9 8.35 9.9 6.85714V6.55C10.5566 6.15357 11 5.41786 11 4.57143ZM2.2 0.857143C2.95969 0.857143 3.575 1.49643 3.575 2.28571C3.575 3.075 2.95969 3.71429 2.2 3.71429C1.44031 3.71429 0.825 3.075 0.825 2.28571C0.825 1.49643 1.44031 0.857143 2.2 0.857143ZM2.2 15.1429C1.44031 15.1429 0.825 14.5036 0.825 13.7143C0.825 12.925 1.44031 12.2857 2.2 12.2857C2.95969 12.2857 3.575 12.925 3.575 13.7143C3.575 14.5036 2.95969 15.1429 2.2 15.1429ZM8.8 6C8.04031 6 7.425 5.36071 7.425 4.57143C7.425 3.78214 8.04031 3.14286 8.8 3.14286C9.55969 3.14286 10.175 3.78214 10.175 4.57143C10.175 5.36071 9.55969 6 8.8 6Z" fill="#4E5B6A"/>
</svg>
