<svg width="16" height="16" viewBox="0 0 16 16" fill="none" xmlns="http://www.w3.org/2000/svg">
<path d="M8 0C3.58214 0 0 3.675 0 8.20357C0 11.8286 2.29286 14.9 5.47143 15.9857C5.52143 15.9964 5.56429 16 5.60714 16C5.90357 16 6.01786 15.7821 6.01786 15.5929C6.01786 15.3964 6.01071 14.8821 6.00714 14.1964C5.70714 14.2643 5.43929 14.2929 5.2 14.2929C3.66071 14.2929 3.31071 13.0964 3.31071 13.0964C2.94643 12.15 2.42143 11.8964 2.42143 11.8964C1.725 11.4071 2.41786 11.3929 2.47143 11.3929H2.475C3.27857 11.4643 3.7 12.2429 3.7 12.2429C4.1 12.9429 4.63571 13.1393 5.11429 13.1393C5.48929 13.1393 5.82857 13.0179 6.02857 12.925C6.1 12.3964 6.30714 12.0357 6.53571 11.8286C4.76071 11.6214 2.89286 10.9179 2.89286 7.775C2.89286 6.87857 3.20357 6.14643 3.71429 5.575C3.63214 5.36786 3.35714 4.53214 3.79286 3.40357C3.79286 3.40357 3.85 3.38571 3.97143 3.38571C4.26071 3.38571 4.91429 3.49643 5.99286 4.24643C6.63214 4.06429 7.31429 3.975 7.99643 3.97143C8.675 3.975 9.36071 4.06429 10 4.24643C11.0786 3.49643 11.7321 3.38571 12.0214 3.38571C12.1429 3.38571 12.2 3.40357 12.2 3.40357C12.6357 4.53214 12.3607 5.36786 12.2786 5.575C12.7893 6.15 13.1 6.88214 13.1 7.775C13.1 10.925 11.2286 11.6179 9.44643 11.8214C9.73214 12.075 9.98929 12.575 9.98929 13.3393C9.98929 14.4357 9.97857 15.3214 9.97857 15.5893C9.97857 15.7821 10.0893 16 10.3857 16C10.4286 16 10.4786 15.9964 10.5286 15.9857C13.7107 14.9 16 11.825 16 8.20357C16 3.675 12.4179 0 8 0Z" fill="#4E5B6A"/>
</svg>
