<svg width="528" height="608" viewBox="0 0 528 608" fill="none" xmlns="http://www.w3.org/2000/svg">
<g filter="url(#filter0_dd)">
<rect x="24" y="11.9999" width="480" height="560" rx="16" fill="#071B35"/>
<rect x="24.5" y="12.4999" width="479" height="559" rx="15.5" stroke="black"/>
</g>
<path d="M63.2666 108.959V107.653L57.3877 111.119V112.131L63.2666 115.597V114.291L58.5635 111.686V111.563L63.2666 108.959ZM87.6269 111.563V111.686L82.9306 114.291V115.597L88.8095 112.131V111.119L82.9306 107.653V108.959L87.6269 111.563ZM91.1509 106.136V116H93.9127C96.7086 116 98.1168 114.346 98.1168 111.051C98.1168 107.783 96.7086 106.136 93.9127 106.136H91.1509ZM92.3609 107.243H93.8033C95.8882 107.243 96.8863 108.474 96.8863 111.057C96.8863 113.669 95.8951 114.892 93.8033 114.892H92.3609V107.243ZM103.029 106.765C103.575 106.765 103.992 106.354 103.992 105.807C103.992 105.267 103.575 104.857 103.029 104.857C102.482 104.857 102.065 105.267 102.065 105.807C102.065 106.354 102.482 106.765 103.029 106.765ZM106.139 116V115.036H103.685V108.583H100.014V109.547H102.536V115.036H99.9934V116H106.139ZM108.713 110.586C108.713 111.639 109.376 112.315 110.716 112.623L111.816 112.876C112.76 113.088 113.122 113.402 113.122 113.99C113.122 114.701 112.479 115.159 111.468 115.159C110.511 115.159 109.854 114.763 109.683 114.079H108.501C108.631 115.35 109.745 116.137 111.427 116.137C113.183 116.137 114.325 115.248 114.325 113.881C114.325 112.807 113.669 112.179 112.226 111.85L111.181 111.611C110.251 111.406 109.868 111.085 109.868 110.517C109.868 109.841 110.476 109.403 111.42 109.403C112.288 109.403 112.91 109.8 113.047 110.449H114.168C114.031 109.212 112.985 108.439 111.44 108.439C109.806 108.439 108.713 109.301 108.713 110.586ZM123.017 110.893C122.826 109.369 121.705 108.439 120.064 108.439C118.047 108.439 116.872 109.677 116.872 111.803V112.773C116.872 114.899 118.047 116.137 120.064 116.137C121.705 116.137 122.833 115.214 123.017 113.703H121.869C121.725 114.551 121 115.091 120.043 115.091C118.751 115.091 118.034 114.216 118.034 112.623V111.953C118.034 110.36 118.751 109.478 120.043 109.478C121 109.478 121.725 110.025 121.869 110.893H123.017ZM128.442 116.137C130.403 116.137 131.654 114.858 131.654 112.855V111.734C131.654 109.731 130.403 108.453 128.442 108.453C126.48 108.453 125.229 109.731 125.229 111.734V112.855C125.229 114.858 126.48 116.137 128.442 116.137ZM128.442 109.478C129.713 109.478 130.506 110.381 130.506 111.837V112.746C130.506 114.209 129.713 115.104 128.442 115.104C127.17 115.104 126.377 114.209 126.377 112.746V111.837C126.377 110.381 127.17 109.478 128.442 109.478ZM133.606 108.583L136.32 116H137.598L140.305 108.583H139.068L137.011 114.756H136.922L134.85 108.583H133.606ZM145.552 109.444C146.748 109.444 147.473 110.299 147.473 111.714H143.57C143.57 110.292 144.315 109.444 145.552 109.444ZM147.473 114.086C147.268 114.735 146.578 115.132 145.641 115.132C144.376 115.132 143.57 114.257 143.57 112.896V112.596H148.621V111.871C148.621 109.724 147.487 108.446 145.559 108.446C143.672 108.446 142.421 109.731 142.421 111.686V112.801C142.421 114.913 143.604 116.137 145.641 116.137C147.2 116.137 148.375 115.309 148.601 114.086H147.473ZM153.677 110.476V108.583H150.908V109.513H152.556V115.07H151.059V116H155.987V115.07H153.69V112.678C153.69 110.791 154.661 109.656 156.302 109.656C156.705 109.656 157.184 109.738 157.525 109.861V108.556C157.279 108.453 156.876 108.391 156.452 108.391C155.023 108.391 154.101 109.102 153.827 110.476H153.677ZM165.438 108.959V107.653L159.559 111.119V112.131L165.438 115.597V114.291L160.735 111.686V111.563L165.438 108.959ZM169.174 116.936L173.987 105.199H172.845L168.039 116.936H169.174ZM198.313 111.563V111.686L193.616 114.291V115.597L199.495 112.131V111.119L193.616 107.653V108.959L198.313 111.563ZM63.2666 136.959V135.653L57.3877 139.119V140.131L63.2666 143.597V142.291L58.5635 139.686V139.563L63.2666 136.959ZM87.6269 139.563V139.686L82.9306 142.291V143.597L88.8095 140.131V139.119L82.9306 135.653V136.959L87.6269 139.563ZM91.814 140.22L91.7457 136.221H91.8345L93.9127 141.682H94.856L96.9341 136.221H97.023L96.9546 140.22V144H98.0347V134.136H96.7017L94.4322 140.24H94.3433L92.067 134.136H90.7339V144H91.814V140.22ZM105.934 136.583H104.772V140.951C104.772 142.216 103.951 143.07 102.728 143.07C101.572 143.07 101.026 142.441 101.026 141.101V136.583H99.8635V141.395C99.8635 143.173 100.738 144.137 102.352 144.137C103.48 144.137 104.327 143.617 104.724 142.694H104.82V144H105.934V136.583ZM108.713 138.586C108.713 139.639 109.376 140.315 110.716 140.623L111.816 140.876C112.76 141.088 113.122 141.402 113.122 141.99C113.122 142.701 112.479 143.159 111.468 143.159C110.511 143.159 109.854 142.763 109.683 142.079H108.501C108.631 143.35 109.745 144.137 111.427 144.137C113.183 144.137 114.325 143.248 114.325 141.881C114.325 140.807 113.669 140.179 112.226 139.85L111.181 139.611C110.251 139.406 109.868 139.085 109.868 138.517C109.868 137.841 110.476 137.403 111.42 137.403C112.288 137.403 112.91 137.8 113.047 138.449H114.168C114.031 137.212 112.985 136.439 111.44 136.439C109.806 136.439 108.713 137.301 108.713 138.586ZM120.057 134.765C120.604 134.765 121.021 134.354 121.021 133.807C121.021 133.267 120.604 132.857 120.057 132.857C119.51 132.857 119.093 133.267 119.093 133.807C119.093 134.354 119.51 134.765 120.057 134.765ZM123.167 144V143.036H120.713V136.583H117.042V137.547H119.565V143.036H117.022V144H123.167ZM131.531 138.893C131.34 137.369 130.219 136.439 128.578 136.439C126.562 136.439 125.386 137.677 125.386 139.803V140.773C125.386 142.899 126.562 144.137 128.578 144.137C130.219 144.137 131.347 143.214 131.531 141.703H130.383C130.239 142.551 129.515 143.091 128.558 143.091C127.266 143.091 126.548 142.216 126.548 140.623V139.953C126.548 138.36 127.266 137.478 128.558 137.478C129.515 137.478 130.239 138.025 130.383 138.893H131.531ZM149.476 136.583H148.341L147.336 142.53H147.213L146.017 136.59H144.923L143.727 142.53H143.604L142.599 136.583H141.464L143.057 144H144.171L145.429 138.217H145.511L146.769 144H147.883L149.476 136.583ZM154.066 137.444C155.263 137.444 155.987 138.299 155.987 139.714H152.084C152.084 138.292 152.829 137.444 154.066 137.444ZM155.987 142.086C155.782 142.735 155.092 143.132 154.155 143.132C152.891 143.132 152.084 142.257 152.084 140.896V140.596H157.136V139.871C157.136 137.724 156.001 136.446 154.073 136.446C152.187 136.446 150.936 137.731 150.936 139.686V140.801C150.936 142.913 152.118 144.137 154.155 144.137C155.714 144.137 156.89 143.309 157.115 142.086H155.987ZM169.748 134.594V136.603H167.773V137.595H169.748V141.792C169.748 143.337 170.603 144.034 172.442 144.034C172.797 144.034 173.7 144 173.884 143.966V142.981C173.686 143.002 172.941 143.022 172.524 143.022C171.478 143.022 170.91 142.585 170.91 141.778V137.595H173.905V136.603H170.897V134.594H169.748ZM176.485 144H177.647V139.639C177.647 138.374 178.475 137.519 179.698 137.519C180.86 137.519 181.407 138.155 181.407 139.488V144H182.569V139.194C182.569 137.424 181.694 136.453 180.081 136.453C178.946 136.453 178.092 136.973 177.702 137.895H177.606V133.671H176.485V144ZM188.171 134.765C188.718 134.765 189.135 134.354 189.135 133.807C189.135 133.267 188.718 132.857 188.171 132.857C187.625 132.857 187.208 133.267 187.208 133.807C187.208 134.354 187.625 134.765 188.171 134.765ZM191.282 144V143.036H188.828V136.583H185.157V137.547H187.679V143.036H185.136V144H191.282ZM193.521 144H194.683V139.632C194.683 138.367 195.503 137.513 196.727 137.513C197.882 137.513 198.429 138.141 198.429 139.481V144H199.591V139.187C199.591 137.41 198.716 136.446 197.103 136.446C195.975 136.446 195.127 136.966 194.731 137.889H194.635V136.583H193.521V144ZM208.68 144L205.597 139.516L208.474 136.583H207.066L203.833 139.912H203.744V133.671H202.582V144H203.744V141.3L204.763 140.315L207.299 144H208.68ZM220.021 146.639C221.395 146.639 222.017 146.099 222.666 144.273L225.462 136.583H224.225L222.153 142.79H222.065L219.986 136.583H218.722L221.449 144.048L221.319 144.451C221.012 145.312 220.629 145.627 219.932 145.627C219.822 145.627 219.611 145.62 219.522 145.599V146.618C219.624 146.632 219.85 146.639 220.021 146.639ZM230.613 144.137C232.575 144.137 233.826 142.858 233.826 140.855V139.734C233.826 137.731 232.575 136.453 230.613 136.453C228.651 136.453 227.4 137.731 227.4 139.734V140.855C227.4 142.858 228.651 144.137 230.613 144.137ZM230.613 137.478C231.885 137.478 232.678 138.381 232.678 139.837V140.746C232.678 142.209 231.885 143.104 230.613 143.104C229.342 143.104 228.549 142.209 228.549 140.746V139.837C228.549 138.381 229.342 137.478 230.613 137.478ZM242.163 136.583H241V140.951C241 142.216 240.18 143.07 238.956 143.07C237.801 143.07 237.254 142.441 237.254 141.101V136.583H236.092V141.395C236.092 143.173 236.967 144.137 238.581 144.137C239.708 144.137 240.556 143.617 240.953 142.694H241.048V144H242.163V136.583ZM248.257 138.456V134.136H247.033V138.456H248.257ZM259.396 144V143.036H256.949V133.671H253.271V134.635H255.787V143.036H253.251V144H259.396ZM267.911 144V143.036H265.463V133.671H261.786V134.635H264.301V143.036H261.765V144H267.911ZM284.939 144V143.036H282.492V133.671H278.814V134.635H281.33V143.036H278.794V144H284.939ZM290.213 144.137C292.175 144.137 293.426 142.858 293.426 140.855V139.734C293.426 137.731 292.175 136.453 290.213 136.453C288.251 136.453 287 137.731 287 139.734V140.855C287 142.858 288.251 144.137 290.213 144.137ZM290.213 137.478C291.485 137.478 292.278 138.381 292.278 139.837V140.746C292.278 142.209 291.485 143.104 290.213 143.104C288.942 143.104 288.149 142.209 288.149 140.746V139.837C288.149 138.381 288.942 137.478 290.213 137.478ZM295.378 136.583L298.092 144H299.37L302.077 136.583H300.84L298.782 142.756H298.693L296.622 136.583H295.378ZM307.324 137.444C308.52 137.444 309.245 138.299 309.245 139.714H305.341C305.341 138.292 306.086 137.444 307.324 137.444ZM309.245 142.086C309.04 142.735 308.349 143.132 307.413 143.132C306.148 143.132 305.341 142.257 305.341 140.896V140.596H310.393V139.871C310.393 137.724 309.258 136.446 307.331 136.446C305.444 136.446 304.193 137.731 304.193 139.686V140.801C304.193 142.913 305.376 144.137 307.413 144.137C308.971 144.137 310.147 143.309 310.373 142.086H309.245ZM315.756 144.041C316.433 144.041 316.993 143.474 316.993 142.776C316.993 142.086 316.433 141.518 315.756 141.518C315.079 141.518 314.519 142.086 314.519 142.776C314.519 143.474 315.079 144.041 315.756 144.041ZM327.21 136.959V135.653L321.331 139.119V140.131L327.21 143.597V142.291L322.507 139.686V139.563L327.21 136.959ZM330.946 144.936L335.758 133.199H334.617L329.811 144.936H330.946ZM360.084 139.563V139.686L355.388 142.291V143.597L361.267 140.131V139.119L355.388 135.653V136.959L360.084 139.563ZM63.2666 164.959V163.653L57.3877 167.119V168.131L63.2666 171.597V170.291L58.5635 167.686V167.563L63.2666 164.959ZM130.198 167.563V167.686L125.502 170.291V171.597L131.381 168.131V167.119L125.502 163.653V164.959L130.198 167.563ZM80.0218 200.936V200H79.2766C78.2512 200 78.053 199.761 78.053 198.571V196.746C78.053 195.789 77.3352 195.153 75.9475 195.126V195.016C77.3352 194.982 78.053 194.347 78.053 193.39V191.564C78.053 190.375 78.2512 190.136 79.2766 190.136H80.0218V189.199H79.0921C77.4309 189.199 76.9046 189.725 76.9046 191.414V192.945C76.9046 194.005 76.2893 194.613 74.6897 194.449V195.686C76.2893 195.522 76.9046 196.138 76.9046 197.19V198.722C76.9046 200.41 77.4309 200.936 79.0921 200.936H80.0218ZM136.956 200.041C137.633 200.041 138.193 199.474 138.193 198.776C138.193 198.086 137.633 197.518 136.956 197.518C136.279 197.518 135.719 198.086 135.719 198.776C135.719 199.474 136.279 200.041 136.956 200.041ZM169.523 195.064C169.523 197.389 170.22 199.398 171.58 200.943H172.736C171.321 198.954 170.726 197.211 170.726 195.064C170.726 192.918 171.321 191.175 172.736 189.185H171.58C170.22 190.73 169.523 192.747 169.523 195.064ZM178.775 200.13C179.855 200.13 180.662 199.685 181.018 198.892H181.134V200.007H182.241V194.928C182.241 193.383 181.243 192.494 179.5 192.494C177.982 192.494 176.834 193.307 176.697 194.497H177.839C178.03 193.861 178.632 193.499 179.486 193.499C180.519 193.499 181.086 194.012 181.086 194.941V195.611L179.049 195.714C177.36 195.803 176.417 196.582 176.417 197.894C176.417 199.241 177.36 200.13 178.775 200.13ZM179.11 199.111C178.174 199.111 177.593 198.633 177.593 197.853C177.593 197.081 178.14 196.637 179.179 196.589L181.086 196.5V197.375C181.086 198.366 180.231 199.111 179.11 199.111ZM191.282 200V199.036H188.835V189.671H185.157V190.635H187.672V199.036H185.136V200H191.282ZM197.021 200.123C198.737 200.123 199.858 198.886 199.858 196.978V195.598C199.858 193.697 198.737 192.46 197.021 192.46C195.947 192.46 195.161 192.918 194.833 193.731H194.71V189.671H193.528V200H194.669V198.865H194.799C195.182 199.685 195.961 200.123 197.021 200.123ZM196.679 199.063C195.462 199.063 194.683 198.188 194.683 196.814V195.748C194.683 194.381 195.462 193.506 196.679 193.506C197.909 193.506 198.689 194.381 198.689 195.748V196.814C198.689 198.182 197.909 199.063 196.679 199.063ZM208.105 192.583H206.943V196.951C206.943 198.216 206.123 199.07 204.899 199.07C203.744 199.07 203.197 198.441 203.197 197.101V192.583H202.035V197.395C202.035 199.173 202.91 200.137 204.523 200.137C205.651 200.137 206.499 199.617 206.895 198.694H206.991V200H208.105V192.583ZM217.16 194.538C217.16 193.164 216.62 192.446 215.587 192.446C214.842 192.446 214.248 192.897 214.056 193.608H213.933C213.776 192.877 213.284 192.446 212.586 192.446C211.889 192.446 211.356 192.884 211.171 193.629H211.048V192.583H210.009V200H211.055V194.996C211.055 194.073 211.465 193.506 212.122 193.506C212.751 193.506 213.079 193.977 213.079 194.873V200H214.118V194.996C214.118 194.073 214.514 193.506 215.164 193.506C215.786 193.506 216.114 193.977 216.114 194.88V200H217.16V194.538ZM97.3238 220.959V219.653L91.4449 223.119V224.131L97.3238 227.597V226.291L92.6207 223.686V223.563L97.3238 220.959ZM174.622 228L171.539 223.516L174.417 220.583H173.009L169.776 223.912H169.687V217.671H168.525V228H169.687V225.3L170.705 224.315L173.242 228H174.622ZM179.609 221.444C180.806 221.444 181.53 222.299 181.53 223.714H177.627C177.627 222.292 178.372 221.444 179.609 221.444ZM181.53 226.086C181.325 226.735 180.635 227.132 179.698 227.132C178.434 227.132 177.627 226.257 177.627 224.896V224.596H182.679V223.871C182.679 221.724 181.544 220.446 179.616 220.446C177.729 220.446 176.478 221.731 176.478 223.686V224.801C176.478 226.913 177.661 228.137 179.698 228.137C181.257 228.137 182.433 227.309 182.658 226.086H181.53ZM185.963 230.639C187.338 230.639 187.96 230.099 188.609 228.273L191.405 220.583H190.168L188.096 226.79H188.007L185.929 220.583H184.665L187.392 228.048L187.262 228.451C186.955 229.312 186.572 229.627 185.875 229.627C185.765 229.627 185.553 229.62 185.464 229.599V230.618C185.567 230.632 185.793 230.639 185.963 230.639ZM256.156 228.041C256.833 228.041 257.393 227.474 257.393 226.776C257.393 226.086 256.833 225.518 256.156 225.518C255.479 225.518 254.919 226.086 254.919 226.776C254.919 227.474 255.479 228.041 256.156 228.041ZM279.963 228.936C281.624 228.936 282.15 228.41 282.15 226.722V225.19C282.15 224.138 282.765 223.522 284.365 223.686V222.449C282.765 222.613 282.15 222.005 282.15 220.945V219.414C282.15 217.725 281.624 217.199 279.963 217.199H279.033V218.136H279.778C280.803 218.136 281.002 218.375 281.002 219.564V221.39C281.002 222.347 281.719 222.982 283.107 223.016V223.126C281.719 223.153 281.002 223.789 281.002 224.746V226.571C281.002 227.761 280.803 228 279.778 228H279.033V228.936H279.963ZM291.97 223.563V223.686L287.274 226.291V227.597L293.153 224.131V223.119L287.274 219.653V220.959L291.97 223.563ZM114.352 248.959V247.653L108.473 251.119V252.131L114.352 255.597V254.291L109.649 251.686V251.563L114.352 248.959ZM227.913 250.586C227.913 251.639 228.576 252.315 229.916 252.623L231.016 252.876C231.96 253.088 232.322 253.402 232.322 253.99C232.322 254.701 231.679 255.159 230.668 255.159C229.711 255.159 229.054 254.763 228.884 254.079H227.701C227.831 255.35 228.945 256.137 230.627 256.137C232.384 256.137 233.525 255.248 233.525 253.881C233.525 252.807 232.869 252.179 231.427 251.85L230.381 251.611C229.451 251.406 229.068 251.085 229.068 250.517C229.068 249.841 229.677 249.403 230.62 249.403C231.488 249.403 232.11 249.8 232.247 250.449H233.368C233.231 249.212 232.185 248.439 230.64 248.439C229.007 248.439 227.913 249.301 227.913 250.586ZM242.368 256V255.036H239.92V245.671H236.243V246.635H238.758V255.036H236.222V256H242.368ZM247.642 256.137C249.604 256.137 250.855 254.858 250.855 252.855V251.734C250.855 249.731 249.604 248.453 247.642 248.453C245.68 248.453 244.429 249.731 244.429 251.734V252.855C244.429 254.858 245.68 256.137 247.642 256.137ZM247.642 249.478C248.913 249.478 249.706 250.381 249.706 251.837V252.746C249.706 254.209 248.913 255.104 247.642 255.104C246.37 255.104 245.577 254.209 245.577 252.746V251.837C245.577 250.381 246.37 249.478 247.642 249.478ZM254.891 246.594V248.603H252.916V249.595H254.891V253.792C254.891 255.337 255.746 256.034 257.585 256.034C257.94 256.034 258.842 256 259.027 255.966V254.981C258.829 255.002 258.084 255.022 257.667 255.022C256.621 255.022 256.053 254.585 256.053 253.778V249.595H259.048V248.603H256.04V246.594H254.891ZM334.541 251.563V251.686L329.845 254.291V255.597L335.724 252.131V251.119L329.845 247.653V248.959L334.541 251.563ZM131.381 276.959V275.653L125.502 279.119V280.131L131.381 283.597V282.291L126.678 279.686V279.563L131.381 276.959ZM168.313 278.586C168.313 279.639 168.976 280.315 170.316 280.623L171.416 280.876C172.36 281.088 172.722 281.402 172.722 281.99C172.722 282.701 172.079 283.159 171.068 283.159C170.111 283.159 169.454 282.763 169.284 282.079H168.101C168.231 283.35 169.345 284.137 171.027 284.137C172.784 284.137 173.925 283.248 173.925 281.881C173.925 280.807 173.269 280.179 171.826 279.85L170.781 279.611C169.851 279.406 169.468 279.085 169.468 278.517C169.468 277.841 170.076 277.403 171.02 277.403C171.888 277.403 172.51 277.8 172.647 278.449H173.768C173.631 277.212 172.585 276.439 171.04 276.439C169.407 276.439 168.313 277.301 168.313 278.586ZM179.22 278.476V276.583H176.451V277.513H178.099V283.07H176.602V284H181.53V283.07H179.233V280.678C179.233 278.791 180.204 277.656 181.845 277.656C182.248 277.656 182.727 277.738 183.068 277.861V276.556C182.822 276.453 182.419 276.391 181.995 276.391C180.566 276.391 179.644 277.102 179.37 278.476H179.22ZM191.131 278.893C190.94 277.369 189.819 276.439 188.178 276.439C186.162 276.439 184.986 277.677 184.986 279.803V280.773C184.986 282.899 186.162 284.137 188.178 284.137C189.819 284.137 190.947 283.214 191.131 281.703H189.983C189.839 282.551 189.115 283.091 188.158 283.091C186.866 283.091 186.148 282.216 186.148 280.623V279.953C186.148 278.36 186.866 277.478 188.158 277.478C189.115 277.478 189.839 278.025 189.983 278.893H191.131ZM256.156 284.041C256.833 284.041 257.393 283.474 257.393 282.776C257.393 282.086 256.833 281.518 256.156 281.518C255.479 281.518 254.919 282.086 254.919 282.776C254.919 283.474 255.479 284.041 256.156 284.041Z" fill="#CED6E0"/>
<path d="M65.7995 116H66.9616V111.639C66.9616 110.374 67.7887 109.519 69.0123 109.519C70.1745 109.519 70.7213 110.155 70.7213 111.488V116H71.8834V111.194C71.8834 109.424 71.0084 108.453 69.3952 108.453C68.2604 108.453 67.4059 108.973 67.0162 109.895H66.9205V105.671H65.7995V116ZM78.511 116H79.6116V113.915H81.1223V112.855H79.6184V110.053H78.5247V112.869H75.2913V112.78L78.593 106.136H77.3626L74.013 112.937V113.915H78.511V116Z" fill="#FF6F92"/>
<path d="M176.485 116H177.647V111.639C177.647 110.374 178.475 109.519 179.698 109.519C180.86 109.519 181.407 110.155 181.407 111.488V116H182.569V111.194C182.569 109.424 181.694 108.453 180.081 108.453C178.946 108.453 178.092 108.973 177.702 109.895H177.606V105.671H176.485V116ZM189.197 116H190.297V113.915H191.808V112.855H190.304V110.053H189.211V112.869H185.977V112.78L189.279 106.136H188.048L184.699 112.937V113.915H189.197V116ZM65.7995 144H66.9616V139.639C66.9616 138.374 67.7887 137.519 69.0123 137.519C70.1745 137.519 70.7213 138.155 70.7213 139.488V144H71.8834V139.194C71.8834 137.424 71.0084 136.453 69.3952 136.453C68.2604 136.453 67.4059 136.973 67.0162 137.895H66.9205V133.671H65.7995V144ZM74.2112 136.911V136.952H75.3733V136.911C75.3733 135.749 76.1253 134.99 77.26 134.99C78.4085 134.99 79.1536 135.687 79.1536 136.747C79.1536 137.526 78.8528 138.053 77.6018 139.454L74.2659 143.166V144H80.5071V142.906H75.9886V142.79L78.3128 140.261C79.885 138.545 80.3499 137.724 80.3499 136.699C80.3499 135.052 79.1057 133.931 77.2942 133.931C75.4964 133.931 74.2112 135.175 74.2112 136.911ZM338.257 144H339.419V139.639C339.419 138.374 340.246 137.519 341.47 137.519C342.632 137.519 343.179 138.155 343.179 139.488V144H344.341V139.194C344.341 137.424 343.466 136.453 341.853 136.453C340.718 136.453 339.863 136.973 339.474 137.895H339.378V133.671H338.257V144ZM346.669 136.911V136.952H347.831V136.911C347.831 135.749 348.583 134.99 349.718 134.99C350.866 134.99 351.611 135.687 351.611 136.747C351.611 137.526 351.31 138.053 350.059 139.454L346.723 143.166V144H352.965V142.906H348.446V142.79L350.77 140.261C352.343 138.545 352.807 137.724 352.807 136.699C352.807 135.052 351.563 133.931 349.752 133.931C347.954 133.931 346.669 135.175 346.669 136.911ZM85.1181 200.13C86.1982 200.13 87.0048 199.685 87.3603 198.892H87.4765V200.007H88.5839V194.928C88.5839 193.383 87.5859 192.494 85.8427 192.494C84.3251 192.494 83.1767 193.307 83.04 194.497H84.1816C84.373 193.861 84.9745 193.499 85.829 193.499C86.8612 193.499 87.4286 194.012 87.4286 194.941V195.611L85.3915 195.714C83.703 195.803 82.7597 196.582 82.7597 197.894C82.7597 199.241 83.703 200.13 85.1181 200.13ZM85.453 199.111C84.5165 199.111 83.9355 198.633 83.9355 197.853C83.9355 197.081 84.4823 196.637 85.5214 196.589L87.4286 196.5V197.375C87.4286 198.366 86.5741 199.111 85.453 199.111ZM97.6246 200V199.036H95.1773V189.671H91.4996V190.635H94.0152V199.036H91.4791V200H97.6246ZM103.363 200.123C105.079 200.123 106.2 198.886 106.2 196.978V195.598C106.2 193.697 105.079 192.46 103.363 192.46C102.29 192.46 101.504 192.918 101.176 193.731H101.053V189.671H99.8703V200H101.012V198.865H101.142C101.525 199.685 102.304 200.123 103.363 200.123ZM103.022 199.063C101.805 199.063 101.026 198.188 101.026 196.814V195.748C101.026 194.381 101.805 193.506 103.022 193.506C104.252 193.506 105.031 194.381 105.031 195.748V196.814C105.031 198.182 104.252 199.063 103.022 199.063ZM114.448 192.583H113.286V196.951C113.286 198.216 112.466 199.07 111.242 199.07C110.087 199.07 109.54 198.441 109.54 197.101V192.583H108.378V197.395C108.378 199.173 109.253 200.137 110.866 200.137C111.994 200.137 112.842 199.617 113.238 198.694H113.334V200H114.448V192.583ZM123.502 194.538C123.502 193.164 122.962 192.446 121.93 192.446C121.185 192.446 120.59 192.897 120.399 193.608H120.276C120.119 192.877 119.626 192.446 118.929 192.446C118.232 192.446 117.699 192.884 117.514 193.629H117.391V192.583H116.352V200H117.398V194.996C117.398 194.073 117.808 193.506 118.464 193.506C119.093 193.506 119.421 193.977 119.421 194.873V200H120.46V194.996C120.46 194.073 120.857 193.506 121.506 193.506C122.128 193.506 122.457 193.977 122.457 194.88V200H123.502V194.538ZM125.741 194.586C125.741 195.639 126.404 196.315 127.744 196.623L128.845 196.876C129.788 197.088 130.151 197.402 130.151 197.99C130.151 198.701 129.508 199.159 128.496 199.159C127.539 199.159 126.883 198.763 126.712 198.079H125.529C125.659 199.35 126.774 200.137 128.455 200.137C130.212 200.137 131.354 199.248 131.354 197.881C131.354 196.807 130.697 196.179 129.255 195.85L128.209 195.611C127.279 195.406 126.897 195.085 126.897 194.517C126.897 193.841 127.505 193.403 128.448 193.403C129.317 193.403 129.939 193.8 130.075 194.449H131.196C131.06 193.212 130.014 192.439 128.469 192.439C126.835 192.439 125.741 193.301 125.741 194.586ZM212.833 228.13C213.913 228.13 214.719 227.685 215.075 226.892H215.191V228.007H216.298V222.928C216.298 221.383 215.3 220.494 213.557 220.494C212.04 220.494 210.891 221.307 210.754 222.497H211.896C212.087 221.861 212.689 221.499 213.543 221.499C214.576 221.499 215.143 222.012 215.143 222.941V223.611L213.106 223.714C211.417 223.803 210.474 224.582 210.474 225.894C210.474 227.241 211.417 228.13 212.833 228.13ZM213.167 227.111C212.231 227.111 211.65 226.633 211.65 225.853C211.65 225.081 212.197 224.637 213.236 224.589L215.143 224.5V225.375C215.143 226.366 214.289 227.111 213.167 227.111ZM225.339 228V227.036H222.892V217.671H219.214V218.635H221.73V227.036H219.194V228H225.339ZM231.078 228.123C232.794 228.123 233.915 226.886 233.915 224.978V223.598C233.915 221.697 232.794 220.46 231.078 220.46C230.005 220.46 229.219 220.918 228.89 221.731H228.767V217.671H227.585V228H228.726V226.865H228.856C229.239 227.685 230.018 228.123 231.078 228.123ZM230.736 227.063C229.519 227.063 228.74 226.188 228.74 224.814V223.748C228.74 222.381 229.519 221.506 230.736 221.506C231.967 221.506 232.746 222.381 232.746 223.748V224.814C232.746 226.182 231.967 227.063 230.736 227.063ZM242.163 220.583H241V224.951C241 226.216 240.18 227.07 238.956 227.07C237.801 227.07 237.254 226.441 237.254 225.101V220.583H236.092V225.395C236.092 227.173 236.967 228.137 238.581 228.137C239.708 228.137 240.556 227.617 240.953 226.694H241.048V228H242.163V220.583ZM251.217 222.538C251.217 221.164 250.677 220.446 249.645 220.446C248.899 220.446 248.305 220.897 248.113 221.608H247.99C247.833 220.877 247.341 220.446 246.644 220.446C245.946 220.446 245.413 220.884 245.229 221.629H245.106V220.583H244.066V228H245.112V222.996C245.112 222.073 245.523 221.506 246.179 221.506C246.808 221.506 247.136 221.977 247.136 222.873V228H248.175V222.996C248.175 222.073 248.571 221.506 249.221 221.506C249.843 221.506 250.171 221.977 250.171 222.88V228H251.217V222.538ZM137.086 274.765C137.633 274.765 138.05 274.354 138.05 273.807C138.05 273.267 137.633 272.857 137.086 272.857C136.539 272.857 136.122 273.267 136.122 273.807C136.122 274.354 136.539 274.765 137.086 274.765ZM140.196 284V283.036H137.742V276.583H134.071V277.547H136.594V283.036H134.051V284H140.196ZM149.045 278.538C149.045 277.164 148.505 276.446 147.473 276.446C146.728 276.446 146.133 276.897 145.942 277.608H145.819C145.662 276.877 145.169 276.446 144.472 276.446C143.775 276.446 143.242 276.884 143.057 277.629H142.934V276.583H141.895V284H142.941V278.996C142.941 278.073 143.351 277.506 144.007 277.506C144.636 277.506 144.964 277.977 144.964 278.873V284H146.003V278.996C146.003 278.073 146.4 277.506 147.049 277.506C147.671 277.506 147.999 277.977 147.999 278.88V284H149.045V278.538ZM151.776 280.766V279.748C151.776 278.388 152.569 277.506 153.8 277.506C155.023 277.506 155.81 278.381 155.81 279.748V280.766C155.81 282.134 155.023 283.016 153.8 283.016C152.569 283.016 151.776 282.127 151.776 280.766ZM153.766 286.782C155.775 286.782 156.965 285.743 156.965 284V276.583H155.816V277.731H155.687C155.365 276.932 154.552 276.46 153.479 276.46C151.742 276.46 150.607 277.69 150.607 279.598V280.931C150.607 282.831 151.735 284.068 153.451 284.068C154.531 284.068 155.352 283.597 155.68 282.817H155.803V283.973C155.803 285.162 155.085 285.818 153.786 285.818C152.795 285.818 152.05 285.415 151.899 284.8H150.751C150.901 286.03 152.05 286.782 153.766 286.782ZM212.833 284.13C213.913 284.13 214.719 283.685 215.075 282.892H215.191V284.007H216.298V278.928C216.298 277.383 215.3 276.494 213.557 276.494C212.04 276.494 210.891 277.307 210.754 278.497H211.896C212.087 277.861 212.689 277.499 213.543 277.499C214.576 277.499 215.143 278.012 215.143 278.941V279.611L213.106 279.714C211.417 279.803 210.474 280.582 210.474 281.894C210.474 283.241 211.417 284.13 212.833 284.13ZM213.167 283.111C212.231 283.111 211.65 282.633 211.65 281.853C211.65 281.081 212.197 280.637 213.236 280.589L215.143 280.5V281.375C215.143 282.366 214.289 283.111 213.167 283.111ZM225.339 284V283.036H222.892V273.671H219.214V274.635H221.73V283.036H219.194V284H225.339ZM231.078 284.123C232.794 284.123 233.915 282.886 233.915 280.978V279.598C233.915 277.697 232.794 276.46 231.078 276.46C230.005 276.46 229.219 276.918 228.89 277.731H228.767V273.671H227.585V284H228.726V282.865H228.856C229.239 283.685 230.018 284.123 231.078 284.123ZM230.736 283.063C229.519 283.063 228.74 282.188 228.74 280.814V279.748C228.74 278.381 229.519 277.506 230.736 277.506C231.967 277.506 232.746 278.381 232.746 279.748V280.814C232.746 282.182 231.967 283.063 230.736 283.063ZM242.163 276.583H241V280.951C241 282.216 240.18 283.07 238.956 283.07C237.801 283.07 237.254 282.441 237.254 281.101V276.583H236.092V281.395C236.092 283.173 236.967 284.137 238.581 284.137C239.708 284.137 240.556 283.617 240.953 282.694H241.048V284H242.163V276.583ZM251.217 278.538C251.217 277.164 250.677 276.446 249.645 276.446C248.899 276.446 248.305 276.897 248.113 277.608H247.99C247.833 276.877 247.341 276.446 246.644 276.446C245.946 276.446 245.413 276.884 245.229 277.629H245.106V276.583H244.066V284H245.112V278.996C245.112 278.073 245.523 277.506 246.179 277.506C246.808 277.506 247.136 277.977 247.136 278.873V284H248.175V278.996C248.175 278.073 248.571 277.506 249.221 277.506C249.843 277.506 250.171 277.977 250.171 278.88V284H251.217V278.538ZM133.914 368H135.076V363.639C135.076 362.374 135.903 361.519 137.127 361.519C138.289 361.519 138.836 362.155 138.836 363.488V368H139.998V363.194C139.998 361.424 139.123 360.453 137.51 360.453C136.375 360.453 135.52 360.973 135.131 361.895H135.035V357.671H133.914V368ZM142.326 360.911V360.952H143.488V360.911C143.488 359.749 144.24 358.99 145.374 358.99C146.523 358.99 147.268 359.687 147.268 360.747C147.268 361.526 146.967 362.053 145.716 363.454L142.38 367.166V368H148.621V366.906H144.103V366.79L146.427 364.261C147.999 362.545 148.464 361.724 148.464 360.699C148.464 359.052 147.22 357.931 145.409 357.931C143.611 357.931 142.326 359.175 142.326 360.911ZM170.261 368.13C171.341 368.13 172.148 367.685 172.503 366.892H172.619V368.007H173.727V362.928C173.727 361.383 172.729 360.494 170.986 360.494C169.468 360.494 168.32 361.307 168.183 362.497H169.325C169.516 361.861 170.118 361.499 170.972 361.499C172.004 361.499 172.572 362.012 172.572 362.941V363.611L170.534 363.714C168.846 363.803 167.903 364.582 167.903 365.894C167.903 367.241 168.846 368.13 170.261 368.13ZM170.596 367.111C169.659 367.111 169.078 366.633 169.078 365.853C169.078 365.081 169.625 364.637 170.664 364.589L172.572 364.5V365.375C172.572 366.366 171.717 367.111 170.596 367.111ZM182.768 368V367.036H180.32V357.671H176.643V358.635H179.158V367.036H176.622V368H182.768ZM188.506 368.123C190.222 368.123 191.343 366.886 191.343 364.978V363.598C191.343 361.697 190.222 360.46 188.506 360.46C187.433 360.46 186.647 360.918 186.319 361.731H186.196V357.671H185.013V368H186.155V366.865H186.285C186.668 367.685 187.447 368.123 188.506 368.123ZM188.165 367.063C186.948 367.063 186.169 366.188 186.169 364.814V363.748C186.169 362.381 186.948 361.506 188.165 361.506C189.395 361.506 190.174 362.381 190.174 363.748V364.814C190.174 366.182 189.395 367.063 188.165 367.063ZM199.591 360.583H198.429V364.951C198.429 366.216 197.609 367.07 196.385 367.07C195.23 367.07 194.683 366.441 194.683 365.101V360.583H193.521V365.395C193.521 367.173 194.396 368.137 196.009 368.137C197.137 368.137 197.985 367.617 198.381 366.694H198.477V368H199.591V360.583ZM208.645 362.538C208.645 361.164 208.105 360.446 207.073 360.446C206.328 360.446 205.733 360.897 205.542 361.608H205.419C205.262 360.877 204.769 360.446 204.072 360.446C203.375 360.446 202.842 360.884 202.657 361.629H202.534V360.583H201.495V368H202.541V362.996C202.541 362.073 202.951 361.506 203.607 361.506C204.236 361.506 204.564 361.977 204.564 362.873V368H205.603V362.996C205.603 362.073 206 361.506 206.649 361.506C207.271 361.506 207.599 361.977 207.599 362.88V368H208.645V362.538ZM287.171 368H288.333V363.639C288.333 362.374 289.16 361.519 290.384 361.519C291.546 361.519 292.093 362.155 292.093 363.488V368H293.255V363.194C293.255 361.424 292.38 360.453 290.767 360.453C289.632 360.453 288.778 360.973 288.388 361.895H288.292V357.671H287.171V368ZM295.583 360.911V360.952H296.745V360.911C296.745 359.749 297.497 358.99 298.632 358.99C299.78 358.99 300.525 359.687 300.525 360.747C300.525 361.526 300.225 362.053 298.974 363.454L295.638 367.166V368H301.879V366.906H297.36V366.79L299.684 364.261C301.257 362.545 301.722 361.724 301.722 360.699C301.722 359.052 300.477 357.931 298.666 357.931C296.868 357.931 295.583 359.175 295.583 360.911ZM137.421 388.46C136.361 388.46 135.589 388.897 135.199 389.718H135.076V388.583H133.927V398.502H135.11V394.851H135.24C135.561 395.665 136.347 396.123 137.421 396.123C139.136 396.123 140.258 394.886 140.258 392.985V391.604C140.258 389.697 139.136 388.46 137.421 388.46ZM137.086 389.526C138.309 389.526 139.089 390.401 139.089 391.768V392.835C139.089 394.202 138.309 395.084 137.086 395.084C135.862 395.084 135.083 394.209 135.083 392.835V391.768C135.083 390.401 135.862 389.526 137.086 389.526ZM161.747 396.13C162.827 396.13 163.633 395.685 163.989 394.892H164.105V396.007H165.213V390.928C165.213 389.383 164.215 388.494 162.471 388.494C160.954 388.494 159.805 389.307 159.669 390.497H160.81C161.002 389.861 161.603 389.499 162.458 389.499C163.49 389.499 164.057 390.012 164.057 390.941V391.611L162.02 391.714C160.332 391.803 159.388 392.582 159.388 393.894C159.388 395.241 160.332 396.13 161.747 396.13ZM162.082 395.111C161.145 395.111 160.564 394.633 160.564 393.853C160.564 393.081 161.111 392.637 162.15 392.589L164.057 392.5V393.375C164.057 394.366 163.203 395.111 162.082 395.111ZM174.253 396V395.036H171.806V385.671H168.128V386.635H170.644V395.036H168.108V396H174.253ZM179.992 396.123C181.708 396.123 182.829 394.886 182.829 392.978V391.598C182.829 389.697 181.708 388.46 179.992 388.46C178.919 388.46 178.133 388.918 177.805 389.731H177.682V385.671H176.499V396H177.641V394.865H177.77C178.153 395.685 178.933 396.123 179.992 396.123ZM179.65 395.063C178.434 395.063 177.654 394.188 177.654 392.814V391.748C177.654 390.381 178.434 389.506 179.65 389.506C180.881 389.506 181.66 390.381 181.66 391.748V392.814C181.66 394.182 180.881 395.063 179.65 395.063ZM191.077 388.583H189.915V392.951C189.915 394.216 189.094 395.07 187.871 395.07C186.715 395.07 186.169 394.441 186.169 393.101V388.583H185.006V393.395C185.006 395.173 185.881 396.137 187.495 396.137C188.623 396.137 189.47 395.617 189.867 394.694H189.963V396H191.077V388.583ZM200.131 390.538C200.131 389.164 199.591 388.446 198.559 388.446C197.814 388.446 197.219 388.897 197.028 389.608H196.905C196.747 388.877 196.255 388.446 195.558 388.446C194.861 388.446 194.327 388.884 194.143 389.629H194.02V388.583H192.981V396H194.027V390.996C194.027 390.073 194.437 389.506 195.093 389.506C195.722 389.506 196.05 389.977 196.05 390.873V396H197.089V390.996C197.089 390.073 197.486 389.506 198.135 389.506C198.757 389.506 199.085 389.977 199.085 390.88V396H200.131V390.538ZM297.976 396.13C299.056 396.13 299.862 395.685 300.218 394.892H300.334V396.007H301.441V390.928C301.441 389.383 300.443 388.494 298.7 388.494C297.183 388.494 296.034 389.307 295.897 390.497H297.039C297.23 389.861 297.832 389.499 298.686 389.499C299.719 389.499 300.286 390.012 300.286 390.941V391.611L298.249 391.714C296.56 391.803 295.617 392.582 295.617 393.894C295.617 395.241 296.56 396.13 297.976 396.13ZM298.31 395.111C297.374 395.111 296.793 394.633 296.793 393.853C296.793 393.081 297.34 392.637 298.379 392.589L300.286 392.5V393.375C300.286 394.366 299.432 395.111 298.31 395.111ZM310.482 396V395.036H308.035V385.671H304.357V386.635H306.873V395.036H304.336V396H310.482ZM316.221 396.123C317.937 396.123 319.058 394.886 319.058 392.978V391.598C319.058 389.697 317.937 388.46 316.221 388.46C315.148 388.46 314.362 388.918 314.033 389.731H313.91V385.671H312.728V396H313.869V394.865H313.999C314.382 395.685 315.161 396.123 316.221 396.123ZM315.879 395.063C314.662 395.063 313.883 394.188 313.883 392.814V391.748C313.883 390.381 314.662 389.506 315.879 389.506C317.11 389.506 317.889 390.381 317.889 391.748V392.814C317.889 394.182 317.11 395.063 315.879 395.063ZM327.306 388.583H326.143V392.951C326.143 394.216 325.323 395.07 324.099 395.07C322.944 395.07 322.397 394.441 322.397 393.101V388.583H321.235V393.395C321.235 395.173 322.11 396.137 323.723 396.137C324.851 396.137 325.699 395.617 326.096 394.694H326.191V396H327.306V388.583ZM336.36 390.538C336.36 389.164 335.82 388.446 334.788 388.446C334.042 388.446 333.448 388.897 333.256 389.608H333.133C332.976 388.877 332.484 388.446 331.787 388.446C331.089 388.446 330.556 388.884 330.372 389.629H330.249V388.583H329.209V396H330.255V390.996C330.255 390.073 330.665 389.506 331.322 389.506C331.951 389.506 332.279 389.977 332.279 390.873V396H333.318V390.996C333.318 390.073 333.714 389.506 334.364 389.506C334.986 389.506 335.314 389.977 335.314 390.88V396H336.36V390.538ZM409.878 388.46C408.819 388.46 408.046 388.897 407.656 389.718H407.533V388.583H406.385V398.502H407.568V394.851H407.698C408.019 395.665 408.805 396.123 409.878 396.123C411.594 396.123 412.715 394.886 412.715 392.985V391.604C412.715 389.697 411.594 388.46 409.878 388.46ZM409.543 389.526C410.767 389.526 411.546 390.401 411.546 391.768V392.835C411.546 394.202 410.767 395.084 409.543 395.084C408.32 395.084 407.54 394.209 407.54 392.835V391.768C407.54 390.401 408.32 389.526 409.543 389.526Z" fill="#FF6F92"/>
<path d="M71.4391 172V170.927H69.443V163.209H71.4391V162.136H66.2438V163.209H68.2399V170.927H66.2438V172H71.4391ZM77.3557 172.137C79.3177 172.137 80.5686 170.858 80.5686 168.855V167.734C80.5686 165.731 79.3177 164.453 77.3557 164.453C75.3938 164.453 74.1429 165.731 74.1429 167.734V168.855C74.1429 170.858 75.3938 172.137 77.3557 172.137ZM77.3557 165.478C78.6272 165.478 79.4202 166.381 79.4202 167.837V168.746C79.4202 170.209 78.6272 171.104 77.3557 171.104C76.0843 171.104 75.2913 170.209 75.2913 168.746V167.837C75.2913 166.381 76.0843 165.478 77.3557 165.478ZM82.8349 172H83.997V167.632C83.997 166.367 84.8173 165.513 86.0409 165.513C87.1962 165.513 87.7431 166.141 87.7431 167.481V172H88.9052V167.187C88.9052 165.41 88.0302 164.446 86.4169 164.446C85.289 164.446 84.4413 164.966 84.0448 165.889H83.9491V164.583H82.8349V172ZM97.7271 170.879H93.0513V162.136H91.855V172H97.7271V170.879ZM103.029 162.765C103.575 162.765 103.992 162.354 103.992 161.807C103.992 161.267 103.575 160.857 103.029 160.857C102.482 160.857 102.065 161.267 102.065 161.807C102.065 162.354 102.482 162.765 103.029 162.765ZM106.139 172V171.036H103.685V164.583H100.014V165.547H102.536V171.036H99.9934V172H106.139ZM108.713 166.586C108.713 167.639 109.376 168.315 110.716 168.623L111.816 168.876C112.76 169.088 113.122 169.402 113.122 169.99C113.122 170.701 112.479 171.159 111.468 171.159C110.511 171.159 109.854 170.763 109.683 170.079H108.501C108.631 171.35 109.745 172.137 111.427 172.137C113.183 172.137 114.325 171.248 114.325 169.881C114.325 168.807 113.669 168.179 112.226 167.85L111.181 167.611C110.251 167.406 109.868 167.085 109.868 166.517C109.868 165.841 110.476 165.403 111.42 165.403C112.288 165.403 112.91 165.8 113.047 166.449H114.168C114.031 165.212 112.985 164.439 111.44 164.439C109.806 164.439 108.713 165.301 108.713 166.586ZM118.663 162.594V164.603H116.687V165.595H118.663V169.792C118.663 171.337 119.517 172.034 121.356 172.034C121.711 172.034 122.614 172 122.798 171.966V170.981C122.6 171.002 121.855 171.022 121.438 171.022C120.392 171.022 119.825 170.585 119.825 169.778V165.595H122.819V164.603H119.811V162.594H118.663Z" fill="#F6D977"/>
<path d="M149.045 194.538C149.045 193.164 148.505 192.446 147.473 192.446C146.728 192.446 146.133 192.897 145.942 193.608H145.819C145.662 192.877 145.169 192.446 144.472 192.446C143.775 192.446 143.242 192.884 143.057 193.629H142.934V192.583H141.895V200H142.941V194.996C142.941 194.073 143.351 193.506 144.007 193.506C144.636 193.506 144.964 193.977 144.964 194.873V200H146.003V194.996C146.003 194.073 146.4 193.506 147.049 193.506C147.671 193.506 147.999 193.977 147.999 194.88V200H149.045V194.538ZM153.232 200.13C154.313 200.13 155.119 199.685 155.475 198.892H155.591V200.007H156.698V194.928C156.698 193.383 155.7 192.494 153.957 192.494C152.439 192.494 151.291 193.307 151.154 194.497H152.296C152.487 193.861 153.089 193.499 153.943 193.499C154.976 193.499 155.543 194.012 155.543 194.941V195.611L153.506 195.714C151.817 195.803 150.874 196.582 150.874 197.894C150.874 199.241 151.817 200.13 153.232 200.13ZM153.567 199.111C152.631 199.111 152.05 198.633 152.05 197.853C152.05 197.081 152.597 196.637 153.636 196.589L155.543 196.5V197.375C155.543 198.366 154.689 199.111 153.567 199.111ZM162.964 192.46C161.904 192.46 161.132 192.897 160.742 193.718H160.619V192.583H159.47V202.502H160.653V198.851H160.783C161.104 199.665 161.89 200.123 162.964 200.123C164.679 200.123 165.8 198.886 165.8 196.985V195.604C165.8 193.697 164.679 192.46 162.964 192.46ZM162.629 193.526C163.852 193.526 164.632 194.401 164.632 195.768V196.835C164.632 198.202 163.852 199.084 162.629 199.084C161.405 199.084 160.626 198.209 160.626 196.835V195.768C160.626 194.401 161.405 193.526 162.629 193.526Z" fill="#44B4FF"/>
<path d="M234.229 197.751V196.623H226.997V197.751H234.229ZM234.229 194.634V193.506H226.997V194.634H234.229ZM240.884 195.563V195.686L236.188 198.291V199.597L242.067 196.131V195.119L236.188 191.653V192.959L240.884 195.563Z" fill="#8785FF"/>
<path d="M105.496 228V226.927H103.5V219.209H105.496V218.136H100.301V219.209H102.297V226.927H100.301V228H105.496ZM111.413 228.137C113.375 228.137 114.626 226.858 114.626 224.855V223.734C114.626 221.731 113.375 220.453 111.413 220.453C109.451 220.453 108.2 221.731 108.2 223.734V224.855C108.2 226.858 109.451 228.137 111.413 228.137ZM111.413 221.478C112.684 221.478 113.477 222.381 113.477 223.837V224.746C113.477 226.209 112.684 227.104 111.413 227.104C110.141 227.104 109.348 226.209 109.348 224.746V223.837C109.348 222.381 110.141 221.478 111.413 221.478ZM116.892 228H118.054V223.632C118.054 222.367 118.874 221.513 120.098 221.513C121.253 221.513 121.8 222.141 121.8 223.481V228H122.962V223.187C122.962 221.41 122.087 220.446 120.474 220.446C119.346 220.446 118.499 220.966 118.102 221.889H118.006V220.583H116.892V228ZM131.039 228V226.927H129.043V219.209H131.039V218.136H125.844V219.209H127.84V226.927H125.844V228H131.039ZM135.691 218.594V220.603H133.716V221.595H135.691V225.792C135.691 227.337 136.546 228.034 138.385 228.034C138.74 228.034 139.642 228 139.827 227.966V226.981C139.629 227.002 138.884 227.022 138.467 227.022C137.421 227.022 136.853 226.585 136.853 225.778V221.595H139.847V220.603H136.84V218.594H135.691ZM145.552 221.444C146.748 221.444 147.473 222.299 147.473 223.714H143.57C143.57 222.292 144.315 221.444 145.552 221.444ZM147.473 226.086C147.268 226.735 146.578 227.132 145.641 227.132C144.376 227.132 143.57 226.257 143.57 224.896V224.596H148.621V223.871C148.621 221.724 147.487 220.446 145.559 220.446C143.672 220.446 142.421 221.731 142.421 223.686V224.801C142.421 226.913 143.604 228.137 145.641 228.137C147.2 228.137 148.375 227.309 148.601 226.086H147.473ZM157.56 222.538C157.56 221.164 157.02 220.446 155.987 220.446C155.242 220.446 154.647 220.897 154.456 221.608H154.333C154.176 220.877 153.684 220.446 152.986 220.446C152.289 220.446 151.756 220.884 151.571 221.629H151.448V220.583H150.409V228H151.455V222.996C151.455 222.073 151.865 221.506 152.522 221.506C153.15 221.506 153.479 221.977 153.479 222.873V228H154.518V222.996C154.518 222.073 154.914 221.506 155.564 221.506C156.186 221.506 156.514 221.977 156.514 222.88V228H157.56V222.538ZM122.525 256V254.927H120.529V247.209H122.525V246.136H117.33V247.209H119.326V254.927H117.33V256H122.525ZM128.442 256.137C130.403 256.137 131.654 254.858 131.654 252.855V251.734C131.654 249.731 130.403 248.453 128.442 248.453C126.48 248.453 125.229 249.731 125.229 251.734V252.855C125.229 254.858 126.48 256.137 128.442 256.137ZM128.442 249.478C129.713 249.478 130.506 250.381 130.506 251.837V252.746C130.506 254.209 129.713 255.104 128.442 255.104C127.17 255.104 126.377 254.209 126.377 252.746V251.837C126.377 250.381 127.17 249.478 128.442 249.478ZM133.921 256H135.083V251.632C135.083 250.367 135.903 249.513 137.127 249.513C138.282 249.513 138.829 250.141 138.829 251.481V256H139.991V251.187C139.991 249.41 139.116 248.446 137.503 248.446C136.375 248.446 135.527 248.966 135.131 249.889H135.035V248.583H133.921V256ZM146.072 256V247.243H149.052V246.136H141.888V247.243H144.869V256H146.072ZM150.942 256H152.105V251.639C152.105 250.374 152.932 249.519 154.155 249.519C155.317 249.519 155.864 250.155 155.864 251.488V256H157.026V251.194C157.026 249.424 156.151 248.453 154.538 248.453C153.403 248.453 152.549 248.973 152.159 249.895H152.064V245.671H150.942V256ZM165.534 248.583H164.372V252.951C164.372 254.216 163.551 255.07 162.328 255.07C161.173 255.07 160.626 254.441 160.626 253.101V248.583H159.464V253.395C159.464 255.173 160.339 256.137 161.952 256.137C163.08 256.137 163.927 255.617 164.324 254.694H164.42V256H165.534V248.583ZM174.588 250.538C174.588 249.164 174.048 248.446 173.016 248.446C172.271 248.446 171.676 248.897 171.485 249.608H171.362C171.204 248.877 170.712 248.446 170.015 248.446C169.318 248.446 168.784 248.884 168.6 249.629H168.477V248.583H167.438V256H168.484V250.996C168.484 250.073 168.894 249.506 169.55 249.506C170.179 249.506 170.507 249.977 170.507 250.873V256H171.546V250.996C171.546 250.073 171.943 249.506 172.592 249.506C173.214 249.506 173.542 249.977 173.542 250.88V256H174.588V250.538ZM179.992 256.123C181.708 256.123 182.829 254.886 182.829 252.978V251.598C182.829 249.697 181.708 248.46 179.992 248.46C178.919 248.46 178.133 248.918 177.805 249.731H177.682V245.671H176.499V256H177.641V254.865H177.77C178.153 255.685 178.933 256.123 179.992 256.123ZM179.65 255.063C178.434 255.063 177.654 254.188 177.654 252.814V251.748C177.654 250.381 178.434 249.506 179.65 249.506C180.881 249.506 181.66 250.381 181.66 251.748V252.814C181.66 254.182 180.881 255.063 179.65 255.063ZM185.006 256H186.169V251.632C186.169 250.367 186.989 249.513 188.213 249.513C189.368 249.513 189.915 250.141 189.915 251.481V256H191.077V251.187C191.077 249.41 190.202 248.446 188.588 248.446C187.461 248.446 186.613 248.966 186.216 249.889H186.121V248.583H185.006V256ZM195.804 256.13C196.884 256.13 197.691 255.685 198.046 254.892H198.162V256.007H199.27V250.928C199.27 249.383 198.272 248.494 196.529 248.494C195.011 248.494 193.863 249.307 193.726 250.497H194.867C195.059 249.861 195.66 249.499 196.515 249.499C197.547 249.499 198.114 250.012 198.114 250.941V251.611L196.077 251.714C194.389 251.803 193.446 252.582 193.446 253.894C193.446 255.241 194.389 256.13 195.804 256.13ZM196.139 255.111C195.202 255.111 194.621 254.633 194.621 253.853C194.621 253.081 195.168 252.637 196.207 252.589L198.114 252.5V253.375C198.114 254.366 197.26 255.111 196.139 255.111ZM205.2 246.765C205.747 246.765 206.164 246.354 206.164 245.807C206.164 245.267 205.747 244.857 205.2 244.857C204.653 244.857 204.236 245.267 204.236 245.807C204.236 246.354 204.653 246.765 205.2 246.765ZM208.31 256V255.036H205.856V248.583H202.185V249.547H204.708V255.036H202.165V256H208.31ZM216.825 256V255.036H214.377V245.671H210.7V246.635H213.215V255.036H210.679V256H216.825ZM131.039 312V310.927H129.043V303.209H131.039V302.136H125.844V303.209H127.84V310.927H125.844V312H131.039ZM136.956 312.137C138.918 312.137 140.169 310.858 140.169 308.855V307.734C140.169 305.731 138.918 304.453 136.956 304.453C134.994 304.453 133.743 305.731 133.743 307.734V308.855C133.743 310.858 134.994 312.137 136.956 312.137ZM136.956 305.478C138.227 305.478 139.02 306.381 139.02 307.837V308.746C139.02 310.209 138.227 311.104 136.956 311.104C135.684 311.104 134.891 310.209 134.891 308.746V307.837C134.891 306.381 135.684 305.478 136.956 305.478ZM142.435 312H143.597V307.632C143.597 306.367 144.417 305.513 145.641 305.513C146.796 305.513 147.343 306.141 147.343 307.481V312H148.505V307.187C148.505 305.41 147.63 304.446 146.017 304.446C144.889 304.446 144.041 304.966 143.645 305.889H143.549V304.583H142.435V312ZM154.586 312V303.243H157.566V302.136H150.402V303.243H153.383V312H154.586ZM159.457 312H160.619V307.639C160.619 306.374 161.446 305.519 162.67 305.519C163.832 305.519 164.379 306.155 164.379 307.488V312H165.541V307.194C165.541 305.424 164.666 304.453 163.052 304.453C161.918 304.453 161.063 304.973 160.674 305.895H160.578V301.671H159.457V312ZM174.048 304.583H172.886V308.951C172.886 310.216 172.066 311.07 170.842 311.07C169.687 311.07 169.14 310.441 169.14 309.101V304.583H167.978V309.395C167.978 311.173 168.853 312.137 170.466 312.137C171.594 312.137 172.442 311.617 172.838 310.694H172.934V312H174.048V304.583ZM183.103 306.538C183.103 305.164 182.562 304.446 181.53 304.446C180.785 304.446 180.19 304.897 179.999 305.608H179.876C179.719 304.877 179.227 304.446 178.529 304.446C177.832 304.446 177.299 304.884 177.114 305.629H176.991V304.583H175.952V312H176.998V306.996C176.998 306.073 177.408 305.506 178.064 305.506C178.693 305.506 179.021 305.977 179.021 306.873V312H180.061V306.996C180.061 306.073 180.457 305.506 181.106 305.506C181.728 305.506 182.057 305.977 182.057 306.88V312H183.103V306.538ZM188.506 312.123C190.222 312.123 191.343 310.886 191.343 308.978V307.598C191.343 305.697 190.222 304.46 188.506 304.46C187.433 304.46 186.647 304.918 186.319 305.731H186.196V301.671H185.013V312H186.155V310.865H186.285C186.668 311.685 187.447 312.123 188.506 312.123ZM188.165 311.063C186.948 311.063 186.169 310.188 186.169 308.814V307.748C186.169 306.381 186.948 305.506 188.165 305.506C189.395 305.506 190.174 306.381 190.174 307.748V308.814C190.174 310.182 189.395 311.063 188.165 311.063ZM193.521 312H194.683V307.632C194.683 306.367 195.503 305.513 196.727 305.513C197.882 305.513 198.429 306.141 198.429 307.481V312H199.591V307.187C199.591 305.41 198.716 304.446 197.103 304.446C195.975 304.446 195.127 304.966 194.731 305.889H194.635V304.583H193.521V312ZM204.318 312.13C205.398 312.13 206.205 311.685 206.56 310.892H206.677V312.007H207.784V306.928C207.784 305.383 206.786 304.494 205.043 304.494C203.525 304.494 202.377 305.307 202.24 306.497H203.382C203.573 305.861 204.175 305.499 205.029 305.499C206.061 305.499 206.629 306.012 206.629 306.941V307.611L204.592 307.714C202.903 307.803 201.96 308.582 201.96 309.894C201.96 311.241 202.903 312.13 204.318 312.13ZM204.653 311.111C203.717 311.111 203.136 310.633 203.136 309.853C203.136 309.081 203.682 308.637 204.722 308.589L206.629 308.5V309.375C206.629 310.366 205.774 311.111 204.653 311.111ZM213.714 302.765C214.261 302.765 214.678 302.354 214.678 301.807C214.678 301.267 214.261 300.857 213.714 300.857C213.167 300.857 212.751 301.267 212.751 301.807C212.751 302.354 213.167 302.765 213.714 302.765ZM216.825 312V311.036H214.371V304.583H210.7V305.547H213.222V311.036H210.679V312H216.825ZM225.339 312V311.036H222.892V301.671H219.214V302.635H221.73V311.036H219.194V312H225.339ZM122.525 340V338.927H120.529V331.209H122.525V330.136H117.33V331.209H119.326V338.927H117.33V340H122.525ZM128.442 340.137C130.403 340.137 131.654 338.858 131.654 336.855V335.734C131.654 333.731 130.403 332.453 128.442 332.453C126.48 332.453 125.229 333.731 125.229 335.734V336.855C125.229 338.858 126.48 340.137 128.442 340.137ZM128.442 333.478C129.713 333.478 130.506 334.381 130.506 335.837V336.746C130.506 338.209 129.713 339.104 128.442 339.104C127.17 339.104 126.377 338.209 126.377 336.746V335.837C126.377 334.381 127.17 333.478 128.442 333.478ZM133.921 340H135.083V335.632C135.083 334.367 135.903 333.513 137.127 333.513C138.282 333.513 138.829 334.141 138.829 335.481V340H139.991V335.187C139.991 333.41 139.116 332.446 137.503 332.446C136.375 332.446 135.527 332.966 135.131 333.889H135.035V332.583H133.921V340ZM148.813 338.879H144.137V330.136H142.941V340H148.813V338.879ZM153.232 340.13C154.313 340.13 155.119 339.685 155.475 338.892H155.591V340.007H156.698V334.928C156.698 333.383 155.7 332.494 153.957 332.494C152.439 332.494 151.291 333.307 151.154 334.497H152.296C152.487 333.861 153.089 333.499 153.943 333.499C154.976 333.499 155.543 334.012 155.543 334.941V335.611L153.506 335.714C151.817 335.803 150.874 336.582 150.874 337.894C150.874 339.241 151.817 340.13 153.232 340.13ZM153.567 339.111C152.631 339.111 152.05 338.633 152.05 337.853C152.05 337.081 152.597 336.637 153.636 336.589L155.543 336.5V337.375C155.543 338.366 154.689 339.111 153.567 339.111ZM162.964 340.123C164.679 340.123 165.8 338.886 165.8 336.978V335.598C165.8 333.697 164.679 332.46 162.964 332.46C161.89 332.46 161.104 332.918 160.776 333.731H160.653V329.671H159.47V340H160.612V338.865H160.742C161.125 339.685 161.904 340.123 162.964 340.123ZM162.622 339.063C161.405 339.063 160.626 338.188 160.626 336.814V335.748C160.626 334.381 161.405 333.506 162.622 333.506C163.852 333.506 164.632 334.381 164.632 335.748V336.814C164.632 338.182 163.852 339.063 162.622 339.063ZM171.095 333.444C172.291 333.444 173.016 334.299 173.016 335.714H169.113C169.113 334.292 169.858 333.444 171.095 333.444ZM173.016 338.086C172.811 338.735 172.12 339.132 171.184 339.132C169.919 339.132 169.113 338.257 169.113 336.896V336.596H174.164V335.871C174.164 333.724 173.03 332.446 171.102 332.446C169.215 332.446 167.964 333.731 167.964 335.686V336.801C167.964 338.913 169.147 340.137 171.184 340.137C172.743 340.137 173.918 339.309 174.144 338.086H173.016ZM182.768 340V339.036H180.32V329.671H176.643V330.635H179.158V339.036H176.622V340H182.768ZM131.039 424V422.927H129.043V415.209H131.039V414.136H125.844V415.209H127.84V422.927H125.844V424H131.039ZM136.956 424.137C138.918 424.137 140.169 422.858 140.169 420.855V419.734C140.169 417.731 138.918 416.453 136.956 416.453C134.994 416.453 133.743 417.731 133.743 419.734V420.855C133.743 422.858 134.994 424.137 136.956 424.137ZM136.956 417.478C138.227 417.478 139.02 418.381 139.02 419.837V420.746C139.02 422.209 138.227 423.104 136.956 423.104C135.684 423.104 134.891 422.209 134.891 420.746V419.837C134.891 418.381 135.684 417.478 136.956 417.478ZM142.435 424H143.597V419.632C143.597 418.367 144.417 417.513 145.641 417.513C146.796 417.513 147.343 418.141 147.343 419.481V424H148.505V419.187C148.505 417.41 147.63 416.446 146.017 416.446C144.889 416.446 144.041 416.966 143.645 417.889H143.549V416.583H142.435V424ZM157.327 422.879H152.651V414.136H151.455V424H157.327V422.879ZM161.747 424.13C162.827 424.13 163.633 423.685 163.989 422.892H164.105V424.007H165.213V418.928C165.213 417.383 164.215 416.494 162.471 416.494C160.954 416.494 159.805 417.307 159.669 418.497H160.81C161.002 417.861 161.603 417.499 162.458 417.499C163.49 417.499 164.057 418.012 164.057 418.941V419.611L162.02 419.714C160.332 419.803 159.388 420.582 159.388 421.894C159.388 423.241 160.332 424.13 161.747 424.13ZM162.082 423.111C161.145 423.111 160.564 422.633 160.564 421.853C160.564 421.081 161.111 420.637 162.15 420.589L164.057 420.5V421.375C164.057 422.366 163.203 423.111 162.082 423.111ZM171.478 424.123C173.194 424.123 174.315 422.886 174.315 420.978V419.598C174.315 417.697 173.194 416.46 171.478 416.46C170.405 416.46 169.618 416.918 169.29 417.731H169.167V413.671H167.985V424H169.126V422.865H169.256C169.639 423.685 170.418 424.123 171.478 424.123ZM171.136 423.063C169.919 423.063 169.14 422.188 169.14 420.814V419.748C169.14 418.381 169.919 417.506 171.136 417.506C172.367 417.506 173.146 418.381 173.146 419.748V420.814C173.146 422.182 172.367 423.063 171.136 423.063ZM179.609 417.444C180.806 417.444 181.53 418.299 181.53 419.714H177.627C177.627 418.292 178.372 417.444 179.609 417.444ZM181.53 422.086C181.325 422.735 180.635 423.132 179.698 423.132C178.434 423.132 177.627 422.257 177.627 420.896V420.596H182.679V419.871C182.679 417.724 181.544 416.446 179.616 416.446C177.729 416.446 176.478 417.731 176.478 419.686V420.801C176.478 422.913 177.661 424.137 179.698 424.137C181.257 424.137 182.433 423.309 182.658 422.086H181.53ZM191.282 424V423.036H188.835V413.671H185.157V414.635H187.672V423.036H185.136V424H191.282ZM114.011 452V450.927H112.014V443.209H114.011V442.136H108.815V443.209H110.811V450.927H108.815V452H114.011ZM119.927 452.137C121.889 452.137 123.14 450.858 123.14 448.855V447.734C123.14 445.731 121.889 444.453 119.927 444.453C117.965 444.453 116.714 445.731 116.714 447.734V448.855C116.714 450.858 117.965 452.137 119.927 452.137ZM119.927 445.478C121.199 445.478 121.992 446.381 121.992 447.837V448.746C121.992 450.209 121.199 451.104 119.927 451.104C118.656 451.104 117.863 450.209 117.863 448.746V447.837C117.863 446.381 118.656 445.478 119.927 445.478ZM125.406 452H126.568V447.632C126.568 446.367 127.389 445.513 128.612 445.513C129.768 445.513 130.315 446.141 130.315 447.481V452H131.477V447.187C131.477 445.41 130.602 444.446 128.988 444.446C127.86 444.446 127.013 444.966 126.616 445.889H126.521V444.583H125.406V452ZM139.553 452V450.927H137.557V443.209H139.553V442.136H134.358V443.209H136.354V450.927H134.358V452H139.553ZM144.205 442.594V444.603H142.23V445.595H144.205V449.792C144.205 451.337 145.06 452.034 146.899 452.034C147.254 452.034 148.157 452 148.341 451.966V450.981C148.143 451.002 147.398 451.022 146.981 451.022C145.935 451.022 145.368 450.585 145.368 449.778V445.595H148.362V444.603H145.354V442.594H144.205ZM154.066 445.444C155.263 445.444 155.987 446.299 155.987 447.714H152.084C152.084 446.292 152.829 445.444 154.066 445.444ZM155.987 450.086C155.782 450.735 155.092 451.132 154.155 451.132C152.891 451.132 152.084 450.257 152.084 448.896V448.596H157.136V447.871C157.136 445.724 156.001 444.446 154.073 444.446C152.187 444.446 150.936 445.731 150.936 447.686V448.801C150.936 450.913 152.118 452.137 154.155 452.137C155.714 452.137 156.89 451.309 157.115 450.086H155.987ZM166.074 446.538C166.074 445.164 165.534 444.446 164.502 444.446C163.757 444.446 163.162 444.897 162.97 445.608H162.847C162.69 444.877 162.198 444.446 161.501 444.446C160.803 444.446 160.27 444.884 160.086 445.629H159.963V444.583H158.924V452H159.969V446.996C159.969 446.073 160.38 445.506 161.036 445.506C161.665 445.506 161.993 445.977 161.993 446.873V452H163.032V446.996C163.032 446.073 163.428 445.506 164.078 445.506C164.7 445.506 165.028 445.977 165.028 446.88V452H166.074V446.538ZM79.9534 508V506.927H77.9573V499.209H79.9534V498.136H74.7581V499.209H76.7542V506.927H74.7581V508H79.9534ZM85.87 508.137C87.832 508.137 89.0829 506.858 89.0829 504.855V503.734C89.0829 501.731 87.832 500.453 85.87 500.453C83.9081 500.453 82.6571 501.731 82.6571 503.734V504.855C82.6571 506.858 83.9081 508.137 85.87 508.137ZM85.87 501.478C87.1415 501.478 87.9345 502.381 87.9345 503.837V504.746C87.9345 506.209 87.1415 507.104 85.87 507.104C84.5986 507.104 83.8056 506.209 83.8056 504.746V503.837C83.8056 502.381 84.5986 501.478 85.87 501.478ZM91.3492 508H92.5113V503.632C92.5113 502.367 93.3316 501.513 94.5552 501.513C95.7105 501.513 96.2574 502.141 96.2574 503.481V508H97.4195V503.187C97.4195 501.41 96.5445 500.446 94.9312 500.446C93.8033 500.446 92.9556 500.966 92.5591 501.889H92.4634V500.583H91.3492V508ZM106.241 506.879H101.566V498.136H100.369V508H106.241V506.879ZM111.543 498.765C112.09 498.765 112.507 498.354 112.507 497.807C112.507 497.267 112.09 496.857 111.543 496.857C110.996 496.857 110.579 497.267 110.579 497.807C110.579 498.354 110.996 498.765 111.543 498.765ZM114.653 508V507.036H112.199V500.583H108.528V501.547H111.051V507.036H108.508V508H114.653ZM117.227 502.586C117.227 503.639 117.89 504.315 119.23 504.623L120.331 504.876C121.274 505.088 121.636 505.402 121.636 505.99C121.636 506.701 120.994 507.159 119.982 507.159C119.025 507.159 118.369 506.763 118.198 506.079H117.015C117.145 507.35 118.259 508.137 119.941 508.137C121.698 508.137 122.839 507.248 122.839 505.881C122.839 504.807 122.183 504.179 120.741 503.85L119.695 503.611C118.765 503.406 118.382 503.085 118.382 502.517C118.382 501.841 118.991 501.403 119.934 501.403C120.802 501.403 121.424 501.8 121.561 502.449H122.682C122.545 501.212 121.499 500.439 119.955 500.439C118.321 500.439 117.227 501.301 117.227 502.586ZM127.177 498.594V500.603H125.201V501.595H127.177V505.792C127.177 507.337 128.031 508.034 129.87 508.034C130.226 508.034 131.128 508 131.313 507.966V506.981C131.114 507.002 130.369 507.022 129.952 507.022C128.906 507.022 128.339 506.585 128.339 505.778V501.595H131.333V500.603H128.325V498.594H127.177Z" fill="#F6D977"/>
<path d="M200.172 225.751V224.623H192.94V225.751H200.172ZM200.172 222.634V221.506H192.94V222.634H200.172ZM268.286 253.751V252.623H261.054V253.751H268.286ZM268.286 250.634V249.506H261.054V250.634H268.286ZM200.172 281.751V280.623H192.94V281.751H200.172ZM200.172 278.634V277.506H192.94V278.634H200.172Z" fill="#57D8F3"/>
<path d="M207.736 228.936V228H206.991C205.966 228 205.767 227.761 205.767 226.571V224.746C205.767 223.789 205.05 223.153 203.662 223.126V223.016C205.05 222.982 205.767 222.347 205.767 221.39V219.564C205.767 218.375 205.966 218.136 206.991 218.136H207.736V217.199H206.807C205.145 217.199 204.619 217.725 204.619 219.414V220.945C204.619 222.005 204.004 222.613 202.404 222.449V223.686C204.004 223.522 204.619 224.138 204.619 225.19V226.722C204.619 228.41 205.145 228.936 206.807 228.936H207.736ZM207.736 284.936V284H206.991C205.966 284 205.767 283.761 205.767 282.571V280.746C205.767 279.789 205.05 279.153 203.662 279.126V279.016C205.05 278.982 205.767 278.347 205.767 277.39V275.564C205.767 274.375 205.966 274.136 206.991 274.136H207.736V273.199H206.807C205.145 273.199 204.619 273.725 204.619 275.414V276.945C204.619 278.005 204.004 278.613 202.404 278.449V279.686C204.004 279.522 204.619 280.138 204.619 281.19V282.722C204.619 284.41 205.145 284.936 206.807 284.936H207.736Z" fill="#9AAEC4"/>
<path d="M264.8 218.765C265.347 218.765 265.764 218.354 265.764 217.807C265.764 217.267 265.347 216.857 264.8 216.857C264.253 216.857 263.836 217.267 263.836 217.807C263.836 218.354 264.253 218.765 264.8 218.765ZM267.911 228V227.036H265.456V220.583H261.786V221.547H264.308V227.036H261.765V228H267.911ZM271.052 223.748C271.052 222.381 271.838 221.506 273.062 221.506C274.278 221.506 275.064 222.381 275.064 223.748V224.814C275.064 226.188 274.278 227.063 273.062 227.063C271.838 227.063 271.052 226.182 271.052 224.814V223.748ZM275.071 226.865V228H276.213V217.671H275.03V221.731H274.907C274.586 220.918 273.793 220.46 272.72 220.46C271.004 220.46 269.883 221.697 269.883 223.598V224.978C269.883 226.886 271.004 228.123 272.72 228.123C273.779 228.123 274.559 227.685 274.941 226.865H275.071ZM263.918 284.13C264.998 284.13 265.805 283.685 266.161 282.892H266.277V284.007H267.384V278.928C267.384 277.383 266.386 276.494 264.643 276.494C263.125 276.494 261.977 277.307 261.84 278.497H262.982C263.173 277.861 263.775 277.499 264.629 277.499C265.661 277.499 266.229 278.012 266.229 278.941V279.611L264.192 279.714C262.503 279.803 261.56 280.582 261.56 281.894C261.56 283.241 262.503 284.13 263.918 284.13ZM264.253 283.111C263.317 283.111 262.736 282.633 262.736 281.853C262.736 281.081 263.283 280.637 264.322 280.589L266.229 280.5V281.375C266.229 282.366 265.374 283.111 264.253 283.111ZM272.877 278.476V276.583H270.108V277.513H271.756V283.07H270.259V284H275.188V283.07H272.891V280.678C272.891 278.791 273.861 277.656 275.502 277.656C275.905 277.656 276.384 277.738 276.726 277.861V276.556C276.479 276.453 276.076 276.391 275.652 276.391C274.224 276.391 273.301 277.102 273.027 278.476H272.877ZM280.434 274.594V276.603H278.459V277.595H280.434V281.792C280.434 283.337 281.289 284.034 283.128 284.034C283.483 284.034 284.385 284 284.57 283.966V282.981C284.372 283.002 283.627 283.022 283.21 283.022C282.164 283.022 281.596 282.585 281.596 281.778V277.595H284.59V276.603H281.583V274.594H280.434ZM294.219 276.583H293.084L292.079 282.53H291.956L290.76 276.59H289.666L288.47 282.53H288.347L287.342 276.583H286.207L287.8 284H288.914L290.172 278.217H290.254L291.512 284H292.626L294.219 276.583ZM298.727 284.137C300.689 284.137 301.94 282.858 301.94 280.855V279.734C301.94 277.731 300.689 276.453 298.727 276.453C296.766 276.453 295.515 277.731 295.515 279.734V280.855C295.515 282.858 296.766 284.137 298.727 284.137ZM298.727 277.478C299.999 277.478 300.792 278.381 300.792 279.837V280.746C300.792 282.209 299.999 283.104 298.727 283.104C297.456 283.104 296.663 282.209 296.663 280.746V279.837C296.663 278.381 297.456 277.478 298.727 277.478ZM306.934 278.476V276.583H304.166V277.513H305.813V283.07H304.316V284H309.245V283.07H306.948V280.678C306.948 278.791 307.919 277.656 309.559 277.656C309.962 277.656 310.441 277.738 310.783 277.861V276.556C310.537 276.453 310.133 276.391 309.71 276.391C308.281 276.391 307.358 277.102 307.085 278.476H306.934ZM319.365 284L316.282 279.516L319.16 276.583H317.752L314.519 279.912H314.43V273.671H313.268V284H314.43V281.3L315.448 280.315L317.985 284H319.365ZM220.834 358.594V360.603H218.859V361.595H220.834V365.792C220.834 367.337 221.689 368.034 223.527 368.034C223.883 368.034 224.785 368 224.97 367.966V366.981C224.772 367.002 224.027 367.022 223.61 367.022C222.564 367.022 221.996 366.585 221.996 365.778V361.595H224.99V360.603H221.983V358.594H220.834ZM230.743 358.765C231.29 358.765 231.707 358.354 231.707 357.807C231.707 357.267 231.29 356.857 230.743 356.857C230.196 356.857 229.779 357.267 229.779 357.807C229.779 358.354 230.196 358.765 230.743 358.765ZM233.853 368V367.036H231.399V360.583H227.728V361.547H230.251V367.036H227.708V368H233.853ZM237.863 358.594V360.603H235.887V361.595H237.863V365.792C237.863 367.337 238.717 368.034 240.556 368.034C240.912 368.034 241.814 368 241.998 367.966V366.981C241.8 367.002 241.055 367.022 240.638 367.022C239.592 367.022 239.025 366.585 239.025 365.778V361.595H242.019V360.603H239.011V358.594H237.863ZM250.882 368V367.036H248.435V357.671H244.757V358.635H247.273V367.036H244.736V368H250.882ZM256.238 361.444C257.434 361.444 258.159 362.299 258.159 363.714H254.256C254.256 362.292 255.001 361.444 256.238 361.444ZM258.159 366.086C257.954 366.735 257.263 367.132 256.327 367.132C255.062 367.132 254.256 366.257 254.256 364.896V364.596H259.307V363.871C259.307 361.724 258.173 360.446 256.245 360.446C254.358 360.446 253.107 361.731 253.107 363.686V364.801C253.107 366.913 254.29 368.137 256.327 368.137C257.885 368.137 259.061 367.309 259.287 366.086H258.159ZM212.833 396.13C213.913 396.13 214.719 395.685 215.075 394.892H215.191V396.007H216.298V390.928C216.298 389.383 215.3 388.494 213.557 388.494C212.04 388.494 210.891 389.307 210.754 390.497H211.896C212.087 389.861 212.689 389.499 213.543 389.499C214.576 389.499 215.143 390.012 215.143 390.941V391.611L213.106 391.714C211.417 391.803 210.474 392.582 210.474 393.894C210.474 395.241 211.417 396.13 212.833 396.13ZM213.167 395.111C212.231 395.111 211.65 394.633 211.65 393.853C211.65 393.081 212.197 392.637 213.236 392.589L215.143 392.5V393.375C215.143 394.366 214.289 395.111 213.167 395.111ZM221.791 390.476V388.583H219.023V389.513H220.67V395.07H219.173V396H224.102V395.07H221.805V392.678C221.805 390.791 222.776 389.656 224.416 389.656C224.819 389.656 225.298 389.738 225.64 389.861V388.556C225.394 388.453 224.99 388.391 224.567 388.391C223.138 388.391 222.215 389.102 221.942 390.476H221.791ZM229.348 386.594V388.603H227.373V389.595H229.348V393.792C229.348 395.337 230.203 396.034 232.042 396.034C232.397 396.034 233.3 396 233.484 395.966V394.981C233.286 395.002 232.541 395.022 232.124 395.022C231.078 395.022 230.511 394.585 230.511 393.778V389.595H233.505V388.603H230.497V386.594H229.348ZM239.257 386.765C239.804 386.765 240.221 386.354 240.221 385.807C240.221 385.267 239.804 384.857 239.257 384.857C238.71 384.857 238.293 385.267 238.293 385.807C238.293 386.354 238.71 386.765 239.257 386.765ZM242.368 396V395.036H239.914V388.583H236.243V389.547H238.765V395.036H236.222V396H242.368ZM244.941 390.586C244.941 391.639 245.605 392.315 246.944 392.623L248.045 392.876C248.988 393.088 249.351 393.402 249.351 393.99C249.351 394.701 248.708 395.159 247.696 395.159C246.739 395.159 246.083 394.763 245.912 394.079H244.73C244.859 395.35 245.974 396.137 247.655 396.137C249.412 396.137 250.554 395.248 250.554 393.881C250.554 392.807 249.898 392.179 248.455 391.85L247.409 391.611C246.48 391.406 246.097 391.085 246.097 390.517C246.097 389.841 246.705 389.403 247.649 389.403C248.517 389.403 249.139 389.8 249.275 390.449H250.397C250.26 389.212 249.214 388.439 247.669 388.439C246.035 388.439 244.941 389.301 244.941 390.586ZM254.891 386.594V388.603H252.916V389.595H254.891V393.792C254.891 395.337 255.746 396.034 257.585 396.034C257.94 396.034 258.842 396 259.027 395.966V394.981C258.829 395.002 258.084 395.022 257.667 395.022C256.621 395.022 256.053 394.585 256.053 393.778V389.595H259.048V388.603H256.04V386.594H254.891ZM347.735 398.639C349.109 398.639 349.731 398.099 350.381 396.273L353.177 388.583H351.939L349.868 394.79H349.779L347.701 388.583H346.436L349.164 396.048L349.034 396.451C348.726 397.312 348.344 397.627 347.646 397.627C347.537 397.627 347.325 397.62 347.236 397.599V398.618C347.339 398.632 347.564 398.639 347.735 398.639ZM358.41 389.444C359.606 389.444 360.33 390.299 360.33 391.714H356.427C356.427 390.292 357.172 389.444 358.41 389.444ZM360.33 394.086C360.125 394.735 359.435 395.132 358.498 395.132C357.234 395.132 356.427 394.257 356.427 392.896V392.596H361.479V391.871C361.479 389.724 360.344 388.446 358.416 388.446C356.53 388.446 355.279 389.731 355.279 391.686V392.801C355.279 394.913 356.461 396.137 358.498 396.137C360.057 396.137 361.233 395.309 361.458 394.086H360.33ZM366.09 396.13C367.17 396.13 367.977 395.685 368.332 394.892H368.448V396.007H369.556V390.928C369.556 389.383 368.558 388.494 366.814 388.494C365.297 388.494 364.148 389.307 364.012 390.497H365.153C365.345 389.861 365.946 389.499 366.801 389.499C367.833 389.499 368.4 390.012 368.4 390.941V391.611L366.363 391.714C364.675 391.803 363.731 392.582 363.731 393.894C363.731 395.241 364.675 396.13 366.09 396.13ZM366.425 395.111C365.488 395.111 364.907 394.633 364.907 393.853C364.907 393.081 365.454 392.637 366.493 392.589L368.4 392.5V393.375C368.4 394.366 367.546 395.111 366.425 395.111ZM375.049 390.476V388.583H372.28V389.513H373.927V395.07H372.43V396H377.359V395.07H375.062V392.678C375.062 390.791 376.033 389.656 377.674 389.656C378.077 389.656 378.555 389.738 378.897 389.861V388.556C378.651 388.453 378.248 388.391 377.824 388.391C376.395 388.391 375.472 389.102 375.199 390.476H375.049Z" fill="#FFA882"/>
<path d="M272.467 250.456V246.136H271.25V250.456H272.467ZM275.14 250.456V246.136H273.909V250.456H275.14ZM278.999 250.586C278.999 251.639 279.662 252.315 281.002 252.623L282.102 252.876C283.046 253.088 283.408 253.402 283.408 253.99C283.408 254.701 282.765 255.159 281.754 255.159C280.797 255.159 280.14 254.763 279.969 254.079H278.787C278.917 255.35 280.031 256.137 281.713 256.137C283.469 256.137 284.611 255.248 284.611 253.881C284.611 252.807 283.955 252.179 282.512 251.85L281.466 251.611C280.537 251.406 280.154 251.085 280.154 250.517C280.154 249.841 280.762 249.403 281.706 249.403C282.574 249.403 283.196 249.8 283.333 250.449H284.454C284.317 249.212 283.271 248.439 281.726 248.439C280.092 248.439 278.999 249.301 278.999 250.586ZM288.949 246.594V248.603H286.973V249.595H288.949V253.792C288.949 255.337 289.803 256.034 291.642 256.034C291.997 256.034 292.9 256 293.084 255.966V254.981C292.886 255.002 292.141 255.022 291.724 255.022C290.678 255.022 290.111 254.585 290.111 253.778V249.595H293.105V248.603H290.097V246.594H288.949ZM297.976 256.13C299.056 256.13 299.862 255.685 300.218 254.892H300.334V256.007H301.441V250.928C301.441 249.383 300.443 248.494 298.7 248.494C297.183 248.494 296.034 249.307 295.897 250.497H297.039C297.23 249.861 297.832 249.499 298.686 249.499C299.719 249.499 300.286 250.012 300.286 250.941V251.611L298.249 251.714C296.56 251.803 295.617 252.582 295.617 253.894C295.617 255.241 296.56 256.13 297.976 256.13ZM298.31 255.111C297.374 255.111 296.793 254.633 296.793 253.853C296.793 253.081 297.34 252.637 298.379 252.589L300.286 252.5V253.375C300.286 254.366 299.432 255.111 298.31 255.111ZM306.934 250.476V248.583H304.166V249.513H305.813V255.07H304.316V256H309.245V255.07H306.948V252.678C306.948 250.791 307.919 249.656 309.559 249.656C309.962 249.656 310.441 249.738 310.783 249.861V248.556C310.537 248.453 310.133 248.391 309.71 248.391C308.281 248.391 307.358 249.102 307.085 250.476H306.934ZM314.491 246.594V248.603H312.516V249.595H314.491V253.792C314.491 255.337 315.346 256.034 317.185 256.034C317.54 256.034 318.443 256 318.627 255.966V254.981C318.429 255.002 317.684 255.022 317.267 255.022C316.221 255.022 315.654 254.585 315.654 253.778V249.595H318.648V248.603H315.64V246.594H314.491ZM323.553 250.456V246.136H322.336V250.456H323.553ZM326.225 250.456V246.136H324.995V250.456H326.225Z" fill="#92E1A7"/>
<path d="M322.534 284.936C324.195 284.936 324.722 284.41 324.722 282.722V281.19C324.722 280.138 325.337 279.522 326.936 279.686V278.449C325.337 278.613 324.722 278.005 324.722 276.945V275.414C324.722 273.725 324.195 273.199 322.534 273.199H321.604V274.136H322.349C323.375 274.136 323.573 274.375 323.573 275.564V277.39C323.573 278.347 324.291 278.982 325.679 279.016V279.126C324.291 279.153 323.573 279.789 323.573 280.746V282.571C323.573 283.761 323.375 284 322.349 284H321.604V284.936H322.534ZM339.46 284.936L344.273 273.199H343.131L338.325 284.936H339.46ZM351.57 279.563V279.686L346.874 282.291V283.597L352.753 280.131V279.119L346.874 275.653V276.959L351.57 279.563ZM114.352 304.959V303.653L108.473 307.119V308.131L114.352 311.597V310.291L109.649 307.686V307.563L114.352 304.959ZM118.088 312.936L122.901 301.199H121.759L116.954 312.936H118.088ZM232.37 307.563V307.686L227.674 310.291V311.597L233.553 308.131V307.119L227.674 303.653V304.959L232.37 307.563ZM114.352 332.959V331.653L108.473 335.119V336.131L114.352 339.597V338.291L109.649 335.686V335.563L114.352 332.959ZM189.798 335.563V335.686L185.102 338.291V339.597L190.981 336.131V335.119L185.102 331.653V332.959L189.798 335.563ZM131.381 360.959V359.653L125.502 363.119V364.131L131.381 367.597V366.291L126.678 363.686V363.563L131.381 360.959ZM155.741 363.563V363.686L151.045 366.291V367.597L156.924 364.131V363.119L151.045 359.653V360.959L155.741 363.563ZM165.165 368.936V368H164.42C163.394 368 163.196 367.761 163.196 366.571V364.746C163.196 363.789 162.478 363.153 161.091 363.126V363.016C162.478 362.982 163.196 362.347 163.196 361.39V359.564C163.196 358.375 163.394 358.136 164.42 358.136H165.165V357.199H164.235C162.574 357.199 162.048 357.725 162.048 359.414V360.945C162.048 362.005 161.432 362.613 159.833 362.449V363.686C161.432 363.522 162.048 364.138 162.048 365.19V366.722C162.048 368.41 162.574 368.936 164.235 368.936H165.165ZM213.584 368.041C214.261 368.041 214.822 367.474 214.822 366.776C214.822 366.086 214.261 365.518 213.584 365.518C212.908 365.518 212.347 366.086 212.347 366.776C212.347 367.474 212.908 368.041 213.584 368.041ZM262.934 368.936C264.595 368.936 265.121 368.41 265.121 366.722V365.19C265.121 364.138 265.737 363.522 267.336 363.686V362.449C265.737 362.613 265.121 362.005 265.121 360.945V359.414C265.121 357.725 264.595 357.199 262.934 357.199H262.004V358.136H262.749C263.775 358.136 263.973 358.375 263.973 359.564V361.39C263.973 362.347 264.691 362.982 266.078 363.016V363.126C264.691 363.153 263.973 363.789 263.973 364.746V366.571C263.973 367.761 263.775 368 262.749 368H262.004V368.936H262.934ZM276.124 360.959V359.653L270.245 363.119V364.131L276.124 367.597V366.291L271.421 363.686V363.563L276.124 360.959ZM279.86 368.936L284.673 357.199H283.531L278.725 368.936H279.86ZM308.999 363.563V363.686L304.302 366.291V367.597L310.181 364.131V363.119L304.302 359.653V360.959L308.999 363.563ZM131.381 388.959V387.653L125.502 391.119V392.131L131.381 395.597V394.291L126.678 391.686V391.563L131.381 388.959ZM147.227 391.563V391.686L142.531 394.291V395.597L148.41 392.131V391.119L142.531 387.653V388.959L147.227 391.563ZM156.65 396.936V396H155.905C154.88 396 154.682 395.761 154.682 394.571V392.746C154.682 391.789 153.964 391.153 152.576 391.126V391.016C153.964 390.982 154.682 390.347 154.682 389.39V387.564C154.682 386.375 154.88 386.136 155.905 386.136H156.65V385.199H155.721C154.06 385.199 153.533 385.725 153.533 387.414V388.945C153.533 390.005 152.918 390.613 151.318 390.449V391.686C152.918 391.522 153.533 392.138 153.533 393.19V394.722C153.533 396.41 154.06 396.936 155.721 396.936H156.65ZM205.07 396.041C205.747 396.041 206.307 395.474 206.307 394.776C206.307 394.086 205.747 393.518 205.07 393.518C204.393 393.518 203.833 394.086 203.833 394.776C203.833 395.474 204.393 396.041 205.07 396.041ZM262.934 396.936C264.595 396.936 265.121 396.41 265.121 394.722V393.19C265.121 392.138 265.737 391.522 267.336 391.686V390.449C265.737 390.613 265.121 390.005 265.121 388.945V387.414C265.121 385.725 264.595 385.199 262.934 385.199H262.004V386.136H262.749C263.775 386.136 263.973 386.375 263.973 387.564V389.39C263.973 390.347 264.691 390.982 266.078 391.016V391.126C264.691 391.153 263.973 391.789 263.973 392.746V394.571C263.973 395.761 263.775 396 262.749 396H262.004V396.936H262.934ZM272.829 398.29L274.066 393.409H272.494L271.605 398.29H272.829ZM292.879 396.936V396H292.134C291.109 396 290.91 395.761 290.91 394.571V392.746C290.91 391.789 290.193 391.153 288.805 391.126V391.016C290.193 390.982 290.91 390.347 290.91 389.39V387.564C290.91 386.375 291.109 386.136 292.134 386.136H292.879V385.199H291.949C290.288 385.199 289.762 385.725 289.762 387.414V388.945C289.762 390.005 289.147 390.613 287.547 390.449V391.686C289.147 391.522 289.762 392.138 289.762 393.19V394.722C289.762 396.41 290.288 396.936 291.949 396.936H292.879ZM341.299 396.041C341.976 396.041 342.536 395.474 342.536 394.776C342.536 394.086 341.976 393.518 341.299 393.518C340.622 393.518 340.062 394.086 340.062 394.776C340.062 395.474 340.622 396.041 341.299 396.041ZM382.134 396.936C383.795 396.936 384.322 396.41 384.322 394.722V393.19C384.322 392.138 384.937 391.522 386.536 391.686V390.449C384.937 390.613 384.322 390.005 384.322 388.945V387.414C384.322 385.725 383.795 385.199 382.134 385.199H381.204V386.136H381.95C382.975 386.136 383.173 386.375 383.173 387.564V389.39C383.173 390.347 383.891 390.982 385.279 391.016V391.126C383.891 391.153 383.173 391.789 383.173 392.746V394.571C383.173 395.761 382.975 396 381.95 396H381.204V396.936H382.134ZM395.324 388.959V387.653L389.445 391.119V392.131L395.324 395.597V394.291L390.621 391.686V391.563L395.324 388.959ZM399.06 396.936L403.873 385.199H402.731L397.925 396.936H399.06ZM419.684 391.563V391.686L414.988 394.291V395.597L420.867 392.131V391.119L414.988 387.653V388.959L419.684 391.563ZM114.352 416.959V415.653L108.473 419.119V420.131L114.352 423.597V422.291L109.649 419.686V419.563L114.352 416.959ZM118.088 424.936L122.901 413.199H121.759L116.954 424.936H118.088ZM198.313 419.563V419.686L193.616 422.291V423.597L199.495 420.131V419.119L193.616 415.653V416.959L198.313 419.563ZM97.3238 444.959V443.653L91.4449 447.119V448.131L97.3238 451.597V450.291L92.6207 447.686V447.563L97.3238 444.959ZM101.06 452.936L105.872 441.199H104.731L99.925 452.936H101.06ZM172.77 447.563V447.686L168.074 450.291V451.597L173.952 448.131V447.119L168.074 443.653V444.959L172.77 447.563ZM75.6331 469.185C77.0481 471.175 77.6429 472.918 77.6429 475.064C77.6429 477.211 77.0481 478.954 75.6331 480.943H76.7884C78.1487 479.398 78.846 477.389 78.846 475.064C78.846 472.747 78.1487 470.73 76.7884 469.185H75.6331ZM84.1337 480.936C85.7948 480.936 86.3212 480.41 86.3212 478.722V477.19C86.3212 476.138 86.9364 475.522 88.5361 475.686V474.449C86.9364 474.613 86.3212 474.005 86.3212 472.945V471.414C86.3212 469.725 85.7948 469.199 84.1337 469.199H83.204V470.136H83.9491C84.9745 470.136 85.1728 470.375 85.1728 471.564V473.39C85.1728 474.347 85.8905 474.982 87.2782 475.016V475.126C85.8905 475.153 85.1728 475.789 85.1728 476.746V478.571C85.1728 479.761 84.9745 480 83.9491 480H83.204V480.936H84.1337ZM63.2666 500.959V499.653L57.3877 503.119V504.131L63.2666 507.597V506.291L58.5635 503.686V503.563L63.2666 500.959ZM67.0026 508.936L71.8151 497.199H70.6735L65.8678 508.936H67.0026ZM138.713 503.563V503.686L134.016 506.291V507.597L139.895 504.131V503.119L134.016 499.653V500.959L138.713 503.563Z" fill="#CED6E0"/>
<path opacity="0.2" d="M24 60.9999H504" stroke="#CDDFFF"/>
<path d="M56 60.9999L152 60.9999" stroke="#6EC5FF"/>
<path d="M59.4902 38.6893L60.6797 34.787H60.709L61.8926 38.6893H59.4902ZM62.8945 41.9999H63.9844L61.2598 33.5448H60.1582L57.4336 41.9999H58.4824L59.2207 39.5741H62.1621L62.8945 41.9999ZM70.7843 41.9999V41.1737H68.6866V33.1464H65.5343V33.9725H67.6905V41.1737H65.5167V41.9999H70.7843ZM75.7034 42.1053C77.1741 42.1053 78.135 41.0448 78.135 39.41V38.2264C78.135 36.5975 77.1741 35.537 75.7034 35.537C74.7834 35.537 74.1096 35.9296 73.8284 36.6268H73.7229V33.1464H72.7092V41.9999H73.6877V41.0272H73.7991C74.1272 41.7303 74.7952 42.1053 75.7034 42.1053ZM75.4104 41.1971C74.3674 41.1971 73.6995 40.4471 73.6995 39.2694V38.3553C73.6995 37.1835 74.3674 36.4335 75.4104 36.4335C76.4651 36.4335 77.133 37.1835 77.133 38.3553V39.2694C77.133 40.4413 76.4651 41.1971 75.4104 41.1971ZM85.2045 35.6425H84.2084V39.3866C84.2084 40.4706 83.5052 41.203 82.4564 41.203C81.4662 41.203 80.9974 40.6639 80.9974 39.5155V35.6425H80.0013V39.7675C80.0013 41.2909 80.7513 42.1171 82.1341 42.1171C83.1009 42.1171 83.8275 41.6718 84.1673 40.8807H84.2494V41.9999H85.2045V35.6425ZM92.9653 37.3182C92.9653 36.1405 92.5024 35.5253 91.6177 35.5253C90.979 35.5253 90.4692 35.912 90.3052 36.5214H90.1997C90.0649 35.8944 89.643 35.5253 89.0454 35.5253C88.4477 35.5253 87.9907 35.9003 87.8325 36.5389H87.727V35.6425H86.8364V41.9999H87.7329V37.7108C87.7329 36.9198 88.0845 36.4335 88.647 36.4335C89.186 36.4335 89.4673 36.8378 89.4673 37.6053V41.9999H90.3579V37.7108C90.3579 36.9198 90.6977 36.4335 91.2544 36.4335C91.7876 36.4335 92.0688 36.8378 92.0688 37.6112V41.9999H92.9653V37.3182ZM100.064 41.0389H96.0563V33.5448H95.0309V41.9999H100.064V41.0389ZM104.608 34.0839C105.077 34.0839 105.434 33.7323 105.434 33.2635C105.434 32.8007 105.077 32.4491 104.608 32.4491C104.139 32.4491 103.782 32.8007 103.782 33.2635C103.782 33.7323 104.139 34.0839 104.608 34.0839ZM107.274 41.9999V41.1737H105.171V35.6425H102.024V36.4686H104.186V41.1737H102.007V41.9999H107.274ZM109.48 37.3593C109.48 38.2616 110.049 38.8417 111.197 39.1053L112.14 39.3221C112.949 39.5038 113.26 39.7733 113.26 40.2772C113.26 40.8866 112.709 41.2792 111.842 41.2792C111.021 41.2792 110.459 40.9393 110.312 40.3534H109.299C109.41 41.4432 110.365 42.1171 111.806 42.1171C113.312 42.1171 114.291 41.3553 114.291 40.1835C114.291 39.2635 113.728 38.7245 112.492 38.4432L111.596 38.2382C110.799 38.0624 110.471 37.787 110.471 37.3007C110.471 36.7206 110.992 36.3456 111.801 36.3456C112.545 36.3456 113.078 36.6854 113.195 37.2421H114.156C114.039 36.1815 113.142 35.5194 111.818 35.5194C110.418 35.5194 109.48 36.2577 109.48 37.3593ZM118.009 33.9374V35.66H116.315V36.5096H118.009V40.1073C118.009 41.4315 118.741 42.0292 120.317 42.0292C120.622 42.0292 121.395 41.9999 121.554 41.9706V41.1268C121.384 41.1444 120.745 41.162 120.388 41.162C119.491 41.162 119.005 40.787 119.005 40.0956V36.5096H121.571V35.66H118.993V33.9374H118.009ZM126.391 42.035C126.971 42.035 127.451 41.5487 127.451 40.951C127.451 40.3593 126.971 39.8729 126.391 39.8729C125.811 39.8729 125.33 40.3593 125.33 40.951C125.33 41.5487 125.811 42.035 126.391 42.035ZM135.101 35.6425H131.216V36.4686H134.122V41.8475C134.122 42.7557 133.765 43.037 132.581 43.037C132.195 43.037 131.374 43.0194 131.07 42.9901V43.8807C131.491 43.9159 132.171 43.9276 132.611 43.9276C134.38 43.9276 135.101 43.371 135.101 41.9647V35.6425ZM134.527 34.0839C134.995 34.0839 135.353 33.7323 135.353 33.2635C135.353 32.8007 134.995 32.4491 134.527 32.4491C134.058 32.4491 133.7 32.8007 133.7 33.2635C133.7 33.7323 134.058 34.0839 134.527 34.0839ZM138.672 37.3593C138.672 38.2616 139.241 38.8417 140.389 39.1053L141.332 39.3221C142.141 39.5038 142.451 39.7733 142.451 40.2772C142.451 40.8866 141.901 41.2792 141.034 41.2792C140.213 41.2792 139.651 40.9393 139.504 40.3534H138.491C138.602 41.4432 139.557 42.1171 140.998 42.1171C142.504 42.1171 143.483 41.3553 143.483 40.1835C143.483 39.2635 142.92 38.7245 141.684 38.4432L140.787 38.2382C139.991 38.0624 139.662 37.787 139.662 37.3007C139.662 36.7206 140.184 36.3456 140.993 36.3456C141.737 36.3456 142.27 36.6854 142.387 37.2421H143.348C143.231 36.1815 142.334 35.5194 141.01 35.5194C139.61 35.5194 138.672 36.2577 138.672 37.3593ZM148.308 39.5507L149.908 41.9999H151.062L148.871 38.7772L151.044 35.6425H149.925L148.349 38.0507H148.267L146.685 35.6425H145.507L147.705 38.8182L145.525 41.9999H146.626L148.232 39.5507H148.308Z" fill="#E9EDF3"/>
<defs>
<filter id="filter0_dd" x="0" y="-0.00012207" width="528" height="608" filterUnits="userSpaceOnUse" color-interpolation-filters="sRGB">
<feFlood flood-opacity="0" result="BackgroundImageFix"/>
<feColorMatrix in="SourceAlpha" type="matrix" values="0 0 0 0 0 0 0 0 0 0 0 0 0 0 0 0 0 0 127 0"/>
<feOffset dy="12"/>
<feGaussianBlur stdDeviation="12"/>
<feColorMatrix type="matrix" values="0 0 0 0 0.00755134 0 0 0 0 0.0324193 0 0 0 0 0.0786026 0 0 0 0.2 0"/>
<feBlend mode="normal" in2="BackgroundImageFix" result="effect1_dropShadow"/>
<feColorMatrix in="SourceAlpha" type="matrix" values="0 0 0 0 0 0 0 0 0 0 0 0 0 0 0 0 0 0 127 0"/>
<feOffset dy="4"/>
<feGaussianBlur stdDeviation="4"/>
<feColorMatrix type="matrix" values="0 0 0 0 0.00755134 0 0 0 0 0.0324193 0 0 0 0 0.0786026 0 0 0 0.1 0"/>
<feBlend mode="normal" in2="effect1_dropShadow" result="effect2_dropShadow"/>
<feBlend mode="normal" in="SourceGraphic" in2="effect2_dropShadow" result="shape"/>
</filter>
</defs>
</svg>
