<svg width="604" height="624" viewBox="0 0 604 624" fill="none" xmlns="http://www.w3.org/2000/svg">
<path d="M363.344 527.743C364.279 529.365 363.506 530.679 361.616 530.679C359.727 530.679 357.438 529.365 356.503 527.743C355.569 526.122 356.342 524.808 358.231 524.808C360.12 524.808 362.409 526.122 363.344 527.743Z" fill="#B7DEFF"/>
<path d="M328.682 527.743C329.616 529.365 328.843 530.679 326.954 530.679C325.065 530.679 322.776 529.365 321.841 527.743C320.906 526.122 321.679 524.808 323.569 524.808C325.458 524.808 327.747 526.122 328.682 527.743Z" fill="#B7DEFF"/>
<path d="M354.596 542.608C355.531 544.229 354.758 545.543 352.869 545.543C350.98 545.543 348.69 544.229 347.756 542.608C346.821 540.986 347.594 539.672 349.483 539.672C351.372 539.672 353.661 540.986 354.596 542.608Z" fill="#B7DEFF"/>
<path d="M294.019 527.743C294.954 529.365 294.18 530.679 292.291 530.679C290.402 530.679 288.113 529.365 287.178 527.743C286.243 526.122 287.017 524.808 288.906 524.808C290.795 524.808 293.084 526.122 294.019 527.743Z" fill="#B7DEFF"/>
<path d="M259.357 527.743C260.292 529.365 259.518 530.679 257.629 530.679C255.74 530.679 253.451 529.365 252.516 527.743C251.581 526.122 252.355 524.808 254.244 524.808C256.133 524.808 258.422 526.122 259.357 527.743Z" fill="#B7DEFF"/>
<path d="M285.271 542.608C286.206 544.229 285.433 545.543 283.544 545.543C281.655 545.543 279.365 544.229 278.431 542.608C277.496 540.986 278.269 539.672 280.158 539.672C282.047 539.672 284.336 540.986 285.271 542.608Z" fill="#B7DEFF"/>
<path d="M319.934 542.608C320.869 544.229 320.095 545.543 318.206 545.543C316.317 545.543 314.028 544.229 313.093 542.608C312.158 540.986 312.932 539.672 314.821 539.672C316.71 539.672 318.999 540.986 319.934 542.608Z" fill="#B7DEFF"/>
<path d="M345.848 557.472C346.783 559.093 346.01 560.407 344.121 560.407C342.232 560.407 339.942 559.093 339.008 557.472C338.073 555.851 338.846 554.536 340.735 554.536C342.624 554.536 344.913 555.851 345.848 557.472Z" fill="#B7DEFF"/>
<path d="M311.186 557.472C312.121 559.093 311.347 560.407 309.458 560.407C307.569 560.407 305.28 559.093 304.345 557.472C303.41 555.851 304.184 554.536 306.073 554.536C307.962 554.536 310.251 555.851 311.186 557.472Z" fill="#B7DEFF"/>
<path d="M337.101 572.336C338.035 573.957 337.262 575.272 335.373 575.272C333.484 575.272 331.195 573.957 330.26 572.336C329.325 570.715 330.098 569.4 331.987 569.4C333.877 569.4 336.166 570.715 337.101 572.336Z" fill="#B7DEFF"/>
<path d="M224.694 527.743C225.629 529.365 224.856 530.679 222.967 530.679C221.078 530.679 218.788 529.365 217.854 527.743C216.919 526.122 217.692 524.808 219.581 524.808C221.47 524.808 223.76 526.122 224.694 527.743Z" fill="#B7DEFF"/>
<path d="M190.032 527.743C190.967 529.365 190.193 530.679 188.304 530.679C186.415 530.679 184.126 529.365 183.191 527.743C182.256 526.122 183.03 524.808 184.919 524.808C186.808 524.808 189.097 526.122 190.032 527.743Z" fill="#B7DEFF"/>
<path d="M215.946 542.608C216.881 544.229 216.108 545.543 214.219 545.543C212.33 545.543 210.041 544.229 209.106 542.608C208.171 540.986 208.944 539.672 210.833 539.672C212.722 539.672 215.012 540.986 215.946 542.608Z" fill="#B7DEFF"/>
<path d="M250.609 542.608C251.544 544.229 250.77 545.543 248.881 545.543C246.992 545.543 244.703 544.229 243.768 542.608C242.833 540.986 243.607 539.672 245.496 539.672C247.385 539.672 249.674 540.986 250.609 542.608Z" fill="#B7DEFF"/>
<path d="M276.523 557.472C277.458 559.093 276.684 560.407 274.795 560.407C272.906 560.407 270.617 559.093 269.682 557.472C268.748 555.85 269.521 554.536 271.41 554.536C273.299 554.536 275.588 555.85 276.523 557.472Z" fill="#B7DEFF"/>
<path d="M241.861 557.472C242.796 559.093 242.022 560.407 240.133 560.407C238.244 560.407 235.955 559.093 235.02 557.472C234.085 555.85 234.859 554.536 236.748 554.536C238.637 554.536 240.926 555.85 241.861 557.472Z" fill="#B7DEFF"/>
<path d="M267.775 572.336C268.71 573.957 267.937 575.272 266.048 575.272C264.159 575.272 261.87 573.957 260.935 572.336C260 570.715 260.773 569.4 262.662 569.4C264.551 569.4 266.841 570.715 267.775 572.336Z" fill="#B7DEFF"/>
<path d="M302.438 572.336C303.373 573.957 302.599 575.272 300.71 575.272C298.821 575.272 296.532 573.957 295.597 572.336C294.662 570.715 295.436 569.4 297.325 569.4C299.214 569.4 301.503 570.715 302.438 572.336Z" fill="#B7DEFF"/>
<path d="M328.352 587.2C329.287 588.821 328.513 590.136 326.624 590.136C324.735 590.136 322.446 588.821 321.511 587.2C320.577 585.579 321.35 584.265 323.239 584.265C325.128 584.265 327.417 585.579 328.352 587.2Z" fill="#B7DEFF"/>
<path d="M293.69 587.2C294.625 588.821 293.851 590.136 291.962 590.136C290.073 590.136 287.784 588.821 286.849 587.2C285.914 585.579 286.688 584.265 288.577 584.265C290.466 584.265 292.755 585.579 293.69 587.2Z" fill="#B7DEFF"/>
<path d="M319.604 602.064C320.539 603.686 319.766 605 317.877 605C315.988 605 313.699 603.686 312.764 602.064C311.829 600.443 312.602 599.129 314.491 599.129C316.38 599.129 318.67 600.443 319.604 602.064Z" fill="#B7DEFF"/>
<g filter="url(#filter0_b)">
<rect width="213.627" height="242.517" rx="16" transform="matrix(1 0 -0.277395 0.960756 204.872 120)" fill="#F2F7FC"/>
</g>
<g filter="url(#filter1_b)">
<rect x="2.89042" y="3.84302" width="208.466" height="423.582" rx="36" transform="matrix(1 0 -0.277395 0.960756 190.326 36.2377)" stroke="#156AFF" stroke-opacity="0.6" stroke-width="8"/>
</g>
<rect x="-2.89042" y="3.84302" width="218.68" height="407.983" rx="36" transform="matrix(-1 -8.74228e-08 0.277395 0.960756 405.121 176.873)" stroke="#F27E93" stroke-width="8"/>
<path d="M270.132 236.087C269.581 235.144 268.25 234.379 267.158 234.379H239.777L246.494 226.301C247.128 225.539 246.28 224.112 244.752 223.366C243.629 222.818 242.497 222.826 242.031 223.386L232.947 234.311C232.184 235.229 233.185 236.944 235.019 237.862L256.853 248.784C257.97 249.343 259.108 249.343 259.573 248.784C260.188 248.044 259.385 246.662 257.907 245.918L241.77 237.794H269.151C270.243 237.794 270.682 237.029 270.132 236.087Z" fill="#F27E93"/>
<g filter="url(#filter2_b)">
<rect x="-2.89042" y="3.84302" width="203.537" height="345.627" rx="28" transform="matrix(-1 -8.74228e-08 0.277395 0.960756 445.027 202.737)" stroke="#EA9FD4" stroke-opacity="0.3" stroke-width="8"/>
</g>
<g filter="url(#filter3_b)">
<path d="M511.738 325L301.273 325L330.852 424.824C333.99 435.415 345.489 444 356.534 444L526.999 444C538.045 444 544.455 435.415 541.317 424.824L511.738 325Z" fill="#F0F9FF" fill-opacity="0.08"/>
</g>
<g filter="url(#filter4_b)">
<path d="M503.495 296.176C500.356 285.585 488.858 277 477.812 277L307.348 277C296.302 277 289.892 285.585 293.03 296.176L301.571 325L512.035 325L503.495 296.176Z" fill="#F27EBD" fill-opacity="0.07"/>
</g>
<rect opacity="0.34" width="43.3264" height="15.1304" rx="7.56521" transform="matrix(1 -7.37229e-09 0.277395 0.960756 352.409 229.232)" fill="#F4CD7F"/>
<path fill-rule="evenodd" clip-rule="evenodd" d="M388.798 246.402C395.527 246.402 399.574 241.521 397.835 235.5C396.097 229.479 389.232 224.597 382.502 224.597C375.772 224.597 371.726 229.479 373.464 235.5C375.203 241.521 382.068 246.402 388.798 246.402Z" fill="#F4CD7F"/>
<g filter="url(#filter5_b)">
<ellipse rx="29.2381" ry="28.9304" transform="matrix(1 0 0.277395 0.960756 509.263 483.795)" fill="#73A6FF"/>
</g>
<path d="M526.573 484.63H513.266L516.263 495.011H512.169L509.172 484.63H495.865L494.943 481.436H508.249L505.252 471.055H509.347L512.344 481.436H525.651L526.573 484.63Z" fill="white"/>
<g filter="url(#filter6_b)">
<rect width="25" height="9" rx="4" transform="matrix(-1 0 0 1 548 405)" fill="#F27EB6" fill-opacity="0.2"/>
<rect width="25.7764" height="8.24845" rx="4" transform="matrix(-1 0 0 1 489.776 405.491)" fill="#F27EB6" fill-opacity="0.2"/>
<rect width="16.4969" height="8.24845" rx="4" transform="matrix(-1 0 0 1 514.702 405.491)" fill="#F27EB6" fill-opacity="0.2"/>
<rect width="12.3727" height="8.24845" rx="4" transform="matrix(-1 0 0 1 483.77 389.434)" fill="#F27EB6" fill-opacity="0.2"/>
<rect width="41" height="9" rx="4" transform="matrix(-1 0 0 1 570 389)" fill="#F27EB6" fill-opacity="0.2"/>
<rect width="28.8696" height="8.24845" rx="4" transform="matrix(-1 0 0 1 520.888 389.434)" fill="#F27EB6" fill-opacity="0.2"/>
<rect width="45.3665" height="8.24845" rx="4" transform="matrix(-1 0 0 1 506.453 372.937)" fill="#F27EB6" fill-opacity="0.2"/>
<rect width="16.4969" height="8.24845" rx="4" transform="matrix(-1 0 0 1 531.198 372.937)" fill="#F27EB6" fill-opacity="0.2"/>
<rect width="27.8385" height="8.24845" rx="4" transform="matrix(-1 0 0 1 452.839 372.497)" fill="#F27EB6" fill-opacity="0.2"/>
<rect width="34.0249" height="8.24845" rx="4" transform="matrix(-1 0 0 1 549.758 356)" fill="#F27EB6" fill-opacity="0.2"/>
<rect width="16.4969" height="8.24845" rx="4" transform="matrix(-1 0 0 1 507.484 356.44)" fill="#F27EB6" fill-opacity="0.2"/>
<rect width="26.8075" height="8.24845" rx="4" transform="matrix(-1 0 0 1 482.738 356.44)" fill="#F27EB6" fill-opacity="0.2"/>
</g>
<g filter="url(#filter7_b)">
<path d="M325.881 23.1484C325.145 24.4242 325.754 25.4584 327.241 25.4584C328.727 25.4584 330.528 24.4242 331.264 23.1484C331.999 21.8727 331.391 20.8385 329.904 20.8385C328.418 20.8385 326.617 21.8727 325.881 23.1484Z" fill="#F27E93"/>
<path d="M353.156 23.1484C352.42 24.4242 353.029 25.4584 354.515 25.4584C356.002 25.4584 357.803 24.4242 358.539 23.1484C359.274 21.8727 358.666 20.8385 357.179 20.8385C355.693 20.8385 353.891 21.8727 353.156 23.1484Z" fill="#F27E93"/>
<path d="M332.765 34.8446C332.029 36.1203 332.638 37.1545 334.124 37.1545C335.61 37.1545 337.412 36.1203 338.147 34.8446C338.883 33.5688 338.274 32.5346 336.788 32.5346C335.301 32.5346 333.5 33.5688 332.765 34.8446Z" fill="#F27E93"/>
<path d="M380.431 23.1484C379.695 24.4242 380.304 25.4584 381.79 25.4584C383.276 25.4584 385.078 24.4242 385.813 23.1484C386.549 21.8727 385.94 20.8385 384.454 20.8385C382.968 20.8385 381.166 21.8727 380.431 23.1484Z" fill="#F27E93"/>
<path d="M407.705 23.1484C406.97 24.4242 407.578 25.4584 409.065 25.4584C410.551 25.4584 412.352 24.4242 413.088 23.1484C413.824 21.8727 413.215 20.8385 411.729 20.8385C410.242 20.8385 408.441 21.8727 407.705 23.1484Z" fill="#F27E93"/>
<path d="M387.314 34.8446C386.578 36.1203 387.187 37.1545 388.673 37.1545C390.16 37.1545 391.961 36.1203 392.697 34.8446C393.432 33.5688 392.824 32.5346 391.337 32.5346C389.851 32.5346 388.05 33.5688 387.314 34.8446Z" fill="#F27E93"/>
<path d="M360.039 34.8446C359.304 36.1203 359.912 37.1545 361.399 37.1545C362.885 37.1545 364.686 36.1203 365.422 34.8446C366.158 33.5688 365.549 32.5346 364.062 32.5346C362.576 32.5346 360.775 33.5688 360.039 34.8446Z" fill="#F27E93"/>
<path d="M339.648 46.5407C338.912 47.8164 339.521 48.8506 341.007 48.8506C342.494 48.8506 344.295 47.8164 345.031 46.5407C345.766 45.2649 345.158 44.2308 343.671 44.2308C342.185 44.2308 340.384 45.2649 339.648 46.5407Z" fill="#F27E93"/>
<path d="M366.923 46.5407C366.187 47.8164 366.796 48.8506 368.282 48.8506C369.768 48.8506 371.57 47.8164 372.305 46.5407C373.041 45.2649 372.432 44.2308 370.946 44.2308C369.459 44.2308 367.658 45.2649 366.923 46.5407Z" fill="#F27E93"/>
<path d="M346.531 58.2368C345.796 59.5126 346.404 60.5468 347.891 60.5468C349.377 60.5468 351.178 59.5126 351.914 58.2368C352.65 56.9611 352.041 55.9269 350.555 55.9269C349.068 55.9269 347.267 56.9611 346.531 58.2368Z" fill="#F27E93"/>
</g>
<g filter="url(#filter8_b)">
<rect x="2.89042" y="3.84302" width="195.59" height="354.732" rx="28" transform="matrix(1 0 -0.277395 0.960756 144.548 59.9521)" stroke="#60BBFD" stroke-opacity="0.2" stroke-width="8"/>
</g>
<g filter="url(#filter9_b)">
<rect width="213.134" height="71.8184" rx="20" transform="matrix(1 0 -0.277395 0.960756 37.6611 315)" fill="#DCF0FF" fill-opacity="0.06"/>
</g>
<g filter="url(#filter10_b)">
<g filter="url(#filter11_b)">
<rect width="31.3193" height="32.1952" rx="8" transform="matrix(1 0 -0.277395 0.960756 188.364 331.409)" fill="#F27E93" fill-opacity="0.8"/>
</g>
<ellipse rx="15.3169" ry="18.4259" transform="matrix(-0.0852585 -0.996359 0.898629 -0.438709 131.53 345.991)" fill="#F5C25F" fill-opacity="0.8"/>
<g filter="url(#filter12_b)">
<path d="M64.7279 333.398C67.1268 330.746 70.4676 330.746 71.0734 333.398L76.1906 355.799C76.8631 358.743 73.7247 362.666 70.6969 362.666H45.3181C42.2903 362.666 41.8037 358.743 44.4664 355.799L64.7279 333.398Z" fill="#71C994" fill-opacity="0.8"/>
</g>
</g>
<rect opacity="0.4" width="4.46946" height="19.1066" rx="2" transform="matrix(-0.319211 -0.801917 1.01765 -0.433211 283.633 118.52)" fill="#73B3FF"/>
<rect opacity="0.75" width="4.46946" height="19.1066" rx="2" transform="matrix(-0.319211 -0.801917 1.01765 -0.433211 239.886 137.144)" fill="#73A6FF"/>
<rect opacity="0.3" width="4.77666" height="17.8779" rx="2" transform="matrix(-0.767492 -0.433212 0.78228 -0.801917 281.342 113.975)" fill="#73B3FF"/>
<rect opacity="0.7" width="4.77666" height="17.8779" rx="2" transform="matrix(-0.767492 -0.433212 0.78228 -0.801917 249.874 146.233)" fill="#73A6FF"/>
<rect opacity="0.9" width="4.77666" height="17.8779" rx="2" transform="matrix(-1.01765 0.433211 -0.319212 -0.801917 269.631 111.905)" fill="#73A6FF"/>
<rect opacity="0.6" width="4.77666" height="17.8779" rx="2" transform="matrix(-1.01765 0.433211 -0.319212 -0.801917 282.472 144.163)" fill="#73A6FF"/>
<rect opacity="0.85" width="4.46946" height="19.1066" rx="2" transform="matrix(-0.782279 0.801917 -0.767492 -0.433212 263.351 114.936)" fill="#73A6FF"/>
<rect opacity="0.55" width="4.46946" height="19.1066" rx="2" transform="matrix(-0.782279 0.801917 -0.767492 -0.433212 296.346 133.559)" fill="#73ABFF"/>
<rect opacity="0.8" width="4.30766" height="19.6923" rx="2" transform="matrix(-0.277395 0.960756 -1 -3.11267e-08 259.057 119.832)" fill="#73A6FF"/>
<rect opacity="0.45" width="4.30766" height="19.6923" rx="2" transform="matrix(-0.277395 0.960756 -1 -3.11267e-08 303.364 119.832)" fill="#73B3FF"/>
<rect opacity="0.65" width="4.92307" height="17.2306" rx="2" transform="matrix(1 6.92692e-09 -0.277395 0.960756 265.319 132.248)" fill="#73A6FF"/>
<rect width="4.92307" height="17.2306" rx="2" transform="matrix(1 4.96883e-09 -0.277395 0.960756 276.073 95)" fill="#73A6FF"/>
<rect opacity="0.8" width="140.168" height="6.4481" rx="3.22405" transform="matrix(-1 -7.37229e-09 -0.277395 0.960756 231.957 478.805)" fill="#CBE9FE"/>
<rect opacity="0.5" width="50.4646" height="6.4481" rx="3.22405" transform="matrix(-1 -7.37229e-09 -0.277395 0.960756 142.253 478.805)" fill="#73A6FF"/>
<path fill-rule="evenodd" clip-rule="evenodd" d="M138.22 492.805C131.49 492.805 127.444 487.924 129.182 481.902C130.921 475.881 137.786 471 144.516 471C151.246 471 155.292 475.881 153.553 481.902C151.815 487.924 144.95 492.805 138.22 492.805Z" fill="#73A6FF"/>
<g filter="url(#filter13_b)">
<rect x="78.3906" y="195.901" width="11.3416" height="8.24845" rx="4" fill="#4EB4FF" fill-opacity="0.08"/>
<rect x="97.9805" y="195.901" width="16.4969" height="8.24845" rx="4" fill="#4EB4FF" fill-opacity="0.08"/>
<rect x="41.2725" y="195.901" width="28.8696" height="8.24845" rx="4" fill="#4EB4FF" fill-opacity="0.08"/>
<rect x="122.726" y="195.901" width="45.3665" height="8.24845" rx="4" fill="#4EB4FF" fill-opacity="0.08"/>
<rect x="145.409" y="178.813" width="12.3727" height="8.24845" rx="4" fill="#4EB4FF" fill-opacity="0.08"/>
<rect x="69.1104" y="178.813" width="30.9317" height="8.24845" rx="4" fill="#4EB4FF" fill-opacity="0.08"/>
<rect x="108.291" y="178.813" width="28.8696" height="8.24845" rx="4" fill="#4EB4FF" fill-opacity="0.08"/>
<rect x="122.726" y="162.316" width="45.3665" height="8.24845" rx="4" fill="#4EB4FF" fill-opacity="0.08"/>
<rect x="97.9805" y="162.316" width="16.4969" height="8.24845" rx="4" fill="#4EB4FF" fill-opacity="0.08"/>
<rect x="176.341" y="161.876" width="26.8075" height="8.24845" rx="4" fill="#4EB4FF" fill-opacity="0.08"/>
<rect x="84.5771" y="145.819" width="28.8696" height="8.24845" rx="4" fill="#4EB4FF" fill-opacity="0.08"/>
<rect x="121.694" y="145.819" width="16.4969" height="8.24845" rx="4" fill="#4EB4FF" fill-opacity="0.08"/>
<rect x="146.44" y="145.819" width="26.8075" height="8.24845" rx="4" fill="#4EB4FF" fill-opacity="0.08"/>
</g>
<g opacity="0.3">
<rect width="16.5517" height="4.63097" transform="matrix(1 5.92602e-09 0.50392 0.86375 441.116 620)" fill="#F27E93"/>
<path fill-rule="evenodd" clip-rule="evenodd" d="M415.619 602.776L416.902 600L436.449 612L430.904 624L426.383 621.224L430.645 612L415.619 602.776Z" fill="#F27E93"/>
</g>
<g filter="url(#filter14_b)">
<path d="M564.019 292.882C501.125 342.373 378.048 367.24 301.664 321.728C206.301 264.908 156.401 245.24 14.4658 284.576" stroke="url(#paint0_linear)" stroke-opacity="0.5" stroke-width="7" stroke-linecap="round" stroke-linejoin="round"/>
</g>
<path fill-rule="evenodd" clip-rule="evenodd" d="M218.425 262.919H210.177L221.191 301.069H229.44L218.425 262.919Z" fill="#F27E93"/>
<path fill-rule="evenodd" clip-rule="evenodd" d="M275.83 296.944H267.581L275.619 324.783H283.867L275.83 296.944Z" fill="#F4DEF2"/>
<path fill-rule="evenodd" clip-rule="evenodd" d="M262.834 322.721L270.276 296.944H278.525L271.082 322.721H262.834Z" fill="#DEEAFA"/>
<path fill-rule="evenodd" clip-rule="evenodd" d="M351.308 196L361.124 162H369.373L359.556 196H351.308Z" fill="#73A4FE"/>
<ellipse opacity="0.5" rx="4.4962" ry="5.40883" transform="matrix(0.0852585 -0.996359 -0.898629 -0.438709 508.244 224.853)" fill="#FBD3DA"/>
<ellipse opacity="0.3" rx="3.575" ry="4.30065" transform="matrix(0.0852585 -0.996359 -0.898629 -0.438709 440.327 91.4487)" fill="#73A6FF"/>
<ellipse opacity="0.5" rx="4.4846" ry="5.39487" transform="matrix(0.0852585 -0.996359 -0.898629 -0.438709 549.888 565.668)" fill="#7EB1FF"/>
<ellipse opacity="0.3" rx="4.71594" ry="5.67317" transform="matrix(-0.0852585 -0.996359 0.898629 -0.438709 85.4997 97.1876)" fill="#F27E93"/>
<ellipse opacity="0.3" rx="4.71594" ry="5.67317" transform="matrix(-0.0852585 -0.996359 0.898629 -0.438709 105.5 543.188)" fill="#8BD3AA"/>
<g opacity="0.9">
<path d="M20.7617 237.341C18.5398 237.341 17.3176 238.322 15.7702 238.322C14.1831 238.322 13.2543 237.347 11.3299 237.347C9.44518 237.347 7.12773 238.411 5.32815 240.223C2.7983 242.778 1.71283 247.591 3.43214 251.691C4.04662 253.159 4.96011 254.805 6.77354 254.823H6.80661C8.38711 254.823 9.13285 253.866 11.312 253.854H11.345C13.4876 253.854 13.6396 254.817 15.2134 254.817H15.2465C17.0702 254.799 19.0584 252.975 20.5187 251.513C21.5696 250.461 22.0001 249.933 22.9185 248.744C19.1448 247.271 20.0589 241.768 24.8209 239.659C23.975 238.191 22.4414 237.341 20.7617 237.341Z" fill="#4F637E"/>
<path d="M21.8152 232C20.4685 232.083 18.703 232.862 17.5036 233.878C16.4177 234.799 15.3486 236.165 15.2305 237.491H15.3363C16.7449 237.491 18.413 236.706 19.5428 235.702C20.6324 234.745 21.6385 233.39 21.8152 232Z" fill="#4F637E"/>
</g>
<g opacity="0.7">
<path d="M152.678 21.4588C152.532 21.9623 152.76 22.4805 153.339 22.4805H155.74L154.644 26.2753C154.364 27.2458 155.036 28.0267 156.153 28.0267C157.269 28.0267 158.392 27.2458 158.672 26.2753L159.768 22.4805H163.881L162.785 26.2753C162.627 26.8226 162.771 27.3115 163.132 27.6326C163.387 27.8807 163.781 28.0267 164.251 28.0267H164.293C165.41 28.0267 166.533 27.2458 166.813 26.2753L167.909 22.4805H170.225C170.813 22.4805 171.332 21.9623 171.475 21.4661L174.975 9.34461H156.175L152.678 21.4588ZM178.669 8.17698C177.553 8.17698 176.429 8.95783 176.149 9.92843L174.126 16.9342C173.846 17.9048 174.519 18.6857 175.635 18.6857C176.751 18.6857 177.875 17.9048 178.155 16.9342L180.178 9.92843C180.458 8.95783 179.785 8.17698 178.669 8.17698ZM153.155 8.17698C152.039 8.17698 150.916 8.95783 150.635 9.92843L148.613 16.9342C148.332 17.9048 149.005 18.6857 150.121 18.6857C151.237 18.6857 152.361 17.9048 152.641 16.9342L154.664 9.92843C154.944 8.95783 154.272 8.17698 153.155 8.17698Z" fill="#8BD3AA"/>
<path d="M172.376 1.83529L174.39 0.237092C174.434 0.200604 174.407 0.120329 174.334 0.0546497C174.258 -0.00373185 174.153 -0.0183268 174.115 0.0254594L172.024 1.68933C170.996 1.29526 169.674 1.04714 167.962 1.04714C166.244 1.03984 164.773 1.28066 163.52 1.66744L162.397 0.032757C162.374 -0.00373151 162.271 0.00356628 162.162 0.0619478C162.053 0.120329 161.981 0.193306 162 0.24439L163.081 1.82069C158.595 3.34591 156.91 7.08963 156.51 8.18428H175.276C175.519 7.08233 175.989 3.3897 172.376 1.83529ZM162.565 5.46954C161.944 5.46954 161.558 5.03168 161.712 4.49895C161.866 3.96621 162.496 3.52835 163.125 3.52835C163.746 3.52835 164.132 3.96621 163.978 4.49895C163.824 5.03168 163.194 5.46954 162.565 5.46954ZM170.823 5.46954C170.202 5.46954 169.816 5.03168 169.97 4.49895C170.124 3.96621 170.754 3.52835 171.384 3.52835C172.005 3.52835 172.39 3.96621 172.236 4.49895C172.082 5.03168 171.444 5.46954 170.823 5.46954Z" fill="#8BD3AA"/>
</g>
<path d="M37.9082 441.757C37.4662 443.288 35.7913 444.529 34.1671 444.529C32.543 444.529 31.5847 443.288 32.0267 441.757C32.4686 440.226 34.1435 438.985 35.7677 438.985C37.3918 438.985 38.3501 440.226 37.9082 441.757Z" fill="#9CDBFF"/>
<path fill-rule="evenodd" clip-rule="evenodd" d="M37.9789 431.326C37.6244 430.885 37.2608 430.48 36.8911 430.117C35.9365 429.178 34.9179 428.487 33.8808 428.14C32.8437 427.794 31.7147 427.77 30.6068 428.291C29.499 428.812 28.6816 429.751 28.1135 430.853C27.5455 431.954 27.1843 433.294 27.0098 434.764C26.9422 435.333 26.9019 435.927 26.8894 436.542C26.1926 436.714 25.5261 436.904 24.8954 437.11C23.2664 437.641 21.8355 438.29 20.7302 439.045C19.6251 439.799 18.7713 440.715 18.4705 441.757C18.1696 442.799 18.4948 443.714 19.1641 444.469C19.8333 445.224 20.8896 445.873 22.2119 446.404C22.7239 446.61 23.2807 446.799 23.8779 446.972C23.5356 447.586 23.2327 448.181 22.9716 448.75C22.2973 450.22 21.8849 451.559 21.8168 452.661C21.7488 453.763 22.024 454.702 22.831 455.223C23.638 455.744 24.7806 455.72 26.0179 455.373C27.2553 455.027 28.6726 454.336 30.1695 453.397C30.7491 453.033 31.3462 452.629 31.9559 452.187C32.3104 452.629 32.674 453.033 33.0436 453.397C33.9983 454.336 35.0169 455.027 36.054 455.373C37.091 455.72 38.2201 455.744 39.3279 455.223C40.4358 454.702 41.2532 453.763 41.8212 452.661C42.3893 451.559 42.7504 450.22 42.925 448.75C42.9926 448.181 43.0328 447.586 43.0453 446.972C43.7422 446.799 44.4087 446.61 45.0394 446.404C46.6684 445.873 48.0993 445.224 49.2045 444.469C50.3096 443.714 51.1634 442.799 51.4643 441.757C51.7651 440.715 51.4399 439.799 50.7707 439.045C50.1014 438.29 49.0452 437.641 47.7228 437.11C47.2109 436.904 46.654 436.714 46.0569 436.542C46.3992 435.927 46.7021 435.333 46.9631 434.764C47.6375 433.294 48.0498 431.954 48.1179 430.853C48.186 429.751 47.9107 428.812 47.1037 428.291C46.2967 427.77 45.1541 427.794 43.9169 428.14C42.6795 428.487 41.2621 429.178 39.7652 430.117C39.1857 430.48 38.5886 430.885 37.9789 431.326ZM46.0484 429.462C46.4559 429.725 46.6879 430.254 46.6335 431.135C46.579 432.017 46.239 433.175 45.6085 434.55C45.3662 435.078 45.0835 435.633 44.7625 436.209C43.4889 435.92 42.0729 435.701 40.5486 435.564C39.9904 434.356 39.3666 433.258 38.7 432.295C39.2719 431.881 39.8292 431.503 40.367 431.166C41.7668 430.288 42.9972 429.704 43.987 429.427C44.9769 429.149 45.6409 429.199 46.0484 429.462ZM36.6984 432.295C36.3658 431.881 36.0264 431.503 35.6834 431.166C34.7907 430.288 33.8974 429.704 33.0678 429.427C32.2381 429.149 31.5454 429.199 30.986 429.462C30.4266 429.725 29.8892 430.254 29.4347 431.135C28.9802 432.017 28.6512 433.175 28.488 434.55C28.4253 435.078 28.3876 435.633 28.3759 436.209C29.8166 435.92 31.359 435.701 32.9621 435.564C34.218 434.356 35.4758 433.258 36.6984 432.295ZM43.9941 437.512C43.1239 437.317 42.1794 437.155 41.1722 437.032C41.3677 437.533 41.552 438.049 41.7237 438.579C41.8954 439.11 42.0501 439.64 42.188 440.168C42.8596 439.256 43.4635 438.366 43.9941 437.512ZM42.5539 441.757C43.5987 440.412 44.5174 439.095 45.2915 437.843C45.8517 438.005 46.3714 438.182 46.8464 438.373C48.083 438.87 48.9843 439.444 49.5197 440.048C50.0551 440.652 50.1817 441.231 50.0298 441.757C49.8779 442.283 49.4172 442.862 48.533 443.465C47.6489 444.069 46.4157 444.644 44.8924 445.141C44.3072 445.332 43.6851 445.509 43.0314 445.671C42.9805 444.418 42.8223 443.101 42.5539 441.757ZM40.9683 441.757C40.7849 440.932 40.558 440.095 40.2862 439.256C40.0144 438.416 39.7109 437.615 39.3821 436.859C38.4329 436.79 37.4401 436.754 36.4118 436.754C35.3834 436.754 34.3699 436.79 33.3812 436.859C32.6154 437.615 31.8495 438.416 31.093 439.256C30.3364 440.095 29.6263 440.932 28.9665 441.757C29.1499 442.582 29.3768 443.419 29.6486 444.258C29.9204 445.098 30.2238 445.898 30.5526 446.655C31.5018 446.724 32.4946 446.76 33.523 446.76C34.5513 446.76 35.5649 446.724 36.5536 446.655C37.3193 445.898 38.0852 445.098 38.8418 444.258C39.5983 443.419 40.3084 442.582 40.9683 441.757ZM38.4436 446.482C38.9286 445.981 39.4111 445.464 39.8889 444.934C40.3668 444.404 40.8278 443.874 41.2708 443.345C41.4153 444.258 41.5052 445.148 41.5427 446.002C40.5599 446.197 39.5219 446.359 38.4436 446.482ZM35.0659 448.071C34.4274 448.098 33.7822 448.112 33.1326 448.112C32.483 448.112 31.8458 448.098 31.2229 448.071C31.6297 448.86 32.0637 449.588 32.516 450.247C33.3488 449.588 34.2033 448.86 35.0659 448.071ZM33.2363 451.219C34.459 450.256 35.7168 449.158 36.9727 447.949C38.5757 447.813 40.1181 447.594 41.5589 447.305C41.5471 447.881 41.5095 448.436 41.4468 448.964C41.2836 450.338 40.9545 451.497 40.5001 452.378C40.0456 453.26 39.5081 453.789 38.9487 454.052C38.3894 454.315 37.6967 454.364 36.867 454.087C36.0373 453.81 35.1441 453.226 34.2513 452.348C33.9083 452.01 33.5689 451.633 33.2363 451.219ZM31.2347 451.219C30.5682 450.256 29.9444 449.158 29.3862 447.949C27.8618 447.813 26.4458 447.594 25.1723 447.305C24.8512 447.881 24.5686 448.436 24.3263 448.964C23.6957 450.338 23.3557 451.497 23.3013 452.378C23.2468 453.26 23.4789 453.789 23.8864 454.052C24.2938 454.315 24.9578 454.364 25.9478 454.087C26.9376 453.81 28.168 453.226 29.5677 452.348C30.1055 452.01 30.6628 451.633 31.2347 451.219ZM25.9407 446.002C26.8109 446.197 27.7554 446.359 28.7625 446.482C28.567 445.981 28.3828 445.464 28.2111 444.934C28.0394 444.404 27.8846 443.874 27.7467 443.345C27.0751 444.258 26.4712 445.148 25.9407 446.002ZM28.664 440.168C29.107 439.64 29.568 439.11 30.0458 438.579C30.5237 438.049 31.0062 437.533 31.4912 437.032C30.4128 437.155 29.3749 437.317 28.392 437.512C28.4295 438.366 28.5195 439.256 28.664 440.168ZM27.3809 441.757C26.336 443.101 25.4174 444.418 24.6432 445.671C24.0831 445.509 23.5634 445.332 23.0883 445.141C21.8518 444.644 20.9505 444.069 20.4151 443.465C19.8796 442.862 19.7531 442.283 19.905 441.757C20.0569 441.231 20.5175 440.652 21.4017 440.048C22.2858 439.444 23.5191 438.87 25.0423 438.373C25.6276 438.182 26.2497 438.005 26.9033 437.843C26.9542 439.095 27.1124 440.412 27.3809 441.757ZM34.8689 435.443C35.5074 435.416 36.1526 435.402 36.8022 435.402C37.4517 435.402 38.0889 435.416 38.7118 435.443C38.3051 434.654 37.871 433.925 37.4187 433.267C36.586 433.925 35.7315 434.654 34.8689 435.443Z" fill="#9CDBFF"/>
<g opacity="0.8">
<path d="M419 135L444.188 159.746L455.14 135H441.215L438.717 140.632L432.979 135H419Z" fill="#8BD3AA"/>
<path opacity="0.9" d="M426.261 135L441.368 149.847L447.934 135L441.215 135L438.717 140.632L432.979 135L426.261 135Z" fill="#456794"/>
</g>
<g opacity="0.4">
<path d="M566.244 445.309L580.324 441L597.282 445.233L599.354 461.235L587.831 467L573.206 461.312L566.244 445.309Z" fill="#F27E85"/>
<path d="M581.224 444.036L576.517 460.804L580.07 460.756L580.895 456.973L589.461 456.973L592.666 460.804L596.089 460.852L581.224 444.036ZM582.8 449.408L587.564 454.732L581.498 454.732L582.8 449.408Z" fill="white"/>
</g>
<defs>
<filter id="filter0_b" x="109.429" y="88" width="337.24" height="297" filterUnits="userSpaceOnUse" color-interpolation-filters="sRGB">
<feFlood flood-opacity="0" result="BackgroundImageFix"/>
<feGaussianBlur in="BackgroundImage" stdDeviation="16"/>
<feComposite in2="SourceAlpha" operator="in" result="effect1_backgroundBlur"/>
<feBlend mode="normal" in="SourceGraphic" in2="effect1_backgroundBlur" result="shape"/>
</filter>
<filter id="filter1_b" x="47.1162" y="4.08691" width="381.035" height="478.645" filterUnits="userSpaceOnUse" color-interpolation-filters="sRGB">
<feFlood flood-opacity="0" result="BackgroundImageFix"/>
<feGaussianBlur in="BackgroundImage" stdDeviation="16"/>
<feComposite in2="SourceAlpha" operator="in" result="effect1_backgroundBlur"/>
<feBlend mode="normal" in="SourceGraphic" in2="effect1_backgroundBlur" result="shape"/>
</filter>
<filter id="filter2_b" x="191.996" y="146.587" width="406.312" height="451.749" filterUnits="userSpaceOnUse" color-interpolation-filters="sRGB">
<feFlood flood-opacity="0" result="BackgroundImageFix"/>
<feGaussianBlur in="BackgroundImage" stdDeviation="28"/>
<feComposite in2="SourceAlpha" operator="in" result="effect1_backgroundBlur"/>
<feBlend mode="normal" in="SourceGraphic" in2="effect1_backgroundBlur" result="shape"/>
</filter>
<filter id="filter3_b" x="237.273" y="261" width="368.841" height="247" filterUnits="userSpaceOnUse" color-interpolation-filters="sRGB">
<feFlood flood-opacity="0" result="BackgroundImageFix"/>
<feGaussianBlur in="BackgroundImage" stdDeviation="32"/>
<feComposite in2="SourceAlpha" operator="in" result="effect1_backgroundBlur"/>
<feBlend mode="normal" in="SourceGraphic" in2="effect1_backgroundBlur" result="shape"/>
</filter>
<filter id="filter4_b" x="228.232" y="213" width="347.803" height="176" filterUnits="userSpaceOnUse" color-interpolation-filters="sRGB">
<feFlood flood-opacity="0" result="BackgroundImageFix"/>
<feGaussianBlur in="BackgroundImage" stdDeviation="32"/>
<feComposite in2="SourceAlpha" operator="in" result="effect1_backgroundBlur"/>
<feBlend mode="normal" in="SourceGraphic" in2="effect1_backgroundBlur" result="shape"/>
</filter>
<filter id="filter5_b" x="438.937" y="416" width="140.654" height="135.59" filterUnits="userSpaceOnUse" color-interpolation-filters="sRGB">
<feFlood flood-opacity="0" result="BackgroundImageFix"/>
<feGaussianBlur in="BackgroundImage" stdDeviation="20"/>
<feComposite in2="SourceAlpha" operator="in" result="effect1_backgroundBlur"/>
<feBlend mode="normal" in="SourceGraphic" in2="effect1_backgroundBlur" result="shape"/>
</filter>
<filter id="filter6_b" x="369" y="300" width="257" height="170" filterUnits="userSpaceOnUse" color-interpolation-filters="sRGB">
<feFlood flood-opacity="0" result="BackgroundImageFix"/>
<feGaussianBlur in="BackgroundImage" stdDeviation="28"/>
<feComposite in2="SourceAlpha" operator="in" result="effect1_backgroundBlur"/>
<feBlend mode="normal" in="SourceGraphic" in2="effect1_backgroundBlur" result="shape"/>
</filter>
<filter id="filter7_b" x="277.569" y="-27.1615" width="183.831" height="135.708" filterUnits="userSpaceOnUse" color-interpolation-filters="sRGB">
<feFlood flood-opacity="0" result="BackgroundImageFix"/>
<feGaussianBlur in="BackgroundImage" stdDeviation="24"/>
<feComposite in2="SourceAlpha" operator="in" result="effect1_backgroundBlur"/>
<feBlend mode="normal" in="SourceGraphic" in2="effect1_backgroundBlur" result="shape"/>
</filter>
<filter id="filter8_b" x="-5.47754" y="3.80127" width="400.89" height="460.497" filterUnits="userSpaceOnUse" color-interpolation-filters="sRGB">
<feFlood flood-opacity="0" result="BackgroundImageFix"/>
<feGaussianBlur in="BackgroundImage" stdDeviation="28"/>
<feComposite in2="SourceAlpha" operator="in" result="effect1_backgroundBlur"/>
<feBlend mode="normal" in="SourceGraphic" in2="effect1_backgroundBlur" result="shape"/>
</filter>
<filter id="filter9_b" x="-41.4736" y="251" width="351.481" height="197" filterUnits="userSpaceOnUse" color-interpolation-filters="sRGB">
<feFlood flood-opacity="0" result="BackgroundImageFix"/>
<feGaussianBlur in="BackgroundImage" stdDeviation="32"/>
<feComposite in2="SourceAlpha" operator="in" result="effect1_backgroundBlur"/>
<feBlend mode="normal" in="SourceGraphic" in2="effect1_backgroundBlur" result="shape"/>
</filter>
<filter id="filter10_b" x="-5.27148" y="280.718" width="271.04" height="130.547" filterUnits="userSpaceOnUse" color-interpolation-filters="sRGB">
<feFlood flood-opacity="0" result="BackgroundImageFix"/>
<feGaussianBlur in="BackgroundImage" stdDeviation="24"/>
<feComposite in2="SourceAlpha" operator="in" result="effect1_backgroundBlur"/>
<feBlend mode="normal" in="SourceGraphic" in2="effect1_backgroundBlur" result="shape"/>
</filter>
<filter id="filter11_b" x="157.349" y="307.409" width="84.4201" height="78.9317" filterUnits="userSpaceOnUse" color-interpolation-filters="sRGB">
<feFlood flood-opacity="0" result="BackgroundImageFix"/>
<feGaussianBlur in="BackgroundImage" stdDeviation="12"/>
<feComposite in2="SourceAlpha" operator="in" result="effect1_backgroundBlur"/>
<feBlend mode="normal" in="SourceGraphic" in2="effect1_backgroundBlur" result="shape"/>
</filter>
<filter id="filter12_b" x="10.7285" y="299.409" width="97.5536" height="95.2564" filterUnits="userSpaceOnUse" color-interpolation-filters="sRGB">
<feFlood flood-opacity="0" result="BackgroundImageFix"/>
<feGaussianBlur in="BackgroundImage" stdDeviation="16"/>
<feComposite in2="SourceAlpha" operator="in" result="effect1_backgroundBlur"/>
<feBlend mode="normal" in="SourceGraphic" in2="effect1_backgroundBlur" result="shape"/>
</filter>
<filter id="filter13_b" x="-14.7275" y="89.819" width="273.876" height="170.33" filterUnits="userSpaceOnUse" color-interpolation-filters="sRGB">
<feFlood flood-opacity="0" result="BackgroundImageFix"/>
<feGaussianBlur in="BackgroundImage" stdDeviation="28"/>
<feComposite in2="SourceAlpha" operator="in" result="effect1_backgroundBlur"/>
<feBlend mode="normal" in="SourceGraphic" in2="effect1_backgroundBlur" result="shape"/>
</filter>
<filter id="filter14_b" x="-37.0352" y="212.513" width="652.554" height="184.647" filterUnits="userSpaceOnUse" color-interpolation-filters="sRGB">
<feFlood flood-opacity="0" result="BackgroundImageFix"/>
<feGaussianBlur in="BackgroundImage" stdDeviation="24"/>
<feComposite in2="SourceAlpha" operator="in" result="effect1_backgroundBlur"/>
<feBlend mode="normal" in="SourceGraphic" in2="effect1_backgroundBlur" result="shape"/>
</filter>
<linearGradient id="paint0_linear" x1="14.4658" y1="285.669" x2="564.018" y2="286.547" gradientUnits="userSpaceOnUse">
<stop stop-color="#003477" stop-opacity="0"/>
<stop offset="0.515625" stop-color="#274F83"/>
<stop offset="1" stop-color="#274F83" stop-opacity="0"/>
</linearGradient>
</defs>
</svg>
