<svg version="1.1" id="Layer_1" xmlns="http://www.w3.org/2000/svg" x="0" y="0" viewBox="0 0 256 256" xml:space="preserve"><style>.st0{fill:#fff}</style><g><g><path class="st0" d="M180.4 59.9c-22.7 0-32.3 11-48.1 11-16.2 0-28.6-10.9-48.2-10.9-19.2 0-39.8 11.9-52.8 32.3C13 121 16.1 174.9 45.7 220.9 56.3 237.4 70.5 255.8 89 256h.3c16.1 0 20.9-10.7 43.1-10.9h.3c21.9 0 26.3 10.8 42.3 10.8h.3c18.6-.2 33.5-20.7 44.1-37.1 7.6-11.8 10.5-17.7 16.3-31.1-42.9-16.5-49.7-78.2-7.4-101.9-12.6-16.4-30.8-25.9-47.9-25.9z"/><path class="st0" d="M175.4 0c-13.5.9-29.2 9.7-38.5 21.1-8.4 10.3-15.3 25.7-12.6 40.5h1.1c14.4 0 29.1-8.8 37.7-20.1 8.3-10.7 14.6-25.9 12.3-41.5z"/></g></g></svg>