<svg xmlns="http://www.w3.org/2000/svg" viewBox="0 0 256 256"><path d="M100.6 30.6H54.9v123.2c0 30.5-10.3 39-28.2 39-8.4 0-16-1.5-21.9-3.5l-4.8 36c8.4 2.9 21.3 4.7 31.4 4.7 41.2 0 69.2-19.6 69.2-75.9V30.6zm99.7-4.6C156 26 128 51.5 128 85.2c0 29 21.6 47.2 52.9 58.9 22.7 8.2 31.7 15.5 31.7 27.6 0 13.2-10.4 21.7-30 21.7-18.2 0-34.7-6.2-45.9-12.3l-8.7 36.6c10.7 6.2 30.5 12.3 52.1 12.3 51.8 0 75.9-28.1 75.9-61.3 0-28.1-15.4-46.3-48.7-59.2-24.7-10-35-15.5-35-28.1 0-10 9-19 27.5-19 18.2 0 30.7 6.2 38 10l10.9-37.1c-11.5-5.1-26.9-9.3-48.4-9.3z" fill="#fff"/></svg>