<svg version="1.1" id="Layer_1" xmlns="http://www.w3.org/2000/svg" x="0" y="0" viewBox="0 0 256 256" xml:space="preserve"><style>.st0{fill:#fff}</style><path class="st0" d="M235.6 192.7c0-3.3-2.7-6-6-6s-6 2.7-6 6 2.7 6 6 6c3.4 0 6-2.8 6-6zm14 0c0 11.1-9 20-20 20s-20-8.9-20-20 9-20 20-20c11.1 0 20 8.9 20 20zM51.7 149c2.7-3 7.4-3.2 10.4-.5 11.1 10 25.5 20.7 40.1 28.8 45.1 25.2 92.4 32 113.9 18.2 3.3-2.1 5.6.3 8 3.4 2.6 3.4 4.1 6.1.6 8.4-27 17.8-80 10.4-129.7-17.4-15.5-8.6-30.8-20-42.7-30.7-3.1-2.6-3.4-7.2-.6-10.2zm-22.8-32.1c-3.9 2.4-9 .6-10.6-3.6-5.7-14.9-5.6-28.8 1.1-40.1C29.5 56.3 52 49.1 80.7 51.6c4.2.4 7.2 4.2 6.6 8.3-.6 3.8-4.1 6.5-8 6.2-23.4-2-40.6 3.4-47.2 14.5-4.2 7-4.3 16.5-.1 27.4 1.3 3.3.1 7-3 8.8l-.1.1z"/><path class="st0" d="M153.2 63.1c.9 3.8-1.3 7.6-5.1 8.7-15.1 4.3-30.7 10.8-45.9 19.3C55.9 117 26 154.6 29.3 179.2c.5 3.9-3.2 1.8-7.1 2.7-4.2.9-6.8 4.1-7.5-.1-4.8-32 28.8-74.6 80.2-103.4 16.1-9 32.8-16 49-20.6 4.1-1.2 8.3 1.2 9.3 5.3zm64.1 82.9c-2.5 2.9-6.9 3.3-9.9 1.1-3.5-2.5-3.8-7.7-1-10.9 19.1-21.9 25.3-42.6 17.7-55.4-4.2-7-12.5-11.8-24.3-13.8-3.8-.6-6.4-4.1-6-7.9.5-4.2 4.5-7.1 8.7-6.4 15.7 2.7 27.7 9.7 34.3 20.7 11.5 19.5 3.4 46.4-19.5 72.6z"/><path class="st0" d="M128.1 26c3.3 0 6-2.7 6-6s-2.7-6-6-6-6 2.7-6 6 2.7 6 6 6zm0 14c-11 0-20-8.9-20-20s9-20 20-20 20 8.9 20 20-9 20-20 20zm51.6 149.3c-3.8-1.1-6.1-4.9-5.2-8.6 3.4-14.3 5.2-30.1 5.2-46.3 0-51-18.1-94.3-41.3-104.7-3.6-1.6-3.7-4.6-2.4-8.3 1.4-4 4-6.9 7.9-5.2 30.1 13 50.6 61.8 50.6 118.2 0 17.4-1.9 34.2-5.6 49.6-1 4-5.1 6.4-9.2 5.3zm-99.6 11.4c3.6-1.2 7.5.5 9.1 3.9 10 21.6 25.2 36.8 38.9 36.8 8.2 0 16.4-4.4 24-12.8 2.4-2.7 6.4-3 9.4-1l.2.1c3.6 2.5 4.2 7.6 1.3 10.8-10.1 11.2-22 17.4-34.7 17.4-20.6 0-40.2-19.1-52.4-45.5-2-3.8.1-8.3 4.2-9.7z"/><path d="M132.9 152.5c-12.4 2.7-24.6-5.2-27.3-17.6-2.7-12.4 5.2-24.6 17.6-27.3 12.4-2.7 24.6 5.2 27.3 17.6 2.7 12.4-5.2 24.6-17.6 27.3z" fill-rule="evenodd" clip-rule="evenodd" fill="#fff"/><path class="st0" d="M26.4 172.7c-11 0-20 8.9-20 20s9 20 20 20 20-8.9 20-20-9-20-20-20zm0 26c-3.3 0-6-2.7-6-6s2.7-6 6-6 6 2.7 6 6c0 3.2-2.7 6-6 6z"/></svg>