<svg version="1.1" id="Layer_1" xmlns="http://www.w3.org/2000/svg" x="0" y="0" viewBox="0 0 256 256" xml:space="preserve"><style>.st0{fill:#fff}</style><g><g><path class="st0" d="M53.5 136.3V196c0 4.6 3 9.3 7.6 9.3h19V240c0 8.9 7.1 16 16 16s16-7.1 16-16v-34.7h32.6V240c0 5 2.3 9.5 5.8 12.4 2.6 2.3 6 3.6 9.8 3.6h.3c8.8 0 16-7.1 16-16v-34.7h18.3c4.7 0 7.6-4.7 7.6-9.3V85.3h-149v51zM229 74.7c-8.8 0-16 7.1-16 16v64c0 8.9 7.1 16 16 16 8.8 0 16-7.1 16-16v-64c0-8.9-7.1-16-16-16zm-202 0c-8.8 0-16 7.1-16 16v64c0 8.9 7.1 16 16 16s16-7.1 16-16v-64c-.1-8.9-7.2-16-16-16z"/></g><g><path class="st0" d="M164.7 16.8L177 2.2c.3-.3-.1-1.1-.9-1.7-.7-.5-1.6-.7-1.8-.3l-12.8 15.2c-9-3.6-20.1-5.9-33.6-5.9-13.6-.1-24.7 2.1-33.8 5.7L81.5.3c-.2-.3-1-.3-1.8.3-.7.5-1.1 1.2-.9 1.7L91 16.6c-32 14-36.8 48.2-37.5 58.2h148.6c-.5-10.1-5.2-43.8-37.4-58zM95.3 50c-4.9 0-9-4-9-8.9s4-8.9 9-8.9c4.9 0 9 4 9 8.9s-4 8.9-9 8.9zm65.4 0c-4.9 0-9-4-9-8.9s4-8.9 9-8.9c4.9 0 9 4 9 8.9s-4.1 8.9-9 8.9z"/></g></g></svg>