<svg xmlns="http://www.w3.org/2000/svg" viewBox="0 0 256 256"><g><path d="M74.4 77.4C67.8 68.8 58 64.5 45.2 64.5H0v127h27.7v-43.6h18c5.4 0 10.3-.7 14.5-2.1l4.6-16.7 13-46.6c-1-1.8-2.1-3.5-3.4-5.1zm-22.5 40.8c-2.5 3.4-7.1 5-13.9 5H27.7V89.1h10.5c6.3 0 10.7 1.5 13.3 4.6 2.6 3.1 3.9 7.1 3.9 12.2 0 5.2-1.2 9.3-3.5 12.3zm167.9-52.6l-13.6 42.8 9.2 34h-20l-8.1 25.5h34.3l6.4 23.6h28zm-39-1.1l-28 82.1-19.9-82.1h-20.8l-21.4 82.1-11-27.3-13.5 51.4 9.7 20.8h26.6l19.4-73.6 18.4 73.6H167l40.9-127z" fill="#fff"/></g></svg>