<?xml version="1.0" encoding="utf-8"?>
<!-- Generator: Adobe Illustrator 22.1.0, SVG Export Plug-In . SVG Version: 6.00 Build 0)  -->
<svg version="1.1" id="Layer_1" xmlns="http://www.w3.org/2000/svg" xmlns:xlink="http://www.w3.org/1999/xlink" x="0px" y="0px"
	 viewBox="0 0 256 256" style="enable-background:new 0 0 256 256;" xml:space="preserve">
<style type="text/css">
	.st0{fill:#FFFFFF;}
</style>
<path class="st0" d="M100.6,30.6H54.9v123.2c0,30.5-10.3,39-28.2,39c-8.4,0-16-1.5-21.9-3.5L0,225.3c8.4,2.9,21.3,4.7,31.4,4.7
	c41.2,0,69.2-19.6,69.2-75.9V30.6z M200.3,26C156,26,128,51.5,128,85.2c0,29,21.6,47.2,52.9,58.9c22.7,8.2,31.7,15.5,31.7,27.6
	c0,13.2-10.4,21.7-30,21.7c-18.2,0-34.7-6.2-45.9-12.3v0l-8.7,36.6c10.7,6.2,30.5,12.3,52.1,12.3c51.8,0,75.9-28.1,75.9-61.3
	c0-28.1-15.4-46.3-48.7-59.2c-24.7-10-35-15.5-35-28.1c0-10,9-19,27.5-19c18.2,0,30.7,6.2,38,10l10.9-37.1
	C237.2,30.2,221.8,26,200.3,26z"/>
</svg>
