<svg width="16" height="14" viewBox="0 0 16 14" fill="none" xmlns="http://www.w3.org/2000/svg">
<path d="M16 1.65885C15.41 1.93958 14.7794 2.12917 14.1149 2.21667C14.793 1.77917 15.3151 1.08646 15.5592 0.2625C14.9252 0.667187 14.2234 0.9625 13.474 1.11927C12.8739 0.430208 12.0195 0 11.0769 0C9.26298 0 7.79487 1.58229 7.79487 3.53281C7.79487 3.8099 7.822 4.07969 7.87963 4.33854C5.15024 4.19271 2.72939 2.78542 1.1121 0.645312C0.830685 1.16667 0.667938 1.77552 0.667938 2.42083C0.667938 3.64583 1.25111 4.72865 2.13266 5.36302C1.59017 5.34844 1.08159 5.18802 0.640814 4.92188V4.96562C0.640814 6.67917 1.77326 8.10469 3.27527 8.42917C3.00064 8.50938 2.70905 8.55313 2.41068 8.55313C2.20047 8.55313 1.99364 8.53125 1.7936 8.4875C2.21064 9.89114 3.42445 10.912 4.86205 10.9411C3.73978 11.8891 2.32253 12.4542 0.783217 12.4542C0.518754 12.4542 0.257682 12.4359 0 12.4031C1.44776 13.4167 3.17355 14 5.02479 14C11.0701 14 14.3725 8.6151 14.3725 3.94479C14.3725 3.79167 14.3691 3.63854 14.3624 3.48906C15.0032 2.98958 15.5592 2.36979 16 1.65885Z" fill="#4E5B6A"/>
</svg>
