<svg xmlns="http://www.w3.org/2000/svg" xmlns:xlink="http://www.w3.org/1999/xlink" width="1440" height="600" viewBox="0 0 1440 600"><defs><style>.a{fill:#fff;}.b{clip-path:url(#a);}.c,.d,.e,.f,.g,.h,.i,.j,.k,.l,.m,.n,.o,.p,.q{fill:none;stroke:#fff;}.c,.k{opacity:0.2;}.d,.f,.j,.k,.l,.m,.o{stroke-dasharray:4;}.d,.h{opacity:0.5;}.e{opacity:0.43;}.f{opacity:0.523;}.g{opacity:0.284;}.i{opacity:0.342;}.j{opacity:0.556;}.l{opacity:0.582;}.m{opacity:0.528;}.n{opacity:0.615;}.o{opacity:0.572;}.p{opacity:0.601;}.q{opacity:0.293;}</style><clipPath id="a"><rect class="a" width="1440" height="600" transform="translate(5924 918)"/></clipPath></defs><g class="b" transform="translate(-5924 -918)"><line class="c" x2="401.482" transform="translate(5924 1332.956)"/><line class="d" x2="314.283" transform="translate(5924.5 1257.98)"/><line class="e" x2="220" transform="translate(5976.5 1426.676)"/><line class="c" x2="437.5" transform="translate(5924 1351.7)"/><line class="c" x2="267" transform="translate(6041.5 1445.419)"/><line class="f" x2="1175" transform="translate(5924.5 1482.907)"/><line class="g" y2="396.165" transform="translate(6012.855 1121.335)"/><line class="h" y2="283.165" transform="translate(5956.624 1121.335)"/><line class="i" y2="388" transform="translate(6125.319 1166.5)"/><line class="j" y2="414" transform="translate(6069.088 1103.5)"/><line class="c" x2="755.188" transform="translate(6608.813 1200.748)"/><line class="k" x2="904.5" transform="translate(6459.5 1256.98)"/><line class="h" x2="167.188" transform="translate(7196.813 994.565)"/><line class="l" x2="793.5" transform="translate(6570.5 1032.053)"/><line class="c" x2="1047.5" transform="translate(6316.5 1219.492)"/><line class="h" x2="149.188" transform="translate(7214.813 957.077)"/><line class="c" x2="521" transform="translate(6843.5 1050.797)"/><line class="d" x2="516.188" transform="translate(6847.813 975.821)"/><line class="m" x2="549" transform="translate(6815.5 1144.516)"/><line class="n" y2="524.262" transform="translate(7343.956 1019.5)"/><line class="h" y2="462.437" transform="translate(7137.772 888.643)"/><line class="o" y2="441.262" transform="translate(7006.564 1102.5)"/><line class="h" y2="528.452" transform="translate(6979.077 888.643)"/><line class="n" y2="380.262" transform="translate(7306.468 1047.082)"/><line class="p" y2="156" transform="translate(7081.541 1133.5)"/><line class="h" y2="576.297" transform="translate(7212.748 888.643)"/><line class="q" y2="576.297" transform="translate(7287.724 888.643)"/></g></svg>