<svg xmlns="http://www.w3.org/2000/svg" width="1440" height="600" viewBox="0 0 1440 600"><defs><clipPath id="a"><path transform="translate(5924 918)" fill="#fff" d="M0 0h1440v600H0z"/></clipPath><style>.c,.d,.h,.n{fill:none;stroke:#fff}.c{opacity:.2}.d{stroke-dasharray:4}.d,.h{opacity:.5}.n{opacity:.615}</style></defs><g transform="translate(-5924 -918)" clip-path="url(#a)"><path class="c" d="M5924 1332.956h401.482"/><path class="d" d="M5924.5 1257.98h314.283"/><path opacity=".43" fill="none" stroke="#fff" d="M5976.5 1426.676h220"/><path class="c" d="M5924 1351.7h437.5m-320 93.719h267"/><path opacity=".523" stroke-dasharray="4" fill="none" stroke="#fff" d="M5924.5 1482.907h1175"/><path opacity=".284" fill="none" stroke="#fff" d="M6012.855 1121.335V1517.5"/><path class="h" d="M5956.624 1121.335V1404.5"/><path opacity=".342" fill="none" stroke="#fff" d="M6125.319 1166.5v388"/><path opacity=".556" stroke-dasharray="4" fill="none" stroke="#fff" d="M6069.088 1103.5v414"/><path class="c" d="M6608.813 1200.748h755.188"/><path stroke-dasharray="4" opacity=".2" fill="none" stroke="#fff" d="M6459.5 1256.98H7364"/><path class="h" d="M7196.813 994.565h167.188"/><path opacity=".582" stroke-dasharray="4" fill="none" stroke="#fff" d="M6570.5 1032.053H7364"/><path class="c" d="M6316.5 1219.492H7364"/><path class="h" d="M7214.813 957.077h149.188"/><path class="c" d="M6843.5 1050.797h521"/><path class="d" d="M6847.813 975.821h516.188"/><path opacity=".528" stroke-dasharray="4" fill="none" stroke="#fff" d="M6815.5 1144.516h549"/><path class="n" d="M7343.956 1019.5v524.262"/><path class="h" d="M7137.772 888.643v462.437"/><path opacity=".572" stroke-dasharray="4" fill="none" stroke="#fff" d="M7006.564 1102.5v441.262"/><path class="h" d="M6979.077 888.643v528.452"/><path class="n" d="M7306.468 1047.082v380.262"/><path opacity=".601" fill="none" stroke="#fff" d="M7081.541 1133.5v156"/><path class="h" d="M7212.748 888.643v576.297"/><path opacity=".293" fill="none" stroke="#fff" d="M7287.724 888.643v576.297"/></g></svg>