<svg width="1638" height="799" viewBox="0 0 1638 799" fill="none" xmlns="http://www.w3.org/2000/svg">
<g style="mix-blend-mode:overlay" opacity="0.8">
<g opacity="0.2">
<path d="M1597.8 251.443V621.836L1638 598.64V228.247L1597.8 251.443Z" fill="#92A1B3"/>
<path d="M1557.61 228.247V598.627L1597.8 621.836V251.456L1557.61 228.247Z" fill="#DEE3EA"/>
<path d="M1597.8 204.799L1557.61 228.348L1597.83 251.695L1638 228.348L1597.8 204.799Z" fill="white"/>
</g>
<g opacity="0.5">
<path d="M1493.96 298.338V668.731L1534.16 645.535V275.142L1493.96 298.338Z" fill="#92A1B3"/>
<path d="M1453.77 275.142V645.523L1493.96 668.731V298.351L1453.77 275.142Z" fill="#DEE3EA"/>
<path d="M1493.96 251.695L1453.77 275.244L1493.99 298.59L1534.16 275.244L1493.96 251.695Z" fill="white"/>
</g>
<g opacity="0.3">
<path d="M1390.12 374.544V744.937L1430.32 721.741V351.348L1390.12 374.544Z" fill="#92A1B3"/>
<path d="M1349.93 351.348V721.728L1390.12 744.937V374.557L1349.93 351.348Z" fill="#DEE3EA"/>
<path d="M1390.12 327.9L1349.93 351.449L1390.15 374.796L1430.32 351.449L1390.12 327.9Z" fill="white"/>
</g>
<g opacity="0.2">
<path d="M1286.28 154.302V524.695L1326.48 501.499V131.106L1286.28 154.302Z" fill="#92A1B3"/>
<path d="M1246.09 131.106V501.486L1286.28 524.695V154.315L1246.09 131.106Z" fill="#DEE3EA"/>
<path d="M1286.28 107.658L1246.09 131.207L1286.31 154.554L1326.48 131.207L1286.28 107.658Z" fill="white"/>
</g>
<g opacity="0.3">
<path d="M1182.44 362.82V733.213L1222.64 710.017V339.624L1182.44 362.82Z" fill="#92A1B3"/>
<path d="M1142.25 339.624V710.005L1182.44 733.213V362.833L1142.25 339.624Z" fill="#DEE3EA"/>
<path d="M1182.44 316.176L1142.25 339.726L1182.47 363.072L1222.64 339.726L1182.44 316.176Z" fill="white"/>
</g>
<g opacity="0.2">
<path d="M1078.6 266.516V636.91L1118.8 613.714V243.321L1078.6 266.516Z" fill="#92A1B3"/>
<path d="M1038.4 243.321V613.701L1078.6 636.91V266.529L1038.4 243.321Z" fill="#DEE3EA"/>
<path d="M1078.6 219.873L1038.4 243.422L1078.63 266.768L1118.8 243.422L1078.6 219.873Z" fill="white"/>
</g>
<g opacity="0.3">
<path d="M974.761 327.648V698.041L1014.96 674.846V304.453L974.761 327.648Z" fill="#92A1B3"/>
<path d="M934.564 304.453V674.833L974.761 698.041V327.661L934.564 304.453Z" fill="#DEE3EA"/>
<path d="M974.761 281.005L934.564 304.554L974.786 327.9L1014.96 304.554L974.761 281.005Z" fill="white"/>
</g>
<g opacity="0.5">
<path d="M870.92 112.431V653.658L911.117 630.462V89.2347L870.92 112.431Z" fill="#92A1B3"/>
<path d="M830.724 89.2347V645.284L870.92 668.492V112.443L830.724 89.2347Z" fill="#DEE3EA"/>
<path d="M870.92 65.7869L830.724 89.336L870.945 112.683L911.117 89.336L870.92 65.7869Z" fill="white"/>
</g>
<g opacity="0.3">
<path d="M767.08 274.891V645.284L807.276 622.088V251.695L767.08 274.891Z" fill="#92A1B3"/>
<path d="M726.883 251.695V622.075L767.08 645.284V274.904L726.883 251.695Z" fill="#DEE3EA"/>
<path d="M767.08 228.247L726.883 251.796L767.105 275.143L807.276 251.796L767.08 228.247Z" fill="white"/>
</g>
<g opacity="0.2">
<path d="M663.239 372.869V743.262L703.436 720.066V349.673L663.239 372.869Z" fill="#92A1B3"/>
<path d="M623.043 349.673V720.053L663.239 743.262V372.882L623.043 349.673Z" fill="#DEE3EA"/>
<path d="M663.239 326.225L623.043 349.775L663.264 373.121L703.436 349.775L663.239 326.225Z" fill="white"/>
</g>
<g opacity="0.4">
<path d="M559.399 211.247V581.64L599.595 558.444V188.051L559.399 211.247Z" fill="#92A1B3"/>
<path d="M519.202 188.051V558.431L559.399 581.64V211.259L519.202 188.051Z" fill="#DEE3EA"/>
<path d="M559.399 164.603L519.202 188.152L559.424 211.498L599.595 188.152L559.399 164.603Z" fill="white"/>
</g>
<g opacity="0.4">
<path d="M455.558 400.504V770.897L495.755 747.701V377.308L455.558 400.504Z" fill="#92A1B3"/>
<path d="M415.362 377.308V747.688L455.558 770.897V400.517L415.362 377.308Z" fill="#DEE3EA"/>
<path d="M455.558 353.86L415.362 377.409L455.583 400.756L495.755 377.409L455.558 353.86Z" fill="white"/>
</g>
<g opacity="0.3">
<path d="M351.718 187.798V558.191L391.914 534.996V164.603L351.718 187.798Z" fill="#92A1B3"/>
<path d="M311.521 164.603V534.983L351.718 558.191V187.811L311.521 164.603Z" fill="#DEE3EA"/>
<path d="M351.718 141.155L311.521 164.704L351.743 188.05L391.914 164.704L351.718 141.155Z" fill="white"/>
</g>
<g opacity="0.3">
<path d="M247.877 286.615V657.008L288.074 633.812V263.419L247.877 286.615Z" fill="#92A1B3"/>
<path d="M207.681 263.419V633.799L247.877 657.008V286.627L207.681 263.419Z" fill="#DEE3EA"/>
<path d="M247.877 239.971L207.681 263.52L247.902 286.867L288.074 263.52L247.877 239.971Z" fill="white"/>
</g>
<g opacity="0.4">
<path d="M144.037 47.1116V594.201L184.233 571.005V23.9156L144.037 47.1116Z" fill="#92A1B3"/>
<path d="M103.84 23.9156V576.017L144.037 599.225V47.1243L103.84 23.9156Z" fill="#DEE3EA"/>
<path d="M144.037 0.467773L103.84 24.0169L144.062 47.3635L184.233 24.0169L144.037 0.467773Z" fill="white"/>
</g>
<g opacity="0.2">
<path d="M40.1963 428.139V798.532L80.3926 775.336V404.943L40.1963 428.139Z" fill="#92A1B3"/>
<path d="M0 404.943V775.324L40.1963 798.532V428.152L0 404.943Z" fill="#DEE3EA"/>
<path d="M40.1963 381.495L0 405.045L40.2214 428.391L80.3926 405.045L40.1963 381.495Z" fill="white"/>
</g>
</g>
</svg>
