<svg width="48" height="192" viewBox="0 0 48 192" fill="none" xmlns="http://www.w3.org/2000/svg"><circle cx="24" cy="168" r="24" fill="#D1EBFF"/><path d="M34.23 156H13.77a3.767 3.767 0 00-2.663 1.114A3.813 3.813 0 0010 159.792v13a3.816 3.816 0 001.107 2.678 3.77 3.77 0 002.662 1.113h2.693V182l6.308-5.291a.539.539 0 01.345-.126H34.23a3.77 3.77 0 002.662-1.113A3.816 3.816 0 0038 172.792v-13a3.813 3.813 0 00-1.107-2.678A3.767 3.767 0 0034.23 156v0z" stroke="#3880FF" stroke-width="2" stroke-linejoin="round"/><path d="M16 169a2 2 0 100-4 2 2 0 000 4zm8 0a2 2 0 100-4 2 2 0 000 4zm8 0a2 2 0 100-4 2 2 0 000 4z" stroke="#7CABFF" stroke-width="2"/><circle cx="24" cy="120" r="24" fill="#D1EBFF"/><path d="M19.333 128.308v-15.616m13.333 4.462c0 8.923-13.333 3.346-13.333 11.154" stroke="#4D8DFF" stroke-width="2" stroke-linecap="round" stroke-linejoin="round"/><path d="M19.333 112.692a3.34 3.34 0 003.334-3.346A3.34 3.34 0 0019.333 106 3.34 3.34 0 0016 109.346a3.34 3.34 0 003.333 3.346zm0 22.308a3.34 3.34 0 003.334-3.346 3.34 3.34 0 00-3.334-3.346A3.34 3.34 0 0016 131.654 3.34 3.34 0 0019.333 135zm13.333-17.846A3.34 3.34 0 0036 113.808a3.34 3.34 0 00-3.334-3.347 3.34 3.34 0 00-3.333 3.347 3.34 3.34 0 003.333 3.346z" stroke="#7CABFF" stroke-width="2" stroke-linecap="round" stroke-linejoin="round"/><circle cx="24" cy="72" r="24" fill="#D1EBFF"/><path d="M22 85v-3a2 2 0 00-2-2h-4a2 2 0 00-2 2v3m20 0v-3a2 2 0 00-2-2h-4a2 2 0 00-2 2v3" stroke="#7CABFF" stroke-width="2"/><rect x="9" y="59" width="30" height="26" rx="5" stroke="#4D8DFF" stroke-width="2"/><rect x="14" y="68" width="8" height="8" rx="2" stroke="#7CABFF" stroke-width="2"/><rect x="26" y="68" width="8" height="8" rx="2" stroke="#7CABFF" stroke-width="2"/><circle cx="13" cy="63" r="1" fill="#4D8DFF"/><circle cx="16" cy="63" r="1" fill="#4D8DFF"/><circle cx="19" cy="63" r="1" fill="#4D8DFF"/><circle cx="24" cy="24" r="24" fill="#D1EBFF"/><path d="M11.331 20h25.333c.233 0 .461.04.663.118.203.077.371.189.489.323a.69.69 0 01.184.444.678.678 0 01-.17.446l-12.666 15.21a1.206 1.206 0 01-.49.336c-.204.08-.437.123-.674.123-.237 0-.47-.042-.675-.123a1.206 1.206 0 01-.49-.336L10.17 21.331a.678.678 0 01-.17-.445.69.69 0 01.183-.443c.117-.135.285-.247.486-.324.202-.078.43-.119.662-.119z" fill="#D1EBFF" stroke="#5A97FF" stroke-width="2"/><path d="M14.046 13H33.95c.183 0 .363.03.522.09.158.06.29.144.383.247a.52.52 0 01.145.34.51.51 0 01-.133.341L24.915 25.65a.95.95 0 01-.385.257c-.16.062-.344.094-.53.094-.186 0-.37-.032-.53-.094a.95.95 0 01-.385-.257l-9.952-11.63a.511.511 0 01-.133-.342.52.52 0 01.143-.338.967.967 0 01.383-.248 1.5 1.5 0 01.52-.091z" fill="#D1EBFF" stroke="#7CABFF" stroke-width="2"/></svg>