<svg viewBox="0 0 480 360" fill="none" xmlns="http://www.w3.org/2000/svg"><mask id="a" maskUnits="userSpaceOnUse" x="0" y="0" width="480" height="360"><path d="M0 12C0 5.373 5.373 0 12 0h468v360H12c-6.627 0-12-5.373-12-12V12z" fill="#7580F4"/></mask><g mask="url(#a)"><path d="M0 12C0 5.373 5.373 0 12 0h468v360H12c-6.627 0-12-5.373-12-12V12z" fill="#242C88"/><g style="mix-blend-mode:overlay"><g filter="url(#filter0_i)"><path d="M96.71 206.423l17.406 77.437c2.678 14.686 18.744 26.702 36.15 26.702h179.412c16.066 0 32.133-12.016 36.15-26.702l17.405-77.437c4.017-20.026-8.033-37.383-29.455-37.383H127.505c-21.422 0-34.811 17.357-30.795 37.383z" fill="#E7F4FF"/></g><mask id="b" maskUnits="userSpaceOnUse" x="112" y="185" width="256" height="115"><path opacity=".5" d="M149.77 299.389h180.462c11.354 0 21.288-11.104 24.127-25.38l13.286-69.795c1.42-9.518-4.257-19.035-12.773-19.035H125.129c-8.515 0-14.192 9.517-12.773 19.035l11.867 69.795c2.839 15.863 12.774 25.38 25.547 25.38z" fill="#F9FAFD"/></mask><g mask="url(#b)"><g opacity=".7" filter="url(#filter1_i)"><path d="M149.77 299.389h180.462c11.354 0 21.288-11.104 24.127-25.38l13.286-69.796c1.42-9.517-4.257-19.035-12.773-19.035H125.129c-8.515 0-14.192 9.518-12.773 19.035l11.867 69.796c2.839 15.862 12.774 25.38 25.547 25.38z" fill="#7580F4"/></g><path opacity=".4" d="M152.399 267.595h175.205c11.023 0 20.669-10.923 23.425-24.966l12.899-68.658c1.378-9.362-4.134-18.724-12.401-18.724H128.476c-8.268 0-13.78 9.362-12.402 18.724l11.522 68.658c2.756 15.604 12.401 24.966 24.803 24.966z" fill="#0013DD"/><path opacity=".4" d="M161.159 229.249h157.685c9.921 0 18.602-9.837 21.082-22.484l11.61-61.829c1.24-8.432-3.721-16.863-11.161-16.863H139.628c-7.44 0-12.401 8.431-11.161 16.863l10.37 61.829c2.48 14.052 11.161 22.484 22.322 22.484z" fill="#0011C8"/><path opacity=".5" d="M169.918 194.489h140.164c8.819 0 16.535-8.75 18.74-20.001l10.319-55.001c1.103-7.501-3.307-15.001-9.921-15.001H150.779c-6.614 0-11.023 7.5-9.921 15.001l9.218 55.001c2.204 12.501 9.921 20.001 19.842 20.001z" fill="#000FAF"/></g><path opacity=".85" d="M358.712 141.729H122.646c-4.07 0-6.783-2.979-6.783-7.449 0-4.469 2.713-7.448 6.783-7.448h234.709c4.07 0 6.784 2.979 6.784 7.448 0 4.47-2.714 7.449-5.427 7.449z" fill="#E7F4FF"/><path opacity=".7" d="M346.275 104.486H135.089c-4.087 0-6.812-2.979-6.812-7.448 0-4.47 2.725-7.449 6.812-7.449h209.824c4.087 0 6.812 2.98 6.812 7.449 0 4.469-2.725 7.448-5.45 7.448z" fill="#E7F4FF"/><path opacity=".5" d="M330.195 69.727H149.804c-3.979 0-6.632-2.98-6.632-7.449 0-4.469 2.653-7.448 6.632-7.448h180.391c3.98 0 6.633 2.979 6.633 7.448 0 4.47-2.653 7.449-6.633 7.449z" fill="#E7F4FF"/><path opacity=".3" d="M314.336 37.45H165.664c-3.812 0-6.353-2.98-6.353-7.449 0-4.469 2.541-7.448 6.353-7.448h148.672c3.812 0 6.354 2.98 6.354 7.448 0 4.47-2.542 7.449-6.354 7.449z" fill="#E7F4FF"/><path opacity=".15" d="M301.954 8.897H178.046c-3.793 0-6.322-2.98-6.322-7.448 0-4.47 2.529-7.449 6.322-7.449h123.908c3.793 0 6.322 2.98 6.322 7.449 0 4.469-2.529 7.448-6.322 7.448z" fill="#E7F4FF"/></g><g opacity=".6"><g filter="url(#filter2_i)"><path d="M96.71 206.423l17.406 77.437c2.678 14.686 18.744 26.702 36.15 26.702h179.412c16.066 0 32.133-12.016 36.15-26.702l17.405-77.437c4.017-20.026-8.033-37.383-29.455-37.383H127.505c-21.422 0-34.811 17.357-30.795 37.383z" fill="#fff"/></g><mask id="c" maskUnits="userSpaceOnUse" x="112" y="185" width="256" height="115"><path opacity=".5" d="M149.77 299.389h180.462c11.354 0 21.288-11.104 24.127-25.38l13.286-69.795c1.42-9.518-4.257-19.035-12.773-19.035H125.129c-8.515 0-14.192 9.517-12.773 19.035l11.867 69.795c2.839 15.863 12.774 25.38 25.547 25.38z" fill="#F9FAFD"/></mask><g mask="url(#c)"><g opacity=".7" filter="url(#filter3_i)"><path d="M149.77 299.389h180.462c11.354 0 21.288-11.104 24.127-25.38l13.286-69.796c1.42-9.517-4.257-19.035-12.773-19.035H125.129c-8.515 0-14.192 9.518-12.773 19.035l11.867 69.796c2.839 15.862 12.774 25.38 25.547 25.38z" fill="#7580F4"/></g><path opacity=".4" d="M152.399 267.595h175.205c11.023 0 20.669-10.923 23.425-24.966l12.899-68.658c1.378-9.362-4.134-18.724-12.401-18.724H128.476c-8.268 0-13.78 9.362-12.402 18.724l11.522 68.658c2.756 15.604 12.401 24.966 24.803 24.966z" fill="#0013DD"/><path opacity=".4" d="M161.159 229.249h157.685c9.921 0 18.602-9.837 21.082-22.484l11.61-61.829c1.24-8.432-3.721-16.863-11.161-16.863H139.628c-7.44 0-12.401 8.431-11.161 16.863l10.37 61.829c2.48 14.052 11.161 22.484 22.322 22.484z" fill="#0011C8"/><path opacity=".8" d="M169.918 194.489h140.164c8.819 0 16.535-8.75 18.74-20.001l10.319-55.001c1.103-7.501-3.307-15.001-9.921-15.001H150.779c-6.614 0-11.023 7.5-9.921 15.001l9.218 55.001c2.204 12.501 9.921 20.001 19.842 20.001z" fill="#000D9C"/></g><path opacity=".85" d="M358.712 141.729H122.646c-4.07 0-6.783-2.979-6.783-7.449 0-4.469 2.713-7.448 6.783-7.448h234.709c4.07 0 6.784 2.979 6.784 7.448 0 4.47-2.714 7.449-5.427 7.449z" fill="#E7F4FF"/><path opacity=".7" d="M346.275 104.486H135.089c-4.087 0-6.812-2.979-6.812-7.448 0-4.47 2.725-7.449 6.812-7.449h209.824c4.087 0 6.812 2.98 6.812 7.449 0 4.469-2.725 7.448-5.45 7.448z" fill="#E7F4FF"/><path opacity=".5" d="M330.195 69.727H149.804c-3.979 0-6.632-2.98-6.632-7.449 0-4.469 2.653-7.448 6.632-7.448h180.391c3.98 0 6.633 2.979 6.633 7.448 0 4.47-2.653 7.449-6.633 7.449z" fill="#E7F4FF"/><path opacity=".3" d="M314.336 37.45H165.664c-3.812 0-6.353-2.98-6.353-7.449 0-4.469 2.541-7.448 6.353-7.448h148.672c3.812 0 6.354 2.98 6.354 7.448 0 4.47-2.542 7.449-6.354 7.449z" fill="#E7F4FF"/><path opacity=".15" d="M301.954 8.897H178.046c-3.793 0-6.322-2.98-6.322-7.448 0-4.47 2.529-7.449 6.322-7.449h123.908c3.793 0 6.322 2.98 6.322 7.449 0 4.469-2.529 7.448-6.322 7.448z" fill="#E7F4FF"/></g></g><defs><filter id="filter0_i" x="96" y="169.04" width="288" height="145.522" filterUnits="userSpaceOnUse" color-interpolation-filters="sRGB"><feFlood flood-opacity="0" result="BackgroundImageFix"/><feBlend in="SourceGraphic" in2="BackgroundImageFix" result="shape"/><feColorMatrix in="SourceAlpha" values="0 0 0 0 0 0 0 0 0 0 0 0 0 0 0 0 0 0 127 0" result="hardAlpha"/><feOffset dy="4"/><feGaussianBlur stdDeviation="2"/><feComposite in2="hardAlpha" operator="arithmetic" k2="-1" k3="1"/><feColorMatrix values="0 0 0 0 1 0 0 0 0 1 0 0 0 0 1 0 0 0 1 0"/><feBlend in2="shape" result="effect1_innerShadow"/></filter><filter id="filter1_i" x="112.139" y="181.178" width="255.724" height="118.211" filterUnits="userSpaceOnUse" color-interpolation-filters="sRGB"><feFlood flood-opacity="0" result="BackgroundImageFix"/><feBlend in="SourceGraphic" in2="BackgroundImageFix" result="shape"/><feColorMatrix in="SourceAlpha" values="0 0 0 0 0 0 0 0 0 0 0 0 0 0 0 0 0 0 127 0" result="hardAlpha"/><feOffset dy="-4"/><feGaussianBlur stdDeviation="6"/><feComposite in2="hardAlpha" operator="arithmetic" k2="-1" k3="1"/><feColorMatrix values="0 0 0 0 0.203922 0 0 0 0 0.239216 0 0 0 0 0.607843 0 0 0 0.4 0"/><feBlend in2="shape" result="effect1_innerShadow"/></filter><filter id="filter2_i" x="96" y="169.04" width="288" height="145.522" filterUnits="userSpaceOnUse" color-interpolation-filters="sRGB"><feFlood flood-opacity="0" result="BackgroundImageFix"/><feBlend in="SourceGraphic" in2="BackgroundImageFix" result="shape"/><feColorMatrix in="SourceAlpha" values="0 0 0 0 0 0 0 0 0 0 0 0 0 0 0 0 0 0 127 0" result="hardAlpha"/><feOffset dy="4"/><feGaussianBlur stdDeviation="2"/><feComposite in2="hardAlpha" operator="arithmetic" k2="-1" k3="1"/><feColorMatrix values="0 0 0 0 1 0 0 0 0 1 0 0 0 0 1 0 0 0 1 0"/><feBlend in2="shape" result="effect1_innerShadow"/></filter><filter id="filter3_i" x="112.139" y="181.178" width="255.724" height="118.211" filterUnits="userSpaceOnUse" color-interpolation-filters="sRGB"><feFlood flood-opacity="0" result="BackgroundImageFix"/><feBlend in="SourceGraphic" in2="BackgroundImageFix" result="shape"/><feColorMatrix in="SourceAlpha" values="0 0 0 0 0 0 0 0 0 0 0 0 0 0 0 0 0 0 127 0" result="hardAlpha"/><feOffset dy="-4"/><feGaussianBlur stdDeviation="6"/><feComposite in2="hardAlpha" operator="arithmetic" k2="-1" k3="1"/><feColorMatrix values="0 0 0 0 0.203922 0 0 0 0 0.239216 0 0 0 0 0.607843 0 0 0 0.4 0"/><feBlend in2="shape" result="effect1_innerShadow"/></filter></defs></svg>