  <svg width="480" height="360" viewBox="0 0 480 360" fill="none" xmlns="http://www.w3.org/2000/svg"><mask id="mask0" mask-type="alpha" maskUnits="userSpaceOnUse" x="0" y="0" width="480" height="360"><path d="M0 12C0 5.37259 5.37258 0 12 0H480V360H12C5.37257 360 0 354.627 0 348V12Z" fill="#7580F4"/></mask><g mask="url(#mask0)"><path d="M0 12C0 5.37259 5.37258 0 12 0H480V360H12C5.37257 360 0 354.627 0 348V12Z" fill="#00CEAB"/><g style="mix-blend-mode:overlay" opacity="0.5"><ellipse cx="262.5" cy="33.4683" rx="1.50794" ry="1.46825" fill="white"/><ellipse cx="262.5" cy="75.1666" rx="1.50794" ry="1.46825" fill="white"/><ellipse cx="262.5" cy="116.865" rx="1.50794" ry="1.46825" fill="white"/><ellipse cx="262.5" cy="158.563" rx="1.50794" ry="1.46825" fill="white"/><ellipse cx="262.5" cy="200.262" rx="1.50794" ry="1.46825" fill="white"/><ellipse cx="262.5" cy="241.96" rx="1.50794" ry="1.46825" fill="white"/><ellipse cx="262.5" cy="283.659" rx="1.50794" ry="1.46825" fill="white"/><ellipse cx="262.5" cy="325.357" rx="1.50794" ry="1.46825" fill="white"/><ellipse cx="172.024" cy="33.4683" rx="1.50794" ry="1.46825" fill="white"/><ellipse cx="172.024" cy="75.1666" rx="1.50794" ry="1.46825" fill="white"/><ellipse cx="172.024" cy="116.865" rx="1.50794" ry="1.46825" fill="white"/><ellipse cx="172.024" cy="158.563" rx="1.50794" ry="1.46825" fill="white"/><ellipse cx="172.024" cy="200.262" rx="1.50794" ry="1.46825" fill="white"/><ellipse cx="172.024" cy="241.96" rx="1.50794" ry="1.46825" fill="white"/><ellipse cx="172.024" cy="283.659" rx="1.50794" ry="1.46825" fill="white"/><ellipse cx="172.024" cy="325.357" rx="1.50794" ry="1.46825" fill="white"/><ellipse cx="217.262" cy="33.4683" rx="1.50794" ry="1.46825" fill="white"/><ellipse cx="217.262" cy="75.1666" rx="1.50794" ry="1.46825" fill="white"/><ellipse cx="217.262" cy="116.865" rx="1.50794" ry="1.46825" fill="white"/><ellipse cx="217.262" cy="158.563" rx="1.50794" ry="1.46825" fill="white"/><ellipse cx="217.262" cy="200.262" rx="1.50794" ry="1.46825" fill="white"/><ellipse cx="217.262" cy="241.96" rx="1.50794" ry="1.46825" fill="white"/><ellipse cx="217.262" cy="283.659" rx="1.50794" ry="1.46825" fill="white"/><ellipse cx="217.262" cy="325.357" rx="1.50794" ry="1.46825" fill="white"/><ellipse cx="126.786" cy="33.4683" rx="1.50794" ry="1.46825" fill="white"/><ellipse cx="126.785" cy="75.1666" rx="1.50794" ry="1.46825" fill="white"/><ellipse cx="126.785" cy="116.865" rx="1.50794" ry="1.46825" fill="white"/><ellipse cx="126.785" cy="158.563" rx="1.50794" ry="1.46825" fill="white"/><ellipse cx="126.785" cy="200.262" rx="1.50794" ry="1.46825" fill="white"/><ellipse cx="126.785" cy="241.96" rx="1.50794" ry="1.46825" fill="white"/><ellipse cx="126.785" cy="283.659" rx="1.50794" ry="1.46825" fill="white"/><ellipse cx="126.785" cy="325.357" rx="1.50794" ry="1.46825" fill="white"/><ellipse cx="81.5475" cy="33.4683" rx="1.50794" ry="1.46825" fill="white"/><ellipse cx="81.5475" cy="75.1666" rx="1.50794" ry="1.46825" fill="white"/><ellipse cx="81.5475" cy="116.865" rx="1.50794" ry="1.46825" fill="white"/><ellipse cx="81.5475" cy="158.563" rx="1.50794" ry="1.46825" fill="white"/><ellipse cx="81.5475" cy="200.262" rx="1.50794" ry="1.46825" fill="white"/><ellipse cx="81.5475" cy="241.96" rx="1.50794" ry="1.46825" fill="white"/><ellipse cx="81.5475" cy="283.659" rx="1.50794" ry="1.46825" fill="white"/><ellipse cx="81.5475" cy="325.357" rx="1.50794" ry="1.46825" fill="white"/><ellipse cx="36.3092" cy="33.4683" rx="1.50794" ry="1.46825" fill="white"/><ellipse cx="36.3092" cy="75.1666" rx="1.50794" ry="1.46825" fill="white"/><ellipse cx="36.3092" cy="116.865" rx="1.50794" ry="1.46825" fill="white"/><ellipse cx="36.3092" cy="158.563" rx="1.50794" ry="1.46825" fill="white"/><ellipse cx="36.3092" cy="200.262" rx="1.50794" ry="1.46825" fill="white"/><ellipse cx="36.3092" cy="241.96" rx="1.50794" ry="1.46825" fill="white"/><ellipse cx="36.3092" cy="283.659" rx="1.50794" ry="1.46825" fill="white"/><ellipse cx="36.3092" cy="325.357" rx="1.50794" ry="1.46825" fill="white"/><ellipse cx="307.738" cy="33.4683" rx="1.50794" ry="1.46825" fill="white"/><ellipse cx="307.738" cy="75.1666" rx="1.50794" ry="1.46825" fill="white"/><ellipse cx="307.738" cy="116.865" rx="1.50794" ry="1.46825" fill="white"/><ellipse cx="307.738" cy="158.563" rx="1.50794" ry="1.46825" fill="white"/><ellipse cx="307.738" cy="200.262" rx="1.50794" ry="1.46825" fill="white"/><ellipse cx="307.738" cy="241.96" rx="1.50794" ry="1.46825" fill="white"/><ellipse cx="307.738" cy="283.659" rx="1.50794" ry="1.46825" fill="white"/><ellipse cx="307.738" cy="325.357" rx="1.50794" ry="1.46825" fill="white"/><ellipse cx="352.976" cy="33.4683" rx="1.50794" ry="1.46825" fill="white"/><ellipse cx="352.976" cy="75.1666" rx="1.50794" ry="1.46825" fill="white"/><ellipse cx="352.976" cy="116.865" rx="1.50794" ry="1.46825" fill="white"/><ellipse cx="352.976" cy="158.563" rx="1.50794" ry="1.46825" fill="white"/><ellipse cx="352.976" cy="200.262" rx="1.50794" ry="1.46825" fill="white"/><ellipse cx="352.976" cy="241.96" rx="1.50794" ry="1.46825" fill="white"/><ellipse cx="352.976" cy="283.659" rx="1.50794" ry="1.46825" fill="white"/><ellipse cx="352.976" cy="325.357" rx="1.50794" ry="1.46825" fill="white"/><ellipse cx="398.214" cy="33.4683" rx="1.50794" ry="1.46825" fill="white"/><ellipse cx="398.214" cy="75.1666" rx="1.50794" ry="1.46825" fill="white"/><ellipse cx="398.214" cy="116.865" rx="1.50794" ry="1.46825" fill="white"/><ellipse cx="398.214" cy="158.563" rx="1.50794" ry="1.46825" fill="white"/><ellipse cx="398.214" cy="200.262" rx="1.50794" ry="1.46825" fill="white"/><ellipse cx="398.214" cy="241.96" rx="1.50794" ry="1.46825" fill="white"/><ellipse cx="398.214" cy="283.659" rx="1.50794" ry="1.46825" fill="white"/><ellipse cx="398.214" cy="325.357" rx="1.50794" ry="1.46825" fill="white"/><ellipse cx="443.453" cy="33.4683" rx="1.50794" ry="1.46825" fill="white"/><ellipse cx="443.452" cy="75.1666" rx="1.50794" ry="1.46825" fill="white"/><ellipse cx="443.452" cy="116.865" rx="1.50794" ry="1.46825" fill="white"/><ellipse cx="443.452" cy="158.563" rx="1.50794" ry="1.46825" fill="white"/><ellipse cx="443.452" cy="200.262" rx="1.50794" ry="1.46825" fill="white"/><ellipse cx="443.452" cy="241.96" rx="1.50794" ry="1.46825" fill="white"/><ellipse cx="443.452" cy="283.659" rx="1.50794" ry="1.46825" fill="white"/><ellipse cx="443.452" cy="325.357" rx="1.50794" ry="1.46825" fill="white"/></g><g opacity="0.3"><ellipse cx="399.047" cy="246.333" rx="24.7568" ry="24.7568" transform="rotate(112.525 399.047 246.333)" stroke="white" stroke-width="32"/><ellipse cx="81.3642" cy="114.584" rx="24.7568" ry="24.7568" transform="rotate(112.525 81.3642 114.584)" stroke="white" stroke-width="32"/><path d="M375.41 238.703L91.7204 121.052" stroke="white" stroke-width="32"/></g><g opacity="0.3"><ellipse cx="399.494" cy="114.324" rx="24.7568" ry="24.7568" transform="rotate(67.5247 399.494 114.324)" stroke="white" stroke-width="32"/><ellipse cx="81.6972" cy="245.799" rx="24.7568" ry="24.7568" transform="rotate(67.5247 81.6972 245.799)" stroke="white" stroke-width="32"/><path d="M377.385 125.643L93.5939 243.05" stroke="white" stroke-width="32"/></g><g opacity="0.3"><ellipse cx="306.061" cy="339.32" rx="24.7568" ry="24.7568" transform="rotate(157.525 306.061 339.32)" stroke="white" stroke-width="32"/><ellipse cx="174.585" cy="21.5243" rx="24.7568" ry="24.7568" transform="rotate(157.525 174.585 21.5243)" stroke="white" stroke-width="32"/><path d="M294.742 317.212L177.335 33.4207" stroke="white" stroke-width="32"/></g><g opacity="0.3"><ellipse cx="306.505" cy="21.3372" rx="24.7568" ry="24.7568" transform="rotate(22.5247 306.505 21.3372)" stroke="white" stroke-width="32"/><ellipse cx="174.756" cy="339.02" rx="24.7568" ry="24.7568" transform="rotate(22.5247 174.756 339.02)" stroke="white" stroke-width="32"/><path d="M298.875 44.9743L181.224 328.664" stroke="white" stroke-width="32"/></g></g></svg>
