<svg width="480" height="360" viewBox="0 0 480 360" fill="none" xmlns="http://www.w3.org/2000/svg"><mask id="a" maskUnits="userSpaceOnUse" x="0" y="0" width="480" height="360"><path d="M0 12C0 5.373 5.373 0 12 0h468v360H12c-6.627 0-12-5.373-12-12V12z" fill="#7580F4"/></mask><g mask="url(#a)"><path d="M0 12C0 5.373 5.373 0 12 0h468v360H12c-6.627 0-12-5.373-12-12V12z" fill="#00CEAB"/><g style="mix-blend-mode:overlay" opacity=".5" fill="#fff"><ellipse cx="262.5" cy="33.468" rx="1.508" ry="1.468"/><ellipse cx="262.5" cy="75.167" rx="1.508" ry="1.468"/><ellipse cx="262.5" cy="116.865" rx="1.508" ry="1.468"/><ellipse cx="262.5" cy="158.563" rx="1.508" ry="1.468"/><ellipse cx="262.5" cy="200.262" rx="1.508" ry="1.468"/><ellipse cx="262.5" cy="241.96" rx="1.508" ry="1.468"/><ellipse cx="262.5" cy="283.659" rx="1.508" ry="1.468"/><ellipse cx="262.5" cy="325.357" rx="1.508" ry="1.468"/><ellipse cx="172.024" cy="33.468" rx="1.508" ry="1.468"/><ellipse cx="172.024" cy="75.167" rx="1.508" ry="1.468"/><ellipse cx="172.024" cy="116.865" rx="1.508" ry="1.468"/><ellipse cx="172.024" cy="158.563" rx="1.508" ry="1.468"/><ellipse cx="172.024" cy="200.262" rx="1.508" ry="1.468"/><ellipse cx="172.024" cy="241.96" rx="1.508" ry="1.468"/><ellipse cx="172.024" cy="283.659" rx="1.508" ry="1.468"/><ellipse cx="172.024" cy="325.357" rx="1.508" ry="1.468"/><ellipse cx="217.262" cy="33.468" rx="1.508" ry="1.468"/><ellipse cx="217.262" cy="75.167" rx="1.508" ry="1.468"/><ellipse cx="217.262" cy="116.865" rx="1.508" ry="1.468"/><ellipse cx="217.262" cy="158.563" rx="1.508" ry="1.468"/><ellipse cx="217.262" cy="200.262" rx="1.508" ry="1.468"/><ellipse cx="217.262" cy="241.96" rx="1.508" ry="1.468"/><ellipse cx="217.262" cy="283.659" rx="1.508" ry="1.468"/><ellipse cx="217.262" cy="325.357" rx="1.508" ry="1.468"/><ellipse cx="126.786" cy="33.468" rx="1.508" ry="1.468"/><ellipse cx="126.785" cy="75.167" rx="1.508" ry="1.468"/><ellipse cx="126.785" cy="116.865" rx="1.508" ry="1.468"/><ellipse cx="126.785" cy="158.563" rx="1.508" ry="1.468"/><ellipse cx="126.785" cy="200.262" rx="1.508" ry="1.468"/><ellipse cx="126.785" cy="241.96" rx="1.508" ry="1.468"/><ellipse cx="126.785" cy="283.659" rx="1.508" ry="1.468"/><ellipse cx="126.785" cy="325.357" rx="1.508" ry="1.468"/><ellipse cx="81.547" cy="33.468" rx="1.508" ry="1.468"/><ellipse cx="81.547" cy="75.167" rx="1.508" ry="1.468"/><ellipse cx="81.547" cy="116.865" rx="1.508" ry="1.468"/><ellipse cx="81.547" cy="158.563" rx="1.508" ry="1.468"/><ellipse cx="81.547" cy="200.262" rx="1.508" ry="1.468"/><ellipse cx="81.547" cy="241.96" rx="1.508" ry="1.468"/><ellipse cx="81.547" cy="283.659" rx="1.508" ry="1.468"/><ellipse cx="81.547" cy="325.357" rx="1.508" ry="1.468"/><ellipse cx="36.309" cy="33.468" rx="1.508" ry="1.468"/><ellipse cx="36.309" cy="75.167" rx="1.508" ry="1.468"/><ellipse cx="36.309" cy="116.865" rx="1.508" ry="1.468"/><ellipse cx="36.309" cy="158.563" rx="1.508" ry="1.468"/><ellipse cx="36.309" cy="200.262" rx="1.508" ry="1.468"/><ellipse cx="36.309" cy="241.96" rx="1.508" ry="1.468"/><ellipse cx="36.309" cy="283.659" rx="1.508" ry="1.468"/><ellipse cx="36.309" cy="325.357" rx="1.508" ry="1.468"/><ellipse cx="307.738" cy="33.468" rx="1.508" ry="1.468"/><ellipse cx="307.738" cy="75.167" rx="1.508" ry="1.468"/><ellipse cx="307.738" cy="116.865" rx="1.508" ry="1.468"/><ellipse cx="307.738" cy="158.563" rx="1.508" ry="1.468"/><ellipse cx="307.738" cy="200.262" rx="1.508" ry="1.468"/><ellipse cx="307.738" cy="241.96" rx="1.508" ry="1.468"/><ellipse cx="307.738" cy="283.659" rx="1.508" ry="1.468"/><ellipse cx="307.738" cy="325.357" rx="1.508" ry="1.468"/><ellipse cx="352.976" cy="33.468" rx="1.508" ry="1.468"/><ellipse cx="352.976" cy="75.167" rx="1.508" ry="1.468"/><ellipse cx="352.976" cy="116.865" rx="1.508" ry="1.468"/><ellipse cx="352.976" cy="158.563" rx="1.508" ry="1.468"/><ellipse cx="352.976" cy="200.262" rx="1.508" ry="1.468"/><ellipse cx="352.976" cy="241.96" rx="1.508" ry="1.468"/><ellipse cx="352.976" cy="283.659" rx="1.508" ry="1.468"/><ellipse cx="352.976" cy="325.357" rx="1.508" ry="1.468"/><ellipse cx="398.214" cy="33.468" rx="1.508" ry="1.468"/><ellipse cx="398.214" cy="75.167" rx="1.508" ry="1.468"/><ellipse cx="398.214" cy="116.865" rx="1.508" ry="1.468"/><ellipse cx="398.214" cy="158.563" rx="1.508" ry="1.468"/><ellipse cx="398.214" cy="200.262" rx="1.508" ry="1.468"/><ellipse cx="398.214" cy="241.96" rx="1.508" ry="1.468"/><ellipse cx="398.214" cy="283.659" rx="1.508" ry="1.468"/><ellipse cx="398.214" cy="325.357" rx="1.508" ry="1.468"/><ellipse cx="443.453" cy="33.468" rx="1.508" ry="1.468"/><ellipse cx="443.452" cy="75.167" rx="1.508" ry="1.468"/><ellipse cx="443.452" cy="116.865" rx="1.508" ry="1.468"/><ellipse cx="443.452" cy="158.563" rx="1.508" ry="1.468"/><ellipse cx="443.452" cy="200.262" rx="1.508" ry="1.468"/><ellipse cx="443.452" cy="241.96" rx="1.508" ry="1.468"/><ellipse cx="443.452" cy="283.659" rx="1.508" ry="1.468"/><ellipse cx="443.452" cy="325.357" rx="1.508" ry="1.468"/></g><g opacity=".3" stroke="#fff" stroke-width="32"><circle cx="399.047" cy="246.333" transform="rotate(112.525 399.047 246.333)" r="24.757"/><circle cx="81.364" cy="114.584" transform="rotate(112.525 81.364 114.584)" r="24.757"/><path d="M375.41 238.703L91.72 121.052"/></g><g opacity=".3" stroke="#fff" stroke-width="32"><circle cx="399.494" cy="114.324" transform="rotate(67.525 399.494 114.324)" r="24.757"/><circle cx="81.697" cy="245.799" transform="rotate(67.525 81.697 245.799)" r="24.757"/><path d="M377.385 125.643L93.594 243.05"/></g><g opacity=".3" stroke="#fff" stroke-width="32"><circle cx="306.061" cy="339.32" transform="rotate(157.525 306.061 339.32)" r="24.757"/><circle cx="174.585" cy="21.524" transform="rotate(157.525 174.585 21.524)" r="24.757"/><path d="M294.742 317.212L177.335 33.421"/></g><g opacity=".3" stroke="#fff" stroke-width="32"><circle cx="306.505" cy="21.337" transform="rotate(22.525 306.505 21.337)" r="24.757"/><circle cx="174.756" cy="339.02" transform="rotate(22.525 174.756 339.02)" r="24.757"/><path d="M298.875 44.974l-117.651 283.69"/></g></g></svg>