<svg width="24" height="24" viewBox="0 0 24 24" fill="none" xmlns="http://www.w3.org/2000/svg">
<circle cx="12" cy="12" r="12" fill="#3D5275"/>
<path d="M7.92502 11.9832C7.5451 11.5823 6.91216 11.5654 6.51131 11.9453C6.11046 12.3252 6.0935 12.9581 6.47342 13.359L7.92502 11.9832ZM9.97512 15.5999L9.24932 16.2878C9.43816 16.4871 9.70061 16.5999 9.97512 16.5999C10.2496 16.5999 10.5121 16.4871 10.7009 16.2878L9.97512 15.5999ZM17.525 9.08781C17.9049 8.68696 17.888 8.05402 17.4871 7.6741C17.0863 7.29418 16.4533 7.31115 16.0734 7.712L17.525 9.08781ZM6.47342 13.359L9.24932 16.2878L10.7009 14.912L7.92502 11.9832L6.47342 13.359ZM10.7009 16.2878L17.525 9.08781L16.0734 7.712L9.24932 14.912L10.7009 16.2878Z" fill="#98ACCF"/>
</svg>
