<svg width="10" height="8" viewBox="0 0 10 8" fill="none" xmlns="http://www.w3.org/2000/svg">
<path d="M9.94716 0.936325L9.12984 0.058217C9.09733 0.0194056 9.04625 0 8.99981 0C8.94873 0 8.90229 0.0194056 8.86978 0.058217L3.20427 6.02062L1.14239 3.86659C1.10524 3.82777 1.0588 3.80837 1.01236 3.80837C0.965924 3.80837 0.919485 3.82777 0.882334 3.86659L0.0557264 4.73014C-0.0185755 4.80776 -0.0185755 4.92905 0.0557264 5.00667L2.65629 7.72347C2.82347 7.89812 3.0278 8 3.19962 8C3.44575 8 3.65937 7.81079 3.73831 7.73317H3.74296L9.95181 1.21286C10.0168 1.13038 10.0168 1.0091 9.94716 0.936325Z" fill="#19355C"/>
</svg>
