<svg width="42" height="42" viewBox="0 0 42 42" fill="none" xmlns="http://www.w3.org/2000/svg"><path d="M21 42c11.598 0 21-9.402 21-21S32.598 0 21 0 0 9.402 0 21s9.402 21 21 21z" fill="#D3F3DB"/><path d="M13.87 20.97a1.75 1.75 0 00-2.54 2.408l2.54-2.407zm3.588 6.33l-1.27 1.204a1.75 1.75 0 002.54 0l-1.27-1.204zM30.67 15.904a1.75 1.75 0 00-2.54-2.408l2.54 2.408zm-19.34 7.474l4.858 5.126 2.54-2.408-4.858-5.125-2.54 2.407zm7.398 5.126l11.942-12.6-2.54-2.408-11.942 12.6 2.54 2.408z" fill="#43C465"/></svg>