<?xml version="1.0" encoding="utf-8"?>
<!-- Generator: Adobe Illustrator 22.0.1, SVG Export Plug-In . SVG Version: 6.00 Build 0)  -->
<svg version="1.1" id="Layer_1" xmlns="http://www.w3.org/2000/svg" xmlns:xlink="http://www.w3.org/1999/xlink" x="0px" y="0px"
	 viewBox="0 0 512 176" enable-background="new 0 0 512 176" xml:space="preserve">
<g>
	<g>
		<path fill="#3880FF" d="M90.4,49.6c-21.2,0-38.5,17.2-38.5,38.5s17.2,38.5,38.5,38.5s38.5-17.2,38.5-38.5
			C128.8,66.8,111.5,49.6,90.4,49.6z"/>
		<g>
			<circle fill="#3880FF" cx="145.5" cy="35.4" r="17.6"/>
		</g>
		<path fill="#3880FF" d="M167.1,53l-0.7-1.6l-1.1,1.4c-2.9,3.2-6.5,5.7-10.6,7.2l-1.1,0.5l0.5,1.1c3.6,8.4,5.3,17.3,5.3,26.4
			c0,38-30.9,69-69,69s-68.9-31-68.9-69s30.9-69,69-69c10.3,0,20.2,2.3,29.5,6.7l1,0.5l0.5-1.1c1.7-4,4.4-7.5,7.8-10.2l1.4-1.1
			l-1.6-0.8c-12.1-6.2-25-9.4-38.7-9.4C43.8,3.4,5.9,41.3,5.9,87.8s37.9,84.4,84.4,84.4s84.4-37.9,84.4-84.4
			C174.7,75.9,172.2,64.1,167.1,53z"/>
	</g>
	<g>
		<g>
			<rect x="218.2" y="51.3" fill="#3880FF" width="17.8" height="73.5"/>
		</g>
		<g>
			<rect x="410.3" y="51.3" fill="#3880FF" width="17.8" height="73.5"/>
		</g>
		<path fill="#3880FF" d="M369.2,49.6c-12.5,0-22.2,7.6-24.3,9.6l0,0l-1.1-7.9h-14.8v73.5h17.8l0,0V80.3c0-8.7,11.8-15.8,20.6-15.8
			c8.5,0,15.2,8.3,15.2,18.1v42.1h17.8V84.4C400.1,65.1,391.7,49.6,369.2,49.6z"/>
		<path fill="#3880FF" d="M474.8,111.5c-13.4,0-22.3-10.4-22.3-23.4s8.8-23.4,22.3-23.4c11.4,0,18.4,11,18.4,11L506,67
			c-3.7-5.7-8-9.2-13.9-12.7c-4.4-2.6-10.2-4.8-16.8-4.8c-22.3,0-39.3,16.8-39.4,38.5c0.1,21.7,17.1,38.5,39.4,38.5
			c6.5,0,12.4-2.2,16.8-4.8c5.9-3.6,10.2-7,13.9-12.7l-12.9-8.6C493.1,100.3,486.2,111.5,474.8,111.5z"/>
		<path id="path3000_1_" fill="#3880FF" d="M282.4,49.6c-22.4,0-38.5,17.6-38.5,38.1c0,20.9,15.6,38.8,38.8,38.8
			c21,0,38.1-16.1,38.1-38.4C320.9,62.7,300.9,49.6,282.4,49.6L282.4,49.6z M282.6,64.7c11,0,21.5,9,21.5,23.4
			c0,14.1-10.4,23.3-21.6,23.3c-12.2,0-21.8-9.9-21.8-23.4C260.7,74.6,270.2,64.7,282.6,64.7L282.6,64.7z"/>
	</g>
</g>
</svg>
