<svg id="Layer_1" data-name="Layer 1" xmlns="http://www.w3.org/2000/svg" viewBox="0 0 250.67 254.26"><defs><style>.cls-1{fill:#478aff;}</style></defs><title>ionic_logo</title><path class="cls-1" d="M256,168.48A33.5,33.5,0,1,0,289.5,202,33.54,33.54,0,0,0,256,168.48Z" transform="translate(-130.66 -128.48)"/><circle class="cls-1" cx="173.43" cy="27.71" r="15.26"/><path class="cls-1" d="M322.89,171.53l-.64-1.4-1,1.16a23,23,0,0,1-9.21,6.34l-1,.36.4,1a60.09,60.09,0,1,1-29.71-31.21l.94.45.41-1a23,23,0,0,1,6.78-8.89l1.2-1-1.37-.71a72.68,72.68,0,0,0-33.7-8.19,73.51,73.51,0,1,0,66.89,43Z" transform="translate(-130.66 -128.48)"/><rect class="cls-1" y="188.76" width="15.5" height="64"/><rect class="cls-1" x="167.27" y="188.76" width="15.5" height="64"/><path class="cls-1" d="M262.15,315.74c-10.9,0-19.32,6.57-21.25,8.38h0l-1-6.88H227v64h15.5V342.49c0-7.56,10.32-13.82,17.87-13.82s13.16,7.22,13.16,15.82v36.75H289V346C289,329.26,281.79,315.74,262.15,315.74Z" transform="translate(-130.66 -128.48)"/><path class="cls-1" d="M354.13,369.61c-11.65,0-19.35-9.12-19.35-20.37s7.7-20.37,19.35-20.37c9.94,0,16,9.63,16,9.63L381.34,331c-3.25-5-7-8-12.12-11.1a28.62,28.62,0,0,0-14.59-4.15c-19.39,0-34.2,14.56-34.29,33.5.09,18.94,14.9,33.5,34.29,33.5a28.62,28.62,0,0,0,14.59-4.15c5.12-3.09,8.87-6.1,12.12-11.1L370.1,360S364.07,369.61,354.13,369.61Z" transform="translate(-130.66 -128.48)"/><path id="path3000" class="cls-1" d="M186.59,315.74A33,33,0,0,0,153.06,349c0,18.15,13.58,33.77,33.76,33.77,18.27,0,33.24-14,33.24-33.38,0-22.19-17.41-33.62-33.47-33.62Zm.19,13.16c9.61,0,18.71,7.8,18.71,20.37,0,12.3-9.06,20.32-18.75,20.32-10.65,0-19-8.56-19-20.42,0-11.6,8.29-20.27,19.09-20.27Z" transform="translate(-130.66 -128.48)"/></svg>