<?xml version="1.0" encoding="utf-8"?>
<!-- Generator: Adobe Illustrator 22.0.1, SVG Export Plug-In . SVG Version: 6.00 Build 0)  -->
<svg version="1.1" id="Layer_1" xmlns="http://www.w3.org/2000/svg" xmlns:xlink="http://www.w3.org/1999/xlink" x="0px" y="0px"
	 viewBox="0 0 512 177.8" style="enable-background:new 0 0 512 177.8;" xml:space="preserve">
<style type="text/css">
	.st0{fill:#FFFFFF;}
</style>
<g>
	<g>
		<path class="st0" d="M86.1,49.9c-21.6,0-39.2,17.5-39.2,39c0,21.5,17.6,39,39.2,39s39.2-17.5,39.2-39
			C125.3,67.4,107.7,49.9,86.1,49.9z"/>
		<g>
			<ellipse class="st0" cx="142.4" cy="35.6" rx="17.9" ry="17.8"/>
		</g>
		<path class="st0" d="M164.4,53.4l-0.7-1.6l-1.2,1.3c-2.9,3.3-6.7,5.9-10.8,7.4l-1.1,0.4l0.5,1.1c3.6,8.5,5.4,17.6,5.4,26.8
			c0,38.6-31.5,70-70.3,70s-70.3-31.4-70.3-70s31.5-70,70.3-70c10.5,0,20.7,2.3,30.1,6.8l1.1,0.5l0.5-1.1c1.7-4,4.5-7.6,7.9-10.4
			l1.4-1.1l-1.6-0.8c-12.3-6.3-25.6-9.5-39.5-9.5C38.6,3.3,0,41.7,0,88.9c0,47.2,38.6,85.6,86.1,85.6s86.1-38.4,86.1-85.6
			C172.1,76.6,169.5,64.6,164.4,53.4z"/>
	</g>
	<g>
		<g>
			<rect x="216.4" y="51.6" class="st0" width="18.1" height="74.6"/>
		</g>
		<g>
			<rect x="412.2" y="51.6" class="st0" width="18.1" height="74.6"/>
		</g>
		<path class="st0" d="M370.3,49.9c-12.8,0-22.6,7.7-24.9,9.8v0l-1.1-8h-15.1v74.6h18.1l0,0l0-45.1c0-8.8,12.1-16.1,20.9-16.1
			c8.7,0,15.4,8.4,15.4,18.4v42.8h18.1v-41C401.8,65.6,393.3,49.9,370.3,49.9z"/>
		<path class="st0" d="M478,112.7c-13.6,0-22.7-10.6-22.7-23.7s9-23.7,22.7-23.7c11.6,0,18.7,11.2,18.7,11.2l13.2-8.8
			c-3.8-5.8-8.2-9.3-14.2-12.9c-4.4-2.6-10.4-4.8-17.1-4.8c-22.7,0-40,17-40.2,39c0.1,22.1,17.4,39,40.2,39c6.7,0,12.7-2.2,17.1-4.8
			c6-3.6,10.4-7.1,14.2-12.9l-13.2-8.8C496.7,101.4,489.7,112.7,478,112.7z"/>
		<path id="path3000_1_" class="st0" d="M281.9,49.9c-22.9,0-39.3,17.9-39.3,38.7c0,21.2,15.9,39.4,39.5,39.4
			c21.4,0,38.9-16.3,38.9-38.9C321.1,63.2,300.7,49.9,281.9,49.9L281.9,49.9z M282.1,65.2c11.2,0,21.9,9.1,21.9,23.7
			c0,14.3-10.6,23.7-22,23.7c-12.5,0-22.3-10-22.3-23.8C259.8,75.3,269.5,65.2,282.1,65.2L282.1,65.2z"/>
	</g>
</g>
</svg>
