<svg width="773" height="510" viewBox="0 0 773 510" fill="none" xmlns="http://www.w3.org/2000/svg">
<g opacity="0.5">
<path d="M439.79 358.442L115.285 415.883C113.586 416.155 111.955 414.93 111.683 413.092L61.7331 130.244C59.7623 118.946 66.6941 109.418 77.1598 108.942L381.413 96.011C389.296 95.6707 396.976 103.293 398.743 112.957L441.489 355.243C441.829 356.809 441.013 358.238 439.79 358.442Z" fill="url(#paint0_linear)"/>
<path d="M506.118 346.736L471.051 352.929C463.575 354.222 456.1 347.485 454.401 337.82L434.897 227.226C433.198 217.562 437.955 209.055 445.498 208.306L481.041 204.699C488.245 203.951 495.448 210.961 497.079 220.353L515.972 327.476C517.671 336.868 513.254 345.443 506.118 346.736Z" fill="url(#paint1_linear)"/>
<path opacity="0.2" d="M490.759 333.669C491.371 337.072 489.74 340.202 487.089 340.679C484.439 341.155 481.856 338.705 481.245 335.302C480.633 331.899 482.264 328.768 484.915 328.292C487.565 327.816 490.148 330.198 490.759 333.669Z" fill="#73849A"/>
<path d="M71.3832 423.71L41.4812 429.018C29.9961 431.06 18.8508 422.825 16.6761 410.574L0.365872 318.084C-1.80882 305.901 5.93852 294.808 17.5595 293.447L47.8014 289.84C59.0146 288.479 69.7522 297.054 71.791 308.896L87.6255 398.732C89.6642 410.574 82.4606 421.736 71.3832 423.71Z" fill="url(#paint2_linear)"/>
<path opacity="0.2" d="M60.3059 406.355C61.0534 410.506 58.471 414.453 54.5294 415.134C50.5877 415.815 46.782 412.956 46.0345 408.737C45.2869 404.517 47.8694 400.57 51.8789 399.957C55.7526 399.277 59.5583 402.135 60.3059 406.355Z" fill="#73849A"/>
<path d="M530.108 325.094L506.39 190.612C504.759 181.288 509.108 173.257 516.108 172.713L645.027 161.619C651.075 161.075 657.123 167.608 658.687 176.183L680.501 299.845C681.997 308.42 678.463 316.178 672.482 317.267L545.534 339.726C538.739 340.951 531.739 334.418 530.108 325.094Z" fill="url(#paint3_linear)"/>
<path d="M116.712 420.17L445.634 360.96L629.124 407.239C637.211 409.281 646.793 420.17 628.444 426.295L341.589 506.331C320.657 512.184 298.299 510.075 278.795 500.41L116.712 420.17Z" fill="url(#paint4_linear)"/>
</g>
<g filter="url(#filter0_dd)">
<path d="M230.466 211.362L164.41 217.76C156.323 218.576 148.508 212.179 146.944 203.536L145.042 193.123C143.479 184.48 148.847 176.925 156.934 176.313L223.195 171.072C230.806 170.46 238.146 176.721 239.641 185.024L241.408 195.028C242.971 203.332 238.078 210.682 230.466 211.362Z" fill="#97BDFF"/>
</g>
<path d="M360.472 183.05L282.455 190.06C280.076 190.264 277.698 188.222 277.222 185.5C276.746 182.778 278.309 180.396 280.688 180.192L358.773 173.522C361.016 173.318 363.191 175.291 363.666 177.946C364.142 180.532 362.715 182.846 360.472 183.05Z" fill="#CDDFFF"/>
<path d="M298.901 183.595C300.124 190.333 296.251 196.254 290.27 196.798C284.29 197.343 278.378 192.306 277.154 185.501C275.931 178.695 279.873 172.774 285.853 172.297C291.901 171.821 297.678 176.857 298.901 183.595Z" fill="#97BDFF"/>
<g filter="url(#filter1_dd)">
<path d="M349.123 124.93L152.585 137.248C144.498 137.724 136.615 131.191 135.051 122.548L129.411 91.241C127.848 82.5296 133.285 75.3154 141.44 75.0432L338.929 67.9652C345.725 67.693 352.317 73.8862 353.744 81.7129L358.841 110.025C360.2 117.784 355.919 124.521 349.123 124.93Z" fill="white"/>
</g>
<g filter="url(#filter2_dd)">
<path d="M719.445 129.327L618.853 137.52C611.445 138.133 603.902 130.578 602.135 120.642L595.407 83.0058C593.64 73.1374 598.329 64.8344 605.805 64.5622L707.416 61.7453C713.804 61.4731 720.192 68.6192 721.823 77.6709L727.94 112.04C729.503 121.092 725.765 128.782 719.445 129.327Z" fill="white"/>
</g>
<g filter="url(#filter3_dd)">
<path d="M379.909 324.611L196.623 353.467C185.477 355.237 174.672 346.866 172.497 334.752L162.303 278.196C160.129 266.081 167.536 255.26 178.749 253.967L363.462 233.005C372.909 231.916 382.015 239.947 383.986 250.904L393.161 302.152C395.131 313.041 389.219 323.114 379.909 324.611Z" fill="white"/>
</g>
<g filter="url(#filter4_dd)">
<path d="M572.097 182.506L422.179 197.411C413.616 198.228 405.189 190.605 403.354 180.328L376.646 31.4178C374.811 21.1411 380.384 12.7019 389.083 12.6338L541.447 11.0005C548.855 10.9324 556.195 18.4868 557.894 27.8788L582.291 164.131C583.922 173.591 579.437 181.758 572.097 182.506Z" fill="white"/>
</g>
<g filter="url(#filter5_dd)">
<path d="M749.252 236C749.252 236 664.046 247.638 657.93 248.454C655.891 260.909 649.706 266.081 643.522 267.034C644.61 262.066 642.571 250.632 639.852 251.041C632.445 252.062 625.989 245.256 624.358 236L615.183 184.616C613.552 175.36 617.834 167.329 624.765 166.649L735.253 157.938C741.165 157.393 747.146 163.791 748.641 172.298L757.068 219.258C758.631 227.697 755.097 235.183 749.252 236Z" fill="white"/>
</g>
<path d="M640.124 124.929L623.882 126.086C617.834 126.495 611.717 120.369 610.29 112.27L606.348 90.3559C604.921 82.257 608.659 75.5193 614.775 75.247L631.086 74.4984C636.998 74.2262 642.978 80.4194 644.406 88.3141L648.279 109.82C649.638 117.715 646.037 124.521 640.124 124.929Z" fill="#F0F6FF"/>
<path d="M551.641 120.437L420.616 129.217C413.209 129.693 405.801 122.887 404.238 113.904L391.394 42.1709C389.763 33.2553 394.588 25.837 402.131 25.769L534.312 23.523C540.836 23.3869 547.292 30.0566 548.787 38.2916L560.68 104.648C562.175 112.951 558.165 119.961 551.641 120.437Z" fill="#F0F6FF"/>
<path opacity="0.3" d="M274.436 32.1667L200.292 33.5959C196.487 33.664 192.681 30.3291 191.933 26.1776C191.186 22.0261 193.7 18.5551 197.574 18.4871L271.785 17.5342C275.387 17.4662 278.921 20.733 279.601 24.7484C280.348 28.7638 278.038 32.0986 274.436 32.1667Z" fill="#97BDFF"/>
<path d="M138.586 29.5803L121.324 29.8525C119.965 29.8525 118.606 28.6955 118.402 27.2663C118.13 25.8371 119.081 24.6121 120.44 24.6121L137.702 24.3398C139.061 24.3398 140.353 25.4968 140.624 26.858C140.828 28.3553 139.945 29.5122 138.586 29.5803Z" fill="#97BDFF"/>
<path d="M136.751 19.2356L119.489 19.4397C118.13 19.4397 116.771 18.2828 116.567 16.8535C116.295 15.4243 117.246 14.2673 118.606 14.1993L135.867 13.9951C137.226 13.9951 138.518 15.1521 138.789 16.5813C138.993 18.0105 138.11 19.1675 136.751 19.2356Z" fill="#97BDFF"/>
<path d="M140.488 39.9255L123.227 40.2658C121.868 40.2658 120.508 39.1769 120.305 37.6796C120.033 36.2504 120.984 35.0253 122.343 35.0253L139.605 34.6851C140.964 34.6851 142.255 35.774 142.527 37.2032C142.731 38.7005 141.848 39.8574 140.488 39.9255Z" fill="#97BDFF"/>
<path d="M343.754 23.7274C344.91 30.261 341.308 35.6376 335.599 35.7737C329.891 35.9098 324.318 30.6693 323.095 24.0677C321.939 17.4661 325.609 12.0895 331.318 12.0215C337.026 12.0215 342.599 17.2619 343.754 23.7274Z" fill="#97BDFF"/>
<path d="M532.001 50.9506C533.156 57.4841 529.555 62.8607 523.846 62.9968C518.137 63.1329 512.565 57.8925 511.342 51.2909C510.186 44.6893 513.856 39.3127 519.565 39.2446C525.273 39.2446 530.846 44.4851 532.001 50.9506Z" fill="url(#paint5_linear)"/>
<path d="M468.32 125.942L485.242 51.0781L539.201 121.382L468.32 125.942Z" fill="url(#paint6_linear)"/>
<path d="M415.448 127.439C412.458 125.873 410.079 122.811 410.079 122.811L429.855 37.126L496.523 124.104L422.108 129.072C422.108 129.14 418.914 129.344 415.448 127.439Z" fill="url(#paint7_linear)"/>
<path d="M189.895 104.035C191.662 113.904 185.681 122.275 176.507 122.819C167.264 123.364 158.226 115.673 156.459 105.737C154.692 95.7321 160.808 87.361 170.051 86.9526C179.293 86.4762 188.128 94.1668 189.895 104.035Z" fill="#E3EDFF"/>
<path d="M307.192 83.0054L312.629 113.155L338.725 111.726L333.356 81.9165L307.192 83.0054Z" fill="#E3EDFF"/>
<path d="M272.261 115.469L252.893 116.558L233.185 117.647L247.32 85.5239L272.261 115.469Z" fill="#E3EDFF"/>
<path d="M433.392 261.249C424.897 262.338 416.471 254.919 414.636 244.643C412.801 234.366 418.237 225.246 426.732 224.293C435.159 223.341 443.45 230.759 445.285 240.899C447.12 251.04 441.819 260.16 433.392 261.249Z" fill="#97BDFF"/>
<path d="M527.856 226.404L461.324 234.366C459.285 234.639 457.246 232.733 456.77 230.283C456.295 227.765 457.654 225.519 459.693 225.315L526.293 217.692C528.195 217.488 530.098 219.258 530.574 221.708C530.982 224.022 529.758 226.131 527.856 226.404Z" fill="#CDDFFF"/>
<path d="M502.371 247.638L464.586 252.47C462.547 252.742 460.508 250.905 460.032 248.386C459.557 245.868 460.916 243.622 462.955 243.35L500.74 238.654C502.711 238.382 504.682 240.22 505.089 242.67C505.565 245.188 504.342 247.434 502.371 247.638Z" fill="#CDDFFF"/>
<path d="M592.893 222.66C593.912 228.513 591.126 233.754 586.64 234.366C582.087 234.911 577.534 230.623 576.514 224.702C575.427 218.781 578.281 213.541 582.835 212.996C587.388 212.452 591.873 216.807 592.893 222.66Z" fill="#97BDFF"/>
<path d="M443.314 316.716C434.888 318.077 426.461 310.795 424.626 300.519C422.791 290.242 428.228 280.918 436.654 279.761C445.081 278.604 453.304 285.818 455.139 295.959C456.974 306.099 451.673 315.355 443.314 316.716Z" fill="#97BDFF"/>
<path d="M550.214 277.311L471.11 288.949C469.071 289.221 467.032 287.452 466.556 284.934C466.081 282.415 467.44 280.169 469.479 279.829L548.651 268.532C550.554 268.259 552.389 270.029 552.865 272.411C553.272 274.793 552.049 277.039 550.214 277.311Z" fill="#CDDFFF"/>
<path d="M538.321 297.116L474.372 307.12C472.333 307.461 470.294 305.623 469.886 303.173C469.411 300.655 470.77 298.341 472.741 298.069L536.69 288.405C538.593 288.132 540.496 289.834 540.972 292.284C541.38 294.598 540.224 296.844 538.321 297.116Z" fill="#CDDFFF"/>
<path d="M599.553 278.536L583.99 280.918C582.155 281.19 580.32 279.489 579.912 277.107C579.505 274.725 580.66 272.615 582.427 272.343L597.989 270.029C599.756 269.756 601.591 271.458 601.999 273.84C602.475 276.086 601.387 278.264 599.553 278.536Z" fill="#CDDFFF"/>
<path d="M591.465 275.337C592.213 279.489 590.242 283.232 587.048 283.708C583.854 284.185 580.66 281.19 579.912 277.039C579.165 272.887 581.135 269.144 584.33 268.667C587.592 268.191 590.718 271.186 591.465 275.337Z" fill="#97BDFF"/>
<path d="M701.011 184.649L635.979 191.422C634.28 191.626 632.513 189.857 632.105 187.611C631.697 185.297 632.785 183.323 634.484 183.119L699.652 176.686C701.215 176.55 702.778 178.183 703.186 180.361C703.526 182.607 702.574 184.513 701.011 184.649Z" fill="#97BDFF"/>
<path d="M684.669 225.072L643.046 230.895C641.347 231.099 639.649 229.398 639.173 227.152C638.765 224.838 639.852 222.796 641.551 222.592L683.242 217.109C684.805 216.905 686.436 218.538 686.844 220.784C687.252 222.962 686.3 224.868 684.669 225.072Z" fill="#97BDFF"/>
<path d="M728.026 200.684L639.513 211.159C637.814 211.363 636.047 209.662 635.639 207.348C635.231 205.034 636.318 203.06 638.017 202.856L726.599 192.926C728.094 192.79 729.589 194.355 729.997 196.465C730.404 198.643 729.521 200.548 728.026 200.684Z" fill="#97BDFF"/>
<path d="M321.124 266.966L187.992 283.844C185.341 284.185 182.759 282.143 182.283 279.285C181.74 276.426 183.506 273.84 186.157 273.5L319.425 257.234C321.735 256.962 324.046 258.867 324.522 261.59C324.997 264.244 323.434 266.626 321.124 266.966Z" fill="#97BDFF"/>
<path d="M292.105 318.69L196.759 332.846C194.108 333.255 191.594 331.213 191.05 328.354C190.506 325.496 192.273 322.842 194.924 322.501L290.338 308.754C292.717 308.413 295.095 310.319 295.571 313.041C296.115 315.832 294.552 318.35 292.105 318.69Z" fill="#CDDFFF"/>
<path d="M366.86 284.321L192.205 308.346C189.691 308.686 187.176 306.712 186.701 303.99L186.633 303.65C186.157 300.927 187.788 298.341 190.37 298.001L365.093 274.725C367.268 274.453 369.443 276.29 369.851 278.808L369.919 279.081C370.394 281.735 369.035 284.049 366.86 284.321Z" fill="#CDDFFF"/>
<defs>
<filter id="filter0_dd" x="116.77" y="160.192" width="140.284" height="90.1557" filterUnits="userSpaceOnUse" color-interpolation-filters="sRGB">
<feFlood flood-opacity="0" result="BackgroundImageFix"/>
<feColorMatrix in="SourceAlpha" type="matrix" values="0 0 0 0 0 0 0 0 0 0 0 0 0 0 0 0 0 0 127 0"/>
<feOffset dx="-6.3228" dy="10.8391"/>
<feGaussianBlur stdDeviation="10.8391"/>
<feColorMatrix type="matrix" values="0 0 0 0 0.807747 0 0 0 0 0.838675 0 0 0 0 0.879913 0 0 0 0.38 0"/>
<feBlend mode="normal" in2="BackgroundImageFix" result="effect1_dropShadow"/>
<feColorMatrix in="SourceAlpha" type="matrix" values="0 0 0 0 0 0 0 0 0 0 0 0 0 0 0 0 0 0 127 0"/>
<feOffset dx="-0.903258" dy="2.70977"/>
<feGaussianBlur stdDeviation="2.70977"/>
<feColorMatrix type="matrix" values="0 0 0 0 0.355198 0 0 0 0 0.438609 0 0 0 0 0.545852 0 0 0 0.08 0"/>
<feBlend mode="normal" in2="effect1_dropShadow" result="effect2_dropShadow"/>
<feBlend mode="normal" in="SourceGraphic" in2="effect2_dropShadow" result="shape"/>
</filter>
<filter id="filter1_dd" x="101.142" y="57.1174" width="273.306" height="112.672" filterUnits="userSpaceOnUse" color-interpolation-filters="sRGB">
<feFlood flood-opacity="0" result="BackgroundImageFix"/>
<feColorMatrix in="SourceAlpha" type="matrix" values="0 0 0 0 0 0 0 0 0 0 0 0 0 0 0 0 0 0 127 0"/>
<feOffset dx="-6.3228" dy="10.8391"/>
<feGaussianBlur stdDeviation="10.8391"/>
<feColorMatrix type="matrix" values="0 0 0 0 0.807747 0 0 0 0 0.838675 0 0 0 0 0.879913 0 0 0 0.38 0"/>
<feBlend mode="normal" in2="BackgroundImageFix" result="effect1_dropShadow"/>
<feColorMatrix in="SourceAlpha" type="matrix" values="0 0 0 0 0 0 0 0 0 0 0 0 0 0 0 0 0 0 127 0"/>
<feOffset dx="-0.903258" dy="2.70977"/>
<feGaussianBlur stdDeviation="2.70977"/>
<feColorMatrix type="matrix" values="0 0 0 0 0.355198 0 0 0 0 0.438609 0 0 0 0 0.545852 0 0 0 0.08 0"/>
<feBlend mode="normal" in2="effect1_dropShadow" result="effect2_dropShadow"/>
<feBlend mode="normal" in="SourceGraphic" in2="effect2_dropShadow" result="shape"/>
</filter>
<filter id="filter2_dd" x="567.033" y="50.8987" width="176.617" height="119.173" filterUnits="userSpaceOnUse" color-interpolation-filters="sRGB">
<feFlood flood-opacity="0" result="BackgroundImageFix"/>
<feColorMatrix in="SourceAlpha" type="matrix" values="0 0 0 0 0 0 0 0 0 0 0 0 0 0 0 0 0 0 127 0"/>
<feOffset dx="-6.3228" dy="10.8391"/>
<feGaussianBlur stdDeviation="10.8391"/>
<feColorMatrix type="matrix" values="0 0 0 0 0.807747 0 0 0 0 0.838675 0 0 0 0 0.879913 0 0 0 0.38 0"/>
<feBlend mode="normal" in2="BackgroundImageFix" result="effect1_dropShadow"/>
<feColorMatrix in="SourceAlpha" type="matrix" values="0 0 0 0 0 0 0 0 0 0 0 0 0 0 0 0 0 0 127 0"/>
<feOffset dx="-0.903258" dy="2.70977"/>
<feGaussianBlur stdDeviation="2.70977"/>
<feColorMatrix type="matrix" values="0 0 0 0 0.355198 0 0 0 0 0.438609 0 0 0 0 0.545852 0 0 0 0.08 0"/>
<feBlend mode="normal" in2="effect1_dropShadow" result="effect2_dropShadow"/>
<feBlend mode="normal" in="SourceGraphic" in2="effect2_dropShadow" result="shape"/>
</filter>
<filter id="filter3_dd" x="133.923" y="222.067" width="274.972" height="164.154" filterUnits="userSpaceOnUse" color-interpolation-filters="sRGB">
<feFlood flood-opacity="0" result="BackgroundImageFix"/>
<feColorMatrix in="SourceAlpha" type="matrix" values="0 0 0 0 0 0 0 0 0 0 0 0 0 0 0 0 0 0 127 0"/>
<feOffset dx="-6.3228" dy="10.8391"/>
<feGaussianBlur stdDeviation="10.8391"/>
<feColorMatrix type="matrix" values="0 0 0 0 0.807747 0 0 0 0 0.838675 0 0 0 0 0.879913 0 0 0 0.38 0"/>
<feBlend mode="normal" in2="BackgroundImageFix" result="effect1_dropShadow"/>
<feColorMatrix in="SourceAlpha" type="matrix" values="0 0 0 0 0 0 0 0 0 0 0 0 0 0 0 0 0 0 127 0"/>
<feOffset dx="-0.903258" dy="2.70977"/>
<feGaussianBlur stdDeviation="2.70977"/>
<feColorMatrix type="matrix" values="0 0 0 0 0.355198 0 0 0 0 0.438609 0 0 0 0 0.545852 0 0 0 0.08 0"/>
<feBlend mode="normal" in2="effect1_dropShadow" result="effect2_dropShadow"/>
<feBlend mode="normal" in="SourceGraphic" in2="effect2_dropShadow" result="shape"/>
</filter>
<filter id="filter4_dd" x="348.296" y="0.160907" width="249.685" height="229.827" filterUnits="userSpaceOnUse" color-interpolation-filters="sRGB">
<feFlood flood-opacity="0" result="BackgroundImageFix"/>
<feColorMatrix in="SourceAlpha" type="matrix" values="0 0 0 0 0 0 0 0 0 0 0 0 0 0 0 0 0 0 127 0"/>
<feOffset dx="-6.3228" dy="10.8391"/>
<feGaussianBlur stdDeviation="10.8391"/>
<feColorMatrix type="matrix" values="0 0 0 0 0.807747 0 0 0 0 0.838675 0 0 0 0 0.879913 0 0 0 0.38 0"/>
<feBlend mode="normal" in2="BackgroundImageFix" result="effect1_dropShadow"/>
<feColorMatrix in="SourceAlpha" type="matrix" values="0 0 0 0 0 0 0 0 0 0 0 0 0 0 0 0 0 0 127 0"/>
<feOffset dx="-0.903258" dy="2.70977"/>
<feGaussianBlur stdDeviation="2.70977"/>
<feColorMatrix type="matrix" values="0 0 0 0 0.355198 0 0 0 0 0.438609 0 0 0 0 0.545852 0 0 0 0.08 0"/>
<feBlend mode="normal" in2="effect1_dropShadow" result="effect2_dropShadow"/>
<feBlend mode="normal" in="SourceGraphic" in2="effect2_dropShadow" result="shape"/>
</filter>
<filter id="filter5_dd" x="586.836" y="147.066" width="185.958" height="152.485" filterUnits="userSpaceOnUse" color-interpolation-filters="sRGB">
<feFlood flood-opacity="0" result="BackgroundImageFix"/>
<feColorMatrix in="SourceAlpha" type="matrix" values="0 0 0 0 0 0 0 0 0 0 0 0 0 0 0 0 0 0 127 0"/>
<feOffset dx="-6.3228" dy="10.8391"/>
<feGaussianBlur stdDeviation="10.8391"/>
<feColorMatrix type="matrix" values="0 0 0 0 0.807747 0 0 0 0 0.838675 0 0 0 0 0.879913 0 0 0 0.38 0"/>
<feBlend mode="normal" in2="BackgroundImageFix" result="effect1_dropShadow"/>
<feColorMatrix in="SourceAlpha" type="matrix" values="0 0 0 0 0 0 0 0 0 0 0 0 0 0 0 0 0 0 127 0"/>
<feOffset dx="-0.903258" dy="2.70977"/>
<feGaussianBlur stdDeviation="2.70977"/>
<feColorMatrix type="matrix" values="0 0 0 0 0.355198 0 0 0 0 0.438609 0 0 0 0 0.545852 0 0 0 0.08 0"/>
<feBlend mode="normal" in2="effect1_dropShadow" result="effect2_dropShadow"/>
<feBlend mode="normal" in="SourceGraphic" in2="effect2_dropShadow" result="shape"/>
</filter>
<linearGradient id="paint0_linear" x1="251.482" y1="96" x2="251.482" y2="415.921" gradientUnits="userSpaceOnUse">
<stop stop-color="#DEE3EA"/>
<stop offset="1" stop-color="#F6F8FB"/>
</linearGradient>
<linearGradient id="paint1_linear" x1="475.444" y1="204.645" x2="475.444" y2="353.088" gradientUnits="userSpaceOnUse">
<stop stop-color="#DEE3EA"/>
<stop offset="1" stop-color="#F6F8FB"/>
</linearGradient>
<linearGradient id="paint2_linear" x1="43.9852" y1="289.698" x2="43.9852" y2="429.329" gradientUnits="userSpaceOnUse">
<stop stop-color="#DEE3EA"/>
<stop offset="1" stop-color="#F6F8FB"/>
</linearGradient>
<linearGradient id="paint3_linear" x1="593.446" y1="161.587" x2="593.446" y2="339.874" gradientUnits="userSpaceOnUse">
<stop stop-color="#DEE3EA"/>
<stop offset="1" stop-color="#F6F8FB"/>
</linearGradient>
<linearGradient id="paint4_linear" x1="377.838" y1="360.96" x2="377.838" y2="509.579" gradientUnits="userSpaceOnUse">
<stop stop-color="#DEE3EA"/>
<stop offset="1" stop-color="#F6F8FB"/>
</linearGradient>
<linearGradient id="paint5_linear" x1="520.271" y1="49.4106" x2="514.729" y2="56.522" gradientUnits="userSpaceOnUse">
<stop stop-color="#E3EDFF"/>
<stop offset="1" stop-color="#E3EDFF" stop-opacity="0"/>
</linearGradient>
<linearGradient id="paint6_linear" x1="499.049" y1="83.1164" x2="481.887" y2="106.601" gradientUnits="userSpaceOnUse">
<stop stop-color="#E3EDFF"/>
<stop offset="1" stop-color="#E3EDFF" stop-opacity="0"/>
</linearGradient>
<linearGradient id="paint7_linear" x1="447.555" y1="76.4926" x2="426.42" y2="105.198" gradientUnits="userSpaceOnUse">
<stop stop-color="#E3EDFF"/>
<stop offset="1" stop-color="#E3EDFF" stop-opacity="0"/>
</linearGradient>
</defs>
</svg>
