<svg width="773" height="510" viewBox="0 0 773 510" fill="none" xmlns="http://www.w3.org/2000/svg"><g opacity=".5"><path d="M439.79 358.442l-324.505 57.441c-1.699.272-3.33-.953-3.602-2.791l-49.95-282.848c-1.97-11.298 4.961-20.826 15.427-21.302l304.253-12.931c7.883-.34 15.563 7.282 17.33 16.946l42.746 242.286c.34 1.566-.476 2.995-1.699 3.199z" fill="url(#paint0_linear)"/><path d="M506.118 346.736l-35.067 6.193c-7.476 1.293-14.951-5.444-16.65-15.109l-19.504-110.594c-1.699-9.664 3.058-18.171 10.601-18.92l35.543-3.607c7.204-.748 14.407 6.262 16.038 15.654l18.893 107.123c1.699 9.392-2.718 17.967-9.854 19.26z" fill="url(#paint1_linear)"/><path opacity=".2" d="M490.759 333.669c.612 3.403-1.019 6.533-3.67 7.01-2.65.476-5.233-1.974-5.844-5.377-.612-3.403 1.019-6.534 3.67-7.01 2.65-.476 5.233 1.906 5.844 5.377z" fill="#73849A"/><path d="M71.383 423.71l-29.902 5.308c-11.485 2.042-22.63-6.193-24.805-18.444l-16.31-92.49c-2.175-12.183 5.573-23.276 17.194-24.637l30.24-3.607c11.214-1.361 21.951 7.214 23.99 19.056l15.835 89.836c2.038 11.842-5.165 23.004-16.243 24.978z" fill="url(#paint2_linear)"/><path opacity=".2" d="M60.306 406.355c.747 4.151-1.835 8.098-5.777 8.779-3.941.681-7.747-2.178-8.495-6.397-.747-4.22 1.835-8.167 5.845-8.78 3.874-.68 7.68 2.178 8.427 6.398z" fill="#73849A"/><path d="M530.108 325.094L506.39 190.612c-1.631-9.324 2.718-17.355 9.718-17.899l128.919-11.094c6.048-.544 12.096 5.989 13.66 14.564l21.814 123.662c1.496 8.575-2.038 16.333-8.019 17.422l-126.948 22.459c-6.795 1.225-13.795-5.308-15.426-14.632z" fill="url(#paint3_linear)"/><path d="M116.712 420.17l328.922-59.21 183.49 46.279c8.087 2.042 17.669 12.931-.68 19.056l-286.855 80.036a88.015 88.015 0 01-62.794-5.921l-162.083-80.24z" fill="url(#paint4_linear)"/></g><g filter="url(#filter0_dd)"><path d="M230.466 211.362l-66.056 6.398c-8.087.816-15.902-5.581-17.466-14.224l-1.902-10.413c-1.563-8.643 3.805-16.198 11.892-16.81l66.261-5.241c7.611-.612 14.951 5.649 16.446 13.952l1.767 10.004c1.563 8.304-3.33 15.654-10.942 16.334z" fill="#97BDFF"/></g><path d="M360.472 183.05l-78.017 7.01c-2.379.204-4.757-1.838-5.233-4.56-.476-2.722 1.087-5.104 3.466-5.308l78.085-6.67c2.243-.204 4.418 1.769 4.893 4.424.476 2.586-.951 4.9-3.194 5.104z" fill="#CDDFFF"/><path d="M298.901 183.595c1.223 6.738-2.65 12.659-8.631 13.203-5.98.545-11.892-4.492-13.116-11.297-1.223-6.806 2.719-12.727 8.699-13.204 6.048-.476 11.825 4.56 13.048 11.298z" fill="#97BDFF"/><g filter="url(#filter1_dd)"><path d="M349.123 124.93l-196.538 12.318c-8.087.476-15.97-6.057-17.534-14.7l-5.64-31.307c-1.563-8.711 3.874-15.926 12.029-16.198l197.489-7.078c6.796-.272 13.388 5.921 14.815 13.748l5.097 28.312c1.359 7.759-2.922 14.496-9.718 14.905z" fill="#fff"/></g><g filter="url(#filter2_dd)"><path d="M719.445 129.327l-100.592 8.193c-7.408.613-14.951-6.942-16.718-16.878l-6.728-37.636c-1.767-9.869 2.922-18.172 10.398-18.444l101.611-2.817c6.388-.272 12.776 6.874 14.407 15.926l6.117 34.369c1.563 9.052-2.175 16.742-8.495 17.287z" fill="#fff"/></g><g filter="url(#filter3_dd)"><path d="M379.909 324.611l-183.286 28.856c-11.146 1.77-21.951-6.601-24.126-18.715l-10.194-56.556c-2.174-12.115 5.233-22.936 16.446-24.229l184.713-20.962c9.447-1.089 18.553 6.942 20.524 17.899l9.175 51.248c1.97 10.889-3.942 20.962-13.252 22.459z" fill="#fff"/></g><g filter="url(#filter4_dd)"><path d="M572.097 182.506l-149.918 14.905c-8.563.817-16.99-6.806-18.825-17.083l-26.708-148.91c-1.835-10.277 3.738-18.716 12.437-18.784L541.447 11c7.408-.069 14.748 7.486 16.447 16.878l24.397 136.252c1.631 9.46-2.854 17.627-10.194 18.375z" fill="#fff"/></g><g filter="url(#filter5_dd)"><path d="M749.252 236s-85.206 11.638-91.322 12.454c-2.039 12.455-8.224 17.627-14.408 18.58 1.088-4.968-.951-16.402-3.67-15.993-7.407 1.021-13.863-5.785-15.494-15.041l-9.175-51.384c-1.631-9.256 2.651-17.287 9.582-17.967l110.488-8.711c5.912-.545 11.893 5.853 13.388 14.36l8.427 46.96c1.563 8.439-1.971 15.925-7.816 16.742z" fill="#fff"/></g><path d="M640.124 124.929l-16.242 1.157c-6.048.409-12.165-5.717-13.592-13.816l-3.942-21.914c-1.427-8.099 2.311-14.837 8.427-15.109l16.311-.749c5.912-.272 11.892 5.921 13.32 13.816l3.873 21.506c1.359 7.895-2.242 14.701-8.155 15.109zm-88.483-4.492l-131.025 8.78c-7.407.476-14.815-6.33-16.378-15.313l-12.844-71.733c-1.631-8.916 3.194-16.334 10.737-16.402l132.181-2.246c6.524-.136 12.98 6.534 14.475 14.769l11.893 66.356c1.495 8.303-2.515 15.313-9.039 15.789z" fill="#F0F6FF"/><path opacity=".3" d="M274.436 32.167l-74.144 1.429c-3.805.068-7.611-3.267-8.359-7.418-.747-4.152 1.767-7.623 5.641-7.69l74.211-.954c3.602-.068 7.136 3.199 7.816 7.214.747 4.016-1.563 7.35-5.165 7.419z" fill="#97BDFF"/><path d="M138.586 29.58l-17.262.273c-1.359 0-2.718-1.158-2.922-2.587-.272-1.429.679-2.654 2.038-2.654l17.262-.272c1.359 0 2.651 1.157 2.922 2.518.204 1.497-.679 2.654-2.038 2.722zm-1.835-10.344l-17.262.204c-1.359 0-2.718-1.157-2.922-2.587-.272-1.429.679-2.586 2.039-2.654l17.261-.204c1.359 0 2.651 1.157 2.922 2.586.204 1.43-.679 2.587-2.038 2.655zm3.737 20.689l-17.261.34c-1.359 0-2.719-1.088-2.922-2.585-.272-1.43.679-2.655 2.038-2.655l17.262-.34c1.359 0 2.65 1.089 2.922 2.518.204 1.497-.679 2.654-2.039 2.722zm203.266-16.198c1.156 6.534-2.446 11.91-8.155 12.047-5.708.136-11.281-5.105-12.504-11.706-1.156-6.602 2.514-11.979 8.223-12.047 5.708 0 11.281 5.24 12.436 11.706z" fill="#97BDFF"/><path d="M532.001 50.95c1.155 6.534-2.446 11.91-8.155 12.047-5.709.136-11.281-5.105-12.504-11.706-1.156-6.602 2.514-11.978 8.223-12.046 5.708 0 11.281 5.24 12.436 11.706z" fill="url(#paint5_linear)"/><path d="M468.32 125.942l16.922-74.864 53.959 70.304-70.881 4.56z" fill="url(#paint6_linear)"/><path d="M415.448 127.439c-2.99-1.566-5.369-4.628-5.369-4.628l19.776-85.685 66.668 86.978-74.415 4.968c0 .068-3.194.272-6.66-1.633z" fill="url(#paint7_linear)"/><path d="M189.895 104.035c1.767 9.869-4.214 18.24-13.388 18.784-9.243.545-18.281-7.146-20.048-17.082-1.767-10.005 4.349-18.376 13.592-18.784 9.242-.477 18.077 7.214 19.844 17.082zm117.297-21.03l5.437 30.15 26.096-1.429-5.369-29.81-26.164 1.09zm-34.931 32.464l-19.368 1.089-19.708 1.089 14.135-32.123 24.941 29.945z" fill="#E3EDFF"/><path d="M433.392 261.249c-8.495 1.089-16.921-6.33-18.756-16.606-1.835-10.277 3.601-19.397 12.096-20.35 8.427-.952 16.718 6.466 18.553 16.606 1.835 10.141-3.466 19.261-11.893 20.35z" fill="#97BDFF"/><path d="M527.856 226.404l-66.532 7.962c-2.039.273-4.078-1.633-4.554-4.083-.475-2.518.884-4.764 2.923-4.968l66.6-7.623c1.902-.204 3.805 1.566 4.281 4.016.408 2.314-.816 4.423-2.718 4.696zm-25.485 21.234l-37.785 4.832c-2.039.272-4.078-1.565-4.554-4.084-.475-2.518.884-4.764 2.923-5.036l37.785-4.696c1.971-.272 3.942 1.566 4.349 4.016.476 2.518-.747 4.764-2.718 4.968z" fill="#CDDFFF"/><path d="M592.893 222.66c1.019 5.853-1.767 11.094-6.253 11.706-4.553.545-9.106-3.743-10.126-9.664-1.087-5.921 1.767-11.161 6.321-11.706 4.553-.544 9.038 3.811 10.058 9.664zm-149.579 94.056c-8.426 1.361-16.853-5.921-18.688-16.197-1.835-10.277 3.602-19.601 12.028-20.758 8.427-1.157 16.65 6.057 18.485 16.198 1.835 10.14-3.466 19.396-11.825 20.757z" fill="#97BDFF"/><path d="M550.214 277.311l-79.104 11.638c-2.039.272-4.078-1.497-4.554-4.015-.475-2.519.884-4.765 2.923-5.105l79.172-11.297c1.903-.273 3.738 1.497 4.214 3.879.407 2.382-.816 4.628-2.651 4.9zm-11.893 19.805l-63.949 10.004c-2.039.341-4.078-1.497-4.486-3.947-.475-2.518.884-4.832 2.855-5.104l63.949-9.664c1.903-.273 3.806 1.429 4.282 3.879.408 2.314-.748 4.56-2.651 4.832zm61.232-18.58l-15.563 2.382c-1.835.272-3.67-1.429-4.078-3.811-.407-2.382.748-4.492 2.515-4.764l15.562-2.314c1.767-.273 3.602 1.429 4.01 3.811.476 2.246-.612 4.424-2.446 4.696z" fill="#CDDFFF"/><path d="M591.465 275.337c.748 4.152-1.223 7.895-4.417 8.371-3.194.477-6.388-2.518-7.136-6.669-.747-4.152 1.223-7.895 4.418-8.372 3.262-.476 6.388 2.519 7.135 6.67zm109.546-90.688l-65.032 6.773c-1.699.204-3.466-1.565-3.874-3.811-.408-2.314.68-4.288 2.379-4.492l65.168-6.433c1.563-.136 3.126 1.497 3.534 3.675.34 2.246-.612 4.152-2.175 4.288zm-16.342 40.423l-41.623 5.823c-1.699.204-3.397-1.497-3.873-3.743-.408-2.314.679-4.356 2.378-4.56l41.691-5.483c1.563-.204 3.194 1.429 3.602 3.675.408 2.178-.544 4.084-2.175 4.288zm43.357-24.388l-88.513 10.475c-1.699.204-3.466-1.497-3.874-3.811-.408-2.314.679-4.288 2.378-4.492l88.582-9.93c1.495-.136 2.99 1.429 3.398 3.539.407 2.178-.476 4.083-1.971 4.219zm-406.902 66.282l-133.132 16.878c-2.651.341-5.233-1.701-5.709-4.559-.543-2.859 1.223-5.445 3.874-5.785l133.268-16.266c2.31-.272 4.621 1.633 5.097 4.356.475 2.654-1.088 5.036-3.398 5.376z" fill="#97BDFF"/><path d="M292.105 318.69l-95.346 14.156c-2.651.409-5.165-1.633-5.709-4.492-.544-2.858 1.223-5.512 3.874-5.853l95.414-13.747c2.379-.341 4.757 1.565 5.233 4.287.544 2.791-1.019 5.309-3.466 5.649zm74.755-34.369l-174.655 24.025c-2.514.34-5.029-1.634-5.504-4.356l-.068-.34c-.476-2.723 1.155-5.309 3.737-5.649l174.723-23.276c2.175-.272 4.35 1.565 4.758 4.083l.068.273c.475 2.654-.884 4.968-3.059 5.24z" fill="#CDDFFF"/><defs><linearGradient id="paint0_linear" x1="251.482" y1="96" x2="251.482" y2="415.921" gradientUnits="userSpaceOnUse"><stop stop-color="#DEE3EA"/><stop offset="1" stop-color="#F6F8FB"/></linearGradient><linearGradient id="paint1_linear" x1="475.444" y1="204.645" x2="475.444" y2="353.088" gradientUnits="userSpaceOnUse"><stop stop-color="#DEE3EA"/><stop offset="1" stop-color="#F6F8FB"/></linearGradient><linearGradient id="paint2_linear" x1="43.985" y1="289.698" x2="43.985" y2="429.329" gradientUnits="userSpaceOnUse"><stop stop-color="#DEE3EA"/><stop offset="1" stop-color="#F6F8FB"/></linearGradient><linearGradient id="paint3_linear" x1="593.446" y1="161.587" x2="593.446" y2="339.874" gradientUnits="userSpaceOnUse"><stop stop-color="#DEE3EA"/><stop offset="1" stop-color="#F6F8FB"/></linearGradient><linearGradient id="paint4_linear" x1="377.838" y1="360.96" x2="377.838" y2="509.579" gradientUnits="userSpaceOnUse"><stop stop-color="#DEE3EA"/><stop offset="1" stop-color="#F6F8FB"/></linearGradient><linearGradient id="paint5_linear" x1="520.271" y1="49.411" x2="514.729" y2="56.522" gradientUnits="userSpaceOnUse"><stop stop-color="#E3EDFF"/><stop offset="1" stop-color="#E3EDFF" stop-opacity="0"/></linearGradient><linearGradient id="paint6_linear" x1="499.049" y1="83.116" x2="481.887" y2="106.601" gradientUnits="userSpaceOnUse"><stop stop-color="#E3EDFF"/><stop offset="1" stop-color="#E3EDFF" stop-opacity="0"/></linearGradient><linearGradient id="paint7_linear" x1="447.555" y1="76.493" x2="426.42" y2="105.198" gradientUnits="userSpaceOnUse"><stop stop-color="#E3EDFF"/><stop offset="1" stop-color="#E3EDFF" stop-opacity="0"/></linearGradient><filter id="filter0_dd" x="116.77" y="160.192" width="140.284" height="90.156" filterUnits="userSpaceOnUse" color-interpolation-filters="sRGB"><feFlood flood-opacity="0" result="BackgroundImageFix"/><feColorMatrix in="SourceAlpha" values="0 0 0 0 0 0 0 0 0 0 0 0 0 0 0 0 0 0 127 0"/><feOffset dx="-6.323" dy="10.839"/><feGaussianBlur stdDeviation="10.839"/><feColorMatrix values="0 0 0 0 0.807747 0 0 0 0 0.838675 0 0 0 0 0.879913 0 0 0 0.38 0"/><feBlend in2="BackgroundImageFix" result="effect1_dropShadow"/><feColorMatrix in="SourceAlpha" values="0 0 0 0 0 0 0 0 0 0 0 0 0 0 0 0 0 0 127 0"/><feOffset dx="-.903" dy="2.71"/><feGaussianBlur stdDeviation="2.71"/><feColorMatrix values="0 0 0 0 0.355198 0 0 0 0 0.438609 0 0 0 0 0.545852 0 0 0 0.08 0"/><feBlend in2="effect1_dropShadow" result="effect2_dropShadow"/><feBlend in="SourceGraphic" in2="effect2_dropShadow" result="shape"/></filter><filter id="filter1_dd" x="101.142" y="57.117" width="273.306" height="112.672" filterUnits="userSpaceOnUse" color-interpolation-filters="sRGB"><feFlood flood-opacity="0" result="BackgroundImageFix"/><feColorMatrix in="SourceAlpha" values="0 0 0 0 0 0 0 0 0 0 0 0 0 0 0 0 0 0 127 0"/><feOffset dx="-6.323" dy="10.839"/><feGaussianBlur stdDeviation="10.839"/><feColorMatrix values="0 0 0 0 0.807747 0 0 0 0 0.838675 0 0 0 0 0.879913 0 0 0 0.38 0"/><feBlend in2="BackgroundImageFix" result="effect1_dropShadow"/><feColorMatrix in="SourceAlpha" values="0 0 0 0 0 0 0 0 0 0 0 0 0 0 0 0 0 0 127 0"/><feOffset dx="-.903" dy="2.71"/><feGaussianBlur stdDeviation="2.71"/><feColorMatrix values="0 0 0 0 0.355198 0 0 0 0 0.438609 0 0 0 0 0.545852 0 0 0 0.08 0"/><feBlend in2="effect1_dropShadow" result="effect2_dropShadow"/><feBlend in="SourceGraphic" in2="effect2_dropShadow" result="shape"/></filter><filter id="filter2_dd" x="567.033" y="50.899" width="176.617" height="119.173" filterUnits="userSpaceOnUse" color-interpolation-filters="sRGB"><feFlood flood-opacity="0" result="BackgroundImageFix"/><feColorMatrix in="SourceAlpha" values="0 0 0 0 0 0 0 0 0 0 0 0 0 0 0 0 0 0 127 0"/><feOffset dx="-6.323" dy="10.839"/><feGaussianBlur stdDeviation="10.839"/><feColorMatrix values="0 0 0 0 0.807747 0 0 0 0 0.838675 0 0 0 0 0.879913 0 0 0 0.38 0"/><feBlend in2="BackgroundImageFix" result="effect1_dropShadow"/><feColorMatrix in="SourceAlpha" values="0 0 0 0 0 0 0 0 0 0 0 0 0 0 0 0 0 0 127 0"/><feOffset dx="-.903" dy="2.71"/><feGaussianBlur stdDeviation="2.71"/><feColorMatrix values="0 0 0 0 0.355198 0 0 0 0 0.438609 0 0 0 0 0.545852 0 0 0 0.08 0"/><feBlend in2="effect1_dropShadow" result="effect2_dropShadow"/><feBlend in="SourceGraphic" in2="effect2_dropShadow" result="shape"/></filter><filter id="filter3_dd" x="133.923" y="222.067" width="274.972" height="164.154" filterUnits="userSpaceOnUse" color-interpolation-filters="sRGB"><feFlood flood-opacity="0" result="BackgroundImageFix"/><feColorMatrix in="SourceAlpha" values="0 0 0 0 0 0 0 0 0 0 0 0 0 0 0 0 0 0 127 0"/><feOffset dx="-6.323" dy="10.839"/><feGaussianBlur stdDeviation="10.839"/><feColorMatrix values="0 0 0 0 0.807747 0 0 0 0 0.838675 0 0 0 0 0.879913 0 0 0 0.38 0"/><feBlend in2="BackgroundImageFix" result="effect1_dropShadow"/><feColorMatrix in="SourceAlpha" values="0 0 0 0 0 0 0 0 0 0 0 0 0 0 0 0 0 0 127 0"/><feOffset dx="-.903" dy="2.71"/><feGaussianBlur stdDeviation="2.71"/><feColorMatrix values="0 0 0 0 0.355198 0 0 0 0 0.438609 0 0 0 0 0.545852 0 0 0 0.08 0"/><feBlend in2="effect1_dropShadow" result="effect2_dropShadow"/><feBlend in="SourceGraphic" in2="effect2_dropShadow" result="shape"/></filter><filter id="filter4_dd" x="348.296" y=".161" width="249.685" height="229.827" filterUnits="userSpaceOnUse" color-interpolation-filters="sRGB"><feFlood flood-opacity="0" result="BackgroundImageFix"/><feColorMatrix in="SourceAlpha" values="0 0 0 0 0 0 0 0 0 0 0 0 0 0 0 0 0 0 127 0"/><feOffset dx="-6.323" dy="10.839"/><feGaussianBlur stdDeviation="10.839"/><feColorMatrix values="0 0 0 0 0.807747 0 0 0 0 0.838675 0 0 0 0 0.879913 0 0 0 0.38 0"/><feBlend in2="BackgroundImageFix" result="effect1_dropShadow"/><feColorMatrix in="SourceAlpha" values="0 0 0 0 0 0 0 0 0 0 0 0 0 0 0 0 0 0 127 0"/><feOffset dx="-.903" dy="2.71"/><feGaussianBlur stdDeviation="2.71"/><feColorMatrix values="0 0 0 0 0.355198 0 0 0 0 0.438609 0 0 0 0 0.545852 0 0 0 0.08 0"/><feBlend in2="effect1_dropShadow" result="effect2_dropShadow"/><feBlend in="SourceGraphic" in2="effect2_dropShadow" result="shape"/></filter><filter id="filter5_dd" x="586.836" y="147.066" width="185.958" height="152.485" filterUnits="userSpaceOnUse" color-interpolation-filters="sRGB"><feFlood flood-opacity="0" result="BackgroundImageFix"/><feColorMatrix in="SourceAlpha" values="0 0 0 0 0 0 0 0 0 0 0 0 0 0 0 0 0 0 127 0"/><feOffset dx="-6.323" dy="10.839"/><feGaussianBlur stdDeviation="10.839"/><feColorMatrix values="0 0 0 0 0.807747 0 0 0 0 0.838675 0 0 0 0 0.879913 0 0 0 0.38 0"/><feBlend in2="BackgroundImageFix" result="effect1_dropShadow"/><feColorMatrix in="SourceAlpha" values="0 0 0 0 0 0 0 0 0 0 0 0 0 0 0 0 0 0 127 0"/><feOffset dx="-.903" dy="2.71"/><feGaussianBlur stdDeviation="2.71"/><feColorMatrix values="0 0 0 0 0.355198 0 0 0 0 0.438609 0 0 0 0 0.545852 0 0 0 0.08 0"/><feBlend in2="effect1_dropShadow" result="effect2_dropShadow"/><feBlend in="SourceGraphic" in2="effect2_dropShadow" result="shape"/></filter></defs></svg>