<svg width="419" height="476" viewBox="0 0 419 476" fill="none" xmlns="http://www.w3.org/2000/svg"><path d="M335.368 156.4h-4.53v-17.7h-3.54l-5.28 1.47v2.85h4.44v13.38h-4.53v3.6h13.44v-3.6zm9.301 4.05c5.19 0 7.74-4.65 7.74-11.1 0-6.45-2.55-11.1-7.74-11.1s-7.74 4.65-7.74 11.1c0 6.45 2.55 11.1 7.74 11.1zm0-18.06c2.22 0 3.3 2.13 3.3 6.96s-1.08 6.96-3.3 6.96c-2.22 0-3.3-2.13-3.3-6.96s1.08-6.96 3.3-6.96zm16.561 18.06c5.19 0 7.74-4.65 7.74-11.1 0-6.45-2.55-11.1-7.74-11.1s-7.74 4.65-7.74 11.1c0 6.45 2.55 11.1 7.74 11.1zm0-18.06c2.22 0 3.3 2.13 3.3 6.96s-1.08 6.96-3.3 6.96c-2.22 0-3.3-2.13-3.3-6.96s1.08-6.96 3.3-6.96zm14.551 1.89v5.85h-5.85v4.02h5.85V160h4.02v-5.85h5.85v-4.02h-5.85v-5.85h-4.02z" fill="#3880FF"/><path d="M317.974 176.909V190h1.483v-9.946h.128l4.091 9.946h1.432l4.091-9.946h.127V190h1.483v-13.091h-1.892l-4.449 10.867h-.153l-4.449-10.867h-1.892zm19.97 13.296c1.994 0 3.452-.998 3.912-2.481l-1.457-.409c-.384 1.023-1.272 1.534-2.455 1.534-1.771 0-2.991-1.144-3.062-3.247h7.127v-.639c0-3.656-2.173-4.909-4.218-4.909-2.659 0-4.424 2.097-4.424 5.114s1.739 5.037 4.577 5.037zm-3.062-5.907c.103-1.527 1.183-2.889 2.909-2.889 1.636 0 2.684 1.227 2.684 2.889h-5.593zm13.179 5.907c1.994 0 3.451-.998 3.912-2.481l-1.458-.409c-.383 1.023-1.272 1.534-2.454 1.534-1.771 0-2.992-1.144-3.062-3.247h7.127v-.639c0-3.656-2.173-4.909-4.219-4.909-2.659 0-4.423 2.097-4.423 5.114s1.739 5.037 4.577 5.037zm-3.062-5.907c.102-1.527 1.182-2.889 2.908-2.889 1.637 0 2.685 1.227 2.685 2.889h-5.593zm13.332-4.116h-2.097v-2.352h-1.509v2.352h-1.483v1.278h1.483v6.137c0 1.713 1.381 2.531 2.66 2.531.562 0 .92-.102 1.125-.179l-.307-1.355c-.128.025-.333.076-.665.076-.665 0-1.304-.204-1.304-1.482v-5.728h2.097v-1.278zm8.096 5.804c0 1.841-1.406 2.684-2.531 2.684-1.253 0-2.148-.92-2.148-2.352v-6.136h-1.508v6.238c0 2.506 1.329 3.708 3.17 3.708 1.483 0 2.455-.793 2.915-1.79h.102V190h1.509v-9.818h-1.509v5.804zm3.912 7.696h1.508v-5.191h.128c.332.537.972 1.714 2.864 1.714 2.454 0 4.167-1.969 4.167-5.089 0-3.093-1.713-5.062-4.193-5.062-1.917 0-2.506 1.176-2.838 1.687h-.179v-1.559h-1.457v13.5zm1.483-8.591c0-2.199.971-3.682 2.812-3.682 1.918 0 2.864 1.611 2.864 3.682 0 2.097-.972 3.758-2.864 3.758-1.815 0-2.812-1.534-2.812-3.758zm16.08-2.71c-.473-1.394-1.534-2.327-3.477-2.327-2.071 0-3.605 1.176-3.605 2.838 0 1.355.805 2.263 2.608 2.685l1.636.383c.991.23 1.457.703 1.457 1.381 0 .844-.895 1.534-2.301 1.534-1.233 0-2.007-.531-2.275-1.585l-1.432.358c.351 1.668 1.726 2.557 3.733 2.557 2.282 0 3.835-1.247 3.835-2.941 0-1.368-.857-2.231-2.608-2.659l-1.457-.358c-1.164-.287-1.688-.677-1.688-1.432 0-.843.895-1.457 2.097-1.457 1.317 0 1.86.729 2.122 1.406l1.355-.383z" fill="#639CFF"/><g filter="url(#filter0_dd)"><circle cx="352" cy="58" r="54" fill="#fff"/></g><path d="M377.793 54.109a6.486 6.486 0 00-4.796-6.278c.032-.354.048-.713.048-1.075 0-6.522-5.246-11.81-11.717-11.81-1.489 0-2.913.28-4.223.79a12.898 12.898 0 00-7.399-2.32c-5.655 0-10.469 3.631-12.271 8.706-4.439.6-7.862 4.431-7.862 9.07 0 1.79.51 3.46 1.392 4.87a9.631 9.631 0 00-3.086 7.084c0 4.81 3.503 8.797 8.078 9.51v.027c0 5.655 4.549 10.24 10.161 10.24 2.457 0 4.71-.879 6.467-2.341a7.561 7.561 0 005.316 2.179c3.615 0 6.642-2.538 7.422-5.942l.196.001c6.407 0 11.602-5.235 11.602-11.692 0-2.203-.605-4.264-1.656-6.023a6.499 6.499 0 002.328-4.996zm-10.791 14.77a1.71 1.71 0 01-1.53 1.188c-.73.042-1.58.089-1.848.098-2.054.067-4.094-.45-5.511-2.185-1.285-1.572-1.627-3.395-.841-5.288.861-2.075 1.854-4.093 2.789-6.138.486-1.065.977-2.128 1.45-3.2a1.8 1.8 0 00.131-.644c.018-.399.099-.836-.358-1.077-.467-.245-1.02-.202-1.364.237a11.091 11.091 0 00-1.13 1.768c-1.061 2.05-2.086 4.12-3.122 6.185-.775 1.548-1.537 3.104-2.319 4.648-.742 1.464-2.136 2.022-3.648 1.452-.508-.194-.827-.57-.914-1.147-.121-.816.145-1.548.431-2.278.628-1.6 1.263-3.195 1.891-4.795.336-.858.672-1.716.987-2.581.222-.604.287-1.247.03-1.841-.2-.459-.592-.79-1.142-.74-.602.054-1.075.37-1.302.933-.798 1.985-1.564 3.984-2.348 5.975-.938 2.381-1.862 4.77-2.84 7.136-.362.874-.908 1.672-1.826 2.045-.466.19-.992.307-1.493.315-1.563.02-2.911-.504-3.833-1.843-.735-1.059-.913-2.242-.559-3.495.329-1.158.656-2.317 1-3.47.326-1.093.671-2.183 1.009-3.272.315-1.015.61-2.038.952-3.043.673-1.981 1.215-4.02 2.28-5.837.728-1.243 1.91-1.915 3.264-2.332 1.415-.434 2.622.112 3.83.718.459.23.91.475 1.381.675.657.277 1.255.101 1.785-.334.434-.355.871-.712 1.271-1.105.999-.983 3.157-1.165 4.212-.021.243.263.53.484.797.724.553.49.78.542 1.419.177 1.52-.864 3.094-.744 4.64-.191.896.32 1.435 1.09 1.777 2 .505 1.34.293 2.633-.212 3.894-.93 2.318-1.943 4.6-2.85 6.925a41.754 41.754 0 00-1.379 4.229 3.846 3.846 0 00-.012 1.859c.222.886 1.186 1.177 2.001 1.28l.037.005 1.548.143c1.091.101 1.807 1.197 1.469 2.247z" fill="#3075FF"/><path d="M367.002 68.878a1.711 1.711 0 01-1.53 1.19c-.73.04-1.58.088-1.848.097-2.054.067-4.094-.45-5.511-2.185-1.285-1.572-1.627-3.395-.841-5.288.861-2.075 1.854-4.093 2.789-6.138.486-1.065.977-2.128 1.45-3.2a1.8 1.8 0 00.131-.644c.018-.399.099-.836-.358-1.077-.467-.245-1.02-.202-1.364.237a11.092 11.092 0 00-1.13 1.768c-1.061 2.05-2.086 4.12-3.122 6.185-.775 1.548-1.537 3.104-2.319 4.648-.742 1.464-2.136 2.022-3.648 1.452-.508-.194-.827-.57-.914-1.147-.121-.816.145-1.548.431-2.278.628-1.6 1.263-3.196 1.891-4.795.336-.858.672-1.716.987-2.581.222-.605.287-1.247.03-1.841-.2-.459-.592-.79-1.142-.74-.602.054-1.075.37-1.302.933-.798 1.985-1.564 3.984-2.348 5.974-.938 2.382-1.862 4.771-2.84 7.137-.362.874-.908 1.672-1.826 2.045-.466.19-.992.307-1.493.315-1.563.02-2.911-.505-3.833-1.843-.735-1.059-.913-2.242-.559-3.495.329-1.159.656-2.318 1-3.47.326-1.093.671-2.183 1.009-3.272.315-1.015.61-2.038.952-3.043.673-1.981 1.215-4.02 2.28-5.837.728-1.243 1.91-1.915 3.264-2.332 1.415-.434 2.622.112 3.83.718.459.23.91.475 1.381.674.657.278 1.255.102 1.785-.333.434-.355.871-.712 1.271-1.105.999-.983 3.157-1.165 4.212-.022.243.264.53.485.797.725.553.49.78.542 1.419.177 1.52-.864 3.094-.744 4.64-.191.896.32 1.435 1.09 1.777 2 .505 1.34.293 2.633-.212 3.894-.93 2.318-1.943 4.6-2.85 6.925a41.744 41.744 0 00-1.379 4.229 3.846 3.846 0 00-.012 1.859c.222.885 1.186 1.177 2.001 1.28l.037.005 1.548.143c1.091.101 1.807 1.196 1.469 2.247z" fill="#9DCDFF"/><path d="M325.179 402.15h3.96s.81-1.71 2.97-1.71c2.01 0 3.27 1.38 3.27 3.51s-1.26 3.51-3.27 3.51c-1.77 0-2.76-1.2-3-2.43h-4.41c.3 3.87 3.15 6.42 7.41 6.42 4.62 0 7.65-3.18 7.65-7.5 0-3.33-1.65-7.26-6.72-7.26-1.47 0-2.79.63-3.39 1.23l.6-4.2h8.31v-4.02h-11.61l-1.77 12.45zm21.031-12.45h-4.02V411h4.2v-14.52l6 7.71h.12l6-7.71V411h4.2v-21.3h-4.02l-6.24 8.25-6.24-8.25zm24.57 5.58v5.85h-5.85v4.02h5.85V411h4.02v-5.85h5.85v-4.02h-5.85v-5.85h-4.02z" fill="#3880FF"/><path d="M311.761 441c3.989 0 6.239-2.48 6.239-6.571 0-4.065-2.25-6.52-6.06-6.52h-4.219V441h4.04zm-2.455-1.406v-10.279h2.532c3.068 0 4.627 1.944 4.627 5.114 0 3.196-1.559 5.165-4.806 5.165h-2.353zm14.905 1.611c1.994 0 3.451-.998 3.912-2.481l-1.458-.409c-.383 1.023-1.272 1.534-2.454 1.534-1.771 0-2.992-1.144-3.062-3.247h7.127v-.639c0-3.656-2.173-4.909-4.219-4.909-2.659 0-4.423 2.097-4.423 5.114s1.739 5.037 4.577 5.037zm-3.062-5.907c.102-1.527 1.182-2.889 2.908-2.889 1.637 0 2.685 1.227 2.685 2.889h-5.593zm17.09-4.116h-1.636l-2.711 7.824h-.102l-2.71-7.824h-1.636l3.63 9.818h1.534l3.631-9.818zm5.396 10.023c1.994 0 3.452-.998 3.912-2.481l-1.457-.409c-.384 1.023-1.272 1.534-2.455 1.534-1.77 0-2.991-1.144-3.062-3.247h7.127v-.639c0-3.656-2.173-4.909-4.218-4.909-2.659 0-4.424 2.097-4.424 5.114s1.739 5.037 4.577 5.037zm-3.062-5.907c.103-1.527 1.183-2.889 2.909-2.889 1.636 0 2.684 1.227 2.684 2.889h-5.593zm10.571-7.389h-1.509V441h1.509v-13.091zm6.391 13.296c2.659 0 4.449-2.02 4.449-5.063 0-3.068-1.79-5.088-4.449-5.088s-4.449 2.02-4.449 5.088c0 3.043 1.79 5.063 4.449 5.063zm0-1.356c-2.02 0-2.94-1.738-2.94-3.707 0-1.969.92-3.733 2.94-3.733s2.941 1.764 2.941 3.733-.921 3.707-2.941 3.707zm6.392 4.833h1.508v-5.191h.128c.333.537.972 1.714 2.864 1.714 2.454 0 4.168-1.969 4.168-5.089 0-3.093-1.714-5.062-4.194-5.062-1.917 0-2.505 1.176-2.838 1.687h-.179v-1.559h-1.457v13.5zm1.483-8.591c0-2.199.971-3.682 2.812-3.682 1.918 0 2.864 1.611 2.864 3.682 0 2.097-.972 3.758-2.864 3.758-1.815 0-2.812-1.534-2.812-3.758zm13.242 5.114c1.994 0 3.452-.998 3.912-2.481l-1.457-.409c-.384 1.023-1.272 1.534-2.455 1.534-1.77 0-2.991-1.144-3.062-3.247h7.127v-.639c0-3.656-2.173-4.909-4.218-4.909-2.659 0-4.424 2.097-4.424 5.114s1.739 5.037 4.577 5.037zm-3.062-5.907c.103-1.527 1.183-2.889 2.909-2.889 1.636 0 2.684 1.227 2.684 2.889h-5.593zm9.062 5.702h1.509v-6.213c0-1.323 1.048-2.301 2.48-2.301.377 0 .658.07.869.179l.512-1.279c-.307-.217-.71-.358-1.253-.358-1.189 0-2.206.665-2.557 1.637h-.102v-1.483h-1.458V441zm13.503-7.619c-.473-1.394-1.534-2.327-3.477-2.327-2.071 0-3.605 1.176-3.605 2.838 0 1.355.805 2.263 2.608 2.685l1.636.383c.991.23 1.457.703 1.457 1.381 0 .844-.895 1.534-2.301 1.534-1.233 0-2.007-.531-2.275-1.585l-1.432.358c.351 1.668 1.726 2.557 3.733 2.557 2.282 0 3.835-1.247 3.835-2.941 0-1.368-.857-2.231-2.608-2.659l-1.457-.358c-1.164-.287-1.688-.677-1.688-1.432 0-.843.895-1.457 2.097-1.457 1.316 0 1.86.729 2.122 1.406l1.355-.383z" fill="#639CFF"/><g filter="url(#filter1_dd)"><circle cx="352" cy="313" r="54" fill="#fff"/></g><mask id="a" maskUnits="userSpaceOnUse" x="298" y="261" width="108" height="108"><circle cx="352" cy="315" r="54" fill="#fff"/></mask><g mask="url(#a)"><circle cx="376.999" cy="318.973" r="13.872" fill="#5DABFF"/><path fill-rule="evenodd" clip-rule="evenodd" d="M403 353.677v14.617h-25.846l-.256.001-.256-.001h-25.846v-15.279h.024c.595-7.791 12.043-14.005 26.078-14.005s25.483 6.214 26.078 14.005H403v.662z" fill="#3075FF"/><mask id="b" maskUnits="userSpaceOnUse" x="303.18" y="329.927" width="75" height="48" fill="#000"><path fill="#fff" d="M303.18 329.927h75v48h-75z"/><path fill-rule="evenodd" clip-rule="evenodd" d="M372.375 353.653c0-9.79-14.147-17.726-31.598-17.726-17.45 0-31.597 7.936-31.597 17.726v18.496h63.195v-18.496z"/></mask><path fill-rule="evenodd" clip-rule="evenodd" d="M372.375 353.653c0-9.79-14.147-17.726-31.598-17.726-17.45 0-31.597 7.936-31.597 17.726v18.496h63.195v-18.496z" fill="#5DABFF"/><path d="M309.18 372.149h-5.583v5.583h5.583v-5.583zm63.195 0v5.583h5.583v-5.583h-5.583zm-5.584-18.496h11.167-11.167zm-26.014-12.142c7.951 0 14.873 1.82 19.611 4.478 4.916 2.758 6.403 5.69 6.403 7.664h11.167c0-7.816-5.587-13.746-12.106-17.403-6.698-3.758-15.574-5.906-25.075-5.906v11.167zm-26.013 12.142c0-1.974 1.486-4.906 6.403-7.664 4.738-2.658 11.66-4.478 19.61-4.478v-11.167c-9.5 0-18.376 2.148-25.074 5.906-6.519 3.657-12.106 9.587-12.106 17.403h11.167zm0 0h-11.167 11.167zm0 18.496v-18.496h-11.167v18.496h11.167zm57.611-5.583H309.18v11.166h63.195v-11.166zm-5.584-12.913v18.496h11.167v-18.496h-11.167z" fill="#fff" mask="url(#b)"/><circle cx="339.236" cy="310.495" r="17.725" fill="#9DCDFF"/></g><path d="M57.928 401.91h1.92c2.34 0 3.27 1.2 3.27 2.82 0 1.62-1.23 2.79-3.18 2.79-2.13 0-3.18-1.29-3.27-3h-4.26c.15 4.2 3.18 6.93 7.53 6.93 4.47 0 7.53-3 7.53-6.72 0-2.16-.93-3.9-3.12-4.74 2.01-.87 2.88-2.58 2.88-4.47 0-3.72-2.73-6.27-7.11-6.27-4.35 0-7.26 3.06-7.26 6.93h4.26c0-1.47.87-3 3-3 1.95 0 2.88 1.17 2.88 2.61 0 1.47-.96 2.49-3.09 2.49h-1.98v3.63zm18.571 9.54c5.19 0 7.74-4.65 7.74-11.1 0-6.45-2.55-11.1-7.74-11.1s-7.74 4.65-7.74 11.1c0 6.45 2.55 11.1 7.74 11.1zm0-18.06c2.22 0 3.3 2.13 3.3 6.96s-1.08 6.96-3.3 6.96c-2.22 0-3.3-2.13-3.3-6.96s1.08-6.96 3.3-6.96zM105.66 411l-8.43-12.45 8.1-8.85h-5.7c-7.08 8.49-8.67 10.14-8.67 10.14V389.7h-4.38V411h4.38v-5.61l3.24-3.54 6.06 9.15h5.4zm5.291-15.72v5.85h-5.85v4.02h5.85V411h4.02v-5.85h5.85v-4.02h-5.85v-5.85h-4.02z" fill="#3880FF"/><path d="M32.252 431.182h1.534c-.07-1.975-1.892-3.452-4.424-3.452-2.505 0-4.474 1.458-4.474 3.656 0 1.765 1.278 2.813 3.324 3.401l1.61.46c1.381.384 2.609.869 2.609 2.173 0 1.432-1.381 2.378-3.196 2.378-1.56 0-2.94-.69-3.069-2.173H24.53c.153 2.148 1.892 3.605 4.705 3.605 3.017 0 4.73-1.662 4.73-3.784 0-2.455-2.327-3.247-3.682-3.605l-1.33-.358c-.971-.256-2.53-.767-2.53-2.173 0-1.253 1.15-2.174 2.888-2.174 1.585 0 2.787.755 2.94 2.046zm8.024 0H38.18v-2.352h-1.51v2.352h-1.483v1.278h1.483v6.137c0 1.713 1.381 2.531 2.66 2.531.562 0 .92-.102 1.124-.179l-.306-1.355c-.128.025-.333.076-.665.076-.665 0-1.304-.204-1.304-1.482v-5.728h2.096v-1.278zm4.799 10.048c1.713 0 2.608-.92 2.914-1.56h.077V441h1.509v-6.469c0-3.119-2.378-3.477-3.63-3.477-1.484 0-3.171.511-3.938 2.301l1.431.511c.333-.715 1.119-1.482 2.557-1.482 1.387 0 2.071.735 2.071 1.994v.051c0 .729-.741.665-2.531.895-1.822.236-3.81.639-3.81 2.889 0 1.918 1.483 3.017 3.35 3.017zm.23-1.355c-1.202 0-2.071-.537-2.071-1.585 0-1.151 1.048-1.509 2.224-1.662.64-.077 2.353-.256 2.608-.563v1.381c0 1.227-.971 2.429-2.761 2.429zm10.652 1.33c2.173 0 3.605-1.33 3.86-3.069H58.31c-.281 1.074-1.176 1.713-2.352 1.713-1.79 0-2.94-1.483-2.94-3.758 0-2.225 1.176-3.682 2.94-3.682 1.33 0 2.122.818 2.352 1.713h1.509c-.256-1.841-1.816-3.068-3.887-3.068-2.659 0-4.423 2.097-4.423 5.088 0 2.94 1.687 5.063 4.449 5.063zm5.706-.205h1.508v-3.675l1.055-.978L67.901 441h1.918l-4.455-5.625 4.148-4.193h-1.866l-4.296 4.372h-.179v-7.645h-1.508V441zm25.383-6.545c0-4.143-2.429-6.725-5.778-6.725-3.35 0-5.778 2.582-5.778 6.725 0 4.142 2.428 6.724 5.778 6.724 3.35 0 5.778-2.582 5.778-6.724zm-1.534 0c0 3.4-1.866 5.241-4.244 5.241-2.378 0-4.244-1.841-4.244-5.241 0-3.401 1.866-5.242 4.244-5.242 2.378 0 4.244 1.841 4.244 5.242zm11.664-3.273h-1.637l-2.71 7.824h-.102l-2.71-7.824H88.38L92.01 441h1.535l3.63-9.818zm5.396 10.023c1.994 0 3.451-.998 3.912-2.481l-1.458-.409c-.383 1.023-1.272 1.534-2.454 1.534-1.771 0-2.992-1.144-3.062-3.247h7.127v-.639c0-3.656-2.173-4.909-4.219-4.909-2.659 0-4.423 2.097-4.423 5.114s1.739 5.037 4.577 5.037zm-3.062-5.907c.102-1.527 1.182-2.889 2.908-2.889 1.637 0 2.685 1.227 2.685 2.889H99.51zm9.062 5.702h1.508v-6.213c0-1.33 1.049-2.301 2.48-2.301.403 0 .819.076.921.102v-1.534a14.28 14.28 0 00-.793-.026c-1.176 0-2.199.665-2.557 1.637h-.102v-1.483h-1.457V441zm11.324-9.818h-2.198v-.997c0-.972.409-1.483 1.406-1.483.435 0 .69.102.844.153l.434-1.304c-.23-.102-.69-.256-1.432-.256-1.406 0-2.761.844-2.761 2.532v1.355h-1.585v1.278h1.585V441h1.509v-8.54h2.198v-1.278zm3.263-3.273h-1.508V441h1.508v-13.091zm6.392 13.296c2.659 0 4.449-2.02 4.449-5.063 0-3.068-1.79-5.088-4.449-5.088s-4.449 2.02-4.449 5.088c0 3.043 1.79 5.063 4.449 5.063zm0-1.356c-2.02 0-2.941-1.738-2.941-3.707 0-1.969.921-3.733 2.941-3.733 2.02 0 2.94 1.764 2.94 3.733s-.92 3.707-2.94 3.707zm8.282 1.151h1.483l2.147-7.543h.154l2.148 7.543h1.483l2.991-9.818h-1.585l-2.122 7.491h-.103l-2.071-7.491h-1.61l-2.097 7.517h-.102l-2.122-7.517h-1.586l2.992 9.818zm-80.35 19.455c0-4.143-2.429-6.725-5.778-6.725-3.35 0-5.779 2.582-5.779 6.725 0 4.142 2.43 6.724 5.779 6.724.856 0 1.649-.166 2.358-.486l1.145 1.534h1.738l-1.706-2.269c1.393-1.144 2.243-3.049 2.243-5.503zm-6.29 2.454l1.944 2.544a4.23 4.23 0 01-1.432.243c-2.378 0-4.245-1.841-4.245-5.241 0-3.401 1.867-5.242 4.245-5.242s4.244 1.841 4.244 5.242c0 1.975-.626 3.419-1.624 4.289l-1.393-1.835h-1.739zm14.579.077c0 1.841-1.407 2.684-2.532 2.684-1.253 0-2.147-.92-2.147-2.352v-6.136h-1.509v6.238c0 2.506 1.33 3.708 3.17 3.708 1.483 0 2.455-.793 2.915-1.79h.103V467h1.508v-9.818h-1.508v5.804zm8.027 4.219c1.995 0 3.452-.998 3.912-2.481l-1.457-.409c-.383 1.023-1.272 1.534-2.455 1.534-1.77 0-2.991-1.144-3.061-3.247h7.127v-.639c0-3.656-2.173-4.909-4.219-4.909-2.659 0-4.423 2.097-4.423 5.114s1.738 5.037 4.576 5.037zm-3.061-5.907c.102-1.527 1.182-2.889 2.908-2.889 1.636 0 2.685 1.227 2.685 2.889h-5.593zm16.016-1.917c-.473-1.394-1.534-2.327-3.477-2.327-2.071 0-3.605 1.176-3.605 2.838 0 1.355.805 2.263 2.608 2.685l1.636.383c.99.23 1.457.703 1.457 1.381 0 .844-.894 1.534-2.3 1.534-1.234 0-2.008-.531-2.276-1.585l-1.432.358c.352 1.668 1.726 2.557 3.733 2.557 2.282 0 3.835-1.247 3.835-2.941 0-1.368-.856-2.231-2.608-2.659l-1.457-.358c-1.164-.287-1.688-.677-1.688-1.432 0-.843.895-1.457 2.097-1.457 1.317 0 1.86.729 2.122 1.406l1.355-.383zm6.36-2.199h-2.097v-2.352H89.51v2.352h-1.483v1.278h1.483v6.137c0 1.713 1.38 2.531 2.659 2.531.562 0 .92-.102 1.125-.179l-.307-1.355c-.128.025-.333.076-.665.076-.665 0-1.304-.204-1.304-1.482v-5.728h2.097v-1.278zM95.023 467h1.508v-9.818h-1.508V467zm.767-11.455c.588 0 1.074-.46 1.074-1.022 0-.563-.486-1.023-1.074-1.023-.588 0-1.074.46-1.074 1.023 0 .562.486 1.022 1.074 1.022zm7.133 11.66c2.659 0 4.449-2.02 4.449-5.063 0-3.068-1.79-5.088-4.449-5.088s-4.449 2.02-4.449 5.088c0 3.043 1.79 5.063 4.449 5.063zm0-1.356c-2.02 0-2.94-1.738-2.94-3.707 0-1.969.92-3.733 2.94-3.733s2.94 1.764 2.94 3.733-.92 3.707-2.94 3.707zm7.9-4.755c0-1.713 1.061-2.685 2.506-2.685 1.4 0 2.25.914 2.25 2.455V467h1.508v-6.239c0-2.505-1.336-3.707-3.323-3.707-1.483 0-2.404.665-2.864 1.662h-.128v-1.534h-1.457V467h1.508v-5.906zm15.616-1.713c-.473-1.394-1.535-2.327-3.478-2.327-2.071 0-3.605 1.176-3.605 2.838 0 1.355.806 2.263 2.608 2.685l1.636.383c.991.23 1.458.703 1.458 1.381 0 .844-.895 1.534-2.301 1.534-1.234 0-2.007-.531-2.276-1.585l-1.432.358c.352 1.668 1.726 2.557 3.733 2.557 2.282 0 3.835-1.247 3.835-2.941 0-1.368-.856-2.231-2.607-2.659l-1.458-.358c-1.163-.287-1.687-.677-1.687-1.432 0-.843.895-1.457 2.096-1.457 1.317 0 1.86.729 2.122 1.406l1.356-.383z" fill="#639CFF"/><g filter="url(#filter2_dd)"><circle cx="86" cy="313" r="54" fill="#fff"/></g><path d="M99.233 332.717v-13.534h4.492v18.025H63.183v-18.025h4.492v13.534h31.558z" fill="#3075FF"/><path d="M72.167 328.167h22.516v-4.492H72.167v4.492z" fill="#3075FF"/><path d="M72.633 317.9l22.05 4.608.934-4.433-22.05-4.608-.934 4.433z" fill="#5DABFF"/><path d="M75.55 307.4l20.417 9.508 1.866-4.083-20.416-9.567-1.867 4.142z" fill="#63AEFF"/><path d="M81.208 297.367l17.325 14.408 2.859-3.441-17.325-14.409-2.859 3.442z" fill="#99CAFF"/><path d="M92.408 286.692l-3.616 2.683 13.416 18.083 3.617-2.683-13.417-18.083z" fill="#9DCDFF"/><path d="M59.18 151.15h3.96s.81-1.71 2.97-1.71c2.01 0 3.27 1.38 3.27 3.51s-1.26 3.51-3.27 3.51c-1.77 0-2.76-1.2-3-2.43H58.7c.3 3.87 3.15 6.42 7.41 6.42 4.62 0 7.65-3.18 7.65-7.5 0-3.33-1.65-7.26-6.72-7.26-1.47 0-2.79.63-3.39 1.23l.6-4.2h8.31v-4.02H60.95l-1.77 12.45zm21.03-12.45h-4.02V160h4.2v-14.52l6 7.71h.12l6-7.71V160h4.2v-21.3h-4.02l-6.24 8.25-6.24-8.25zm24.57 5.58v5.85h-5.85v4.02h5.85V160h4.02v-5.85h5.85v-4.02h-5.85v-5.85h-4.02z" fill="#3880FF"/><path d="M33.312 190l1.316-3.707h5.293L41.238 190H42.9l-4.807-13.091h-1.637L31.65 190h1.663zm1.815-5.114l2.096-5.906h.103l2.096 5.906h-4.295zm9.247 8.796h1.509v-5.191h.127c.333.537.972 1.714 2.864 1.714 2.455 0 4.168-1.969 4.168-5.089 0-3.093-1.713-5.062-4.194-5.062-1.917 0-2.505 1.176-2.838 1.687h-.179v-1.559h-1.457v13.5zm1.483-8.591c0-2.199.972-3.682 2.813-3.682 1.917 0 2.863 1.611 2.863 3.682 0 2.097-.971 3.758-2.864 3.758-1.815 0-2.812-1.534-2.812-3.758zm9.126 8.591h1.508v-5.191h.128c.333.537.972 1.714 2.864 1.714 2.454 0 4.167-1.969 4.167-5.089 0-3.093-1.713-5.062-4.193-5.062-1.917 0-2.505 1.176-2.838 1.687h-.179v-1.559h-1.457v13.5zm1.483-8.591c0-2.199.971-3.682 2.812-3.682 1.918 0 2.864 1.611 2.864 3.682 0 2.097-.972 3.758-2.864 3.758-1.815 0-2.812-1.534-2.812-3.758zm16.08-2.71c-.473-1.394-1.534-2.327-3.477-2.327-2.071 0-3.605 1.176-3.605 2.838 0 1.355.805 2.263 2.608 2.685l1.636.383c.99.23 1.457.703 1.457 1.381 0 .844-.895 1.534-2.3 1.534-1.234 0-2.008-.531-2.276-1.585l-1.432.358c.351 1.668 1.726 2.557 3.733 2.557 2.282 0 3.835-1.247 3.835-2.941 0-1.368-.856-2.231-2.608-2.659l-1.457-.358c-1.164-.287-1.688-.677-1.688-1.432 0-.843.895-1.457 2.097-1.457 1.317 0 1.86.729 2.122 1.406l1.355-.383zm10.781 7.824c2.173 0 3.605-1.33 3.86-3.069H85.68c-.281 1.074-1.176 1.713-2.352 1.713-1.79 0-2.94-1.483-2.94-3.758 0-2.225 1.176-3.682 2.94-3.682 1.33 0 2.122.818 2.352 1.713h1.509c-.256-1.841-1.816-3.068-3.887-3.068-2.659 0-4.423 2.097-4.423 5.088 0 2.94 1.688 5.063 4.449 5.063zm5.706-.205h1.508v-6.213c0-1.323 1.049-2.301 2.48-2.301.378 0 .659.07.87.179l.511-1.279c-.306-.217-.71-.358-1.252-.358-1.19 0-2.206.665-2.557 1.637h-.103v-1.483h-1.457V190zm10.366.205c1.994 0 3.452-.998 3.912-2.481l-1.458-.409c-.383 1.023-1.272 1.534-2.454 1.534-1.77 0-2.992-1.144-3.062-3.247h7.127v-.639c0-3.656-2.173-4.909-4.218-4.909-2.66 0-4.424 2.097-4.424 5.114s1.739 5.037 4.577 5.037zm-3.062-5.907c.102-1.527 1.183-2.889 2.909-2.889 1.636 0 2.684 1.227 2.684 2.889h-5.593zm11.951 5.932c1.713 0 2.608-.92 2.915-1.56h.077V190h1.508v-6.469c0-3.119-2.378-3.477-3.631-3.477-1.482 0-3.17.511-3.937 2.301l1.432.511c.332-.715 1.118-1.482 2.557-1.482 1.387 0 2.071.735 2.071 1.994v.051c0 .729-.742.665-2.532.895-1.821.236-3.809.639-3.809 2.889 0 1.918 1.483 3.017 3.349 3.017zm.23-1.355c-1.201 0-2.071-.537-2.071-1.585 0-1.151 1.049-1.509 2.225-1.662.639-.077 2.352-.256 2.608-.563v1.381c0 1.227-.972 2.429-2.762 2.429zm10.933-8.693h-2.096v-2.352h-1.509v2.352h-1.483v1.278h1.483v6.137c0 1.713 1.381 2.531 2.659 2.531.563 0 .921-.102 1.125-.179l-.306-1.355c-.128.025-.333.076-.665.076-.665 0-1.304-.204-1.304-1.482v-5.728h2.096v-1.278zm5.921 10.023c1.994 0 3.451-.998 3.912-2.481l-1.458-.409c-.383 1.023-1.272 1.534-2.454 1.534-1.771 0-2.992-1.144-3.062-3.247h7.127v-.639c0-3.656-2.173-4.909-4.219-4.909-2.659 0-4.423 2.097-4.423 5.114s1.739 5.037 4.577 5.037zm-3.062-5.907c.102-1.527 1.182-2.889 2.908-2.889 1.637 0 2.685 1.227 2.685 2.889h-5.593zm12.769 5.907c1.892 0 2.531-1.177 2.864-1.714h.179V190h1.457v-13.091h-1.508v4.832h-.128c-.333-.511-.921-1.687-2.838-1.687-2.48 0-4.194 1.969-4.194 5.062 0 3.12 1.714 5.089 4.168 5.089zm.205-1.356c-1.892 0-2.864-1.661-2.864-3.758 0-2.071.946-3.682 2.864-3.682 1.841 0 2.812 1.483 2.812 3.682 0 2.224-.997 3.758-2.812 3.758z" fill="#639CFF"/><g filter="url(#filter3_dd)"><circle cx="86" cy="59" r="54" fill="#fff"/></g><path d="M62.854 71.954c-2.631-1.265-2.597-5.024.057-6.24l16.971-7.78a13.787 13.787 0 0111.49 0l16.972 7.78c2.654 1.216 2.688 4.975.057 6.24l-16.803 8.073a13.787 13.787 0 01-11.942 0l-16.802-8.073z" fill="#9DCDFF"/><path d="M62.854 63.617c-2.631-1.264-2.597-5.023.057-6.24l16.971-7.78a13.787 13.787 0 0111.49 0l16.972 7.78c2.654 1.217 2.688 4.976.057 6.24l-16.803 8.074a13.786 13.786 0 01-11.942 0l-16.802-8.074z" fill="#5DABFF"/><path d="M62.854 53.571c-2.631-1.264-2.597-5.023.057-6.24l16.971-7.78a13.787 13.787 0 0111.49 0l16.972 7.78c2.654 1.217 2.688 4.976.057 6.24l-16.803 8.074a13.787 13.787 0 01-11.942 0L62.854 53.57z" fill="#3075FF"/><defs><filter id="filter0_dd" x="290" y="0" width="124" height="124" filterUnits="userSpaceOnUse" color-interpolation-filters="sRGB"><feFlood flood-opacity="0" result="BackgroundImageFix"/><feColorMatrix in="SourceAlpha" values="0 0 0 0 0 0 0 0 0 0 0 0 0 0 0 0 0 0 127 0"/><feOffset dy="4"/><feGaussianBlur stdDeviation="4"/><feColorMatrix values="0 0 0 0 0.00755134 0 0 0 0 0.0324193 0 0 0 0 0.0786026 0 0 0 0.1 0"/><feBlend in2="BackgroundImageFix" result="effect1_dropShadow"/><feColorMatrix in="SourceAlpha" values="0 0 0 0 0 0 0 0 0 0 0 0 0 0 0 0 0 0 127 0"/><feOffset dy="2"/><feGaussianBlur stdDeviation="2"/><feColorMatrix values="0 0 0 0 0.00755134 0 0 0 0 0.0324193 0 0 0 0 0.0786026 0 0 0 0.03 0"/><feBlend in2="effect1_dropShadow" result="effect2_dropShadow"/><feBlend in="SourceGraphic" in2="effect2_dropShadow" result="shape"/></filter><filter id="filter1_dd" x="285.483" y="252.742" width="133.033" height="133.033" filterUnits="userSpaceOnUse" color-interpolation-filters="sRGB"><feFlood flood-opacity="0" result="BackgroundImageFix"/><feColorMatrix in="SourceAlpha" values="0 0 0 0 0 0 0 0 0 0 0 0 0 0 0 0 0 0 127 0"/><feOffset dy="6.258"/><feGaussianBlur stdDeviation="6.258"/><feColorMatrix values="0 0 0 0 0.00755134 0 0 0 0 0.0324193 0 0 0 0 0.0786026 0 0 0 0.1 0"/><feBlend in2="BackgroundImageFix" result="effect1_dropShadow"/><feColorMatrix in="SourceAlpha" values="0 0 0 0 0 0 0 0 0 0 0 0 0 0 0 0 0 0 127 0"/><feOffset dy="1.565"/><feGaussianBlur stdDeviation="3.129"/><feColorMatrix values="0 0 0 0 0.00755134 0 0 0 0 0.0324193 0 0 0 0 0.0786026 0 0 0 0.08 0"/><feBlend in2="effect1_dropShadow" result="effect2_dropShadow"/><feBlend in="SourceGraphic" in2="effect2_dropShadow" result="shape"/></filter><filter id="filter2_dd" x="24" y="255" width="124" height="124" filterUnits="userSpaceOnUse" color-interpolation-filters="sRGB"><feFlood flood-opacity="0" result="BackgroundImageFix"/><feColorMatrix in="SourceAlpha" values="0 0 0 0 0 0 0 0 0 0 0 0 0 0 0 0 0 0 127 0"/><feOffset dy="4"/><feGaussianBlur stdDeviation="4"/><feColorMatrix values="0 0 0 0 0.00755134 0 0 0 0 0.0324193 0 0 0 0 0.0786026 0 0 0 0.1 0"/><feBlend in2="BackgroundImageFix" result="effect1_dropShadow"/><feColorMatrix in="SourceAlpha" values="0 0 0 0 0 0 0 0 0 0 0 0 0 0 0 0 0 0 127 0"/><feOffset dy="2"/><feGaussianBlur stdDeviation="2"/><feColorMatrix values="0 0 0 0 0.00755134 0 0 0 0 0.0324193 0 0 0 0 0.0786026 0 0 0 0.03 0"/><feBlend in2="effect1_dropShadow" result="effect2_dropShadow"/><feBlend in="SourceGraphic" in2="effect2_dropShadow" result="shape"/></filter><filter id="filter3_dd" x="24" y="1" width="124" height="124" filterUnits="userSpaceOnUse" color-interpolation-filters="sRGB"><feFlood flood-opacity="0" result="BackgroundImageFix"/><feColorMatrix in="SourceAlpha" values="0 0 0 0 0 0 0 0 0 0 0 0 0 0 0 0 0 0 127 0"/><feOffset dy="4"/><feGaussianBlur stdDeviation="4"/><feColorMatrix values="0 0 0 0 0.00755134 0 0 0 0 0.0324193 0 0 0 0 0.0786026 0 0 0 0.1 0"/><feBlend in2="BackgroundImageFix" result="effect1_dropShadow"/><feColorMatrix in="SourceAlpha" values="0 0 0 0 0 0 0 0 0 0 0 0 0 0 0 0 0 0 127 0"/><feOffset dy="2"/><feGaussianBlur stdDeviation="2"/><feColorMatrix values="0 0 0 0 0.00755134 0 0 0 0 0.0324193 0 0 0 0 0.0786026 0 0 0 0.03 0"/><feBlend in2="effect1_dropShadow" result="effect2_dropShadow"/><feBlend in="SourceGraphic" in2="effect2_dropShadow" result="shape"/></filter></defs></svg>