<svg width="419" height="476" viewBox="0 0 419 476" fill="none" xmlns="http://www.w3.org/2000/svg">
<path d="M335.368 156.4H330.838V138.7H327.298L322.018 140.17V143.02H326.458V156.4H321.928V160H335.368V156.4ZM344.669 160.45C349.859 160.45 352.409 155.8 352.409 149.35C352.409 142.9 349.859 138.25 344.669 138.25C339.479 138.25 336.929 142.9 336.929 149.35C336.929 155.8 339.479 160.45 344.669 160.45ZM344.669 142.39C346.889 142.39 347.969 144.52 347.969 149.35C347.969 154.18 346.889 156.31 344.669 156.31C342.449 156.31 341.369 154.18 341.369 149.35C341.369 144.52 342.449 142.39 344.669 142.39ZM361.23 160.45C366.42 160.45 368.97 155.8 368.97 149.35C368.97 142.9 366.42 138.25 361.23 138.25C356.04 138.25 353.49 142.9 353.49 149.35C353.49 155.8 356.04 160.45 361.23 160.45ZM361.23 142.39C363.45 142.39 364.53 144.52 364.53 149.35C364.53 154.18 363.45 156.31 361.23 156.31C359.01 156.31 357.93 154.18 357.93 149.35C357.93 144.52 359.01 142.39 361.23 142.39ZM375.781 144.28V150.13H369.931V154.15H375.781V160H379.801V154.15H385.651V150.13H379.801V144.28H375.781Z" fill="#3880FF"/>
<path d="M317.974 176.909V190H319.457V180.054H319.585L323.676 190H325.108L329.199 180.054H329.326V190H330.809V176.909H328.917L324.468 187.776H324.315L319.866 176.909H317.974ZM337.944 190.205C339.938 190.205 341.396 189.207 341.856 187.724L340.399 187.315C340.015 188.338 339.127 188.849 337.944 188.849C336.173 188.849 334.953 187.705 334.882 185.602H342.009V184.963C342.009 181.307 339.836 180.054 337.791 180.054C335.132 180.054 333.367 182.151 333.367 185.168C333.367 188.185 335.106 190.205 337.944 190.205ZM334.882 184.298C334.985 182.771 336.065 181.409 337.791 181.409C339.427 181.409 340.475 182.636 340.475 184.298H334.882ZM348.061 190.205C350.055 190.205 351.512 189.207 351.973 187.724L350.515 187.315C350.132 188.338 349.243 188.849 348.061 188.849C346.29 188.849 345.069 187.705 344.999 185.602H352.126V184.963C352.126 181.307 349.953 180.054 347.907 180.054C345.248 180.054 343.484 182.151 343.484 185.168C343.484 188.185 345.223 190.205 348.061 190.205ZM344.999 184.298C345.101 182.771 346.181 181.409 347.907 181.409C349.544 181.409 350.592 182.636 350.592 184.298H344.999ZM358.331 180.182H356.234V177.83H354.725V180.182H353.242V181.46H354.725V187.597C354.725 189.31 356.106 190.128 357.385 190.128C357.947 190.128 358.305 190.026 358.51 189.949L358.203 188.594C358.075 188.619 357.87 188.67 357.538 188.67C356.873 188.67 356.234 188.466 356.234 187.188V181.46H358.331V180.182ZM366.427 185.986C366.427 187.827 365.021 188.67 363.896 188.67C362.643 188.67 361.748 187.75 361.748 186.318V180.182H360.24V186.42C360.24 188.926 361.569 190.128 363.41 190.128C364.893 190.128 365.865 189.335 366.325 188.338H366.427V190H367.936V180.182H366.427V185.986ZM370.339 193.682H371.847V188.491H371.975C372.307 189.028 372.947 190.205 374.839 190.205C377.293 190.205 379.006 188.236 379.006 185.116C379.006 182.023 377.293 180.054 374.813 180.054C372.896 180.054 372.307 181.23 371.975 181.741H371.796V180.182H370.339V193.682ZM371.822 185.091C371.822 182.892 372.793 181.409 374.634 181.409C376.552 181.409 377.498 183.02 377.498 185.091C377.498 187.188 376.526 188.849 374.634 188.849C372.819 188.849 371.822 187.315 371.822 185.091ZM387.902 182.381C387.429 180.987 386.368 180.054 384.425 180.054C382.354 180.054 380.82 181.23 380.82 182.892C380.82 184.247 381.625 185.155 383.428 185.577L385.064 185.96C386.055 186.19 386.521 186.663 386.521 187.341C386.521 188.185 385.626 188.875 384.22 188.875C382.987 188.875 382.213 188.344 381.945 187.29L380.513 187.648C380.864 189.316 382.239 190.205 384.246 190.205C386.528 190.205 388.081 188.958 388.081 187.264C388.081 185.896 387.224 185.033 385.473 184.605L384.016 184.247C382.852 183.96 382.328 183.57 382.328 182.815C382.328 181.972 383.223 181.358 384.425 181.358C385.742 181.358 386.285 182.087 386.547 182.764L387.902 182.381Z" fill="#639CFF"/>
<g filter="url(#filter0_dd)">
<circle cx="352" cy="58" r="54" fill="white"/>
</g>
<path d="M377.793 54.109C377.793 51.0969 375.757 48.5642 372.997 47.8311C373.029 47.4769 373.045 47.1185 373.045 46.7559C373.045 40.2339 367.799 34.9468 361.328 34.9468C359.839 34.9468 358.415 35.2267 357.105 35.7369C355.004 34.273 352.454 33.4155 349.706 33.4155C344.051 33.4155 339.237 37.047 337.435 42.1222C332.996 42.7222 329.573 46.5535 329.573 51.1916C329.573 52.9817 330.083 54.6515 330.965 56.0618C329.068 57.8205 327.879 60.3428 327.879 63.1456C327.879 67.9567 331.382 71.9429 335.957 72.6556C335.957 72.6648 335.957 72.6737 335.957 72.6829C335.957 78.3383 340.506 82.9231 346.118 82.9231C348.575 82.9231 350.828 82.0443 352.585 80.5816C353.957 81.9297 355.833 82.7607 357.901 82.7607C361.516 82.7607 364.543 80.2229 365.323 76.8186C365.388 76.8197 365.453 76.8203 365.519 76.8203C371.926 76.8203 377.121 71.5853 377.121 65.1278C377.121 62.9248 376.516 60.8643 375.465 59.105C376.887 57.9144 377.793 56.1185 377.793 54.109ZM367.002 68.8781C366.785 69.5548 366.177 70.0273 365.472 70.0673C364.742 70.1088 363.892 70.1557 363.624 70.1646C361.57 70.2317 359.53 69.7149 358.113 67.9798C356.828 66.4079 356.486 64.585 357.272 62.6918C358.133 60.6172 359.126 58.5988 360.061 56.5541C360.547 55.4891 361.038 54.4257 361.511 53.3546C361.599 53.1571 361.632 52.9279 361.642 52.7102C361.66 52.3114 361.741 51.8743 361.284 51.633C360.817 51.3877 360.264 51.4315 359.92 51.8703C359.491 52.4168 359.109 53.0171 358.79 53.6376C357.729 55.688 356.704 57.7586 355.668 59.8231C354.893 61.371 354.131 62.9268 353.349 64.4707C352.607 65.9348 351.213 66.4932 349.701 65.9228C349.193 65.7293 348.874 65.3524 348.787 64.7759C348.666 63.9602 348.932 63.228 349.218 62.498C349.846 60.8983 350.481 59.3025 351.109 57.703C351.445 56.8453 351.781 55.9875 352.096 55.1219C352.318 54.5176 352.383 53.8752 352.126 53.2809C351.926 52.8222 351.534 52.4911 350.984 52.5409C350.382 52.5947 349.909 52.9117 349.682 53.4744C348.884 55.4591 348.118 57.4577 347.334 59.4485C346.396 61.83 345.472 64.2196 344.494 66.5853C344.132 67.4589 343.586 68.2568 342.668 68.6299C342.202 68.8194 341.676 68.9372 341.175 68.9452C339.612 68.9651 338.264 68.4405 337.342 67.1021C336.607 66.0431 336.429 64.8603 336.783 63.6075C337.112 62.4485 337.439 61.2896 337.783 60.1367C338.109 59.0437 338.454 57.9544 338.792 56.8654C339.107 55.8501 339.402 54.8268 339.744 53.8216C340.417 51.8409 340.959 49.8023 342.024 47.9851C342.752 46.7424 343.934 46.0704 345.288 45.6534C346.703 45.2186 347.91 45.7651 349.118 46.3715C349.577 46.601 350.028 46.8464 350.499 47.0456C351.156 47.3229 351.754 47.1472 352.284 46.7125C352.718 46.3574 353.155 46.0004 353.555 45.6074C354.554 44.6241 356.712 44.4424 357.767 45.5855C358.01 45.8486 358.297 46.0701 358.564 46.3096C359.117 46.8003 359.344 46.8521 359.983 46.4873C361.503 45.6235 363.077 45.7433 364.623 46.2958C365.519 46.6169 366.058 47.3868 366.4 48.2964C366.905 49.6367 366.693 50.9293 366.188 52.1899C365.258 54.5078 364.245 56.7897 363.338 59.1153C362.8 60.4957 362.347 61.9138 361.959 63.344C361.801 63.9265 361.801 64.6187 361.947 65.2029C362.169 66.0886 363.133 66.3797 363.948 66.4834C363.96 66.4848 363.973 66.4865 363.985 66.488L365.533 66.6311C366.624 66.7324 367.34 67.8275 367.002 68.8781Z" fill="#3075FF"/>
<path d="M367.002 68.8781C366.785 69.5547 366.177 70.0272 365.472 70.0673C364.742 70.1087 363.892 70.1556 363.624 70.1646C361.57 70.2317 359.53 69.7148 358.113 67.9797C356.828 66.4079 356.486 64.5849 357.272 62.6917C358.133 60.6172 359.126 58.5987 360.061 56.5541C360.547 55.489 361.038 54.4256 361.511 53.3545C361.599 53.157 361.632 52.9278 361.642 52.7101C361.66 52.3113 361.741 51.8742 361.284 51.6329C360.817 51.3876 360.264 51.4314 359.92 51.8702C359.491 52.4167 359.109 53.0171 358.79 53.6376C357.729 55.688 356.704 57.7585 355.668 59.823C354.893 61.371 354.131 62.9267 353.349 64.4706C352.607 65.9348 351.213 66.4931 349.701 65.9227C349.193 65.7292 348.874 65.3523 348.787 64.7758C348.666 63.9601 348.932 63.2279 349.218 62.498C349.846 60.8982 350.481 59.3024 351.109 57.7029C351.445 56.8452 351.781 55.9874 352.096 55.1219C352.318 54.5175 352.383 53.8751 352.126 53.2808C351.926 52.8221 351.534 52.491 350.984 52.5408C350.382 52.5947 349.909 52.9117 349.682 53.4743C348.884 55.4591 348.118 57.4576 347.334 59.4484C346.396 61.8299 345.472 64.2195 344.494 66.5852C344.132 67.4588 343.586 68.2567 342.668 68.6299C342.202 68.8193 341.676 68.9371 341.175 68.9452C339.612 68.965 338.264 68.4404 337.342 67.1021C336.607 66.043 336.429 64.8602 336.783 63.6074C337.112 62.4484 337.439 61.2895 337.783 60.1366C338.109 59.0436 338.454 57.9543 338.792 56.8653C339.107 55.8501 339.402 54.8267 339.744 53.8216C340.417 51.8408 340.959 49.8022 342.024 47.9851C342.752 46.7423 343.934 46.0703 345.288 45.6534C346.703 45.2186 347.91 45.7651 349.118 46.3715C349.577 46.601 350.028 46.8463 350.499 47.0455C351.156 47.3228 351.754 47.1472 352.284 46.7124C352.718 46.3574 353.155 46.0003 353.555 45.6073C354.554 44.624 356.712 44.4423 357.767 45.5854C358.01 45.8486 358.297 46.07 358.564 46.3096C359.117 46.8002 359.344 46.852 359.983 46.4872C361.503 45.6234 363.077 45.7432 364.623 46.2957C365.519 46.6168 366.058 47.3867 366.4 48.2963C366.905 49.6367 366.693 50.9292 366.188 52.1898C365.258 54.5077 364.245 56.7896 363.338 59.1153C362.8 60.4956 362.347 61.9137 361.959 63.3439C361.801 63.9264 361.801 64.6186 361.947 65.2028C362.169 66.0885 363.133 66.3796 363.948 66.4833C363.96 66.4847 363.973 66.4865 363.985 66.4879L365.533 66.631C366.624 66.7324 367.34 67.8274 367.002 68.8781Z" fill="#9DCDFF"/>
<path d="M325.179 402.15H329.139C329.139 402.15 329.949 400.44 332.109 400.44C334.119 400.44 335.379 401.82 335.379 403.95C335.379 406.08 334.119 407.46 332.109 407.46C330.339 407.46 329.349 406.26 329.109 405.03H324.699C324.999 408.9 327.849 411.45 332.109 411.45C336.729 411.45 339.759 408.27 339.759 403.95C339.759 400.62 338.109 396.69 333.039 396.69C331.569 396.69 330.249 397.32 329.649 397.92L330.249 393.72H338.559V389.7H326.949L325.179 402.15ZM346.21 389.7H342.19V411H346.39V396.48L352.39 404.19H352.51L358.51 396.48V411H362.71V389.7H358.69L352.45 397.95L346.21 389.7ZM370.78 395.28V401.13H364.93V405.15H370.78V411H374.8V405.15H380.65V401.13H374.8V395.28H370.78Z" fill="#3880FF"/>
<path d="M311.761 441C315.75 441 318 438.52 318 434.429C318 430.364 315.75 427.909 311.94 427.909H307.721V441H311.761ZM309.306 439.594V429.315H311.838C314.906 429.315 316.465 431.259 316.465 434.429C316.465 437.625 314.906 439.594 311.659 439.594H309.306ZM324.211 441.205C326.205 441.205 327.662 440.207 328.123 438.724L326.665 438.315C326.282 439.338 325.393 439.849 324.211 439.849C322.44 439.849 321.219 438.705 321.149 436.602H328.276V435.963C328.276 432.307 326.103 431.054 324.057 431.054C321.398 431.054 319.634 433.151 319.634 436.168C319.634 439.185 321.373 441.205 324.211 441.205ZM321.149 435.298C321.251 433.771 322.331 432.409 324.057 432.409C325.694 432.409 326.742 433.636 326.742 435.298H321.149ZM338.239 431.182H336.603L333.892 439.006H333.79L331.08 431.182H329.444L333.074 441H334.608L338.239 431.182ZM343.635 441.205C345.629 441.205 347.087 440.207 347.547 438.724L346.09 438.315C345.706 439.338 344.818 439.849 343.635 439.849C341.865 439.849 340.644 438.705 340.573 436.602H347.7V435.963C347.7 432.307 345.527 431.054 343.482 431.054C340.823 431.054 339.058 433.151 339.058 436.168C339.058 439.185 340.797 441.205 343.635 441.205ZM340.573 435.298C340.676 433.771 341.756 432.409 343.482 432.409C345.118 432.409 346.166 433.636 346.166 435.298H340.573ZM351.144 427.909H349.635V441H351.144V427.909ZM357.535 441.205C360.194 441.205 361.984 439.185 361.984 436.142C361.984 433.074 360.194 431.054 357.535 431.054C354.876 431.054 353.086 433.074 353.086 436.142C353.086 439.185 354.876 441.205 357.535 441.205ZM357.535 439.849C355.515 439.849 354.595 438.111 354.595 436.142C354.595 434.173 355.515 432.409 357.535 432.409C359.555 432.409 360.476 434.173 360.476 436.142C360.476 438.111 359.555 439.849 357.535 439.849ZM363.927 444.682H365.435V439.491H365.563C365.896 440.028 366.535 441.205 368.427 441.205C370.881 441.205 372.595 439.236 372.595 436.116C372.595 433.023 370.881 431.054 368.401 431.054C366.484 431.054 365.896 432.23 365.563 432.741H365.384V431.182H363.927V444.682ZM365.41 436.091C365.41 433.892 366.381 432.409 368.222 432.409C370.14 432.409 371.086 434.02 371.086 436.091C371.086 438.188 370.114 439.849 368.222 439.849C366.407 439.849 365.41 438.315 365.41 436.091ZM378.652 441.205C380.646 441.205 382.104 440.207 382.564 438.724L381.107 438.315C380.723 439.338 379.835 439.849 378.652 439.849C376.882 439.849 375.661 438.705 375.59 436.602H382.717V435.963C382.717 432.307 380.544 431.054 378.499 431.054C375.84 431.054 374.075 433.151 374.075 436.168C374.075 439.185 375.814 441.205 378.652 441.205ZM375.59 435.298C375.693 433.771 376.773 432.409 378.499 432.409C380.135 432.409 381.183 433.636 381.183 435.298H375.59ZM384.652 441H386.161V434.787C386.161 433.464 387.209 432.486 388.641 432.486C389.018 432.486 389.299 432.556 389.51 432.665L390.022 431.386C389.715 431.169 389.312 431.028 388.769 431.028C387.58 431.028 386.563 431.693 386.212 432.665H386.11V431.182H384.652V441ZM398.155 433.381C397.682 431.987 396.621 431.054 394.678 431.054C392.607 431.054 391.073 432.23 391.073 433.892C391.073 435.247 391.878 436.155 393.681 436.577L395.317 436.96C396.308 437.19 396.774 437.663 396.774 438.341C396.774 439.185 395.879 439.875 394.473 439.875C393.24 439.875 392.466 439.344 392.198 438.29L390.766 438.648C391.117 440.316 392.492 441.205 394.499 441.205C396.781 441.205 398.334 439.958 398.334 438.264C398.334 436.896 397.477 436.033 395.726 435.605L394.269 435.247C393.105 434.96 392.581 434.57 392.581 433.815C392.581 432.972 393.476 432.358 394.678 432.358C395.994 432.358 396.538 433.087 396.8 433.764L398.155 433.381Z" fill="#639CFF"/>
<g filter="url(#filter1_dd)">
<circle cx="352" cy="313" r="54" fill="white"/>
</g>
<mask id="mask0" mask-type="alpha" maskUnits="userSpaceOnUse" x="298" y="261" width="108" height="108">
<circle cx="352" cy="315" r="54" fill="white"/>
</mask>
<g mask="url(#mask0)">
<circle cx="376.999" cy="318.973" r="13.8719" fill="#5DABFF"/>
<path fill-rule="evenodd" clip-rule="evenodd" d="M403 353.677V368.294H377.154C377.069 368.295 376.983 368.295 376.898 368.295C376.813 368.295 376.727 368.295 376.642 368.294H350.796V353.015H350.82C351.415 345.224 362.863 339.01 376.898 339.01C390.933 339.01 402.381 345.224 402.976 353.015H403V353.629C403 353.637 403 353.645 403 353.653C403 353.661 403 353.669 403 353.677Z" fill="#3075FF"/>
<mask id="path-12-outside-1" maskUnits="userSpaceOnUse" x="303.18" y="329.927" width="75" height="48" fill="black">
<rect fill="white" x="303.18" y="329.927" width="75" height="48"/>
<path fill-rule="evenodd" clip-rule="evenodd" d="M372.375 353.653C372.375 353.653 372.375 353.653 372.375 353.653C372.375 343.863 358.228 335.927 340.777 335.927C323.327 335.927 309.18 343.863 309.18 353.653C309.18 353.653 309.18 353.653 309.18 353.653V372.149H372.375V353.653Z"/>
</mask>
<path fill-rule="evenodd" clip-rule="evenodd" d="M372.375 353.653C372.375 353.653 372.375 353.653 372.375 353.653C372.375 343.863 358.228 335.927 340.777 335.927C323.327 335.927 309.18 343.863 309.18 353.653C309.18 353.653 309.18 353.653 309.18 353.653V372.149H372.375V353.653Z" fill="#5DABFF"/>
<path d="M309.18 372.149H303.597V377.732H309.18V372.149ZM372.375 372.149V377.732H377.958V372.149H372.375ZM366.791 353.653C366.791 353.653 366.791 353.653 366.791 353.653C366.791 353.653 366.791 353.653 366.791 353.653C366.791 353.653 366.791 353.653 366.791 353.653C366.791 353.653 366.791 353.653 366.791 353.653C366.791 353.653 366.791 353.653 366.791 353.653C366.791 353.653 366.791 353.653 366.791 353.653C366.791 353.653 366.791 353.653 366.791 353.653C366.791 353.653 366.791 353.653 366.791 353.653C366.791 353.653 366.791 353.653 366.791 353.653V353.653V353.653V353.653V353.653V353.653V353.653V353.653V353.653C366.791 353.653 366.791 353.653 366.791 353.653C366.791 353.653 366.791 353.653 366.791 353.653C366.791 353.653 366.791 353.653 366.791 353.653C366.791 353.653 366.791 353.653 366.791 353.653C366.791 353.653 366.791 353.653 366.791 353.653C366.791 353.653 366.791 353.653 366.791 353.653C366.791 353.653 366.791 353.653 366.791 353.653C366.791 353.653 366.791 353.653 366.791 353.653C366.791 353.653 366.791 353.653 366.791 353.653C366.791 353.653 366.791 353.653 366.791 353.653C366.791 353.653 366.791 353.653 366.791 353.653C366.791 353.653 366.791 353.653 366.791 353.653C366.791 353.653 366.791 353.653 366.791 353.653C366.791 353.653 366.791 353.653 366.791 353.653C366.791 353.653 366.791 353.653 366.791 353.653C366.791 353.653 366.791 353.653 366.791 353.653V353.653V353.653V353.653V353.653V353.653V353.653V353.653C366.791 353.653 366.791 353.653 366.791 353.653C366.791 353.653 366.791 353.653 366.791 353.653C366.791 353.653 366.791 353.653 366.791 353.653C366.791 353.653 366.791 353.653 366.791 353.653C366.791 353.653 366.791 353.653 366.791 353.653C366.791 353.653 366.791 353.653 366.791 353.653C366.791 353.653 366.791 353.653 366.791 353.653C366.791 353.653 366.791 353.653 366.791 353.653C366.791 353.653 366.791 353.653 366.791 353.653C366.791 353.653 366.791 353.653 366.791 353.653C366.791 353.653 366.791 353.653 366.791 353.653C366.791 353.653 366.791 353.653 366.791 353.653C366.791 353.653 366.791 353.653 366.791 353.653C366.791 353.653 366.791 353.653 366.791 353.653C366.791 353.653 366.791 353.653 366.791 353.653V353.653V353.653V353.653V353.653V353.653V353.653V353.653C366.791 353.653 366.791 353.653 366.791 353.653C366.791 353.653 366.791 353.653 366.791 353.653C366.791 353.653 366.791 353.653 366.791 353.653C366.791 353.653 366.791 353.653 366.791 353.653C366.791 353.653 366.791 353.653 366.791 353.653C366.791 353.653 366.791 353.653 366.791 353.653C366.791 353.653 366.791 353.653 366.791 353.653C366.791 353.653 366.791 353.653 366.791 353.653C366.791 353.653 366.791 353.653 366.791 353.653C366.791 353.653 366.791 353.653 366.791 353.653C366.791 353.653 366.791 353.653 366.791 353.653C366.791 353.653 366.791 353.653 366.791 353.653C366.791 353.653 366.791 353.653 366.791 353.653C366.791 353.653 366.791 353.653 366.791 353.653V353.653V353.653V353.653V353.653V353.653V353.653V353.653C366.791 353.653 366.791 353.653 366.791 353.653C366.791 353.653 366.791 353.653 366.791 353.653C366.791 353.653 366.791 353.653 366.791 353.653C366.791 353.653 366.791 353.653 366.791 353.653C366.791 353.653 366.791 353.653 366.791 353.653C366.791 353.653 366.791 353.653 366.791 353.653C366.791 353.653 366.791 353.653 366.791 353.653C366.791 353.653 366.791 353.653 366.791 353.653C366.791 353.653 366.791 353.653 366.791 353.653C366.791 353.653 366.791 353.653 366.791 353.653C366.791 353.653 366.791 353.653 366.791 353.653C366.791 353.653 366.791 353.653 366.791 353.653C366.791 353.653 366.791 353.653 366.791 353.653C366.791 353.653 366.791 353.653 366.791 353.653V353.653V353.653V353.653V353.653V353.653V353.653V353.653C366.791 353.653 366.791 353.653 366.791 353.653C366.791 353.653 366.791 353.653 366.791 353.653C366.791 353.653 366.791 353.653 366.791 353.653C366.791 353.653 366.791 353.653 366.791 353.653C366.791 353.653 366.791 353.653 366.791 353.653C366.791 353.653 366.791 353.653 366.791 353.653C366.791 353.653 366.791 353.653 366.791 353.653C366.791 353.653 366.791 353.653 366.791 353.653C366.791 353.653 366.791 353.653 366.791 353.653C366.791 353.653 366.791 353.653 366.791 353.653C366.791 353.653 366.791 353.653 366.791 353.653C366.791 353.653 366.791 353.653 366.791 353.653C366.791 353.653 366.791 353.653 366.791 353.653C366.791 353.653 366.791 353.653 366.791 353.653V353.653V353.653V353.653V353.653V353.653V353.653C366.791 353.653 366.791 353.653 366.791 353.653C366.791 353.653 366.791 353.653 366.791 353.653C366.791 353.653 366.791 353.653 366.791 353.653C366.791 353.653 366.791 353.653 366.791 353.653C366.791 353.653 366.791 353.653 366.791 353.653C366.791 353.653 366.791 353.653 366.791 353.653C366.791 353.653 366.791 353.653 366.791 353.653C366.791 353.653 366.791 353.653 366.791 353.653C366.791 353.653 366.791 353.653 366.791 353.653C366.791 353.653 366.791 353.653 366.791 353.653C366.791 353.653 366.791 353.653 366.791 353.653C366.791 353.653 366.791 353.653 366.791 353.653C366.791 353.653 366.791 353.653 366.791 353.653C366.791 353.653 366.791 353.653 366.791 353.653V353.653V353.653V353.653V353.653V353.653V353.653C366.791 353.653 366.791 353.653 366.791 353.653C366.791 353.653 366.791 353.653 366.791 353.653C366.791 353.653 366.791 353.653 366.791 353.653C366.791 353.653 366.791 353.653 366.791 353.653C366.791 353.653 366.791 353.653 366.791 353.653C366.791 353.653 366.791 353.653 366.791 353.653C366.791 353.653 366.791 353.653 366.791 353.653C366.791 353.653 366.791 353.653 366.791 353.653C366.791 353.653 366.791 353.653 366.791 353.653C366.791 353.653 366.791 353.653 366.791 353.653C366.791 353.653 366.791 353.653 366.791 353.653C366.791 353.653 366.791 353.653 366.791 353.653C366.791 353.653 366.791 353.653 366.791 353.653C366.791 353.653 366.791 353.653 366.791 353.653V353.653V353.653V353.653V353.653V353.653V353.653V353.653C366.791 353.653 366.791 353.653 366.791 353.653C366.791 353.653 366.791 353.653 366.791 353.653C366.791 353.653 366.791 353.653 366.791 353.653C366.791 353.653 366.791 353.653 366.791 353.653C366.791 353.653 366.791 353.653 366.791 353.653C366.791 353.653 366.791 353.653 366.791 353.653C366.791 353.653 366.791 353.653 366.791 353.653C366.791 353.653 366.791 353.653 366.791 353.653C366.791 353.653 366.791 353.653 366.791 353.653C366.791 353.653 366.791 353.653 366.791 353.653C366.791 353.653 366.791 353.653 366.791 353.653C366.791 353.653 366.791 353.653 366.791 353.653C366.791 353.653 366.791 353.653 366.791 353.653C366.791 353.653 366.791 353.653 366.791 353.653V353.653V353.653V353.653V353.653V353.653V353.653V353.653C366.791 353.653 366.791 353.653 366.791 353.653C366.791 353.653 366.791 353.653 366.791 353.653C366.791 353.653 366.791 353.653 366.791 353.653C366.791 353.653 366.791 353.653 366.791 353.653C366.791 353.653 366.791 353.653 366.791 353.653C366.791 353.653 366.791 353.653 366.791 353.653C366.791 353.653 366.791 353.653 366.791 353.653C366.791 353.653 366.791 353.653 366.791 353.653C366.791 353.653 366.791 353.653 366.791 353.653C366.791 353.653 366.791 353.653 366.791 353.653C366.791 353.653 366.791 353.653 366.791 353.653C366.791 353.653 366.791 353.653 366.791 353.653C366.791 353.653 366.791 353.653 366.791 353.653C366.791 353.653 366.791 353.653 366.791 353.653V353.653V353.653V353.653V353.653V353.653V353.653V353.653C366.791 353.653 366.791 353.653 366.791 353.653C366.791 353.653 366.791 353.653 366.791 353.653C366.791 353.653 366.791 353.653 366.791 353.653C366.791 353.653 366.791 353.653 366.791 353.653C366.791 353.653 366.791 353.653 366.791 353.653C366.791 353.653 366.791 353.653 366.791 353.653C366.791 353.653 366.791 353.653 366.791 353.653C366.791 353.653 366.791 353.653 366.791 353.653C366.791 353.653 366.791 353.653 366.791 353.653C366.791 353.653 366.791 353.653 366.791 353.653C366.791 353.653 366.791 353.653 366.791 353.653C366.791 353.653 366.791 353.653 366.791 353.653C366.791 353.653 366.791 353.653 366.791 353.653C366.791 353.653 366.791 353.653 366.791 353.653C366.791 353.653 366.791 353.653 366.791 353.653V353.653V353.653V353.653V353.653V353.653V353.653V353.653C366.791 353.653 366.791 353.653 366.791 353.653C366.791 353.653 366.791 353.653 366.791 353.653C366.791 353.653 366.791 353.653 366.791 353.653C366.791 353.653 366.791 353.653 366.791 353.653C366.791 353.653 366.791 353.653 366.791 353.653C366.791 353.653 366.791 353.653 366.791 353.653C366.791 353.653 366.791 353.653 366.791 353.653C366.791 353.653 366.791 353.653 366.791 353.653C366.791 353.653 366.791 353.653 366.791 353.653C366.791 353.653 366.791 353.653 366.791 353.653C366.791 353.653 366.791 353.653 366.791 353.653C366.791 353.653 366.791 353.653 366.791 353.653C366.791 353.653 366.791 353.653 366.791 353.653C366.791 353.653 366.791 353.653 366.791 353.653C366.791 353.653 366.791 353.653 366.791 353.653C366.791 353.653 366.791 353.653 366.791 353.653V353.653V353.653V353.653V353.653V353.653V353.653V353.653V353.653C366.791 353.653 366.791 353.653 366.791 353.653C366.791 353.653 366.791 353.653 366.791 353.653C366.791 353.653 366.791 353.653 366.791 353.653C366.791 353.653 366.791 353.653 366.791 353.653C366.791 353.653 366.791 353.653 366.791 353.653C366.791 353.653 366.791 353.653 366.791 353.653C366.791 353.653 366.791 353.653 366.791 353.653C366.791 353.653 366.791 353.653 366.791 353.653C366.791 353.653 366.791 353.653 366.791 353.653H377.958C377.958 353.653 377.958 353.653 377.958 353.653C377.958 353.653 377.958 353.653 377.958 353.653C377.958 353.653 377.958 353.653 377.958 353.653C377.958 353.653 377.958 353.653 377.958 353.653C377.958 353.653 377.958 353.653 377.958 353.653C377.958 353.653 377.958 353.653 377.958 353.653C377.958 353.653 377.958 353.653 377.958 353.653C377.958 353.653 377.958 353.653 377.958 353.653C377.958 353.653 377.958 353.653 377.958 353.653V353.653V353.653V353.653V353.653V353.653V353.653V353.653V353.653C377.958 353.653 377.958 353.653 377.958 353.653C377.958 353.653 377.958 353.653 377.958 353.653C377.958 353.653 377.958 353.653 377.958 353.653C377.958 353.653 377.958 353.653 377.958 353.653C377.958 353.653 377.958 353.653 377.958 353.653C377.958 353.653 377.958 353.653 377.958 353.653C377.958 353.653 377.958 353.653 377.958 353.653C377.958 353.653 377.958 353.653 377.958 353.653C377.958 353.653 377.958 353.653 377.958 353.653C377.958 353.653 377.958 353.653 377.958 353.653C377.958 353.653 377.958 353.653 377.958 353.653C377.958 353.653 377.958 353.653 377.958 353.653C377.958 353.653 377.958 353.653 377.958 353.653C377.958 353.653 377.958 353.653 377.958 353.653C377.958 353.653 377.958 353.653 377.958 353.653C377.958 353.653 377.958 353.653 377.958 353.653V353.653V353.653V353.653V353.653V353.653V353.653V353.653C377.958 353.653 377.958 353.653 377.958 353.653C377.958 353.653 377.958 353.653 377.958 353.653C377.958 353.653 377.958 353.653 377.958 353.653C377.958 353.653 377.958 353.653 377.958 353.653C377.958 353.653 377.958 353.653 377.958 353.653C377.958 353.653 377.958 353.653 377.958 353.653C377.958 353.653 377.958 353.653 377.958 353.653C377.958 353.653 377.958 353.653 377.958 353.653C377.958 353.653 377.958 353.653 377.958 353.653C377.958 353.653 377.958 353.653 377.958 353.653C377.958 353.653 377.958 353.653 377.958 353.653C377.958 353.653 377.958 353.653 377.958 353.653C377.958 353.653 377.958 353.653 377.958 353.653C377.958 353.653 377.958 353.653 377.958 353.653C377.958 353.653 377.958 353.653 377.958 353.653V353.653V353.653V353.653V353.653V353.653V353.653V353.653C377.958 353.653 377.958 353.653 377.958 353.653C377.958 353.653 377.958 353.653 377.958 353.653C377.958 353.653 377.958 353.653 377.958 353.653C377.958 353.653 377.958 353.653 377.958 353.653C377.958 353.653 377.958 353.653 377.958 353.653C377.958 353.653 377.958 353.653 377.958 353.653C377.958 353.653 377.958 353.653 377.958 353.653C377.958 353.653 377.958 353.653 377.958 353.653C377.958 353.653 377.958 353.653 377.958 353.653C377.958 353.653 377.958 353.653 377.958 353.653C377.958 353.653 377.958 353.653 377.958 353.653C377.958 353.653 377.958 353.653 377.958 353.653C377.958 353.653 377.958 353.653 377.958 353.653C377.958 353.653 377.958 353.653 377.958 353.653V353.653V353.653V353.653V353.653V353.653V353.653V353.653C377.958 353.653 377.958 353.653 377.958 353.653C377.958 353.653 377.958 353.653 377.958 353.653C377.958 353.653 377.958 353.653 377.958 353.653C377.958 353.653 377.958 353.653 377.958 353.653C377.958 353.653 377.958 353.653 377.958 353.653C377.958 353.653 377.958 353.653 377.958 353.653C377.958 353.653 377.958 353.653 377.958 353.653C377.958 353.653 377.958 353.653 377.958 353.653C377.958 353.653 377.958 353.653 377.958 353.653C377.958 353.653 377.958 353.653 377.958 353.653C377.958 353.653 377.958 353.653 377.958 353.653C377.958 353.653 377.958 353.653 377.958 353.653C377.958 353.653 377.958 353.653 377.958 353.653C377.958 353.653 377.958 353.653 377.958 353.653V353.653V353.653V353.653V353.653V353.653V353.653V353.653C377.958 353.653 377.958 353.653 377.958 353.653C377.958 353.653 377.958 353.653 377.958 353.653C377.958 353.653 377.958 353.653 377.958 353.653C377.958 353.653 377.958 353.653 377.958 353.653C377.958 353.653 377.958 353.653 377.958 353.653C377.958 353.653 377.958 353.653 377.958 353.653C377.958 353.653 377.958 353.653 377.958 353.653C377.958 353.653 377.958 353.653 377.958 353.653C377.958 353.653 377.958 353.653 377.958 353.653C377.958 353.653 377.958 353.653 377.958 353.653C377.958 353.653 377.958 353.653 377.958 353.653C377.958 353.653 377.958 353.653 377.958 353.653C377.958 353.653 377.958 353.653 377.958 353.653C377.958 353.653 377.958 353.653 377.958 353.653V353.653V353.653V353.653V353.653V353.653V353.653C377.958 353.653 377.958 353.653 377.958 353.653C377.958 353.653 377.958 353.653 377.958 353.653C377.958 353.653 377.958 353.653 377.958 353.653C377.958 353.653 377.958 353.653 377.958 353.653C377.958 353.653 377.958 353.653 377.958 353.653C377.958 353.653 377.958 353.653 377.958 353.653C377.958 353.653 377.958 353.653 377.958 353.653C377.958 353.653 377.958 353.653 377.958 353.653C377.958 353.653 377.958 353.653 377.958 353.653C377.958 353.653 377.958 353.653 377.958 353.653C377.958 353.653 377.958 353.653 377.958 353.653C377.958 353.653 377.958 353.653 377.958 353.653C377.958 353.653 377.958 353.653 377.958 353.653C377.958 353.653 377.958 353.653 377.958 353.653V353.653V353.653V353.653V353.653V353.653V353.653C377.958 353.653 377.958 353.653 377.958 353.653C377.958 353.653 377.958 353.653 377.958 353.653C377.958 353.653 377.958 353.653 377.958 353.653C377.958 353.653 377.958 353.653 377.958 353.653C377.958 353.653 377.958 353.653 377.958 353.653C377.958 353.653 377.958 353.653 377.958 353.653C377.958 353.653 377.958 353.653 377.958 353.653C377.958 353.653 377.958 353.653 377.958 353.653C377.958 353.653 377.958 353.653 377.958 353.653C377.958 353.653 377.958 353.653 377.958 353.653C377.958 353.653 377.958 353.653 377.958 353.653C377.958 353.653 377.958 353.653 377.958 353.653C377.958 353.653 377.958 353.653 377.958 353.653C377.958 353.653 377.958 353.653 377.958 353.653V353.653V353.653V353.653V353.653V353.653V353.653V353.653C377.958 353.653 377.958 353.653 377.958 353.653C377.958 353.653 377.958 353.653 377.958 353.653C377.958 353.653 377.958 353.653 377.958 353.653C377.958 353.653 377.958 353.653 377.958 353.653C377.958 353.653 377.958 353.653 377.958 353.653C377.958 353.653 377.958 353.653 377.958 353.653C377.958 353.653 377.958 353.653 377.958 353.653C377.958 353.653 377.958 353.653 377.958 353.653C377.958 353.653 377.958 353.653 377.958 353.653C377.958 353.653 377.958 353.653 377.958 353.653C377.958 353.653 377.958 353.653 377.958 353.653C377.958 353.653 377.958 353.653 377.958 353.653C377.958 353.653 377.958 353.653 377.958 353.653C377.958 353.653 377.958 353.653 377.958 353.653V353.653V353.653V353.653V353.653V353.653V353.653V353.653C377.958 353.653 377.958 353.653 377.958 353.653C377.958 353.653 377.958 353.653 377.958 353.653C377.958 353.653 377.958 353.653 377.958 353.653C377.958 353.653 377.958 353.653 377.958 353.653C377.958 353.653 377.958 353.653 377.958 353.653C377.958 353.653 377.958 353.653 377.958 353.653C377.958 353.653 377.958 353.653 377.958 353.653C377.958 353.653 377.958 353.653 377.958 353.653C377.958 353.653 377.958 353.653 377.958 353.653C377.958 353.653 377.958 353.653 377.958 353.653C377.958 353.653 377.958 353.653 377.958 353.653C377.958 353.653 377.958 353.653 377.958 353.653C377.958 353.653 377.958 353.653 377.958 353.653C377.958 353.653 377.958 353.653 377.958 353.653V353.653V353.653V353.653V353.653V353.653V353.653V353.653C377.958 353.653 377.958 353.653 377.958 353.653C377.958 353.653 377.958 353.653 377.958 353.653C377.958 353.653 377.958 353.653 377.958 353.653C377.958 353.653 377.958 353.653 377.958 353.653C377.958 353.653 377.958 353.653 377.958 353.653C377.958 353.653 377.958 353.653 377.958 353.653C377.958 353.653 377.958 353.653 377.958 353.653C377.958 353.653 377.958 353.653 377.958 353.653C377.958 353.653 377.958 353.653 377.958 353.653C377.958 353.653 377.958 353.653 377.958 353.653C377.958 353.653 377.958 353.653 377.958 353.653C377.958 353.653 377.958 353.653 377.958 353.653C377.958 353.653 377.958 353.653 377.958 353.653C377.958 353.653 377.958 353.653 377.958 353.653C377.958 353.653 377.958 353.653 377.958 353.653V353.653V353.653V353.653V353.653V353.653V353.653V353.653C377.958 353.653 377.958 353.653 377.958 353.653C377.958 353.653 377.958 353.653 377.958 353.653C377.958 353.653 377.958 353.653 377.958 353.653C377.958 353.653 377.958 353.653 377.958 353.653C377.958 353.653 377.958 353.653 377.958 353.653C377.958 353.653 377.958 353.653 377.958 353.653C377.958 353.653 377.958 353.653 377.958 353.653C377.958 353.653 377.958 353.653 377.958 353.653C377.958 353.653 377.958 353.653 377.958 353.653C377.958 353.653 377.958 353.653 377.958 353.653C377.958 353.653 377.958 353.653 377.958 353.653C377.958 353.653 377.958 353.653 377.958 353.653C377.958 353.653 377.958 353.653 377.958 353.653C377.958 353.653 377.958 353.653 377.958 353.653C377.958 353.653 377.958 353.653 377.958 353.653C377.958 353.653 377.958 353.653 377.958 353.653V353.653V353.653V353.653V353.653V353.653V353.653V353.653V353.653C377.958 353.653 377.958 353.653 377.958 353.653C377.958 353.653 377.958 353.653 377.958 353.653C377.958 353.653 377.958 353.653 377.958 353.653C377.958 353.653 377.958 353.653 377.958 353.653C377.958 353.653 377.958 353.653 377.958 353.653C377.958 353.653 377.958 353.653 377.958 353.653C377.958 353.653 377.958 353.653 377.958 353.653C377.958 353.653 377.958 353.653 377.958 353.653C377.958 353.653 377.958 353.653 377.958 353.653H366.791ZM340.777 341.511C348.728 341.511 355.65 343.331 360.388 345.989C365.304 348.747 366.791 351.679 366.791 353.653H377.958C377.958 345.837 372.371 339.907 365.852 336.25C359.154 332.492 350.278 330.344 340.777 330.344V341.511ZM314.764 353.653C314.764 351.679 316.25 348.747 321.167 345.989C325.905 343.331 332.827 341.511 340.777 341.511V330.344C331.277 330.344 322.401 332.492 315.703 336.25C309.184 339.907 303.597 345.837 303.597 353.653H314.764ZM314.764 353.653C314.764 353.653 314.764 353.653 314.764 353.653C314.764 353.653 314.764 353.653 314.764 353.653C314.764 353.653 314.764 353.653 314.764 353.653C314.764 353.653 314.764 353.653 314.764 353.653C314.764 353.653 314.764 353.653 314.764 353.653C314.764 353.653 314.764 353.653 314.764 353.653C314.764 353.653 314.764 353.653 314.764 353.653C314.764 353.653 314.764 353.653 314.764 353.653C314.764 353.653 314.764 353.653 314.764 353.653V353.653V353.653V353.653V353.653V353.653V353.653V353.653V353.653C314.764 353.653 314.764 353.653 314.764 353.653C314.764 353.653 314.764 353.653 314.764 353.653C314.764 353.653 314.764 353.653 314.764 353.653C314.764 353.653 314.764 353.653 314.764 353.653C314.764 353.653 314.764 353.653 314.764 353.653C314.764 353.653 314.764 353.653 314.764 353.653C314.764 353.653 314.764 353.653 314.764 353.653C314.764 353.653 314.764 353.653 314.764 353.653C314.764 353.653 314.764 353.653 314.764 353.653C314.764 353.653 314.764 353.653 314.764 353.653C314.764 353.653 314.764 353.653 314.764 353.653C314.764 353.653 314.764 353.653 314.764 353.653C314.764 353.653 314.764 353.653 314.764 353.653C314.764 353.653 314.764 353.653 314.764 353.653C314.764 353.653 314.764 353.653 314.764 353.653C314.764 353.653 314.764 353.653 314.764 353.653V353.653V353.653V353.653V353.653V353.653V353.653V353.653C314.764 353.653 314.764 353.653 314.764 353.653C314.764 353.653 314.764 353.653 314.764 353.653C314.764 353.653 314.764 353.653 314.764 353.653C314.764 353.653 314.764 353.653 314.764 353.653C314.764 353.653 314.764 353.653 314.764 353.653C314.764 353.653 314.764 353.653 314.764 353.653C314.764 353.653 314.764 353.653 314.764 353.653C314.764 353.653 314.764 353.653 314.764 353.653C314.764 353.653 314.764 353.653 314.764 353.653C314.764 353.653 314.764 353.653 314.764 353.653C314.764 353.653 314.764 353.653 314.764 353.653C314.764 353.653 314.764 353.653 314.764 353.653C314.764 353.653 314.764 353.653 314.764 353.653C314.764 353.653 314.764 353.653 314.764 353.653C314.764 353.653 314.764 353.653 314.764 353.653V353.653V353.653V353.653V353.653V353.653V353.653V353.653C314.764 353.653 314.764 353.653 314.764 353.653C314.764 353.653 314.764 353.653 314.764 353.653C314.764 353.653 314.764 353.653 314.764 353.653C314.764 353.653 314.764 353.653 314.764 353.653C314.764 353.653 314.764 353.653 314.764 353.653C314.764 353.653 314.764 353.653 314.764 353.653C314.764 353.653 314.764 353.653 314.764 353.653C314.764 353.653 314.764 353.653 314.764 353.653C314.764 353.653 314.764 353.653 314.764 353.653C314.764 353.653 314.764 353.653 314.764 353.653C314.764 353.653 314.764 353.653 314.764 353.653C314.764 353.653 314.764 353.653 314.764 353.653C314.764 353.653 314.764 353.653 314.764 353.653C314.764 353.653 314.764 353.653 314.764 353.653V353.653V353.653V353.653V353.653V353.653V353.653V353.653C314.764 353.653 314.764 353.653 314.764 353.653C314.764 353.653 314.764 353.653 314.764 353.653C314.764 353.653 314.764 353.653 314.764 353.653C314.764 353.653 314.764 353.653 314.764 353.653C314.764 353.653 314.764 353.653 314.764 353.653C314.764 353.653 314.764 353.653 314.764 353.653C314.764 353.653 314.764 353.653 314.764 353.653C314.764 353.653 314.764 353.653 314.764 353.653C314.764 353.653 314.764 353.653 314.764 353.653C314.764 353.653 314.764 353.653 314.764 353.653C314.764 353.653 314.764 353.653 314.764 353.653C314.764 353.653 314.764 353.653 314.764 353.653C314.764 353.653 314.764 353.653 314.764 353.653C314.764 353.653 314.764 353.653 314.764 353.653V353.653V353.653V353.653V353.653V353.653V353.653V353.653C314.764 353.653 314.764 353.653 314.764 353.653C314.764 353.653 314.764 353.653 314.764 353.653C314.764 353.653 314.764 353.653 314.764 353.653C314.764 353.653 314.764 353.653 314.764 353.653C314.764 353.653 314.764 353.653 314.764 353.653C314.764 353.653 314.764 353.653 314.764 353.653C314.764 353.653 314.764 353.653 314.764 353.653C314.764 353.653 314.764 353.653 314.764 353.653C314.764 353.653 314.764 353.653 314.764 353.653C314.764 353.653 314.764 353.653 314.764 353.653C314.764 353.653 314.764 353.653 314.764 353.653C314.764 353.653 314.764 353.653 314.764 353.653C314.764 353.653 314.764 353.653 314.764 353.653C314.764 353.653 314.764 353.653 314.764 353.653V353.653V353.653V353.653V353.653V353.653V353.653C314.764 353.653 314.764 353.653 314.764 353.653C314.764 353.653 314.764 353.653 314.764 353.653C314.764 353.653 314.764 353.653 314.764 353.653C314.764 353.653 314.764 353.653 314.764 353.653C314.764 353.653 314.764 353.653 314.764 353.653C314.764 353.653 314.764 353.653 314.764 353.653C314.764 353.653 314.764 353.653 314.764 353.653C314.764 353.653 314.764 353.653 314.764 353.653C314.764 353.653 314.764 353.653 314.764 353.653C314.764 353.653 314.764 353.653 314.764 353.653C314.764 353.653 314.764 353.653 314.764 353.653C314.764 353.653 314.764 353.653 314.764 353.653C314.764 353.653 314.764 353.653 314.764 353.653C314.764 353.653 314.764 353.653 314.764 353.653V353.653V353.653V353.653V353.653V353.653V353.653C314.764 353.653 314.764 353.653 314.764 353.653C314.764 353.653 314.764 353.653 314.764 353.653C314.764 353.653 314.764 353.653 314.764 353.653C314.764 353.653 314.764 353.653 314.764 353.653C314.764 353.653 314.764 353.653 314.764 353.653C314.764 353.653 314.764 353.653 314.764 353.653C314.764 353.653 314.764 353.653 314.764 353.653C314.764 353.653 314.764 353.653 314.764 353.653C314.764 353.653 314.764 353.653 314.764 353.653C314.764 353.653 314.764 353.653 314.764 353.653C314.764 353.653 314.764 353.653 314.764 353.653C314.764 353.653 314.764 353.653 314.764 353.653C314.764 353.653 314.764 353.653 314.764 353.653C314.764 353.653 314.764 353.653 314.764 353.653V353.653V353.653V353.653V353.653V353.653V353.653V353.653C314.764 353.653 314.764 353.653 314.764 353.653C314.764 353.653 314.764 353.653 314.764 353.653C314.764 353.653 314.764 353.653 314.764 353.653C314.764 353.653 314.764 353.653 314.764 353.653C314.764 353.653 314.764 353.653 314.764 353.653C314.764 353.653 314.764 353.653 314.764 353.653C314.764 353.653 314.764 353.653 314.764 353.653C314.764 353.653 314.764 353.653 314.764 353.653C314.764 353.653 314.764 353.653 314.764 353.653C314.764 353.653 314.764 353.653 314.764 353.653C314.764 353.653 314.764 353.653 314.764 353.653C314.764 353.653 314.764 353.653 314.764 353.653C314.764 353.653 314.764 353.653 314.764 353.653C314.764 353.653 314.764 353.653 314.764 353.653V353.653V353.653V353.653V353.653V353.653V353.653V353.653C314.764 353.653 314.764 353.653 314.764 353.653C314.764 353.653 314.764 353.653 314.764 353.653C314.764 353.653 314.764 353.653 314.764 353.653C314.764 353.653 314.764 353.653 314.764 353.653C314.764 353.653 314.764 353.653 314.764 353.653C314.764 353.653 314.764 353.653 314.764 353.653C314.764 353.653 314.764 353.653 314.764 353.653C314.764 353.653 314.764 353.653 314.764 353.653C314.764 353.653 314.764 353.653 314.764 353.653C314.764 353.653 314.764 353.653 314.764 353.653C314.764 353.653 314.764 353.653 314.764 353.653C314.764 353.653 314.764 353.653 314.764 353.653C314.764 353.653 314.764 353.653 314.764 353.653C314.764 353.653 314.764 353.653 314.764 353.653V353.653V353.653V353.653V353.653V353.653V353.653V353.653C314.764 353.653 314.764 353.653 314.764 353.653C314.764 353.653 314.764 353.653 314.764 353.653C314.764 353.653 314.764 353.653 314.764 353.653C314.764 353.653 314.764 353.653 314.764 353.653C314.764 353.653 314.764 353.653 314.764 353.653C314.764 353.653 314.764 353.653 314.764 353.653C314.764 353.653 314.764 353.653 314.764 353.653C314.764 353.653 314.764 353.653 314.764 353.653C314.764 353.653 314.764 353.653 314.764 353.653C314.764 353.653 314.764 353.653 314.764 353.653C314.764 353.653 314.764 353.653 314.764 353.653C314.764 353.653 314.764 353.653 314.764 353.653C314.764 353.653 314.764 353.653 314.764 353.653C314.764 353.653 314.764 353.653 314.764 353.653C314.764 353.653 314.764 353.653 314.764 353.653V353.653V353.653V353.653V353.653V353.653V353.653V353.653C314.764 353.653 314.764 353.653 314.764 353.653C314.764 353.653 314.764 353.653 314.764 353.653C314.764 353.653 314.764 353.653 314.764 353.653C314.764 353.653 314.764 353.653 314.764 353.653C314.764 353.653 314.764 353.653 314.764 353.653C314.764 353.653 314.764 353.653 314.764 353.653C314.764 353.653 314.764 353.653 314.764 353.653C314.764 353.653 314.764 353.653 314.764 353.653C314.764 353.653 314.764 353.653 314.764 353.653C314.764 353.653 314.764 353.653 314.764 353.653C314.764 353.653 314.764 353.653 314.764 353.653C314.764 353.653 314.764 353.653 314.764 353.653C314.764 353.653 314.764 353.653 314.764 353.653C314.764 353.653 314.764 353.653 314.764 353.653C314.764 353.653 314.764 353.653 314.764 353.653C314.764 353.653 314.764 353.653 314.764 353.653V353.653V353.653V353.653V353.653V353.653V353.653V353.653V353.653C314.764 353.653 314.764 353.653 314.764 353.653C314.764 353.653 314.764 353.653 314.764 353.653C314.764 353.653 314.764 353.653 314.764 353.653C314.764 353.653 314.764 353.653 314.764 353.653C314.764 353.653 314.764 353.653 314.764 353.653C314.764 353.653 314.764 353.653 314.764 353.653C314.764 353.653 314.764 353.653 314.764 353.653C314.764 353.653 314.764 353.653 314.764 353.653C314.764 353.653 314.764 353.653 314.764 353.653H303.597C303.597 353.653 303.597 353.653 303.597 353.653C303.597 353.653 303.597 353.653 303.597 353.653C303.597 353.653 303.597 353.653 303.597 353.653C303.597 353.653 303.597 353.653 303.597 353.653C303.597 353.653 303.597 353.653 303.597 353.653C303.597 353.653 303.597 353.653 303.597 353.653C303.597 353.653 303.597 353.653 303.597 353.653C303.597 353.653 303.597 353.653 303.597 353.653C303.597 353.653 303.597 353.653 303.597 353.653V353.653V353.653V353.653V353.653V353.653V353.653V353.653V353.653C303.597 353.653 303.597 353.653 303.597 353.653C303.597 353.653 303.597 353.653 303.597 353.653C303.597 353.653 303.597 353.653 303.597 353.653C303.597 353.653 303.597 353.653 303.597 353.653C303.597 353.653 303.597 353.653 303.597 353.653C303.597 353.653 303.597 353.653 303.597 353.653C303.597 353.653 303.597 353.653 303.597 353.653C303.597 353.653 303.597 353.653 303.597 353.653C303.597 353.653 303.597 353.653 303.597 353.653C303.597 353.653 303.597 353.653 303.597 353.653C303.597 353.653 303.597 353.653 303.597 353.653C303.597 353.653 303.597 353.653 303.597 353.653C303.597 353.653 303.597 353.653 303.597 353.653C303.597 353.653 303.597 353.653 303.597 353.653C303.597 353.653 303.597 353.653 303.597 353.653C303.597 353.653 303.597 353.653 303.597 353.653V353.653V353.653V353.653V353.653V353.653V353.653V353.653C303.597 353.653 303.597 353.653 303.597 353.653C303.597 353.653 303.597 353.653 303.597 353.653C303.597 353.653 303.597 353.653 303.597 353.653C303.597 353.653 303.597 353.653 303.597 353.653C303.597 353.653 303.597 353.653 303.597 353.653C303.597 353.653 303.597 353.653 303.597 353.653C303.597 353.653 303.597 353.653 303.597 353.653C303.597 353.653 303.597 353.653 303.597 353.653C303.597 353.653 303.597 353.653 303.597 353.653C303.597 353.653 303.597 353.653 303.597 353.653C303.597 353.653 303.597 353.653 303.597 353.653C303.597 353.653 303.597 353.653 303.597 353.653C303.597 353.653 303.597 353.653 303.597 353.653C303.597 353.653 303.597 353.653 303.597 353.653C303.597 353.653 303.597 353.653 303.597 353.653V353.653V353.653V353.653V353.653V353.653V353.653V353.653C303.597 353.653 303.597 353.653 303.597 353.653C303.597 353.653 303.597 353.653 303.597 353.653C303.597 353.653 303.597 353.653 303.597 353.653C303.597 353.653 303.597 353.653 303.597 353.653C303.597 353.653 303.597 353.653 303.597 353.653C303.597 353.653 303.597 353.653 303.597 353.653C303.597 353.653 303.597 353.653 303.597 353.653C303.597 353.653 303.597 353.653 303.597 353.653C303.597 353.653 303.597 353.653 303.597 353.653C303.597 353.653 303.597 353.653 303.597 353.653C303.597 353.653 303.597 353.653 303.597 353.653C303.597 353.653 303.597 353.653 303.597 353.653C303.597 353.653 303.597 353.653 303.597 353.653C303.597 353.653 303.597 353.653 303.597 353.653V353.653V353.653V353.653V353.653V353.653V353.653V353.653C303.597 353.653 303.597 353.653 303.597 353.653C303.597 353.653 303.597 353.653 303.597 353.653C303.597 353.653 303.597 353.653 303.597 353.653C303.597 353.653 303.597 353.653 303.597 353.653C303.597 353.653 303.597 353.653 303.597 353.653C303.597 353.653 303.597 353.653 303.597 353.653C303.597 353.653 303.597 353.653 303.597 353.653C303.597 353.653 303.597 353.653 303.597 353.653C303.597 353.653 303.597 353.653 303.597 353.653C303.597 353.653 303.597 353.653 303.597 353.653C303.597 353.653 303.597 353.653 303.597 353.653C303.597 353.653 303.597 353.653 303.597 353.653C303.597 353.653 303.597 353.653 303.597 353.653C303.597 353.653 303.597 353.653 303.597 353.653V353.653V353.653V353.653V353.653V353.653V353.653V353.653C303.597 353.653 303.597 353.653 303.597 353.653C303.597 353.653 303.597 353.653 303.597 353.653C303.597 353.653 303.597 353.653 303.597 353.653C303.597 353.653 303.597 353.653 303.597 353.653C303.597 353.653 303.597 353.653 303.597 353.653C303.597 353.653 303.597 353.653 303.597 353.653C303.597 353.653 303.597 353.653 303.597 353.653C303.597 353.653 303.597 353.653 303.597 353.653C303.597 353.653 303.597 353.653 303.597 353.653C303.597 353.653 303.597 353.653 303.597 353.653C303.597 353.653 303.597 353.653 303.597 353.653C303.597 353.653 303.597 353.653 303.597 353.653C303.597 353.653 303.597 353.653 303.597 353.653C303.597 353.653 303.597 353.653 303.597 353.653V353.653V353.653V353.653V353.653V353.653V353.653C303.597 353.653 303.597 353.653 303.597 353.653C303.597 353.653 303.597 353.653 303.597 353.653C303.597 353.653 303.597 353.653 303.597 353.653C303.597 353.653 303.597 353.653 303.597 353.653C303.597 353.653 303.597 353.653 303.597 353.653C303.597 353.653 303.597 353.653 303.597 353.653C303.597 353.653 303.597 353.653 303.597 353.653C303.597 353.653 303.597 353.653 303.597 353.653C303.597 353.653 303.597 353.653 303.597 353.653C303.597 353.653 303.597 353.653 303.597 353.653C303.597 353.653 303.597 353.653 303.597 353.653C303.597 353.653 303.597 353.653 303.597 353.653C303.597 353.653 303.597 353.653 303.597 353.653C303.597 353.653 303.597 353.653 303.597 353.653V353.653V353.653V353.653V353.653V353.653V353.653C303.597 353.653 303.597 353.653 303.597 353.653C303.597 353.653 303.597 353.653 303.597 353.653C303.597 353.653 303.597 353.653 303.597 353.653C303.597 353.653 303.597 353.653 303.597 353.653C303.597 353.653 303.597 353.653 303.597 353.653C303.597 353.653 303.597 353.653 303.597 353.653C303.597 353.653 303.597 353.653 303.597 353.653C303.597 353.653 303.597 353.653 303.597 353.653C303.597 353.653 303.597 353.653 303.597 353.653C303.597 353.653 303.597 353.653 303.597 353.653C303.597 353.653 303.597 353.653 303.597 353.653C303.597 353.653 303.597 353.653 303.597 353.653C303.597 353.653 303.597 353.653 303.597 353.653C303.597 353.653 303.597 353.653 303.597 353.653V353.653V353.653V353.653V353.653V353.653V353.653V353.653C303.597 353.653 303.597 353.653 303.597 353.653C303.597 353.653 303.597 353.653 303.597 353.653C303.597 353.653 303.597 353.653 303.597 353.653C303.597 353.653 303.597 353.653 303.597 353.653C303.597 353.653 303.597 353.653 303.597 353.653C303.597 353.653 303.597 353.653 303.597 353.653C303.597 353.653 303.597 353.653 303.597 353.653C303.597 353.653 303.597 353.653 303.597 353.653C303.597 353.653 303.597 353.653 303.597 353.653C303.597 353.653 303.597 353.653 303.597 353.653C303.597 353.653 303.597 353.653 303.597 353.653C303.597 353.653 303.597 353.653 303.597 353.653C303.597 353.653 303.597 353.653 303.597 353.653C303.597 353.653 303.597 353.653 303.597 353.653V353.653V353.653V353.653V353.653V353.653V353.653V353.653C303.597 353.653 303.597 353.653 303.597 353.653C303.597 353.653 303.597 353.653 303.597 353.653C303.597 353.653 303.597 353.653 303.597 353.653C303.597 353.653 303.597 353.653 303.597 353.653C303.597 353.653 303.597 353.653 303.597 353.653C303.597 353.653 303.597 353.653 303.597 353.653C303.597 353.653 303.597 353.653 303.597 353.653C303.597 353.653 303.597 353.653 303.597 353.653C303.597 353.653 303.597 353.653 303.597 353.653C303.597 353.653 303.597 353.653 303.597 353.653C303.597 353.653 303.597 353.653 303.597 353.653C303.597 353.653 303.597 353.653 303.597 353.653C303.597 353.653 303.597 353.653 303.597 353.653C303.597 353.653 303.597 353.653 303.597 353.653V353.653V353.653V353.653V353.653V353.653V353.653V353.653C303.597 353.653 303.597 353.653 303.597 353.653C303.597 353.653 303.597 353.653 303.597 353.653C303.597 353.653 303.597 353.653 303.597 353.653C303.597 353.653 303.597 353.653 303.597 353.653C303.597 353.653 303.597 353.653 303.597 353.653C303.597 353.653 303.597 353.653 303.597 353.653C303.597 353.653 303.597 353.653 303.597 353.653C303.597 353.653 303.597 353.653 303.597 353.653C303.597 353.653 303.597 353.653 303.597 353.653C303.597 353.653 303.597 353.653 303.597 353.653C303.597 353.653 303.597 353.653 303.597 353.653C303.597 353.653 303.597 353.653 303.597 353.653C303.597 353.653 303.597 353.653 303.597 353.653C303.597 353.653 303.597 353.653 303.597 353.653C303.597 353.653 303.597 353.653 303.597 353.653V353.653V353.653V353.653V353.653V353.653V353.653V353.653C303.597 353.653 303.597 353.653 303.597 353.653C303.597 353.653 303.597 353.653 303.597 353.653C303.597 353.653 303.597 353.653 303.597 353.653C303.597 353.653 303.597 353.653 303.597 353.653C303.597 353.653 303.597 353.653 303.597 353.653C303.597 353.653 303.597 353.653 303.597 353.653C303.597 353.653 303.597 353.653 303.597 353.653C303.597 353.653 303.597 353.653 303.597 353.653C303.597 353.653 303.597 353.653 303.597 353.653C303.597 353.653 303.597 353.653 303.597 353.653C303.597 353.653 303.597 353.653 303.597 353.653C303.597 353.653 303.597 353.653 303.597 353.653C303.597 353.653 303.597 353.653 303.597 353.653C303.597 353.653 303.597 353.653 303.597 353.653C303.597 353.653 303.597 353.653 303.597 353.653C303.597 353.653 303.597 353.653 303.597 353.653V353.653V353.653V353.653V353.653V353.653V353.653V353.653V353.653C303.597 353.653 303.597 353.653 303.597 353.653C303.597 353.653 303.597 353.653 303.597 353.653C303.597 353.653 303.597 353.653 303.597 353.653C303.597 353.653 303.597 353.653 303.597 353.653C303.597 353.653 303.597 353.653 303.597 353.653C303.597 353.653 303.597 353.653 303.597 353.653C303.597 353.653 303.597 353.653 303.597 353.653C303.597 353.653 303.597 353.653 303.597 353.653C303.597 353.653 303.597 353.653 303.597 353.653H314.764ZM314.764 372.149V353.653H303.597V372.149H314.764ZM372.375 366.566H309.18V377.732H372.375V366.566ZM366.791 353.653V372.149H377.958V353.653H366.791Z" fill="white" mask="url(#path-12-outside-1)"/>
<circle cx="339.236" cy="310.495" r="17.7252" fill="#9DCDFF"/>
</g>
<path d="M57.9282 401.91H59.8482C62.1882 401.91 63.1182 403.11 63.1182 404.73C63.1182 406.35 61.8882 407.52 59.9382 407.52C57.8082 407.52 56.7582 406.23 56.6682 404.52H52.4082C52.5582 408.72 55.5882 411.45 59.9382 411.45C64.4082 411.45 67.4682 408.45 67.4682 404.73C67.4682 402.57 66.5382 400.83 64.3482 399.99C66.3582 399.12 67.2282 397.41 67.2282 395.52C67.2282 391.8 64.4982 389.25 60.1182 389.25C55.7682 389.25 52.8582 392.31 52.8582 396.18H57.1182C57.1182 394.71 57.9882 393.18 60.1182 393.18C62.0682 393.18 62.9982 394.35 62.9982 395.79C62.9982 397.26 62.0382 398.28 59.9082 398.28H57.9282V401.91ZM76.4991 411.45C81.6891 411.45 84.2391 406.8 84.2391 400.35C84.2391 393.9 81.6891 389.25 76.4991 389.25C71.3091 389.25 68.7591 393.9 68.7591 400.35C68.7591 406.8 71.3091 411.45 76.4991 411.45ZM76.4991 393.39C78.7191 393.39 79.7991 395.52 79.7991 400.35C79.7991 405.18 78.7191 407.31 76.4991 407.31C74.2791 407.31 73.1991 405.18 73.1991 400.35C73.1991 395.52 74.2791 393.39 76.4991 393.39ZM105.66 411L97.2301 398.55L105.33 389.7H99.6301C92.5501 398.19 90.9601 399.84 90.9601 399.84V389.7H86.5801V411H90.9601V405.39L94.2001 401.85L100.26 411H105.66ZM110.951 395.28V401.13H105.101V405.15H110.951V411H114.971V405.15H120.821V401.13H114.971V395.28H110.951Z" fill="#3880FF"/>
<path d="M32.2516 431.182H33.7857C33.7154 429.207 31.8937 427.73 29.3624 427.73C26.8567 427.73 24.888 429.188 24.888 431.386C24.888 433.151 26.1664 434.199 28.2119 434.787L29.8226 435.247C31.2033 435.631 32.4306 436.116 32.4306 437.42C32.4306 438.852 31.0499 439.798 29.2346 439.798C27.6749 439.798 26.2942 439.108 26.1664 437.625H24.53C24.6834 439.773 26.4221 441.23 29.2346 441.23C32.2516 441.23 33.9647 439.568 33.9647 437.446C33.9647 434.991 31.638 434.199 30.2829 433.841L28.9533 433.483C27.9817 433.227 26.4221 432.716 26.4221 431.31C26.4221 430.057 27.5726 429.136 29.3113 429.136C30.8965 429.136 32.0982 429.891 32.2516 431.182ZM40.2764 431.182H38.1798V428.83H36.6713V431.182H35.1883V432.46H36.6713V438.597C36.6713 440.31 38.052 441.128 39.3304 441.128C39.8929 441.128 40.2508 441.026 40.4554 440.949L40.1485 439.594C40.0207 439.619 39.8162 439.67 39.4838 439.67C38.819 439.67 38.1798 439.466 38.1798 438.188V432.46H40.2764V431.182ZM45.0748 441.23C46.7878 441.23 47.6827 440.31 47.9895 439.67H48.0662V441H49.5748V434.531C49.5748 431.412 47.1969 431.054 45.9441 431.054C44.4611 431.054 42.7736 431.565 42.0066 433.355L43.4384 433.866C43.7708 433.151 44.557 432.384 45.9952 432.384C47.3823 432.384 48.0662 433.119 48.0662 434.378V434.429C48.0662 435.158 47.3248 435.094 45.535 435.324C43.7133 435.56 41.7253 435.963 41.7253 438.213C41.7253 440.131 43.2083 441.23 45.0748 441.23ZM45.3049 439.875C44.1032 439.875 43.2339 439.338 43.2339 438.29C43.2339 437.139 44.2822 436.781 45.4583 436.628C46.0975 436.551 47.8106 436.372 48.0662 436.065V437.446C48.0662 438.673 47.0947 439.875 45.3049 439.875ZM55.9568 441.205C58.1301 441.205 59.5619 439.875 59.8176 438.136H58.3091C58.0278 439.21 57.1329 439.849 55.9568 439.849C54.167 439.849 53.0164 438.366 53.0164 436.091C53.0164 433.866 54.1926 432.409 55.9568 432.409C57.2863 432.409 58.0789 433.227 58.3091 434.122H59.8176C59.5619 432.281 58.0022 431.054 55.9312 431.054C53.2721 431.054 51.5079 433.151 51.5079 436.142C51.5079 439.082 53.1954 441.205 55.9568 441.205ZM61.6628 441H63.1714V437.325L64.226 436.347L67.9015 441H69.8191L65.3638 435.375L69.5123 431.182H67.6458L63.3503 435.554H63.1714V427.909H61.6628V441ZM87.0463 434.455C87.0463 430.312 84.6174 427.73 81.2679 427.73C77.9185 427.73 75.4895 430.312 75.4895 434.455C75.4895 438.597 77.9185 441.179 81.2679 441.179C84.6174 441.179 87.0463 438.597 87.0463 434.455ZM85.5123 434.455C85.5123 437.855 83.6458 439.696 81.2679 439.696C78.8901 439.696 77.0236 437.855 77.0236 434.455C77.0236 431.054 78.8901 429.213 81.2679 429.213C83.6458 429.213 85.5123 431.054 85.5123 434.455ZM97.1757 431.182H95.5393L92.8291 439.006H92.7268L90.0166 431.182H88.3802L92.0109 441H93.545L97.1757 431.182ZM102.572 441.205C104.566 441.205 106.023 440.207 106.484 438.724L105.026 438.315C104.643 439.338 103.754 439.849 102.572 439.849C100.801 439.849 99.5803 438.705 99.5099 436.602H106.637V435.963C106.637 432.307 104.464 431.054 102.418 431.054C99.7592 431.054 97.995 433.151 97.995 436.168C97.995 439.185 99.7337 441.205 102.572 441.205ZM99.5099 435.298C99.6122 433.771 100.692 432.409 102.418 432.409C104.055 432.409 105.103 433.636 105.103 435.298H99.5099ZM108.572 441H110.08V434.787C110.08 433.457 111.129 432.486 112.56 432.486C112.963 432.486 113.379 432.562 113.481 432.588V431.054C113.308 431.041 112.912 431.028 112.688 431.028C111.512 431.028 110.489 431.693 110.131 432.665H110.029V431.182H108.572V441ZM119.896 431.182H117.698V430.185C117.698 429.213 118.107 428.702 119.104 428.702C119.539 428.702 119.794 428.804 119.948 428.855L120.382 427.551C120.152 427.449 119.692 427.295 118.95 427.295C117.544 427.295 116.189 428.139 116.189 429.827V431.182H114.604V432.46H116.189V441H117.698V432.46H119.896V431.182ZM123.159 427.909H121.651V441H123.159V427.909ZM129.551 441.205C132.21 441.205 134 439.185 134 436.142C134 433.074 132.21 431.054 129.551 431.054C126.892 431.054 125.102 433.074 125.102 436.142C125.102 439.185 126.892 441.205 129.551 441.205ZM129.551 439.849C127.531 439.849 126.61 438.111 126.61 436.142C126.61 434.173 127.531 432.409 129.551 432.409C131.571 432.409 132.491 434.173 132.491 436.142C132.491 438.111 131.571 439.849 129.551 439.849ZM137.833 441H139.316L141.463 433.457H141.617L143.765 441H145.248L148.239 431.182H146.654L144.532 438.673H144.429L142.358 431.182H140.748L138.651 438.699H138.549L136.427 431.182H134.841L137.833 441ZM57.4831 460.455C57.4831 456.312 55.0541 453.73 51.7047 453.73C48.3553 453.73 45.9263 456.312 45.9263 460.455C45.9263 464.597 48.3553 467.179 51.7047 467.179C52.5612 467.179 53.3538 467.013 54.0634 466.693L55.2075 468.227H56.9462L55.2395 465.958C56.633 464.814 57.4831 462.909 57.4831 460.455ZM51.1933 462.909L53.1365 465.453C52.6891 465.613 52.2097 465.696 51.7047 465.696C49.3269 465.696 47.4604 463.855 47.4604 460.455C47.4604 457.054 49.3269 455.213 51.7047 455.213C54.0825 455.213 55.949 457.054 55.949 460.455C55.949 462.43 55.3226 463.874 54.3254 464.744L52.932 462.909H51.1933ZM65.7715 462.986C65.7715 464.827 64.3653 465.67 63.2403 465.67C61.9874 465.67 61.0926 464.75 61.0926 463.318V457.182H59.584V463.42C59.584 465.926 60.9136 467.128 62.7545 467.128C64.2374 467.128 65.209 466.335 65.6693 465.338H65.7715V467H67.2801V457.182H65.7715V462.986ZM73.7995 467.205C75.7938 467.205 77.2512 466.207 77.7114 464.724L76.2541 464.315C75.8705 465.338 74.982 465.849 73.7995 465.849C72.0289 465.849 70.808 464.705 70.7377 462.602H77.8648V461.963C77.8648 458.307 75.6916 457.054 73.6461 457.054C70.987 457.054 69.2228 459.151 69.2228 462.168C69.2228 465.185 70.9614 467.205 73.7995 467.205ZM70.7377 461.298C70.84 459.771 71.9202 458.409 73.6461 458.409C75.2825 458.409 76.3308 459.636 76.3308 461.298H70.7377ZM86.7541 459.381C86.2811 457.987 85.22 457.054 83.2769 457.054C81.2058 457.054 79.6717 458.23 79.6717 459.892C79.6717 461.247 80.4771 462.155 82.2797 462.577L83.9161 462.96C84.9068 463.19 85.3734 463.663 85.3734 464.341C85.3734 465.185 84.4786 465.875 83.0723 465.875C81.8386 465.875 81.0652 465.344 80.7967 464.29L79.3649 464.648C79.7165 466.316 81.0908 467.205 83.0979 467.205C85.3798 467.205 86.9331 465.958 86.9331 464.264C86.9331 462.896 86.0766 462.033 84.3251 461.605L82.8678 461.247C81.7044 460.96 81.1803 460.57 81.1803 459.815C81.1803 458.972 82.0751 458.358 83.2769 458.358C84.5936 458.358 85.1369 459.087 85.399 459.764L86.7541 459.381ZM93.1138 457.182H91.0172V454.83H89.5087V457.182H88.0257V458.46H89.5087V464.597C89.5087 466.31 90.8893 467.128 92.1677 467.128C92.7302 467.128 93.0882 467.026 93.2927 466.949L92.9859 465.594C92.8581 465.619 92.6535 465.67 92.3212 465.67C91.6564 465.67 91.0172 465.466 91.0172 464.188V458.46H93.1138V457.182ZM95.0229 467H96.5315V457.182H95.0229V467ZM95.79 455.545C96.3781 455.545 96.8639 455.085 96.8639 454.523C96.8639 453.96 96.3781 453.5 95.79 453.5C95.2019 453.5 94.7161 453.96 94.7161 454.523C94.7161 455.085 95.2019 455.545 95.79 455.545ZM102.923 467.205C105.582 467.205 107.372 465.185 107.372 462.142C107.372 459.074 105.582 457.054 102.923 457.054C100.264 457.054 98.4742 459.074 98.4742 462.142C98.4742 465.185 100.264 467.205 102.923 467.205ZM102.923 465.849C100.903 465.849 99.9827 464.111 99.9827 462.142C99.9827 460.173 100.903 458.409 102.923 458.409C104.943 458.409 105.863 460.173 105.863 462.142C105.863 464.111 104.943 465.849 102.923 465.849ZM110.823 461.094C110.823 459.381 111.884 458.409 113.329 458.409C114.729 458.409 115.579 459.323 115.579 460.864V467H117.087V460.761C117.087 458.256 115.751 457.054 113.764 457.054C112.281 457.054 111.36 457.719 110.9 458.716H110.772V457.182H109.315V467H110.823V461.094ZM126.439 459.381C125.966 457.987 124.904 457.054 122.961 457.054C120.89 457.054 119.356 458.23 119.356 459.892C119.356 461.247 120.162 462.155 121.964 462.577L123.6 462.96C124.591 463.19 125.058 463.663 125.058 464.341C125.058 465.185 124.163 465.875 122.757 465.875C121.523 465.875 120.75 465.344 120.481 464.29L119.049 464.648C119.401 466.316 120.775 467.205 122.782 467.205C125.064 467.205 126.617 465.958 126.617 464.264C126.617 462.896 125.761 462.033 124.01 461.605L122.552 461.247C121.389 460.96 120.865 460.57 120.865 459.815C120.865 458.972 121.76 458.358 122.961 458.358C124.278 458.358 124.821 459.087 125.083 459.764L126.439 459.381Z" fill="#639CFF"/>
<g filter="url(#filter2_dd)">
<circle cx="86" cy="313" r="54" fill="white"/>
</g>
<path d="M99.2334 332.717V319.183H103.725V337.208H63.1833V319.183H67.675V332.717H99.2334Z" fill="#3075FF"/>
<path d="M72.1667 328.167H94.6834V323.675H72.1667V328.167Z" fill="#3075FF"/>
<path d="M72.6333 317.9L94.6833 322.508L95.6166 318.075L73.5666 313.467L72.6333 317.9Z" fill="#5DABFF"/>
<path d="M75.55 307.4L95.9667 316.908L97.8334 312.825L77.4167 303.258L75.55 307.4Z" fill="#63AEFF"/>
<path d="M81.2084 297.367L98.5334 311.775L101.392 308.334L84.0667 293.925L81.2084 297.367Z" fill="#99CAFF"/>
<path d="M92.4084 286.692L88.7917 289.375L102.208 307.458L105.825 304.775L92.4084 286.692Z" fill="#9DCDFF"/>
<path d="M59.1793 151.15H63.1393C63.1393 151.15 63.9493 149.44 66.1093 149.44C68.1193 149.44 69.3793 150.82 69.3793 152.95C69.3793 155.08 68.1193 156.46 66.1093 156.46C64.3393 156.46 63.3493 155.26 63.1093 154.03H58.6993C58.9993 157.9 61.8493 160.45 66.1093 160.45C70.7293 160.45 73.7593 157.27 73.7593 152.95C73.7593 149.62 72.1093 145.69 67.0393 145.69C65.5693 145.69 64.2493 146.32 63.6493 146.92L64.2493 142.72H72.5593V138.7H60.9493L59.1793 151.15ZM80.2102 138.7H76.1902V160H80.3902V145.48L86.3902 153.19H86.5102L92.5102 145.48V160H96.7102V138.7H92.6902L86.4502 146.95L80.2102 138.7ZM104.78 144.28V150.13H98.9298V154.15H104.78V160H108.8V154.15H114.65V150.13H108.8V144.28H104.78Z" fill="#3880FF"/>
<path d="M33.3115 190L34.6282 186.293H39.9208L41.2376 190H42.8995L38.0927 176.909H36.4563L31.6495 190H33.3115ZM35.1268 184.886L37.2234 178.98H37.3257L39.4223 184.886H35.1268ZM44.374 193.682H45.8826V188.491H46.0104C46.3428 189.028 46.982 190.205 48.874 190.205C51.3286 190.205 53.0417 188.236 53.0417 185.116C53.0417 182.023 51.3286 180.054 48.8485 180.054C46.9309 180.054 46.3428 181.23 46.0104 181.741H45.8314V180.182H44.374V193.682ZM45.857 185.091C45.857 182.892 46.8286 181.409 48.6695 181.409C50.5871 181.409 51.5331 183.02 51.5331 185.091C51.5331 187.188 50.5615 188.849 48.6695 188.849C46.8542 188.849 45.857 187.315 45.857 185.091ZM54.9828 193.682H56.4913V188.491H56.6192C56.9515 189.028 57.5907 190.205 59.4828 190.205C61.9373 190.205 63.6504 188.236 63.6504 185.116C63.6504 182.023 61.9373 180.054 59.4572 180.054C57.5396 180.054 56.9515 181.23 56.6192 181.741H56.4402V180.182H54.9828V193.682ZM56.4657 185.091C56.4657 182.892 57.4373 181.409 59.2782 181.409C61.1959 181.409 62.1419 183.02 62.1419 185.091C62.1419 187.188 61.1703 188.849 59.2782 188.849C57.4629 188.849 56.4657 187.315 56.4657 185.091ZM72.5461 182.381C72.0731 180.987 71.012 180.054 69.0688 180.054C66.9978 180.054 65.4637 181.23 65.4637 182.892C65.4637 184.247 66.2691 185.155 68.0717 185.577L69.708 185.96C70.6988 186.19 71.1654 186.663 71.1654 187.341C71.1654 188.185 70.2705 188.875 68.8643 188.875C67.6306 188.875 66.8572 188.344 66.5887 187.29L65.1569 187.648C65.5084 189.316 66.8827 190.205 68.8898 190.205C71.1718 190.205 72.7251 188.958 72.7251 187.264C72.7251 185.896 71.8685 185.033 70.1171 184.605L68.6597 184.247C67.4964 183.96 66.9722 183.57 66.9722 182.815C66.9722 181.972 67.8671 181.358 69.0688 181.358C70.3856 181.358 70.9289 182.087 71.191 182.764L72.5461 182.381ZM83.327 190.205C85.5003 190.205 86.9321 188.875 87.1878 187.136H85.6792C85.398 188.21 84.5031 188.849 83.327 188.849C81.5372 188.849 80.3866 187.366 80.3866 185.091C80.3866 182.866 81.5628 181.409 83.327 181.409C84.6565 181.409 85.4491 182.227 85.6792 183.122H87.1878C86.9321 181.281 85.3724 180.054 83.3014 180.054C80.6423 180.054 78.8781 182.151 78.8781 185.142C78.8781 188.082 80.5656 190.205 83.327 190.205ZM89.033 190H90.5415V183.787C90.5415 182.464 91.5898 181.486 93.0217 181.486C93.3988 181.486 93.68 181.556 93.891 181.665L94.4023 180.386C94.0955 180.169 93.6928 180.028 93.1495 180.028C91.9606 180.028 90.9442 180.693 90.5927 181.665H90.4904V180.182H89.033V190ZM99.3989 190.205C101.393 190.205 102.851 189.207 103.311 187.724L101.853 187.315C101.47 188.338 100.581 188.849 99.3989 188.849C97.6283 188.849 96.4074 187.705 96.3371 185.602H103.464V184.963C103.464 181.307 101.291 180.054 99.2455 180.054C96.5864 180.054 94.8222 182.151 94.8222 185.168C94.8222 188.185 96.5608 190.205 99.3989 190.205ZM96.3371 184.298C96.4394 182.771 97.5196 181.409 99.2455 181.409C100.882 181.409 101.93 182.636 101.93 184.298H96.3371ZM108.288 190.23C110.001 190.23 110.896 189.31 111.203 188.67H111.28V190H112.788V183.531C112.788 180.412 110.41 180.054 109.157 180.054C107.675 180.054 105.987 180.565 105.22 182.355L106.652 182.866C106.984 182.151 107.77 181.384 109.209 181.384C110.596 181.384 111.28 182.119 111.28 183.378V183.429C111.28 184.158 110.538 184.094 108.748 184.324C106.927 184.56 104.939 184.963 104.939 187.213C104.939 189.131 106.422 190.23 108.288 190.23ZM108.518 188.875C107.317 188.875 106.447 188.338 106.447 187.29C106.447 186.139 107.496 185.781 108.672 185.628C109.311 185.551 111.024 185.372 111.28 185.065V186.446C111.28 187.673 110.308 188.875 108.518 188.875ZM119.451 180.182H117.355V177.83H115.846V180.182H114.363V181.46H115.846V187.597C115.846 189.31 117.227 190.128 118.505 190.128C119.068 190.128 119.426 190.026 119.63 189.949L119.324 188.594C119.196 188.619 118.991 188.67 118.659 188.67C117.994 188.67 117.355 188.466 117.355 187.188V181.46H119.451V180.182ZM125.372 190.205C127.366 190.205 128.823 189.207 129.284 187.724L127.826 187.315C127.443 188.338 126.554 188.849 125.372 188.849C123.601 188.849 122.38 187.705 122.31 185.602H129.437V184.963C129.437 181.307 127.264 180.054 125.218 180.054C122.559 180.054 120.795 182.151 120.795 185.168C120.795 188.185 122.534 190.205 125.372 190.205ZM122.31 184.298C122.412 182.771 123.492 181.409 125.218 181.409C126.855 181.409 127.903 182.636 127.903 184.298H122.31ZM135.079 190.205C136.971 190.205 137.61 189.028 137.943 188.491H138.122V190H139.579V176.909H138.071V181.741H137.943C137.61 181.23 137.022 180.054 135.105 180.054C132.625 180.054 130.911 182.023 130.911 185.116C130.911 188.236 132.625 190.205 135.079 190.205ZM135.284 188.849C133.392 188.849 132.42 187.188 132.42 185.091C132.42 183.02 133.366 181.409 135.284 181.409C137.125 181.409 138.096 182.892 138.096 185.091C138.096 187.315 137.099 188.849 135.284 188.849Z" fill="#639CFF"/>
<g filter="url(#filter3_dd)">
<circle cx="86" cy="59" r="54" fill="white"/>
</g>
<path d="M62.8543 71.9535C60.2229 70.6891 60.2569 66.9303 62.9108 65.7137L79.8825 57.9338C83.53 56.2618 87.7249 56.2618 91.3724 57.9338L108.344 65.7137C110.998 66.9303 111.032 70.6891 108.401 71.9535L91.5984 80.027C87.8243 81.8404 83.4306 81.8404 79.6565 80.027L62.8543 71.9535Z" fill="#9DCDFF"/>
<path d="M62.8543 63.6173C60.2229 62.3529 60.2569 58.5941 62.9108 57.3776L79.8825 49.5976C83.53 47.9256 87.7249 47.9256 91.3724 49.5976L108.344 57.3776C110.998 58.5941 111.032 62.3529 108.401 63.6173L91.5984 71.6908C87.8243 73.5043 83.4306 73.5043 79.6565 71.6908L62.8543 63.6173Z" fill="#5DABFF"/>
<path d="M62.8543 53.5712C60.2229 52.3067 60.2569 48.548 62.9108 47.3314L79.8825 39.5515C83.53 37.8795 87.7249 37.8795 91.3724 39.5515L108.344 47.3314C110.998 48.548 111.032 52.3067 108.401 53.5711L91.5984 61.6447C87.8243 63.4581 83.4306 63.4581 79.6565 61.6447L62.8543 53.5712Z" fill="#3075FF"/>
<defs>
<filter id="filter0_dd" x="290" y="0" width="124" height="124" filterUnits="userSpaceOnUse" color-interpolation-filters="sRGB">
<feFlood flood-opacity="0" result="BackgroundImageFix"/>
<feColorMatrix in="SourceAlpha" type="matrix" values="0 0 0 0 0 0 0 0 0 0 0 0 0 0 0 0 0 0 127 0"/>
<feOffset dy="4"/>
<feGaussianBlur stdDeviation="4"/>
<feColorMatrix type="matrix" values="0 0 0 0 0.00755134 0 0 0 0 0.0324193 0 0 0 0 0.0786026 0 0 0 0.1 0"/>
<feBlend mode="normal" in2="BackgroundImageFix" result="effect1_dropShadow"/>
<feColorMatrix in="SourceAlpha" type="matrix" values="0 0 0 0 0 0 0 0 0 0 0 0 0 0 0 0 0 0 127 0"/>
<feOffset dy="2"/>
<feGaussianBlur stdDeviation="2"/>
<feColorMatrix type="matrix" values="0 0 0 0 0.00755134 0 0 0 0 0.0324193 0 0 0 0 0.0786026 0 0 0 0.03 0"/>
<feBlend mode="normal" in2="effect1_dropShadow" result="effect2_dropShadow"/>
<feBlend mode="normal" in="SourceGraphic" in2="effect2_dropShadow" result="shape"/>
</filter>
<filter id="filter1_dd" x="285.483" y="252.742" width="133.033" height="133.033" filterUnits="userSpaceOnUse" color-interpolation-filters="sRGB">
<feFlood flood-opacity="0" result="BackgroundImageFix"/>
<feColorMatrix in="SourceAlpha" type="matrix" values="0 0 0 0 0 0 0 0 0 0 0 0 0 0 0 0 0 0 127 0"/>
<feOffset dy="6.25826"/>
<feGaussianBlur stdDeviation="6.25826"/>
<feColorMatrix type="matrix" values="0 0 0 0 0.00755134 0 0 0 0 0.0324193 0 0 0 0 0.0786026 0 0 0 0.1 0"/>
<feBlend mode="normal" in2="BackgroundImageFix" result="effect1_dropShadow"/>
<feColorMatrix in="SourceAlpha" type="matrix" values="0 0 0 0 0 0 0 0 0 0 0 0 0 0 0 0 0 0 127 0"/>
<feOffset dy="1.56457"/>
<feGaussianBlur stdDeviation="3.12913"/>
<feColorMatrix type="matrix" values="0 0 0 0 0.00755134 0 0 0 0 0.0324193 0 0 0 0 0.0786026 0 0 0 0.08 0"/>
<feBlend mode="normal" in2="effect1_dropShadow" result="effect2_dropShadow"/>
<feBlend mode="normal" in="SourceGraphic" in2="effect2_dropShadow" result="shape"/>
</filter>
<filter id="filter2_dd" x="24" y="255" width="124" height="124" filterUnits="userSpaceOnUse" color-interpolation-filters="sRGB">
<feFlood flood-opacity="0" result="BackgroundImageFix"/>
<feColorMatrix in="SourceAlpha" type="matrix" values="0 0 0 0 0 0 0 0 0 0 0 0 0 0 0 0 0 0 127 0"/>
<feOffset dy="4"/>
<feGaussianBlur stdDeviation="4"/>
<feColorMatrix type="matrix" values="0 0 0 0 0.00755134 0 0 0 0 0.0324193 0 0 0 0 0.0786026 0 0 0 0.1 0"/>
<feBlend mode="normal" in2="BackgroundImageFix" result="effect1_dropShadow"/>
<feColorMatrix in="SourceAlpha" type="matrix" values="0 0 0 0 0 0 0 0 0 0 0 0 0 0 0 0 0 0 127 0"/>
<feOffset dy="2"/>
<feGaussianBlur stdDeviation="2"/>
<feColorMatrix type="matrix" values="0 0 0 0 0.00755134 0 0 0 0 0.0324193 0 0 0 0 0.0786026 0 0 0 0.03 0"/>
<feBlend mode="normal" in2="effect1_dropShadow" result="effect2_dropShadow"/>
<feBlend mode="normal" in="SourceGraphic" in2="effect2_dropShadow" result="shape"/>
</filter>
<filter id="filter3_dd" x="24" y="1" width="124" height="124" filterUnits="userSpaceOnUse" color-interpolation-filters="sRGB">
<feFlood flood-opacity="0" result="BackgroundImageFix"/>
<feColorMatrix in="SourceAlpha" type="matrix" values="0 0 0 0 0 0 0 0 0 0 0 0 0 0 0 0 0 0 127 0"/>
<feOffset dy="4"/>
<feGaussianBlur stdDeviation="4"/>
<feColorMatrix type="matrix" values="0 0 0 0 0.00755134 0 0 0 0 0.0324193 0 0 0 0 0.0786026 0 0 0 0.1 0"/>
<feBlend mode="normal" in2="BackgroundImageFix" result="effect1_dropShadow"/>
<feColorMatrix in="SourceAlpha" type="matrix" values="0 0 0 0 0 0 0 0 0 0 0 0 0 0 0 0 0 0 127 0"/>
<feOffset dy="2"/>
<feGaussianBlur stdDeviation="2"/>
<feColorMatrix type="matrix" values="0 0 0 0 0.00755134 0 0 0 0 0.0324193 0 0 0 0 0.0786026 0 0 0 0.03 0"/>
<feBlend mode="normal" in2="effect1_dropShadow" result="effect2_dropShadow"/>
<feBlend mode="normal" in="SourceGraphic" in2="effect2_dropShadow" result="shape"/>
</filter>
</defs>
</svg>
