<svg width="529" height="806" viewBox="0 0 529 806" fill="none" xmlns="http://www.w3.org/2000/svg"><path d="M195.293 266.707a.999.999 0 001.414 0l6.364-6.364a.999.999 0 10-1.414-1.414L196 264.586l-5.657-5.657a.999.999 0 10-1.414 1.414l6.364 6.364zM195 142v124h2V142h-2zm131.293 124.707a.999.999 0 001.414 0l6.364-6.364a.999.999 0 10-1.414-1.414L327 264.586l-5.657-5.657a.999.999 0 10-1.414 1.414l6.364 6.364zM326 142v124h2V142h-2z" fill="#CED6E0"/><path d="M261 79v63" stroke="#CED6E0" stroke-width="2" stroke-linecap="round"/><path d="M64.293 266.707a1 1 0 001.414 0l6.364-6.364a1 1 0 10-1.414-1.414L65 264.586l-5.657-5.657a1 1 0 10-1.414 1.414l6.364 6.364zm391-.219a1 1 0 001.414 0l6.364-6.364a.999.999 0 10-1.414-1.414L456 264.366l-5.657-5.656a.999.999 0 10-1.414 1.414l6.364 6.364zM64 150v116h2V150h-2zm9-7h375v-2H73v2zm382 7v115.781h2V150h-2zm-7-7a7 7 0 017 7h2a9 9 0 00-9-9v2zm-382 7a7 7 0 017-7v-2a9 9 0 00-9 9h2z" fill="#CED6E0"/><g filter="url(#filter0_dd)"><rect x="401" y="278" width="115" height="70" rx="6" fill="#fff"/></g><path d="M423.243 332c3.185 0 4.953-1.898 4.953-4.615 0-2.717-1.768-4.615-4.953-4.615h-3.133V332h3.133zm3.289-4.615c0 1.911-1.066 3.159-3.341 3.159h-1.508v-6.318h1.508c2.275 0 3.341 1.248 3.341 3.159zm9.411 1.69s.013-.234.013-.481c0-1.976-1.313-3.497-3.315-3.497s-3.354 1.56-3.354 3.523c0 2.015 1.326 3.536 3.367 3.536 1.573 0 2.769-.949 3.172-2.288h-1.56c-.247.598-.858.962-1.573.962-1.079 0-1.768-.689-1.885-1.755h5.135zm-3.302-2.717c1.001 0 1.651.637 1.781 1.573h-3.588c.156-.923.806-1.573 1.807-1.573zm7.045 5.798c1.885 0 2.821-.962 2.821-2.106 0-2.73-3.874-1.573-3.874-2.886 0-.494.39-.806 1.157-.806.793 0 1.157.494 1.209.975h1.482c-.065-.91-.715-2.236-2.652-2.236-1.664 0-2.678.988-2.678 2.119 0 2.743 3.874 1.469 3.874 2.899 0 .468-.442.767-1.248.767-.949 0-1.417-.455-1.456-1.04h-1.495c.078 1.235.884 2.314 2.86 2.314zm8.631-6.903l-2.873 3.289v-6.292h-1.547V332h1.547v-1.612l1.183-1.274 1.989 2.886h1.846l-2.808-3.9 2.613-2.847h-1.95zm5.947 5.369s-.221.065-.481.065c-.533 0-.754-.26-.754-.793v-3.406h1.261v-1.235h-1.261v-1.755h-1.547v1.755h-1.027v1.235h1.027v3.562c0 1.274.598 1.989 1.976 1.989.52 0 .806-.078.806-.078v-1.339zm4.177 1.534c2.158 0 3.51-1.625 3.51-3.523 0-1.898-1.352-3.536-3.51-3.536-2.145 0-3.497 1.638-3.497 3.536 0 1.898 1.352 3.523 3.497 3.523zm-1.95-3.523c0-1.313.832-2.171 1.95-2.171 1.131 0 1.963.858 1.963 2.171 0 1.3-.832 2.158-1.963 2.158-1.118 0-1.95-.858-1.95-2.158zm8.44 2.483c.377.585 1.118 1.04 2.158 1.04 2.002 0 3.133-1.599 3.133-3.523 0-1.937-1.131-3.536-3.133-3.536-1.04 0-1.833.429-2.275 1.118v-.962h-1.43v9.451h1.547v-3.588zm-.052-2.483c0-1.248.715-2.197 1.898-2.197 1.17 0 1.898.949 1.898 2.197 0 1.209-.728 2.158-1.898 2.158-1.183 0-1.898-.949-1.898-2.158zm14.307.195v.429c0 .91-.611 1.69-1.859 1.69-.741 0-1.196-.247-1.196-.884 0-.468.312-.819 1.261-.962l1.794-.273zm-2.171 3.328c1.079 0 1.859-.351 2.314-1.04 0 .546.078.884.091.884h1.469c-.117-.273-.195-.832-.195-1.274v-3.107c0-1.547-.936-2.522-2.912-2.522-2.041 0-2.847 1.092-2.977 2.275h1.508c.104-.624.585-1.001 1.43-1.001.923 0 1.443.416 1.443 1.235v.104l-1.95.273c-1.781.247-2.587.988-2.587 2.132 0 1.157.689 2.041 2.366 2.041zm7.061-1.04c.377.585 1.118 1.04 2.158 1.04 2.002 0 3.133-1.599 3.133-3.523 0-1.937-1.131-3.536-3.133-3.536-1.04 0-1.833.429-2.275 1.118v-.962h-1.43v9.451h1.547v-3.588zm-.052-2.483c0-1.248.715-2.197 1.898-2.197 1.17 0 1.898.949 1.898 2.197 0 1.209-.728 2.158-1.898 2.158-1.183 0-1.898-.949-1.898-2.158zm8.177 2.483c.377.585 1.118 1.04 2.158 1.04 2.002 0 3.133-1.599 3.133-3.523 0-1.937-1.131-3.536-3.133-3.536-1.04 0-1.833.429-2.275 1.118v-.962h-1.43v9.451h1.547v-3.588zm-.052-2.483c0-1.248.715-2.197 1.898-2.197 1.17 0 1.898.949 1.898 2.197 0 1.209-.728 2.158-1.898 2.158-1.183 0-1.898-.949-1.898-2.158z" fill="#2F3A48"/><circle cx="458" cy="305" r="10" fill="#BB6BD9"/><path d="M463.857 299h-11.714c-.629 0-1.143.514-1.143 1.143v8.571c0 .629.514 1.143 1.143 1.143h4.714l-1.143 1.286V312h4.572v-.857l-1.143-1.286h4.714c.629 0 1.143-.514 1.143-1.143v-8.571c0-.629-.514-1.143-1.143-1.143zm0 9.464h-11.714v-8.321h11.714v8.321z" fill="#fff"/><path d="M158.969 332l.663-1.781h4.134l.663 1.781h1.716l-3.588-9.23h-1.677l-3.575 9.23h1.664zm2.743-7.28l1.534 4.069h-3.094l1.534-4.069h.026zm6.795.533h-1.43V332h1.547v-3.913c0-1.053.611-1.664 1.586-1.664.923 0 1.339.611 1.339 1.534V332h1.547v-4.238c0-1.573-.871-2.665-2.509-2.665-1.105 0-1.794.52-2.08 1.053v-.897zm11.239.884c-.377-.572-1.105-1.04-2.158-1.04-1.989 0-3.12 1.599-3.12 3.536 0 1.924 1.131 3.523 3.12 3.523 1.053 0 1.846-.416 2.275-1.118V332h1.43v-9.75h-1.547v3.887zm.065 2.496c0 1.209-.715 2.158-1.898 2.158-1.17 0-1.898-.949-1.898-2.158 0-1.235.728-2.171 1.898-2.171 1.183 0 1.898.936 1.898 2.171zm7.003-3.432s-.156-.013-.221-.013c-1.17 0-1.742.572-1.989 1.001v-.936h-1.43V332h1.547v-3.51c0-1.3.65-1.872 1.742-1.872.169 0 .351.026.351.026v-1.443zm3.884 6.955c2.158 0 3.51-1.625 3.51-3.523 0-1.898-1.352-3.536-3.51-3.536-2.145 0-3.497 1.638-3.497 3.536 0 1.898 1.352 3.523 3.497 3.523zm-1.95-3.523c0-1.313.832-2.171 1.95-2.171 1.131 0 1.963.858 1.963 2.171 0 1.3-.832 2.158-1.963 2.158-1.118 0-1.95-.858-1.95-2.158zm7.673-4.511c.559 0 .962-.39.962-.949 0-.572-.403-.975-.962-.975-.572 0-.975.403-.975.975 0 .559.403.949.975.949zm-.78 7.878h1.547v-6.747h-1.547V332zm8.251-5.863c-.377-.572-1.105-1.04-2.158-1.04-1.989 0-3.12 1.599-3.12 3.536 0 1.924 1.131 3.523 3.12 3.523 1.053 0 1.846-.416 2.275-1.118V332h1.43v-9.75h-1.547v3.887zm.065 2.496c0 1.209-.715 2.158-1.898 2.158-1.17 0-1.898-.949-1.898-2.158 0-1.235.728-2.171 1.898-2.171 1.183 0 1.898.936 1.898 2.171zm7.177 3.367l.663-1.781h4.134l.663 1.781h1.716l-3.588-9.23h-1.677L209.47 332h1.664zm2.743-7.28l1.534 4.069h-3.094l1.534-4.069h.026zm6.912 6.396c.377.585 1.118 1.04 2.158 1.04 2.002 0 3.133-1.599 3.133-3.523 0-1.937-1.131-3.536-3.133-3.536-1.04 0-1.833.429-2.275 1.118v-.962h-1.43v9.451h1.547v-3.588zm-.052-2.483c0-1.248.715-2.197 1.898-2.197 1.17 0 1.898.949 1.898 2.197 0 1.209-.728 2.158-1.898 2.158-1.183 0-1.898-.949-1.898-2.158zm8.177 2.483c.377.585 1.118 1.04 2.158 1.04 2.002 0 3.133-1.599 3.133-3.523 0-1.937-1.131-3.536-3.133-3.536-1.04 0-1.833.429-2.275 1.118v-.962h-1.43v9.451h1.547v-3.588zm-.052-2.483c0-1.248.715-2.197 1.898-2.197 1.17 0 1.898.949 1.898 2.197 0 1.209-.728 2.158-1.898 2.158-1.183 0-1.898-.949-1.898-2.158z" fill="#2F3A48"/><g filter="url(#filter1_dd)"><rect x="270" y="278" width="115" height="70" rx="6" fill="#fff"/></g><path d="M294.08 324.993h.026l2.067 7.007h1.69l2.873-9.23h-1.729l-1.95 7.007h-.026l-2.054-7.007h-1.729l-2.054 7.007h-.026l-1.937-7.007h-1.781l2.873 9.23h1.69l2.067-7.007zm13.339 4.082s.013-.234.013-.481c0-1.976-1.313-3.497-3.315-3.497s-3.354 1.56-3.354 3.523c0 2.015 1.326 3.536 3.367 3.536 1.573 0 2.769-.949 3.172-2.288h-1.56c-.247.598-.858.962-1.573.962-1.079 0-1.768-.689-1.885-1.755h5.135zm-3.302-2.717c1.001 0 1.651.637 1.781 1.573h-3.588c.156-.923.806-1.573 1.807-1.573zm6.277-.221v-3.887h-1.547V332h1.43v-.962c.442.702 1.235 1.118 2.275 1.118 2.002 0 3.133-1.599 3.133-3.523 0-1.937-1.131-3.536-3.133-3.536-1.04 0-1.781.468-2.158 1.04zm-.052 2.496c0-1.235.715-2.171 1.898-2.171 1.17 0 1.898.936 1.898 2.171 0 1.209-.728 2.158-1.898 2.158-1.183 0-1.898-.949-1.898-2.158zm9.084 3.523c1.885 0 2.821-.962 2.821-2.106 0-2.73-3.874-1.573-3.874-2.886 0-.494.39-.806 1.157-.806.793 0 1.157.494 1.209.975h1.482c-.065-.91-.715-2.236-2.652-2.236-1.664 0-2.678.988-2.678 2.119 0 2.743 3.874 1.469 3.874 2.899 0 .468-.442.767-1.248.767-.949 0-1.417-.455-1.456-1.04h-1.495c.078 1.235.884 2.314 2.86 2.314zm4.991-8.034c.559 0 .962-.39.962-.949 0-.572-.403-.975-.962-.975-.572 0-.975.403-.975.975 0 .559.403.949.975.949zm-.78 7.878h1.547v-6.747h-1.547V332zm6.444-1.378s-.221.065-.481.065c-.533 0-.754-.26-.754-.793v-3.406h1.261v-1.235h-1.261v-1.755h-1.547v1.755h-1.027v1.235h1.027v3.562c0 1.274.598 1.989 1.976 1.989.52 0 .806-.078.806-.078v-1.339zm7.337-1.547s.013-.234.013-.481c0-1.976-1.313-3.497-3.315-3.497s-3.354 1.56-3.354 3.523c0 2.015 1.326 3.536 3.367 3.536 1.573 0 2.769-.949 3.172-2.288h-1.56c-.247.598-.858.962-1.573.962-1.079 0-1.768-.689-1.885-1.755h5.135zm-3.302-2.717c1.001 0 1.651.637 1.781 1.573h-3.588c.156-.923.806-1.573 1.807-1.573zm4.08 5.642h1.56l3.757-9.23h-1.56l-3.757 9.23zm10.701-3.172v.429c0 .91-.611 1.69-1.859 1.69-.741 0-1.196-.247-1.196-.884 0-.468.312-.819 1.261-.962l1.794-.273zm-2.171 3.328c1.079 0 1.859-.351 2.314-1.04 0 .546.078.884.091.884h1.469c-.117-.273-.195-.832-.195-1.274v-3.107c0-1.547-.936-2.522-2.912-2.522-2.041 0-2.847 1.092-2.977 2.275h1.508c.104-.624.585-1.001 1.43-1.001.923 0 1.443.416 1.443 1.235v.104l-1.95.273c-1.781.247-2.587.988-2.587 2.132 0 1.157.689 2.041 2.366 2.041zm7.061-1.04c.377.585 1.118 1.04 2.158 1.04 2.002 0 3.133-1.599 3.133-3.523 0-1.937-1.131-3.536-3.133-3.536-1.04 0-1.833.429-2.275 1.118v-.962h-1.43v9.451h1.547v-3.588zm-.052-2.483c0-1.248.715-2.197 1.898-2.197 1.17 0 1.898.949 1.898 2.197 0 1.209-.728 2.158-1.898 2.158-1.183 0-1.898-.949-1.898-2.158zm8.177 2.483c.377.585 1.118 1.04 2.158 1.04 2.002 0 3.133-1.599 3.133-3.523 0-1.937-1.131-3.536-3.133-3.536-1.04 0-1.833.429-2.275 1.118v-.962h-1.43v9.451h1.547v-3.588zm-.052-2.483c0-1.248.715-2.197 1.898-2.197 1.17 0 1.898.949 1.898 2.197 0 1.209-.728 2.158-1.898 2.158-1.183 0-1.898-.949-1.898-2.158z" fill="#2F3A48"/><circle cx="327" cy="305" r="10" fill="#FF7B5E"/><path d="M332.857 299h-11.714c-.629 0-1.143.514-1.143 1.143v8.571c0 .629.514 1.143 1.143 1.143h4.714l-1.143 1.286V312h4.572v-.857l-1.143-1.286h4.714c.629 0 1.143-.514 1.143-1.143v-8.571c0-.629-.514-1.143-1.143-1.143zm0 9.464h-11.714v-8.321h11.714v8.321z" fill="#fff"/><g filter="url(#filter2_dd)"><rect x="139" y="278" width="115" height="70" rx="6" fill="#fff"/></g><circle cx="196" cy="305" r="10" fill="#45C567"/><path d="M192.182 308.719c0 .252.153.511.388.511h.975v1.895c0 .485.365.875.819.875.453 0 .818-.39.818-.875v-1.895h1.67v1.895c0 .274.116.518.3.678a.734.734 0 00.501.197h.017c.454 0 .819-.39.819-.875v-1.895h.941c.238 0 .388-.259.388-.507v-6.055h-7.636v6.051zm9-6.634c-.454 0-.818.39-.818.875v3.499c0 .485.364.875.818.875.453 0 .818-.39.818-.875v-3.499c0-.485-.365-.875-.818-.875zm-10.364 0c-.453 0-.818.39-.818.875v3.499c0 .485.365.875.818.875.454 0 .818-.39.818-.875v-3.499c0-.485-.364-.875-.818-.875zm7.064-3.168l.631-.799c.013-.018-.007-.058-.045-.091-.037-.029-.082-.036-.092-.014l-.654.831c-.464-.197-1.03-.321-1.725-.321-.699-.004-1.269.117-1.732.31l-.648-.817c-.014-.018-.055-.014-.092.015-.038.029-.058.066-.044.091l.624.787c-1.644.762-1.889 2.632-1.923 3.179h7.623c-.031-.55-.273-2.395-1.923-3.171zm-3.559 1.815a.475.475 0 01-.46-.485c0-.266.204-.485.46-.485.252 0 .46.219.46.485a.474.474 0 01-.46.485zm3.354 0a.476.476 0 01-.46-.485c0-.266.205-.485.46-.485.253 0 .461.219.461.485a.476.476 0 01-.461.485z" fill="#fff"/><g filter="url(#filter3_dd)"><rect x="8" y="278" width="115" height="70" rx="6" fill="#fff"/></g><path d="M41.364 324.122c.559 0 .962-.39.962-.949 0-.572-.404-.975-.962-.975-.572 0-.975.403-.975.975 0 .559.402.949.974.949zm-.78 7.878h1.546v-6.747h-1.547V332zm4.727-4.615c0-1.989 1.3-3.302 3.108-3.302 1.806 0 3.107 1.313 3.107 3.302s-1.3 3.302-3.108 3.302c-1.806 0-3.106-1.313-3.106-3.302zm-1.663 0c0 2.743 1.962 4.81 4.77 4.81 2.809 0 4.772-2.067 4.772-4.81 0-2.743-1.963-4.81-4.771-4.81s-4.771 2.067-4.771 4.81zm14.185 3.38c-1.248 0-1.91-.663-1.976-1.651h-1.56c.052 1.508 1.001 3.068 3.458 3.068 2.21 0 3.666-1.092 3.666-2.769 0-3.692-5.2-2.119-5.2-4.147 0-.819.663-1.274 1.742-1.274 1.183 0 1.794.728 1.807 1.638h1.547c-.039-1.729-1.183-3.055-3.354-3.055-2.054 0-3.302 1.261-3.302 2.73 0 3.692 5.161 1.924 5.161 4.173 0 .832-.728 1.287-1.989 1.287zM66.791 332l.663-1.781h4.134l.663 1.781h1.716l-3.588-9.23h-1.677L65.127 332h1.664zm2.743-7.28l1.534 4.069h-3.094l1.534-4.069h.026zm6.912 6.396c.377.585 1.118 1.04 2.158 1.04 2.002 0 3.133-1.599 3.133-3.523 0-1.937-1.131-3.536-3.133-3.536-1.04 0-1.833.429-2.275 1.118v-.962h-1.43v9.451h1.547v-3.588zm-.052-2.483c0-1.248.715-2.197 1.898-2.197 1.17 0 1.898.949 1.898 2.197 0 1.209-.728 2.158-1.898 2.158-1.183 0-1.898-.949-1.898-2.158zm8.177 2.483c.377.585 1.118 1.04 2.158 1.04 2.002 0 3.133-1.599 3.133-3.523 0-1.937-1.131-3.536-3.133-3.536-1.04 0-1.833.429-2.275 1.118v-.962h-1.43v9.451h1.547v-3.588zm-.052-2.483c0-1.248.715-2.197 1.898-2.197 1.17 0 1.898.949 1.898 2.197 0 1.209-.728 2.158-1.898 2.158-1.183 0-1.898-.949-1.898-2.158zm75.45 3.367l.663-1.781h4.134l.663 1.781h1.716l-3.588-9.23h-1.677l-3.575 9.23h1.664zm2.743-7.28l1.534 4.069h-3.094l1.534-4.069h.026zm6.795.533h-1.43V332h1.547v-3.913c0-1.053.611-1.664 1.586-1.664.923 0 1.339.611 1.339 1.534V332h1.547v-4.238c0-1.573-.871-2.665-2.509-2.665-1.105 0-1.794.52-2.08 1.053v-.897zm11.239.884c-.377-.572-1.105-1.04-2.158-1.04-1.989 0-3.12 1.599-3.12 3.536 0 1.924 1.131 3.523 3.12 3.523 1.053 0 1.846-.416 2.275-1.118V332h1.43v-9.75h-1.547v3.887zm.065 2.496c0 1.209-.715 2.158-1.898 2.158-1.17 0-1.898-.949-1.898-2.158 0-1.235.728-2.171 1.898-2.171 1.183 0 1.898.936 1.898 2.171zm7.003-3.432s-.156-.013-.221-.013c-1.17 0-1.742.572-1.989 1.001v-.936h-1.43V332h1.547v-3.51c0-1.3.65-1.872 1.742-1.872.169 0 .351.026.351.026v-1.443zm3.884 6.955c2.158 0 3.51-1.625 3.51-3.523 0-1.898-1.352-3.536-3.51-3.536-2.145 0-3.497 1.638-3.497 3.536 0 1.898 1.352 3.523 3.497 3.523zm-1.95-3.523c0-1.313.832-2.171 1.95-2.171 1.131 0 1.963.858 1.963 2.171 0 1.3-.832 2.158-1.963 2.158-1.118 0-1.95-.858-1.95-2.158zm7.673-4.511c.559 0 .962-.39.962-.949 0-.572-.403-.975-.962-.975-.572 0-.975.403-.975.975 0 .559.403.949.975.949zm-.78 7.878h1.547v-6.747h-1.547V332zm8.251-5.863c-.377-.572-1.105-1.04-2.158-1.04-1.989 0-3.12 1.599-3.12 3.536 0 1.924 1.131 3.523 3.12 3.523 1.053 0 1.846-.416 2.275-1.118V332h1.43v-9.75h-1.547v3.887zm.065 2.496c0 1.209-.715 2.158-1.898 2.158-1.17 0-1.898-.949-1.898-2.158 0-1.235.728-2.171 1.898-2.171 1.183 0 1.898.936 1.898 2.171zm7.177 3.367l.663-1.781h4.134l.663 1.781h1.716l-3.588-9.23h-1.677L210.47 332h1.664zm2.743-7.28l1.534 4.069h-3.094l1.534-4.069h.026zm6.912 6.396c.377.585 1.118 1.04 2.158 1.04 2.002 0 3.133-1.599 3.133-3.523 0-1.937-1.131-3.536-3.133-3.536-1.04 0-1.833.429-2.275 1.118v-.962h-1.43v9.451h1.547v-3.588zm-.052-2.483c0-1.248.715-2.197 1.898-2.197 1.17 0 1.898.949 1.898 2.197 0 1.209-.728 2.158-1.898 2.158-1.183 0-1.898-.949-1.898-2.158zm8.177 2.483c.377.585 1.118 1.04 2.158 1.04 2.002 0 3.133-1.599 3.133-3.523 0-1.937-1.131-3.536-3.133-3.536-1.04 0-1.833.429-2.275 1.118v-.962h-1.43v9.451h1.547v-3.588zm-.052-2.483c0-1.248.715-2.197 1.898-2.197 1.17 0 1.898.949 1.898 2.197 0 1.209-.728 2.158-1.898 2.158-1.183 0-1.898-.949-1.898-2.158z" fill="#2F3A48"/><circle cx="65" cy="305" r="10" fill="#5595F6"/><path d="M67.425 300.808c-1.05 0-1.493.516-2.225.516-.75 0-1.321-.513-2.23-.513-.891 0-1.841.56-2.444 1.513-.847 1.343-.703 3.874.668 6.03.491.771 1.147 1.637 2.006 1.646h.016c.747 0 .969-.503 1.997-.509h.016c1.012 0 1.215.506 1.959.506h.015c.86-.009 1.55-.969 2.04-1.737.354-.553.485-.831.757-1.456-1.984-.775-2.303-3.668-.34-4.777-.6-.772-1.441-1.219-2.235-1.219z" fill="#fff"/><path d="M67.194 298c-.625.044-1.353.453-1.78.987-.388.485-.707 1.203-.582 1.9h.05c.665 0 1.347-.413 1.744-.941.384-.503.674-1.215.568-1.946z" fill="#fff"/><g filter="url(#filter4_dd)"><rect x="270" y="167" width="115" height="70" rx="6" fill="#fff"/></g><path d="M301.019 212.993h.026l2.067 7.007h1.69l2.873-9.23h-1.729l-1.95 7.007h-.026l-2.054-7.007h-1.729l-2.054 7.007h-.026l-1.937-7.007h-1.781l2.873 9.23h1.69l2.067-7.007zm13.339 4.082s.013-.234.013-.481c0-1.976-1.313-3.497-3.315-3.497s-3.354 1.56-3.354 3.523c0 2.015 1.326 3.536 3.367 3.536 1.573 0 2.769-.949 3.172-2.288h-1.56c-.247.598-.858.962-1.573.962-1.079 0-1.768-.689-1.885-1.755h5.135zm-3.302-2.717c1.001 0 1.651.637 1.781 1.573h-3.588c.156-.923.806-1.573 1.807-1.573zm6.278-.221v-3.887h-1.547V220h1.43v-.962c.442.702 1.235 1.118 2.275 1.118 2.002 0 3.133-1.599 3.133-3.523 0-1.937-1.131-3.536-3.133-3.536-1.04 0-1.781.468-2.158 1.04zm-.052 2.496c0-1.235.715-2.171 1.898-2.171 1.17 0 1.898.936 1.898 2.171 0 1.209-.728 2.158-1.898 2.158-1.183 0-1.898-.949-1.898-2.158zm16.217-5.863h-6.929v1.495h2.678V220h1.573v-7.735h2.678v-1.495zm6.237 6.305s.013-.234.013-.481c0-1.976-1.313-3.497-3.315-3.497s-3.354 1.56-3.354 3.523c0 2.015 1.326 3.536 3.367 3.536 1.573 0 2.769-.949 3.172-2.288h-1.56c-.247.598-.858.962-1.573.962-1.079 0-1.768-.689-1.885-1.755h5.135zm-3.302-2.717c1.001 0 1.651.637 1.781 1.573h-3.588c.156-.923.806-1.573 1.807-1.573zm8.891 2.47v.429c0 .91-.611 1.69-1.859 1.69-.741 0-1.196-.247-1.196-.884 0-.468.312-.819 1.261-.962l1.794-.273zm-2.171 3.328c1.079 0 1.859-.351 2.314-1.04 0 .546.078.884.091.884h1.469c-.117-.273-.195-.832-.195-1.274v-3.107c0-1.547-.936-2.522-2.912-2.522-2.041 0-2.847 1.092-2.977 2.275h1.508c.104-.624.585-1.001 1.43-1.001.923 0 1.443.416 1.443 1.235v.104l-1.95.273c-1.781.247-2.587.988-2.587 2.132 0 1.157.689 2.041 2.366 2.041zm11.389-4.03c0-1.092.598-1.703 1.521-1.703.936 0 1.274.663 1.274 1.534V220h1.547v-4.238c0-1.534-.832-2.665-2.457-2.665-1.04 0-1.768.416-2.288 1.066-.377-.65-1.053-1.066-2.028-1.066-1.079 0-1.729.52-2.015 1.053v-.897h-1.43V220h1.547v-3.926c0-1.027.585-1.651 1.508-1.651s1.274.65 1.274 1.534V220h1.547v-3.874z" fill="#2F3A48"/><circle cx="327" cy="191" r="10" fill="#E7F4FF"/><mask id="a" maskUnits="userSpaceOnUse" x="317" y="181" width="20" height="20"><circle cx="327" cy="191" r="10" fill="#C4C4C4"/></mask><g mask="url(#a)"><path d="M330.903 193.25a3.14 3.14 0 003.136-3.125 3.14 3.14 0 00-3.136-3.125c-1.725 0-3.137 1.406-3.137 3.125s1.412 3.125 3.137 3.125zm-8.364 0a3.14 3.14 0 003.136-3.125 3.14 3.14 0 00-3.136-3.125 3.14 3.14 0 00-3.136 3.125 3.14 3.14 0 003.136 3.125zm0 2.292c-2.457 0-7.318 1.197-7.318 3.646V202h14.786v-2.812c0-2.449-5.011-3.646-7.468-3.646zm8.364.573c-.314 0-.53 0-.896.052 1.202.885 1.643 1.458 1.643 3.021V202h6.571v-2.812c0-2.449-4.861-3.073-7.318-3.073z" fill="#639CFF"/></g><g filter="url(#filter5_dd)"><rect x="401" y="167" width="115" height="70" rx="6" fill="#fff"/></g><path d="M418.058 220c3.185 0 4.953-1.898 4.953-4.615 0-2.717-1.768-4.615-4.953-4.615h-3.133V220h3.133zm3.289-4.615c0 1.911-1.066 3.159-3.341 3.159h-1.508v-6.318h1.508c2.275 0 3.341 1.248 3.341 3.159zm9.411 1.69s.013-.234.013-.481c0-1.976-1.313-3.497-3.315-3.497s-3.354 1.56-3.354 3.523c0 2.015 1.326 3.536 3.367 3.536 1.573 0 2.769-.949 3.172-2.288h-1.56c-.247.598-.858.962-1.573.962-1.079 0-1.768-.689-1.885-1.755h5.135zm-3.302-2.717c1.001 0 1.651.637 1.781 1.573h-3.588c.156-.923.806-1.573 1.807-1.573zm7.045 5.798c1.885 0 2.821-.962 2.821-2.106 0-2.73-3.874-1.573-3.874-2.886 0-.494.39-.806 1.157-.806.793 0 1.157.494 1.209.975h1.482c-.065-.91-.715-2.236-2.652-2.236-1.664 0-2.678.988-2.678 2.119 0 2.743 3.874 1.469 3.874 2.899 0 .468-.442.767-1.248.767-.949 0-1.417-.455-1.456-1.04h-1.495c.078 1.235.884 2.314 2.86 2.314zm8.631-6.903l-2.873 3.289v-6.292h-1.547V220h1.547v-1.612l1.183-1.274 1.989 2.886h1.846l-2.808-3.9 2.613-2.847h-1.95zm5.947 5.369s-.221.065-.481.065c-.533 0-.754-.26-.754-.793v-3.406h1.261v-1.235h-1.261v-1.755h-1.547v1.755h-1.027v1.235h1.027v3.562c0 1.274.598 1.989 1.976 1.989.52 0 .806-.078.806-.078v-1.339zm4.178 1.534c2.158 0 3.51-1.625 3.51-3.523 0-1.898-1.352-3.536-3.51-3.536-2.145 0-3.497 1.638-3.497 3.536 0 1.898 1.352 3.523 3.497 3.523zm-1.95-3.523c0-1.313.832-2.171 1.95-2.171 1.131 0 1.963.858 1.963 2.171 0 1.3-.832 2.158-1.963 2.158-1.118 0-1.95-.858-1.95-2.158zm8.44 2.483c.377.585 1.118 1.04 2.158 1.04 2.002 0 3.133-1.599 3.133-3.523 0-1.937-1.131-3.536-3.133-3.536-1.04 0-1.833.429-2.275 1.118v-.962h-1.43v9.451h1.547v-3.588zm-.052-2.483c0-1.248.715-2.197 1.898-2.197 1.17 0 1.898.949 1.898 2.197 0 1.209-.728 2.158-1.898 2.158-1.183 0-1.898-.949-1.898-2.158zm16.217-5.863h-6.929v1.495h2.678V220h1.573v-7.735h2.678v-1.495zm6.237 6.305s.013-.234.013-.481c0-1.976-1.313-3.497-3.315-3.497s-3.354 1.56-3.354 3.523c0 2.015 1.326 3.536 3.367 3.536 1.573 0 2.769-.949 3.172-2.288h-1.56c-.247.598-.858.962-1.573.962-1.079 0-1.768-.689-1.885-1.755h5.135zm-3.302-2.717c1.001 0 1.651.637 1.781 1.573h-3.588c.156-.923.806-1.573 1.807-1.573zm8.891 2.47v.429c0 .91-.611 1.69-1.859 1.69-.741 0-1.196-.247-1.196-.884 0-.468.312-.819 1.261-.962l1.794-.273zm-2.171 3.328c1.079 0 1.859-.351 2.314-1.04 0 .546.078.884.091.884h1.469c-.117-.273-.195-.832-.195-1.274v-3.107c0-1.547-.936-2.522-2.912-2.522-2.041 0-2.847 1.092-2.977 2.275h1.508c.104-.624.585-1.001 1.43-1.001.923 0 1.443.416 1.443 1.235v.104l-1.95.273c-1.781.247-2.587.988-2.587 2.132 0 1.157.689 2.041 2.366 2.041zm11.39-4.03c0-1.092.598-1.703 1.521-1.703.936 0 1.274.663 1.274 1.534V220h1.547v-4.238c0-1.534-.832-2.665-2.457-2.665-1.04 0-1.768.416-2.288 1.066-.377-.65-1.053-1.066-2.028-1.066-1.079 0-1.729.52-2.015 1.053v-.897h-1.43V220h1.547v-3.926c0-1.027.585-1.651 1.508-1.651s1.274.65 1.274 1.534V220h1.547v-3.874z" fill="#2F3A48"/><circle cx="458" cy="191" r="10" fill="#E7F4FF"/><mask id="b" maskUnits="userSpaceOnUse" x="448" y="181" width="20" height="20"><circle cx="458" cy="191" r="10" fill="#C4C4C4"/></mask><g mask="url(#b)"><path d="M461.903 193.25a3.14 3.14 0 003.136-3.125 3.14 3.14 0 00-3.136-3.125c-1.725 0-3.137 1.406-3.137 3.125s1.412 3.125 3.137 3.125zm-8.364 0a3.14 3.14 0 003.136-3.125 3.14 3.14 0 00-3.136-3.125 3.14 3.14 0 00-3.136 3.125 3.14 3.14 0 003.136 3.125zm0 2.292c-2.457 0-7.318 1.197-7.318 3.646V202h14.786v-2.812c0-2.449-5.011-3.646-7.468-3.646zm8.364.573c-.314 0-.53 0-.896.052 1.202.885 1.643 1.458 1.643 3.021V202h6.571v-2.812c0-2.449-4.861-3.073-7.318-3.073z" fill="#639CFF"/></g><g filter="url(#filter6_dd)"><rect x="139" y="167" width="115" height="70" rx="6" fill="#fff"/></g><path d="M154.805 220l.663-1.781h4.134l.663 1.781h1.716l-3.588-9.23h-1.677l-3.575 9.23h1.664zm2.743-7.28l1.534 4.069h-3.094l1.534-4.069h.026zm6.795.533h-1.43V220h1.547v-3.913c0-1.053.611-1.664 1.586-1.664.923 0 1.339.611 1.339 1.534V220h1.547v-4.238c0-1.573-.871-2.665-2.509-2.665-1.105 0-1.794.52-2.08 1.053v-.897zm11.239.884c-.377-.572-1.105-1.04-2.158-1.04-1.989 0-3.12 1.599-3.12 3.536 0 1.924 1.131 3.523 3.12 3.523 1.053 0 1.846-.416 2.275-1.118V220h1.43v-9.75h-1.547v3.887zm.065 2.496c0 1.209-.715 2.158-1.898 2.158-1.17 0-1.898-.949-1.898-2.158 0-1.235.728-2.171 1.898-2.171 1.183 0 1.898.936 1.898 2.171zm7.003-3.432s-.156-.013-.221-.013c-1.17 0-1.742.572-1.989 1.001v-.936h-1.43V220h1.547v-3.51c0-1.3.65-1.872 1.742-1.872.169 0 .351.026.351.026v-1.443zm3.884 6.955c2.158 0 3.51-1.625 3.51-3.523 0-1.898-1.352-3.536-3.51-3.536-2.145 0-3.497 1.638-3.497 3.536 0 1.898 1.352 3.523 3.497 3.523zm-1.95-3.523c0-1.313.832-2.171 1.95-2.171 1.131 0 1.963.858 1.963 2.171 0 1.3-.832 2.158-1.963 2.158-1.118 0-1.95-.858-1.95-2.158zm7.673-4.511c.559 0 .962-.39.962-.949 0-.572-.403-.975-.962-.975-.572 0-.975.403-.975.975 0 .559.403.949.975.949zm-.78 7.878h1.547v-6.747h-1.547V220zm8.251-5.863c-.377-.572-1.105-1.04-2.158-1.04-1.989 0-3.12 1.599-3.12 3.536 0 1.924 1.131 3.523 3.12 3.523 1.053 0 1.846-.416 2.275-1.118V220h1.43v-9.75h-1.547v3.887zm.065 2.496c0 1.209-.715 2.158-1.898 2.158-1.17 0-1.898-.949-1.898-2.158 0-1.235.728-2.171 1.898-2.171 1.183 0 1.898.936 1.898 2.171zm12.812-5.863h-6.929v1.495h2.678V220h1.573v-7.735h2.678v-1.495zm6.236 6.305s.013-.234.013-.481c0-1.976-1.313-3.497-3.315-3.497s-3.354 1.56-3.354 3.523c0 2.015 1.326 3.536 3.367 3.536 1.573 0 2.769-.949 3.172-2.288h-1.56c-.247.598-.858.962-1.573.962-1.079 0-1.768-.689-1.885-1.755h5.135zm-3.302-2.717c1.001 0 1.651.637 1.781 1.573h-3.588c.156-.923.806-1.573 1.807-1.573zm8.891 2.47v.429c0 .91-.611 1.69-1.859 1.69-.741 0-1.196-.247-1.196-.884 0-.468.312-.819 1.261-.962l1.794-.273zm-2.171 3.328c1.079 0 1.859-.351 2.314-1.04 0 .546.078.884.091.884h1.469c-.117-.273-.195-.832-.195-1.274v-3.107c0-1.547-.936-2.522-2.912-2.522-2.041 0-2.847 1.092-2.977 2.275h1.508c.104-.624.585-1.001 1.43-1.001.923 0 1.443.416 1.443 1.235v.104l-1.95.273c-1.781.247-2.587.988-2.587 2.132 0 1.157.689 2.041 2.366 2.041zm11.39-4.03c0-1.092.598-1.703 1.521-1.703.936 0 1.274.663 1.274 1.534V220h1.547v-4.238c0-1.534-.832-2.665-2.457-2.665-1.04 0-1.768.416-2.288 1.066-.377-.65-1.053-1.066-2.028-1.066-1.079 0-1.729.52-2.015 1.053v-.897h-1.43V220h1.547v-3.926c0-1.027.585-1.651 1.508-1.651s1.274.65 1.274 1.534V220h1.547v-3.874z" fill="#2F3A48"/><circle cx="196" cy="191" r="10" fill="#E7F4FF"/><mask id="c" maskUnits="userSpaceOnUse" x="186" y="181" width="20" height="20"><circle cx="196" cy="191" r="10" fill="#C4C4C4"/></mask><g mask="url(#c)"><path d="M200.182 192.25a3.14 3.14 0 003.136-3.125 3.14 3.14 0 00-3.136-3.125c-1.725 0-3.137 1.406-3.137 3.125s1.412 3.125 3.137 3.125zm-8.364 0c1.725 0 3.137-1.406 3.137-3.125S193.543 186 191.818 186a3.14 3.14 0 00-3.136 3.125 3.14 3.14 0 003.136 3.125zm0 2.292c-2.457 0-7.318 1.197-7.318 3.646V201h14.786v-2.812c0-2.449-5.011-3.646-7.468-3.646zm8.364.573c-.314 0-.53 0-.896.052 1.202.885 1.643 1.458 1.643 3.021V201h6.571v-2.812c0-2.449-4.861-3.073-7.318-3.073z" fill="#639CFF"/></g><g filter="url(#filter7_dd)"><rect x="8" y="167" width="115" height="70" rx="6" fill="#fff"/></g><path d="M37.2 212.122c.558 0 .961-.39.961-.949 0-.572-.403-.975-.962-.975-.572 0-.975.403-.975.975 0 .559.403.949.975.949zM36.42 220h1.546v-6.747H36.42V220zm4.727-4.615c0-1.989 1.3-3.302 3.107-3.302 1.807 0 3.107 1.313 3.107 3.302s-1.3 3.302-3.107 3.302c-1.807 0-3.107-1.313-3.107-3.302zm-1.664 0c0 2.743 1.963 4.81 4.771 4.81s4.771-2.067 4.771-4.81c0-2.743-1.963-4.81-4.77-4.81-2.809 0-4.772 2.067-4.772 4.81zm14.186 3.38c-1.248 0-1.91-.663-1.976-1.651h-1.56c.052 1.508 1.001 3.068 3.458 3.068 2.21 0 3.666-1.092 3.666-2.769 0-3.692-5.2-2.119-5.2-4.147 0-.819.663-1.274 1.742-1.274 1.183 0 1.794.728 1.807 1.638h1.547c-.039-1.729-1.183-3.055-3.354-3.055-2.054 0-3.302 1.261-3.302 2.73 0 3.692 5.161 1.924 5.161 4.173 0 .832-.728 1.287-1.989 1.287zm14.593-7.995h-6.93v1.495h2.679V220h1.573v-7.735h2.678v-1.495zm6.237 6.305s.013-.234.013-.481c0-1.976-1.313-3.497-3.315-3.497s-3.354 1.56-3.354 3.523c0 2.015 1.326 3.536 3.367 3.536 1.573 0 2.769-.949 3.172-2.288h-1.56c-.247.598-.858.962-1.573.962-1.08 0-1.768-.689-1.885-1.755h5.135zm-3.302-2.717c1 0 1.65.637 1.78 1.573H69.39c.156-.923.806-1.573 1.807-1.573zm8.89 2.47v.429c0 .91-.61 1.69-1.859 1.69-.74 0-1.196-.247-1.196-.884 0-.468.312-.819 1.261-.962l1.794-.273zm-2.17 3.328c1.078 0 1.858-.351 2.313-1.04 0 .546.078.884.091.884h1.47c-.118-.273-.196-.832-.196-1.274v-3.107c0-1.547-.936-2.522-2.912-2.522-2.04 0-2.847 1.092-2.977 2.275h1.508c.104-.624.585-1.001 1.43-1.001.923 0 1.443.416 1.443 1.235v.104l-1.95.273c-1.78.247-2.587.988-2.587 2.132 0 1.157.69 2.041 2.366 2.041zm11.39-4.03c0-1.092.597-1.703 1.52-1.703.936 0 1.274.663 1.274 1.534V220h1.547v-4.238c0-1.534-.832-2.665-2.457-2.665-1.04 0-1.768.416-2.288 1.066-.377-.65-1.053-1.066-2.028-1.066-1.079 0-1.729.52-2.015 1.053v-.897h-1.43V220h1.547v-3.926c0-1.027.585-1.651 1.508-1.651s1.274.65 1.274 1.534V220h1.547v-3.874z" fill="#2F3A48"/><circle cx="65" cy="191" r="10" fill="#E7F4FF"/><mask id="d" maskUnits="userSpaceOnUse" x="55" y="181" width="20" height="20"><circle cx="65" cy="191" r="10" fill="#C4C4C4"/></mask><g mask="url(#d)"><path d="M69.182 192.25a3.14 3.14 0 003.136-3.125A3.14 3.14 0 0069.182 186a3.14 3.14 0 00-3.136 3.125 3.14 3.14 0 003.136 3.125zm-8.364 0a3.14 3.14 0 003.137-3.125A3.14 3.14 0 0060.818 186a3.14 3.14 0 00-3.136 3.125 3.14 3.14 0 003.136 3.125zm0 2.292c-2.457 0-7.318 1.197-7.318 3.646V201h14.786v-2.812c0-2.449-5.01-3.646-7.468-3.646zm8.364.573c-.314 0-.53 0-.896.052 1.202.885 1.643 1.458 1.643 3.021V201H76.5v-2.812c0-2.449-4.861-3.073-7.318-3.073z" fill="#639CFF"/></g><g filter="url(#filter8_dd)"><rect x="154" y="67" width="214" height="50" rx="6" fill="#fff"/></g><path d="M178.76 96c3.146 0 4.862-1.937 4.862-4.615s-1.716-4.615-4.862-4.615h-3.315V96h3.315zm2.86-4.615c0 1.729-.897 2.873-2.912 2.873h-1.365v-5.746h1.365c2.015 0 2.912 1.144 2.912 2.873zm10.817 2.873h-4.745v-2.067h4.55v-1.742h-4.55v-1.937h4.745V86.77h-6.643V96h6.643v-1.742zm8.213-7.488l-2.353 6.708h-.026l-2.353-6.708h-2.132l3.497 9.23h1.95l3.497-9.23h-2.08zm10.404 7.488h-4.745v-2.067h4.55v-1.742h-4.55v-1.937h4.745V86.77h-6.643V96h6.643v-1.742zm8.264 0h-4.095V86.77h-1.898V96h5.993v-1.742zm10.5-2.873c0-2.769-2.002-4.81-4.797-4.81s-4.797 2.041-4.797 4.81c0 2.769 2.002 4.81 4.797 4.81s4.797-2.041 4.797-4.81zm-2.002 0c0 1.82-1.157 3.003-2.795 3.003s-2.795-1.183-2.795-3.003 1.157-3.003 2.795-3.003 2.795 1.183 2.795 3.003zm6.074-.624v-2.249h2.054c.871 0 1.248.468 1.248 1.131s-.377 1.118-1.248 1.118h-2.054zm0 1.742h2.054c2.145 0 3.146-1.248 3.146-2.86 0-1.612-.923-2.873-3.146-2.873h-3.952V96h1.898v-3.497zm8.848-5.733h-1.742V96h1.82v-6.292l2.6 3.341h.052l2.6-3.341V96h1.82v-9.23h-1.742l-2.704 3.575-2.704-3.575zm16.393 7.488h-4.745v-2.067h4.55v-1.742h-4.55v-1.937h4.745V86.77h-6.643V96h6.643v-1.742zm4.117-4.355l4.03 6.097h1.911v-9.23h-1.846v6.097l-4.03-6.097h-1.911V96h1.846v-6.097zm14.6-3.133h-6.968v1.781h2.535V96h1.898v-7.449h2.535V86.77zm7.613 3.991v-2.249h2.054c.871 0 1.248.468 1.248 1.131s-.377 1.118-1.248 1.118h-2.054zm0 1.742h2.054c2.145 0 3.146-1.248 3.146-2.86 0-1.612-.923-2.873-3.146-2.873h-3.952V96h1.898v-3.497zM300.211 96l-2.015-3.705c1.079-.442 1.638-1.417 1.638-2.639 0-1.69-1.066-2.886-3.081-2.886h-4.186V96h1.898v-3.497h1.82L298.014 96h2.197zm-2.275-6.344c0 .676-.39 1.105-1.183 1.105h-2.288v-2.249h2.288c.793 0 1.183.468 1.183 1.144zm13.206 1.729c0-2.769-2.002-4.81-4.797-4.81s-4.797 2.041-4.797 4.81c0 2.769 2.002 4.81 4.797 4.81s4.797-2.041 4.797-4.81zm-2.002 0c0 1.82-1.157 3.003-2.795 3.003s-2.795-1.183-2.795-3.003 1.157-3.003 2.795-3.003 2.795 1.183 2.795 3.003zm7.998 1.638c0 .884-.455 1.469-1.313 1.469-.793 0-1.3-.481-1.3-1.313 0-.39.039-.624.039-.624h-1.898s-.039.234-.039.624c0 1.898 1.3 2.99 3.198 2.99 1.963 0 3.211-1.261 3.211-3.198V86.77h-1.898v6.253zm11.012 1.235h-4.745v-2.067h4.55v-1.742h-4.55v-1.937h4.745V86.77h-6.643V96h6.643v-1.742zm1.843-2.886c0 2.886 1.989 4.797 4.641 4.797 2.301 0 4.121-1.365 4.472-3.614h-2.028c-.273 1.157-1.209 1.807-2.444 1.807-1.69 0-2.639-1.17-2.639-2.99 0-1.82.949-2.99 2.639-2.99 1.235 0 2.171.65 2.444 1.807h2.028c-.351-2.249-2.171-3.614-4.472-3.614-2.652 0-4.641 1.911-4.641 4.797zm16.823-4.602h-6.968v1.781h2.535V96h1.898v-7.449h2.535V86.77z" fill="#2F3A48"/><path d="M18.78 7.8H8.12v2.3h4.12V22h2.42V10.1h4.12V7.8zm5.45 3.74s-.24-.02-.34-.02c-1.8 0-2.68.88-3.06 1.54v-1.44h-2.2V22h2.38v-5.4c0-2 1-2.88 2.68-2.88.26 0 .54.04.54.04v-2.22zm7.51 5.58v.66c0 1.4-.94 2.6-2.86 2.6-1.14 0-1.84-.38-1.84-1.36 0-.72.48-1.26 1.94-1.48l2.76-.42zm-3.34 5.12c1.66 0 2.86-.54 3.56-1.6 0 .84.12 1.36.14 1.36h2.26c-.18-.42-.3-1.28-.3-1.96v-4.78c0-2.38-1.44-3.88-4.48-3.88-3.14 0-4.38 1.68-4.58 3.5h2.32c.16-.96.9-1.54 2.2-1.54 1.42 0 2.22.64 2.22 1.9v.16l-3 .42c-2.74.38-3.98 1.52-3.98 3.28 0 1.78 1.06 3.14 3.64 3.14zm15.522-9.26c-.58-.88-1.7-1.6-3.32-1.6-3.06 0-4.8 2.46-4.8 5.44 0 2.96 1.74 5.42 4.8 5.42 1.62 0 2.84-.64 3.5-1.72V22h2.2V7h-2.38v5.98zm.1 3.84c0 1.86-1.1 3.32-2.92 3.32-1.8 0-2.92-1.46-2.92-3.32 0-1.9 1.12-3.34 2.92-3.34 1.82 0 2.92 1.44 2.92 3.34zm5.975-6.94c.86 0 1.48-.6 1.48-1.46 0-.88-.62-1.5-1.48-1.5-.88 0-1.5.62-1.5 1.5 0 .86.62 1.46 1.5 1.46zM48.797 22h2.38V11.62h-2.38V22zm9.514-2.12s-.34.1-.74.1c-.82 0-1.16-.4-1.16-1.22v-5.24h1.94v-1.9h-1.94v-2.7h-2.38v2.7h-1.58v1.9h1.58V19c0 1.96.92 3.06 3.04 3.06.8 0 1.24-.12 1.24-.12v-2.06zm2.742-10c.86 0 1.48-.6 1.48-1.46 0-.88-.62-1.5-1.48-1.5-.88 0-1.5.62-1.5 1.5 0 .86.62 1.46 1.5 1.46zM59.852 22h2.38V11.62h-2.38V22zm9.553.24c3.32 0 5.4-2.5 5.4-5.42s-2.08-5.44-5.4-5.44c-3.3 0-5.38 2.52-5.38 5.44 0 2.92 2.08 5.42 5.38 5.42zm-3-5.42c0-2.02 1.28-3.34 3-3.34 1.74 0 3.02 1.32 3.02 3.34 0 2-1.28 3.32-3.02 3.32-1.72 0-3-1.32-3-3.32zm12.405-5.2h-2.2V22h2.38v-6.02c0-1.62.94-2.56 2.44-2.56 1.42 0 2.06.94 2.06 2.36V22h2.38v-6.52c0-2.42-1.34-4.1-3.86-4.1-1.7 0-2.76.8-3.2 1.62v-1.38zm15.85 5.5v.66c0 1.4-.94 2.6-2.86 2.6-1.14 0-1.84-.38-1.84-1.36 0-.72.48-1.26 1.94-1.48l2.76-.42zm-3.34 5.12c1.66 0 2.86-.54 3.56-1.6 0 .84.12 1.36.14 1.36h2.26c-.18-.42-.3-1.28-.3-1.96v-4.78c0-2.38-1.44-3.88-4.48-3.88-3.14 0-4.38 1.68-4.58 3.5h2.32c.16-.96.9-1.54 2.2-1.54 1.42 0 2.22.64 2.22 1.9v.16l-3 .42c-2.74.38-3.98 1.52-3.98 3.28 0 1.78 1.06 3.14 3.64 3.14zm10.464-.24V7h-2.38v15h2.38zm13.669-4.88v.66c0 1.4-.94 2.6-2.86 2.6-1.14 0-1.84-.38-1.84-1.36 0-.72.48-1.26 1.94-1.48l2.76-.42zm-3.34 5.12c1.66 0 2.86-.54 3.56-1.6 0 .84.12 1.36.14 1.36h2.26c-.18-.42-.3-1.28-.3-1.96v-4.78c0-2.38-1.44-3.88-4.48-3.88-3.14 0-4.38 1.68-4.58 3.5h2.32c.16-.96.9-1.54 2.2-1.54 1.42 0 2.22.64 2.22 1.9v.16l-3 .42c-2.74.38-3.98 1.52-3.98 3.28 0 1.78 1.06 3.14 3.64 3.14zm10.463-1.6c.58.9 1.72 1.6 3.32 1.6 3.08 0 4.82-2.46 4.82-5.42 0-2.98-1.74-5.44-4.82-5.44-1.6 0-2.82.66-3.5 1.72v-1.48h-2.2v14.54h2.38v-5.52zm-.08-3.82c0-1.92 1.1-3.38 2.92-3.38 1.8 0 2.92 1.46 2.92 3.38 0 1.86-1.12 3.32-2.92 3.32-1.82 0-2.92-1.46-2.92-3.32zm12.18 3.82c.58.9 1.72 1.6 3.32 1.6 3.08 0 4.82-2.46 4.82-5.42 0-2.98-1.74-5.44-4.82-5.44-1.6 0-2.82.66-3.5 1.72v-1.48h-2.2v14.54h2.38v-5.52zm-.08-3.82c0-1.92 1.1-3.38 2.92-3.38 1.8 0 2.92 1.46 2.92 3.38 0 1.86-1.12 3.32-2.92 3.32-1.82 0-2.92-1.46-2.92-3.32zm15.615-5.28s-.24-.02-.34-.02c-1.8 0-2.68.88-3.06 1.54v-1.44h-2.2V22h2.38v-5.4c0-2 1-2.88 2.68-2.88.26 0 .54.04.54.04v-2.22zm5.575 10.7c3.32 0 5.4-2.5 5.4-5.42s-2.08-5.44-5.4-5.44c-3.3 0-5.38 2.52-5.38 5.44 0 2.92 2.08 5.42 5.38 5.42zm-3-5.42c0-2.02 1.28-3.34 3-3.34 1.74 0 3.02 1.32 3.02 3.34 0 2-1.28 3.32-3.02 3.32-1.72 0-3-1.32-3-3.32zm16.605.3v.66c0 1.4-.94 2.6-2.86 2.6-1.14 0-1.84-.38-1.84-1.36 0-.72.48-1.26 1.94-1.48l2.76-.42zm-3.34 5.12c1.66 0 2.86-.54 3.56-1.6 0 .84.12 1.36.14 1.36h2.26c-.18-.42-.3-1.28-.3-1.96v-4.78c0-2.38-1.44-3.88-4.48-3.88-3.14 0-4.38 1.68-4.58 3.5h2.32c.16-.96.9-1.54 2.2-1.54 1.42 0 2.22.64 2.22 1.9v.16l-3 .42c-2.74.38-3.98 1.52-3.98 3.28 0 1.78 1.06 3.14 3.64 3.14zm7.403-5.42c0 3 2.12 5.42 5.18 5.42 3.08 0 4.64-2.14 4.92-4h-2.44c-.28 1.12-1.22 1.9-2.5 1.9-1.7 0-2.78-1.38-2.78-3.32 0-1.96 1.08-3.34 2.78-3.34 1.28 0 2.22.78 2.5 1.9h2.44c-.28-1.86-1.84-4-4.92-4-3.06 0-5.18 2.42-5.18 5.44zM187.56 7h-2.38v15h2.38v-6c0-1.64.94-2.58 2.44-2.58 1.42 0 2.06.94 2.06 2.36V22h2.38v-6.52c0-2.42-1.34-4.1-3.86-4.1-1.54 0-2.54.66-3.02 1.36V7z" fill="#27323F"/><path d="M195.293 712.707a.999.999 0 001.414 0l6.364-6.364a.999.999 0 10-1.414-1.414L196 710.586l-5.657-5.657a.999.999 0 10-1.414 1.414l6.364 6.364zM195 683v29h2v-29h-2zm131.293 29.707a.999.999 0 001.414 0l6.364-6.364a.999.999 0 10-1.414-1.414L327 710.586l-5.657-5.657a.999.999 0 10-1.414 1.414l6.364 6.364zM326 683v29h2v-29h-2z" fill="#CED6E0"/><path d="M261 525v158" stroke="#CED6E0" stroke-width="2" stroke-linecap="round"/><path d="M64.293 712.707a1 1 0 001.414 0l6.364-6.364a1 1 0 10-1.414-1.414L65 710.586l-5.657-5.657a1 1 0 10-1.414 1.414l6.364 6.364zm391-.051a1 1 0 001.414 0l6.364-6.364a.999.999 0 10-1.414-1.414L456 710.534l-5.657-5.656a.999.999 0 10-1.414 1.414l6.364 6.364zM456 691h-1 1zm-383-8v-1 1zm-9 8v21h2v-21h-2zm9-7h375v-2H73v2zm382 7v20.949h2V691h-2zm-7-7a7 7 0 017 7h2a9 9 0 00-9-9v2zm-382 7a7 7 0 017-7v-2a9 9 0 00-9 9h2z" fill="#CED6E0"/><g filter="url(#filter9_dd)"><rect x="401" y="724" width="115" height="70" rx="6" fill="#fff"/></g><path d="M423.243 778c3.185 0 4.953-1.898 4.953-4.615 0-2.717-1.768-4.615-4.953-4.615h-3.133V778h3.133zm3.289-4.615c0 1.911-1.066 3.159-3.341 3.159h-1.508v-6.318h1.508c2.275 0 3.341 1.248 3.341 3.159zm9.411 1.69s.013-.234.013-.481c0-1.976-1.313-3.497-3.315-3.497s-3.354 1.56-3.354 3.523c0 2.015 1.326 3.536 3.367 3.536 1.573 0 2.769-.949 3.172-2.288h-1.56c-.247.598-.858.962-1.573.962-1.079 0-1.768-.689-1.885-1.755h5.135zm-3.302-2.717c1.001 0 1.651.637 1.781 1.573h-3.588c.156-.923.806-1.573 1.807-1.573zm7.045 5.798c1.885 0 2.821-.962 2.821-2.106 0-2.73-3.874-1.573-3.874-2.886 0-.494.39-.806 1.157-.806.793 0 1.157.494 1.209.975h1.482c-.065-.91-.715-2.236-2.652-2.236-1.664 0-2.678.988-2.678 2.119 0 2.743 3.874 1.469 3.874 2.899 0 .468-.442.767-1.248.767-.949 0-1.417-.455-1.456-1.04h-1.495c.078 1.235.884 2.314 2.86 2.314zm8.631-6.903l-2.873 3.289v-6.292h-1.547V778h1.547v-1.612l1.183-1.274 1.989 2.886h1.846l-2.808-3.9 2.613-2.847h-1.95zm5.947 5.369s-.221.065-.481.065c-.533 0-.754-.26-.754-.793v-3.406h1.261v-1.235h-1.261v-1.755h-1.547v1.755h-1.027v1.235h1.027v3.562c0 1.274.598 1.989 1.976 1.989.52 0 .806-.078.806-.078v-1.339zm4.177 1.534c2.158 0 3.51-1.625 3.51-3.523 0-1.898-1.352-3.536-3.51-3.536-2.145 0-3.497 1.638-3.497 3.536 0 1.898 1.352 3.523 3.497 3.523zm-1.95-3.523c0-1.313.832-2.171 1.95-2.171 1.131 0 1.963.858 1.963 2.171 0 1.3-.832 2.158-1.963 2.158-1.118 0-1.95-.858-1.95-2.158zm8.44 2.483c.377.585 1.118 1.04 2.158 1.04 2.002 0 3.133-1.599 3.133-3.523 0-1.937-1.131-3.536-3.133-3.536-1.04 0-1.833.429-2.275 1.118v-.962h-1.43v9.451h1.547v-3.588zm-.052-2.483c0-1.248.715-2.197 1.898-2.197 1.17 0 1.898.949 1.898 2.197 0 1.209-.728 2.158-1.898 2.158-1.183 0-1.898-.949-1.898-2.158zm14.307.195v.429c0 .91-.611 1.69-1.859 1.69-.741 0-1.196-.247-1.196-.884 0-.468.312-.819 1.261-.962l1.794-.273zm-2.171 3.328c1.079 0 1.859-.351 2.314-1.04 0 .546.078.884.091.884h1.469c-.117-.273-.195-.832-.195-1.274v-3.107c0-1.547-.936-2.522-2.912-2.522-2.041 0-2.847 1.092-2.977 2.275h1.508c.104-.624.585-1.001 1.43-1.001.923 0 1.443.416 1.443 1.235v.104l-1.95.273c-1.781.247-2.587.988-2.587 2.132 0 1.157.689 2.041 2.366 2.041zm7.061-1.04c.377.585 1.118 1.04 2.158 1.04 2.002 0 3.133-1.599 3.133-3.523 0-1.937-1.131-3.536-3.133-3.536-1.04 0-1.833.429-2.275 1.118v-.962h-1.43v9.451h1.547v-3.588zm-.052-2.483c0-1.248.715-2.197 1.898-2.197 1.17 0 1.898.949 1.898 2.197 0 1.209-.728 2.158-1.898 2.158-1.183 0-1.898-.949-1.898-2.158zm8.177 2.483c.377.585 1.118 1.04 2.158 1.04 2.002 0 3.133-1.599 3.133-3.523 0-1.937-1.131-3.536-3.133-3.536-1.04 0-1.833.429-2.275 1.118v-.962h-1.43v9.451h1.547v-3.588zm-.052-2.483c0-1.248.715-2.197 1.898-2.197 1.17 0 1.898.949 1.898 2.197 0 1.209-.728 2.158-1.898 2.158-1.183 0-1.898-.949-1.898-2.158z" fill="#2F3A48"/><circle cx="458" cy="751" r="10" fill="#BB6BD9"/><path d="M463.857 745h-11.714c-.629 0-1.143.514-1.143 1.143v8.571c0 .629.514 1.143 1.143 1.143h4.714l-1.143 1.286V758h4.572v-.857l-1.143-1.286h4.714c.629 0 1.143-.514 1.143-1.143v-8.571c0-.629-.514-1.143-1.143-1.143zm0 9.464h-11.714v-8.321h11.714v8.321z" fill="#fff"/><g filter="url(#filter10_dd)"><rect x="270" y="724" width="115" height="70" rx="6" fill="#fff"/></g><path d="M294.08 770.993h.026l2.067 7.007h1.69l2.873-9.23h-1.729l-1.95 7.007h-.026l-2.054-7.007h-1.729l-2.054 7.007h-.026l-1.937-7.007h-1.781l2.873 9.23h1.69l2.067-7.007zm13.339 4.082s.013-.234.013-.481c0-1.976-1.313-3.497-3.315-3.497s-3.354 1.56-3.354 3.523c0 2.015 1.326 3.536 3.367 3.536 1.573 0 2.769-.949 3.172-2.288h-1.56c-.247.598-.858.962-1.573.962-1.079 0-1.768-.689-1.885-1.755h5.135zm-3.302-2.717c1.001 0 1.651.637 1.781 1.573h-3.588c.156-.923.806-1.573 1.807-1.573zm6.277-.221v-3.887h-1.547V778h1.43v-.962c.442.702 1.235 1.118 2.275 1.118 2.002 0 3.133-1.599 3.133-3.523 0-1.937-1.131-3.536-3.133-3.536-1.04 0-1.781.468-2.158 1.04zm-.052 2.496c0-1.235.715-2.171 1.898-2.171 1.17 0 1.898.936 1.898 2.171 0 1.209-.728 2.158-1.898 2.158-1.183 0-1.898-.949-1.898-2.158zm9.084 3.523c1.885 0 2.821-.962 2.821-2.106 0-2.73-3.874-1.573-3.874-2.886 0-.494.39-.806 1.157-.806.793 0 1.157.494 1.209.975h1.482c-.065-.91-.715-2.236-2.652-2.236-1.664 0-2.678.988-2.678 2.119 0 2.743 3.874 1.469 3.874 2.899 0 .468-.442.767-1.248.767-.949 0-1.417-.455-1.456-1.04h-1.495c.078 1.235.884 2.314 2.86 2.314zm4.991-8.034c.559 0 .962-.39.962-.949 0-.572-.403-.975-.962-.975-.572 0-.975.403-.975.975 0 .559.403.949.975.949zm-.78 7.878h1.547v-6.747h-1.547V778zm6.444-1.378s-.221.065-.481.065c-.533 0-.754-.26-.754-.793v-3.406h1.261v-1.235h-1.261v-1.755h-1.547v1.755h-1.027v1.235h1.027v3.562c0 1.274.598 1.989 1.976 1.989.52 0 .806-.078.806-.078v-1.339zm7.337-1.547s.013-.234.013-.481c0-1.976-1.313-3.497-3.315-3.497s-3.354 1.56-3.354 3.523c0 2.015 1.326 3.536 3.367 3.536 1.573 0 2.769-.949 3.172-2.288h-1.56c-.247.598-.858.962-1.573.962-1.079 0-1.768-.689-1.885-1.755h5.135zm-3.302-2.717c1.001 0 1.651.637 1.781 1.573h-3.588c.156-.923.806-1.573 1.807-1.573zm4.08 5.642h1.56l3.757-9.23h-1.56l-3.757 9.23zm10.701-3.172v.429c0 .91-.611 1.69-1.859 1.69-.741 0-1.196-.247-1.196-.884 0-.468.312-.819 1.261-.962l1.794-.273zm-2.171 3.328c1.079 0 1.859-.351 2.314-1.04 0 .546.078.884.091.884h1.469c-.117-.273-.195-.832-.195-1.274v-3.107c0-1.547-.936-2.522-2.912-2.522-2.041 0-2.847 1.092-2.977 2.275h1.508c.104-.624.585-1.001 1.43-1.001.923 0 1.443.416 1.443 1.235v.104l-1.95.273c-1.781.247-2.587.988-2.587 2.132 0 1.157.689 2.041 2.366 2.041zm7.061-1.04c.377.585 1.118 1.04 2.158 1.04 2.002 0 3.133-1.599 3.133-3.523 0-1.937-1.131-3.536-3.133-3.536-1.04 0-1.833.429-2.275 1.118v-.962h-1.43v9.451h1.547v-3.588zm-.052-2.483c0-1.248.715-2.197 1.898-2.197 1.17 0 1.898.949 1.898 2.197 0 1.209-.728 2.158-1.898 2.158-1.183 0-1.898-.949-1.898-2.158zm8.177 2.483c.377.585 1.118 1.04 2.158 1.04 2.002 0 3.133-1.599 3.133-3.523 0-1.937-1.131-3.536-3.133-3.536-1.04 0-1.833.429-2.275 1.118v-.962h-1.43v9.451h1.547v-3.588zm-.052-2.483c0-1.248.715-2.197 1.898-2.197 1.17 0 1.898.949 1.898 2.197 0 1.209-.728 2.158-1.898 2.158-1.183 0-1.898-.949-1.898-2.158z" fill="#2F3A48"/><circle cx="327" cy="751" r="10" fill="#FF7B5E"/><path d="M332.857 745h-11.714c-.629 0-1.143.514-1.143 1.143v8.571c0 .629.514 1.143 1.143 1.143h4.714l-1.143 1.286V758h4.572v-.857l-1.143-1.286h4.714c.629 0 1.143-.514 1.143-1.143v-8.571c0-.629-.514-1.143-1.143-1.143zm0 9.464h-11.714v-8.321h11.714v8.321z" fill="#fff"/><g filter="url(#filter11_dd)"><rect x="139" y="724" width="115" height="70" rx="6" fill="#fff"/></g><path d="M158.969 778l.663-1.781h4.134l.663 1.781h1.716l-3.588-9.23h-1.677l-3.575 9.23h1.664zm2.743-7.28l1.534 4.069h-3.094l1.534-4.069h.026zm6.795.533h-1.43V778h1.547v-3.913c0-1.053.611-1.664 1.586-1.664.923 0 1.339.611 1.339 1.534V778h1.547v-4.238c0-1.573-.871-2.665-2.509-2.665-1.105 0-1.794.52-2.08 1.053v-.897zm11.239.884c-.377-.572-1.105-1.04-2.158-1.04-1.989 0-3.12 1.599-3.12 3.536 0 1.924 1.131 3.523 3.12 3.523 1.053 0 1.846-.416 2.275-1.118V778h1.43v-9.75h-1.547v3.887zm.065 2.496c0 1.209-.715 2.158-1.898 2.158-1.17 0-1.898-.949-1.898-2.158 0-1.235.728-2.171 1.898-2.171 1.183 0 1.898.936 1.898 2.171zm7.003-3.432s-.156-.013-.221-.013c-1.17 0-1.742.572-1.989 1.001v-.936h-1.43V778h1.547v-3.51c0-1.3.65-1.872 1.742-1.872.169 0 .351.026.351.026v-1.443zm3.884 6.955c2.158 0 3.51-1.625 3.51-3.523 0-1.898-1.352-3.536-3.51-3.536-2.145 0-3.497 1.638-3.497 3.536 0 1.898 1.352 3.523 3.497 3.523zm-1.95-3.523c0-1.313.832-2.171 1.95-2.171 1.131 0 1.963.858 1.963 2.171 0 1.3-.832 2.158-1.963 2.158-1.118 0-1.95-.858-1.95-2.158zm7.673-4.511c.559 0 .962-.39.962-.949 0-.572-.403-.975-.962-.975-.572 0-.975.403-.975.975 0 .559.403.949.975.949zm-.78 7.878h1.547v-6.747h-1.547V778zm8.251-5.863c-.377-.572-1.105-1.04-2.158-1.04-1.989 0-3.12 1.599-3.12 3.536 0 1.924 1.131 3.523 3.12 3.523 1.053 0 1.846-.416 2.275-1.118V778h1.43v-9.75h-1.547v3.887zm.065 2.496c0 1.209-.715 2.158-1.898 2.158-1.17 0-1.898-.949-1.898-2.158 0-1.235.728-2.171 1.898-2.171 1.183 0 1.898.936 1.898 2.171zm7.177 3.367l.663-1.781h4.134l.663 1.781h1.716l-3.588-9.23h-1.677L209.47 778h1.664zm2.743-7.28l1.534 4.069h-3.094l1.534-4.069h.026zm6.912 6.396c.377.585 1.118 1.04 2.158 1.04 2.002 0 3.133-1.599 3.133-3.523 0-1.937-1.131-3.536-3.133-3.536-1.04 0-1.833.429-2.275 1.118v-.962h-1.43v9.451h1.547v-3.588zm-.052-2.483c0-1.248.715-2.197 1.898-2.197 1.17 0 1.898.949 1.898 2.197 0 1.209-.728 2.158-1.898 2.158-1.183 0-1.898-.949-1.898-2.158zm8.177 2.483c.377.585 1.118 1.04 2.158 1.04 2.002 0 3.133-1.599 3.133-3.523 0-1.937-1.131-3.536-3.133-3.536-1.04 0-1.833.429-2.275 1.118v-.962h-1.43v9.451h1.547v-3.588zm-.052-2.483c0-1.248.715-2.197 1.898-2.197 1.17 0 1.898.949 1.898 2.197 0 1.209-.728 2.158-1.898 2.158-1.183 0-1.898-.949-1.898-2.158z" fill="#2F3A48"/><circle cx="196" cy="751" r="10" fill="#45C567"/><path d="M192.182 754.719c0 .252.153.511.388.511h.975v1.895c0 .485.365.875.819.875.453 0 .818-.39.818-.875v-1.895h1.67v1.895c0 .274.116.518.3.678a.734.734 0 00.501.197h.017c.454 0 .819-.39.819-.875v-1.895h.941c.238 0 .388-.259.388-.507v-6.055h-7.636v6.051zm9-6.634c-.454 0-.818.39-.818.875v3.499c0 .485.364.875.818.875.453 0 .818-.39.818-.875v-3.499c0-.485-.365-.875-.818-.875zm-10.364 0c-.453 0-.818.39-.818.875v3.499c0 .485.365.875.818.875.454 0 .818-.39.818-.875v-3.499c0-.485-.364-.875-.818-.875zm7.064-3.168l.631-.799c.013-.018-.007-.058-.045-.091-.037-.029-.082-.036-.092-.014l-.654.831c-.464-.197-1.03-.321-1.725-.321-.699-.004-1.269.117-1.732.31l-.648-.817c-.014-.018-.055-.014-.092.015-.038.029-.058.066-.044.091l.624.787c-1.644.762-1.889 2.632-1.923 3.179h7.623c-.031-.55-.273-2.395-1.923-3.171zm-3.559 1.815a.475.475 0 01-.46-.485c0-.266.204-.485.46-.485.252 0 .46.219.46.485a.474.474 0 01-.46.485zm3.354 0a.476.476 0 01-.46-.485c0-.266.205-.485.46-.485.253 0 .461.219.461.485a.476.476 0 01-.461.485z" fill="#fff"/><g filter="url(#filter12_dd)"><rect x="8" y="724" width="115" height="70" rx="6" fill="#fff"/></g><path d="M41.364 770.122c.559 0 .962-.39.962-.949 0-.572-.404-.975-.962-.975-.572 0-.975.403-.975.975 0 .559.402.949.974.949zm-.78 7.878h1.546v-6.747h-1.547V778zm4.727-4.615c0-1.989 1.3-3.302 3.108-3.302 1.806 0 3.107 1.313 3.107 3.302s-1.3 3.302-3.108 3.302c-1.806 0-3.106-1.313-3.106-3.302zm-1.663 0c0 2.743 1.962 4.81 4.77 4.81 2.809 0 4.772-2.067 4.772-4.81 0-2.743-1.963-4.81-4.771-4.81s-4.771 2.067-4.771 4.81zm14.185 3.38c-1.248 0-1.91-.663-1.976-1.651h-1.56c.052 1.508 1.001 3.068 3.458 3.068 2.21 0 3.666-1.092 3.666-2.769 0-3.692-5.2-2.119-5.2-4.147 0-.819.663-1.274 1.742-1.274 1.183 0 1.794.728 1.807 1.638h1.547c-.039-1.729-1.183-3.055-3.354-3.055-2.054 0-3.302 1.261-3.302 2.73 0 3.692 5.161 1.924 5.161 4.173 0 .832-.728 1.287-1.989 1.287zM66.791 778l.663-1.781h4.134l.663 1.781h1.716l-3.588-9.23h-1.677L65.127 778h1.664zm2.743-7.28l1.534 4.069h-3.094l1.534-4.069h.026zm6.912 6.396c.377.585 1.118 1.04 2.158 1.04 2.002 0 3.133-1.599 3.133-3.523 0-1.937-1.131-3.536-3.133-3.536-1.04 0-1.833.429-2.275 1.118v-.962h-1.43v9.451h1.547v-3.588zm-.052-2.483c0-1.248.715-2.197 1.898-2.197 1.17 0 1.898.949 1.898 2.197 0 1.209-.728 2.158-1.898 2.158-1.183 0-1.898-.949-1.898-2.158zm8.177 2.483c.377.585 1.118 1.04 2.158 1.04 2.002 0 3.133-1.599 3.133-3.523 0-1.937-1.131-3.536-3.133-3.536-1.04 0-1.833.429-2.275 1.118v-.962h-1.43v9.451h1.547v-3.588zm-.052-2.483c0-1.248.715-2.197 1.898-2.197 1.17 0 1.898.949 1.898 2.197 0 1.209-.728 2.158-1.898 2.158-1.183 0-1.898-.949-1.898-2.158z" fill="#2F3A48"/><circle cx="65" cy="751" r="10" fill="#5595F6"/><path d="M67.425 746.808c-1.05 0-1.493.516-2.225.516-.75 0-1.321-.513-2.23-.513-.891 0-1.841.56-2.444 1.513-.847 1.343-.703 3.874.668 6.03.491.771 1.147 1.637 2.006 1.646h.016c.747 0 .969-.503 1.997-.509h.016c1.012 0 1.215.506 1.959.506h.015c.86-.009 1.55-.969 2.04-1.737.354-.553.485-.831.757-1.456-1.984-.775-2.303-3.668-.34-4.777-.6-.772-1.441-1.219-2.235-1.219z" fill="#fff"/><path d="M67.194 744c-.625.044-1.353.453-1.78.987-.388.485-.707 1.203-.582 1.9h.05c.665 0 1.347-.413 1.744-.941.384-.503.674-1.215.568-1.946z" fill="#fff"/><g filter="url(#filter13_dd)"><rect x="206" y="587" width="115" height="70" rx="6" fill="#fff"/></g><path d="M237.019 632.993h.026l2.067 7.007h1.69l2.873-9.23h-1.729l-1.95 7.007h-.026l-2.054-7.007h-1.729l-2.054 7.007h-.026l-1.937-7.007h-1.781l2.873 9.23h1.69l2.067-7.007zm13.339 4.082s.013-.234.013-.481c0-1.976-1.313-3.497-3.315-3.497s-3.354 1.56-3.354 3.523c0 2.015 1.326 3.536 3.367 3.536 1.573 0 2.769-.949 3.172-2.288h-1.56c-.247.598-.858.962-1.573.962-1.079 0-1.768-.689-1.885-1.755h5.135zm-3.302-2.717c1.001 0 1.651.637 1.781 1.573h-3.588c.156-.923.806-1.573 1.807-1.573zm6.278-.221v-3.887h-1.547V640h1.43v-.962c.442.702 1.235 1.118 2.275 1.118 2.002 0 3.133-1.599 3.133-3.523 0-1.937-1.131-3.536-3.133-3.536-1.04 0-1.781.468-2.158 1.04zm-.052 2.496c0-1.235.715-2.171 1.898-2.171 1.17 0 1.898.936 1.898 2.171 0 1.209-.728 2.158-1.898 2.158-1.183 0-1.898-.949-1.898-2.158zm16.217-5.863h-6.929v1.495h2.678V640h1.573v-7.735h2.678v-1.495zm6.237 6.305s.013-.234.013-.481c0-1.976-1.313-3.497-3.315-3.497s-3.354 1.56-3.354 3.523c0 2.015 1.326 3.536 3.367 3.536 1.573 0 2.769-.949 3.172-2.288h-1.56c-.247.598-.858.962-1.573.962-1.079 0-1.768-.689-1.885-1.755h5.135zm-3.302-2.717c1.001 0 1.651.637 1.781 1.573h-3.588c.156-.923.806-1.573 1.807-1.573zm8.891 2.47v.429c0 .91-.611 1.69-1.859 1.69-.741 0-1.196-.247-1.196-.884 0-.468.312-.819 1.261-.962l1.794-.273zm-2.171 3.328c1.079 0 1.859-.351 2.314-1.04 0 .546.078.884.091.884h1.469c-.117-.273-.195-.832-.195-1.274v-3.107c0-1.547-.936-2.522-2.912-2.522-2.041 0-2.847 1.092-2.977 2.275h1.508c.104-.624.585-1.001 1.43-1.001.923 0 1.443.416 1.443 1.235v.104l-1.95.273c-1.781.247-2.587.988-2.587 2.132 0 1.157.689 2.041 2.366 2.041zm11.389-4.03c0-1.092.598-1.703 1.521-1.703.936 0 1.274.663 1.274 1.534V640h1.547v-4.238c0-1.534-.832-2.665-2.457-2.665-1.04 0-1.768.416-2.288 1.066-.377-.65-1.053-1.066-2.028-1.066-1.079 0-1.729.52-2.015 1.053v-.897h-1.43V640h1.547v-3.926c0-1.027.585-1.651 1.508-1.651s1.274.65 1.274 1.534V640h1.547v-3.874z" fill="#2F3A48"/><circle cx="263" cy="611" r="10" fill="#E7F4FF"/><mask id="e" maskUnits="userSpaceOnUse" x="253" y="601" width="20" height="20"><circle cx="263" cy="611" r="10" fill="#C4C4C4"/></mask><g mask="url(#e)"><path d="M266.903 613.25a3.14 3.14 0 003.136-3.125 3.14 3.14 0 00-3.136-3.125c-1.725 0-3.137 1.406-3.137 3.125s1.412 3.125 3.137 3.125zm-8.364 0a3.14 3.14 0 003.136-3.125 3.14 3.14 0 00-3.136-3.125 3.14 3.14 0 00-3.136 3.125 3.14 3.14 0 003.136 3.125zm0 2.292c-2.457 0-7.318 1.197-7.318 3.646V622h14.786v-2.812c0-2.449-5.011-3.646-7.468-3.646zm8.364.573c-.314 0-.53 0-.896.052 1.202.885 1.643 1.458 1.643 3.021V622h6.571v-2.812c0-2.449-4.861-3.073-7.318-3.073z" fill="#639CFF"/></g><g filter="url(#filter14_dd)"><rect x="150" y="513" width="222" height="50" rx="6" fill="#fff"/></g><path d="M178.76 542c3.146 0 4.862-1.937 4.862-4.615s-1.716-4.615-4.862-4.615h-3.315V542h3.315zm2.86-4.615c0 1.729-.897 2.873-2.912 2.873h-1.365v-5.746h1.365c2.015 0 2.912 1.144 2.912 2.873zm10.817 2.873h-4.745v-2.067h4.55v-1.742h-4.55v-1.937h4.745v-1.742h-6.643V542h6.643v-1.742zm8.213-7.488l-2.353 6.708h-.026l-2.353-6.708h-2.132l3.497 9.23h1.95l3.497-9.23h-2.08zm10.404 7.488h-4.745v-2.067h4.55v-1.742h-4.55v-1.937h4.745v-1.742h-6.643V542h6.643v-1.742zm8.264 0h-4.095v-7.488h-1.898V542h5.993v-1.742zm10.5-2.873c0-2.769-2.002-4.81-4.797-4.81s-4.797 2.041-4.797 4.81c0 2.769 2.002 4.81 4.797 4.81s4.797-2.041 4.797-4.81zm-2.002 0c0 1.82-1.157 3.003-2.795 3.003s-2.795-1.183-2.795-3.003 1.157-3.003 2.795-3.003 2.795 1.183 2.795 3.003zm6.075-.624v-2.249h2.054c.871 0 1.248.468 1.248 1.131s-.377 1.118-1.248 1.118h-2.054zm0 1.742h2.054c2.145 0 3.146-1.248 3.146-2.86 0-1.612-.923-2.873-3.146-2.873h-3.952V542h1.898v-3.497zm8.847-5.733h-1.742V542h1.82v-6.292l2.6 3.341h.052l2.6-3.341V542h1.82v-9.23h-1.742l-2.704 3.575-2.704-3.575zm16.393 7.488h-4.745v-2.067h4.55v-1.742h-4.55v-1.937h4.745v-1.742h-6.643V542h6.643v-1.742zm4.118-4.355l4.03 6.097h1.911v-9.23h-1.846v6.097l-4.03-6.097h-1.911V542h1.846v-6.097zm14.599-3.133h-6.968v1.781h2.535V542h1.898v-7.449h2.535v-1.781zm7.613 3.991v-2.249h2.054c.871 0 1.248.468 1.248 1.131s-.377 1.118-1.248 1.118h-2.054zm0 1.742h2.054c2.145 0 3.146-1.248 3.146-2.86 0-1.612-.923-2.873-3.146-2.873h-3.952V542h1.898v-3.497zm14.75 3.497l-2.015-3.705c1.079-.442 1.638-1.417 1.638-2.639 0-1.69-1.066-2.886-3.081-2.886h-4.186V542h1.898v-3.497h1.82l1.729 3.497h2.197zm-2.275-6.344c0 .676-.39 1.105-1.183 1.105h-2.288v-2.249h2.288c.793 0 1.183.468 1.183 1.144zm13.206 1.729c0-2.769-2.002-4.81-4.797-4.81s-4.797 2.041-4.797 4.81c0 2.769 2.002 4.81 4.797 4.81s4.797-2.041 4.797-4.81zm-2.002 0c0 1.82-1.157 3.003-2.795 3.003s-2.795-1.183-2.795-3.003 1.157-3.003 2.795-3.003 2.795 1.183 2.795 3.003zm7.998 1.638c0 .884-.455 1.469-1.313 1.469-.793 0-1.3-.481-1.3-1.313 0-.39.039-.624.039-.624h-1.898s-.039.234-.039.624c0 1.898 1.3 2.99 3.198 2.99 1.963 0 3.211-1.261 3.211-3.198v-6.201h-1.898v6.253zm11.012 1.235h-4.745v-2.067h4.55v-1.742h-4.55v-1.937h4.745v-1.742h-6.643V542h6.643v-1.742zm1.843-2.886c0 2.886 1.989 4.797 4.641 4.797 2.301 0 4.121-1.365 4.472-3.614h-2.028c-.273 1.157-1.209 1.807-2.444 1.807-1.69 0-2.639-1.17-2.639-2.99 0-1.82.949-2.99 2.639-2.99 1.235 0 2.171.65 2.444 1.807h2.028c-.351-2.249-2.171-3.614-4.472-3.614-2.652 0-4.641 1.911-4.641 4.797zm16.823-4.602h-6.968v1.781h2.535V542h1.898v-7.449h2.535v-1.781z" fill="#2F3A48"/><path d="M12.1 453.8H9.68V468h2.42v-14.2zm7.421 14.44c3.32 0 5.4-2.5 5.4-5.42s-2.08-5.44-5.4-5.44c-3.3 0-5.38 2.52-5.38 5.44 0 2.92 2.08 5.42 5.38 5.42zm-3-5.42c0-2.02 1.28-3.34 3-3.34 1.74 0 3.02 1.32 3.02 3.34 0 2-1.28 3.32-3.02 3.32-1.72 0-3-1.32-3-3.32zm12.405-5.2h-2.2V468h2.38v-6.02c0-1.62.94-2.56 2.44-2.56 1.42 0 2.06.94 2.06 2.36V468h2.38v-6.52c0-2.42-1.34-4.1-3.86-4.1-1.7 0-2.76.8-3.2 1.62v-1.38zm10.65-1.74c.86 0 1.48-.6 1.48-1.46 0-.88-.62-1.5-1.48-1.5-.88 0-1.5.62-1.5 1.5 0 .86.62 1.46 1.5 1.46zm-1.2 12.12h2.38v-10.38h-2.38V468zm4.175-5.18c0 3 2.12 5.42 5.18 5.42 3.08 0 4.64-2.14 4.92-4h-2.44c-.28 1.12-1.22 1.9-2.5 1.9-1.7 0-2.78-1.38-2.78-3.32 0-1.96 1.08-3.34 2.78-3.34 1.28 0 2.22.78 2.5 1.9h2.44c-.28-1.86-1.84-4-4.92-4-3.06 0-5.18 2.42-5.18 5.44zm22.92.3v.66c0 1.4-.94 2.6-2.86 2.6-1.14 0-1.84-.38-1.84-1.36 0-.72.48-1.26 1.94-1.48l2.76-.42zm-3.34 5.12c1.66 0 2.86-.54 3.56-1.6 0 .84.12 1.36.14 1.36h2.26c-.18-.42-.3-1.28-.3-1.96v-4.78c0-2.38-1.44-3.88-4.48-3.88-3.14 0-4.38 1.68-4.58 3.5h2.32c.16-.96.9-1.54 2.2-1.54 1.42 0 2.22.64 2.22 1.9v.16l-3 .42c-2.74.38-3.98 1.52-3.98 3.28 0 1.78 1.06 3.14 3.64 3.14zm10.463-1.6c.58.9 1.72 1.6 3.32 1.6 3.08 0 4.82-2.46 4.82-5.42 0-2.98-1.74-5.44-4.82-5.44-1.6 0-2.82.66-3.5 1.72v-1.48h-2.2v14.54h2.38v-5.52zm-.08-3.82c0-1.92 1.1-3.38 2.92-3.38 1.8 0 2.92 1.46 2.92 3.38 0 1.86-1.12 3.32-2.92 3.32-1.82 0-2.92-1.46-2.92-3.32zm12.18 3.82c.58.9 1.72 1.6 3.32 1.6 3.08 0 4.82-2.46 4.82-5.42 0-2.98-1.74-5.44-4.82-5.44-1.6 0-2.82.66-3.5 1.72v-1.48h-2.2v14.54h2.38v-5.52zm-.08-3.82c0-1.92 1.1-3.38 2.92-3.38 1.8 0 2.92 1.46 2.92 3.38 0 1.86-1.12 3.32-2.92 3.32-1.82 0-2.92-1.46-2.92-3.32zm15.615-5.28s-.24-.02-.34-.02c-1.8 0-2.68.88-3.06 1.54v-1.44h-2.2V468h2.38v-5.4c0-2 1-2.88 2.68-2.88.26 0 .54.04.54.04v-2.22zm5.575 10.7c3.32 0 5.4-2.5 5.4-5.42s-2.08-5.44-5.4-5.44c-3.3 0-5.38 2.52-5.38 5.44 0 2.92 2.08 5.42 5.38 5.42zm-3-5.42c0-2.02 1.28-3.34 3-3.34 1.74 0 3.02 1.32 3.02 3.34 0 2-1.28 3.32-3.02 3.32-1.72 0-3-1.32-3-3.32zm16.605.3v.66c0 1.4-.94 2.6-2.86 2.6-1.14 0-1.84-.38-1.84-1.36 0-.72.48-1.26 1.94-1.48l2.76-.42zm-3.34 5.12c1.66 0 2.86-.54 3.56-1.6 0 .84.12 1.36.14 1.36h2.26c-.18-.42-.3-1.28-.3-1.96v-4.78c0-2.38-1.44-3.88-4.48-3.88-3.14 0-4.38 1.68-4.58 3.5h2.32c.16-.96.9-1.54 2.2-1.54 1.42 0 2.22.64 2.22 1.9v.16l-3 .42c-2.74.38-3.98 1.52-3.98 3.28 0 1.78 1.06 3.14 3.64 3.14zm7.403-5.42c0 3 2.12 5.42 5.18 5.42 3.08 0 4.64-2.14 4.92-4h-2.44c-.28 1.12-1.22 1.9-2.5 1.9-1.7 0-2.78-1.38-2.78-3.32 0-1.96 1.08-3.34 2.78-3.34 1.28 0 2.22.78 2.5 1.9h2.44c-.28-1.86-1.84-4-4.92-4-3.06 0-5.18 2.42-5.18 5.44zm14.105-9.82h-2.38v15h2.38v-6c0-1.64.94-2.58 2.44-2.58 1.42 0 2.06.94 2.06 2.36V468h2.38v-6.52c0-2.42-1.34-4.1-3.86-4.1-1.54 0-2.54.66-3.02 1.36V453z" fill="#27323F"/><circle cx="47.5" cy="402.5" r="1.5" transform="rotate(90 47.5 402.5)" fill="#CDDFFF"/><circle cx="40.5" cy="402.5" r="1.5" transform="rotate(90 40.5 402.5)" fill="#CDDFFF"/><circle cx="32.5" cy="402.5" r="1.5" transform="rotate(90 32.5 402.5)" fill="#CDDFFF"/><circle cx="24.5" cy="402.5" r="1.5" transform="rotate(90 24.5 402.5)" fill="#CDDFFF"/><circle cx="16.5" cy="402.5" r="1.5" transform="rotate(90 16.5 402.5)" fill="#CDDFFF"/><circle cx="8.5" cy="402.5" r="1.5" transform="rotate(90 8.5 402.5)" fill="#CDDFFF"/><circle cx="95.5" cy="402.5" r="1.5" transform="rotate(90 95.5 402.5)" fill="#CDDFFF"/><circle cx="87.5" cy="402.5" r="1.5" transform="rotate(90 87.5 402.5)" fill="#CDDFFF"/><circle cx="79.5" cy="402.5" r="1.5" transform="rotate(90 79.5 402.5)" fill="#CDDFFF"/><circle cx="71.5" cy="402.5" r="1.5" transform="rotate(90 71.5 402.5)" fill="#CDDFFF"/><circle cx="63.5" cy="402.5" r="1.5" transform="rotate(90 63.5 402.5)" fill="#CDDFFF"/><circle cx="55.5" cy="402.5" r="1.5" transform="rotate(90 55.5 402.5)" fill="#CDDFFF"/><circle cx="142.5" cy="402.5" r="1.5" transform="rotate(90 142.5 402.5)" fill="#CDDFFF"/><circle cx="134.5" cy="402.5" r="1.5" transform="rotate(90 134.5 402.5)" fill="#CDDFFF"/><circle cx="126.5" cy="402.5" r="1.5" transform="rotate(90 126.5 402.5)" fill="#CDDFFF"/><circle cx="118.5" cy="402.5" r="1.5" transform="rotate(90 118.5 402.5)" fill="#CDDFFF"/><circle cx="110.5" cy="402.5" r="1.5" transform="rotate(90 110.5 402.5)" fill="#CDDFFF"/><circle cx="103.5" cy="402.5" r="1.5" transform="rotate(90 103.5 402.5)" fill="#CDDFFF"/><circle cx="189.5" cy="402.5" r="1.5" transform="rotate(90 189.5 402.5)" fill="#CDDFFF"/><circle cx="181.5" cy="402.5" r="1.5" transform="rotate(90 181.5 402.5)" fill="#CDDFFF"/><circle cx="174.5" cy="402.5" r="1.5" transform="rotate(90 174.5 402.5)" fill="#CDDFFF"/><circle cx="166.5" cy="402.5" r="1.5" transform="rotate(90 166.5 402.5)" fill="#CDDFFF"/><circle cx="158.5" cy="402.5" r="1.5" transform="rotate(90 158.5 402.5)" fill="#CDDFFF"/><circle cx="150.5" cy="402.5" r="1.5" transform="rotate(90 150.5 402.5)" fill="#CDDFFF"/><circle cx="237.5" cy="402.5" r="1.5" transform="rotate(90 237.5 402.5)" fill="#CDDFFF"/><circle cx="229.5" cy="402.5" r="1.5" transform="rotate(90 229.5 402.5)" fill="#CDDFFF"/><circle cx="221.5" cy="402.5" r="1.5" transform="rotate(90 221.5 402.5)" fill="#CDDFFF"/><circle cx="213.5" cy="402.5" r="1.5" transform="rotate(90 213.5 402.5)" fill="#CDDFFF"/><circle cx="205.5" cy="402.5" r="1.5" transform="rotate(90 205.5 402.5)" fill="#CDDFFF"/><circle cx="197.5" cy="402.5" r="1.5" transform="rotate(90 197.5 402.5)" fill="#CDDFFF"/><circle cx="284.5" cy="402.5" r="1.5" transform="rotate(90 284.5 402.5)" fill="#CDDFFF"/><circle cx="276.5" cy="402.5" r="1.5" transform="rotate(90 276.5 402.5)" fill="#CDDFFF"/><circle cx="268.5" cy="402.5" r="1.5" transform="rotate(90 268.5 402.5)" fill="#CDDFFF"/><circle cx="260.5" cy="402.5" r="1.5" transform="rotate(90 260.5 402.5)" fill="#CDDFFF"/><circle cx="252.5" cy="402.5" r="1.5" transform="rotate(90 252.5 402.5)" fill="#CDDFFF"/><circle cx="244.5" cy="402.5" r="1.5" transform="rotate(90 244.5 402.5)" fill="#CDDFFF"/><circle cx="331.5" cy="402.5" r="1.5" transform="rotate(90 331.5 402.5)" fill="#CDDFFF"/><circle cx="323.5" cy="402.5" r="1.5" transform="rotate(90 323.5 402.5)" fill="#CDDFFF"/><circle cx="315.5" cy="402.5" r="1.5" transform="rotate(90 315.5 402.5)" fill="#CDDFFF"/><circle cx="308.5" cy="402.5" r="1.5" transform="rotate(90 308.5 402.5)" fill="#CDDFFF"/><circle cx="300.5" cy="402.5" r="1.5" transform="rotate(90 300.5 402.5)" fill="#CDDFFF"/><circle cx="292.5" cy="402.5" r="1.5" transform="rotate(90 292.5 402.5)" fill="#CDDFFF"/><circle cx="379.5" cy="402.5" r="1.5" transform="rotate(90 379.5 402.5)" fill="#CDDFFF"/><circle cx="371.5" cy="402.5" r="1.5" transform="rotate(90 371.5 402.5)" fill="#CDDFFF"/><circle cx="363.5" cy="402.5" r="1.5" transform="rotate(90 363.5 402.5)" fill="#CDDFFF"/><circle cx="355.5" cy="402.5" r="1.5" transform="rotate(90 355.5 402.5)" fill="#CDDFFF"/><circle cx="347.5" cy="402.5" r="1.5" transform="rotate(90 347.5 402.5)" fill="#CDDFFF"/><circle cx="339.5" cy="402.5" r="1.5" transform="rotate(90 339.5 402.5)" fill="#CDDFFF"/><circle cx="394.5" cy="402.5" r="1.5" transform="rotate(90 394.5 402.5)" fill="#CDDFFF"/><circle cx="386.5" cy="402.5" r="1.5" transform="rotate(90 386.5 402.5)" fill="#CDDFFF"/><circle cx="449.5" cy="402.5" r="1.5" transform="rotate(90 449.5 402.5)" fill="#CDDFFF"/><circle cx="434.5" cy="402.5" r="1.5" transform="rotate(90 434.5 402.5)" fill="#CDDFFF"/><circle cx="426.5" cy="402.5" r="1.5" transform="rotate(90 426.5 402.5)" fill="#CDDFFF"/><circle cx="418.5" cy="402.5" r="1.5" transform="rotate(90 418.5 402.5)" fill="#CDDFFF"/><circle cx="410.5" cy="402.5" r="1.5" transform="rotate(90 410.5 402.5)" fill="#CDDFFF"/><circle cx="402.5" cy="402.5" r="1.5" transform="rotate(90 402.5 402.5)" fill="#CDDFFF"/><circle cx="457.5" cy="402.5" r="1.5" transform="rotate(90 457.5 402.5)" fill="#CDDFFF"/><circle cx="442.5" cy="402.5" r="1.5" transform="rotate(90 442.5 402.5)" fill="#CDDFFF"/><circle cx="473.5" cy="402.5" r="1.5" transform="rotate(90 473.5 402.5)" fill="#CDDFFF"/><circle cx="465.5" cy="402.5" r="1.5" transform="rotate(90 465.5 402.5)" fill="#CDDFFF"/><circle cx="520.5" cy="402.5" r="1.5" transform="rotate(90 520.5 402.5)" fill="#CDDFFF"/><circle cx="513.5" cy="402.5" r="1.5" transform="rotate(90 513.5 402.5)" fill="#CDDFFF"/><circle cx="505.5" cy="402.5" r="1.5" transform="rotate(90 505.5 402.5)" fill="#CDDFFF"/><circle cx="497.5" cy="402.5" r="1.5" transform="rotate(90 497.5 402.5)" fill="#CDDFFF"/><circle cx="489.5" cy="402.5" r="1.5" transform="rotate(90 489.5 402.5)" fill="#CDDFFF"/><circle cx="481.5" cy="402.5" r="1.5" transform="rotate(90 481.5 402.5)" fill="#CDDFFF"/><defs><filter id="filter0_dd" x="393" y="274" width="131" height="86" filterUnits="userSpaceOnUse" color-interpolation-filters="sRGB"><feFlood flood-opacity="0" result="BackgroundImageFix"/><feColorMatrix in="SourceAlpha" values="0 0 0 0 0 0 0 0 0 0 0 0 0 0 0 0 0 0 127 0"/><feOffset dy="4"/><feGaussianBlur stdDeviation="4"/><feColorMatrix values="0 0 0 0 0.00755134 0 0 0 0 0.0324193 0 0 0 0 0.0786026 0 0 0 0.1 0"/><feBlend in2="BackgroundImageFix" result="effect1_dropShadow"/><feColorMatrix in="SourceAlpha" values="0 0 0 0 0 0 0 0 0 0 0 0 0 0 0 0 0 0 127 0"/><feOffset dy="2"/><feGaussianBlur stdDeviation="2"/><feColorMatrix values="0 0 0 0 0.00755134 0 0 0 0 0.0324193 0 0 0 0 0.0786026 0 0 0 0.03 0"/><feBlend in2="effect1_dropShadow" result="effect2_dropShadow"/><feBlend in="SourceGraphic" in2="effect2_dropShadow" result="shape"/></filter><filter id="filter1_dd" x="262" y="274" width="131" height="86" filterUnits="userSpaceOnUse" color-interpolation-filters="sRGB"><feFlood flood-opacity="0" result="BackgroundImageFix"/><feColorMatrix in="SourceAlpha" values="0 0 0 0 0 0 0 0 0 0 0 0 0 0 0 0 0 0 127 0"/><feOffset dy="4"/><feGaussianBlur stdDeviation="4"/><feColorMatrix values="0 0 0 0 0.00755134 0 0 0 0 0.0324193 0 0 0 0 0.0786026 0 0 0 0.1 0"/><feBlend in2="BackgroundImageFix" result="effect1_dropShadow"/><feColorMatrix in="SourceAlpha" values="0 0 0 0 0 0 0 0 0 0 0 0 0 0 0 0 0 0 127 0"/><feOffset dy="2"/><feGaussianBlur stdDeviation="2"/><feColorMatrix values="0 0 0 0 0.00755134 0 0 0 0 0.0324193 0 0 0 0 0.0786026 0 0 0 0.03 0"/><feBlend in2="effect1_dropShadow" result="effect2_dropShadow"/><feBlend in="SourceGraphic" in2="effect2_dropShadow" result="shape"/></filter><filter id="filter2_dd" x="131" y="274" width="131" height="86" filterUnits="userSpaceOnUse" color-interpolation-filters="sRGB"><feFlood flood-opacity="0" result="BackgroundImageFix"/><feColorMatrix in="SourceAlpha" values="0 0 0 0 0 0 0 0 0 0 0 0 0 0 0 0 0 0 127 0"/><feOffset dy="4"/><feGaussianBlur stdDeviation="4"/><feColorMatrix values="0 0 0 0 0.00755134 0 0 0 0 0.0324193 0 0 0 0 0.0786026 0 0 0 0.1 0"/><feBlend in2="BackgroundImageFix" result="effect1_dropShadow"/><feColorMatrix in="SourceAlpha" values="0 0 0 0 0 0 0 0 0 0 0 0 0 0 0 0 0 0 127 0"/><feOffset dy="2"/><feGaussianBlur stdDeviation="2"/><feColorMatrix values="0 0 0 0 0.00755134 0 0 0 0 0.0324193 0 0 0 0 0.0786026 0 0 0 0.03 0"/><feBlend in2="effect1_dropShadow" result="effect2_dropShadow"/><feBlend in="SourceGraphic" in2="effect2_dropShadow" result="shape"/></filter><filter id="filter3_dd" x="0" y="274" width="131" height="86" filterUnits="userSpaceOnUse" color-interpolation-filters="sRGB"><feFlood flood-opacity="0" result="BackgroundImageFix"/><feColorMatrix in="SourceAlpha" values="0 0 0 0 0 0 0 0 0 0 0 0 0 0 0 0 0 0 127 0"/><feOffset dy="4"/><feGaussianBlur stdDeviation="4"/><feColorMatrix values="0 0 0 0 0.00755134 0 0 0 0 0.0324193 0 0 0 0 0.0786026 0 0 0 0.1 0"/><feBlend in2="BackgroundImageFix" result="effect1_dropShadow"/><feColorMatrix in="SourceAlpha" values="0 0 0 0 0 0 0 0 0 0 0 0 0 0 0 0 0 0 127 0"/><feOffset dy="2"/><feGaussianBlur stdDeviation="2"/><feColorMatrix values="0 0 0 0 0.00755134 0 0 0 0 0.0324193 0 0 0 0 0.0786026 0 0 0 0.03 0"/><feBlend in2="effect1_dropShadow" result="effect2_dropShadow"/><feBlend in="SourceGraphic" in2="effect2_dropShadow" result="shape"/></filter><filter id="filter4_dd" x="262" y="163" width="131" height="86" filterUnits="userSpaceOnUse" color-interpolation-filters="sRGB"><feFlood flood-opacity="0" result="BackgroundImageFix"/><feColorMatrix in="SourceAlpha" values="0 0 0 0 0 0 0 0 0 0 0 0 0 0 0 0 0 0 127 0"/><feOffset dy="4"/><feGaussianBlur stdDeviation="4"/><feColorMatrix values="0 0 0 0 0.00755134 0 0 0 0 0.0324193 0 0 0 0 0.0786026 0 0 0 0.1 0"/><feBlend in2="BackgroundImageFix" result="effect1_dropShadow"/><feColorMatrix in="SourceAlpha" values="0 0 0 0 0 0 0 0 0 0 0 0 0 0 0 0 0 0 127 0"/><feOffset dy="2"/><feGaussianBlur stdDeviation="2"/><feColorMatrix values="0 0 0 0 0.00755134 0 0 0 0 0.0324193 0 0 0 0 0.0786026 0 0 0 0.03 0"/><feBlend in2="effect1_dropShadow" result="effect2_dropShadow"/><feBlend in="SourceGraphic" in2="effect2_dropShadow" result="shape"/></filter><filter id="filter5_dd" x="393" y="163" width="131" height="86" filterUnits="userSpaceOnUse" color-interpolation-filters="sRGB"><feFlood flood-opacity="0" result="BackgroundImageFix"/><feColorMatrix in="SourceAlpha" values="0 0 0 0 0 0 0 0 0 0 0 0 0 0 0 0 0 0 127 0"/><feOffset dy="4"/><feGaussianBlur stdDeviation="4"/><feColorMatrix values="0 0 0 0 0.00755134 0 0 0 0 0.0324193 0 0 0 0 0.0786026 0 0 0 0.1 0"/><feBlend in2="BackgroundImageFix" result="effect1_dropShadow"/><feColorMatrix in="SourceAlpha" values="0 0 0 0 0 0 0 0 0 0 0 0 0 0 0 0 0 0 127 0"/><feOffset dy="2"/><feGaussianBlur stdDeviation="2"/><feColorMatrix values="0 0 0 0 0.00755134 0 0 0 0 0.0324193 0 0 0 0 0.0786026 0 0 0 0.03 0"/><feBlend in2="effect1_dropShadow" result="effect2_dropShadow"/><feBlend in="SourceGraphic" in2="effect2_dropShadow" result="shape"/></filter><filter id="filter6_dd" x="131" y="163" width="131" height="86" filterUnits="userSpaceOnUse" color-interpolation-filters="sRGB"><feFlood flood-opacity="0" result="BackgroundImageFix"/><feColorMatrix in="SourceAlpha" values="0 0 0 0 0 0 0 0 0 0 0 0 0 0 0 0 0 0 127 0"/><feOffset dy="4"/><feGaussianBlur stdDeviation="4"/><feColorMatrix values="0 0 0 0 0.00755134 0 0 0 0 0.0324193 0 0 0 0 0.0786026 0 0 0 0.1 0"/><feBlend in2="BackgroundImageFix" result="effect1_dropShadow"/><feColorMatrix in="SourceAlpha" values="0 0 0 0 0 0 0 0 0 0 0 0 0 0 0 0 0 0 127 0"/><feOffset dy="2"/><feGaussianBlur stdDeviation="2"/><feColorMatrix values="0 0 0 0 0.00755134 0 0 0 0 0.0324193 0 0 0 0 0.0786026 0 0 0 0.03 0"/><feBlend in2="effect1_dropShadow" result="effect2_dropShadow"/><feBlend in="SourceGraphic" in2="effect2_dropShadow" result="shape"/></filter><filter id="filter7_dd" x="0" y="163" width="131" height="86" filterUnits="userSpaceOnUse" color-interpolation-filters="sRGB"><feFlood flood-opacity="0" result="BackgroundImageFix"/><feColorMatrix in="SourceAlpha" values="0 0 0 0 0 0 0 0 0 0 0 0 0 0 0 0 0 0 127 0"/><feOffset dy="4"/><feGaussianBlur stdDeviation="4"/><feColorMatrix values="0 0 0 0 0.00755134 0 0 0 0 0.0324193 0 0 0 0 0.0786026 0 0 0 0.1 0"/><feBlend in2="BackgroundImageFix" result="effect1_dropShadow"/><feColorMatrix in="SourceAlpha" values="0 0 0 0 0 0 0 0 0 0 0 0 0 0 0 0 0 0 127 0"/><feOffset dy="2"/><feGaussianBlur stdDeviation="2"/><feColorMatrix values="0 0 0 0 0.00755134 0 0 0 0 0.0324193 0 0 0 0 0.0786026 0 0 0 0.03 0"/><feBlend in2="effect1_dropShadow" result="effect2_dropShadow"/><feBlend in="SourceGraphic" in2="effect2_dropShadow" result="shape"/></filter><filter id="filter8_dd" x="146" y="63" width="230" height="66" filterUnits="userSpaceOnUse" color-interpolation-filters="sRGB"><feFlood flood-opacity="0" result="BackgroundImageFix"/><feColorMatrix in="SourceAlpha" values="0 0 0 0 0 0 0 0 0 0 0 0 0 0 0 0 0 0 127 0"/><feOffset dy="4"/><feGaussianBlur stdDeviation="4"/><feColorMatrix values="0 0 0 0 0.00755134 0 0 0 0 0.0324193 0 0 0 0 0.0786026 0 0 0 0.1 0"/><feBlend in2="BackgroundImageFix" result="effect1_dropShadow"/><feColorMatrix in="SourceAlpha" values="0 0 0 0 0 0 0 0 0 0 0 0 0 0 0 0 0 0 127 0"/><feOffset dy="2"/><feGaussianBlur stdDeviation="2"/><feColorMatrix values="0 0 0 0 0.00755134 0 0 0 0 0.0324193 0 0 0 0 0.0786026 0 0 0 0.03 0"/><feBlend in2="effect1_dropShadow" result="effect2_dropShadow"/><feBlend in="SourceGraphic" in2="effect2_dropShadow" result="shape"/></filter><filter id="filter9_dd" x="393" y="720" width="131" height="86" filterUnits="userSpaceOnUse" color-interpolation-filters="sRGB"><feFlood flood-opacity="0" result="BackgroundImageFix"/><feColorMatrix in="SourceAlpha" values="0 0 0 0 0 0 0 0 0 0 0 0 0 0 0 0 0 0 127 0"/><feOffset dy="4"/><feGaussianBlur stdDeviation="4"/><feColorMatrix values="0 0 0 0 0.00755134 0 0 0 0 0.0324193 0 0 0 0 0.0786026 0 0 0 0.1 0"/><feBlend in2="BackgroundImageFix" result="effect1_dropShadow"/><feColorMatrix in="SourceAlpha" values="0 0 0 0 0 0 0 0 0 0 0 0 0 0 0 0 0 0 127 0"/><feOffset dy="2"/><feGaussianBlur stdDeviation="2"/><feColorMatrix values="0 0 0 0 0.00755134 0 0 0 0 0.0324193 0 0 0 0 0.0786026 0 0 0 0.03 0"/><feBlend in2="effect1_dropShadow" result="effect2_dropShadow"/><feBlend in="SourceGraphic" in2="effect2_dropShadow" result="shape"/></filter><filter id="filter10_dd" x="262" y="720" width="131" height="86" filterUnits="userSpaceOnUse" color-interpolation-filters="sRGB"><feFlood flood-opacity="0" result="BackgroundImageFix"/><feColorMatrix in="SourceAlpha" values="0 0 0 0 0 0 0 0 0 0 0 0 0 0 0 0 0 0 127 0"/><feOffset dy="4"/><feGaussianBlur stdDeviation="4"/><feColorMatrix values="0 0 0 0 0.00755134 0 0 0 0 0.0324193 0 0 0 0 0.0786026 0 0 0 0.1 0"/><feBlend in2="BackgroundImageFix" result="effect1_dropShadow"/><feColorMatrix in="SourceAlpha" values="0 0 0 0 0 0 0 0 0 0 0 0 0 0 0 0 0 0 127 0"/><feOffset dy="2"/><feGaussianBlur stdDeviation="2"/><feColorMatrix values="0 0 0 0 0.00755134 0 0 0 0 0.0324193 0 0 0 0 0.0786026 0 0 0 0.03 0"/><feBlend in2="effect1_dropShadow" result="effect2_dropShadow"/><feBlend in="SourceGraphic" in2="effect2_dropShadow" result="shape"/></filter><filter id="filter11_dd" x="131" y="720" width="131" height="86" filterUnits="userSpaceOnUse" color-interpolation-filters="sRGB"><feFlood flood-opacity="0" result="BackgroundImageFix"/><feColorMatrix in="SourceAlpha" values="0 0 0 0 0 0 0 0 0 0 0 0 0 0 0 0 0 0 127 0"/><feOffset dy="4"/><feGaussianBlur stdDeviation="4"/><feColorMatrix values="0 0 0 0 0.00755134 0 0 0 0 0.0324193 0 0 0 0 0.0786026 0 0 0 0.1 0"/><feBlend in2="BackgroundImageFix" result="effect1_dropShadow"/><feColorMatrix in="SourceAlpha" values="0 0 0 0 0 0 0 0 0 0 0 0 0 0 0 0 0 0 127 0"/><feOffset dy="2"/><feGaussianBlur stdDeviation="2"/><feColorMatrix values="0 0 0 0 0.00755134 0 0 0 0 0.0324193 0 0 0 0 0.0786026 0 0 0 0.03 0"/><feBlend in2="effect1_dropShadow" result="effect2_dropShadow"/><feBlend in="SourceGraphic" in2="effect2_dropShadow" result="shape"/></filter><filter id="filter12_dd" x="0" y="720" width="131" height="86" filterUnits="userSpaceOnUse" color-interpolation-filters="sRGB"><feFlood flood-opacity="0" result="BackgroundImageFix"/><feColorMatrix in="SourceAlpha" values="0 0 0 0 0 0 0 0 0 0 0 0 0 0 0 0 0 0 127 0"/><feOffset dy="4"/><feGaussianBlur stdDeviation="4"/><feColorMatrix values="0 0 0 0 0.00755134 0 0 0 0 0.0324193 0 0 0 0 0.0786026 0 0 0 0.1 0"/><feBlend in2="BackgroundImageFix" result="effect1_dropShadow"/><feColorMatrix in="SourceAlpha" values="0 0 0 0 0 0 0 0 0 0 0 0 0 0 0 0 0 0 127 0"/><feOffset dy="2"/><feGaussianBlur stdDeviation="2"/><feColorMatrix values="0 0 0 0 0.00755134 0 0 0 0 0.0324193 0 0 0 0 0.0786026 0 0 0 0.03 0"/><feBlend in2="effect1_dropShadow" result="effect2_dropShadow"/><feBlend in="SourceGraphic" in2="effect2_dropShadow" result="shape"/></filter><filter id="filter13_dd" x="198" y="583" width="131" height="86" filterUnits="userSpaceOnUse" color-interpolation-filters="sRGB"><feFlood flood-opacity="0" result="BackgroundImageFix"/><feColorMatrix in="SourceAlpha" values="0 0 0 0 0 0 0 0 0 0 0 0 0 0 0 0 0 0 127 0"/><feOffset dy="4"/><feGaussianBlur stdDeviation="4"/><feColorMatrix values="0 0 0 0 0.00755134 0 0 0 0 0.0324193 0 0 0 0 0.0786026 0 0 0 0.1 0"/><feBlend in2="BackgroundImageFix" result="effect1_dropShadow"/><feColorMatrix in="SourceAlpha" values="0 0 0 0 0 0 0 0 0 0 0 0 0 0 0 0 0 0 127 0"/><feOffset dy="2"/><feGaussianBlur stdDeviation="2"/><feColorMatrix values="0 0 0 0 0.00755134 0 0 0 0 0.0324193 0 0 0 0 0.0786026 0 0 0 0.03 0"/><feBlend in2="effect1_dropShadow" result="effect2_dropShadow"/><feBlend in="SourceGraphic" in2="effect2_dropShadow" result="shape"/></filter><filter id="filter14_dd" x="142" y="509" width="238" height="66" filterUnits="userSpaceOnUse" color-interpolation-filters="sRGB"><feFlood flood-opacity="0" result="BackgroundImageFix"/><feColorMatrix in="SourceAlpha" values="0 0 0 0 0 0 0 0 0 0 0 0 0 0 0 0 0 0 127 0"/><feOffset dy="4"/><feGaussianBlur stdDeviation="4"/><feColorMatrix values="0 0 0 0 0.00755134 0 0 0 0 0.0324193 0 0 0 0 0.0786026 0 0 0 0.1 0"/><feBlend in2="BackgroundImageFix" result="effect1_dropShadow"/><feColorMatrix in="SourceAlpha" values="0 0 0 0 0 0 0 0 0 0 0 0 0 0 0 0 0 0 127 0"/><feOffset dy="2"/><feGaussianBlur stdDeviation="2"/><feColorMatrix values="0 0 0 0 0.00755134 0 0 0 0 0.0324193 0 0 0 0 0.0786026 0 0 0 0.03 0"/><feBlend in2="effect1_dropShadow" result="effect2_dropShadow"/><feBlend in="SourceGraphic" in2="effect2_dropShadow" result="shape"/></filter></defs></svg>