<svg width="32" height="25" viewBox="0 0 32 25" fill="none" xmlns="http://www.w3.org/2000/svg"><path d="M13.29.114v4.034c-2.072 0-4 .683-5.786 2.05-1.785 1.345-2.678 2.958-2.678 4.84 0 1.121.441 1.681 1.323 1.681.198 0 .595-.078 1.19-.235.617-.134 1.113-.202 1.487-.202 1.213 0 2.348.505 3.405 1.513 1.08.986 1.62 2.353 1.62 4.1 0 1.704-.55 3.172-1.653 4.404-1.102 1.21-2.611 1.815-4.529 1.815-2.292 0-4.143-.874-5.553-2.622C.706 19.722 0 17.268 0 14.132 0 9.805 1.29 6.421 3.868 3.98c2.6-2.465 5.74-3.754 9.421-3.866zm18.148 0v4.034c-1.961 0-3.868.672-5.719 2.017-1.83 1.322-2.744 2.946-2.744 4.874 0 1.12.441 1.68 1.322 1.68.199 0 .596-.078 1.19-.235.618-.134 1.114-.202 1.488-.202 1.278 0 2.435.516 3.471 1.546C31.482 14.86 32 16.215 32 17.896c0 1.703-.551 3.17-1.653 4.403-1.102 1.21-2.612 1.815-4.529 1.815-2.292 0-4.143-.874-5.553-2.622-1.411-1.77-2.116-4.224-2.116-7.36 0-4.326 1.289-7.71 3.867-10.152C24.617 1.515 27.759.226 31.439.114z" fill="#ACD8FB"/></svg>