<svg width="1709" height="48" viewBox="0 0 1709 48" fill="none" xmlns="http://www.w3.org/2000/svg">
<path opacity="0.3" d="M138 12L129 16" stroke="#6DDCFA" stroke-width="6" stroke-linecap="round"/>
<path opacity="0.5" d="M1139 5L1130 9" stroke="#6DDCFA" stroke-width="6" stroke-linecap="round"/>
<path opacity="0.45" d="M10.837 13.4572L4.00002 6.36808" stroke="#6DDCFA" stroke-width="6" stroke-linecap="round"/>
<path opacity="0.2" d="M1394.08 20L1394.76 29.8254" stroke="#6DDCFA" stroke-width="6" stroke-linecap="round"/>
<path opacity="0.2" d="M905 35L896 39" stroke="#6DDCFA" stroke-width="6" stroke-linecap="round"/>
<path opacity="0.2" d="M207 28.6946L212.502 36.8633" stroke="#6DDCFA" stroke-width="6" stroke-linecap="round"/>
<path opacity="0.2" d="M599 9L590 13" stroke="#2DAFD2" stroke-width="6" stroke-linecap="round"/>
<path opacity="0.5" d="M1549 35L1540 39" stroke="#98E9FF" stroke-width="6" stroke-linecap="round"/>
<path opacity="0.5" d="M1698 13.3681L1704.84 20.4572" stroke="#D8F7FF" stroke-width="6" stroke-linecap="round"/>
<path opacity="0.2" d="M681.794 9L676 16.9641" stroke="#6DDCFA" stroke-width="6" stroke-linecap="round"/>
<circle opacity="0.4" cx="103" cy="31" r="3" fill="#99E9FF"/>
<circle opacity="0.3" cx="496" cy="41" r="3" fill="#99E9FF"/>
<circle opacity="0.2" cx="1644" cy="19" r="3" fill="#B0EEFF"/>
<circle opacity="0.2" cx="833" cy="1" r="3" fill="#99E9FF"/>
<circle opacity="0.4" cx="1243" cy="37" r="3" fill="#99E9FF"/>
<circle opacity="0.3" cx="1449" cy="31" r="3" fill="#BFF1FF"/>
<circle opacity="0.2" cx="784" cy="23" r="3" fill="#99E9FF"/>
<circle opacity="0.5" cx="294" cy="20" r="3" fill="#99E9FF"/>
<g opacity="0.3">
<path d="M427.844 23.9999C427.844 28.5256 424.332 32.1943 420 32.1943C415.668 32.1943 412.157 28.5256 412.157 23.9999C412.157 19.4743 415.668 15.8055 420 15.8055C424.332 15.8055 427.844 19.4743 427.844 23.9999Z" fill="#99E9FF"/>
<path fill-rule="evenodd" clip-rule="evenodd" d="M420 -6.83629C418.714 -8.14241 417.433 -9.33774 416.167 -10.4126C412.898 -13.1886 409.649 -15.2305 406.616 -16.2556C403.583 -17.2807 400.554 -17.3502 398 -15.8099C395.446 -14.2696 393.989 -11.4939 393.323 -8.23723C392.656 -4.98026 392.724 -1.02016 393.39 3.32586C393.649 5.00858 393.999 6.76539 394.439 8.58185C392.713 9.09219 391.082 9.65369 389.558 10.2616C385.622 11.8316 382.305 13.7498 379.939 15.9816C377.572 18.2132 376 20.9194 376 24C376 27.0806 377.572 29.7868 379.939 32.0184C382.305 34.2502 385.622 36.1684 389.558 37.7384C391.082 38.3463 392.713 38.9078 394.439 39.4181C393.999 41.2346 393.649 42.9914 393.39 44.6741C392.724 49.0202 392.656 52.9803 393.323 56.2372C393.989 59.4939 395.446 62.2696 398 63.8099C400.554 65.3502 403.583 65.2807 406.616 64.2556C409.649 63.2305 412.898 61.1886 416.167 58.4126C417.433 57.3377 418.714 56.1424 420 54.8363C421.286 56.1424 422.567 57.3377 423.833 58.4126C427.102 61.1886 430.351 63.2305 433.384 64.2556C436.417 65.2807 439.446 65.3502 442 63.8099C444.554 62.2696 446.011 59.4939 446.677 56.2372C447.344 52.9803 447.276 49.0202 446.61 44.6742C446.351 42.9914 446.001 41.2346 445.561 39.4181C447.287 38.9078 448.918 38.3463 450.442 37.7384C454.378 36.1684 457.695 34.2502 460.061 32.0184C462.428 29.7868 464 27.0806 464 24C464 20.9194 462.428 18.2132 460.061 15.9816C457.695 13.7498 454.378 11.8316 450.442 10.2616C448.918 9.65369 447.287 9.09219 445.561 8.58186C446.001 6.7654 446.351 5.00858 446.61 3.32585C447.276 -1.02017 447.344 -4.98026 446.677 -8.23723C446.011 -11.4939 444.554 -14.2696 442 -15.8099C439.446 -17.3502 436.417 -17.2807 433.384 -16.2556C430.351 -15.2305 427.102 -13.1886 423.833 -10.4126C422.567 -9.33774 421.286 -8.14242 420 -6.83629ZM440.087 -12.3482C441.376 -11.5705 442.403 -10.0068 442.936 -7.40116C443.469 -4.79576 443.455 -1.3705 442.832 2.6935C442.592 4.25492 442.265 5.89467 441.853 7.59861C438.233 6.74265 434.288 6.09531 430.117 5.69243C427.698 2.12037 425.189 -1.1255 422.669 -3.97257C423.876 -5.19771 425.071 -6.31326 426.246 -7.31061C429.303 -9.90649 432.135 -11.6324 434.562 -12.4524C436.988 -13.2726 438.798 -13.1259 440.087 -12.3482ZM417.331 -3.97257C416.124 -5.19771 414.929 -6.31325 413.754 -7.31061C410.697 -9.90649 407.865 -11.6324 405.438 -12.4524C403.012 -13.2726 401.202 -13.1259 399.913 -12.3482C398.624 -11.5705 397.597 -10.0068 397.064 -7.40116C396.531 -4.79576 396.545 -1.3705 397.168 2.6935C397.408 4.25492 397.735 5.89467 398.147 7.59861C401.767 6.74265 405.712 6.09532 409.883 5.69244C412.302 2.12037 414.811 -1.1255 417.331 -3.97257ZM440.807 11.4499C438.335 10.8731 435.692 10.3947 432.911 10.0301C433.818 11.5121 434.707 13.0389 435.573 14.6064C436.44 16.1739 437.261 17.7419 438.035 19.3039C439.124 16.6053 440.049 13.9741 440.807 11.4499ZM440.234 24C441.986 20.0251 443.422 16.1319 444.522 12.4288C446.141 12.9076 447.664 13.4318 449.078 13.9959C452.758 15.464 455.605 17.1634 457.498 18.9487C459.391 20.7342 460.174 22.4445 460.174 24C460.174 25.5555 459.391 27.2658 457.498 29.0513C455.605 30.8366 452.758 32.536 449.078 34.0041C447.664 34.5682 446.141 35.0924 444.522 35.5712C443.422 31.8681 441.986 27.9749 440.234 24ZM436.005 24C434.881 21.5607 433.631 19.0867 432.26 16.6051C430.889 14.1235 429.462 11.7558 428.003 9.51872C425.418 9.31656 422.743 9.21012 420 9.21012C417.257 9.21012 414.582 9.31656 411.997 9.51871C410.538 11.7558 409.111 14.1235 407.74 16.6051C406.369 19.0867 405.119 21.5607 403.995 24C405.119 26.4393 406.369 28.9133 407.74 31.3949C409.111 33.8765 410.538 36.2442 411.997 38.4813C414.582 38.6834 417.257 38.7899 420 38.7899C422.743 38.7899 425.418 38.6834 428.003 38.4813C429.462 36.2442 430.889 33.8765 432.26 31.3949C433.631 28.9133 434.881 26.4393 436.005 24ZM432.911 37.9699C433.818 36.4879 434.707 34.9611 435.573 33.3936C436.44 31.8261 437.261 30.2581 438.035 28.6962C439.124 31.3947 440.049 34.0259 440.807 36.5501C438.335 37.1269 435.692 37.6053 432.911 37.9699ZM425.125 42.666C423.443 42.7461 421.732 42.7871 420 42.7871C418.268 42.7871 416.557 42.7461 414.875 42.666C416.568 45 418.286 47.1528 420 49.1003C421.714 47.1528 423.432 45 425.125 42.666ZM422.669 51.9726C425.189 49.1255 427.698 45.8796 430.117 42.3076C434.288 41.9047 438.233 41.2574 441.853 40.4014C442.265 42.1053 442.592 43.7451 442.832 45.3065C443.455 49.3705 443.469 52.7958 442.936 55.4012C442.403 58.0068 441.376 59.5705 440.087 60.3482C438.798 61.1259 436.988 61.2726 434.562 60.4524C432.135 59.6324 429.303 57.9065 426.246 55.3106C425.071 54.3133 423.876 53.1977 422.669 51.9726ZM417.331 51.9726C414.811 49.1255 412.302 45.8796 409.883 42.3076C405.712 41.9047 401.767 41.2573 398.147 40.4014C397.735 42.1053 397.408 43.7451 397.168 45.3065C396.545 49.3705 396.531 52.7958 397.064 55.4012C397.597 58.0068 398.624 59.5705 399.913 60.3482C401.202 61.1259 403.012 61.2726 405.438 60.4524C407.865 59.6324 410.697 57.9065 413.754 55.3106C414.929 54.3133 416.124 53.1977 417.331 51.9726ZM399.193 36.5501C401.665 37.1269 404.308 37.6053 407.089 37.9699C406.182 36.4879 405.293 34.9611 404.427 33.3936C403.56 31.8261 402.739 30.2581 401.965 28.6961C400.876 31.3947 399.951 34.0259 399.193 36.5501ZM401.965 19.3038C402.739 17.7419 403.56 16.1739 404.427 14.6064C405.293 13.0389 406.182 11.5121 407.089 10.0301C404.308 10.3947 401.665 10.8731 399.193 11.4499C399.951 13.9741 400.876 16.6053 401.965 19.3038ZM399.766 24C398.014 27.9749 396.578 31.8681 395.478 35.5712C393.859 35.0924 392.336 34.5682 390.922 34.0041C387.242 32.536 384.395 30.8366 382.502 29.0513C380.609 27.2658 379.826 25.5555 379.826 24C379.826 22.4445 380.609 20.7342 382.502 18.9487C384.395 17.1634 387.242 15.464 390.922 13.9959C392.336 13.4318 393.859 12.9076 395.478 12.4288C396.578 16.1319 398.014 20.0251 399.766 24ZM414.875 5.33399C416.557 5.25394 418.268 5.21286 420 5.21286C421.732 5.21286 423.443 5.25393 425.125 5.33398C423.432 3 421.714 0.847227 420 -1.10027C418.286 0.847227 416.568 3 414.875 5.33399Z" fill="#99E9FF"/>
</g>
</svg>
