<svg xmlns="http://www.w3.org/2000/svg" viewBox="15 7 114 132" fill="none">
    <path d="M26.5224 134.364C26.5224 132.013 25.0878 130.628 23.1808 130.628C21.2703 130.628 19.8392 132.013 19.8392 134.364C19.8392 136.711 21.2703 138.099 23.1808 138.099C25.0878 138.099 26.5224 136.714 26.5224 134.364ZM25.1979 134.364C25.1979 136.018 24.3669 136.917 23.1808 136.917C21.9983 136.917 21.1638 136.018 21.1638 134.364C21.1638 132.709 21.9983 131.81 23.1808 131.81C24.3669 131.81 25.1979 132.709 25.1979 134.364ZM28.768 138H30.0855V134.911H33.1075V133.806H30.0855V131.832H33.4271V130.727H28.768V138ZM35.6274 138H36.9448V134.911H39.9669V133.806H36.9448V131.832H40.2865V130.727H35.6274V138ZM42.4867 138H47.0073V136.896H43.8042V130.727H42.4867V138ZM50.4683 130.727H49.1508V138H50.4683V130.727ZM58.8715 130.727H57.5611V135.685H57.4972L54.0739 130.727H52.8949V138H54.2124V133.046H54.2728L57.6996 138H58.8715V130.727ZM61.3071 138H66.0656V136.896H62.6245V134.911H65.7921V133.806H62.6245V131.832H66.0372V130.727H61.3071V138ZM75.8142 132.727H77.0819C77.0571 131.498 76.0095 130.628 74.4612 130.628C72.9342 130.628 71.7872 131.487 71.7907 132.773C71.7907 133.817 72.5329 134.417 73.7296 134.726L74.5571 134.939C75.3419 135.138 75.8603 135.383 75.8639 135.947C75.8603 136.569 75.2708 136.984 74.4115 136.984C73.5876 136.984 72.9484 136.615 72.8951 135.852H71.599C71.6522 137.297 72.7282 138.11 74.4221 138.11C76.1657 138.11 77.1778 137.24 77.1813 135.958C77.1778 134.697 76.1373 134.122 75.0436 133.863L74.3617 133.692C73.7651 133.55 73.1188 133.298 73.1259 132.691C73.1295 132.144 73.6196 131.743 74.4434 131.743C75.2282 131.743 75.7467 132.109 75.8142 132.727ZM79.0363 131.832H81.2841V138H82.591V131.832H84.8388V130.727H79.0363V131.832ZM93.1435 134.364C93.1435 132.013 91.7089 130.628 89.8019 130.628C87.8914 130.628 86.4603 132.013 86.4603 134.364C86.4603 136.711 87.8914 138.099 89.8019 138.099C91.7089 138.099 93.1435 136.714 93.1435 134.364ZM91.8189 134.364C91.8189 136.018 90.988 136.917 89.8019 136.917C88.6194 136.917 87.7849 136.018 87.7849 134.364C87.7849 132.709 88.6194 131.81 89.8019 131.81C90.988 131.81 91.8189 132.709 91.8189 134.364ZM95.3891 138H96.7066V135.337H98.0489L99.4764 138H100.947L99.3735 135.116C100.229 134.772 100.68 134.04 100.68 133.053C100.68 131.665 99.7854 130.727 98.1164 130.727H95.3891V138ZM96.7066 134.243V131.828H97.9139C98.8976 131.828 99.3379 132.279 99.3379 133.053C99.3379 133.827 98.8976 134.243 97.921 134.243H96.7066ZM103.827 138L104.427 136.207H107.161L107.765 138H109.171L106.607 130.727H104.981L102.421 138H103.827ZM104.782 135.148L105.766 132.219H105.823L106.806 135.148H104.782ZM115.66 133.05H117.002C116.778 131.622 115.542 130.628 113.934 130.628C112.03 130.628 110.603 132.027 110.603 134.371C110.603 136.672 111.966 138.099 113.973 138.099C115.773 138.099 117.062 136.942 117.062 135.067V134.193H114.111V135.223H115.788C115.766 136.26 115.074 136.917 113.98 136.917C112.762 136.917 111.927 136.004 111.927 134.357C111.927 132.719 112.776 131.81 113.952 131.81C114.829 131.81 115.425 132.279 115.66 133.05ZM119.336 138H124.095V136.896H120.654V134.911H123.821V133.806H120.654V131.832H124.066V130.727H119.336V138Z" fill="#B2BECD"/>
    <circle cx="71.9999" cy="64" r="56" fill="white"/>
    <path d="M71.9999 57.6667C86.3593 57.6667 97.9999 52.8164 97.9999 46.8333C97.9999 40.8502 86.3593 36 71.9999 36C57.6405 36 45.9999 40.8502 45.9999 46.8333C45.9999 52.8164 57.6405 57.6667 71.9999 57.6667Z" stroke="#FF9982" stroke-width="3" stroke-miterlimit="10" stroke-linecap="round"/>
    <path d="M97.9999 58.479C97.9999 64.4617 86.354 69.3123 71.9999 69.3123C57.6457 69.3123 45.9999 64.4617 45.9999 58.479" stroke="#FF9982" stroke-width="3" stroke-miterlimit="10" stroke-linecap="round"/>
    <path d="M97.9999 70.125C97.9999 76.1077 86.354 80.9583 71.9999 80.9583C57.6457 80.9583 45.9999 76.1077 45.9999 70.125" stroke="#FF9982" stroke-width="3" stroke-miterlimit="10" stroke-linecap="round"/>
    <path d="M45.9999 46.7305V81.603C45.9999 87.5288 57.6457 92.3334 71.9999 92.3334C86.354 92.3334 97.9999 87.5288 97.9999 81.603V46.7305" stroke="#FF9982" stroke-width="3" stroke-miterlimit="10" stroke-linecap="round"/>
</svg>
