<svg xmlns="http://www.w3.org/2000/svg" fill="none" viewBox="15 7 114 132">
    <path fill="#B2BECD" d="M34.16 130.73h-1.31v4.96h-.07l-3.42-4.96h-1.18V138h1.32v-4.95h.06l3.43 4.95h1.17v-7.27zm2.43 7.27h4.76v-1.1h-3.44v-1.99h3.17v-1.1H37.9v-1.98h3.41v-1.1H36.6V138zm6.76-6.17h2.25V138h1.3v-6.17h2.25v-1.1h-5.8v1.1zM52.8 138h1.3l1.46-5.1h.06l1.45 5.1h1.3l2.05-7.27h-1.41l-1.31 5.34h-.07l-1.4-5.34h-1.29l-1.4 5.34h-.06l-1.31-5.34h-1.42L52.8 138zm15.7-3.64c0-2.35-1.44-3.73-3.35-3.73-1.9 0-3.34 1.38-3.34 3.73s1.43 3.74 3.34 3.74 3.35-1.39 3.35-3.74zm-1.33 0c0 1.66-.83 2.56-2.02 2.56-1.18 0-2.01-.9-2.01-2.56 0-1.65.83-2.55 2.01-2.55 1.19 0 2.02.9 2.02 2.55zm3.57 3.64h1.32v-2.66h1.34l1.43 2.66h1.47l-1.57-2.88c.85-.35 1.3-1.08 1.3-2.07 0-1.39-.9-2.32-2.56-2.32h-2.73V138zm1.32-3.76v-2.41h1.2c.99 0 1.43.45 1.43 1.22 0 .78-.44 1.2-1.42 1.2h-1.21zm6.18 3.76h1.32v-2.17l.8-.95 2.18 3.12h1.58l-2.84-4 2.82-3.27h-1.61l-2.84 3.34h-.09v-3.34h-1.32V138zm12.57-7.27h-1.32V138h1.32v-7.27zm8.4 0h-1.3v4.96h-.07l-3.42-4.96h-1.18V138h1.31v-4.95h.06l3.43 4.95h1.17v-7.27zm2.44 7.27h1.32v-3.09h3.02v-1.1h-3.02v-1.98h3.34v-1.1h-4.66V138zm13.36-3.64c0-2.35-1.44-3.73-3.34-3.73-1.92 0-3.35 1.38-3.35 3.73s1.44 3.74 3.35 3.74c1.9 0 3.34-1.39 3.34-3.74zm-1.33 0c0 1.66-.83 2.56-2.02 2.56-1.18 0-2.01-.9-2.01-2.56 0-1.65.83-2.55 2.02-2.55 1.18 0 2.01.9 2.01 2.55z"/>
    <circle cx="72" cy="64" r="56" fill="#fff"/>
    <path fill="#F9D467" d="M85.61 74.9a20.51 20.51 0 00-27.16 0 3.14 3.14 0 104.2 4.7 14.18 14.18 0 0118.77 0 3.17 3.17 0 005.25-2.54 3.13 3.13 0 00-1.06-2.16z"/>
    <path fill="#F9D467" d="M72.03 56.89a33.4 33.4 0 00-22.82 8.95 3.14 3.14 0 003.26 5.26c.4-.16.75-.39 1.05-.68a27.19 27.19 0 0137.01 0 3.16 3.16 0 005.06-3.58 3.14 3.14 0 00-.75-1 33.4 33.4 0 00-22.81-8.95z"/>
    <path fill="#F9D467" d="M102.95 55.72a46.6 46.6 0 00-61.84 0 3.14 3.14 0 00-.3 4.48 3.16 3.16 0 004.5.2 40.27 40.27 0 0153.43 0 3.17 3.17 0 005.26-2.52 3.13 3.13 0 00-1.05-2.17zM72.03 92a4.8 4.8 0 004.8-4.78 4.8 4.8 0 00-4.8-4.78 4.8 4.8 0 00-4.81 4.78 4.8 4.8 0 004.8 4.78z"/>
    <path fill="#275794" stroke="#fff" stroke-linecap="round" stroke-linejoin="round" stroke-width="3" d="M96 61.5a13.5 13.5 0 100-27 13.5 13.5 0 000 27z"/>
    <path stroke="#DAF2FF" stroke-linecap="round" stroke-linejoin="round" stroke-width="2.67" d="M96 52.8V48m0-4.8h.01"/>
</svg>