<svg fill="none" viewBox="15 7 90 108" xmlns="http://www.w3.org/2000/svg">
    <path fill="#B2BECD" d="M29.3 114h1.31v-2.17l.8-.95L33.6 114h1.58l-2.83-4 2.8-3.27h-1.6l-2.84 3.34h-.09v-3.34H29.3V114zm7.76 0h4.76v-1.1h-3.44v-1.99h3.17v-1.1h-3.17v-1.98h3.41v-1.1h-4.73V114zm6.58-7.27l2.65 4.56V114h1.31v-2.71l2.65-4.56h-1.5l-1.77 3.21h-.07l-1.78-3.21h-1.49zm8.54 7.27h2.94c1.67 0 2.48-.85 2.48-1.98 0-1.1-.78-1.75-1.55-1.79v-.07c.7-.17 1.27-.66 1.27-1.55 0-1.08-.78-1.88-2.36-1.88h-2.78V114zm1.32-1.1v-2.13h1.45c.81 0 1.32.5 1.32 1.15 0 .57-.4.98-1.36.98H53.5zm0-3.08v-2h1.33c.77 0 1.17.4 1.17.96 0 .64-.52 1.04-1.2 1.04h-1.3zm12.75.54c0-2.35-1.44-3.73-3.34-3.73-1.91 0-3.34 1.38-3.34 3.73s1.43 3.74 3.34 3.74c1.9 0 3.34-1.39 3.34-3.74zm-1.33 0c0 1.66-.83 2.56-2.01 2.56-1.18 0-2.02-.9-2.02-2.56 0-1.65.84-2.55 2.02-2.55 1.18 0 2.01.9 2.01 2.55zM69.1 114l.6-1.8h2.73l.6 1.8h1.41l-2.56-7.27h-1.63L67.68 114h1.4zm.95-2.85l.99-2.93h.05l.99 2.93h-2.03zM76.4 114h1.32v-2.66h1.34l1.43 2.66h1.47l-1.58-2.88c.86-.35 1.31-1.08 1.31-2.07 0-1.38-.9-2.32-2.56-2.32h-2.73V114zm1.32-3.76v-2.41h1.2c.99 0 1.43.45 1.43 1.22 0 .78-.44 1.2-1.42 1.2h-1.21zm8.65 3.76c2.21 0 3.53-1.37 3.53-3.64s-1.32-3.63-3.48-3.63h-2.52V114h2.47zm-1.15-1.14v-5h1.12c1.48 0 2.25.83 2.25 2.5s-.77 2.5-2.29 2.5h-1.08z"/>

    <circle cx="60" cy="52" r="44" fill="#fff"/>

    <circle cx="60" cy="52" r="44" fill="#E5E9F1"/>
    <mask id="keyboard_a" width="88" height="88" x="16" y="8" maskUnits="userSpaceOnUse">
        <circle cx="60" cy="52" r="44" fill="#D6D9DF"/>
    </mask>
    <g mask="url(#keyboard_a)">
        <g filter="url(#keyboard_filter1_d)">
            <path fill="#fff" fill-rule="evenodd" d="M33.29 77a4 4 0 014-4h17.14a4 4 0 014 4v20.29a4 4 0 01-4 4H37.29a4 4 0 01-4-4V77z" clip-rule="evenodd"/>
        </g>
        <g filter="url(#keyboard_filter2_d)">
            <path fill="#fff" fill-rule="evenodd" d="M5 77a4 4 0 014-4h17.14a4 4 0 014 4v20.29a4 4 0 01-4 4H9a4 4 0 01-4-4V77z" clip-rule="evenodd"/>
        </g>
        <g filter="url(#keyboard_filter3_d)">
            <path fill="#fff" fill-rule="evenodd" d="M61.57 77a4 4 0 014-4h17.14a4 4 0 014 4v20.29a4 4 0 01-4 4H65.57a4 4 0 01-4-4V77z" clip-rule="evenodd"/>
        </g>
        <g filter="url(#keyboard_filter4_d)">
            <path fill="#fff" fill-rule="evenodd" d="M89.86 77a4 4 0 014-4H111a4 4 0 014 4v20.29a4 4 0 01-4 4H93.86a4 4 0 01-4-4V77z" clip-rule="evenodd"/>
        </g>
        <g filter="url(#keyboard_filter5_d)">
            <path fill="#fff" fill-rule="evenodd" d="M18.14 43.43a4 4 0 014-4H39.3a4 4 0 014 4V63.7a4 4 0 01-4 4H22.14a4 4 0 01-4-4V43.43z" clip-rule="evenodd"/>
        </g>
        <g filter="url(#keyboard_filter6_d)">
            <path fill="#fff" fill-rule="evenodd" d="M47.43 43.43a4 4 0 014-4h17.14a4 4 0 014 4V63.7a4 4 0 01-4 4H51.43a4 4 0 01-4-4V43.43z" clip-rule="evenodd"/>
        </g>
        <g filter="url(#keyboard_filter7_d)">
            <path fill="#fff" fill-rule="evenodd" d="M76.71 43.43a4 4 0 014-4h17.15a4 4 0 014 4V63.7a4 4 0 01-4 4H80.7a4 4 0 01-4-4V43.43z" clip-rule="evenodd"/>
        </g>
        <g filter="url(#keyboard_filter8_d)">
            <path fill="#fff" fill-rule="evenodd" d="M8.14 9.86a4 4 0 014-4H29.3a4 4 0 014 4v20.28a4 4 0 01-4 4H12.14a4 4 0 01-4-4V9.86z" clip-rule="evenodd"/>
        </g>
        <g filter="url(#keyboard_filter9_d)">
            <path fill="#fff" fill-rule="evenodd" d="M36.43 9.86a4 4 0 014-4h17.14a4 4 0 014 4v20.28a4 4 0 01-4 4H40.43a4 4 0 01-4-4V9.86z" clip-rule="evenodd"/>
        </g>
        <g filter="url(#keyboard_filter10_d)">
            <path fill="#fff" fill-rule="evenodd" d="M64.71 9.86a4 4 0 014-4h17.15a4 4 0 014 4v20.28a4 4 0 01-4 4H68.7a4 4 0 01-4-4V9.86z" clip-rule="evenodd"/>
        </g>
        <g filter="url(#keyboard_filter11_d)">
            <path fill="#fff" fill-rule="evenodd" d="M93 9.86a4 4 0 014-4h17.14a4 4 0 014 4v20.28a4 4 0 01-4 4H97a4 4 0 01-4-4V9.86z" clip-rule="evenodd"/>
        </g>
    </g>
    <defs>
        <filter id="keyboard_filter1_d" width="25.14" height="29.09" x="33.29" y="73" color-interpolation-filters="sRGB" filterUnits="userSpaceOnUse">
            <feFlood flood-opacity="0" result="BackgroundImageFix"/>
            <feColorMatrix in="SourceAlpha" values="0 0 0 0 0 0 0 0 0 0 0 0 0 0 0 0 0 0 127 0"/>
            <feOffset dy=".8"/>
            <feColorMatrix values="0 0 0 0 0 0 0 0 0 0 0 0 0 0 0 0 0 0 0.3 0"/>
            <feBlend in2="BackgroundImageFix" result="effect1_dropShadow"/>
            <feBlend in="SourceGraphic" in2="effect1_dropShadow" result="shape"/>
        </filter>
        <filter id="keyboard_filter2_d" width="25.14" height="29.09" x="5" y="73" color-interpolation-filters="sRGB" filterUnits="userSpaceOnUse">
            <feFlood flood-opacity="0" result="BackgroundImageFix"/>
            <feColorMatrix in="SourceAlpha" values="0 0 0 0 0 0 0 0 0 0 0 0 0 0 0 0 0 0 127 0"/>
            <feOffset dy=".8"/>
            <feColorMatrix values="0 0 0 0 0 0 0 0 0 0 0 0 0 0 0 0 0 0 0.3 0"/>
            <feBlend in2="BackgroundImageFix" result="effect1_dropShadow"/>
            <feBlend in="SourceGraphic" in2="effect1_dropShadow" result="shape"/>
        </filter>
        <filter id="keyboard_filter3_d" width="25.14" height="29.09" x="61.57" y="73" color-interpolation-filters="sRGB" filterUnits="userSpaceOnUse">
            <feFlood flood-opacity="0" result="BackgroundImageFix"/>
            <feColorMatrix in="SourceAlpha" values="0 0 0 0 0 0 0 0 0 0 0 0 0 0 0 0 0 0 127 0"/>
            <feOffset dy=".8"/>
            <feColorMatrix values="0 0 0 0 0 0 0 0 0 0 0 0 0 0 0 0 0 0 0.3 0"/>
            <feBlend in2="BackgroundImageFix" result="effect1_dropShadow"/>
            <feBlend in="SourceGraphic" in2="effect1_dropShadow" result="shape"/>
        </filter>
        <filter id="keyboard_filter4_d" width="25.14" height="29.09" x="89.86" y="73" color-interpolation-filters="sRGB" filterUnits="userSpaceOnUse">
            <feFlood flood-opacity="0" result="BackgroundImageFix"/>
            <feColorMatrix in="SourceAlpha" values="0 0 0 0 0 0 0 0 0 0 0 0 0 0 0 0 0 0 127 0"/>
            <feOffset dy=".8"/>
            <feColorMatrix values="0 0 0 0 0 0 0 0 0 0 0 0 0 0 0 0 0 0 0.3 0"/>
            <feBlend in2="BackgroundImageFix" result="effect1_dropShadow"/>
            <feBlend in="SourceGraphic" in2="effect1_dropShadow" result="shape"/>
        </filter>
        <filter id="keyboard_filter5_d" width="25.14" height="29.09" x="18.14" y="39.43" color-interpolation-filters="sRGB" filterUnits="userSpaceOnUse">
            <feFlood flood-opacity="0" result="BackgroundImageFix"/>
            <feColorMatrix in="SourceAlpha" values="0 0 0 0 0 0 0 0 0 0 0 0 0 0 0 0 0 0 127 0"/>
            <feOffset dy=".8"/>
            <feColorMatrix values="0 0 0 0 0 0 0 0 0 0 0 0 0 0 0 0 0 0 0.3 0"/>
            <feBlend in2="BackgroundImageFix" result="effect1_dropShadow"/>
            <feBlend in="SourceGraphic" in2="effect1_dropShadow" result="shape"/>
        </filter>
        <filter id="keyboard_filter6_d" width="25.14" height="29.09" x="47.43" y="39.43" color-interpolation-filters="sRGB" filterUnits="userSpaceOnUse">
            <feFlood flood-opacity="0" result="BackgroundImageFix"/>
            <feColorMatrix in="SourceAlpha" values="0 0 0 0 0 0 0 0 0 0 0 0 0 0 0 0 0 0 127 0"/>
            <feOffset dy=".8"/>
            <feColorMatrix values="0 0 0 0 0 0 0 0 0 0 0 0 0 0 0 0 0 0 0.3 0"/>
            <feBlend in2="BackgroundImageFix" result="effect1_dropShadow"/>
            <feBlend in="SourceGraphic" in2="effect1_dropShadow" result="shape"/>
        </filter>
        <filter id="keyboard_filter7_d" width="25.14" height="29.09" x="76.71" y="39.43" color-interpolation-filters="sRGB" filterUnits="userSpaceOnUse">
            <feFlood flood-opacity="0" result="BackgroundImageFix"/>
            <feColorMatrix in="SourceAlpha" values="0 0 0 0 0 0 0 0 0 0 0 0 0 0 0 0 0 0 127 0"/>
            <feOffset dy=".8"/>
            <feColorMatrix values="0 0 0 0 0 0 0 0 0 0 0 0 0 0 0 0 0 0 0.3 0"/>
            <feBlend in2="BackgroundImageFix" result="effect1_dropShadow"/>
            <feBlend in="SourceGraphic" in2="effect1_dropShadow" result="shape"/>
        </filter>
        <filter id="keyboard_filter8_d" width="25.14" height="29.09" x="8.14" y="5.86" color-interpolation-filters="sRGB" filterUnits="userSpaceOnUse">
            <feFlood flood-opacity="0" result="BackgroundImageFix"/>
            <feColorMatrix in="SourceAlpha" values="0 0 0 0 0 0 0 0 0 0 0 0 0 0 0 0 0 0 127 0"/>
            <feOffset dy=".8"/>
            <feColorMatrix values="0 0 0 0 0 0 0 0 0 0 0 0 0 0 0 0 0 0 0.3 0"/>
            <feBlend in2="BackgroundImageFix" result="effect1_dropShadow"/>
            <feBlend in="SourceGraphic" in2="effect1_dropShadow" result="shape"/>
        </filter>
        <filter id="keyboard_filter9_d" width="25.14" height="29.09" x="36.43" y="5.86" color-interpolation-filters="sRGB" filterUnits="userSpaceOnUse">
            <feFlood flood-opacity="0" result="BackgroundImageFix"/>
            <feColorMatrix in="SourceAlpha" values="0 0 0 0 0 0 0 0 0 0 0 0 0 0 0 0 0 0 127 0"/>
            <feOffset dy=".8"/>
            <feColorMatrix values="0 0 0 0 0 0 0 0 0 0 0 0 0 0 0 0 0 0 0.3 0"/>
            <feBlend in2="BackgroundImageFix" result="effect1_dropShadow"/>
            <feBlend in="SourceGraphic" in2="effect1_dropShadow" result="shape"/>
        </filter>
        <filter id="keyboard_filter10_d" width="25.14" height="29.09" x="64.71" y="5.86" color-interpolation-filters="sRGB" filterUnits="userSpaceOnUse">
            <feFlood flood-opacity="0" result="BackgroundImageFix"/>
            <feColorMatrix in="SourceAlpha" values="0 0 0 0 0 0 0 0 0 0 0 0 0 0 0 0 0 0 127 0"/>
            <feOffset dy=".8"/>
            <feColorMatrix values="0 0 0 0 0 0 0 0 0 0 0 0 0 0 0 0 0 0 0.3 0"/>
            <feBlend in2="BackgroundImageFix" result="effect1_dropShadow"/>
            <feBlend in="SourceGraphic" in2="effect1_dropShadow" result="shape"/>
        </filter>
        <filter id="keyboard_filter11_d" width="25.14" height="29.09" x="93" y="5.86" color-interpolation-filters="sRGB" filterUnits="userSpaceOnUse">
            <feFlood flood-opacity="0" result="BackgroundImageFix"/>
            <feColorMatrix in="SourceAlpha" values="0 0 0 0 0 0 0 0 0 0 0 0 0 0 0 0 0 0 127 0"/>
            <feOffset dy=".8"/>
            <feColorMatrix values="0 0 0 0 0 0 0 0 0 0 0 0 0 0 0 0 0 0 0.3 0"/>
            <feBlend in2="BackgroundImageFix" result="effect1_dropShadow"/>
            <feBlend in="SourceGraphic" in2="effect1_dropShadow" result="shape"/>
        </filter>
    </defs>
</svg>