<svg fill="none" viewBox="-3 7 105 108" xmlns="http://www.w3.org/2000/svg">
    <path fill="#B2BECD" d="M-1.8 114h4.76v-1.1H-.48v-1.99H2.7v-1.1H-.48v-1.98h3.41v-1.1H-1.8V114zm7.08-7.27V114h1.26v-5h.07l2.01 4.98h.95l2-4.98h.07v5h1.27v-7.27h-1.62L9.14 112h-.09l-2.16-5.27H5.28zM16.4 114l.6-1.8h2.74l.6 1.8h1.4l-2.56-7.27h-1.62L15 114h1.4zm.96-2.85l.98-2.93h.06l.98 2.93h-2.02zm7.66-4.42h-1.32V114h1.32v-7.27zm2.43 7.27h4.52v-1.1h-3.2v-6.17h-1.32V114zm16.37-4.82c-.23-1.62-1.47-2.55-3.08-2.55-1.9 0-3.33 1.38-3.33 3.73s1.41 3.74 3.33 3.74c1.73 0 2.88-1.12 3.08-2.5l-1.33-.02c-.17.86-.86 1.34-1.73 1.34-1.18 0-2.03-.89-2.03-2.56 0-1.64.84-2.55 2.03-2.55.88 0 1.58.5 1.73 1.37h1.33zm8.7 1.18c0-2.35-1.43-3.73-3.34-3.73-1.9 0-3.34 1.38-3.34 3.73s1.43 3.74 3.34 3.74c1.9 0 3.34-1.39 3.34-3.74zm-1.32 0c0 1.66-.83 2.56-2.02 2.56-1.18 0-2.02-.9-2.02-2.56 0-1.65.84-2.55 2.02-2.55 1.19 0 2.02.9 2.02 2.55zm3.57-3.63V114h1.26v-5h.07l2.01 4.98h.95l2-4.98h.07v5h1.27v-7.27h-1.62L58.64 112h-.09l-2.16-5.27h-1.61zm10.2 7.27h1.32v-2.46h1.39c1.68 0 2.58-1 2.58-2.4s-.9-2.41-2.56-2.41h-2.73V114zm1.32-3.54v-2.63h1.2c.99 0 1.43.53 1.43 1.3 0 .78-.44 1.33-1.42 1.33H66.3zm12.61-.1c0-2.35-1.43-3.73-3.34-3.73s-3.34 1.38-3.34 3.73 1.43 3.74 3.34 3.74c1.9 0 3.34-1.39 3.34-3.74zm-1.32 0c0 1.66-.83 2.56-2.02 2.56-1.18 0-2.02-.9-2.02-2.56 0-1.65.84-2.55 2.02-2.55 1.19 0 2.02.9 2.02 2.55zm7.52-1.63h1.27c-.03-1.23-1.07-2.1-2.62-2.1-1.53 0-2.68.86-2.67 2.14 0 1.05.74 1.65 1.94 1.96l.82.2c.79.2 1.3.45 1.31 1.02 0 .62-.6 1.03-1.45 1.03-.83 0-1.47-.37-1.52-1.13h-1.3c.06 1.45 1.13 2.26 2.83 2.26 1.74 0 2.75-.87 2.76-2.15 0-1.26-1.05-1.84-2.14-2.1l-.68-.17c-.6-.14-1.25-.4-1.24-1 0-.55.5-.95 1.32-.95.78 0 1.3.37 1.37.99zm3.54 5.27h4.76v-1.1h-3.44v-1.99h3.17v-1.1h-3.17v-1.98h3.41v-1.1h-4.73V114zm7.08 0h1.31v-2.66h1.35L99.8 114h1.47l-1.57-2.88c.86-.35 1.3-1.08 1.3-2.07 0-1.38-.89-2.32-2.56-2.32h-2.72V114zm1.31-3.76v-2.41h1.21c.98 0 1.42.45 1.42 1.22 0 .78-.44 1.2-1.41 1.2h-1.22z"/>
    <circle cx="50" cy="52" r="44" fill="#fff"/>
    <path fill="#E75D4D" d="M65.75 36h-31.5A5.26 5.26 0 0029 41.25v22.5A5.26 5.26 0 0034.25 69h31.5A5.26 5.26 0 0071 63.75v-22.5A5.26 5.26 0 0065.75 36zm-1.33 8.68l-13.5 10.5a1.5 1.5 0 01-1.84 0l-13.5-10.5a1.5 1.5 0 111.84-2.36L50 52.1l12.58-9.78a1.5 1.5 0 011.84 2.36z"/>
</svg>