<svg fill="none" viewBox="15 7 114 132" xmlns="http://www.w3.org/2000/svg">
    <path fill="#B2BECD" d="M24.44 130.73h-1.32V138h1.32v-7.27zm8.4 0h-1.3v4.96h-.07l-3.42-4.96h-1.18V138h1.32v-4.95h.06l3.42 4.95h1.18v-7.27zM39.7 138l.6-1.8h2.73l.6 1.8h1.41l-2.56-7.27h-1.63L38.29 138h1.4zm.95-2.85l.98-2.93h.06l.98 2.93h-2.02zM47 138h1.32v-2.46h1.39c1.68 0 2.58-1 2.58-2.4s-.9-2.41-2.57-2.41H47V138zm1.32-3.54v-2.63h1.2c.99 0 1.43.53 1.43 1.3 0 .78-.44 1.33-1.42 1.33h-1.21zm6.11 3.54h1.32v-2.46h1.4c1.67 0 2.57-1 2.57-2.4s-.89-2.41-2.56-2.41h-2.73V138zm1.32-3.54v-2.63h1.2c1 0 1.43.53 1.43 1.3 0 .78-.43 1.33-1.41 1.33h-1.22zm9.6 3.54h2.94c1.67 0 2.49-.85 2.49-1.98 0-1.1-.79-1.75-1.56-1.79v-.07c.71-.17 1.27-.66 1.27-1.55 0-1.08-.78-1.88-2.36-1.88h-2.78V138zm1.32-1.1v-2.13h1.45c.81 0 1.32.5 1.32 1.14 0 .58-.4.99-1.36.99h-1.41zm0-3.08v-2H68c.77 0 1.17.4 1.17.96 0 .64-.51 1.04-1.2 1.04h-1.3zm6.25 4.18h1.32v-2.66h1.34l1.43 2.66h1.47l-1.57-2.88c.85-.35 1.3-1.08 1.3-2.07 0-1.39-.9-2.32-2.56-2.32h-2.73V138zm1.32-3.76v-2.41h1.2c.99 0 1.43.45 1.43 1.22 0 .78-.44 1.2-1.42 1.2h-1.21zm12.68.12c0-2.35-1.43-3.73-3.34-3.73-1.9 0-3.34 1.38-3.34 3.73s1.43 3.74 3.34 3.74c1.9 0 3.34-1.39 3.34-3.74zm-1.32 0c0 1.66-.83 2.56-2.02 2.56-1.18 0-2.01-.9-2.01-2.56 0-1.65.83-2.55 2.01-2.55 1.19 0 2.02.9 2.02 2.55zm5.1 3.64H92l1.46-5.1h.06l1.45 5.1h1.3l2.05-7.27h-1.41l-1.31 5.34h-.07l-1.4-5.34h-1.29l-1.4 5.34h-.07l-1.3-5.34h-1.42L90.7 138zm13.49-5.27h1.27c-.03-1.23-1.07-2.1-2.62-2.1-1.53 0-2.68.86-2.67 2.14 0 1.05.74 1.65 1.94 1.96l.82.2c.79.2 1.3.45 1.31 1.02 0 .62-.6 1.03-1.45 1.03-.83 0-1.47-.36-1.52-1.13h-1.3c.06 1.45 1.13 2.26 2.83 2.26 1.74 0 2.75-.87 2.76-2.15 0-1.26-1.05-1.84-2.14-2.1l-.68-.17c-.6-.14-1.24-.4-1.24-1 0-.55.5-.95 1.32-.95.78 0 1.3.37 1.37.99zm3.54 5.27h4.76v-1.1h-3.44v-1.99h3.17v-1.1h-3.17v-1.98h3.41v-1.1h-4.73V138zm7.08 0h1.31v-2.66h1.35l1.42 2.66h1.47l-1.57-2.88c.86-.35 1.3-1.08 1.3-2.07 0-1.39-.89-2.32-2.56-2.32h-2.72V138zm1.31-3.76v-2.41h1.21c.98 0 1.42.45 1.42 1.22 0 .78-.44 1.2-1.41 1.2h-1.22z"/>
    <circle cx="72" cy="64" r="56" fill="#fff"/>
    <circle cx="72" cy="64" r="32" fill="#829CFF"/>
    <path stroke="#fff" stroke-width="3" d="M40 74h64M40 53h64M84.5 64c0 9.24-1.55 17.54-3.99 23.47-1.22 2.97-2.64 5.27-4.14 6.81-1.49 1.54-2.97 2.22-4.37 2.22s-2.88-.68-4.37-2.22c-1.5-1.54-2.92-3.84-4.14-6.81C61.05 81.54 59.5 73.24 59.5 64c0-9.24 1.55-17.54 3.99-23.47 1.22-2.97 2.64-5.27 4.14-6.81 1.49-1.54 2.97-2.22 4.37-2.22s2.88.68 4.37 2.22c1.5 1.54 2.92 3.84 4.14 6.81C82.95 46.46 84.5 54.76 84.5 64z"/>
</svg>
