<svg xmlns="http://www.w3.org/2000/svg" fill="none" viewBox="15 7 114 132">
    <path fill="#B2BECD" d="M33.4 132.73h1.27c-.03-1.23-1.08-2.1-2.63-2.1-1.52 0-2.67.86-2.67 2.14 0 1.05.75 1.65 1.94 1.96l.83.2c.78.2 1.3.45 1.3 1.02 0 .62-.59 1.03-1.45 1.03-.82 0-1.46-.36-1.51-1.13h-1.3c.06 1.45 1.13 2.26 2.83 2.26 1.74 0 2.75-.87 2.75-2.15 0-1.26-1.04-1.84-2.13-2.1l-.69-.17c-.6-.14-1.24-.4-1.23-1 0-.55.5-.95 1.32-.95.78 0 1.3.37 1.37.99zm10.04 1.63c0-2.35-1.44-3.73-3.34-3.73-1.91 0-3.35 1.38-3.35 3.73s1.44 3.74 3.35 3.74c1.9 0 3.34-1.39 3.34-3.74zm-1.33 0c0 1.66-.83 2.56-2.01 2.56-1.19 0-2.02-.9-2.02-2.56 0-1.65.83-2.55 2.02-2.55 1.18 0 2.01.9 2.01 2.55zm9.8-1.18c-.23-1.62-1.47-2.55-3.08-2.55-1.9 0-3.33 1.38-3.33 3.73s1.41 3.74 3.33 3.74c1.73 0 2.88-1.12 3.08-2.5l-1.33-.01c-.17.85-.86 1.33-1.73 1.33-1.18 0-2.03-.89-2.03-2.56 0-1.64.84-2.55 2.03-2.55.88 0 1.58.5 1.73 1.37h1.33zm3.52-2.45h-1.32V138h1.32v-7.27zM58.8 138l.6-1.8h2.74l.6 1.8h1.4l-2.56-7.27h-1.62L57.39 138h1.4zm.96-2.85l.98-2.93h.06l.98 2.93h-2.02zM66.1 138h4.52v-1.1h-3.2v-6.17H66.1V138zm14.1-5.27h1.26c-.02-1.23-1.07-2.1-2.62-2.1-1.53 0-2.67.86-2.67 2.14 0 1.05.74 1.65 1.94 1.96l.83.2c.78.2 1.3.45 1.3 1.02 0 .62-.6 1.03-1.45 1.03-.82 0-1.46-.36-1.52-1.13h-1.3c.06 1.45 1.14 2.26 2.83 2.26 1.74 0 2.76-.87 2.76-2.15 0-1.26-1.04-1.84-2.14-2.1l-.68-.17c-.6-.14-1.24-.4-1.24-1 0-.55.5-.95 1.32-.95.79 0 1.3.37 1.37.99zm3.53 5.27h1.32v-3.09h3.37V138h1.32v-7.27h-1.32v3.08h-3.37v-3.08h-1.32V138zm9.38 0l.6-1.8h2.73l.6 1.8h1.41l-2.56-7.27h-1.63L91.7 138h1.4zm.95-2.85l.99-2.93h.06l.98 2.93h-2.03zm6.35 2.85h1.32v-2.66h1.34l1.43 2.66h1.47l-1.57-2.88c.85-.35 1.3-1.08 1.3-2.07 0-1.39-.9-2.32-2.56-2.32h-2.73V138zm1.32-3.76v-2.41h1.2c.99 0 1.43.45 1.43 1.22 0 .78-.44 1.2-1.42 1.2h-1.21zm6.19 3.76h4.75v-1.1h-3.44v-1.99h3.17v-1.1h-3.17v-1.98h3.42v-1.1h-4.73V138z"/>
    <circle cx="72" cy="64" r="56" fill="#fff"/>
    <path fill="#3880FF" d="M85.33 74.47a8.55 8.55 0 00-6.24 2.7l-20.04-11.4a8.84 8.84 0 000-4.5L79.09 50.8a8.6 8.6 0 0014.67-4.26c.43-2.08.1-4.25-.93-6.1a8.55 8.55 0 00-10.78-3.8 8.68 8.68 0 00-4.48 4.2 8.83 8.83 0 00-.61 6.14L56.92 57.45a8.64 8.64 0 00-9.49-2.06 8.83 8.83 0 000 16.26 8.57 8.57 0 009.49-2.07l20.04 11.4a8.86 8.86 0 003.57 9.55 8.6 8.6 0 0010.09-.35 8.77 8.77 0 002.92-9.77 8.76 8.76 0 00-3.16-4.3 8.6 8.6 0 00-5.05-1.64z"/>
</svg>