<svg xmlns="http://www.w3.org/2000/svg" fill="none" viewBox="15 7 114 132">
    <path fill="#B2BECD" d="M36.6 138h1.31v-3.09h3.02v-1.1h-3.02v-1.98h3.34v-1.1H36.6V138zm8.17-7.27h-1.32V138h1.32v-7.27zM47.2 138h4.52v-1.1h-3.2v-6.17H47.2V138zm6.66 0h4.76v-1.1h-3.44v-1.99h3.17v-1.1h-3.17v-1.98h3.41v-1.1h-4.73V138zm11.03-5.27h1.27c-.03-1.23-1.08-2.1-2.62-2.1-1.53 0-2.68.86-2.67 2.14 0 1.05.74 1.65 1.93 1.96l.83.2c.79.2 1.3.45 1.3 1.02 0 .62-.58 1.03-1.44 1.03-.83 0-1.47-.36-1.52-1.13h-1.3c.06 1.45 1.13 2.26 2.83 2.26 1.74 0 2.75-.87 2.76-2.15 0-1.26-1.05-1.84-2.14-2.1l-.68-.17c-.6-.14-1.25-.4-1.24-1 0-.55.5-.95 1.32-.95.78 0 1.3.37 1.37.99zm3.04-2l2.65 4.56V138h1.31v-2.71l2.65-4.56h-1.49l-1.78 3.22h-.07l-1.78-3.22h-1.49zm12.5 2h1.26c-.02-1.23-1.07-2.1-2.62-2.1-1.53 0-2.67.86-2.67 2.14 0 1.05.74 1.65 1.94 1.96l.83.2c.78.2 1.3.45 1.3 1.02 0 .62-.59 1.03-1.45 1.03-.82 0-1.46-.36-1.52-1.13h-1.3c.06 1.45 1.14 2.26 2.83 2.26 1.75 0 2.76-.87 2.76-2.15 0-1.26-1.04-1.84-2.14-2.1l-.68-.17c-.6-.14-1.24-.4-1.23-1 0-.55.49-.95 1.31-.95.79 0 1.3.37 1.37.99zm3.22-.9h2.24V138h1.31v-6.17h2.25v-1.1h-5.8v1.1zm7.92 6.17h4.76v-1.1h-3.45v-1.99h3.17v-1.1h-3.17v-1.98h3.42v-1.1h-4.73V138zm7.07-7.27V138h1.27v-5h.06l2.01 4.98h.95l2-4.98h.07v5h1.27v-7.27h-1.61L102.5 136h-.09l-2.16-5.27h-1.6z"/>
    <circle cx="72" cy="64" r="56" fill="#fff"/>
    <path fill="url(#filesystem_paint0_linear)" d="M94.36 90H49.63a7.4 7.4 0 01-5.23-2.18 7.64 7.64 0 01-2.23-5.29l-2.15-22.3v-.04a6.6 6.6 0 011.68-4.93 6.4 6.4 0 014.7-2.1h51.2a6.31 6.31 0 014.7 2.1 6.52 6.52 0 011.68 4.93v.03l-2.16 22.31a7.64 7.64 0 01-2.23 5.29A7.4 7.4 0 0194.36 90z"/>
    <path fill="url(#filesystem_paint1_linear)" d="M92.26 42.33H71.48c-.64 0-1.25-.18-1.78-.54L66 39.27A7.35 7.35 0 0061.85 38H51.73c-1.98 0-3.88.8-5.28 2.22a7.65 7.65 0 00-2.19 5.36v3.25h55.47c0-4.18-3.35-6.5-7.47-6.5z"/>
    <defs>
        <linearGradient id="filesystem_paint0_linear" x1="71.99" x2="71.99" y1="38" y2="90.19" gradientUnits="userSpaceOnUse">
            <stop offset=".14" stop-color="#5EC1FF"/>
            <stop offset="1" stop-color="#3773E8"/>
        </linearGradient>
        <linearGradient id="filesystem_paint1_linear" x1="71.99" x2="71.99" y1="38" y2="90.19" gradientUnits="userSpaceOnUse">
            <stop offset=".14" stop-color="#5EC1FF"/>
            <stop offset="1" stop-color="#3773E8"/>
        </linearGradient>
    </defs>
</svg>