<svg viewBox="15 7 90 108" fill="none" xmlns="http://www.w3.org/2000/svg">
    <path d="M23.6979 109.05H25.0402C24.8165 107.622 23.5807 106.628 21.972 106.628C20.0686 106.628 18.6411 108.027 18.6411 110.371C18.6411 112.672 20.0047 114.099 22.0111 114.099C23.8115 114.099 25.1006 112.942 25.1006 111.067V110.193H22.1496V111.223H23.8257C23.8044 112.26 23.1119 112.917 22.0182 112.917C20.8002 112.917 19.9656 112.004 19.9656 110.357C19.9656 108.719 20.8144 107.81 21.9898 107.81C22.8669 107.81 23.4635 108.279 23.6979 109.05ZM27.3746 114H32.1331V112.896H28.692V110.911H31.8596V109.806H28.692V107.832H32.1047V106.727H27.3746V114ZM40.9474 110.364C40.9474 108.013 39.5127 106.628 37.6057 106.628C35.6952 106.628 34.2641 108.013 34.2641 110.364C34.2641 112.711 35.6952 114.099 37.6057 114.099C39.5127 114.099 40.9474 112.714 40.9474 110.364ZM39.6228 110.364C39.6228 112.018 38.7918 112.917 37.6057 112.917C36.4232 112.917 35.5887 112.018 35.5887 110.364C35.5887 108.709 36.4232 107.81 37.6057 107.81C38.7918 107.81 39.6228 108.709 39.6228 110.364ZM43.1929 114H47.7135V112.896H44.5104V106.727H43.1929V114ZM56.0724 110.364C56.0724 108.013 54.6377 106.628 52.7307 106.628C50.8202 106.628 49.3891 108.013 49.3891 110.364C49.3891 112.711 50.8202 114.099 52.7307 114.099C54.6377 114.099 56.0724 112.714 56.0724 110.364ZM54.7478 110.364C54.7478 112.018 53.9168 112.917 52.7307 112.917C51.5482 112.917 50.7137 112.018 50.7137 110.364C50.7137 108.709 51.5482 107.81 52.7307 107.81C53.9168 107.81 54.7478 108.709 54.7478 110.364ZM64.5431 109.181C64.3193 107.565 63.0764 106.628 61.4642 106.628C59.5644 106.628 58.1333 108.013 58.1333 110.364C58.1333 112.711 59.5466 114.099 61.4642 114.099C63.1936 114.099 64.3406 112.981 64.5431 111.592L63.2149 111.585C63.048 112.438 62.352 112.917 61.482 112.917C60.303 112.917 59.4578 112.033 59.4578 110.364C59.4578 108.723 60.2959 107.81 61.4855 107.81C62.3698 107.81 63.0622 108.311 63.2149 109.181H64.5431ZM67.6835 114L68.2836 112.207H71.018L71.6217 114H73.028L70.464 106.727H68.8376L66.2773 114H67.6835ZM68.6388 111.148L69.6224 108.219H69.6792L70.6629 111.148H68.6388ZM73.7874 107.832H76.0352V114H77.3421V107.832H79.5899V106.727H73.7874V107.832ZM83.026 106.727H81.7085V114H83.026V106.727ZM91.9513 110.364C91.9513 108.013 90.5166 106.628 88.6096 106.628C86.6991 106.628 85.268 108.013 85.268 110.364C85.268 112.711 86.6991 114.099 88.6096 114.099C90.5166 114.099 91.9513 112.714 91.9513 110.364ZM90.6267 110.364C90.6267 112.018 89.7957 112.917 88.6096 112.917C87.4271 112.917 86.5926 112.018 86.5926 110.364C86.5926 108.709 87.4271 107.81 88.6096 107.81C89.7957 107.81 90.6267 108.709 90.6267 110.364ZM100.173 106.727H98.863V111.685H98.7991L95.3758 106.727H94.1968V114H95.5143V109.046H95.5747L99.0015 114H100.173V106.727Z" fill="#B2BECD"/>
    <g filter="url(#geolocation_filter0_dd)">
        <circle cx="60" cy="52" r="44" fill="white"/>
    </g>
    <circle cx="60" cy="52" r="44" fill="#4F92DD"/>
    <mask id="geolocation_mask0" mask-type="alpha" maskUnits="userSpaceOnUse" x="16" y="8" width="88" height="88">
        <circle cx="60" cy="52" r="44" fill="#D1EFCF"/>
    </mask>
    <g mask="url(#geolocation_mask0)">
        <path d="M13 71.5L76 8L60 -0.643066L28.5714 5.64265L14.4286 31.5712L13 71.5Z" fill="#F8D757"/>
        <path d="M16 75.5L45.5 46L89.5 90L76.5 97.5712L52.1429 100.714L33.2857 95.2141L16 75.5Z" fill="#ABDE86"/>
        <path d="M42.7143 39.4286L93 89.7144" stroke="#F7F9FD" stroke-width="8"/>
        <path d="M79.6428 8L12.8571 74.7857" stroke="#F7F9FD" stroke-width="8"/>
        <g filter="url(#geolocation_filter1_d)">
            <path d="M50.5714 19C41.0283 19 33.2857 26.4211 33.2857 35.5613C33.2857 46.0783 44.8095 62.7447 49.0409 68.5012C49.2166 68.7442 49.4468 68.942 49.7128 69.0783C49.9787 69.2146 50.273 69.2857 50.5714 69.2857C50.8699 69.2857 51.1641 69.2146 51.4301 69.0783C51.6961 68.942 51.9263 68.7442 52.1019 68.5012C56.3333 62.7471 67.8571 46.0867 67.8571 35.5613C67.8571 26.4211 60.1146 19 50.5714 19Z" fill="#E64D5F"/>
        </g>
        <path d="M50.5715 42.2095C53.7537 42.2095 56.3334 39.6116 56.3334 36.407C56.3334 33.2024 53.7537 30.6045 50.5715 30.6045C47.3893 30.6045 44.8096 33.2024 44.8096 36.407C44.8096 39.6116 47.3893 42.2095 50.5715 42.2095Z" fill="#870000"/>
    </g>
    <defs>

        <filter id="geolocation_filter1_d" x="29.2857" y="15" width="42.5714" height="58.2857" filterUnits="userSpaceOnUse" color-interpolation-filters="sRGB">
            <feFlood flood-opacity="0" result="BackgroundImageFix"/>
            <feColorMatrix in="SourceAlpha" type="matrix" values="0 0 0 0 0 0 0 0 0 0 0 0 0 0 0 0 0 0 127 0"/>
            <feOffset/>
            <feGaussianBlur stdDeviation="2"/>
            <feColorMatrix type="matrix" values="0 0 0 0 0 0 0 0 0 0 0 0 0 0 0 0 0 0 0.08 0"/>
            <feBlend mode="normal" in2="BackgroundImageFix" result="effect1_dropShadow"/>
            <feBlend mode="normal" in="SourceGraphic" in2="effect1_dropShadow" result="shape"/>
        </filter>
    </defs>
</svg>