<svg fill="none" viewBox="15 7 114 132" xmlns="http://www.w3.org/2000/svg">
    <path fill="#B2BECD" d="M54.1 133.18c-.22-1.62-1.47-2.55-3.08-2.55-1.9 0-3.33 1.38-3.33 3.73s1.42 3.74 3.33 3.74c1.73 0 2.88-1.12 3.08-2.5l-1.33-.01c-.16.85-.86 1.33-1.73 1.33-1.18 0-2.02-.89-2.02-2.56 0-1.64.83-2.55 2.02-2.55.89 0 1.58.5 1.73 1.37h1.33zm3.14 4.82l.6-1.8h2.74l.6 1.8h1.4l-2.56-7.27H58.4L55.84 138h1.4zm.96-2.85l.98-2.93h.06l.98 2.93H58.2zm6.34-4.42V138h1.27v-5h.07l2 4.98h.95l2.01-4.98h.07v5h1.26v-7.27h-1.61L68.4 136h-.08l-2.16-5.27h-1.62zm10.2 7.27h4.76v-1.1h-3.44v-1.99h3.17v-1.1h-3.17v-1.98h3.41v-1.1h-4.73V138zm7.08 0h1.32v-2.66h1.34L85.9 138h1.47l-1.58-2.88c.86-.35 1.3-1.08 1.3-2.07 0-1.39-.89-2.32-2.55-2.32h-2.73V138zm1.32-3.76v-2.41h1.2c.99 0 1.43.45 1.43 1.22 0 .78-.44 1.2-1.42 1.2h-1.21zm7.12 3.76l.6-1.8h2.73l.6 1.8h1.41l-2.56-7.27H91.4L88.85 138h1.4zm.95-2.85l.98-2.93h.06l.99 2.93H91.2z"/>
    <circle cx="72" cy="64" r="56" fill="#fff"/>
    <path fill="url(#camera_paint1_linear)" fill-rule="evenodd" d="M88.71 47.1h8.43a6.89 6.89 0 016.86 6.8v27.28A6.8 6.8 0 0197.14 88H46.86A6.88 6.88 0 0140 81.18V53.92a6.8 6.8 0 016.86-6.82h.57v-1.14a2.27 2.27 0 012.28-2.27h3.43a2.3 2.3 0 012.29 2.27v1.14c.47 0 .91-.37 1.23-.71l3.7-5.82c.06-.1.13-.18.2-.27a6.38 6.38 0 014.87-2.3h13.14a6.38 6.38 0 015.06 2.57l3.71 5.81c.41.44.95.71 1.37.71zM85 67a13 13 0 11-26 0 13 13 0 0126 0z" clip-rule="evenodd"/>
    <path fill="url(#camera_paint2_linear)" d="M72 78a11 11 0 100-22 11 11 0 000 22z"/>
    <path fill="#F8D757" d="M89 57a2 2 0 100-4 2 2 0 000 4z"/>
    <defs>
        <linearGradient id="camera_paint0_linear" x1="72" x2="72" y1="8" y2="120" gradientUnits="userSpaceOnUse">
            <stop stop-color="#E7ECF3"/>
            <stop offset="1" stop-color="#989FAB"/>
        </linearGradient>
        <linearGradient id="camera_paint1_linear" x1="72" x2="72" y1="38" y2="88" gradientUnits="userSpaceOnUse">
            <stop stop-color="#A1A9B9"/>
            <stop offset="1" stop-color="#484E59"/>
        </linearGradient>
        <linearGradient id="camera_paint2_linear" x1="72" x2="72" y1="38" y2="88" gradientUnits="userSpaceOnUse">
            <stop stop-color="#A1A9B9"/>
            <stop offset="1" stop-color="#484E59"/>
        </linearGradient>
    </defs>
</svg>