<svg width="79" height="21" viewBox="0 0 79 21" fill="none" xmlns="http://www.w3.org/2000/svg">
<path d="M67.1504 10.5264C67.1504 7.51395 69.3137 4.98669 72.7103 4.98669C76.107 4.98669 78.2703 7.51395 78.2703 10.5264C78.2703 13.5389 76.107 16.0662 72.7103 16.0662C69.3137 16.0662 67.1504 13.5389 67.1504 10.5264ZM72.7103 13.5389C74.2267 13.5389 75.3993 12.4269 75.3993 10.5264C75.3993 8.62594 74.2267 7.51394 72.7103 7.51394C71.194 7.51394 70.0213 8.62594 70.0213 10.5264C70.0213 12.4269 71.194 13.5389 72.7103 13.5389Z" fill="white"/>
<path d="M63.2422 5.22949H66.1131V15.8237H63.2422V5.22949Z" fill="white"/>
<path d="M64.6778 4.33264C65.6349 4.33264 66.4108 3.55677 66.4108 2.59967C66.4108 1.64258 65.6349 0.866699 64.6778 0.866699C63.7207 0.866699 62.9448 1.64258 62.9448 2.59967C62.9448 3.55677 63.7207 4.33264 64.6778 4.33264Z" fill="white"/>
<path d="M59 0.686157H61.8709V15.8237H59.2224V14.5297C58.5552 15.5002 57.3623 16.0663 55.8662 16.0663C52.7931 16.0663 50.9937 13.5997 50.9937 10.5265C50.9937 7.45341 52.7931 4.98682 55.8662 4.98682C57.3623 4.98682 58.4541 5.63379 59 6.36164V0.686157ZM56.4727 7.51407C54.8755 7.51407 53.8646 8.80802 53.8646 10.5265C53.8646 12.2451 54.8755 13.539 56.4727 13.539C58.07 13.539 59.0809 12.2451 59.0809 10.5265C59.0809 8.80802 58.07 7.51407 56.4727 7.51407Z" fill="white"/>
<path d="M46.9984 5.22937H49.8694V15.8236H47.2208V14.5297C46.7356 15.4395 45.6842 16.0662 44.1072 16.0662C41.5598 16.0662 40.2456 14.3679 40.2456 11.8407V5.22937H43.1166V11.5172C43.1166 12.7505 43.6018 13.5996 44.8755 13.5996C46.2908 13.5996 46.9984 12.7303 46.9984 11.2543V5.22937Z" fill="white"/>
<path d="M37.2401 5.22954V2.6012H34.3691V15.8238H37.2401V7.56616H39.446V5.22954H37.2401Z" fill="white"/>
<path d="M24.2505 12.3865H27.1619C27.2023 13.0941 27.728 13.7613 28.9208 13.7613C30.0126 13.7613 30.5787 13.3772 30.5787 12.7908C30.5787 11.0117 24.6953 12.6898 24.6953 8.48441C24.6953 6.5637 26.3329 4.98669 28.9411 4.98669C32.1153 4.98669 33.2071 7.0085 33.2879 8.56528H30.5181C30.4574 7.89809 29.952 7.29155 28.9208 7.29155C27.9908 7.29155 27.4651 7.73634 27.4651 8.32267C27.4651 10.1019 33.3284 8.32267 33.3284 12.6695C33.3284 14.57 31.7109 16.0662 28.84 16.0662C25.5242 16.0662 24.3927 14.3678 24.2505 12.3865Z" fill="white"/>
<path d="M16.5435 6.35022C17.6912 6.35022 18.6216 5.41981 18.6216 4.27209C18.6216 3.12438 17.6912 2.19397 16.5435 2.19397C15.3957 2.19397 14.4653 3.12438 14.4653 4.27209C14.4653 5.41981 15.3957 6.35022 16.5435 6.35022Z" fill="white"/>
<path d="M19.1016 6.35791L19.0156 6.1665L18.875 6.32275C18.5351 6.70947 18.1016 7.00635 17.6211 7.18604L17.4883 7.23682L17.543 7.36572C17.957 8.36182 18.168 9.4165 18.168 10.4985C18.168 15.0024 14.5039 18.6704 9.99609 18.6704C5.48828 18.6704 1.82812 15.0063 1.82812 10.5024C1.82812 5.99854 5.49609 2.33057 10 2.33057C11.2227 2.33057 12.4023 2.59619 13.5 3.11963L13.6289 3.18213L13.6836 3.05322C13.8828 2.58447 14.2031 2.1665 14.6055 1.84229L14.7695 1.70947L14.582 1.61182C13.1562 0.877441 11.6133 0.502441 10 0.502441C4.48437 0.502441 0 4.98682 0 10.5024C0 16.0181 4.48437 20.5024 10 20.5024C15.5156 20.5024 20 16.0181 20 10.5024C20 9.06104 19.6992 7.6665 19.1016 6.35791Z" fill="white"/>
<path d="M10.1529 5.94804C7.52006 5.8621 5.3599 8.02225 5.44584 10.6551C5.52396 13.0418 7.46146 14.9832 9.84818 15.0574C12.481 15.1433 14.6411 12.9832 14.5552 10.3504C14.4771 7.96366 12.5396 6.02616 10.1529 5.94804Z" fill="white"/>
</svg>
