<svg width="56" height="56" viewBox="0 0 56 56" fill="none" xmlns="http://www.w3.org/2000/svg">
<circle cx="28" cy="28" r="28" fill="#E3EFF9"/>
<path d="M28 12C27.7202 12 27.4405 12.0619 27.1853 12.1858L12.9449 19.099C12.3641 19.381 12 19.9395 12 20.5484V34.1019C12 34.7108 12.3641 35.2693 12.9449 35.5513L27.1853 42.4645C27.4405 42.5884 27.7202 42.6503 28 42.6503V12Z" fill="#C6D6FB"/>
<path d="M28 12C28.2798 12 28.5595 12.0619 28.8147 12.1858L43.0551 19.099C43.6359 19.381 44 19.9395 44 20.5484V34.1019C44 34.7108 43.6359 35.2693 43.0551 35.5513L28.8147 42.4645C28.5595 42.5884 28.2798 42.6503 28 42.6503V12Z" fill="#C6D6FB"/>
<path d="M28 25.5C29 25.5 30 25.0033 30 25.0033L41.8682 19.4917C42.8624 19.03 44 19.7559 44 20.8521V35.1631C44 36.3307 43.3226 37.3922 42.2636 37.884L30 43.5792C30 43.5792 29 44 28 44V25.5Z" fill="#6C89F7"/>
<path d="M28 25.5C27 25.5 25.993 25 25.993 25L14.1318 19.4917C13.1376 19.03 12 19.7559 12 20.8521V35.1631C12 36.3307 12.6774 37.3922 13.7364 37.884L26 43.5792C26 43.5792 27 44 28 44V25.5Z" fill="#9FBBF9"/>
<mask id="mask0" mask-type="alpha" maskUnits="userSpaceOnUse" x="12" y="12" width="32" height="31">
<path d="M28 12C27.7202 12 27.4405 12.0619 27.1853 12.1858L12.9449 19.099C12.3641 19.381 12 19.9395 12 20.5484V34.1019C12 34.7108 12.3641 35.2693 12.9449 35.5513L27.1853 42.4645C27.4405 42.5884 27.7202 42.6503 28 42.6503V12Z" fill="#C6D6FB"/>
<path d="M28 12C28.2798 12 28.5595 12.0619 28.8147 12.1858L43.0551 19.099C43.6359 19.381 44 19.9395 44 20.5484V34.1019C44 34.7108 43.6359 35.2693 43.0551 35.5513L28.8147 42.4645C28.5595 42.5884 28.2798 42.6503 28 42.6503V12Z" fill="#C6D6FB"/>
</mask>
<g mask="url(#mask0)">
<path opacity="0.3" d="M20 15L37 23" stroke="#6C89F7"/>
</g>
</svg>
