<svg version="1.0" xmlns="http://www.w3.org/2000/svg" width="373.333" height="373.333" viewBox="0 0 280 280"><g><path d="M124 .7C83.3 6.8 51.4 25.3 28 56.2 16.1 72 6.2 93.6 3.4 110c-.3 1.4-.7 3.1-.9 3.8-2 5.5-2.7 35.2-1.2 46.2 1.7 12.5 7.4 30.3 13.3 42.3 19.7 39.1 55.4 66.2 99.4 75.3 13.3 2.8 40.3 2.6 53.9-.4 32.4-7.3 59.3-23.3 79.4-47.4 14.4-17.3 24.9-38.7 29.3-59.3.3-1.1.9-4.3 1.5-7 .6-2.8 1.2-11.8 1.4-20 .5-20.7-1.7-33.8-8.6-53.1l-3.1-8.4-4.4 3.8c-3.3 2.9-12 8.3-14.1 8.7-.1.1 1.1 4.1 2.6 9 4.3 13.4 5.6 21.8 5.6 37 0 19.8-3.4 34.1-12.2 52-7.8 15.8-18.5 28.9-32.3 39.7-4.1 3.2-7.9 6.2-8.5 6.6-.5.4-1.7 1.1-2.5 1.5-.8.4-3.5 1.9-6 3.3-10.2 5.8-27.8 11.7-38.9 13.1-6.8.8-28.1.9-33.6 0-26-3.9-47.9-14.9-66.6-33.6-18.8-18.9-29.8-40.7-33.7-67.1-.9-5.8-.8-26 0-32.5 1.6-11.9 7-28.2 13.1-39.5 7.4-13.8 23-31.4 35.7-40.2 5.9-4.1 18.6-11 23.5-12.8 1.1-.4 3.1-1.2 4.5-1.8 3-1.3 12.3-3.9 16.5-4.6 1.7-.3 5.1-1 7.7-1.4 4.9-1 29.4-.8 33.8.2 1.4.3 5 1.1 8 1.7 3 .6 9.7 2.7 14.8 4.6 5.2 1.9 9.5 3.3 9.6 3.1 3.5-5.7 6.6-9.9 9.7-13.3l3.9-4.2-2.8-1.3c-11-5.1-22.5-9.1-31.2-10.7-1.4-.2-4.5-.9-7-1.5-4.4-1-34-1.9-39-1.1z"/><path d="M222.3 24.1c-21.8 8.2-25.2 38.7-5.9 51.6 6.2 4.2 11.6 5.6 19.1 5 24.8-1.9 35.7-32.6 17.9-50-8.1-7.9-20.6-10.5-31.1-6.6zm-89.8 54.6c-30.7 3.4-55 31.7-54 62.9 1.3 39.1 36.4 66.5 75.1 58.6 11.1-2.3 22.4-8.9 31.2-18.1 18.7-19.6 22.2-49.6 8.5-73.1-7.5-12.7-21.5-23.9-35.4-28-6.2-1.9-18.8-3-25.4-2.3z"/></g></svg>