<?xml version="1.0" standalone="no"?>
<!DOCTYPE svg PUBLIC "-//W3C//DTD SVG 20010904//EN"
 "http://www.w3.org/TR/2001/REC-SVG-20010904/DTD/svg10.dtd">
<svg version="1.0" xmlns="http://www.w3.org/2000/svg"
 width="280.000000pt" height="280.000000pt" viewBox="0 0 280.000000 280.000000"
 preserveAspectRatio="xMidYMid meet">
<metadata>
Created by potrace 1.11, written by Peter Selinger 2001-2013
</metadata>
<g transform="translate(0.000000,280.000000) scale(0.100000,-0.100000)"
fill="#000000" stroke="none">
<path d="M1240 2793 c-407 -61 -726 -246 -960 -555 -119 -158 -218 -374 -246
-538 -3 -14 -7 -31 -9 -38 -20 -55 -27 -352 -12 -462 17 -125 74 -303 133
-423 197 -391 554 -662 994 -753 133 -28 403 -26 539 4 324 73 593 233 794
474 144 173 249 387 293 593 3 11 9 43 15 70 6 28 12 118 14 200 5 207 -17
338 -86 531 l-31 84 -44 -38 c-33 -29 -120 -83 -141 -87 -1 -1 11 -41 26 -90
43 -134 56 -218 56 -370 0 -198 -34 -341 -122 -520 -78 -158 -185 -289 -323
-397 -41 -32 -79 -62 -85 -66 -5 -4 -17 -11 -25 -15 -8 -4 -35 -19 -60 -33
-102 -58 -278 -117 -389 -131 -68 -8 -281 -9 -336 0 -260 39 -479 149 -666
336 -188 189 -298 407 -337 671 -9 58 -8 260 0 325 16 119 70 282 131 395 74
138 230 314 357 402 59 41 186 110 235 128 11 4 31 12 45 18 30 13 123 39 165
46 17 3 51 10 77 14 49 10 294 8 338 -2 14 -3 50 -11 80 -17 30 -6 97 -27 148
-46 52 -19 95 -33 96 -31 35 57 66 99 97 133 l39 42 -28 13 c-110 51 -225 91
-312 107 -14 2 -45 9 -70 15 -44 10 -340 19 -390 11z"/>
<path d="M2223 2559 c-218 -82 -252 -387 -59 -516 62 -42 116 -56 191 -50 248
19 357 326 179 500 -81 79 -206 105 -311 66z"/>
<path d="M1325 2013 c-307 -34 -550 -317 -540 -629 13 -391 364 -665 751 -586
111 23 224 89 312 181 187 196 222 496 85 731 -75 127 -215 239 -354 280 -62
19 -188 30 -254 23z"/>
</g>
</svg>
