<svg width="42" height="48" viewBox="0 0 42 48" fill="none" xmlns="http://www.w3.org/2000/svg">
<path d="M5.14453 47.7187C4.35307 47.7173 3.57563 47.5098 2.88867 47.1168C1.3418 46.2402 0.380157 44.5386 0.380157 42.6914V5.30858C0.380157 3.4562 1.3418 1.75979 2.88867 0.883226C3.59199 0.479022 4.39097 0.27116 5.2021 0.281364C6.01323 0.291569 6.80672 0.519465 7.49965 0.941234L39.4491 20.0658C40.1149 20.4833 40.6638 21.0631 41.0443 21.7507C41.4248 22.4384 41.6244 23.2115 41.6244 23.9974C41.6244 24.7833 41.4248 25.5564 41.0443 26.2441C40.6638 26.9318 40.1149 27.5115 39.4491 27.9291L7.49449 47.0587C6.78537 47.4874 5.97316 47.7156 5.14453 47.7187Z" fill="#00CEAB"/>
</svg>
