<svg width="288" height="288" viewBox="0 0 288 288" fill="none" xmlns="http://www.w3.org/2000/svg">
    <circle opacity="0.06" cx="144" cy="144" r="144" fill="#00CEAB"/>
    <circle opacity="0.12" cx="144" cy="144" r="96" fill="#00CEAB"/>
    <g filter="url(#video_overlay_circles_filter0_dd)">
        <circle cx="144" cy="144" r="60" fill="white"/>
    </g>
    <path d="M132.145 167.719C131.353 167.717 130.576 167.51 129.889 167.117C128.342 166.24 127.38 164.539 127.38 162.691V125.309C127.38 123.456 128.342 121.76 129.889 120.883C130.592 120.479 131.391 120.271 132.202 120.281C133.013 120.292 133.807 120.519 134.5 120.941L166.449 140.066C167.115 140.483 167.664 141.063 168.044 141.751C168.425 142.438 168.624 143.211 168.624 143.997C168.624 144.783 168.425 145.556 168.044 146.244C167.664 146.932 167.115 147.512 166.449 147.929L134.494 167.059C133.785 167.487 132.973 167.716 132.145 167.719Z" fill="#00CEAB"/>
    <defs>
        <filter id="video_overlay_circles_filter0_dd" x="68" y="76" width="152" height="152" filterUnits="userSpaceOnUse" color-interpolation-filters="sRGB">
            <feFlood flood-opacity="0" result="BackgroundImageFix"/>
            <feColorMatrix in="SourceAlpha" type="matrix" values="0 0 0 0 0 0 0 0 0 0 0 0 0 0 0 0 0 0 127 0"/>
            <feOffset dy="8"/>
            <feGaussianBlur stdDeviation="8"/>
            <feColorMatrix type="matrix" values="0 0 0 0 0.00755134 0 0 0 0 0.0324193 0 0 0 0 0.0786026 0 0 0 0.08 0"/>
            <feBlend mode="normal" in2="BackgroundImageFix" result="effect1_dropShadow"/>
            <feColorMatrix in="SourceAlpha" type="matrix" values="0 0 0 0 0 0 0 0 0 0 0 0 0 0 0 0 0 0 127 0"/>
            <feOffset dy="4"/>
            <feGaussianBlur stdDeviation="4"/>
            <feColorMatrix type="matrix" values="0 0 0 0 0.00755134 0 0 0 0 0.0324193 0 0 0 0 0.0786026 0 0 0 0.08 0"/>
            <feBlend mode="normal" in2="effect1_dropShadow" result="effect2_dropShadow"/>
            <feBlend mode="normal" in="SourceGraphic" in2="effect2_dropShadow" result="shape"/>
        </filter>
    </defs>
</svg>
