<svg xmlns="http://www.w3.org/2000/svg" fill="none" viewBox="0 0 80 80"><defs/><path fill="#00CEAB" d="M80 40c0 17.5-3 27.75-10.25 33.5-6.25 5-16 6.5-29.75 6.5-15.75 0-26-2-32.25-9C2.25 65 0 55.25 0 40 0 23.75 2.5 13.75 8.75 8 15 2 25 0 40 0c14.75 0 24.75 1.75 31 7.75C77.5 13.5 80 23.5 80 40z"/><path fill="#05DDB3" d="M51 16.75c-.25 0-.75 0-1-.25-1-.25-2-1-2.5-1.75-1-2-.5-4.25 1.5-5.5 1-.5 2-.75 3-.5s2 1 2.5 1.75.75 2 .5 3-1 2-1.75 2.5-1.5.75-2.25.75zM51 11c-.25 0-.5 0-1 .25-.75.5-1.25 1.5-.75 2.5.5.75 1.5 1.25 2.5.75.75-.5 1.25-1.5.75-2.5-.25-.75-.75-1-1.5-1zM29 71.25c-.25 0-.75 0-1-.25-1-.25-2-1-2.5-1.75-.5-1-.75-2-.5-3s1-2 1.75-2.5c1-.5 2-.75 3-.5s2 1 2.5 1.75.75 2 .5 3-1 2-1.75 2.5-1.5.75-2 .75zm0-5.75c-.25 0-.5 0-1 .25-.75.5-1.25 1.5-.75 2.5.5.75 1.5 1.25 2.5.75.75-.5 1.25-1.5.75-2.5-.25-.75-1-1-1.5-1z"/><path fill="#05DDB3" d="M48.97 15.3L29.2 63.92l2.08.84 19.77-48.63-2.08-.85zM67.25 55c-.25 0-.75 0-1-.25-1-.25-2-1-2.5-1.75s-.75-2-.5-3 1-2 1.75-2.5c1-.5 2-.75 3-.5s2 1 2.5 1.75.75 2 .5 3-1 2-1.75 2.5c-.5.5-1.25.75-2 .75zm0-5.75c-.25 0-.5 0-1 .25s-.75.75-.75 1c0 .5 0 1 .25 1.25.5.75 1.5 1.25 2.5.75C69 52 69.5 51 69 50a2.7 2.7 0 00-1.75-.75zM12.75 33c-.25 0-.75 0-1-.25-1-.25-2-1-2.5-1.75-.5-1-.75-2-.5-3s1-2 1.75-2.5c2-1 4.25-.5 5.5 1.5 1 2 .5 4.25-1.5 5.5-.25.25-1 .5-1.75.5zm0-6c-.25 0-.5 0-1 .25-.75.5-1.25 1.5-.75 2.5.5.75 1.5 1.25 2.5.75.75-.5 1.25-1.5.75-2.5-.25-.5-1-1-1.5-1z"/><path fill="#05DDB3" d="M16.18 28.9l-.84 2.08 48.63 19.78.84-2.08-48.63-19.79zM67 32.5c-.25 0-.75 0-1-.25a3.78 3.78 0 01-2.75-5 3.78 3.78 0 015-2.75c2.25.5 3.5 2.75 2.75 5-.5 1.75-2.25 3-4 3zM65.25 28c-.25 1 .25 2 1.25 2.25s2-.25 2.25-1.25-.25-2-1.25-2.25c-.5-.25-1 0-1.25.25s-.75.5-1 1zM13 55.5c-.25 0-.75 0-1-.25a3.78 3.78 0 01-2.75-5c.25-1 1-2 1.75-2.5s2-.75 3-.5 2 1 2.5 1.75c.5 1 .75 2 .5 3-.75 2.25-2.25 3.5-4 3.5zm0-6c-.25 0-.5 0-1 .25s-.75.75-.75 1c-.25 1 .25 2 1.25 2.25.5 0 1 0 1.25-.25.5-.25.75-.75.75-1 .25-1-.25-2-1.25-2.25H13z"/><path fill="#05DDB3" d="M63.8 28.86l-48.37 20.4.87 2.07 48.38-20.4-.88-2.07zM51.5 71c-.25 0-.75 0-1-.25a3.78 3.78 0 01-2.75-5c.25-1 1-2 1.75-2.5 1-.5 2-.75 3-.5s2 1 2.5 1.75c.5 1 .75 2 .5 3-.75 2.5-2.25 3.5-4 3.5zm0-5.75c-.25 0-.5 0-1 .25s-.75.75-.75 1c-.25 1 .25 2 1.25 2.25s2-.25 2.25-1.25-.25-2-1.25-2.25h-.5zM28.5 16.75c-.25 0-.75 0-1-.25-1-.25-2-1-2.5-1.75-.5-1-.75-2-.5-3a3.78 3.78 0 015-2.75c2.25.5 3.5 2.75 2.75 5-.25 1.75-2 2.75-3.75 2.75zm0-5.75c-.25 0-.5 0-1 .25s-.75.75-.75 1c-.25 1 .25 2 1.25 2.25s2-.25 2.25-1.25S30 11.25 29 11h-.5z"/><path fill="#05DDB3" d="M30.98 15.31l-2.07.88 20.4 48.37 2.07-.87-20.4-48.38zM51 16.75c-.25 0-.75 0-1-.25-1-.25-2-1-2.5-1.75-1-2-.5-4.25 1.5-5.5 1-.5 2-.75 3-.5s2 1 2.5 1.75.75 2 .5 3-1 2-1.75 2.5-1.5.75-2.25.75zM51 11c-.25 0-.5 0-1 .25-.75.5-1.25 1.5-.75 2.5.5.75 1.5 1.25 2.5.75.75-.5 1.25-1.5.75-2.5-.25-.75-.75-1-1.5-1zM29 71.25c-.25 0-.75 0-1-.25-1-.25-2-1-2.5-1.75-.5-1-.75-2-.5-3s1-2 1.75-2.5c1-.5 2-.75 3-.5s2 1 2.5 1.75.75 2 .5 3-1 2-1.75 2.5-1.5.75-2 .75zm0-5.75c-.25 0-.5 0-1 .25-.75.5-1.25 1.5-.75 2.5.5.75 1.5 1.25 2.5.75.75-.5 1.25-1.5.75-2.5-.25-.75-1-1-1.5-1z"/><path fill="url(#paint0_linear)" d="M31.25 64.75l-2.25-1 19.75-48.5L51 16 31.25 64.75z"/><path fill="#05DDB3" d="M67.25 55c-.25 0-.75 0-1-.25-1-.25-2-1-2.5-1.75s-.75-2-.5-3 1-2 1.75-2.5c1-.5 2-.75 3-.5s2 1 2.5 1.75.75 2 .5 3-1 2-1.75 2.5c-.5.5-1.25.75-2 .75zm0-5.75c-.25 0-.5 0-1 .25s-.75.75-.75 1c0 .5 0 1 .25 1.25.5.75 1.5 1.25 2.5.75C69 52 69.5 51 69 50a2.7 2.7 0 00-1.75-.75zM12.75 33c-.25 0-.75 0-1-.25-1-.25-2-1-2.5-1.75-.5-1-.75-2-.5-3s1-2 1.75-2.5c2-1 4.25-.5 5.5 1.5 1 2 .5 4.25-1.5 5.5-.25.25-1 .5-1.75.5zm0-6c-.25 0-.5 0-1 .25-.75.5-1.25 1.5-.75 2.5.5.75 1.5 1.25 2.5.75.75-.5 1.25-1.5.75-2.5-.25-.5-1-1-1.5-1z"/><path fill="url(#paint1_linear)" d="M63.75 50.75L15.25 31l.75-2 48.75 19.75-1 2z"/><path fill="#05DDB3" d="M67 32.5c-.25 0-.75 0-1-.25a3.78 3.78 0 01-2.75-5 3.78 3.78 0 015-2.75c2.25.5 3.5 2.75 2.75 5-.5 1.75-2.25 3-4 3zM65.25 28c-.25 1 .25 2 1.25 2.25s2-.25 2.25-1.25-.25-2-1.25-2.25c-.5-.25-1 0-1.25.25s-.75.5-1 1zM13 55.5c-.25 0-.75 0-1-.25a3.78 3.78 0 01-2.75-5c.25-1 1-2 1.75-2.5s2-.75 3-.5 2 1 2.5 1.75c.5 1 .75 2 .5 3-.75 2.25-2.25 3.5-4 3.5zm0-6c-.25 0-.5 0-1 .25s-.75.75-.75 1c-.25 1 .25 2 1.25 2.25.5 0 1 0 1.25-.25.5-.25.75-.75.75-1 .25-1-.25-2-1.25-2.25H13z"/><path fill="url(#paint2_linear)" d="M16.25 51.25l-.75-2 48.25-20.5.75 2-48.25 20.5z"/><path fill="#05DDB3" d="M51.5 71c-.25 0-.75 0-1-.25a3.78 3.78 0 01-2.75-5c.25-1 1-2 1.75-2.5 1-.5 2-.75 3-.5s2 1 2.5 1.75c.5 1 .75 2 .5 3-.75 2.5-2.25 3.5-4 3.5zm0-5.75c-.25 0-.5 0-1 .25s-.75.75-.75 1c-.25 1 .25 2 1.25 2.25s2-.25 2.25-1.25-.25-2-1.25-2.25h-.5zM28.5 16.75c-.25 0-.75 0-1-.25-1-.25-2-1-2.5-1.75-.5-1-.75-2-.5-3a3.78 3.78 0 015-2.75c2.25.5 3.5 2.75 2.75 5-.25 1.75-2 2.75-3.75 2.75zm0-5.75c-.25 0-.5 0-1 .25s-.75.75-.75 1c-.25 1 .25 2 1.25 2.25s2-.25 2.25-1.25S30 11.25 29 11h-.5z"/><path fill="url(#paint3_linear)" d="M49.25 64.5l-20.5-48.25 2-1 20.5 48.5-2 .75z"/><path fill="#fff" d="M40 20.25c-4.25 0-8.25 3-8.25 9.25s4 9.25 8.25 9.25 8.25-3 8.25-9.25-4-9.25-8.25-9.25z"/><path fill="url(#paint4_linear)" d="M40 41.75c-8.25 0-17.25 3.75-17.25 10.75 0 2.5 7.75 5 17.25 5s17.25-2.25 17.25-5c0-7-9-10.75-17.25-10.75z"/><defs><linearGradient id="paint0_linear" x1="29.09" x2="50.89" y1="39.99" y2="39.99" gradientUnits="userSpaceOnUse"><stop stop-color="#05DDB3"/><stop offset=".33" stop-color="#00CEAB"/><stop offset=".64" stop-color="#00CEAB"/><stop offset="1" stop-color="#05DDB3"/></linearGradient><linearGradient id="paint1_linear" x1="15.28" x2="64.67" y1="39.96" y2="39.96" gradientUnits="userSpaceOnUse"><stop stop-color="#05DDB3"/><stop offset=".33" stop-color="#00CEAB"/><stop offset=".64" stop-color="#00CEAB"/><stop offset="1" stop-color="#05DDB3"/></linearGradient><linearGradient id="paint2_linear" x1="15.39" x2="64.56" y1="39.98" y2="39.98" gradientUnits="userSpaceOnUse"><stop stop-color="#05DDB3"/><stop offset=".33" stop-color="#00CEAB"/><stop offset=".64" stop-color="#00CEAB"/><stop offset="1" stop-color="#05DDB3"/></linearGradient><linearGradient id="paint3_linear" x1="28.79" x2="51.19" y1="39.94" y2="39.94" gradientUnits="userSpaceOnUse"><stop stop-color="#05DDB3"/><stop offset=".33" stop-color="#00CEAB"/><stop offset=".64" stop-color="#00CEAB"/><stop offset="1" stop-color="#05DDB3"/></linearGradient><linearGradient id="paint4_linear" x1="40" x2="40" y1="42.99" y2="57.05" gradientUnits="userSpaceOnUse"><stop stop-color="#BAFFF1"/><stop offset=".02" stop-color="#BEFFF2"/><stop offset=".13" stop-color="#D6FFF7"/><stop offset=".25" stop-color="#E8FFFA"/><stop offset=".4" stop-color="#F5FFFD"/><stop offset=".6" stop-color="#FDFFFF"/><stop offset="1" stop-color="#fff"/></linearGradient></defs></svg>