<svg width="1800" height="768" viewBox="0 112 1800 768" fill="none" xmlns="http://www.w3.org/2000/svg"><mask id="a" maskUnits="userSpaceOnUse" x="0" y="0" width="1800" height="880"><path fill="#F7F9FC" d="M0 0h1800v880H0z"/></mask><g mask="url(#a)"><path opacity=".8" fill="#F7F9FC" d="M0 0h1800v880H0z"/><path opacity=".4" d="M495.511 1388.52l914.999-915.009-912.508-912.518-914.998 915.01 912.507 912.517z" fill="url(#paint0_linear)"/><path opacity=".4" d="M492.746 1271.27L1351.9 412.101 442.157-497.652l-859.153 859.164 909.742 909.758z" fill="url(#paint1_linear)"/><path opacity=".4" d="M252.771 1151.77L1849.01-444.482l-674.77-674.768L-421.994 477l674.765 674.77z" fill="url(#paint2_linear)"/><path opacity=".4" d="M1848.5 1388.52L491 31.008l679-679.012L2527.5 709.508l-679 679.012z" fill="url(#paint3_linear)"/><path opacity=".4" d="M2208.5 1388.52L1112.49 292.506l679.01-679.012 1096 1096.014-679 679.012z" fill="url(#paint4_linear)"/><path opacity=".4" d="M2063.5 1124.52L706-232.987 1143.51-670.5 2501 687.012l-437.5 437.508z" fill="url(#paint5_linear)"/><path opacity=".4" d="M991.994 532.014L2349.24-825.247 1439.5-1735 82.251-377.739l909.743 909.753z" fill="url(#paint6_linear)"/><path opacity=".4" d="M932 472L2301.11-897.125 1392.24-1806 23.136-436.875 932 472z" fill="url(#paint7_linear)"/><path opacity=".4" d="M991.992 411.01L548-32.988 1227-712l444 443.998L991.992 411.01z" fill="url(#paint8_linear)"/><path opacity=".2" fill="#fff" d="M0 0h1800v880H0z"/><g opacity=".4"><path d="M1351.96 411.985L1171.98 232l-60 59.995 179.99 179.985 59.99-59.995z" fill="#B2BECD"/><g style="mix-blend-mode:soft-light" opacity=".9"><path d="M1291.99 472.018l60.01-60.002-21.43-21.431-38.58 81.433z" fill="#000"/></g><path d="M1231.97 652.005L1051.99 472.02l-59.999 59.995L1171.97 712l60-59.995z" fill="#B2BECD"/><g style="mix-blend-mode:soft-light" opacity=".8"><path d="M991.995 532.024L1052 472.02l21.43 21.429-81.435 38.575z" fill="#000"/></g><path d="M991.996 531.995L1171.98 352.01l-60-59.995L932.001 472l59.995 59.995zm240.024 120.011L1412 472.021l-59.99-59.996-179.99 179.986 60 59.995z" fill="#CED6E0"/><path d="M1172 414c-32.03 0-58 25.967-58 58s25.97 58 58 58 58-25.967 58-58-25.97-58-58-58z" fill="#B2BECD"/></g></g><defs><linearGradient id="paint0_linear" x1="953.01" y1="931.016" x2="40.492" y2="18.509" gradientUnits="userSpaceOnUse"><stop stop-color="#E7EBF1"/><stop offset=".411" stop-color="#F9FAFD"/></linearGradient><linearGradient id="paint1_linear" x1="922.323" y1="841.683" x2="12.57" y2="-68.059" gradientUnits="userSpaceOnUse"><stop stop-color="#E7EBF1"/><stop offset=".411" stop-color="#F9FAFD"/></linearGradient><linearGradient id="paint2_linear" x1="1050.89" y1="353.646" x2="376.116" y2="-321.119" gradientUnits="userSpaceOnUse"><stop stop-color="#E7EBF1"/><stop offset=".411" stop-color="#F9FAFD"/></linearGradient><linearGradient id="paint3_linear" x1="1169.75" y1="709.764" x2="1848.76" y2="30.76" gradientUnits="userSpaceOnUse"><stop stop-color="#E7EBF1"/><stop offset=".411" stop-color="#F9FAFD"/></linearGradient><linearGradient id="paint4_linear" x1="1660.5" y1="840.513" x2="2339.51" y2="161.509" gradientUnits="userSpaceOnUse"><stop stop-color="#E7EBF1"/><stop offset=".411" stop-color="#F9FAFD"/></linearGradient><linearGradient id="paint5_linear" x1="1384.75" y1="445.769" x2="1822.26" y2="8.261" gradientUnits="userSpaceOnUse"><stop stop-color="#E7EBF1"/><stop offset=".411" stop-color="#F9FAFD"/></linearGradient><linearGradient id="paint6_linear" x1="1670.62" y1="-146.617" x2="760.863" y2="-1056.36" gradientUnits="userSpaceOnUse"><stop stop-color="#E7EBF1"/><stop offset=".411" stop-color="#F9FAFD"/></linearGradient><linearGradient id="paint7_linear" x1="1616.55" y1="-212.562" x2="707.68" y2="-1121.43" gradientUnits="userSpaceOnUse"><stop stop-color="#E7EBF1"/><stop offset=".411" stop-color="#F9FAFD"/></linearGradient><linearGradient id="paint8_linear" x1="1229" y1="170" x2="964.503" y2="-94.503" gradientUnits="userSpaceOnUse"><stop stop-color="#E7EBF1"/><stop offset=".411" stop-color="#F9FAFD"/></linearGradient></defs></svg>