<svg xmlns="http://www.w3.org/2000/svg" fill="none" viewBox="0 0 64 64"><defs/><path fill="#B2BECD" d="M23.77 34.8H5.5A5.48 5.48 0 000 40.26v18.25A5.48 5.48 0 005.49 64h18.28a5.48 5.48 0 005.49-5.48V40.27a5.48 5.48 0 00-5.49-5.48z" opacity=".8"/><path fill="#FFEDBA" d="M47.54 44.83v-7.3a2.74 2.74 0 00-2.74-2.74h-7.31a2.74 2.74 0 00-2.75 2.74v7.3a2.74 2.74 0 002.75 2.74h7.31a2.74 2.74 0 002.74-2.74z"/><path fill="#FED352" d="M61.26 34.8h-7.32a2.75 2.75 0 00-2.74 2.73v11.7a2 2 0 01-2 2H37.49a2.75 2.75 0 00-2.75 2.73v7.3A2.74 2.74 0 0037.5 64h23.77A2.75 2.75 0 0064 61.26V37.53a2.74 2.74 0 00-2.74-2.74z"/><path fill="#21426B" d="M64 23.84V5.59A5.48 5.48 0 0058.51.1H40.23a5.48 5.48 0 00-5.49 5.48v18.25a5.48 5.48 0 005.49 5.48H58.5A5.48 5.48 0 0064 23.84z"/><path fill="#92A1B3" d="M9.14 55.79a1.37 1.37 0 01-1.37-1.37v-4.34a1.37 1.37 0 012.74 0v4.34a1.37 1.37 0 01-1.37 1.37z"/><path fill="#5B708B" d="M19.2 44.83a1.37 1.37 0 01-1.37-1.37V32.51a1.37 1.37 0 012.34-.97c.26.26.4.6.4.97v10.95a1.37 1.37 0 01-1.37 1.37z"/><path fill="#2D4665" d="M24.1 4.35L20.12.4a1.37 1.37 0 00-1.94 0l-3.96 3.95a1.37 1.37 0 001.94 1.94l1.66-1.65v22.4a1.37 1.37 0 002.74 0V4.7l1.58 1.58a1.37 1.37 0 001.94-1.94z"/><path fill="#5B708B" d="M14.03 16.22l-3.96-3.95a1.37 1.37 0 00-1.93 0l-3.96 3.95a1.37 1.37 0 001.93 1.94l1.66-1.66V45.3a1.37 1.37 0 002.34.97c.26-.26.4-.6.4-.97V16.58l1.59 1.58a1.37 1.37 0 001.93-1.94z"/></svg>