<svg xmlns="http://www.w3.org/2000/svg" fill="none" viewBox="0 0 48 48"><defs/><path fill="#53B9FF" d="M7.47 10.15L.06 17.57l11.43 11.47L0 40.57 7.4 48 18.9 36.47l11.46 11.45 7.41-7.43-30.3-30.34z"/><path fill="#119EFF" d="M26.35 29.04l-7.44 7.43 11.46 11.45 7.41-7.43-11.43-11.45z"/><path fill="#000" fill-opacity=".2" d="M26.35 29.04l-7.44 7.43 2.86 2.84 4.58-10.27z"/><path fill="#53B9FF" fill-rule="evenodd" d="M36.48 18.93L48 7.4 40.58 0 29.07 11.5 17.6.07l-7.42 7.42L40.5 37.83l7.42-7.43-11.44-11.47z" clip-rule="evenodd"/><path fill="#119EFF" d="M21.63 18.93l7.44-7.42L17.6.06l-7.42 7.42 11.44 11.45z"/><path fill="#000" fill-opacity=".2" d="M21.63 18.93l7.44-7.42-2.87-2.85-4.57 10.27z"/></svg>