<svg width="48" height="48" viewBox="0 0 48 48" fill="none" xmlns="http://www.w3.org/2000/svg">
<path d="M7.47423 10.1457L0.0582364 17.5711L11.4949 29.0421L0 40.5714L7.39279 48L18.9108 36.4674L30.3665 47.9176L37.7825 40.4923L7.47423 10.1457Z" fill="#53B9FF"/>
<path d="M26.3468 29.0421L18.9109 36.4674L30.3666 47.9177L37.7825 40.4923L26.3468 29.0421Z" fill="#119EFF"/>
<path d="M26.3468 29.0421L18.9109 36.4674L21.7732 39.3139L26.3468 29.0421Z" fill="black" fill-opacity="0.2"/>
<path fill-rule="evenodd" clip-rule="evenodd" d="M36.4819 18.9347L48 7.40212L40.5808 0L29.066 11.5094L17.6094 0.0583112L10.1935 7.48367L40.5018 37.8303L47.9178 30.4049L36.4819 18.9347Z" fill="#53B9FF"/>
<path d="M21.6301 18.9347L29.066 11.5094L17.6094 0.0583191L10.1935 7.48368L21.6301 18.9347Z" fill="#119EFF"/>
<path d="M21.6301 18.9347L29.066 11.5094L26.2028 8.66208L21.6301 18.9347Z" fill="black" fill-opacity="0.2"/>
</svg>
