<svg xmlns="http://www.w3.org/2000/svg" fill="none" viewBox="0 0 50 48"><defs/><path fill="#020814" d="M45.45 47.88h-8.1l.58-6.84h-3.98l-.57 6.84H16.62l-.57-6.84h-3.98l.57 6.84h-8.1L0 18.24 11.36 0h27.28L50 18.24l-4.55 29.64zM36.36 9.12h-7.3l.49 3.42h-9.1l.5-3.42h-7.31l-4.55 9.12 2.27 18.24h27.28l2.27-18.24-4.55-9.12zm-3.97 21.3c-.63 0-1.14-1.9-1.14-4.24 0-2.34.5-4.24 1.14-4.24.62 0 1.13 1.9 1.13 4.24 0 2.35-.5 4.24-1.13 4.24zm-14.35.36c-.63 0-1.14-1.9-1.14-4.24 0-2.35.51-4.24 1.14-4.24.63 0 1.14 1.9 1.14 4.24 0 2.34-.51 4.24-1.14 4.24z"/></svg>