<svg xmlns="http://www.w3.org/2000/svg" fill="none" viewBox="0 0 280 182"><defs/><path fill="#C4D0DF" d="M257.93 46.52h-48.55c-12.19 0-22.07 9.99-22.07 22.31v48.2c0 12.33 9.88 22.32 22.07 22.32h48.55c12.19 0 22.07-9.99 22.07-22.31v-48.2c0-12.33-9.88-22.32-22.07-22.32z"/><path stroke="#21426B" stroke-miterlimit="10" stroke-width="4" d="M233.39 91.4c6.72 0 12.17-5.5 12.17-12.3 0-6.8-5.45-12.3-12.17-12.3a12.24 12.24 0 00-12.17 12.3c0 6.8 5.44 12.3 12.17 12.3z" opacity=".7"/><path stroke="#21426B" stroke-linecap="round" stroke-linejoin="round" stroke-miterlimit="10" stroke-width="4" d="M258.9 118.48l-.2-.62a27.06 27.06 0 00-9.77-13.22 26.58 26.58 0 00-31.1.01 27.05 27.05 0 00-9.77 13.24"/><path fill="#C4D0DF" d="M70.62 46.52H22.07C9.88 46.52 0 56.5 0 68.83v48.2c0 12.33 9.88 22.32 22.07 22.32h48.55c12.19 0 22.07-9.99 22.07-22.31v-48.2c0-12.33-9.88-22.32-22.07-22.32z"/><path stroke="#21426B" stroke-miterlimit="10" stroke-width="4" d="M46.18 91.4c6.72 0 12.17-5.5 12.17-12.3 0-6.8-5.45-12.3-12.17-12.3A12.24 12.24 0 0034 79.1c0 6.8 5.45 12.3 12.17 12.3z" opacity=".7"/><path stroke="#21426B" stroke-linecap="round" stroke-miterlimit="10" stroke-width="4" d="M71.7 118.48l-.2-.62a27.05 27.05 0 00-9.78-13.22 26.57 26.57 0 00-31.1.01 27.05 27.05 0 00-9.76 13.24"/><path fill="#FED352" stroke="#fff" stroke-width="6" d="M182.81 3H97.2A25.19 25.19 0 0072 28.19v85.63A25.19 25.19 0 0097.19 139h85.63A25.19 25.19 0 00208 113.81V28.2A25.19 25.19 0 00182.81 3z"/><path stroke="#B68D2A" stroke-miterlimit="10" stroke-width="4" d="M140 67a20 20 0 100-40 20 20 0 000 40z" opacity=".7"/><path stroke="#B68D2A" stroke-miterlimit="10" stroke-width="4" d="M178 107l-.3-.92a39.83 39.83 0 00-14.62-19.44 40.17 40.17 0 00-46.49.02A39.83 39.83 0 00102 106.12"/><path fill="#21426B" stroke="#fff" stroke-width="6" d="M189.72 102.6H90.28a38.17 38.17 0 00-38.14 38.2c0 21.1 17.07 38.2 38.14 38.2h99.44a38.17 38.17 0 0038.14-38.2c0-21.1-17.07-38.2-38.14-38.2z"/><path stroke="#DEE3EA" stroke-linecap="round" stroke-width="3" d="M191 123.99H88.78" opacity=".8"/><path fill="#21426B" d="M132.28 130.65a6.76 6.76 0 10-.02-13.53 6.76 6.76 0 00.02 13.53z"/><path stroke="#DEE3EA" stroke-linecap="round" stroke-width="3" d="M132.28 129.2a5.31 5.31 0 10-.01-10.63 5.31 5.31 0 000 10.63z"/><path stroke="#DEE3EA" stroke-linecap="round" stroke-width="3" d="M191 156.67H88.78" opacity=".8"/><path fill="#21426B" d="M115.86 163.53a6.76 6.76 0 100-13.53 6.76 6.76 0 000 13.53z"/><path stroke="#DEE3EA" stroke-linecap="round" stroke-width="3" d="M115.86 162.08a5.31 5.31 0 100-10.63 5.31 5.31 0 000 10.63z"/><path stroke="#DEE3EA" stroke-linecap="round" stroke-width="3" d="M191 140.33H88.78" opacity=".8"/><path fill="#21426B" d="M168 147.09a6.76 6.76 0 100-13.53 6.76 6.76 0 000 13.53z"/><path stroke="#DEE3EA" stroke-linecap="round" stroke-width="3" d="M168 145.64a5.31 5.31 0 100-10.63 5.31 5.31 0 000 10.63z"/></svg>