<svg xmlns="http://www.w3.org/2000/svg" fill="none" viewBox="0 0 78 65"><defs/><path fill="url(#paint0_radial)" d="M50.61 12.85c-.5 0-.98-.19-1.35-.53a31.34 31.34 0 00-42.53 0 2 2 0 01-2.7-2.96 35.34 35.34 0 0147.93 0 2 2 0 01-1.35 3.48z"/><path fill="url(#paint1_radial)" d="M54 25.91a2 2 0 01-1.66-.88 29.03 29.03 0 00-48.68 0A2 2 0 01.34 22.8a33.04 33.04 0 0155.32 0A2 2 0 0154 25.9z"/><path fill="url(#paint2_radial)" d="M21.68 64a2 2 0 01-1.42-.6c-.43-.43-10.68-10.9-10.68-20.97 0-10.45 8.26-18.95 18.42-18.95 10.16 0 18.42 8.5 18.42 18.95a2 2 0 11-4 0c0-8.24-6.47-14.95-14.42-14.95-7.96 0-14.43 6.7-14.43 14.95 0 8.45 9.43 18.06 9.53 18.16a2 2 0 01-1.42 3.4z"/><path fill="url(#paint3_radial)" d="M34.32 64c-4.81 0-15.96-9.15-17.04-19.34a12.93 12.93 0 013.06-9.86 10.2 10.2 0 017.6-3.5H28a10.65 10.65 0 017.55 3.14 11.18 11.18 0 013.3 8v1.3a5.58 5.58 0 1011.15 0v-.46c0-12.45-9.02-22.81-20.54-23.58a21.41 21.41 0 00-16.2 5.82 23.36 23.36 0 00-2.22 31.43 2 2 0 01-3.13 2.5 27.37 27.37 0 012.6-36.85 25.37 25.37 0 0119.22-6.89C43.33 16.61 54 28.73 54 43.28v.45a9.58 9.58 0 11-19.16 0v-1.3a7.21 7.21 0 00-4.28-6.61A6.66 6.66 0 0028 35.3h-.04a6.18 6.18 0 00-4.65 2.16 8.87 8.87 0 00-2.07 6.77C22.13 52.55 31.68 60 34.31 60a2 2 0 010 4z"/><path fill="url(#paint4_radial)" d="M41.74 60.09c-7.16 0-15.9-8.75-15.9-18.96a2 2 0 114 0c0 7.91 6.66 14.96 11.9 14.96a2 2 0 010 4z"/><circle cx="60" cy="47" r="16" fill="#2D4665" stroke="#fff" stroke-width="4"/><path fill="#DEE3EA" d="M59.93 38.97a4.22 4.22 0 00-3.88 2.57c-.21.5-.32 1.04-.32 1.59v.7a1.41 1.41 0 00-1.4 1.38v6.94a1.4 1.4 0 001.4 1.4h8.4a1.42 1.42 0 001.4-1.4v-6.94a1.4 1.4 0 00-1.4-1.39v-.69a4.13 4.13 0 00-2.6-3.85 4.22 4.22 0 00-1.6-.31zm0 1.38a2.76 2.76 0 012.6 1.7c.14.35.2.71.2 1.08v.7h-5.6v-.7a2.7 2.7 0 011.72-2.58c.34-.14.7-.2 1.08-.2zm-4.2 4.86h8.4v6.94h-8.4v-6.94zm4.2 2.08a1.4 1.4 0 00-1.3.86 1.38 1.38 0 001.03 1.9 1.41 1.41 0 001.43-.6 1.38 1.38 0 00-.17-1.75 1.4 1.4 0 00-1-.4z"/><defs><radialGradient id="paint0_radial" cx="0" cy="0" r="1" gradientTransform="matrix(0 28.9994 -28.2768 0 28 35)" gradientUnits="userSpaceOnUse"><stop offset=".1" stop-color="#FED352"/><stop offset=".94" stop-color="#FFE8A0"/></radialGradient><radialGradient id="paint1_radial" cx="0" cy="0" r="1" gradientTransform="matrix(0 28.9994 -28.2768 0 28 35)" gradientUnits="userSpaceOnUse"><stop offset=".1" stop-color="#FED352"/><stop offset=".94" stop-color="#FFE8A0"/></radialGradient><radialGradient id="paint2_radial" cx="0" cy="0" r="1" gradientTransform="matrix(0 28.9994 -28.2768 0 28 35)" gradientUnits="userSpaceOnUse"><stop offset=".1" stop-color="#FED352"/><stop offset=".94" stop-color="#FFE8A0"/></radialGradient><radialGradient id="paint3_radial" cx="0" cy="0" r="1" gradientTransform="matrix(0 28.9994 -28.2768 0 28 35)" gradientUnits="userSpaceOnUse"><stop offset=".1" stop-color="#FED352"/><stop offset=".94" stop-color="#FFE8A0"/></radialGradient><radialGradient id="paint4_radial" cx="0" cy="0" r="1" gradientTransform="matrix(0 28.9994 -28.2768 0 28 35)" gradientUnits="userSpaceOnUse"><stop offset=".1" stop-color="#FED352"/><stop offset=".94" stop-color="#FFE8A0"/></radialGradient></defs></svg>