<svg xmlns="http://www.w3.org/2000/svg" fill="none" viewBox="0 0 80 80"><defs/><path fill="#1156A3" d="M80 40c0 17.5-3 27.75-10.25 33.5-6.25 5-16 6.5-29.75 6.5-15.75 0-26-2-32.25-9C2.25 65 0 55.25 0 40 0 23.75 2.5 13.75 8.75 8 15 1.75 25 0 40 0c14.75 0 24.75 1.75 31 7.75C77.5 13.5 80 23.5 80 40z"/><path fill="#276CAB" d="M40 66.75a26.51 26.51 0 01-26.5-26.5C13.5 25.5 25.5 14 40 14s26.5 11.75 26.5 26.5-12 26.25-26.5 26.25zM40 17c-13 0-23.5 10.5-23.5 23.5S27 64 40 64s23.5-10.5 23.5-23.5S53 17 40 17z"/><path fill="url(#paint0_linear)" d="M37.25 37.75v-25.5c0-1.5 1.25-2.75 2.75-2.75s2.75 1.25 2.75 2.75v25.5c0 1.5-1.25 2.75-2.75 2.75a2.77 2.77 0 01-2.75-2.75z"/><path fill="url(#paint1_linear)" d="M65.5 52.25l-24.25-14c-1.25-.75-3-.25-3.75 1s-.25 2.75 1 3.5l24.25 14c1.25.75 3 .25 3.75-1 .75-1 .25-2.75-1-3.5z"/><path fill="url(#paint2_linear)" d="M14.5 52.25l24.25-14c1.25-.75 3-.25 3.75 1s.25 2.75-1 3.5l-24.25 14c-1.25.75-3 .25-3.75-1-.75-1-.25-2.75 1-3.5z"/><path fill="#fff" d="M40 28.25c-6.75 0-12.25 5.5-12.25 12.25S33.25 52.75 40 52.75s12.25-5.5 12.25-12.25S46.75 28.25 40 28.25z"/><defs><linearGradient id="paint0_linear" x1="40" x2="40" y1="29.36" y2="10.14" gradientUnits="userSpaceOnUse"><stop stop-color="#8AA9BE"/><stop offset="1" stop-color="#DFF1FB"/></linearGradient><linearGradient id="paint1_linear" x1="49.84" x2="66.48" y1="46.27" y2="55.91" gradientUnits="userSpaceOnUse"><stop stop-color="#8AA9BE"/><stop offset="1" stop-color="#DFF1FB"/></linearGradient><linearGradient id="paint2_linear" x1="30.06" x2="13.42" y1="46.37" y2="55.71" gradientUnits="userSpaceOnUse"><stop stop-color="#8AA9BE"/><stop offset="1" stop-color="#DFF1FB"/></linearGradient></defs></svg>