<svg xmlns="http://www.w3.org/2000/svg" fill="none" viewBox="0 0 80 80"><defs/><path fill="#7580F4" d="M80 40c0 17.5-3 27.75-10.25 33.5-6.25 5-16 6.5-29.75 6.5-15.75 0-26-2-32.25-9C2.25 65 0 55.25 0 40 0 23.75 2.5 13.75 8.75 8 15 1.75 25 0 40 0c14.75 0 24.75 1.75 31 7.75C77.5 13.5 80 23.5 80 40z"/><path fill="#E7F4FF" d="M62.71 37.5H17.55c-.78 0-1.3-.5-1.3-1.25s.52-1.25 1.3-1.25h44.9c.78 0 1.3.5 1.3 1.25s-.52 1.25-1.04 1.25z" opacity=".9"/><path fill="#E7F4FF" d="M59.02 31.25h-37.8c-.73 0-1.22-.5-1.22-1.25s.49-1.25 1.22-1.25h37.56c.73 0 1.22.5 1.22 1.25s-.49 1.25-.98 1.25z" opacity=".7"/><path fill="#E7F4FF" d="M56.3 25H23.7c-.72 0-1.2-.5-1.2-1.25s.48-1.25 1.2-1.25h32.6c.72 0 1.2.5 1.2 1.25S57.02 25 56.3 25z" opacity=".4"/><path fill="#E7F4FF" d="M53.82 18.75H26.18c-.7 0-1.18-.5-1.18-1.25s.47-1.25 1.18-1.25h27.64c.7 0 1.18.5 1.18 1.25s-.47 1.25-1.18 1.25z" opacity=".3"/><path fill="#E7F4FF" d="M51.34 12.5H28.66c-.7 0-1.16-.5-1.16-1.25S27.96 10 28.66 10h22.68c.7 0 1.16.5 1.16 1.25s-.46 1.25-1.16 1.25z" opacity=".1"/><path fill="#EFF8FF" d="M12.64 49.76l3.32 15.05c.51 2.86 3.58 5.19 6.9 5.19h34.27a7.47 7.47 0 006.9-5.19l3.32-15.05c.77-3.89-1.53-7.26-5.62-7.26H18.52c-4.1 0-6.65 3.37-5.88 7.26z"/><path fill="url(#paint0_linear)" d="M23.56 66.25h32.88c2 0 3.76-1.82 4.26-4.17l1.76-11.45c.25-1.57-.75-3.13-2.26-3.13H19.8c-1.5 0-2.51 1.56-2.26 3.13l1.5 11.45c.5 2.6 2.26 4.17 4.52 4.17z"/><defs><linearGradient id="paint0_linear" x1="39.87" x2="39.87" y1="47.48" y2="66.33" gradientUnits="userSpaceOnUse"><stop stop-color="#98BEFA"/><stop offset=".28" stop-color="#ACCCFF"/><stop offset=".71" stop-color="#CEE3FC"/><stop offset="1" stop-color="#E9F1FB"/></linearGradient></defs></svg>