<svg width="40" height="40" viewBox="0 0 40 40" fill="none" xmlns="http://www.w3.org/2000/svg">
<circle cx="20" cy="20" r="20" fill="#F4C843"/>
<path fill-rule="evenodd" clip-rule="evenodd" d="M21.9581 18.0309C19.3018 19.359 18.1401 20.7143 18.1401 23.8792H21.8599C21.8599 22.3943 22.0932 22.1222 23.6216 21.3579C26.2779 20.0298 27.4396 18.6745 27.4396 15.5096C27.4396 11.4562 24.2487 9 20 9C15.8912 9 12.5604 12.3308 12.5604 16.4396H16.2802C16.2802 14.3852 17.9456 12.7198 20 12.7198C22.3754 12.7198 23.7198 13.7547 23.7198 15.5096C23.7198 16.9945 23.4865 17.2666 21.9581 18.0309ZM22.3737 28.6271C22.3737 29.9376 21.311 31 20 31C18.6891 31 17.6264 29.9376 17.6264 28.6271C17.6264 27.3166 18.6891 26.2543 20 26.2543C21.311 26.2543 22.3737 27.3166 22.3737 28.6271Z" fill="white"/>
</svg>
