      <svg xmlns="http://www.w3.org/2000/svg" fill="none" viewBox="0 0 366 176"><defs/><path fill="#FED352" d="M321.14 35.43h-193.3a11.87 11.87 0 00-10.94 7.28c-.6 1.43-.9 2.97-.9 4.52V170.6a5.4 5.4 0 005.74 5.39 5.43 5.43 0 002.75-.94l23.06-15.8h173.6a11.85 11.85 0 0011.82-11.8V47.24a11.77 11.77 0 00-11.83-11.8z"/><path fill="#C4D0DF" d="M96.65 56.38H11.84A11.87 11.87 0 00.9 63.66c-.6 1.43-.9 2.96-.9 4.5v63.85a11.76 11.76 0 007.3 10.9c1.44.59 2.98.9 4.54.9h82.8l10.63 7.28a2.06 2.06 0 003.22-1.69V68.17a11.75 11.75 0 00-7.3-10.9c-1.44-.59-2.98-.9-4.54-.9z"/><path fill="#21426B" d="M48.12 115.32a5.37 5.37 0 015.4-5.38 5.41 5.41 0 015.4 5.38 5.37 5.37 0 01-5.4 5.38 5.41 5.41 0 01-5.4-5.38zm.58-33.4a4 4 0 014-4.2h1.65a4 4 0 014 4.2l-1.1 21.67a3.73 3.73 0 01-7.45 0l-1.1-21.68z"/><path stroke="#B68D2A" stroke-linecap="round" stroke-miterlimit="10" stroke-width="6" d="M142.73 61h49"/><path stroke="#B68D2A" stroke-linecap="round" stroke-miterlimit="10" stroke-width="6" d="M142.73 79h133" opacity=".8"/><path stroke="#B68D2A" stroke-linecap="round" stroke-miterlimit="10" stroke-width="6" d="M142.73 97h106" opacity=".6"/><path stroke="#B68D2A" stroke-linecap="round" stroke-miterlimit="10" stroke-width="6" d="M142.73 115h148" opacity=".5"/><path stroke="#B68D2A" stroke-linecap="round" stroke-miterlimit="10" stroke-width="6" d="M142.73 133h85" opacity=".3"/><path fill="#21426B" stroke="#fff" stroke-width="4" d="M363.73 40a38 38 0 11-76 0 38 38 0 0176 0z"/><path stroke="#DEE3EA" stroke-width="3" d="M326.23 56.79a17.28 17.28 0 100-34.57 17.28 17.28 0 000 34.57z"/><path stroke="#DEE3EA" stroke-linecap="round" stroke-width="3" d="M324.75 41.98h10.86M324.75 41.98V30.12"/><defs><linearGradient id="paint0_linear" x1="224.49" x2="224.49" y1="35.43" y2="176" gradientUnits="userSpaceOnUse"><stop stop-color="#FFDA6B"/><stop offset="1" stop-color="#FED352"/></linearGradient></defs></svg>
