<svg xmlns="http://www.w3.org/2000/svg" fill="none" viewBox="0 0 68 68"><defs/><path fill="#FFF6DC" d="M39.5 56C49.717 56 58 47.717 58 37.5S49.717 19 39.5 19 21 27.283 21 37.5 29.283 56 39.5 56z"/><path fill="#5B708B" d="M51.5 31.2c-.398 0-.78-.164-1.06-.454A1.574 1.574 0 0150 29.65v-4.903c0-.41.158-.805.44-1.095.28-.29.662-.453 1.06-.453s.78.163 1.06.453c.282.29.44.684.44 1.095v4.904c0 .41-.158.804-.44 1.094-.28.29-.662.454-1.06.454z"/><path fill="#2D4665" d="M56.604 4.529L52.505.417a1.417 1.417 0 00-2.007 0l-4.1 4.112a1.426 1.426 0 001.01 2.413c.372.003.73-.14.998-.4l1.715-1.72v14.754c0 .377.15.74.416 1.007a1.418 1.418 0 002.424-1.007V4.902l1.633 1.638A1.417 1.417 0 0057 5.527a1.426 1.426 0 00-.399-1.001l.003.003z"/><path fill="#FED352" d="M48.833 41H37.167c-.31 0-.607-.126-.825-.35a1.215 1.215 0 01-.342-.848V24.198c0-.318.123-.622.342-.847.218-.225.515-.351.825-.351.31 0 .606.126.825.35.218.226.341.53.341.848v14.407h10.5c.31 0 .607.126.825.35.22.225.342.53.342.848 0 .317-.123.622-.342.847-.218.224-.515.35-.825.35z"/><path fill="#FED352" d="M67.598 14.164l-4.126-4.123a1.43 1.43 0 00-2.021 0l-4.127 4.123a1.427 1.427 0 002.021 2.02l1.727-1.725v23.107c0 3.728-.963 7.394-2.796 10.642a21.665 21.665 0 01-7.668 7.896 21.69 21.69 0 01-29.42-6.786 21.645 21.645 0 015.91-29.584 1.428 1.428 0 00-1.621-2.35 24.494 24.494 0 00-6.76 33.373 24.523 24.523 0 009.117 8.428 24.547 24.547 0 0032.777-9.317 24.494 24.494 0 003.31-11.962c0-.029.01-.056.01-.086V14.538l1.647 1.643A1.43 1.43 0 0068 15.166a1.428 1.428 0 00-.401-1.005v.003z"/><path fill="#21426B" stroke="#fff" stroke-width="4" d="M21.073 40H8.927A6.927 6.927 0 002 46.927v12.146A6.927 6.927 0 008.927 66h12.146A6.927 6.927 0 0028 59.073V46.927A6.927 6.927 0 0021.073 40z"/><path fill="#DEE3EA" d="M19.957 51.957h-3.914v-3.914a1.043 1.043 0 10-2.086 0v3.914h-3.914a1.043 1.043 0 100 2.086h3.914v3.914a1.043 1.043 0 102.086 0v-3.914h3.914a1.043 1.043 0 100-2.086z"/></svg>