<?xml version="1.0" encoding="utf-8"?>
<!-- Generator: Adobe Illustrator 16.2.0, SVG Export Plug-In . SVG Version: 6.00 Build 0)  -->
<!DOCTYPE svg PUBLIC "-//W3C//DTD SVG 1.1//EN" "http://www.w3.org/Graphics/SVG/1.1/DTD/svg11.dtd">
<svg version="1.1" id="Layer_1" xmlns="http://www.w3.org/2000/svg" xmlns:xlink="http://www.w3.org/1999/xlink" x="0px" y="0px"
	 width="512px" height="512px" viewBox="0 0 512 512" enable-background="new 0 0 512 512" xml:space="preserve">
<g>
	<rect x="227.792" y="233.119" fill="#FFFFFF" width="3.677" height="69.596"/>
	<path fill="#FFFFFF" d="M283.729,231.411c-20.879,0-36.634,15.759-36.634,36.506c0,20.879,15.755,36.505,36.634,36.505
		c20.88,0,36.637-15.626,36.637-36.505C320.366,247.17,304.609,231.411,283.729,231.411z M283.729,301.008
		c-18.778,0-32.958-14.182-32.958-33.091c0-18.91,14.18-33.09,32.958-33.09s32.962,14.18,32.962,33.09
		C316.691,286.826,302.508,301.008,283.729,301.008z"/>
	<path fill="#FFFFFF" d="M389.83,238.371c-7.879-6.434-17.332-6.96-22.191-6.96c-11.031,0-23.244,5.123-27.575,15.102h-0.265
		v-13.394h-3.677v69.596h3.677v-40.051c0-17.464,10.769-27.837,28.234-27.837c10.505,0,16.149,3.414,19.696,6.565
		c5.252,4.727,8.536,12.474,8.536,24.554v36.769h3.677v-36.769C399.942,253.472,396.659,244.148,389.83,238.371z"/>
	<rect x="420.295" y="233.119" fill="#FFFFFF" width="3.677" height="69.596"/>
	<path fill="#FFFFFF" d="M476.233,301.008c-17.728,0-32.961-13.395-32.961-33.091c0-9.454,3.939-18.646,9.587-23.769
		c7.221-6.433,13.656-9.321,23.505-9.321c13.656,0,25.738,7.615,30.463,20.876h4.072c-5.514-16.413-20.485-24.292-34.666-24.292
		c-21.142,0-36.638,16.02-36.638,36.638c0,21.667,16.414,36.373,36.638,36.373c16.546,0,29.676-9.454,34.535-23.636h-4.07
		C503.284,291.16,491.99,301.008,476.233,301.008z"/>
	<circle fill="#FFFFFF" cx="229.632" cy="211.546" r="3.969"/>
	<circle fill="#FFFFFF" cx="422.132" cy="211.546" r="3.969"/>
	<circle fill="#FFFFFF" cx="90.024" cy="256" r="36.306"/>
	<path fill="#FFFFFF" d="M164.115,194.395c0-6.897-5.592-12.485-12.486-12.485c-3.129,0-5.98,1.159-8.171,3.06
		c-14.887-11.227-33.397-17.892-53.435-17.892c-49.032,0-88.923,39.891-88.923,88.923c0,49.031,39.891,88.923,88.923,88.923
		s88.922-39.892,88.922-88.923c0-20.039-6.665-38.548-17.892-53.435C162.956,200.375,164.115,197.523,164.115,194.395z
		 M90.023,341.931c-47.382,0-85.931-38.549-85.931-85.931c0-47.382,38.548-85.931,85.931-85.931c19.266,0,37.07,6.374,51.417,17.123
		c-1.442,2.036-2.297,4.517-2.297,7.203c0,6.894,5.59,12.483,12.485,12.483c2.685,0,5.165-0.855,7.202-2.297
		c10.749,14.348,17.123,32.152,17.123,51.419C175.954,303.382,137.406,341.931,90.023,341.931z"/>
</g>
</svg>
